<svg id="Layer_1" data-name="Layer 1" xmlns="http://www.w3.org/2000/svg" width="481.86" height="471.065" viewBox="0 0 481.86 471.065">
  <defs>
    <style>
      .cls-1, .cls-4 {
        fill: #f0f0f0;
      }

      .cls-19, .cls-2, .cls-5, .cls-6, .cls-7, .cls-8 {
        fill: #fff;
      }

      .cls-18, .cls-2 {
        stroke: #4c4c4c;
      }

      .cls-14, .cls-15, .cls-16, .cls-17, .cls-18, .cls-2, .cls-4, .cls-5, .cls-6, .cls-7, .cls-8 {
        stroke-miterlimit: 10;
        stroke-width: 1.5px;
      }

      .cls-3 {
        fill: #d2d2d2;
      }

      .cls-4 {
        stroke: #bebebe;
      }

      .cls-14, .cls-5 {
        stroke: #9c82c0;
      }

      .cls-15, .cls-6 {
        stroke: #3f9c35;
      }

      .cls-16, .cls-7 {
        stroke: #0088ce;
      }

      .cls-17, .cls-8 {
        stroke: #f0ab00;
      }

      .cls-9 {
        fill: #4c4c4c;
      }

      .cls-10 {
        fill: #3f9c35;
      }

      .cls-11 {
        fill: #9c82c0;
      }

      .cls-12 {
        fill: #0088ce;
      }

      .cls-13 {
        fill: #f0ab00;
      }

      .cls-14, .cls-15, .cls-16, .cls-17, .cls-18 {
        fill: none;
      }

      .cls-20 {
        fill: #8c8c8c;
      }
    </style>
  </defs>
  <rect class="cls-1" x="8.461" y="7.522" width="462.907" height="457.237"/>
  <ellipse class="cls-2" cx="428.064" cy="148.298" rx="27.631" ry="11.578"/>
  <rect class="cls-2" x="214.835" y="53.045" width="164.181" height="397.155"/>
  <rect class="cls-3" x="23.842" y="53.045" width="164.181" height="397.155"/>
  <rect class="cls-4" x="34.857" y="97.83" width="142.152" height="108.406"/>
  <rect class="cls-4" x="34.857" y="215.237" width="142.152" height="108.406"/>
  <rect class="cls-4" x="34.857" y="332.643" width="142.152" height="108.406"/>
  <rect class="cls-5" x="45.203" y="120.936" width="73.954" height="21.684"/>
  <rect class="cls-5" x="45.203" y="148.034" width="73.954" height="21.684"/>
  <rect class="cls-6" x="45.203" y="175.131" width="73.954" height="21.684"/>
  <rect class="cls-7" x="45.203" y="238.553" width="73.954" height="21.684"/>
  <rect class="cls-7" x="45.203" y="265.651" width="73.954" height="21.684"/>
  <rect class="cls-6" x="45.203" y="292.748" width="73.954" height="21.684"/>
  <rect class="cls-8" x="45.203" y="355.17" width="73.954" height="21.684"/>
  <rect class="cls-8" x="45.203" y="382.268" width="73.954" height="21.684"/>
  <rect class="cls-6" x="45.203" y="409.365" width="73.954" height="21.684"/>
  <path class="cls-5" d="M214.835,121.936h32.624a4,4,0,0,1,4,4V139.62a4,4,0,0,1-4,4H214.835Z"/>
  <path class="cls-5" d="M214.835,149.034h32.624a4,4,0,0,1,4,4v13.684a4,4,0,0,1-4,4H214.835Z"/>
  <path class="cls-6" d="M214.835,176.131h32.624a4,4,0,0,1,4,4v13.685a4,4,0,0,1-4,4H214.835Z"/>
  <path class="cls-7" d="M214.835,239.553h32.624a4,4,0,0,1,4,4v13.684a4,4,0,0,1-4,4H214.835Z"/>
  <path class="cls-7" d="M214.835,266.651h32.624a4,4,0,0,1,4,4v13.684a4,4,0,0,1-4,4H214.835Z"/>
  <path class="cls-6" d="M214.835,293.748h32.624a4,4,0,0,1,4,4v13.685a4,4,0,0,1-4,4H214.835Z"/>
  <path class="cls-8" d="M214.835,356.17h32.624a4,4,0,0,1,4,4v13.684a4,4,0,0,1-4,4H214.835Z"/>
  <path class="cls-8" d="M214.835,383.268h32.624a4,4,0,0,1,4,4v13.684a4,4,0,0,1-4,4H214.835Z"/>
  <path class="cls-6" d="M214.835,410.365h32.624a4,4,0,0,1,4,4V428.05a4,4,0,0,1-4,4H214.835Z"/>
  <g>
    <path class="cls-9" d="M60.04,127.324H61.3v8.4H60.04Z"/>
    <path class="cls-9" d="M62.872,129.615h1.2v.611a2.516,2.516,0,0,1,1.835-.731,2.279,2.279,0,0,1,2.386,2.387v3.838h-1.2v-3.634a1.421,1.421,0,0,0-1.511-1.548,1.726,1.726,0,0,0-1.511.792v4.39h-1.2Z"/>
    <path class="cls-9" d="M69.748,134.137a3.2,3.2,0,0,0,1.991.767c.863,0,1.463-.372,1.463-.911,0-.432-.312-.684-.984-.78l-1.1-.156c-1.211-.18-1.823-.744-1.823-1.691,0-1.1.959-1.847,2.387-1.847a4.182,4.182,0,0,1,2.458.78l-.611.791a3.393,3.393,0,0,0-1.931-.636c-.732,0-1.223.336-1.223.828,0,.444.287.66,1.007.768l1.1.155c1.212.181,1.847.756,1.847,1.7,0,1.091-1.1,1.919-2.554,1.919a4.026,4.026,0,0,1-2.675-.9Z"/>
    <path class="cls-9" d="M75.927,130.622h-1.3v-1.007h1.3v-1.559l1.188-.288v1.847h1.8v1.007h-1.8v3.311c0,.623.252.851.9.851a2.358,2.358,0,0,0,.876-.144v1.008a3.974,3.974,0,0,1-1.14.18c-1.187,0-1.823-.564-1.823-1.62Z"/>
    <path class="cls-9" d="M79.492,133.969c0-1.152.935-1.859,2.47-1.859a4.312,4.312,0,0,1,1.668.335V131.8c0-.864-.516-1.3-1.487-1.3a4.356,4.356,0,0,0-1.9.516l-.443-.9a5.709,5.709,0,0,1,2.506-.624c1.583,0,2.5.78,2.5,2.183v4.042H83.63v-.528a2.9,2.9,0,0,1-1.895.636C80.4,135.828,79.492,135.072,79.492,133.969Zm2.519.971a2.348,2.348,0,0,0,1.619-.576v-1.055a3.171,3.171,0,0,0-1.571-.372c-.876,0-1.416.4-1.416,1.008C80.643,134.532,81.195,134.94,82.011,134.94Z"/>
    <path class="cls-9" d="M86.187,129.615h1.2v.611a2.516,2.516,0,0,1,1.835-.731,2.279,2.279,0,0,1,2.386,2.387v3.838h-1.2v-3.634a1.421,1.421,0,0,0-1.511-1.548,1.724,1.724,0,0,0-1.511.792v4.39h-1.2Z"/>
    <path class="cls-9" d="M97.549,134.029l.719.779a3.373,3.373,0,0,1-2.41,1.02,3.167,3.167,0,0,1,0-6.333,3.463,3.463,0,0,1,2.458,1.02l-.756.815a2.266,2.266,0,0,0-1.678-.768,2.108,2.108,0,0,0,.024,4.21A2.227,2.227,0,0,0,97.549,134.029Z"/>
    <path class="cls-9" d="M101.93,135.828a3.142,3.142,0,0,1-3.2-3.166,3.068,3.068,0,0,1,3.059-3.143,3.023,3.023,0,0,1,2.95,3.19v.348H99.915a2.058,2.058,0,0,0,2.063,1.751,2.373,2.373,0,0,0,1.547-.54l.767.756A3.638,3.638,0,0,1,101.93,135.828Zm-2-3.67h3.622a1.821,1.821,0,0,0-3.622,0Z"/>
  </g>
  <g>
    <path class="cls-10" d="M142.8,182.391a2.667,2.667,0,0,0,1.659.64c.72,0,1.219-.31,1.219-.76,0-.359-.26-.569-.819-.65l-.92-.129c-1.009-.15-1.519-.62-1.519-1.41,0-.919.8-1.539,1.989-1.539a3.487,3.487,0,0,1,2.049.65l-.51.659a2.83,2.83,0,0,0-1.609-.529c-.61,0-1.019.279-1.019.69,0,.369.24.549.839.639l.92.13c1.009.15,1.539.63,1.539,1.419,0,.91-.92,1.6-2.129,1.6a3.359,3.359,0,0,1-2.229-.749Z"/>
    <path class="cls-10" d="M147.388,176.714l1-.219v2.638a2.091,2.091,0,0,1,1.528-.61,1.9,1.9,0,0,1,1.99,1.989v3.2h-1v-3.028a1.184,1.184,0,0,0-1.259-1.289,1.435,1.435,0,0,0-1.259.659v3.658h-1Z"/>
    <path class="cls-10" d="M152.8,182.251c0-.959.78-1.549,2.059-1.549a3.589,3.589,0,0,1,1.389.28v-.54c0-.719-.43-1.079-1.239-1.079a3.625,3.625,0,0,0-1.579.429l-.37-.749a4.757,4.757,0,0,1,2.089-.52c1.319,0,2.079.65,2.079,1.819v3.368h-.98v-.44a2.412,2.412,0,0,1-1.579.53C153.558,183.8,152.8,183.171,152.8,182.251Zm2.1.81a1.956,1.956,0,0,0,1.349-.48V181.7a2.64,2.64,0,0,0-1.309-.31c-.73,0-1.18.33-1.18.839C153.757,182.721,154.217,183.061,154.9,183.061Z"/>
    <path class="cls-10" d="M158.378,178.623h1v.65a1.593,1.593,0,0,1,1.4-.76,1.271,1.271,0,0,1,.51.08v.9a1.713,1.713,0,0,0-.59-.11,1.39,1.39,0,0,0-1.319.929v3.4h-1Z"/>
    <path class="cls-10" d="M164.216,183.8a2.617,2.617,0,0,1-2.668-2.638,2.556,2.556,0,0,1,2.548-2.619,2.52,2.52,0,0,1,2.459,2.659v.29h-4.018a1.717,1.717,0,0,0,1.719,1.459,1.975,1.975,0,0,0,1.289-.45l.64.63A3.036,3.036,0,0,1,164.216,183.8Zm-1.669-3.058h3.018a1.517,1.517,0,0,0-3.018,0Z"/>
    <path class="cls-10" d="M171.425,183.231a2.4,2.4,0,0,1-1.559.559,2.624,2.624,0,1,1,1.549-4.747v-2.329l1-.219v7.215h-.99Zm-1.419-.31a1.831,1.831,0,0,0,1.409-.61V180a1.856,1.856,0,0,0-1.409-.6,1.7,1.7,0,0,0-1.729,1.749A1.721,1.721,0,0,0,170.006,182.921Z"/>
    <path class="cls-10" d="M136.239,190.623h1v.51a2.1,2.1,0,0,1,1.529-.61,1.9,1.9,0,0,1,1.989,1.989v3.2h-1v-3.028a1.184,1.184,0,0,0-1.26-1.289,1.436,1.436,0,0,0-1.259.659v3.658h-1Z"/>
    <path class="cls-10" d="M144.347,195.8a2.617,2.617,0,0,1-2.668-2.638,2.556,2.556,0,0,1,2.548-2.619,2.52,2.52,0,0,1,2.459,2.659v.29h-4.018a1.717,1.717,0,0,0,1.719,1.459,1.977,1.977,0,0,0,1.289-.45l.64.63A3.038,3.038,0,0,1,144.347,195.8Zm-1.669-3.058H145.7a1.517,1.517,0,0,0-3.018,0Z"/>
    <path class="cls-10" d="M148.1,191.463h-1.08v-.84h1.08v-1.3l.989-.24v1.539h1.5v.84h-1.5v2.758c0,.52.21.71.75.71a1.956,1.956,0,0,0,.729-.12v.839a3.3,3.3,0,0,1-.949.15c-.99,0-1.519-.47-1.519-1.349Z"/>
    <path class="cls-10" d="M152.378,195.71l-1.419-5.087h.969l.98,3.738,1.169-3.738h.859l1.16,3.738.989-3.738h.94L156.6,195.71h-.96l-1.139-3.728-1.149,3.728Z"/>
    <path class="cls-10" d="M161.057,190.523a2.644,2.644,0,1,1-2.648,2.639A2.612,2.612,0,0,1,161.057,190.523Zm1.659,2.639a1.667,1.667,0,1,0-1.659,1.769A1.7,1.7,0,0,0,162.716,193.162Z"/>
    <path class="cls-10" d="M164.648,190.623h1v.65a1.59,1.59,0,0,1,1.4-.76,1.271,1.271,0,0,1,.51.08v.9a1.713,1.713,0,0,0-.59-.11,1.389,1.389,0,0,0-1.319.929v3.4h-1Z"/>
    <path class="cls-10" d="M168.358,188.714l1-.219v4.367l2.468-2.239H173l-2.619,2.389,2.759,2.7h-1.32l-2.458-2.4v2.4h-1Z"/>
  </g>
  <g>
    <path class="cls-10" d="M142.8,300.27a2.667,2.667,0,0,0,1.659.64c.72,0,1.219-.31,1.219-.76,0-.359-.26-.569-.819-.649l-.92-.13c-1.009-.149-1.519-.619-1.519-1.409,0-.919.8-1.539,1.989-1.539a3.493,3.493,0,0,1,2.049.649l-.51.66a2.824,2.824,0,0,0-1.609-.53c-.61,0-1.019.28-1.019.69,0,.37.24.549.839.64l.92.13c1.009.149,1.539.629,1.539,1.419,0,.909-.92,1.6-2.129,1.6a3.359,3.359,0,0,1-2.229-.749Z"/>
    <path class="cls-10" d="M147.388,294.594l1-.22v2.639a2.091,2.091,0,0,1,1.528-.61,1.9,1.9,0,0,1,1.99,1.989v3.2h-1v-3.029a1.184,1.184,0,0,0-1.259-1.289,1.435,1.435,0,0,0-1.259.66v3.658h-1Z"/>
    <path class="cls-10" d="M152.8,300.131c0-.959.78-1.549,2.059-1.549a3.606,3.606,0,0,1,1.389.279v-.539c0-.72-.43-1.08-1.239-1.08a3.614,3.614,0,0,0-1.579.43l-.37-.749a4.743,4.743,0,0,1,2.089-.52c1.319,0,2.079.65,2.079,1.819v3.368h-.98v-.44a2.412,2.412,0,0,1-1.579.53C153.558,301.68,152.8,301.051,152.8,300.131Zm2.1.809a1.961,1.961,0,0,0,1.349-.479v-.88a2.64,2.64,0,0,0-1.309-.31c-.73,0-1.18.33-1.18.84C153.757,300.6,154.217,300.94,154.9,300.94Z"/>
    <path class="cls-10" d="M158.378,296.5h1v.649a1.6,1.6,0,0,1,1.4-.76,1.269,1.269,0,0,1,.51.081v.9a1.735,1.735,0,0,0-.59-.109,1.388,1.388,0,0,0-1.319.929v3.4h-1Z"/>
    <path class="cls-10" d="M164.216,301.68a2.618,2.618,0,0,1-2.668-2.639,2.555,2.555,0,0,1,2.548-2.618,2.519,2.519,0,0,1,2.459,2.658v.29h-4.018a1.716,1.716,0,0,0,1.719,1.459,1.98,1.98,0,0,0,1.289-.449l.64.63A3.036,3.036,0,0,1,164.216,301.68Zm-1.669-3.058h3.018a1.517,1.517,0,0,0-3.018,0Z"/>
    <path class="cls-10" d="M171.425,301.11a2.4,2.4,0,0,1-1.559.56,2.624,2.624,0,1,1,1.549-4.747v-2.329l1-.22v7.216h-.99Zm-1.419-.309a1.828,1.828,0,0,0,1.409-.611v-2.308a1.857,1.857,0,0,0-1.409-.6,1.76,1.76,0,0,0,0,3.519Z"/>
    <path class="cls-10" d="M136.239,308.5h1v.51a2.1,2.1,0,0,1,1.529-.61,1.9,1.9,0,0,1,1.989,1.989v3.2h-1v-3.029a1.184,1.184,0,0,0-1.26-1.289,1.437,1.437,0,0,0-1.259.66v3.658h-1Z"/>
    <path class="cls-10" d="M144.347,313.68a2.618,2.618,0,0,1-2.668-2.639,2.555,2.555,0,0,1,2.548-2.618,2.519,2.519,0,0,1,2.459,2.658v.29h-4.018a1.716,1.716,0,0,0,1.719,1.459,1.982,1.982,0,0,0,1.289-.449l.64.63A3.038,3.038,0,0,1,144.347,313.68Zm-1.669-3.058H145.7a1.517,1.517,0,0,0-3.018,0Z"/>
    <path class="cls-10" d="M148.1,309.343h-1.08v-.84h1.08v-1.3l.989-.239V308.5h1.5v.84h-1.5V312.1c0,.521.21.71.75.71a1.956,1.956,0,0,0,.729-.12v.84a3.3,3.3,0,0,1-.949.15c-.99,0-1.519-.47-1.519-1.349Z"/>
    <path class="cls-10" d="M152.378,313.59l-1.419-5.087h.969l.98,3.738,1.169-3.738h.859l1.16,3.738.989-3.738h.94L156.6,313.59h-.96l-1.139-3.728-1.149,3.728Z"/>
    <path class="cls-10" d="M161.057,308.4a2.644,2.644,0,1,1-2.648,2.638A2.611,2.611,0,0,1,161.057,308.4Zm1.659,2.638a1.667,1.667,0,1,0-1.659,1.769A1.7,1.7,0,0,0,162.716,311.041Z"/>
    <path class="cls-10" d="M164.648,308.5h1v.649a1.592,1.592,0,0,1,1.4-.76,1.269,1.269,0,0,1,.51.081v.9a1.735,1.735,0,0,0-.59-.109,1.387,1.387,0,0,0-1.319.929v3.4h-1Z"/>
    <path class="cls-10" d="M168.358,306.594l1-.22v4.367l2.468-2.238H173l-2.619,2.389,2.759,2.7h-1.32l-2.458-2.4v2.4h-1Z"/>
  </g>
  <g>
    <path class="cls-10" d="M142.8,416.92a2.667,2.667,0,0,0,1.659.64c.72,0,1.219-.31,1.219-.759,0-.36-.26-.571-.819-.651l-.92-.129c-1.009-.15-1.519-.62-1.519-1.41,0-.919.8-1.539,1.989-1.539a3.488,3.488,0,0,1,2.049.651l-.51.659a2.826,2.826,0,0,0-1.609-.531c-.61,0-1.019.281-1.019.691,0,.37.24.55.839.64l.92.129c1.009.15,1.539.63,1.539,1.419,0,.911-.92,1.6-2.129,1.6a3.354,3.354,0,0,1-2.229-.75Z"/>
    <path class="cls-10" d="M147.388,411.244l1-.221v2.639a2.1,2.1,0,0,1,1.528-.609,1.9,1.9,0,0,1,1.99,1.988v3.2h-1v-3.029a1.184,1.184,0,0,0-1.259-1.289,1.435,1.435,0,0,0-1.259.66v3.658h-1Z"/>
    <path class="cls-10" d="M152.8,416.781c0-.96.78-1.55,2.059-1.55a3.589,3.589,0,0,1,1.389.281v-.54c0-.72-.43-1.08-1.239-1.08a3.6,3.6,0,0,0-1.579.43l-.37-.75a4.768,4.768,0,0,1,2.089-.519c1.319,0,2.079.649,2.079,1.818v3.369h-.98v-.44a2.412,2.412,0,0,1-1.579.53C153.558,418.33,152.8,417.7,152.8,416.781Zm2.1.809a1.956,1.956,0,0,0,1.349-.48v-.88a2.65,2.65,0,0,0-1.309-.309c-.73,0-1.18.33-1.18.84C153.757,417.25,154.217,417.59,154.9,417.59Z"/>
    <path class="cls-10" d="M158.378,413.152h1v.651a1.591,1.591,0,0,1,1.4-.76,1.253,1.253,0,0,1,.51.08v.9a1.735,1.735,0,0,0-.59-.109,1.389,1.389,0,0,0-1.319.93v3.4h-1Z"/>
    <path class="cls-10" d="M164.216,418.33a2.618,2.618,0,0,1-2.668-2.639,2.557,2.557,0,0,1,2.548-2.619,2.519,2.519,0,0,1,2.459,2.658v.291h-4.018a1.716,1.716,0,0,0,1.719,1.459,1.975,1.975,0,0,0,1.289-.45l.64.63A3.037,3.037,0,0,1,164.216,418.33Zm-1.669-3.059h3.018a1.517,1.517,0,0,0-3.018,0Z"/>
    <path class="cls-10" d="M171.425,417.76a2.4,2.4,0,0,1-1.559.56,2.624,2.624,0,1,1,1.549-4.748v-2.328l1-.221v7.217h-.99Zm-1.419-.31a1.831,1.831,0,0,0,1.409-.61v-2.309a1.86,1.86,0,0,0-1.409-.6,1.759,1.759,0,0,0,0,3.518Z"/>
    <path class="cls-10" d="M136.239,425.152h1v.51a2.1,2.1,0,0,1,1.529-.609,1.9,1.9,0,0,1,1.989,1.988v3.2h-1v-3.029a1.184,1.184,0,0,0-1.26-1.289,1.437,1.437,0,0,0-1.259.66v3.658h-1Z"/>
    <path class="cls-10" d="M144.347,430.33a2.618,2.618,0,0,1-2.668-2.639,2.557,2.557,0,0,1,2.548-2.619,2.52,2.52,0,0,1,2.459,2.658v.291h-4.018a1.716,1.716,0,0,0,1.719,1.459,1.977,1.977,0,0,0,1.289-.45l.64.63A3.039,3.039,0,0,1,144.347,430.33Zm-1.669-3.059H145.7a1.517,1.517,0,0,0-3.018,0Z"/>
    <path class="cls-10" d="M148.1,425.992h-1.08v-.84h1.08v-1.3l.989-.24v1.539h1.5v.84h-1.5v2.758c0,.52.21.71.75.71a1.956,1.956,0,0,0,.729-.12v.84a3.334,3.334,0,0,1-.949.15c-.99,0-1.519-.471-1.519-1.35Z"/>
    <path class="cls-10" d="M152.378,430.24l-1.419-5.088h.969l.98,3.739,1.169-3.739h.859l1.16,3.739.989-3.739h.94L156.6,430.24h-.96l-1.139-3.728-1.149,3.728Z"/>
    <path class="cls-10" d="M161.057,425.053a2.644,2.644,0,1,1-2.648,2.638A2.611,2.611,0,0,1,161.057,425.053Zm1.659,2.638a1.667,1.667,0,1,0-1.659,1.769A1.7,1.7,0,0,0,162.716,427.691Z"/>
    <path class="cls-10" d="M164.648,425.152h1v.651a1.588,1.588,0,0,1,1.4-.76,1.253,1.253,0,0,1,.51.08v.9a1.735,1.735,0,0,0-.59-.109,1.388,1.388,0,0,0-1.319.93v3.4h-1Z"/>
    <path class="cls-10" d="M168.358,423.244l1-.221v4.368l2.468-2.239H173l-2.619,2.389,2.759,2.7h-1.32l-2.458-2.4v2.4h-1Z"/>
  </g>
  <g>
    <path class="cls-9" d="M45.958,105.143h4.21a2.622,2.622,0,1,1,0,5.229H47.7v3.166h-1.74Zm1.74,1.5v2.291h2.278a1.15,1.15,0,1,0,0-2.291Z"/>
    <path class="cls-9" d="M54.022,107.29h1.643v.684a1.989,1.989,0,0,1,1.668-.828,1.417,1.417,0,0,1,.684.144v1.439a2.106,2.106,0,0,0-.84-.168,1.655,1.655,0,0,0-1.512.935v4.042H54.022Z"/>
    <path class="cls-9" d="M61.653,107.17a3.246,3.246,0,1,1-3.334,3.25A3.257,3.257,0,0,1,61.653,107.17Zm1.727,3.25a1.729,1.729,0,1,0-1.727,1.811A1.751,1.751,0,0,0,63.38,110.42Z"/>
    <path class="cls-9" d="M64.751,116.009V114.75a2.511,2.511,0,0,0,.54.048c.492,0,.707-.192.707-.636V107.29h1.644v6.968a1.773,1.773,0,0,1-2.027,1.859A2.918,2.918,0,0,1,64.751,116.009Zm1.128-10.4a.935.935,0,1,1,.935.935A.936.936,0,0,1,65.879,105.611Z"/>
    <path class="cls-9" d="M72,113.659a3.253,3.253,0,0,1-3.358-3.239,3.189,3.189,0,0,1,3.214-3.238,3.154,3.154,0,0,1,3.094,3.358v.432H70.293a1.8,1.8,0,0,0,1.776,1.307,1.966,1.966,0,0,0,1.379-.5l1.079.984A3.743,3.743,0,0,1,72,113.659ZM70.282,109.8H73.34a1.612,1.612,0,0,0-1.523-1.259A1.569,1.569,0,0,0,70.282,109.8Z"/>
    <path class="cls-9" d="M80.552,111.524l.984,1.019a3.473,3.473,0,0,1-2.543,1.116,3.245,3.245,0,1,1,0-6.489,3.512,3.512,0,0,1,2.59,1.116l-1.007,1.067a2.027,2.027,0,0,0-1.547-.756,1.815,1.815,0,0,0,.036,3.622A1.942,1.942,0,0,0,80.552,111.524Z"/>
    <path class="cls-9" d="M83.362,108.669H82.079V107.29h1.283v-1.6l1.643-.372v1.967H86.78v1.379H85.005v2.771c0,.587.228.8.864.8a2.527,2.527,0,0,0,.875-.144v1.344a5.1,5.1,0,0,1-1.271.191c-1.392,0-2.111-.635-2.111-1.859Z"/>
    <path class="cls-9" d="M92.769,105.143h2.015l3.406,8.395H96.307l-.851-2.207H91.989l-.863,2.207H89.315Zm2.159,4.8-1.188-3.094-1.211,3.094Z"/>
  </g>
  <g>
    <path class="cls-9" d="M35.612,62.493h4.1a2.645,2.645,0,0,1,2.9,2.6,2.492,2.492,0,0,1-1.643,2.339l1.859,3.454H40.889l-1.643-3.214h-1.9v3.214H35.612Zm1.739,1.5v2.254h2.207a1.138,1.138,0,1,0,0-2.254Z"/>
    <path class="cls-9" d="M46.362,71.008A3.253,3.253,0,0,1,43,67.77a3.189,3.189,0,0,1,3.214-3.238,3.154,3.154,0,0,1,3.094,3.358v.432H44.659a1.8,1.8,0,0,0,1.775,1.307,1.966,1.966,0,0,0,1.379-.5l1.08.983A3.747,3.747,0,0,1,46.362,71.008Zm-1.715-3.862h3.058a1.612,1.612,0,0,0-1.523-1.259A1.568,1.568,0,0,0,44.647,67.146Z"/>
    <path class="cls-9" d="M55.037,70.372a2.83,2.83,0,0,1-1.775.6,3.208,3.208,0,0,1,.048-6.416,3.111,3.111,0,0,1,1.7.491V62.493l1.643-.36v8.755H55.037Zm-1.511-.8a2,2,0,0,0,1.487-.6V66.535a2.061,2.061,0,0,0-1.487-.588,1.811,1.811,0,1,0,0,3.622Z"/>
    <path class="cls-9" d="M60.476,62.493h1.739v3.37h3.862v-3.37h1.739v8.4H66.077v-3.43H62.215v3.43H60.476Z"/>
    <path class="cls-9" d="M68.816,69.077c0-1.187.959-1.895,2.567-1.895a5.055,5.055,0,0,1,1.523.24v-.444c0-.719-.444-1.091-1.32-1.091a4.837,4.837,0,0,0-1.906.516l-.6-1.212a6.511,6.511,0,0,1,2.782-.672c1.691,0,2.663.84,2.663,2.315v4.054H72.906v-.432A2.971,2.971,0,0,1,71.1,71,2.023,2.023,0,0,1,68.816,69.077Zm2.71.744a2.367,2.367,0,0,0,1.38-.4V68.49a3.612,3.612,0,0,0-1.32-.228c-.755,0-1.2.3-1.2.779S70.831,69.821,71.526,69.821Z"/>
    <path class="cls-9" d="M76.387,66.019H75.1V64.64h1.283v-1.6l1.643-.371V64.64h1.776v1.379H78.03v2.77c0,.588.228.8.864.8a2.52,2.52,0,0,0,.875-.144v1.343a5.086,5.086,0,0,1-1.271.192c-1.391,0-2.111-.635-2.111-1.859Z"/>
    <path class="cls-9" d="M87.257,71.02a4.331,4.331,0,1,1,4.449-4.33A4.345,4.345,0,0,1,87.257,71.02Zm0-7.064a2.735,2.735,0,1,0,2.662,2.734A2.641,2.641,0,0,0,87.257,63.956Z"/>
    <path class="cls-9" d="M92.791,64.64H94.41v.515a2.839,2.839,0,0,1,1.775-.6,3.208,3.208,0,0,1-.048,6.416,3.106,3.106,0,0,1-1.7-.492V73.4H92.791Zm1.643,1.906v2.459a2.1,2.1,0,0,0,1.487.576,1.811,1.811,0,1,0,0-3.622A2.018,2.018,0,0,0,94.434,66.546Z"/>
    <path class="cls-9" d="M103.493,71.008a3.253,3.253,0,0,1-3.358-3.238,3.19,3.19,0,0,1,3.215-3.238,3.154,3.154,0,0,1,3.094,3.358v.432H101.79a1.8,1.8,0,0,0,1.775,1.307,1.964,1.964,0,0,0,1.379-.5l1.08.983A3.745,3.745,0,0,1,103.493,71.008Zm-1.715-3.862h3.058a1.611,1.611,0,0,0-1.523-1.259A1.569,1.569,0,0,0,101.778,67.146Z"/>
    <path class="cls-9" d="M107.455,64.64H109.1v.491a2.682,2.682,0,0,1,1.752-.612A2.371,2.371,0,0,1,113.32,67v3.886h-1.643V67.242a1.218,1.218,0,0,0-1.3-1.307,1.5,1.5,0,0,0-1.284.624v4.329h-1.643Z"/>
    <path class="cls-9" d="M114.955,68.309a4.155,4.155,0,0,0,2.842,1.224c1.044,0,1.715-.408,1.715-1.056,0-.575-.384-.863-1.379-1.031l-1.667-.288c-1.439-.24-2.195-1.019-2.195-2.243,0-1.571,1.271-2.542,3.31-2.542a5.827,5.827,0,0,1,3.466,1.175l-.935,1.3a4.276,4.276,0,0,0-2.651-1.007c-.935,0-1.535.372-1.535.948,0,.515.336.779,1.2.911l1.583.264c1.68.276,2.507,1.067,2.507,2.363,0,1.643-1.379,2.686-3.538,2.686a5.57,5.57,0,0,1-3.718-1.451Z"/>
    <path class="cls-9" d="M122.767,66.019h-1.284V64.64h1.284v-1.6l1.643-.371V64.64h1.775v1.379H124.41v2.77c0,.588.228.8.863.8a2.529,2.529,0,0,0,.876-.144v1.343a5.1,5.1,0,0,1-1.272.192c-1.391,0-2.11-.635-2.11-1.859Z"/>
    <path class="cls-9" d="M126.7,69.077c0-1.187.96-1.895,2.567-1.895a5.05,5.05,0,0,1,1.523.24v-.444c0-.719-.444-1.091-1.319-1.091a4.837,4.837,0,0,0-1.907.516l-.6-1.212a6.514,6.514,0,0,1,2.782-.672c1.692,0,2.663.84,2.663,2.315v4.054h-1.619v-.432a2.968,2.968,0,0,1-1.811.54A2.023,2.023,0,0,1,126.7,69.077Zm2.711.744a2.364,2.364,0,0,0,1.379-.4V68.49a3.606,3.606,0,0,0-1.319-.228c-.756,0-1.2.3-1.2.779S128.718,69.821,129.414,69.821Z"/>
    <path class="cls-9" d="M138.208,68.873l.984,1.019a3.469,3.469,0,0,1-2.543,1.116,3.245,3.245,0,1,1,0-6.489,3.516,3.516,0,0,1,2.591,1.116L138.232,66.7a2.027,2.027,0,0,0-1.547-.756,1.815,1.815,0,0,0,.036,3.622A1.937,1.937,0,0,0,138.208,68.873Z"/>
    <path class="cls-9" d="M140.047,62.493l1.643-.36v5.145l2.7-2.638h1.858l-2.926,2.866,3.107,3.382h-2.1l-2.639-2.854v2.854h-1.643Z"/>
    <path class="cls-9" d="M35.612,76.892h4.21a2.622,2.622,0,1,1,0,5.229H37.351v3.167H35.612Zm1.739,1.5v2.291H39.63a1.15,1.15,0,1,0,0-2.291Z"/>
    <path class="cls-9" d="M45.319,85.288H43.676v-8.4l1.643-.359Z"/>
    <path class="cls-9" d="M46.3,83.477c0-1.188.96-1.9,2.567-1.9a5.05,5.05,0,0,1,1.523.24v-.444c0-.719-.444-1.091-1.319-1.091a4.82,4.82,0,0,0-1.907.516l-.6-1.212a6.515,6.515,0,0,1,2.783-.672c1.69,0,2.662.84,2.662,2.315v4.054H50.394v-.432a2.968,2.968,0,0,1-1.811.54A2.023,2.023,0,0,1,46.3,83.477Zm2.711.744a2.364,2.364,0,0,0,1.379-.4v-.936a3.627,3.627,0,0,0-1.319-.227c-.756,0-1.2.3-1.2.779S48.319,84.221,49.015,84.221Z"/>
    <path class="cls-9" d="M53.875,80.419H52.592v-1.38h1.283V77.444l1.643-.371v1.966h1.776v1.38H55.518v2.77c0,.588.229.8.864.8a2.529,2.529,0,0,0,.876-.144v1.343a5.1,5.1,0,0,1-1.272.192c-1.391,0-2.111-.636-2.111-1.859Z"/>
    <path class="cls-9" d="M59.191,79.039v-.6c0-1.4.84-2.171,2.375-2.171a4.015,4.015,0,0,1,.972.108v1.379a3.63,3.63,0,0,0-.768-.1c-.624,0-.936.264-.936.816v.563h1.7v1.38h-1.7v4.869H59.191V80.419H57.8v-1.38Z"/>
    <path class="cls-9" d="M66.27,78.919a3.246,3.246,0,1,1-3.334,3.251A3.257,3.257,0,0,1,66.27,78.919ZM68,82.17a1.729,1.729,0,1,0-1.727,1.811A1.75,1.75,0,0,0,68,82.17Z"/>
    <path class="cls-9" d="M70.616,79.039h1.643v.684a1.989,1.989,0,0,1,1.667-.828,1.428,1.428,0,0,1,.684.144v1.439a2.116,2.116,0,0,0-.84-.167,1.654,1.654,0,0,0-1.511.935v4.042H70.616Z"/>
    <path class="cls-9" d="M75.5,79.039h1.644v.468a2.427,2.427,0,0,1,1.631-.588,2.242,2.242,0,0,1,1.883.936,2.573,2.573,0,0,1,2.063-.936A2.331,2.331,0,0,1,85.106,81.4v3.886H83.463V81.642a1.166,1.166,0,0,0-1.175-1.307,1.409,1.409,0,0,0-1.2.623,2.559,2.559,0,0,1,.036.444v3.886H79.481V81.642a1.165,1.165,0,0,0-1.175-1.307,1.4,1.4,0,0,0-1.163.563v4.39H75.5Z"/>
  </g>
  <g>
    <path class="cls-9" d="M24.6,25.256h4.21a2.622,2.622,0,1,1,0,5.229H26.337v3.166H24.6Zm1.739,1.5v2.291h2.279a1.15,1.15,0,1,0,0-2.291Z"/>
    <path class="cls-9" d="M32.662,27.4h1.643v.683a1.989,1.989,0,0,1,1.667-.827,1.417,1.417,0,0,1,.684.144v1.439a2.1,2.1,0,0,0-.84-.168,1.655,1.655,0,0,0-1.511.935v4.042H32.662Z"/>
    <path class="cls-9" d="M40.292,27.283a3.245,3.245,0,1,1-3.334,3.25A3.257,3.257,0,0,1,40.292,27.283Zm1.727,3.25a1.729,1.729,0,1,0-1.727,1.811A1.75,1.75,0,0,0,42.019,30.533Z"/>
    <path class="cls-9" d="M43.75,27.4h1.788l1.714,4.161,1.7-4.161h1.75L48.02,33.651H46.437Z"/>
    <path class="cls-9" d="M51.238,25.724a.936.936,0,1,1,.936.935A.937.937,0,0,1,51.238,25.724ZM53,33.651H51.358V27.4H53Z"/>
    <path class="cls-9" d="M58.951,33.136a2.835,2.835,0,0,1-1.775.6,3.208,3.208,0,0,1,.048-6.416,3.111,3.111,0,0,1,1.7.491V25.256l1.643-.36v8.755H58.951Zm-1.511-.8a2,2,0,0,0,1.487-.6V29.3a2.061,2.061,0,0,0-1.487-.588,1.811,1.811,0,1,0,0,3.622Z"/>
    <path class="cls-9" d="M64.94,33.771a3.253,3.253,0,0,1-3.358-3.238A3.189,3.189,0,0,1,64.8,27.3a3.154,3.154,0,0,1,3.095,3.358v.432H63.237a1.8,1.8,0,0,0,1.775,1.307,1.964,1.964,0,0,0,1.379-.5l1.08.983A3.742,3.742,0,0,1,64.94,33.771Zm-1.715-3.862h3.058A1.611,1.611,0,0,0,64.76,28.65,1.57,1.57,0,0,0,63.225,29.909Z"/>
    <path class="cls-9" d="M68.9,27.4h1.643v.683a1.99,1.99,0,0,1,1.668-.827,1.412,1.412,0,0,1,.683.144v1.439a2.1,2.1,0,0,0-.839-.168,1.655,1.655,0,0,0-1.512.935v4.042H68.9Z"/>
    <path class="cls-9" d="M79.292,25.088,80.2,26.12a5.1,5.1,0,0,0-2.5,4.569,5.1,5.1,0,0,0,2.5,4.557l-.911,1.032a6.2,6.2,0,0,1-3.107-5.589A6.217,6.217,0,0,1,79.292,25.088Z"/>
    <path class="cls-9" d="M83.348,24.764l-1.3,3.154H80.817l.828-3.154Zm2.3,0-1.3,3.154H83.12l.828-3.154Z"/>
    <path class="cls-9" d="M86.445,25.256h3.226a4.2,4.2,0,1,1,0,8.4H86.445ZM88.184,26.8v5.3h1.475a2.651,2.651,0,1,0,0-5.3Z"/>
    <path class="cls-9" d="M94.773,31.84c0-1.187.96-1.895,2.567-1.895a5.045,5.045,0,0,1,1.523.24v-.443c0-.72-.444-1.092-1.319-1.092a4.845,4.845,0,0,0-1.907.516l-.6-1.212a6.505,6.505,0,0,1,2.782-.671c1.691,0,2.662.839,2.662,2.315v4.053H98.863V33.22a2.974,2.974,0,0,1-1.811.539A2.023,2.023,0,0,1,94.773,31.84Zm2.711.744a2.364,2.364,0,0,0,1.379-.4v-.935a3.623,3.623,0,0,0-1.319-.228c-.755,0-1.2.3-1.2.779S96.789,32.584,97.484,32.584Z"/>
    <path class="cls-9" d="M102.345,28.782h-1.284V27.4h1.284V25.808l1.643-.372V27.4h1.775v1.379h-1.775v2.771c0,.587.228.8.863.8a2.529,2.529,0,0,0,.876-.144v1.344a5.145,5.145,0,0,1-1.271.191c-1.392,0-2.111-.635-2.111-1.859Z"/>
    <path class="cls-9" d="M106.281,31.84c0-1.187.96-1.895,2.567-1.895a5.05,5.05,0,0,1,1.523.24v-.443c0-.72-.444-1.092-1.319-1.092a4.837,4.837,0,0,0-1.907.516l-.6-1.212a6.513,6.513,0,0,1,2.783-.671c1.69,0,2.662.839,2.662,2.315v4.053h-1.619V33.22a2.974,2.974,0,0,1-1.811.539A2.023,2.023,0,0,1,106.281,31.84Zm2.711.744a2.364,2.364,0,0,0,1.379-.4v-.935a3.627,3.627,0,0,0-1.319-.228c-.756,0-1.2.3-1.2.779S108.3,32.584,108.992,32.584Z"/>
    <path class="cls-9" d="M120.2,31.637l.983,1.019a3.471,3.471,0,0,1-2.543,1.115,3.244,3.244,0,1,1,0-6.488A3.514,3.514,0,0,1,121.23,28.4l-1.007,1.068a2.029,2.029,0,0,0-1.548-.756,1.815,1.815,0,0,0,.036,3.622A1.942,1.942,0,0,0,120.2,31.637Z"/>
    <path class="cls-9" d="M124.867,33.771a3.253,3.253,0,0,1-3.358-3.238,3.19,3.19,0,0,1,3.215-3.238,3.154,3.154,0,0,1,3.094,3.358v.432h-4.654a1.8,1.8,0,0,0,1.775,1.307,1.964,1.964,0,0,0,1.379-.5l1.08.983A3.74,3.74,0,0,1,124.867,33.771Zm-1.715-3.862h3.058a1.611,1.611,0,0,0-1.523-1.259A1.57,1.57,0,0,0,123.152,29.909Z"/>
    <path class="cls-9" d="M128.829,27.4h1.643v.491a2.683,2.683,0,0,1,1.752-.611,2.37,2.37,0,0,1,2.47,2.483v3.885h-1.643V30.005a1.218,1.218,0,0,0-1.295-1.307,1.5,1.5,0,0,0-1.284.624v4.329h-1.643Z"/>
    <path class="cls-9" d="M136.557,28.782h-1.284V27.4h1.284V25.808l1.643-.372V27.4h1.775v1.379H138.2v2.771c0,.587.228.8.863.8a2.529,2.529,0,0,0,.876-.144v1.344a5.146,5.146,0,0,1-1.272.191c-1.391,0-2.11-.635-2.11-1.859Z"/>
    <path class="cls-9" d="M143.8,33.771a3.253,3.253,0,0,1-3.358-3.238A3.19,3.19,0,0,1,143.66,27.3a3.154,3.154,0,0,1,3.094,3.358v.432H142.1a1.8,1.8,0,0,0,1.774,1.307,1.964,1.964,0,0,0,1.379-.5l1.08.983A3.74,3.74,0,0,1,143.8,33.771Zm-1.715-3.862h3.058a1.611,1.611,0,0,0-1.523-1.259A1.57,1.57,0,0,0,142.088,29.909Z"/>
    <path class="cls-9" d="M147.765,27.4h1.643v.683a1.99,1.99,0,0,1,1.668-.827,1.415,1.415,0,0,1,.683.144v1.439a2.1,2.1,0,0,0-.84-.168,1.655,1.655,0,0,0-1.511.935v4.042h-1.643Z"/>
    <path class="cls-9" d="M152.457,27.918l1.3-3.154h1.236l-.828,3.154Zm2.291,0,1.3-3.154h1.236l-.828,3.154Z"/>
    <path class="cls-9" d="M158.673,36.278l-.911-1.032a5.1,5.1,0,0,0,2.494-4.569,5.1,5.1,0,0,0-2.494-4.557l.911-1.032a6.2,6.2,0,0,1,3.106,5.589A6.218,6.218,0,0,1,158.673,36.278Z"/>
    <path class="cls-9" d="M167.24,25.256l4.174,5.433V25.256h1.63v8.4h-1.535l-4.282-5.613v5.613h-1.643v-8.4Z"/>
    <path class="cls-9" d="M177.535,33.771a3.253,3.253,0,0,1-3.358-3.238,3.189,3.189,0,0,1,3.214-3.238,3.154,3.154,0,0,1,3.094,3.358v.432h-4.653a1.8,1.8,0,0,0,1.775,1.307,1.966,1.966,0,0,0,1.379-.5l1.079.983A3.738,3.738,0,0,1,177.535,33.771Zm-1.715-3.862h3.058a1.612,1.612,0,0,0-1.523-1.259A1.569,1.569,0,0,0,175.82,29.909Z"/>
    <path class="cls-9" d="M182.108,28.782h-1.283V27.4h1.283V25.808l1.643-.372V27.4h1.776v1.379h-1.776v2.771c0,.587.228.8.864.8a2.529,2.529,0,0,0,.876-.144v1.344a5.146,5.146,0,0,1-1.272.191c-1.391,0-2.111-.635-2.111-1.859Z"/>
    <path class="cls-9" d="M187.652,33.651,185.937,27.4H187.5l1.031,4.041,1.248-4.041h1.379l1.235,4.041,1.032-4.041h1.535l-1.727,6.248h-1.571l-1.212-3.993-1.211,3.993Z"/>
    <path class="cls-9" d="M198.655,27.283a3.245,3.245,0,1,1-3.334,3.25A3.257,3.257,0,0,1,198.655,27.283Zm1.727,3.25a1.729,1.729,0,1,0-1.727,1.811A1.75,1.75,0,0,0,200.382,30.533Z"/>
    <path class="cls-9" d="M203,27.4h1.643v.683a1.99,1.99,0,0,1,1.668-.827A1.417,1.417,0,0,1,207,27.4v1.439a2.1,2.1,0,0,0-.84-.168,1.657,1.657,0,0,0-1.512.935v4.042H203Z"/>
    <path class="cls-9" d="M207.884,25.256l1.643-.36v5.145l2.7-2.638h1.859l-2.926,2.866,3.106,3.382h-2.1L209.527,30.8v2.854h-1.643Z"/>
    <path class="cls-9" d="M216.681,25.256h7.388v1.535h-2.82v6.86h-1.738v-6.86h-2.83Z"/>
    <path class="cls-9" d="M226.483,33.711,224.048,27.4h1.812l1.547,4.258,1.775-4.258h1.774l-2.877,6.74c-.648,1.511-1.4,2.087-2.771,2.087a2.991,2.991,0,0,1-.731-.072V34.743a2.576,2.576,0,0,0,.575.047,1.257,1.257,0,0,0,1.235-.851Z"/>
    <path class="cls-9" d="M231.608,27.4h1.619v.515a2.837,2.837,0,0,1,1.775-.6,3.208,3.208,0,0,1-.048,6.416,3.117,3.117,0,0,1-1.7-.491v2.914h-1.642Zm1.642,1.906v2.459a2.109,2.109,0,0,0,1.488.576,1.811,1.811,0,1,0,0-3.622A2.019,2.019,0,0,0,233.25,29.309Z"/>
    <path class="cls-9" d="M242.31,33.771a3.252,3.252,0,0,1-3.358-3.238,3.189,3.189,0,0,1,3.214-3.238,3.154,3.154,0,0,1,3.094,3.358v.432h-4.653a1.8,1.8,0,0,0,1.775,1.307,1.966,1.966,0,0,0,1.379-.5l1.079.983A3.738,3.738,0,0,1,242.31,33.771ZM240.6,29.909h3.058a1.611,1.611,0,0,0-1.523-1.259A1.569,1.569,0,0,0,240.6,29.909Z"/>
    <path class="cls-9" d="M251.778,25.088l.911,1.032a5.1,5.1,0,0,0-2.494,4.569,5.1,5.1,0,0,0,2.494,4.557l-.911,1.032a6.2,6.2,0,0,1-3.107-5.589A6.217,6.217,0,0,1,251.778,25.088Z"/>
    <path class="cls-9" d="M256.6,33.771a3.252,3.252,0,0,1-3.358-3.238,3.189,3.189,0,0,1,3.214-3.238,3.154,3.154,0,0,1,3.094,3.358v.432H254.9a1.8,1.8,0,0,0,1.775,1.307,1.966,1.966,0,0,0,1.379-.5l1.079.983A3.738,3.738,0,0,1,256.6,33.771Zm-1.715-3.862h3.058a1.611,1.611,0,0,0-1.523-1.259A1.569,1.569,0,0,0,254.887,29.909Z"/>
    <path class="cls-9" d="M261.823,30.473l-2.339-3.07h1.907l1.379,1.859,1.367-1.859h1.848l-2.3,3.046,2.446,3.2h-1.919l-1.475-1.99-1.475,1.99h-1.835Z"/>
    <path class="cls-9" d="M266.215,31.84c0-1.187.96-1.895,2.568-1.895a5.043,5.043,0,0,1,1.522.24v-.443c0-.72-.443-1.092-1.319-1.092a4.833,4.833,0,0,0-1.906.516l-.6-1.212a6.509,6.509,0,0,1,2.782-.671c1.691,0,2.662.839,2.662,2.315v4.053h-1.619V33.22a2.971,2.971,0,0,1-1.81.539A2.024,2.024,0,0,1,266.215,31.84Zm2.711.744a2.364,2.364,0,0,0,1.379-.4v-.935a3.623,3.623,0,0,0-1.319-.228c-.755,0-1.2.3-1.2.779S268.231,32.584,268.926,32.584Z"/>
    <path class="cls-9" d="M273.175,27.4h1.644v.468a2.427,2.427,0,0,1,1.631-.588,2.241,2.241,0,0,1,1.882.935,2.572,2.572,0,0,1,2.064-.935,2.331,2.331,0,0,1,2.387,2.483v3.885h-1.644V30.005a1.166,1.166,0,0,0-1.175-1.307,1.407,1.407,0,0,0-1.2.624,2.551,2.551,0,0,1,.036.444v3.885h-1.642V30.005a1.166,1.166,0,0,0-1.176-1.307,1.4,1.4,0,0,0-1.163.564v4.389h-1.644Z"/>
    <path class="cls-9" d="M284.047,27.4h1.619v.515a2.842,2.842,0,0,1,1.776-.6,3.208,3.208,0,0,1-.048,6.416,3.111,3.111,0,0,1-1.7-.491v2.914h-1.644Zm1.644,1.906v2.459a2.1,2.1,0,0,0,1.487.576,1.811,1.811,0,1,0,0-3.622A2.018,2.018,0,0,0,285.691,29.309Z"/>
    <path class="cls-9" d="M293.274,33.651h-1.643v-8.4l1.643-.36Z"/>
    <path class="cls-9" d="M297.629,33.771a3.252,3.252,0,0,1-3.357-3.238,3.189,3.189,0,0,1,3.214-3.238,3.154,3.154,0,0,1,3.1,3.358v.432h-4.655a1.8,1.8,0,0,0,1.776,1.307,1.966,1.966,0,0,0,1.379-.5l1.08.983A3.743,3.743,0,0,1,297.629,33.771Zm-1.715-3.862h3.059a1.613,1.613,0,0,0-1.523-1.259A1.571,1.571,0,0,0,295.914,29.909Z"/>
    <path class="cls-9" d="M305.6,31.037a1.228,1.228,0,0,0,1.295,1.319,1.506,1.506,0,0,0,1.3-.624V27.4h1.642v6.248h-1.642v-.5a2.658,2.658,0,0,1-1.764.624,2.38,2.38,0,0,1-2.47-2.494V27.4H305.6Z"/>
    <path class="cls-9" d="M311.407,31.816a3.635,3.635,0,0,0,2.027.708c.731,0,1.211-.264,1.211-.66,0-.324-.24-.5-.779-.587l-1.2-.18c-1.235-.192-1.895-.8-1.895-1.811,0-1.212,1.008-1.979,2.6-1.979a4.611,4.611,0,0,1,2.567.779l-.791,1.056a3.688,3.688,0,0,0-1.931-.6c-.6,0-.983.24-.983.612,0,.336.239.5.851.588l1.2.179c1.222.18,1.906.816,1.906,1.787,0,1.176-1.163,2.063-2.735,2.063a4.605,4.605,0,0,1-2.866-.863Z"/>
    <path class="cls-9" d="M316.891,25.724a.935.935,0,1,1,.936.935A.937.937,0,0,1,316.891,25.724Zm1.763,7.927H317.01V27.4h1.644Z"/>
    <path class="cls-9" d="M319.939,27.4h1.642v.491a2.685,2.685,0,0,1,1.752-.611,2.37,2.37,0,0,1,2.47,2.483v3.885h-1.642V30.005a1.218,1.218,0,0,0-1.3-1.307,1.5,1.5,0,0,0-1.285.624v4.329h-1.642Z"/>
    <path class="cls-9" d="M326.766,30.485a3.169,3.169,0,0,1,3.215-3.178,3.049,3.049,0,0,1,1.69.5V27.4h1.619v6.248c0,1.656-1.09,2.579-3.093,2.579a5.809,5.809,0,0,1-2.6-.564l.575-1.283a4.454,4.454,0,0,0,1.992.5c.983,0,1.487-.432,1.487-1.248v-.516a2.823,2.823,0,0,1-1.715.564A3.163,3.163,0,0,1,326.766,30.485Zm3.419,1.811a2.058,2.058,0,0,0,1.463-.564V29.274a2.1,2.1,0,0,0-1.451-.564,1.793,1.793,0,1,0-.012,3.586Z"/>
    <path class="cls-9" d="M336.307,25.256h1.883l2.566,6.632,2.627-6.632h1.8l-3.454,8.4h-2.015Z"/>
    <path class="cls-9" d="M345.894,25.256h1.738v6.86h4.594v1.535h-6.332Z"/>
    <path class="cls-9" d="M356.26,25.256h2.015l3.406,8.4H359.8l-.851-2.207h-3.466l-.864,2.207h-1.811Zm2.159,4.8-1.187-3.094-1.212,3.094Z"/>
    <path class="cls-9" d="M364.049,25.256l4.173,5.433V25.256h1.632v8.4h-1.535l-4.282-5.613v5.613h-1.643v-8.4Z"/>
    <path class="cls-9" d="M371.562,31.816a3.635,3.635,0,0,0,2.026.708c.733,0,1.212-.264,1.212-.66,0-.324-.24-.5-.779-.587l-1.2-.18c-1.236-.192-1.9-.8-1.9-1.811,0-1.212,1.008-1.979,2.6-1.979a4.612,4.612,0,0,1,2.566.779l-.791,1.056a3.688,3.688,0,0,0-1.932-.6c-.6,0-.983.24-.983.612,0,.336.24.5.852.588l1.2.179c1.224.18,1.907.816,1.907,1.787,0,1.176-1.163,2.063-2.734,2.063a4.6,4.6,0,0,1-2.866-.863Z"/>
    <path class="cls-9" d="M377.717,36.278l-.911-1.032a5.1,5.1,0,0,0,2.494-4.569,5.1,5.1,0,0,0-2.494-4.557l.911-1.032a6.2,6.2,0,0,1,3.107,5.589A6.218,6.218,0,0,1,377.717,36.278Z"/>
  </g>
  <g>
    <path class="cls-9" d="M221.7,62.493h4.21a2.622,2.622,0,1,1,0,5.229h-2.471v3.166H221.7Zm1.739,1.5v2.291h2.278a1.15,1.15,0,1,0,0-2.291Z"/>
    <path class="cls-9" d="M229.763,64.64h1.644v.683a1.987,1.987,0,0,1,1.667-.827,1.4,1.4,0,0,1,.683.144v1.439a2.1,2.1,0,0,0-.84-.168,1.654,1.654,0,0,0-1.51.935v4.042h-1.644Z"/>
    <path class="cls-9" d="M237.394,64.519a3.246,3.246,0,1,1-3.334,3.251A3.257,3.257,0,0,1,237.394,64.519Zm1.727,3.251a1.729,1.729,0,1,0-1.727,1.811A1.75,1.75,0,0,0,239.121,67.77Z"/>
    <path class="cls-9" d="M240.852,64.64h1.787l1.715,4.161,1.7-4.161h1.751l-2.686,6.248h-1.583Z"/>
    <path class="cls-9" d="M248.34,62.96a.936.936,0,1,1,.936.936A.936.936,0,0,1,248.34,62.96Zm1.763,7.928h-1.644V64.64H250.1Z"/>
    <path class="cls-9" d="M256.053,70.372a2.832,2.832,0,0,1-1.775.6,3.208,3.208,0,0,1,.048-6.416,3.109,3.109,0,0,1,1.7.491V62.493l1.643-.36v8.755h-1.619Zm-1.512-.8a2,2,0,0,0,1.488-.6V66.535a2.064,2.064,0,0,0-1.488-.588,1.811,1.811,0,1,0,0,3.622Z"/>
    <path class="cls-9" d="M262.041,71.008a3.252,3.252,0,0,1-3.357-3.238,3.189,3.189,0,0,1,3.214-3.238,3.154,3.154,0,0,1,3.095,3.358v.432h-4.654a1.8,1.8,0,0,0,1.775,1.307,1.966,1.966,0,0,0,1.379-.5l1.08.983A3.746,3.746,0,0,1,262.041,71.008Zm-1.714-3.862h3.058a1.613,1.613,0,0,0-1.523-1.259A1.569,1.569,0,0,0,260.327,67.146Z"/>
    <path class="cls-9" d="M266,64.64h1.643v.683a1.99,1.99,0,0,1,1.668-.827,1.4,1.4,0,0,1,.683.144v1.439a2.1,2.1,0,0,0-.839-.168,1.655,1.655,0,0,0-1.512.935v4.042H266Z"/>
    <path class="cls-9" d="M276.394,62.325l.911,1.031a5.421,5.421,0,0,0,0,9.127l-.911,1.032a6.592,6.592,0,0,1,0-11.19Z"/>
    <path class="cls-9" d="M282.812,70.372a2.829,2.829,0,0,1-1.774.6,3.208,3.208,0,0,1,.047-6.416,3.117,3.117,0,0,1,1.7.491V62.493l1.642-.36v8.755h-1.619Zm-1.511-.8a2.007,2.007,0,0,0,1.488-.6V66.535a2.066,2.066,0,0,0-1.488-.588,1.811,1.811,0,1,0,0,3.622Z"/>
    <path class="cls-9" d="M285.431,69.077c0-1.187.959-1.895,2.566-1.895a5.056,5.056,0,0,1,1.524.24v-.444c0-.719-.444-1.091-1.319-1.091a4.845,4.845,0,0,0-1.908.516l-.6-1.212a6.511,6.511,0,0,1,2.782-.672c1.691,0,2.663.84,2.663,2.315v4.054h-1.619v-.432a2.971,2.971,0,0,1-1.812.54A2.023,2.023,0,0,1,285.431,69.077Zm2.71.744a2.367,2.367,0,0,0,1.38-.4V68.49a3.61,3.61,0,0,0-1.319-.228c-.756,0-1.2.3-1.2.779S287.446,69.821,288.141,69.821Z"/>
    <path class="cls-9" d="M293,66.019h-1.283V64.64H293v-1.6l1.643-.371V64.64h1.775v1.379h-1.775v2.77c0,.588.228.8.864.8a2.52,2.52,0,0,0,.875-.144v1.343a5.086,5.086,0,0,1-1.271.192c-1.391,0-2.111-.635-2.111-1.859Z"/>
    <path class="cls-9" d="M296.939,69.077c0-1.187.96-1.895,2.567-1.895a5.045,5.045,0,0,1,1.523.24v-.444c0-.719-.444-1.091-1.32-1.091a4.837,4.837,0,0,0-1.906.516l-.6-1.212a6.507,6.507,0,0,1,2.782-.672c1.691,0,2.662.84,2.662,2.315v4.054h-1.619v-.432a2.968,2.968,0,0,1-1.811.54A2.023,2.023,0,0,1,296.939,69.077Zm2.711.744a2.364,2.364,0,0,0,1.379-.4V68.49a3.6,3.6,0,0,0-1.32-.228c-.754,0-1.2.3-1.2.779S298.955,69.821,299.65,69.821Z"/>
    <path class="cls-9" d="M310.857,68.873l.983,1.019a3.469,3.469,0,0,1-2.543,1.116,3.245,3.245,0,1,1,0-6.489,3.514,3.514,0,0,1,2.591,1.116L310.88,66.7a2.027,2.027,0,0,0-1.547-.756,1.815,1.815,0,0,0,.037,3.622A1.94,1.94,0,0,0,310.857,68.873Z"/>
    <path class="cls-9" d="M315.525,71.008a3.253,3.253,0,0,1-3.358-3.238,3.19,3.19,0,0,1,3.214-3.238,3.154,3.154,0,0,1,3.1,3.358v.432h-4.653a1.8,1.8,0,0,0,1.774,1.307,1.964,1.964,0,0,0,1.379-.5l1.08.983A3.743,3.743,0,0,1,315.525,71.008Zm-1.715-3.862h3.059a1.614,1.614,0,0,0-1.524-1.259A1.569,1.569,0,0,0,313.81,67.146Z"/>
    <path class="cls-9" d="M319.487,64.64h1.642v.491a2.688,2.688,0,0,1,1.752-.612A2.371,2.371,0,0,1,325.351,67v3.886h-1.643V67.242a1.218,1.218,0,0,0-1.294-1.307,1.5,1.5,0,0,0-1.285.624v4.329h-1.642Z"/>
    <path class="cls-9" d="M327.214,66.019h-1.283V64.64h1.283v-1.6l1.643-.371V64.64h1.775v1.379h-1.775v2.77c0,.588.228.8.864.8a2.52,2.52,0,0,0,.875-.144v1.343a5.093,5.093,0,0,1-1.271.192c-1.391,0-2.111-.635-2.111-1.859Z"/>
    <path class="cls-9" d="M334.461,71.008A3.253,3.253,0,0,1,331.1,67.77a3.189,3.189,0,0,1,3.215-3.238,3.154,3.154,0,0,1,3.094,3.358v.432h-4.654a1.8,1.8,0,0,0,1.776,1.307,1.967,1.967,0,0,0,1.379-.5l1.079.983A3.747,3.747,0,0,1,334.461,71.008Zm-1.714-3.862H335.8a1.611,1.611,0,0,0-1.522-1.259A1.568,1.568,0,0,0,332.747,67.146Z"/>
    <path class="cls-9" d="M338.422,64.64h1.644v.683a1.989,1.989,0,0,1,1.667-.827,1.4,1.4,0,0,1,.683.144v1.439a2.1,2.1,0,0,0-.839-.168,1.654,1.654,0,0,0-1.511.935v4.042h-1.644Z"/>
    <path class="cls-9" d="M343.762,73.515l-.911-1.032a5.421,5.421,0,0,0,0-9.127l.911-1.031a6.591,6.591,0,0,1,0,11.19Z"/>
    <path class="cls-9" d="M221.591,79.039h1.644v.468a2.427,2.427,0,0,1,1.631-.588,2.239,2.239,0,0,1,1.882.936,2.575,2.575,0,0,1,2.064-.936A2.332,2.332,0,0,1,231.2,81.4v3.886h-1.644V81.642a1.165,1.165,0,0,0-1.175-1.307,1.406,1.406,0,0,0-1.2.623,2.663,2.663,0,0,1,.035.444v3.886h-1.642V81.642a1.166,1.166,0,0,0-1.176-1.307,1.4,1.4,0,0,0-1.163.563v4.39h-1.644Z"/>
    <path class="cls-9" d="M232.164,83.477c0-1.188.959-1.9,2.567-1.9a5.039,5.039,0,0,1,1.522.24v-.444c0-.719-.443-1.091-1.319-1.091a4.82,4.82,0,0,0-1.906.516l-.6-1.212a6.514,6.514,0,0,1,2.782-.672c1.692,0,2.662.84,2.662,2.315v4.054h-1.619v-.432a2.963,2.963,0,0,1-1.81.54A2.022,2.022,0,0,1,232.164,83.477Zm2.71.744a2.362,2.362,0,0,0,1.379-.4v-.936a3.623,3.623,0,0,0-1.319-.227c-.755,0-1.2.3-1.2.779S234.179,84.221,234.874,84.221Z"/>
    <path class="cls-9" d="M239.123,79.039h1.643v.492a2.686,2.686,0,0,1,1.752-.612,2.371,2.371,0,0,1,2.47,2.483v3.886h-1.643V81.642a1.218,1.218,0,0,0-1.295-1.307,1.5,1.5,0,0,0-1.284.623v4.33h-1.643Z"/>
    <path class="cls-9" d="M245.939,83.477c0-1.188.96-1.9,2.567-1.9a5.045,5.045,0,0,1,1.523.24v-.444c0-.719-.444-1.091-1.32-1.091a4.82,4.82,0,0,0-1.906.516l-.6-1.212a6.507,6.507,0,0,1,2.782-.672c1.691,0,2.662.84,2.662,2.315v4.054h-1.619v-.432a2.968,2.968,0,0,1-1.811.54A2.022,2.022,0,0,1,245.939,83.477Zm2.711.744a2.364,2.364,0,0,0,1.379-.4v-.936a3.625,3.625,0,0,0-1.32-.227c-.754,0-1.2.3-1.2.779S247.955,84.221,248.65,84.221Z"/>
    <path class="cls-9" d="M252.612,82.121a3.169,3.169,0,0,1,3.214-3.178,3.045,3.045,0,0,1,1.691.5v-.408h1.619v6.249c0,1.655-1.092,2.579-3.1,2.579a5.818,5.818,0,0,1-2.6-.564l.576-1.284a4.436,4.436,0,0,0,1.99.5c.984,0,1.488-.431,1.488-1.247V84.76a2.827,2.827,0,0,1-1.715.564A3.163,3.163,0,0,1,252.612,82.121Zm3.418,1.812a2.057,2.057,0,0,0,1.463-.564V80.911a2.1,2.1,0,0,0-1.452-.564,1.793,1.793,0,1,0-.011,3.586Z"/>
    <path class="cls-9" d="M263.505,85.408a3.253,3.253,0,0,1-3.358-3.238,3.189,3.189,0,0,1,3.215-3.238,3.154,3.154,0,0,1,3.094,3.357v.433H261.8a1.8,1.8,0,0,0,1.776,1.307,1.963,1.963,0,0,0,1.378-.5l1.08.983A3.747,3.747,0,0,1,263.505,85.408Zm-1.715-3.862h3.058a1.611,1.611,0,0,0-1.522-1.259A1.571,1.571,0,0,0,261.79,81.546Z"/>
    <path class="cls-9" d="M272.18,84.772a2.829,2.829,0,0,1-1.774.6,3.209,3.209,0,0,1,.048-6.417,3.109,3.109,0,0,1,1.7.492V76.892l1.642-.359v8.755H272.18Zm-1.511-.8a2.006,2.006,0,0,0,1.488-.6V80.934a2.065,2.065,0,0,0-1.488-.587,1.811,1.811,0,1,0,0,3.622Z"/>
    <path class="cls-9" d="M277.8,83.453a3.638,3.638,0,0,0,2.028.708c.731,0,1.211-.264,1.211-.66,0-.324-.24-.5-.78-.588l-1.2-.18c-1.235-.192-1.895-.8-1.895-1.811,0-1.211,1.007-1.979,2.6-1.979a4.609,4.609,0,0,1,2.567.78l-.792,1.056a3.682,3.682,0,0,0-1.93-.6c-.6,0-.984.24-.984.611,0,.336.24.5.852.588l1.2.18c1.223.18,1.906.815,1.906,1.787,0,1.175-1.163,2.063-2.734,2.063a4.6,4.6,0,0,1-2.866-.864Z"/>
    <path class="cls-9" d="M284.59,85.288l-1.715-6.249h1.559l1.031,4.042,1.248-4.042h1.379l1.236,4.042,1.031-4.042h1.535l-1.727,6.249H288.6l-1.212-3.994-1.211,3.994Z"/>
    <path class="cls-9" d="M292.546,77.36a.936.936,0,1,1,.936.936A.937.937,0,0,1,292.546,77.36Zm1.763,7.928h-1.643V79.039h1.643Z"/>
    <path class="cls-9" d="M296.446,80.419h-1.283v-1.38h1.283V77.444l1.643-.371v1.966h1.776v1.38h-1.776v2.77c0,.588.228.8.864.8a2.533,2.533,0,0,0,.876-.144v1.343a5.107,5.107,0,0,1-1.272.192c-1.392,0-2.111-.636-2.111-1.859Z"/>
    <path class="cls-9" d="M305.168,83.273l.984,1.019a3.471,3.471,0,0,1-2.543,1.116,3.245,3.245,0,1,1,0-6.489,3.516,3.516,0,0,1,2.591,1.116L305.192,81.1a2.029,2.029,0,0,0-1.547-.755,1.815,1.815,0,0,0,.036,3.622A1.938,1.938,0,0,0,305.168,83.273Z"/>
    <path class="cls-9" d="M307.006,76.892l1.644-.359v3a2.679,2.679,0,0,1,1.751-.612,2.371,2.371,0,0,1,2.471,2.483v3.886h-1.644V81.642a1.217,1.217,0,0,0-1.3-1.307,1.5,1.5,0,0,0-1.283.623v4.33h-1.644Z"/>
  </g>
  <g>
    <path class="cls-9" d="M45.958,221.688h4.21a2.622,2.622,0,1,1,0,5.23H47.7v3.166h-1.74Zm1.74,1.5v2.29h2.278a1.149,1.149,0,1,0,0-2.29Z"/>
    <path class="cls-9" d="M54.022,223.835h1.643v.684a1.989,1.989,0,0,1,1.668-.828,1.428,1.428,0,0,1,.684.144v1.439a2.105,2.105,0,0,0-.84-.167,1.655,1.655,0,0,0-1.512.935v4.042H54.022Z"/>
    <path class="cls-9" d="M61.653,223.715a3.246,3.246,0,1,1-3.334,3.251A3.257,3.257,0,0,1,61.653,223.715Zm1.727,3.251a1.729,1.729,0,1,0-1.727,1.811A1.751,1.751,0,0,0,63.38,226.966Z"/>
    <path class="cls-9" d="M64.751,232.555V231.3a2.511,2.511,0,0,0,.54.048c.492,0,.707-.192.707-.636v-6.872h1.644V230.8a1.773,1.773,0,0,1-2.027,1.859A2.951,2.951,0,0,1,64.751,232.555Zm1.128-10.4a.935.935,0,1,1,.935.936A.936.936,0,0,1,65.879,222.156Z"/>
    <path class="cls-9" d="M72,230.2a3.253,3.253,0,0,1-3.358-3.238,3.19,3.19,0,0,1,3.214-3.239,3.154,3.154,0,0,1,3.094,3.358v.432H70.293a1.8,1.8,0,0,0,1.776,1.308,1.97,1.97,0,0,0,1.379-.5l1.079.983A3.743,3.743,0,0,1,72,230.2Zm-1.715-3.862H73.34a1.613,1.613,0,0,0-1.523-1.26A1.569,1.569,0,0,0,70.282,226.342Z"/>
    <path class="cls-9" d="M80.552,228.069l.984,1.019a3.469,3.469,0,0,1-2.543,1.116,3.245,3.245,0,1,1,0-6.489,3.512,3.512,0,0,1,2.59,1.116L80.576,225.9a2.027,2.027,0,0,0-1.547-.756,1.815,1.815,0,0,0,.036,3.623A1.94,1.94,0,0,0,80.552,228.069Z"/>
    <path class="cls-9" d="M83.362,225.215H82.079v-1.38h1.283V222.24l1.643-.371v1.966H86.78v1.38H85.005v2.77c0,.588.228.8.864.8a2.5,2.5,0,0,0,.875-.144v1.344a5.1,5.1,0,0,1-1.271.192c-1.392,0-2.111-.636-2.111-1.859Z"/>
    <path class="cls-9" d="M94.064,221.688c1.691,0,2.843.936,2.843,2.3a2.07,2.07,0,0,1-1.032,1.763,2.116,2.116,0,0,1,1.319,1.9c0,1.463-1.175,2.435-2.938,2.435H90.118v-8.4Zm-2.207,1.44v1.991h2.1c.744,0,1.224-.384,1.224-1s-.48-1-1.224-1Zm3.586,4.425c0-.647-.515-1.079-1.319-1.079H91.857v2.17h2.267C94.928,228.644,95.443,228.225,95.443,227.553Z"/>
  </g>
  <g>
    <path class="cls-9" d="M45.958,339.116h4.21a2.622,2.622,0,1,1,0,5.23H47.7v3.166h-1.74Zm1.74,1.5v2.29h2.278a1.149,1.149,0,1,0,0-2.29Z"/>
    <path class="cls-9" d="M54.022,341.264h1.643v.683a1.989,1.989,0,0,1,1.668-.828,1.415,1.415,0,0,1,.684.145V342.7a2.123,2.123,0,0,0-.84-.167,1.654,1.654,0,0,0-1.512.935v4.042H54.022Z"/>
    <path class="cls-9" d="M61.653,341.143a3.246,3.246,0,1,1-3.334,3.25A3.257,3.257,0,0,1,61.653,341.143Zm1.727,3.25a1.729,1.729,0,1,0-1.727,1.812A1.751,1.751,0,0,0,63.38,344.393Z"/>
    <path class="cls-9" d="M64.751,349.982v-1.258a2.58,2.58,0,0,0,.54.047c.492,0,.707-.192.707-.635v-6.872h1.644v6.967a1.773,1.773,0,0,1-2.027,1.86A2.882,2.882,0,0,1,64.751,349.982Zm1.128-10.4a.935.935,0,1,1,.935.935A.936.936,0,0,1,65.879,339.584Z"/>
    <path class="cls-9" d="M72,347.632a3.253,3.253,0,0,1-3.358-3.239,3.19,3.19,0,0,1,3.214-3.238,3.154,3.154,0,0,1,3.094,3.359v.431H70.293a1.8,1.8,0,0,0,1.776,1.308,1.97,1.97,0,0,0,1.379-.5l1.079.983A3.743,3.743,0,0,1,72,347.632Zm-1.715-3.863H73.34a1.611,1.611,0,0,0-1.523-1.258A1.568,1.568,0,0,0,70.282,343.769Z"/>
    <path class="cls-9" d="M80.552,345.5l.984,1.02a3.472,3.472,0,0,1-2.543,1.115,3.245,3.245,0,1,1,0-6.489,3.512,3.512,0,0,1,2.59,1.116l-1.007,1.067a2.027,2.027,0,0,0-1.547-.756,1.815,1.815,0,0,0,.036,3.622A1.942,1.942,0,0,0,80.552,345.5Z"/>
    <path class="cls-9" d="M83.362,342.642H82.079v-1.378h1.283v-1.6l1.643-.371v1.967H86.78v1.378H85.005v2.771c0,.588.228.8.864.8a2.506,2.506,0,0,0,.875-.145v1.344a5.1,5.1,0,0,1-1.271.191c-1.392,0-2.111-.634-2.111-1.858Z"/>
    <path class="cls-9" d="M96.571,344.957l1.139,1.128a4.615,4.615,0,0,1-3.442,1.547,4.327,4.327,0,1,1,0-8.648,4.6,4.6,0,0,1,3.49,1.572l-1.175,1.163a2.924,2.924,0,0,0-2.315-1.139,2.722,2.722,0,0,0,.048,5.444A2.881,2.881,0,0,0,96.571,344.957Z"/>
  </g>
  <g>
    <path class="cls-9" d="M60.039,154.422H61.3v8.4h-1.26Z"/>
    <path class="cls-9" d="M62.871,156.713h1.2v.612a2.515,2.515,0,0,1,1.836-.732,2.279,2.279,0,0,1,2.386,2.387v3.838h-1.2v-3.634a1.421,1.421,0,0,0-1.512-1.547,1.727,1.727,0,0,0-1.511.791v4.39h-1.2Z"/>
    <path class="cls-9" d="M69.747,161.235a3.2,3.2,0,0,0,1.991.767c.863,0,1.464-.372,1.464-.911,0-.432-.312-.684-.984-.78l-1.1-.156c-1.212-.18-1.824-.743-1.824-1.691,0-1.1.96-1.847,2.387-1.847a4.185,4.185,0,0,1,2.459.78l-.612.791a3.4,3.4,0,0,0-1.931-.635c-.731,0-1.223.336-1.223.827,0,.444.288.66,1.007.768l1.1.156c1.211.18,1.847.755,1.847,1.7,0,1.091-1.1,1.919-2.555,1.919a4.023,4.023,0,0,1-2.674-.9Z"/>
    <path class="cls-9" d="M75.927,157.721h-1.3v-1.008h1.3v-1.559l1.187-.288v1.847h1.8v1.008h-1.8v3.31c0,.623.252.851.9.851a2.352,2.352,0,0,0,.875-.144v1.008a3.968,3.968,0,0,1-1.139.18c-1.188,0-1.823-.564-1.823-1.619Z"/>
    <path class="cls-9" d="M79.492,161.067c0-1.152.935-1.859,2.47-1.859a4.325,4.325,0,0,1,1.667.335V158.9c0-.863-.516-1.3-1.487-1.3a4.338,4.338,0,0,0-1.895.517l-.444-.9a5.713,5.713,0,0,1,2.507-.624c1.583,0,2.5.78,2.5,2.183v4.042H83.629v-.528a2.9,2.9,0,0,1-1.9.636C80.4,162.926,79.492,162.17,79.492,161.067Zm2.518.971a2.346,2.346,0,0,0,1.619-.576v-1.055a3.166,3.166,0,0,0-1.571-.371c-.875,0-1.415.4-1.415,1.007C80.643,161.63,81.194,162.038,82.01,162.038Z"/>
    <path class="cls-9" d="M86.187,156.713h1.2v.612a2.515,2.515,0,0,1,1.835-.732,2.28,2.28,0,0,1,2.387,2.387v3.838h-1.2v-3.634a1.421,1.421,0,0,0-1.512-1.547,1.727,1.727,0,0,0-1.511.791v4.39h-1.2Z"/>
    <path class="cls-9" d="M97.548,161.127l.72.779a3.377,3.377,0,0,1-2.411,1.02,3.167,3.167,0,0,1,0-6.333,3.465,3.465,0,0,1,2.459,1.02l-.756.815a2.266,2.266,0,0,0-1.679-.767,2.108,2.108,0,0,0,.024,4.21A2.226,2.226,0,0,0,97.548,161.127Z"/>
    <path class="cls-9" d="M101.929,162.926a3.142,3.142,0,0,1-3.2-3.166,3.067,3.067,0,0,1,3.059-3.143,3.024,3.024,0,0,1,2.95,3.191v.347H99.914a2.059,2.059,0,0,0,2.063,1.751,2.37,2.37,0,0,0,1.547-.539l.768.755A3.64,3.64,0,0,1,101.929,162.926Zm-2-3.67h3.622a1.821,1.821,0,0,0-3.622,0Z"/>
  </g>
  <g>
    <path class="cls-9" d="M222.041,154.422h3.885a2.517,2.517,0,1,1,0,5.013H223.3v3.383h-1.259Zm1.259,1.1v2.842H225.8a1.432,1.432,0,1,0,0-2.842Z"/>
    <path class="cls-9" d="M232.335,156.593a3.173,3.173,0,1,1-3.178,3.167A3.133,3.133,0,0,1,232.335,156.593Zm1.992,3.167a2,2,0,1,0-1.992,2.122A2.038,2.038,0,0,0,234.327,159.76Z"/>
    <path class="cls-9" d="M236.645,156.713h1.2v.78a1.911,1.911,0,0,1,1.68-.912,1.517,1.517,0,0,1,.611.1v1.08a2.055,2.055,0,0,0-.707-.133,1.668,1.668,0,0,0-1.584,1.116v4.078h-1.2Z"/>
    <path class="cls-9" d="M241.936,157.721h-1.3v-1.008h1.3v-1.559l1.187-.288v1.847h1.8v1.008h-1.8v3.31c0,.623.252.851.9.851a2.352,2.352,0,0,0,.875-.144v1.008a3.968,3.968,0,0,1-1.139.18c-1.187,0-1.824-.564-1.824-1.619Z"/>
  </g>
  <g>
    <path class="cls-9" d="M222.041,182.52h3.885a2.517,2.517,0,1,1,0,5.013H223.3v3.382h-1.259Zm1.259,1.1v2.843H225.8a1.432,1.432,0,1,0,0-2.843Z"/>
    <path class="cls-9" d="M232.335,184.691a3.173,3.173,0,1,1-3.178,3.166A3.133,3.133,0,0,1,232.335,184.691Zm1.992,3.166a2,2,0,1,0-1.992,2.123A2.038,2.038,0,0,0,234.327,187.857Z"/>
    <path class="cls-9" d="M236.645,184.811h1.2v.779a1.912,1.912,0,0,1,1.68-.911,1.517,1.517,0,0,1,.611.1v1.079a2.054,2.054,0,0,0-.707-.132,1.668,1.668,0,0,0-1.584,1.116v4.077h-1.2Z"/>
    <path class="cls-9" d="M241.936,185.818h-1.3v-1.007h1.3v-1.559l1.187-.288v1.847h1.8v1.007h-1.8v3.31c0,.624.252.852.9.852a2.352,2.352,0,0,0,.875-.144v1.008a3.967,3.967,0,0,1-1.139.179c-1.187,0-1.824-.563-1.824-1.619Z"/>
  </g>
  <g>
    <path class="cls-9" d="M222.041,245.941h3.886a2.517,2.517,0,1,1,0,5.014H223.3v3.382h-1.259Zm1.259,1.1v2.843H225.8a1.432,1.432,0,1,0,0-2.843Z"/>
    <path class="cls-9" d="M232.335,248.112a3.173,3.173,0,1,1-3.177,3.167A3.134,3.134,0,0,1,232.335,248.112Zm1.992,3.167a2,2,0,1,0-1.992,2.122A2.038,2.038,0,0,0,234.327,251.279Z"/>
    <path class="cls-9" d="M236.645,248.232h1.2v.78a1.914,1.914,0,0,1,1.68-.912,1.534,1.534,0,0,1,.611.1v1.08a2.051,2.051,0,0,0-.707-.133,1.668,1.668,0,0,0-1.584,1.117v4.077h-1.2Z"/>
    <path class="cls-9" d="M241.937,249.24h-1.3v-1.008h1.3v-1.559l1.187-.288v1.847h1.8v1.008h-1.8v3.31c0,.624.252.851.9.851a2.372,2.372,0,0,0,.875-.143v1.008a4,4,0,0,1-1.139.179c-1.187,0-1.823-.563-1.823-1.619Z"/>
  </g>
  <path class="cls-2" d="M379.016,206.4H346.392a4,4,0,0,0-4,4v13.685a4,4,0,0,0,4,4h32.624Z"/>
  <g>
    <path class="cls-9" d="M349.6,212.788h3.886a2.517,2.517,0,1,1,0,5.013h-2.627v3.383H349.6Zm1.259,1.1v2.842h2.495a1.432,1.432,0,1,0,0-2.842Z"/>
    <path class="cls-9" d="M359.892,214.959a3.173,3.173,0,1,1-3.178,3.166A3.134,3.134,0,0,1,359.892,214.959Zm1.991,3.166a2,2,0,1,0-1.991,2.123A2.037,2.037,0,0,0,361.883,218.125Z"/>
    <path class="cls-9" d="M364.2,215.079h1.2v.779a1.913,1.913,0,0,1,1.68-.911,1.523,1.523,0,0,1,.611.1v1.079a2.054,2.054,0,0,0-.707-.132,1.667,1.667,0,0,0-1.584,1.116v4.078h-1.2Z"/>
    <path class="cls-9" d="M369.494,216.086h-1.3v-1.007h1.3V213.52l1.187-.288v1.847h1.8v1.007h-1.8v3.31c0,.624.252.852.9.852a2.356,2.356,0,0,0,.875-.144v1.008a3.973,3.973,0,0,1-1.139.179c-1.188,0-1.823-.563-1.823-1.619Z"/>
  </g>
  <g>
    <path class="cls-9" d="M410.548,244.941h3.814a2.519,2.519,0,0,1,2.795,2.483,2.37,2.37,0,0,1-1.728,2.3l1.871,3.611h-1.391l-1.739-3.443h-2.363v3.443h-1.259Zm1.259,1.1v2.806h2.447a1.419,1.419,0,1,0,0-2.806Z"/>
    <path class="cls-9" d="M420.854,247.112a3.173,3.173,0,1,1-3.178,3.166A3.134,3.134,0,0,1,420.854,247.112Zm1.991,3.166a2,2,0,1,0-1.991,2.123A2.037,2.037,0,0,0,422.845,250.278Z"/>
    <path class="cls-9" d="M426.339,250.854a1.43,1.43,0,0,0,1.511,1.559,1.713,1.713,0,0,0,1.5-.8v-4.377h1.2v6.1h-1.2v-.612a2.492,2.492,0,0,1-1.835.732,2.279,2.279,0,0,1-2.374-2.4v-3.826h1.2Z"/>
    <path class="cls-9" d="M432.759,248.239h-1.3v-1.007h1.3v-1.559l1.188-.288v1.847h1.8v1.007h-1.8v3.311c0,.623.252.851.9.851a2.358,2.358,0,0,0,.876-.144v1.008a3.968,3.968,0,0,1-1.14.179c-1.187,0-1.823-.563-1.823-1.619Z"/>
    <path class="cls-9" d="M439.43,253.444a3.141,3.141,0,0,1-3.2-3.166,3.068,3.068,0,0,1,3.059-3.142,3.023,3.023,0,0,1,2.95,3.19v.348h-4.822a2.06,2.06,0,0,0,2.064,1.751,2.372,2.372,0,0,0,1.547-.539l.767.755A3.645,3.645,0,0,1,439.43,253.444Zm-2-3.67h3.622a1.821,1.821,0,0,0-3.622,0Z"/>
    <path class="cls-9" d="M443.38,247.232h1.2v.78a1.91,1.91,0,0,1,1.678-.912,1.53,1.53,0,0,1,.613.1v1.079a2.06,2.06,0,0,0-.708-.132,1.665,1.665,0,0,0-1.583,1.116v4.078h-1.2Z"/>
  </g>
  <g>
    <path class="cls-9" d="M412.57,143.844h3.886a2.517,2.517,0,1,1,0,5.013H413.83v3.383h-1.26Zm1.26,1.1v2.842h2.494a1.432,1.432,0,1,0,0-2.842Z"/>
    <path class="cls-9" d="M421.414,149.757a1.429,1.429,0,0,0,1.51,1.559,1.713,1.713,0,0,0,1.5-.8v-4.378h1.2v6.105h-1.2v-.612a2.492,2.492,0,0,1-1.835.732,2.28,2.28,0,0,1-2.374-2.4v-3.826h1.2Z"/>
    <path class="cls-9" d="M430.076,152.335a3.048,3.048,0,0,1-1.847-.611v.516h-1.188v-8.4l1.2-.264v3.131a2.827,2.827,0,0,1,1.859-.672,3.148,3.148,0,0,1-.024,6.3Zm-1.835-4.521v2.759a2.26,2.26,0,0,0,1.7.719,2.105,2.105,0,0,0,0-4.21A2.189,2.189,0,0,0,428.241,147.814Z"/>
    <path class="cls-9" d="M435.525,152.24h-1.2v-8.4l1.2-.264Z"/>
    <path class="cls-9" d="M436.81,144.408a.737.737,0,0,1,.731-.744.744.744,0,1,1,0,1.488A.737.737,0,0,1,436.81,144.408Zm1.331,7.832h-1.2v-6.105h1.2Z"/>
    <path class="cls-9" d="M444.115,150.549l.719.779a3.373,3.373,0,0,1-2.41,1.02,3.167,3.167,0,0,1,0-6.333,3.463,3.463,0,0,1,2.458,1.02l-.756.815a2.263,2.263,0,0,0-1.678-.768,2.108,2.108,0,0,0,.024,4.21A2.228,2.228,0,0,0,444.115,150.549Z"/>
  </g>
  <g>
    <path class="cls-9" d="M222.041,273.039h3.886a2.517,2.517,0,1,1,0,5.014H223.3v3.381h-1.259Zm1.259,1.1v2.843H225.8a1.432,1.432,0,1,0,0-2.843Z"/>
    <path class="cls-9" d="M232.335,275.21a3.173,3.173,0,1,1-3.177,3.167A3.133,3.133,0,0,1,232.335,275.21Zm1.992,3.167a2,2,0,1,0-1.992,2.122A2.038,2.038,0,0,0,234.327,278.377Z"/>
    <path class="cls-9" d="M236.645,275.33h1.2v.779a1.913,1.913,0,0,1,1.68-.911,1.534,1.534,0,0,1,.611.1v1.08a2.051,2.051,0,0,0-.707-.133,1.668,1.668,0,0,0-1.584,1.116v4.077h-1.2Z"/>
    <path class="cls-9" d="M241.937,276.338h-1.3V275.33h1.3v-1.559l1.187-.288v1.847h1.8v1.008h-1.8v3.309c0,.624.252.852.9.852a2.352,2.352,0,0,0,.875-.144v1.008a3.962,3.962,0,0,1-1.139.18c-1.187,0-1.823-.564-1.823-1.619Z"/>
  </g>
  <g>
    <path class="cls-9" d="M222.041,300.137h3.886a2.517,2.517,0,1,1,0,5.013H223.3v3.382h-1.259Zm1.259,1.1v2.843H225.8a1.432,1.432,0,1,0,0-2.843Z"/>
    <path class="cls-9" d="M232.335,302.308a3.172,3.172,0,1,1-3.177,3.167A3.133,3.133,0,0,1,232.335,302.308Zm1.992,3.167a2,2,0,1,0-1.992,2.122A2.039,2.039,0,0,0,234.327,305.475Z"/>
    <path class="cls-9" d="M236.645,302.428h1.2v.779a1.913,1.913,0,0,1,1.68-.911,1.517,1.517,0,0,1,.611.1v1.08a2.051,2.051,0,0,0-.707-.133,1.668,1.668,0,0,0-1.584,1.116v4.077h-1.2Z"/>
    <path class="cls-9" d="M241.937,303.435h-1.3v-1.007h1.3v-1.559l1.187-.288v1.847h1.8v1.007h-1.8v3.31c0,.624.252.852.9.852a2.373,2.373,0,0,0,.875-.144v1.008a4,4,0,0,1-1.139.18c-1.187,0-1.823-.564-1.823-1.62Z"/>
  </g>
  <g>
    <path class="cls-9" d="M222.041,362.558h3.886a2.517,2.517,0,1,1,0,5.013H223.3v3.382h-1.259Zm1.259,1.1V366.5H225.8a1.432,1.432,0,1,0,0-2.843Z"/>
    <path class="cls-9" d="M232.335,364.728a3.173,3.173,0,1,1-3.177,3.167A3.134,3.134,0,0,1,232.335,364.728Zm1.992,3.167a2,2,0,1,0-1.992,2.122A2.038,2.038,0,0,0,234.327,367.9Z"/>
    <path class="cls-9" d="M236.645,364.849h1.2v.779a1.913,1.913,0,0,1,1.68-.911,1.535,1.535,0,0,1,.611.1v1.08a2.073,2.073,0,0,0-.707-.132,1.667,1.667,0,0,0-1.584,1.116v4.077h-1.2Z"/>
    <path class="cls-9" d="M241.937,365.856h-1.3v-1.007h1.3V363.29l1.187-.288v1.847h1.8v1.007h-1.8v3.31c0,.624.252.851.9.851a2.372,2.372,0,0,0,.875-.143v1.008a4,4,0,0,1-1.139.179c-1.187,0-1.823-.563-1.823-1.619Z"/>
  </g>
  <g>
    <path class="cls-9" d="M222.041,389.656h3.886a2.517,2.517,0,1,1,0,5.013H223.3v3.383h-1.259Zm1.259,1.1V393.6H225.8a1.431,1.431,0,1,0,0-2.841Z"/>
    <path class="cls-9" d="M232.335,391.827a3.173,3.173,0,1,1-3.177,3.166A3.133,3.133,0,0,1,232.335,391.827Zm1.992,3.166a2,2,0,1,0-1.992,2.123A2.037,2.037,0,0,0,234.327,394.993Z"/>
    <path class="cls-9" d="M236.645,391.947h1.2v.779a1.913,1.913,0,0,1,1.68-.911,1.517,1.517,0,0,1,.611.1v1.079a2.05,2.05,0,0,0-.707-.132,1.668,1.668,0,0,0-1.584,1.116v4.078h-1.2Z"/>
    <path class="cls-9" d="M241.937,392.954h-1.3v-1.007h1.3v-1.559l1.187-.288v1.847h1.8v1.007h-1.8v3.311c0,.623.252.851.9.851a2.352,2.352,0,0,0,.875-.144v1.007a3.928,3.928,0,0,1-1.139.18c-1.187,0-1.823-.563-1.823-1.619Z"/>
  </g>
  <g>
    <path class="cls-9" d="M222.041,416.754h3.886a2.517,2.517,0,1,1,0,5.013H223.3v3.382h-1.259Zm1.259,1.1V420.7H225.8a1.432,1.432,0,1,0,0-2.843Z"/>
    <path class="cls-9" d="M232.335,418.925a3.172,3.172,0,1,1-3.177,3.167A3.133,3.133,0,0,1,232.335,418.925Zm1.992,3.167a2,2,0,1,0-1.992,2.122A2.039,2.039,0,0,0,234.327,422.092Z"/>
    <path class="cls-9" d="M236.645,419.045h1.2v.779a1.913,1.913,0,0,1,1.68-.911,1.517,1.517,0,0,1,.611.1v1.08a2.051,2.051,0,0,0-.707-.133,1.668,1.668,0,0,0-1.584,1.116v4.077h-1.2Z"/>
    <path class="cls-9" d="M241.937,420.053h-1.3v-1.008h1.3v-1.559l1.187-.288v1.847h1.8v1.008h-1.8v3.309c0,.624.252.852.9.852a2.352,2.352,0,0,0,.875-.144v1.008a4,4,0,0,1-1.139.18c-1.187,0-1.823-.564-1.823-1.619Z"/>
  </g>
  <g>
    <path class="cls-9" d="M222.041,128.325h3.886a2.517,2.517,0,1,1,0,5.013H223.3v3.382h-1.259Zm1.259,1.1v2.842H225.8a1.432,1.432,0,1,0,0-2.842Z"/>
    <path class="cls-9" d="M232.335,130.5a3.172,3.172,0,1,1-3.177,3.166A3.133,3.133,0,0,1,232.335,130.5Zm1.992,3.166a2,2,0,1,0-1.992,2.123A2.038,2.038,0,0,0,234.327,133.662Z"/>
    <path class="cls-9" d="M236.645,130.616h1.2v.779a1.913,1.913,0,0,1,1.68-.911,1.535,1.535,0,0,1,.611.095v1.08a2.05,2.05,0,0,0-.707-.132,1.669,1.669,0,0,0-1.584,1.115v4.078h-1.2Z"/>
    <path class="cls-9" d="M241.937,131.623h-1.3v-1.007h1.3v-1.559l1.187-.289v1.848h1.8v1.007h-1.8v3.31c0,.624.252.852.9.852a2.373,2.373,0,0,0,.875-.144v1.007a3.962,3.962,0,0,1-1.139.18c-1.187,0-1.823-.563-1.823-1.619Z"/>
  </g>
  <g>
    <path class="cls-11" d="M306.522,154.422H308.4l2.566,6.633,2.627-6.633h1.8l-3.454,8.4h-2.015Z"/>
    <path class="cls-11" d="M316.109,154.422h1.739v6.861h4.594v1.535h-6.333Z"/>
    <path class="cls-11" d="M326.476,154.422h2.015l3.406,8.4h-1.883l-.851-2.207H325.7l-.864,2.207h-1.811Zm2.159,4.8-1.187-3.095-1.211,3.095Z"/>
    <path class="cls-11" d="M334.264,154.422l4.174,5.433v-5.433h1.631v8.4h-1.535l-4.282-5.613v5.613h-1.643v-8.4Z"/>
    <path class="cls-11" d="M346.791,162.818h-1.642v-6.729l-1.644.672v-1.427l2.243-.912h1.043Z"/>
    <path class="cls-11" d="M347.849,158.608c0-2.578,1.5-4.318,3.694-4.318s3.695,1.74,3.695,4.318c0,2.6-1.476,4.33-3.695,4.33S347.849,161.211,347.849,158.608Zm5.793,0c0-1.775-.815-2.89-2.1-2.89s-2.087,1.115-2.087,2.89c0,1.8.8,2.9,2.087,2.9S353.642,160.407,353.642,158.608Z"/>
    <path class="cls-11" d="M359.175,162.818h-1.642v-6.729l-1.644.672v-1.427l2.243-.912h1.043Z"/>
  </g>
  <g>
    <path class="cls-10" d="M306.522,182.52H308.4l2.566,6.632,2.627-6.632h1.8l-3.454,8.395h-2.015Z"/>
    <path class="cls-10" d="M316.109,182.52h1.739v6.86h4.594v1.535h-6.333Z"/>
    <path class="cls-10" d="M326.476,182.52h2.015l3.406,8.395h-1.883l-.851-2.207H325.7l-.864,2.207h-1.811Zm2.159,4.8-1.187-3.094-1.211,3.094Z"/>
    <path class="cls-10" d="M334.264,182.52l4.174,5.433V182.52h1.631v8.395h-1.535l-4.282-5.612v5.612h-1.643V182.52Z"/>
    <path class="cls-10" d="M346.791,190.915h-1.642v-6.728l-1.644.672v-1.427l2.243-.912h1.043Z"/>
    <path class="cls-10" d="M347.849,186.706c0-2.579,1.5-4.318,3.694-4.318s3.695,1.739,3.695,4.318c0,2.6-1.476,4.33-3.695,4.33S347.849,189.309,347.849,186.706Zm5.793,0c0-1.775-.815-2.891-2.1-2.891s-2.087,1.116-2.087,2.891c0,1.8.8,2.9,2.087,2.9S353.642,188.505,353.642,186.706Z"/>
    <path class="cls-10" d="M355.853,189.764l3.311-2.962c.755-.7,1.043-1.152,1.043-1.715a1.356,1.356,0,0,0-1.511-1.272,3.172,3.172,0,0,0-2.255,1.032l-.923-1.1a4.746,4.746,0,0,1,3.226-1.332c1.811,0,3.058,1.043,3.058,2.567,0,.959-.42,1.679-1.607,2.734l-2.051,1.823h3.766v1.379h-6.057Z"/>
  </g>
  <g>
    <path class="cls-12" d="M306.522,245.941H308.4l2.566,6.633,2.627-6.633h1.8l-3.454,8.4h-2.015Z"/>
    <path class="cls-12" d="M316.109,245.941h1.739V252.8h4.594v1.535h-6.333Z"/>
    <path class="cls-12" d="M326.476,245.941h2.015l3.406,8.4h-1.883l-.851-2.207H325.7l-.864,2.207h-1.811Zm2.159,4.8-1.187-3.095-1.211,3.095Z"/>
    <path class="cls-12" d="M334.264,245.941l4.174,5.434v-5.434h1.631v8.4h-1.535l-4.282-5.612v5.612h-1.643v-8.4Z"/>
    <path class="cls-12" d="M346.791,254.337h-1.642v-6.729l-1.644.672v-1.427l2.243-.912h1.043Z"/>
    <path class="cls-12" d="M347.849,250.128c0-2.579,1.5-4.319,3.694-4.319s3.695,1.74,3.695,4.319c0,2.6-1.476,4.329-3.695,4.329S347.849,252.73,347.849,250.128Zm5.793,0c0-1.776-.815-2.891-2.1-2.891s-2.087,1.115-2.087,2.891c0,1.8.8,2.9,2.087,2.9S353.642,251.927,353.642,250.128Z"/>
    <path class="cls-12" d="M359.187,254.457a4.556,4.556,0,0,1-3.31-1.308l1.1-1.019a2.727,2.727,0,0,0,2.194.912c1.031,0,1.728-.468,1.728-1.163,0-.624-.624-1.02-1.6-1.02h-.768v-1.307h.6a1.345,1.345,0,0,0,1.512-1.224c0-.623-.636-1.091-1.5-1.091a2.665,2.665,0,0,0-2.087.984l-1.115-1.02a4.52,4.52,0,0,1,3.261-1.392c1.811,0,3.082.972,3.082,2.351a2.184,2.184,0,0,1-1.247,1.943A2.035,2.035,0,0,1,362.557,252C362.557,253.426,361.142,254.457,359.187,254.457Z"/>
  </g>
  <g>
    <path class="cls-12" d="M306.522,273.039H308.4l2.566,6.633,2.627-6.633h1.8l-3.454,8.4h-2.015Z"/>
    <path class="cls-12" d="M316.109,273.039h1.739v6.86h4.594v1.535h-6.333Z"/>
    <path class="cls-12" d="M326.476,273.039h2.015l3.406,8.4h-1.883l-.851-2.207H325.7l-.864,2.207h-1.811Zm2.159,4.8-1.187-3.095-1.211,3.095Z"/>
    <path class="cls-12" d="M334.264,273.039l4.174,5.434v-5.434h1.631v8.4h-1.535l-4.282-5.612v5.612h-1.643v-8.4Z"/>
    <path class="cls-12" d="M346.791,281.434h-1.642v-6.728l-1.644.672v-1.427l2.243-.912h1.043Z"/>
    <path class="cls-12" d="M347.849,277.225c0-2.579,1.5-4.318,3.694-4.318s3.695,1.739,3.695,4.318c0,2.6-1.476,4.33-3.695,4.33S347.849,279.828,347.849,277.225Zm5.793,0c0-1.775-.815-2.89-2.1-2.89s-2.087,1.115-2.087,2.89c0,1.8.8,2.9,2.087,2.9S353.642,279.024,353.642,277.225Z"/>
    <path class="cls-12" d="M359.187,281.555a4.556,4.556,0,0,1-3.31-1.308l1.1-1.02a2.727,2.727,0,0,0,2.194.913c1.031,0,1.728-.468,1.728-1.164,0-.624-.624-1.019-1.6-1.019h-.768v-1.308h.6c.876,0,1.512-.515,1.512-1.223,0-.623-.636-1.091-1.5-1.091a2.667,2.667,0,0,0-2.087.983L355.95,274.3a4.52,4.52,0,0,1,3.261-1.392c1.811,0,3.082.972,3.082,2.351a2.184,2.184,0,0,1-1.247,1.943,2.034,2.034,0,0,1,1.511,1.895C362.557,280.523,361.142,281.555,359.187,281.555Z"/>
  </g>
  <g>
    <path class="cls-10" d="M306.522,300.137H308.4l2.566,6.632,2.627-6.632h1.8l-3.454,8.395h-2.015Z"/>
    <path class="cls-10" d="M316.109,300.137h1.739V307h4.594v1.535h-6.333Z"/>
    <path class="cls-10" d="M326.476,300.137h2.015l3.406,8.395h-1.883l-.851-2.207H325.7l-.864,2.207h-1.811Zm2.159,4.8-1.187-3.094-1.211,3.094Z"/>
    <path class="cls-10" d="M334.264,300.137l4.174,5.433v-5.433h1.631v8.395h-1.535l-4.282-5.612v5.612h-1.643v-8.395Z"/>
    <path class="cls-10" d="M346.791,308.532h-1.642V301.8l-1.644.671v-1.426l2.243-.912h1.043Z"/>
    <path class="cls-10" d="M347.849,304.323c0-2.579,1.5-4.318,3.694-4.318s3.695,1.739,3.695,4.318c0,2.6-1.476,4.329-3.695,4.329S347.849,306.926,347.849,304.323Zm5.793,0c0-1.775-.815-2.89-2.1-2.89s-2.087,1.115-2.087,2.89c0,1.8.8,2.9,2.087,2.9S353.642,306.122,353.642,304.323Z"/>
    <path class="cls-10" d="M355.853,307.381l3.311-2.962c.755-.7,1.043-1.152,1.043-1.715a1.355,1.355,0,0,0-1.511-1.271,3.171,3.171,0,0,0-2.255,1.031l-.923-1.1a4.749,4.749,0,0,1,3.226-1.331c1.811,0,3.058,1.043,3.058,2.567,0,.96-.42,1.678-1.607,2.734l-2.051,1.823h3.766v1.379h-6.057Z"/>
  </g>
  <g>
    <path class="cls-13" d="M306.522,362.558H308.4l2.566,6.632,2.627-6.632h1.8l-3.454,8.395h-2.015Z"/>
    <path class="cls-13" d="M316.109,362.558h1.739v6.86h4.594v1.535h-6.333Z"/>
    <path class="cls-13" d="M326.476,362.558h2.015l3.406,8.395h-1.883l-.851-2.207H325.7l-.864,2.207h-1.811Zm2.159,4.8-1.187-3.094-1.211,3.094Z"/>
    <path class="cls-13" d="M334.264,362.558l4.174,5.433v-5.433h1.631v8.395h-1.535l-4.282-5.612v5.612h-1.643v-8.395Z"/>
    <path class="cls-13" d="M346.791,370.953h-1.642v-6.728l-1.644.671V363.47l2.243-.912h1.043Z"/>
    <path class="cls-13" d="M347.849,366.744c0-2.579,1.5-4.318,3.694-4.318s3.695,1.739,3.695,4.318c0,2.6-1.476,4.329-3.695,4.329S347.849,369.347,347.849,366.744Zm5.793,0c0-1.775-.815-2.891-2.1-2.891s-2.087,1.116-2.087,2.891c0,1.8.8,2.9,2.087,2.9S353.642,368.543,353.642,366.744Z"/>
    <path class="cls-13" d="M362.366,367.607H363.4v1.379h-1.031v1.967h-1.644v-1.967h-4.737v-1.319l4.486-5.109h1.895Zm-1.644,0v-3.226l-2.842,3.226Z"/>
  </g>
  <g>
    <path class="cls-13" d="M306.522,389.656H308.4l2.566,6.632,2.627-6.632h1.8l-3.454,8.4h-2.015Z"/>
    <path class="cls-13" d="M316.109,389.656h1.739v6.861h4.594v1.535h-6.333Z"/>
    <path class="cls-13" d="M326.476,389.656h2.015l3.406,8.4h-1.883l-.851-2.207H325.7l-.864,2.207h-1.811Zm2.159,4.8-1.187-3.094-1.211,3.094Z"/>
    <path class="cls-13" d="M334.264,389.656l4.174,5.433v-5.433h1.631v8.4h-1.535l-4.282-5.614v5.614h-1.643v-8.4Z"/>
    <path class="cls-13" d="M346.791,398.052h-1.642v-6.729l-1.644.672v-1.428l2.243-.911h1.043Z"/>
    <path class="cls-13" d="M347.849,393.842c0-2.578,1.5-4.318,3.694-4.318s3.695,1.74,3.695,4.318c0,2.6-1.476,4.33-3.695,4.33S347.849,396.444,347.849,393.842Zm5.793,0c0-1.776-.815-2.891-2.1-2.891s-2.087,1.115-2.087,2.891c0,1.8.8,2.9,2.087,2.9S353.642,395.641,353.642,393.842Z"/>
    <path class="cls-13" d="M362.366,394.705H363.4v1.38h-1.031v1.967h-1.644v-1.967h-4.737v-1.319l4.486-5.11h1.895Zm-1.644,0v-3.226l-2.842,3.226Z"/>
  </g>
  <g>
    <path class="cls-10" d="M306.522,416.754H308.4l2.566,6.633,2.627-6.633h1.8l-3.454,8.395h-2.015Z"/>
    <path class="cls-10" d="M316.109,416.754h1.739v6.86h4.594v1.535h-6.333Z"/>
    <path class="cls-10" d="M326.476,416.754h2.015l3.406,8.395h-1.883l-.851-2.207H325.7l-.864,2.207h-1.811Zm2.159,4.8-1.187-3.1-1.211,3.1Z"/>
    <path class="cls-10" d="M334.264,416.754l4.174,5.433v-5.433h1.631v8.395h-1.535l-4.282-5.612v5.612h-1.643v-8.395Z"/>
    <path class="cls-10" d="M346.791,425.149h-1.642v-6.728l-1.644.672v-1.427l2.243-.912h1.043Z"/>
    <path class="cls-10" d="M347.849,420.94c0-2.579,1.5-4.318,3.694-4.318s3.695,1.739,3.695,4.318c0,2.6-1.476,4.329-3.695,4.329S347.849,423.543,347.849,420.94Zm5.793,0c0-1.775-.815-2.89-2.1-2.89s-2.087,1.115-2.087,2.89c0,1.8.8,2.9,2.087,2.9S353.642,422.739,353.642,420.94Z"/>
    <path class="cls-10" d="M355.853,424l3.311-2.962c.755-.7,1.043-1.151,1.043-1.715a1.355,1.355,0,0,0-1.511-1.271,3.171,3.171,0,0,0-2.255,1.031l-.923-1.1a4.749,4.749,0,0,1,3.226-1.331c1.811,0,3.058,1.043,3.058,2.567,0,.96-.42,1.679-1.607,2.734l-2.051,1.823h3.766v1.379h-6.057Z"/>
  </g>
  <g>
    <path class="cls-11" d="M306.522,128.325H308.4l2.566,6.632,2.627-6.632h1.8l-3.454,8.4h-2.015Z"/>
    <path class="cls-11" d="M316.109,128.325h1.739v6.86h4.594v1.535h-6.333Z"/>
    <path class="cls-11" d="M326.476,128.325h2.015l3.406,8.4h-1.883l-.851-2.207H325.7l-.864,2.207h-1.811Zm2.159,4.8-1.187-3.094-1.211,3.094Z"/>
    <path class="cls-11" d="M334.264,128.325l4.174,5.433v-5.433h1.631v8.4h-1.535l-4.282-5.613v5.613h-1.643v-8.4Z"/>
    <path class="cls-11" d="M346.791,136.72h-1.642v-6.728l-1.644.671v-1.427l2.243-.911h1.043Z"/>
    <path class="cls-11" d="M347.849,132.511c0-2.579,1.5-4.318,3.694-4.318s3.695,1.739,3.695,4.318c0,2.6-1.476,4.329-3.695,4.329S347.849,135.113,347.849,132.511Zm5.793,0c0-1.776-.815-2.891-2.1-2.891s-2.087,1.115-2.087,2.891c0,1.8.8,2.9,2.087,2.9S353.642,134.309,353.642,132.511Z"/>
    <path class="cls-11" d="M359.175,136.72h-1.642v-6.728l-1.644.671v-1.427l2.243-.911h1.043Z"/>
  </g>
  <g>
    <path class="cls-9" d="M60.039,181.52H61.3v8.395h-1.26Z"/>
    <path class="cls-9" d="M62.871,183.811h1.2v.611a2.518,2.518,0,0,1,1.836-.731,2.279,2.279,0,0,1,2.386,2.387v3.837h-1.2v-3.633a1.422,1.422,0,0,0-1.512-1.548,1.726,1.726,0,0,0-1.511.792v4.389h-1.2Z"/>
    <path class="cls-9" d="M69.747,188.332a3.2,3.2,0,0,0,1.991.768c.863,0,1.464-.372,1.464-.912,0-.431-.312-.683-.984-.779l-1.1-.156c-1.212-.18-1.824-.744-1.824-1.691,0-1.1.96-1.847,2.387-1.847a4.185,4.185,0,0,1,2.459.78l-.612.791a3.393,3.393,0,0,0-1.931-.636c-.731,0-1.223.336-1.223.828,0,.444.288.66,1.007.768l1.1.155c1.211.18,1.847.756,1.847,1.7,0,1.092-1.1,1.919-2.555,1.919a4.027,4.027,0,0,1-2.674-.9Z"/>
    <path class="cls-9" d="M75.927,184.818h-1.3v-1.007h1.3v-1.559l1.187-.288v1.847h1.8v1.007h-1.8v3.31c0,.624.252.852.9.852a2.352,2.352,0,0,0,.875-.144v1.008a3.967,3.967,0,0,1-1.139.179c-1.188,0-1.823-.563-1.823-1.619Z"/>
    <path class="cls-9" d="M79.492,188.164c0-1.151.935-1.858,2.47-1.858a4.307,4.307,0,0,1,1.667.335v-.647c0-.864-.516-1.3-1.487-1.3a4.335,4.335,0,0,0-1.895.516l-.444-.9a5.724,5.724,0,0,1,2.507-.623c1.583,0,2.5.78,2.5,2.182v4.042H83.629v-.527a2.894,2.894,0,0,1-1.9.635C80.4,190.023,79.492,189.268,79.492,188.164Zm2.518.972a2.346,2.346,0,0,0,1.619-.576v-1.055a3.166,3.166,0,0,0-1.571-.372c-.875,0-1.415.4-1.415,1.008C80.643,188.728,81.194,189.136,82.01,189.136Z"/>
    <path class="cls-9" d="M86.187,183.811h1.2v.611a2.518,2.518,0,0,1,1.835-.731,2.28,2.28,0,0,1,2.387,2.387v3.837h-1.2v-3.633a1.422,1.422,0,0,0-1.512-1.548,1.726,1.726,0,0,0-1.511.792v4.389h-1.2Z"/>
    <path class="cls-9" d="M97.548,188.225l.72.779a3.376,3.376,0,0,1-2.411,1.019,3.166,3.166,0,0,1,0-6.332,3.469,3.469,0,0,1,2.459,1.019l-.756.816a2.267,2.267,0,0,0-1.679-.768,2.108,2.108,0,0,0,.024,4.21A2.225,2.225,0,0,0,97.548,188.225Z"/>
    <path class="cls-9" d="M101.929,190.023a3.141,3.141,0,0,1-3.2-3.166,3.067,3.067,0,0,1,3.059-3.142,3.023,3.023,0,0,1,2.95,3.19v.348H99.914A2.06,2.06,0,0,0,101.977,189a2.371,2.371,0,0,0,1.547-.54l.768.756A3.645,3.645,0,0,1,101.929,190.023Zm-2-3.67h3.622a1.821,1.821,0,0,0-3.622,0Z"/>
  </g>
  <g>
    <path class="cls-9" d="M60.039,244.941H61.3v8.4h-1.26Z"/>
    <path class="cls-9" d="M62.871,247.232h1.2v.612a2.515,2.515,0,0,1,1.836-.732,2.279,2.279,0,0,1,2.386,2.387v3.838h-1.2V249.7a1.422,1.422,0,0,0-1.512-1.548,1.728,1.728,0,0,0-1.511.792v4.39h-1.2Z"/>
    <path class="cls-9" d="M69.747,251.754a3.2,3.2,0,0,0,1.991.767c.863,0,1.464-.372,1.464-.912,0-.431-.312-.683-.984-.779l-1.1-.156c-1.212-.18-1.824-.743-1.824-1.691,0-1.1.96-1.847,2.387-1.847a4.185,4.185,0,0,1,2.459.78l-.612.791a3.4,3.4,0,0,0-1.931-.636c-.731,0-1.223.336-1.223.828,0,.444.288.66,1.007.768l1.1.155c1.211.181,1.847.756,1.847,1.7,0,1.092-1.1,1.919-2.555,1.919a4.022,4.022,0,0,1-2.674-.9Z"/>
    <path class="cls-9" d="M75.927,248.239h-1.3v-1.007h1.3v-1.559l1.187-.288v1.847h1.8v1.007h-1.8v3.311c0,.623.252.851.9.851a2.352,2.352,0,0,0,.875-.144v1.008a3.967,3.967,0,0,1-1.139.179c-1.188,0-1.823-.563-1.823-1.619Z"/>
    <path class="cls-9" d="M79.492,251.586c0-1.152.935-1.86,2.47-1.86a4.326,4.326,0,0,1,1.667.336v-.647c0-.863-.516-1.3-1.487-1.3a4.324,4.324,0,0,0-1.895.517l-.444-.9a5.724,5.724,0,0,1,2.507-.623c1.583,0,2.5.78,2.5,2.183v4.042H83.629v-.528a2.894,2.894,0,0,1-1.9.635C80.4,253.444,79.492,252.689,79.492,251.586Zm2.518.971a2.346,2.346,0,0,0,1.619-.576v-1.055a3.166,3.166,0,0,0-1.571-.371c-.875,0-1.415.395-1.415,1.006C80.643,252.149,81.194,252.557,82.01,252.557Z"/>
    <path class="cls-9" d="M86.187,247.232h1.2v.612a2.515,2.515,0,0,1,1.835-.732,2.28,2.28,0,0,1,2.387,2.387v3.838h-1.2V249.7a1.422,1.422,0,0,0-1.512-1.548,1.728,1.728,0,0,0-1.511.792v4.39h-1.2Z"/>
    <path class="cls-9" d="M97.548,251.645l.72.78a3.376,3.376,0,0,1-2.411,1.019,3.166,3.166,0,0,1,0-6.332,3.465,3.465,0,0,1,2.459,1.02l-.756.815a2.266,2.266,0,0,0-1.679-.767,2.108,2.108,0,0,0,.024,4.21A2.224,2.224,0,0,0,97.548,251.645Z"/>
    <path class="cls-9" d="M101.929,253.444a3.141,3.141,0,0,1-3.2-3.166,3.068,3.068,0,0,1,3.059-3.142,3.023,3.023,0,0,1,2.95,3.19v.348H99.914a2.06,2.06,0,0,0,2.063,1.751,2.37,2.37,0,0,0,1.547-.539l.768.755A3.645,3.645,0,0,1,101.929,253.444Zm-2-3.67h3.622a1.821,1.821,0,0,0-3.622,0Z"/>
  </g>
  <g>
    <path class="cls-9" d="M60.04,272.039H61.3v8.4H60.04Z"/>
    <path class="cls-9" d="M62.872,274.33h1.2v.611a2.516,2.516,0,0,1,1.835-.731,2.279,2.279,0,0,1,2.386,2.387v3.837h-1.2V276.8a1.421,1.421,0,0,0-1.511-1.548,1.726,1.726,0,0,0-1.511.792v4.389h-1.2Z"/>
    <path class="cls-9" d="M69.748,278.851a3.2,3.2,0,0,0,1.991.768c.863,0,1.463-.372,1.463-.912,0-.432-.312-.684-.984-.779l-1.1-.157c-1.211-.179-1.823-.743-1.823-1.69,0-1.1.959-1.848,2.387-1.848a4.176,4.176,0,0,1,2.458.781l-.611.791a3.393,3.393,0,0,0-1.931-.636c-.732,0-1.223.336-1.223.828,0,.443.287.659,1.007.768l1.1.155c1.212.18,1.847.756,1.847,1.7,0,1.092-1.1,1.919-2.554,1.919a4.026,4.026,0,0,1-2.675-.9Z"/>
    <path class="cls-9" d="M75.927,275.337h-1.3V274.33h1.3v-1.56l1.188-.288v1.848h1.8v1.007h-1.8v3.31c0,.623.252.852.9.852a2.338,2.338,0,0,0,.876-.145v1.008a3.94,3.94,0,0,1-1.14.18c-1.187,0-1.823-.564-1.823-1.619Z"/>
    <path class="cls-9" d="M79.492,278.684c0-1.152.935-1.86,2.47-1.86a4.312,4.312,0,0,1,1.668.336v-.647c0-.864-.516-1.3-1.487-1.3a4.342,4.342,0,0,0-1.9.516l-.443-.9a5.707,5.707,0,0,1,2.506-.623c1.583,0,2.5.779,2.5,2.182v4.042H83.63v-.528a2.891,2.891,0,0,1-1.895.636C80.4,280.542,79.492,279.787,79.492,278.684Zm2.519.97a2.347,2.347,0,0,0,1.619-.575v-1.056a3.171,3.171,0,0,0-1.571-.371c-.876,0-1.416.4-1.416,1.007C80.643,279.247,81.195,279.654,82.011,279.654Z"/>
    <path class="cls-9" d="M86.187,274.33h1.2v.611a2.516,2.516,0,0,1,1.835-.731,2.279,2.279,0,0,1,2.386,2.387v3.837h-1.2V276.8a1.421,1.421,0,0,0-1.511-1.548,1.724,1.724,0,0,0-1.511.792v4.389h-1.2Z"/>
    <path class="cls-9" d="M97.549,278.743l.719.779a3.369,3.369,0,0,1-2.41,1.02,3.166,3.166,0,0,1,0-6.332,3.466,3.466,0,0,1,2.458,1.019l-.756.816a2.266,2.266,0,0,0-1.678-.768,2.108,2.108,0,0,0,.024,4.21A2.224,2.224,0,0,0,97.549,278.743Z"/>
    <path class="cls-9" d="M101.93,280.542a3.142,3.142,0,0,1-3.2-3.166,3.069,3.069,0,0,1,3.059-3.143,3.023,3.023,0,0,1,2.95,3.191v.347H99.915a2.058,2.058,0,0,0,2.063,1.751,2.372,2.372,0,0,0,1.547-.539l.767.755A3.638,3.638,0,0,1,101.93,280.542Zm-2-3.67h3.622a1.821,1.821,0,0,0-3.622,0Z"/>
  </g>
  <g>
    <path class="cls-9" d="M60.039,299.137H61.3v8.395h-1.26Z"/>
    <path class="cls-9" d="M62.871,301.428h1.2v.611a2.514,2.514,0,0,1,1.836-.731,2.278,2.278,0,0,1,2.386,2.386v3.838h-1.2V303.9a1.422,1.422,0,0,0-1.512-1.548,1.728,1.728,0,0,0-1.511.792v4.39h-1.2Z"/>
    <path class="cls-9" d="M69.747,305.949a3.206,3.206,0,0,0,1.991.768c.863,0,1.464-.372,1.464-.912,0-.432-.312-.684-.984-.78l-1.1-.156c-1.212-.18-1.824-.743-1.824-1.69,0-1.1.96-1.848,2.387-1.848a4.185,4.185,0,0,1,2.459.78l-.612.791a3.4,3.4,0,0,0-1.931-.635c-.731,0-1.223.335-1.223.828,0,.443.288.659,1.007.767l1.1.155c1.211.181,1.847.756,1.847,1.7,0,1.091-1.1,1.919-2.555,1.919a4.023,4.023,0,0,1-2.674-.9Z"/>
    <path class="cls-9" d="M75.927,302.434h-1.3v-1.006h1.3v-1.56l1.187-.288v1.848h1.8v1.006h-1.8v3.311c0,.623.252.852.9.852a2.353,2.353,0,0,0,.875-.145v1.008a3.968,3.968,0,0,1-1.139.18c-1.188,0-1.823-.564-1.823-1.62Z"/>
    <path class="cls-9" d="M79.492,305.781c0-1.151.935-1.859,2.47-1.859a4.308,4.308,0,0,1,1.667.336v-.648c0-.863-.516-1.3-1.487-1.3a4.338,4.338,0,0,0-1.895.517l-.444-.9a5.711,5.711,0,0,1,2.507-.623c1.583,0,2.5.779,2.5,2.182v4.042H83.629V307a2.9,2.9,0,0,1-1.9.636C80.4,307.64,79.492,306.885,79.492,305.781Zm2.518.971a2.35,2.35,0,0,0,1.619-.575v-1.056a3.166,3.166,0,0,0-1.571-.371c-.875,0-1.415.395-1.415,1.007C80.643,306.345,81.194,306.752,82.01,306.752Z"/>
    <path class="cls-9" d="M86.187,301.428h1.2v.611a2.514,2.514,0,0,1,1.835-.731,2.279,2.279,0,0,1,2.387,2.386v3.838h-1.2V303.9A1.422,1.422,0,0,0,88.9,302.35a1.728,1.728,0,0,0-1.511.792v4.39h-1.2Z"/>
    <path class="cls-9" d="M97.548,305.841l.72.779a3.377,3.377,0,0,1-2.411,1.02,3.166,3.166,0,0,1,0-6.332,3.469,3.469,0,0,1,2.459,1.019l-.756.815a2.269,2.269,0,0,0-1.679-.767,2.108,2.108,0,0,0,.024,4.21A2.222,2.222,0,0,0,97.548,305.841Z"/>
    <path class="cls-9" d="M101.929,307.64a3.141,3.141,0,0,1-3.2-3.166,3.068,3.068,0,0,1,3.059-3.143,3.024,3.024,0,0,1,2.95,3.19v.348H99.914a2.059,2.059,0,0,0,2.063,1.751,2.37,2.37,0,0,0,1.547-.539l.768.755A3.64,3.64,0,0,1,101.929,307.64Zm-2-3.67h3.622a1.821,1.821,0,0,0-3.622,0Z"/>
  </g>
  <g>
    <path class="cls-9" d="M60.039,361.559H61.3v8.395h-1.26Z"/>
    <path class="cls-9" d="M62.871,363.85h1.2v.611a2.515,2.515,0,0,1,1.836-.732,2.279,2.279,0,0,1,2.386,2.387v3.838h-1.2V366.32a1.422,1.422,0,0,0-1.512-1.548,1.728,1.728,0,0,0-1.511.792v4.39h-1.2Z"/>
    <path class="cls-9" d="M69.747,368.371a3.206,3.206,0,0,0,1.991.768c.863,0,1.464-.372,1.464-.913,0-.431-.312-.683-.984-.779l-1.1-.156c-1.212-.18-1.824-.743-1.824-1.691,0-1.1.96-1.847,2.387-1.847a4.185,4.185,0,0,1,2.459.78l-.612.791a3.4,3.4,0,0,0-1.931-.636c-.731,0-1.223.336-1.223.829,0,.443.288.659,1.007.767l1.1.155c1.211.181,1.847.756,1.847,1.7,0,1.092-1.1,1.919-2.555,1.919a4.022,4.022,0,0,1-2.674-.9Z"/>
    <path class="cls-9" d="M75.927,364.856h-1.3V363.85h1.3v-1.56L77.114,362v1.848h1.8v1.006h-1.8v3.311c0,.623.252.851.9.851a2.352,2.352,0,0,0,.875-.144v1.008a3.967,3.967,0,0,1-1.139.179c-1.188,0-1.823-.563-1.823-1.619Z"/>
    <path class="cls-9" d="M79.492,368.2c0-1.151.935-1.859,2.47-1.859a4.308,4.308,0,0,1,1.667.336v-.648c0-.863-.516-1.3-1.487-1.3a4.324,4.324,0,0,0-1.895.517l-.444-.9a5.724,5.724,0,0,1,2.507-.623c1.583,0,2.5.78,2.5,2.183v4.042H83.629v-.528a2.894,2.894,0,0,1-1.9.635C80.4,370.061,79.492,369.307,79.492,368.2Zm2.518.971a2.35,2.35,0,0,0,1.619-.575v-1.056a3.166,3.166,0,0,0-1.571-.371c-.875,0-1.415.395-1.415,1.007C80.643,368.767,81.194,369.174,82.01,369.174Z"/>
    <path class="cls-9" d="M86.187,363.85h1.2v.611a2.515,2.515,0,0,1,1.835-.732,2.28,2.28,0,0,1,2.387,2.387v3.838h-1.2V366.32a1.422,1.422,0,0,0-1.512-1.548,1.728,1.728,0,0,0-1.511.792v4.39h-1.2Z"/>
    <path class="cls-9" d="M97.548,368.263l.72.779a3.376,3.376,0,0,1-2.411,1.019,3.166,3.166,0,0,1,0-6.332,3.465,3.465,0,0,1,2.459,1.02l-.756.815a2.266,2.266,0,0,0-1.679-.767,2.108,2.108,0,0,0,.024,4.21A2.222,2.222,0,0,0,97.548,368.263Z"/>
    <path class="cls-9" d="M101.929,370.061a3.14,3.14,0,0,1-3.2-3.166,3.068,3.068,0,0,1,3.059-3.142,3.023,3.023,0,0,1,2.95,3.19v.348H99.914a2.06,2.06,0,0,0,2.063,1.751,2.37,2.37,0,0,0,1.547-.539l.768.755A3.645,3.645,0,0,1,101.929,370.061Zm-2-3.669h3.622a1.821,1.821,0,0,0-3.622,0Z"/>
  </g>
  <g>
    <path class="cls-9" d="M60.04,388.656H61.3v8.4H60.04Z"/>
    <path class="cls-9" d="M62.872,390.947h1.2v.612a2.513,2.513,0,0,1,1.835-.732,2.279,2.279,0,0,1,2.386,2.387v3.838h-1.2v-3.634a1.42,1.42,0,0,0-1.511-1.547,1.725,1.725,0,0,0-1.511.791v4.39h-1.2Z"/>
    <path class="cls-9" d="M69.748,395.469a3.2,3.2,0,0,0,1.991.767c.863,0,1.463-.372,1.463-.911,0-.432-.312-.683-.984-.78l-1.1-.155c-1.211-.18-1.823-.745-1.823-1.692,0-1.1.959-1.847,2.387-1.847a4.182,4.182,0,0,1,2.458.78l-.611.792a3.385,3.385,0,0,0-1.931-.636c-.732,0-1.223.336-1.223.827,0,.445.287.66,1.007.768l1.1.156c1.212.18,1.847.756,1.847,1.7,0,1.091-1.1,1.919-2.554,1.919a4.03,4.03,0,0,1-2.675-.9Z"/>
    <path class="cls-9" d="M75.927,391.955h-1.3v-1.008h1.3v-1.558l1.188-.289v1.847h1.8v1.008h-1.8v3.31c0,.624.252.851.9.851a2.378,2.378,0,0,0,.876-.143v1.007a3.974,3.974,0,0,1-1.14.18c-1.187,0-1.823-.563-1.823-1.619Z"/>
    <path class="cls-9" d="M79.492,395.3c0-1.152.935-1.859,2.47-1.859a4.312,4.312,0,0,1,1.668.335v-.647c0-.863-.516-1.3-1.487-1.3a4.353,4.353,0,0,0-1.9.515l-.443-.9a5.709,5.709,0,0,1,2.506-.624c1.583,0,2.5.78,2.5,2.183v4.042H83.63v-.528a2.9,2.9,0,0,1-1.895.636C80.4,397.16,79.492,396.4,79.492,395.3Zm2.519.971a2.348,2.348,0,0,0,1.619-.576v-1.054a3.172,3.172,0,0,0-1.571-.373c-.876,0-1.416.4-1.416,1.008C80.643,395.864,81.195,396.272,82.011,396.272Z"/>
    <path class="cls-9" d="M86.187,390.947h1.2v.612a2.513,2.513,0,0,1,1.835-.732,2.279,2.279,0,0,1,2.386,2.387v3.838h-1.2v-3.634a1.42,1.42,0,0,0-1.511-1.547,1.724,1.724,0,0,0-1.511.791v4.39h-1.2Z"/>
    <path class="cls-9" d="M97.549,395.361l.719.78a3.376,3.376,0,0,1-2.41,1.019,3.167,3.167,0,0,1,0-6.333,3.463,3.463,0,0,1,2.458,1.02l-.756.815a2.266,2.266,0,0,0-1.678-.768,2.108,2.108,0,0,0,.024,4.21A2.227,2.227,0,0,0,97.549,395.361Z"/>
    <path class="cls-9" d="M101.93,397.16a3.142,3.142,0,0,1-3.2-3.166,3.068,3.068,0,0,1,3.059-3.143,3.023,3.023,0,0,1,2.95,3.191v.348H99.915a2.059,2.059,0,0,0,2.063,1.751,2.374,2.374,0,0,0,1.547-.541l.767.756A3.638,3.638,0,0,1,101.93,397.16Zm-2-3.67h3.622a1.821,1.821,0,0,0-3.622,0Z"/>
  </g>
  <g>
    <path class="cls-9" d="M60.039,415.754H61.3v8.395h-1.26Z"/>
    <path class="cls-9" d="M62.871,418.045h1.2v.611a2.518,2.518,0,0,1,1.836-.731,2.278,2.278,0,0,1,2.386,2.386v3.838h-1.2v-3.633a1.421,1.421,0,0,0-1.512-1.547,1.725,1.725,0,0,0-1.511.791v4.389h-1.2Z"/>
    <path class="cls-9" d="M69.747,422.566a3.2,3.2,0,0,0,1.991.768c.863,0,1.464-.372,1.464-.911,0-.432-.312-.684-.984-.781l-1.1-.155c-1.212-.179-1.824-.744-1.824-1.691,0-1.1.96-1.847,2.387-1.847a4.191,4.191,0,0,1,2.459.779l-.612.792a3.391,3.391,0,0,0-1.931-.635c-.731,0-1.223.336-1.223.827,0,.444.288.66,1.007.767l1.1.157c1.211.179,1.847.756,1.847,1.7,0,1.091-1.1,1.919-2.555,1.919a4.028,4.028,0,0,1-2.674-.9Z"/>
    <path class="cls-9" d="M75.927,419.053h-1.3v-1.008h1.3v-1.559l1.187-.288v1.847h1.8v1.008h-1.8v3.309c0,.624.252.852.9.852a2.352,2.352,0,0,0,.875-.144v1.008a4,4,0,0,1-1.139.18c-1.188,0-1.823-.564-1.823-1.619Z"/>
    <path class="cls-9" d="M79.492,422.4c0-1.151.935-1.858,2.47-1.858a4.307,4.307,0,0,1,1.667.335v-.648c0-.863-.516-1.294-1.487-1.294a4.345,4.345,0,0,0-1.895.515l-.444-.9a5.713,5.713,0,0,1,2.507-.624c1.583,0,2.5.78,2.5,2.182v4.042H83.629v-.527a2.9,2.9,0,0,1-1.9.636C80.4,424.258,79.492,423.5,79.492,422.4Zm2.518.972a2.346,2.346,0,0,0,1.619-.576v-1.055a3.166,3.166,0,0,0-1.571-.372c-.875,0-1.415.4-1.415,1.008C80.643,422.962,81.194,423.37,82.01,423.37Z"/>
    <path class="cls-9" d="M86.187,418.045h1.2v.611a2.518,2.518,0,0,1,1.835-.731,2.279,2.279,0,0,1,2.387,2.386v3.838h-1.2v-3.633a1.421,1.421,0,0,0-1.512-1.547,1.725,1.725,0,0,0-1.511.791v4.389h-1.2Z"/>
    <path class="cls-9" d="M97.548,422.459l.72.779a3.377,3.377,0,0,1-2.411,1.02,3.167,3.167,0,0,1,0-6.333,3.469,3.469,0,0,1,2.459,1.019l-.756.816a2.267,2.267,0,0,0-1.679-.768,2.108,2.108,0,0,0,.024,4.21A2.225,2.225,0,0,0,97.548,422.459Z"/>
    <path class="cls-9" d="M101.929,424.258a3.142,3.142,0,0,1-3.2-3.166,3.067,3.067,0,0,1,3.059-3.143,3.024,3.024,0,0,1,2.95,3.191v.347H99.914a2.059,2.059,0,0,0,2.063,1.751,2.371,2.371,0,0,0,1.547-.54l.768.756A3.64,3.64,0,0,1,101.929,424.258Zm-2-3.67h3.622a1.821,1.821,0,0,0-3.622,0Z"/>
  </g>
  <line class="cls-14" x1="119.157" y1="132.778" x2="214.835" y2="132.778"/>
  <line class="cls-14" x1="119.157" y1="159.876" x2="214.835" y2="159.876"/>
  <line class="cls-15" x1="119.157" y1="186.973" x2="214.835" y2="186.973"/>
  <line class="cls-16" x1="119.157" y1="250.395" x2="214.835" y2="250.395"/>
  <line class="cls-16" x1="119.157" y1="277.493" x2="214.835" y2="277.493"/>
  <line class="cls-15" x1="119.157" y1="304.59" x2="214.835" y2="304.59"/>
  <line class="cls-17" x1="119.157" y1="367.012" x2="214.835" y2="367.012"/>
  <line class="cls-17" x1="119.157" y1="394.11" x2="214.835" y2="394.11"/>
  <line class="cls-15" x1="119.157" y1="421.207" x2="214.835" y2="421.207"/>
  <polyline class="cls-14" points="252.003 131.778 281.657 131.778 281.657 159.876 252.003 159.876"/>
  <polyline class="cls-16" points="252.003 248.982 268.711 248.982 268.711 277.079 252.003 277.079"/>
  <polyline class="cls-15" points="251.62 186.973 281.657 186.973 281.657 304.59 251.62 304.59"/>
  <polyline class="cls-15" points="251.62 304.59 281.657 304.59 281.657 421.207 251.62 421.207"/>
  <polyline class="cls-17" points="252.003 366.185 268.711 366.185 268.711 394.283 252.003 394.283"/>
  <line class="cls-18" x1="379.016" y1="217.242" x2="417.892" y2="217.242"/>
  <g>
    <path class="cls-19" d="M407.892,237h39.524V197.48H407.892Zm31.95-7.589a.637.637,0,0,1-.9.032l-7.107-7.108-1.213,1.264-1.213-4.537,4.538,1.213-1.213,1.212,7.107,7.057A.635.635,0,0,1,439.842,229.406Zm-10.279-14.963,7.107-7.108-1.213-1.213,4.538-1.2-1.213,4.537-1.213-1.213-7.107,7.108a.642.642,0,1,1-.9-.916Zm-3.809,5.606-7.107,7.107,1.213,1.213-4.538,1.213,1.213-4.537,1.213,1.246,7.107-7.107v-.034a.636.636,0,0,1,.9.9Zm-10.288-14.972a.637.637,0,0,1,.9-.032l7.108,7.108,1.213-1.2,1.213,4.538-4.538-1.213,1.2-1.213-7.1-7.116A.637.637,0,0,1,415.466,205.077Z"/>
    <path class="cls-20" d="M432.735,221.482l1.213-1.212-4.538-1.213,1.213,4.537,1.213-1.264,7.107,7.108a.636.636,0,0,0,.9-.9Z"/>
    <path class="cls-20" d="M424.855,219.15v.034l-7.107,7.107-1.213-1.246-1.213,4.537,4.538-1.213-1.213-1.213,7.107-7.107a.636.636,0,0,0-.9-.9Z"/>
    <path class="cls-20" d="M430.012,215.545a.638.638,0,0,0,.45-.186l7.107-7.108,1.213,1.213L440,204.927l-4.538,1.2,1.213,1.213-7.107,7.108a.635.635,0,0,0,.449,1.1Z"/>
    <path class="cls-20" d="M422.565,213.06l-1.2,1.213,4.538,1.213-1.213-4.538-1.213,1.2-7.108-7.108a.636.636,0,0,0-.9.9Z"/>
    <path class="cls-20" d="M448.264,195.783h-41.22a.849.849,0,0,0-.848.849v41.22a.848.848,0,0,0,.848.848h41.22a.848.848,0,0,0,.848-.848v-41.22A.848.848,0,0,0,448.264,195.783ZM447.416,237H407.892V197.48h39.524Z"/>
  </g>
  <line class="cls-18" x1="428.41" y1="196.816" x2="428.41" y2="159.876"/>
  <rect class="cls-18" x="214.835" y="53.045" width="164.181" height="397.155"/>
</svg>
