<svg id="Layer_1" data-name="Layer 1" xmlns="http://www.w3.org/2000/svg" width="256.777mm" height="204.534mm" viewBox="0 0 727.872 579.78">
  <defs>
    <style>
      .cls-1, .cls-2, .cls-3 {
        fill: none;
        stroke: #b4b4b4;
        stroke-linecap: round;
        stroke-linejoin: round;
        stroke-width: 1.5px;
      }

      .cls-2 {
        stroke-dasharray: 2.998 2.998;
      }

      .cls-3 {
        stroke-dasharray: 3.006 3.006;
      }

      .cls-4 {
        fill: #f0f0f0;
      }

      .cls-5 {
        fill: #06c;
      }

      .cls-10, .cls-6, .cls-8, .cls-9 {
        fill: #5b5b5b;
      }

      .cls-7 {
        fill: #fff;
      }

      .cls-10, .cls-8, .cls-9 {
        stroke: #5b5b5b;
        stroke-miterlimit: 10;
      }

      .cls-8 {
        stroke-width: 0.75px;
      }

      .cls-9 {
        stroke-width: 0.5px;
      }

      .cls-10 {
        stroke-width: 2px;
      }

      .cls-11 {
        fill: #151515;
      }
    </style>
  </defs>
  <g>
    <polyline class="cls-1" points="164.872 430.895 164.872 432.395 163.372 432.395"/>
    <line class="cls-2" x1="160.374" y1="432.395" x2="23.96" y2="432.395"/>
    <polyline class="cls-1" points="22.461 432.395 20.961 432.395 20.961 430.895"/>
    <line class="cls-3" x1="20.961" y1="427.889" x2="20.961" y2="20.622"/>
    <polyline class="cls-1" points="20.961 19.119 20.961 17.619 22.461 17.619"/>
    <line class="cls-2" x1="25.459" y1="17.619" x2="161.873" y2="17.619"/>
    <polyline class="cls-1" points="163.372 17.619 164.872 17.619 164.872 19.119"/>
    <line class="cls-3" x1="164.872" y1="22.125" x2="164.872" y2="429.392"/>
  </g>
  <g>
    <polyline class="cls-1" points="709.683 430.895 709.683 432.395 708.183 432.395"/>
    <line class="cls-2" x1="705.185" y1="432.395" x2="568.771" y2="432.395"/>
    <polyline class="cls-1" points="567.272 432.395 565.772 432.395 565.772 430.895"/>
    <line class="cls-3" x1="565.772" y1="427.889" x2="565.772" y2="20.622"/>
    <polyline class="cls-1" points="565.772 19.119 565.772 17.619 567.272 17.619"/>
    <line class="cls-2" x1="570.27" y1="17.619" x2="706.684" y2="17.619"/>
    <polyline class="cls-1" points="708.183 17.619 709.683 17.619 709.683 19.119"/>
    <line class="cls-3" x1="709.683" y1="22.125" x2="709.683" y2="429.392"/>
  </g>
  <g>
    <rect class="cls-4" x="222.228" y="338.083" width="103" height="84"/>
    <path class="cls-5" d="M324.728,338.583v83h-102v-83h102m1-1h-104v85h104v-85Z"/>
  </g>
  <g>
    <rect class="cls-4" x="40.228" y="175.083" width="103" height="84"/>
    <path class="cls-5" d="M142.728,175.583v83h-102v-83h102m1-1h-104v85h104v-85Z"/>
  </g>
  <g>
    <rect class="cls-4" x="222.228" y="175.083" width="103" height="84"/>
    <path class="cls-5" d="M324.728,175.583v83h-102v-83h102m1-1h-104v85h104v-85Z"/>
  </g>
  <g>
    <rect class="cls-4" x="404.228" y="175.083" width="103" height="84"/>
    <path class="cls-5" d="M506.728,175.583v83h-102v-83h102m1-1h-104v85h104v-85Z"/>
  </g>
  <g>
    <rect class="cls-4" x="586.228" y="175.083" width="103" height="84"/>
    <path class="cls-5" d="M688.728,175.583v83h-102v-83h102m1-1h-104v85h104v-85Z"/>
  </g>
  <g>
    <path class="cls-6" d="M84.233,212.547c-.773,0-1.546,0-2.319,0a.465.465,0,0,0-.52.343,4.08,4.08,0,0,1-2.322,2.385,3.946,3.946,0,0,1-1.96.219,3.783,3.783,0,0,1-3.3-2.54,4.009,4.009,0,0,1,2.066-5.153,4.077,4.077,0,0,1,4.58.792,4.029,4.029,0,0,1,.944,1.5.41.41,0,0,0,.449.317c.606,0,1.213,0,1.82,0,.958,0,1.917-.015,2.875,0a.478.478,0,0,0,.521-.392,12.991,12.991,0,0,1,.539-1.317.4.4,0,0,0-.079-.541q-2.651-2.638-5.293-5.286c-.8-.795-1.595-1.584-2.378-2.392a.481.481,0,0,0-.637-.118,4.037,4.037,0,0,1-4.6-.917,3.9,3.9,0,0,1-1.037-3.292,3.794,3.794,0,0,1,2.787-3.342,3.975,3.975,0,0,1,4.912,2.162,3.866,3.866,0,0,1,.016,3.287.54.54,0,0,0,.153.708q3.444,3.422,6.872,6.858c.256.256.518.506.765.77a.392.392,0,0,0,.54.078,13.256,13.256,0,0,1,1.317-.537c.244-.088.395-.189.393-.49-.014-1.555-.01-3.11-.006-4.666a.472.472,0,0,0-.349-.519A3.943,3.943,0,0,1,88.47,197.7a3.986,3.986,0,0,1,.25-2.746,3.817,3.817,0,0,1,2.709-2.22,3.971,3.971,0,0,1,4.649,2.229,4.029,4.029,0,0,1-2.294,5.524.415.415,0,0,0-.312.456q0,1.233,0,2.465c0,.753.011,1.507-.005,2.26-.007.286.139.39.372.476.454.168.909.339,1.345.546a.384.384,0,0,0,.517-.068q2.494-2.5,5-5c.885-.884,1.763-1.776,2.66-2.649a.521.521,0,0,0,.141-.709,3.657,3.657,0,0,1-.238-2.547,3.856,3.856,0,0,1,2.187-2.7,4.1,4.1,0,0,1,4.7.842,3.909,3.909,0,0,1,1.073,3.337,3.814,3.814,0,0,1-2.787,3.34,3.758,3.758,0,0,1-2.824-.152.5.5,0,0,0-.663.116q-3.814,3.839-7.651,7.655a.425.425,0,0,0-.073.589,11.539,11.539,0,0,1,.524,1.293c.088.245.194.388.495.385,1.526-.015,3.052-.008,4.578-.006.288,0,.484-.034.617-.381a4.007,4.007,0,0,1,2.232-2.316,3.957,3.957,0,0,1,2.07-.245,3.759,3.759,0,0,1,3.261,2.545,4.006,4.006,0,0,1-2.081,5.147,4.083,4.083,0,0,1-4.556-.787,4.028,4.028,0,0,1-.96-1.523.409.409,0,0,0-.46-.3q-1.145,0-2.289,0c-.8,0-1.6.014-2.406-.007-.3-.008-.409.132-.5.379-.168.455-.345.907-.552,1.344a.388.388,0,0,0,.078.518q2.649,2.64,5.291,5.287c.8.8,1.609,1.6,2.4,2.41a.464.464,0,0,0,.613.113,4.045,4.045,0,0,1,4.56.861,3.917,3.917,0,0,1,1.079,3.391,3.776,3.776,0,0,1-2.768,3.292,3.953,3.953,0,0,1-4.686-1.71,3.878,3.878,0,0,1-.261-3.724.526.526,0,0,0-.116-.688q-3.85-3.823-7.678-7.67a.385.385,0,0,0-.516-.074,13.562,13.562,0,0,1-1.316.54c-.257.092-.411.2-.408.51.015,1.555.01,3.11.009,4.666a.455.455,0,0,0,.337.5,3.933,3.933,0,0,1,2.53,2.8,3.991,3.991,0,0,1-.612,3.354,3.784,3.784,0,0,1-2.314,1.586,4.081,4.081,0,0,1-3.378-.627,3.813,3.813,0,0,1-1.567-2.3,3.967,3.967,0,0,1,1.992-4.555,6.817,6.817,0,0,0,.655-.314.581.581,0,0,0,.209-.4c.024-.566.012-1.134.013-1.7,0-1.007-.009-2.015.007-3.022.005-.3-.15-.4-.393-.489a10.771,10.771,0,0,1-1.292-.523.421.421,0,0,0-.587.082q-2.225,2.235-4.457,4.461c-1.079,1.079-2.154,2.161-3.238,3.234a.4.4,0,0,0-.1.536,3.777,3.777,0,0,1,.272,2.63,3.863,3.863,0,0,1-2.208,2.719,4.105,4.105,0,0,1-4.67-.843,3.914,3.914,0,0,1-1.082-3.361,4.039,4.039,0,0,1,5.657-3.154.444.444,0,0,0,.589-.1q3.838-3.857,7.692-7.7a.411.411,0,0,0,.068-.565,11.171,11.171,0,0,1-.524-1.293c-.092-.26-.207-.4-.518-.394C85.779,212.562,85.006,212.547,84.233,212.547Zm8.177-4.372a3.338,3.338,0,0,0-3.336,3.213,3.328,3.328,0,0,0,6.654.195A3.321,3.321,0,0,0,92.41,208.175Zm0,19.928a1.82,1.82,0,0,0,1.835-1.852,1.844,1.844,0,1,0-3.687.075A1.818,1.818,0,0,0,92.409,228.1Zm0-33.251a1.81,1.81,0,0,0-1.854,1.863,1.844,1.844,0,0,0,3.688-.038A1.83,1.83,0,0,0,92.411,194.852ZM77.6,213.3a1.818,1.818,0,0,0,1.844-1.846,1.843,1.843,0,1,0-3.686.058A1.822,1.822,0,0,0,77.6,213.3Zm31.432-1.825a1.824,1.824,0,0,0-1.817-1.842,1.842,1.842,0,0,0-.027,3.684A1.82,1.82,0,0,0,109.028,211.477Zm0-14.8a1.836,1.836,0,0,0-1.81-1.847,1.842,1.842,0,1,0-.009,3.684A1.822,1.822,0,0,0,109.027,196.678Zm0,29.586a1.826,1.826,0,0,0-1.805-1.824,1.9,1.9,0,0,0-1.866,1.875,1.926,1.926,0,0,0,1.814,1.808A1.829,1.829,0,0,0,109.028,226.264ZM77.6,194.855a1.822,1.822,0,0,0-1.848,1.869,1.847,1.847,0,0,0,3.693-.086A1.838,1.838,0,0,0,77.6,194.855ZM77.574,228.1a1.83,1.83,0,0,0,1.871-1.817,1.848,1.848,0,1,0-3.695.041A1.833,1.833,0,0,0,77.574,228.1Z"/>
    <path class="cls-7" d="M92.41,208.175a3.321,3.321,0,0,1,3.318,3.408,3.328,3.328,0,0,1-6.654-.195A3.338,3.338,0,0,1,92.41,208.175Z"/>
    <path class="cls-7" d="M92.409,228.1a1.818,1.818,0,0,1-1.852-1.777,1.844,1.844,0,1,1,3.687-.075A1.82,1.82,0,0,1,92.409,228.1Z"/>
    <path class="cls-7" d="M92.411,194.852a1.83,1.83,0,0,1,1.834,1.825,1.844,1.844,0,0,1-3.688.038A1.81,1.81,0,0,1,92.411,194.852Z"/>
    <path class="cls-7" d="M77.6,213.3a1.822,1.822,0,0,1-1.842-1.788,1.843,1.843,0,1,1,3.686-.058A1.818,1.818,0,0,1,77.6,213.3Z"/>
    <path class="cls-7" d="M109.028,211.477a1.82,1.82,0,0,1-1.844,1.842,1.842,1.842,0,0,1,.027-3.684A1.824,1.824,0,0,1,109.028,211.477Z"/>
    <path class="cls-7" d="M109.027,196.678a1.822,1.822,0,0,1-1.819,1.837,1.842,1.842,0,1,1,.009-3.684A1.836,1.836,0,0,1,109.027,196.678Z"/>
    <path class="cls-7" d="M109.028,226.264a1.829,1.829,0,0,1-1.857,1.859,1.926,1.926,0,0,1-1.814-1.808,1.9,1.9,0,0,1,1.866-1.875A1.826,1.826,0,0,1,109.028,226.264Z"/>
    <path class="cls-7" d="M77.6,194.855a1.838,1.838,0,0,1,1.845,1.783,1.847,1.847,0,0,1-3.693.086A1.822,1.822,0,0,1,77.6,194.855Z"/>
    <path class="cls-7" d="M77.574,228.1a1.833,1.833,0,0,1-1.824-1.776,1.848,1.848,0,1,1,3.695-.041A1.83,1.83,0,0,1,77.574,228.1Z"/>
  </g>
  <g>
    <path class="cls-6" d="M629.561,214.151c-.773,0-1.546,0-2.319,0a.465.465,0,0,0-.52.343,4.08,4.08,0,0,1-2.322,2.385,3.946,3.946,0,0,1-1.96.219,3.783,3.783,0,0,1-3.3-2.54,4.009,4.009,0,0,1,2.066-5.153,4.077,4.077,0,0,1,4.58.792,4.029,4.029,0,0,1,.944,1.5.41.41,0,0,0,.449.317c.607,0,1.213,0,1.82,0,.958,0,1.917-.015,2.876.005.309.006.426-.131.52-.392a12.991,12.991,0,0,1,.539-1.317.4.4,0,0,0-.079-.541q-2.65-2.639-5.293-5.286c-.795-.8-1.6-1.584-2.378-2.392a.481.481,0,0,0-.637-.118,4.037,4.037,0,0,1-4.6-.917,3.9,3.9,0,0,1-1.037-3.292,3.794,3.794,0,0,1,2.787-3.342,3.975,3.975,0,0,1,4.912,2.162,3.866,3.866,0,0,1,.016,3.287.541.541,0,0,0,.153.708q3.444,3.421,6.872,6.858c.256.256.518.506.765.77a.392.392,0,0,0,.54.078,13.256,13.256,0,0,1,1.317-.537c.244-.088.395-.189.393-.49-.014-1.555-.009-3.11-.006-4.666a.472.472,0,0,0-.349-.519A3.943,3.943,0,0,1,633.8,199.3a3.986,3.986,0,0,1,.25-2.746,3.817,3.817,0,0,1,2.709-2.22,3.971,3.971,0,0,1,4.649,2.229,4.029,4.029,0,0,1-2.294,5.524.415.415,0,0,0-.312.456q0,1.231,0,2.465c0,.753.012,1.507,0,2.26-.007.286.139.39.372.476.454.168.909.339,1.345.546a.384.384,0,0,0,.517-.068q2.495-2.5,5-5c.885-.884,1.763-1.776,2.66-2.649a.521.521,0,0,0,.141-.709,3.657,3.657,0,0,1-.238-2.547,3.856,3.856,0,0,1,2.187-2.7,4.1,4.1,0,0,1,4.695.842,3.909,3.909,0,0,1,1.073,3.337,3.814,3.814,0,0,1-2.787,3.34,3.758,3.758,0,0,1-2.824-.152.5.5,0,0,0-.663.116q-3.814,3.839-7.651,7.655a.425.425,0,0,0-.073.589,11.352,11.352,0,0,1,.524,1.293c.088.245.194.388.5.385,1.526-.015,3.052-.008,4.578-.006.288,0,.484-.034.617-.381a4.007,4.007,0,0,1,2.232-2.316,3.959,3.959,0,0,1,2.07-.245,3.761,3.761,0,0,1,3.262,2.545,4.007,4.007,0,0,1-2.082,5.147,4.083,4.083,0,0,1-4.556-.787,4.028,4.028,0,0,1-.96-1.523.41.41,0,0,0-.46-.3q-1.144,0-2.289,0c-.8,0-1.6.014-2.406-.007-.3-.008-.409.132-.5.379-.168.454-.345.907-.552,1.344a.388.388,0,0,0,.078.518q2.649,2.638,5.291,5.287c.8.8,1.609,1.6,2.4,2.41a.464.464,0,0,0,.613.113,4.045,4.045,0,0,1,4.56.861,3.916,3.916,0,0,1,1.079,3.391,3.776,3.776,0,0,1-2.768,3.292,3.953,3.953,0,0,1-4.686-1.71,3.878,3.878,0,0,1-.261-3.724.526.526,0,0,0-.116-.688q-3.851-3.824-7.678-7.67a.385.385,0,0,0-.516-.074,13.562,13.562,0,0,1-1.316.54c-.257.092-.411.2-.408.509.015,1.556.01,3.111.009,4.667a.455.455,0,0,0,.338.5,3.932,3.932,0,0,1,2.529,2.8,3.991,3.991,0,0,1-.612,3.354,3.784,3.784,0,0,1-2.314,1.586,4.081,4.081,0,0,1-3.378-.627,3.813,3.813,0,0,1-1.567-2.295,3.967,3.967,0,0,1,1.992-4.555,6.817,6.817,0,0,0,.655-.314.581.581,0,0,0,.209-.4c.024-.566.013-1.134.013-1.7,0-1.007-.009-2.015.007-3.022,0-.3-.15-.4-.393-.489a10.771,10.771,0,0,1-1.292-.523.421.421,0,0,0-.587.082q-2.223,2.235-4.457,4.461c-1.079,1.079-2.154,2.161-3.237,3.234a.4.4,0,0,0-.1.536,3.777,3.777,0,0,1,.272,2.63,3.863,3.863,0,0,1-2.208,2.719,4.105,4.105,0,0,1-4.67-.843,3.914,3.914,0,0,1-1.082-3.361,4.039,4.039,0,0,1,5.657-3.154.444.444,0,0,0,.589-.1q3.839-3.857,7.692-7.7a.411.411,0,0,0,.068-.565,11.171,11.171,0,0,1-.524-1.293c-.092-.26-.207-.4-.518-.394C631.107,214.166,630.334,214.151,629.561,214.151Zm8.177-4.372a3.338,3.338,0,0,0-3.336,3.213,3.328,3.328,0,0,0,6.654.2A3.321,3.321,0,0,0,637.738,209.779Zm0,19.928a1.82,1.82,0,0,0,1.835-1.852,1.844,1.844,0,1,0-3.687.075A1.818,1.818,0,0,0,637.737,229.707Zm0-33.251a1.81,1.81,0,0,0-1.854,1.863,1.844,1.844,0,0,0,3.688-.038A1.83,1.83,0,0,0,637.739,196.456Zm-14.815,18.45a1.818,1.818,0,0,0,1.844-1.846,1.843,1.843,0,1,0-3.686.058A1.822,1.822,0,0,0,622.924,214.906Zm31.432-1.825a1.824,1.824,0,0,0-1.817-1.842,1.842,1.842,0,0,0-.027,3.684A1.82,1.82,0,0,0,654.356,213.081Zm0-14.8a1.836,1.836,0,0,0-1.81-1.847,1.842,1.842,0,1,0-.009,3.684A1.822,1.822,0,0,0,654.355,198.282Zm0,29.586a1.826,1.826,0,0,0-1.8-1.824,1.9,1.9,0,0,0-1.866,1.875,1.926,1.926,0,0,0,1.815,1.808A1.829,1.829,0,0,0,654.356,227.868Zm-31.429-31.409a1.822,1.822,0,0,0-1.848,1.869,1.847,1.847,0,0,0,3.693-.086A1.838,1.838,0,0,0,622.927,196.459ZM622.9,229.7a1.83,1.83,0,0,0,1.871-1.817,1.848,1.848,0,1,0-3.7.041A1.833,1.833,0,0,0,622.9,229.7Z"/>
    <path class="cls-7" d="M637.738,209.779a3.321,3.321,0,0,1,3.318,3.408,3.328,3.328,0,0,1-6.654-.2A3.338,3.338,0,0,1,637.738,209.779Z"/>
    <path class="cls-7" d="M637.737,229.707a1.818,1.818,0,0,1-1.852-1.777,1.844,1.844,0,1,1,3.687-.075A1.82,1.82,0,0,1,637.737,229.707Z"/>
    <path class="cls-7" d="M637.739,196.456a1.83,1.83,0,0,1,1.834,1.825,1.844,1.844,0,0,1-3.688.038A1.81,1.81,0,0,1,637.739,196.456Z"/>
    <path class="cls-7" d="M622.924,214.906a1.822,1.822,0,0,1-1.842-1.788,1.843,1.843,0,1,1,3.686-.058A1.818,1.818,0,0,1,622.924,214.906Z"/>
    <path class="cls-7" d="M654.356,213.081a1.82,1.82,0,0,1-1.844,1.842,1.842,1.842,0,0,1,.027-3.684A1.824,1.824,0,0,1,654.356,213.081Z"/>
    <path class="cls-7" d="M654.355,198.282a1.822,1.822,0,0,1-1.819,1.837,1.842,1.842,0,1,1,.009-3.684A1.836,1.836,0,0,1,654.355,198.282Z"/>
    <path class="cls-7" d="M654.356,227.868a1.829,1.829,0,0,1-1.856,1.859,1.926,1.926,0,0,1-1.815-1.808,1.9,1.9,0,0,1,1.866-1.875A1.826,1.826,0,0,1,654.356,227.868Z"/>
    <path class="cls-7" d="M622.927,196.459a1.838,1.838,0,0,1,1.845,1.783,1.847,1.847,0,0,1-3.693.086A1.822,1.822,0,0,1,622.927,196.459Z"/>
    <path class="cls-7" d="M622.9,229.7a1.833,1.833,0,0,1-1.824-1.776,1.848,1.848,0,1,1,3.7-.041A1.83,1.83,0,0,1,622.9,229.7Z"/>
  </g>
  <g>
    <polygon class="cls-7" points="269.918 385.8 271.281 385.8 271.281 385.188 272.097 385.188 272.097 383.956 269.102 383.956 269.102 385.188 269.918 385.188 269.918 385.8"/>
    <polygon class="cls-7" points="271.335 379.09 269.972 379.09 269.972 379.703 269.156 379.703 269.156 380.935 272.151 380.935 272.151 379.703 271.335 379.703 271.335 379.09"/>
    <polygon class="cls-7" points="263.923 385.188 263.923 385.8 265.287 385.8 265.287 385.188 266.102 385.188 266.102 383.956 263.107 383.956 263.107 385.188 263.923 385.188"/>
    <polygon class="cls-7" points="265.37 379.09 264.007 379.09 264.007 379.703 263.191 379.703 263.191 380.935 266.186 380.935 266.186 379.703 265.37 379.703 265.37 379.09"/>
    <polygon class="cls-7" points="258.013 385.8 259.376 385.8 259.376 385.188 260.191 385.188 260.191 383.956 257.197 383.956 257.197 385.188 258.013 385.188 258.013 385.8"/>
    <polygon class="cls-7" points="259.376 379.703 259.376 379.09 258.013 379.09 258.013 379.703 257.197 379.703 257.197 380.935 260.192 380.935 260.192 379.703 259.376 379.703"/>
    <polygon class="cls-7" points="275.882 385.8 277.246 385.8 277.246 385.188 278.061 385.188 278.061 383.956 275.066 383.956 275.066 385.188 275.882 385.188 275.882 385.8"/>
    <polygon class="cls-7" points="277.329 379.703 277.329 379.09 275.966 379.09 275.966 379.703 275.15 379.703 275.15 380.935 278.145 380.935 278.145 379.703 277.329 379.703"/>
    <path class="cls-7" d="M248.394,375.84v13.285H299.06V375.84Zm12.856,10.406h-.815v.612h-3.479v-.612h-.816V382.9h5.11Zm-5.111-4.254v-3.347h.816v-.612h3.479v.612h.816v3.347Zm11.021,4.254h-.816v.612h-3.478v-.612h-.816V382.9h5.11Zm.084-4.254h-5.11v-3.347h.815v-.612h3.479v.612h.816Zm5.91,4.254h-.816v.612H268.86v-.612h-.816V382.9h5.11Zm.055-4.254H268.1v-3.347h.816v-.612h3.479v.612h.816Zm5.91,4.254H278.3v.612h-3.48v-.612h-.816V382.9h5.111Zm.084-4.254h-5.111v-3.347h.816v-.612h3.479v.612h.816Zm5.91,4.254H284.3v.612h-3.48v-.612H280V382.9h5.11Zm0-4.254H280v-3.347h.815v-.612H284.3v.612h.816Zm11.783,4.849h-5.11v-3.348h.815v-.612h3.479v.612h.816Z"/>
    <polygon class="cls-7" points="281.876 385.8 283.24 385.8 283.24 385.188 284.055 385.188 284.055 383.956 281.061 383.956 281.061 385.188 281.876 385.188 281.876 385.8"/>
    <polygon class="cls-7" points="295.022 383.939 293.659 383.939 293.659 384.551 292.843 384.551 292.843 385.783 295.838 385.783 295.838 384.551 295.022 384.551 295.022 383.939"/>
    <polygon class="cls-7" points="291.374 371.039 257.323 371.039 250.855 373.79 296.994 373.79 291.374 371.039"/>
    <polygon class="cls-7" points="283.239 379.09 281.876 379.09 281.876 379.703 281.061 379.703 281.061 380.935 284.055 380.935 284.055 379.703 283.239 379.703 283.239 379.09"/>
    <path class="cls-6" d="M280,386.246h.815v.612h3.48v-.612h.815V382.9H280Zm1.058-2.29h2.994v1.232h-.815v.612h-1.364v-.612h-.815Z"/>
    <path class="cls-6" d="M300.374,373.413l-8.389-4.106a.925.925,0,0,0-.4-.091H257.138a.922.922,0,0,0-.358.071l-9.656,4.107a.9.9,0,0,0-.508,1.073.925.925,0,0,0-.047.235v15.336a.912.912,0,0,0,.913.912h52.492a.912.912,0,0,0,.912-.912V374.7a3.235,3.235,0,0,0-.512-1.288Zm-43.051-2.374h34.051l5.62,2.751H250.855Zm41.737,18.086H248.394V375.84H299.06v13.285h0Z"/>
    <path class="cls-6" d="M260.434,378.645v-.612h-3.479v.612h-.816v3.347h5.111v-3.347Zm-3.237,2.29V379.7h.816v-.613h1.363v.613h.816v1.232Z"/>
    <path class="cls-6" d="M266.428,378.033h-3.479v.612h-.815v3.347h5.11v-3.347h-.816Zm-.242,2.9h-3V379.7h.816v-.613h1.363v.613h.816Z"/>
    <path class="cls-6" d="M272.393,378.033h-3.479v.612H268.1v3.347h5.111v-3.347h-.816Zm-.242,2.9h-3V379.7h.816v-.613h1.363v.613h.816Z"/>
    <path class="cls-6" d="M278.387,378.033h-3.479v.612h-.816v3.347H279.2v-3.347h-.816Zm-3.237,2.9V379.7h.816v-.613h1.363v.613h.816v1.232Z"/>
    <path class="cls-6" d="M284.3,378.033h-3.479v.612H280v3.347h5.11v-3.347H284.3Zm-.242,2.9h-2.994V379.7h.815v-.613h1.363v.613h.816Z"/>
    <path class="cls-6" d="M296.08,382.881H292.6v.612h-.815v3.348h5.11v-3.348h-.816Zm-.242,2.9h-3v-1.232h.816v-.612h1.363v.612h.816Z"/>
    <path class="cls-6" d="M274.008,386.246h.816v.612h3.48v-.612h.815V382.9h-5.111Zm1.058-2.29h3v1.232h-.815v.612h-1.364v-.612h-.816Z"/>
    <path class="cls-6" d="M268.044,386.246h.816v.612h3.478v-.612h.816V382.9h-5.11Zm1.058-2.29h3v1.232h-.816v.612h-1.363v-.612H269.1Z"/>
    <path class="cls-6" d="M262.05,386.246h.816v.612h3.478v-.612h.816V382.9h-5.11Zm4.052-2.29v1.232h-.815v.612h-1.364v-.612h-.816v-1.232Z"/>
    <path class="cls-6" d="M256.14,386.246h.816v.612h3.479v-.612h.815V382.9h-5.11Zm1.057-2.29h2.994v1.232h-.815v.612h-1.363v-.612H257.2Z"/>
  </g>
  <g>
    <path class="cls-7" d="M257.054,229.749H290.4v-33.34H257.054Zm26.957-6.4a.537.537,0,0,1-.759.027l-6-6-1.024,1.067-1.023-3.829,3.829,1.023-1.024,1.024,6,5.954A.536.536,0,0,1,284.011,223.346Zm-8.673-12.625,6-6-1.024-1.023,3.829-1.009-1.024,3.829-1.023-1.024-6,6a.541.541,0,1,1-.758-.773Zm-3.213,4.73-6,6,1.023,1.023-3.828,1.024,1.023-3.829,1.023,1.052,6-6v-.028a.537.537,0,0,1,.759.758Zm-8.681-12.632a.537.537,0,0,1,.759-.027l6,6,1.023-1.016,1.023,3.828-3.828-1.023,1.016-1.023-5.99-6A.537.537,0,0,1,263.444,202.819Z"/>
    <path class="cls-8" d="M271.366,214.693v.028l-6,6-1.023-1.052-1.023,3.829,3.828-1.024-1.023-1.023,6-6a.537.537,0,0,0-.759-.758Z"/>
    <path class="cls-8" d="M275.717,211.651a.533.533,0,0,0,.379-.157l6-6,1.023,1.024,1.024-3.829-3.829,1.009,1.024,1.023-6,6a.536.536,0,0,0,.379.93Z"/>
    <path class="cls-8" d="M278.014,216.661l1.024-1.024-3.829-1.023,1.023,3.829,1.024-1.067,6,6a.537.537,0,0,0,.759-.758Z"/>
    <path class="cls-8" d="M269.434,209.555l-1.016,1.023,3.828,1.023-1.023-3.828-1.023,1.016-6-6a.537.537,0,0,0-.759.759Z"/>
    <path class="cls-8" d="M291.117,194.978H256.338a.715.715,0,0,0-.715.715v34.779a.716.716,0,0,0,.715.716h34.779a.717.717,0,0,0,.716-.716V195.693A.716.716,0,0,0,291.117,194.978Zm-.716,34.771H257.054v-33.34H290.4Z"/>
  </g>
  <g>
    <rect class="cls-7" x="255.84" y="39.186" width="35.775" height="34.641"/>
    <polygon class="cls-7" points="285.947 35.568 262.371 35.568 256.503 37.898 291.084 37.898 285.947 35.568"/>
    <rect class="cls-7" x="284.036" y="89.265" width="1.288" height="4.51"/>
    <rect class="cls-7" x="287.901" y="89.265" width="1.289" height="4.51"/>
    <path class="cls-7" d="M255.84,96.294h35.775v-9.38H255.84Zm31.417-7.351a.323.323,0,0,1,.323-.322h1.931a.323.323,0,0,1,.323.322V94.1a.323.323,0,0,1-.323.322H287.58a.323.323,0,0,1-.323-.322Zm-3.865,0a.322.322,0,0,1,.322-.322h1.932a.322.322,0,0,1,.323.322V94.1a.322.322,0,0,1-.323.322h-1.932a.322.322,0,0,1-.322-.322Zm-21.151,1.742a.886.886,0,1,1-.886.885A.885.885,0,0,1,262.241,90.685Zm-3.144,0a.886.886,0,1,1-.885.885A.885.885,0,0,1,259.1,90.685Z"/>
    <rect class="cls-7" x="255.84" y="75.116" width="35.775" height="10.497"/>
    <path class="cls-9" d="M259.1,92.456a.886.886,0,1,0-.885-.886A.885.885,0,0,0,259.1,92.456Z"/>
    <circle class="cls-9" cx="262.241" cy="91.57" r="0.886"/>
    <path class="cls-9" d="M287.58,94.419h1.931a.323.323,0,0,0,.323-.322V88.943a.323.323,0,0,0-.323-.322H287.58a.323.323,0,0,0-.323.322V94.1A.323.323,0,0,0,287.58,94.419Zm.321-5.154h1.289v4.51H287.9Z"/>
    <path class="cls-9" d="M283.714,94.419h1.932a.322.322,0,0,0,.323-.322V88.943a.322.322,0,0,0-.323-.322h-1.932a.322.322,0,0,0-.322.322V94.1A.322.322,0,0,0,283.714,94.419Zm.322-5.154h1.288v4.51h-1.288Z"/>
    <path class="cls-9" d="M291.792,36.8l-5.567-2.524h-24.1l-6.406,2.542a1.84,1.84,0,0,0-1.167,1.72v58.4a.644.644,0,0,0,.644.645h37.063a.645.645,0,0,0,.645-.645V38.528A1.9,1.9,0,0,0,291.792,36.8Zm-29.421-1.236h23.576l5.137,2.33H256.5Zm29.244,60.726H255.84v-9.38h35.775Zm0-10.681H255.84v-10.5h35.775Zm0-11.786H255.84V39.186h35.775Z"/>
  </g>
  <g>
    <rect class="cls-7" x="619.84" y="39.186" width="35.775" height="34.641"/>
    <polygon class="cls-7" points="649.947 35.568 626.371 35.568 620.503 37.898 655.084 37.898 649.947 35.568"/>
    <rect class="cls-7" x="648.036" y="89.265" width="1.288" height="4.51"/>
    <rect class="cls-7" x="651.901" y="89.265" width="1.289" height="4.51"/>
    <path class="cls-7" d="M619.84,96.294h35.775v-9.38H619.84Zm31.417-7.351a.323.323,0,0,1,.323-.322h1.931a.323.323,0,0,1,.323.322V94.1a.323.323,0,0,1-.323.322H651.58a.323.323,0,0,1-.323-.322Zm-3.865,0a.322.322,0,0,1,.322-.322h1.932a.322.322,0,0,1,.323.322V94.1a.322.322,0,0,1-.323.322h-1.932a.322.322,0,0,1-.322-.322Zm-21.151,1.742a.886.886,0,1,1-.886.885A.885.885,0,0,1,626.241,90.685Zm-3.144,0a.886.886,0,1,1-.885.885A.885.885,0,0,1,623.1,90.685Z"/>
    <rect class="cls-7" x="619.84" y="75.116" width="35.775" height="10.497"/>
    <path class="cls-9" d="M623.1,92.456a.886.886,0,1,0-.885-.886A.885.885,0,0,0,623.1,92.456Z"/>
    <circle class="cls-9" cx="626.241" cy="91.57" r="0.886"/>
    <path class="cls-9" d="M651.58,94.419h1.931a.323.323,0,0,0,.323-.322V88.943a.323.323,0,0,0-.323-.322H651.58a.323.323,0,0,0-.323.322V94.1A.323.323,0,0,0,651.58,94.419Zm.321-5.154h1.289v4.51H651.9Z"/>
    <path class="cls-9" d="M647.714,94.419h1.932a.322.322,0,0,0,.323-.322V88.943a.322.322,0,0,0-.323-.322h-1.932a.322.322,0,0,0-.322.322V94.1A.322.322,0,0,0,647.714,94.419Zm.322-5.154h1.288v4.51h-1.288Z"/>
    <path class="cls-9" d="M655.792,36.8l-5.567-2.524h-24.1l-6.406,2.542a1.84,1.84,0,0,0-1.167,1.72v58.4a.644.644,0,0,0,.644.645h37.063a.645.645,0,0,0,.645-.645V38.528A1.9,1.9,0,0,0,655.792,36.8Zm-29.421-1.236h23.576l5.137,2.33H620.5Zm29.244,60.726H619.84v-9.38h35.775Zm0-10.681H619.84v-10.5h35.775Zm0-11.786H619.84V39.186h35.775Z"/>
  </g>
  <g>
    <rect class="cls-7" x="619.84" y="353.338" width="35.775" height="34.641"/>
    <polygon class="cls-7" points="649.947 349.72 626.371 349.72 620.503 352.049 655.084 352.049 649.947 349.72"/>
    <rect class="cls-7" x="648.036" y="403.417" width="1.288" height="4.51"/>
    <rect class="cls-7" x="651.901" y="403.417" width="1.289" height="4.51"/>
    <path class="cls-7" d="M619.84,410.446h35.775v-9.38H619.84Zm31.417-7.351a.323.323,0,0,1,.323-.322h1.931a.323.323,0,0,1,.323.322v5.154a.323.323,0,0,1-.323.322H651.58a.323.323,0,0,1-.323-.322Zm-3.865,0a.322.322,0,0,1,.322-.322h1.932a.322.322,0,0,1,.323.322v5.154a.322.322,0,0,1-.323.322h-1.932a.322.322,0,0,1-.322-.322Zm-21.151,1.741a.886.886,0,1,1-.886.886A.886.886,0,0,1,626.241,404.836Zm-3.144,0a.886.886,0,1,1-.885.886A.886.886,0,0,1,623.1,404.836Z"/>
    <rect class="cls-7" x="619.84" y="389.267" width="35.775" height="10.497"/>
    <path class="cls-9" d="M623.1,406.608a.886.886,0,1,0-.885-.886A.885.885,0,0,0,623.1,406.608Z"/>
    <circle class="cls-9" cx="626.241" cy="405.722" r="0.886"/>
    <path class="cls-9" d="M651.58,408.571h1.931a.323.323,0,0,0,.323-.322V403.1a.323.323,0,0,0-.323-.322H651.58a.323.323,0,0,0-.323.322v5.154A.323.323,0,0,0,651.58,408.571Zm.321-5.154h1.289v4.51H651.9Z"/>
    <path class="cls-9" d="M647.714,408.571h1.932a.322.322,0,0,0,.323-.322V403.1a.322.322,0,0,0-.323-.322h-1.932a.322.322,0,0,0-.322.322v5.154A.322.322,0,0,0,647.714,408.571Zm.322-5.154h1.288v4.51h-1.288Z"/>
    <path class="cls-9" d="M655.792,350.955l-5.567-2.524h-24.1l-6.406,2.543a1.839,1.839,0,0,0-1.167,1.719v58.4a.644.644,0,0,0,.644.644h37.063a.644.644,0,0,0,.645-.644V352.68A1.9,1.9,0,0,0,655.792,350.955Zm-29.421-1.235h23.576l5.137,2.329H620.5Zm29.244,60.726H619.84v-9.38h35.775Zm0-10.681H619.84v-10.5h35.775Zm0-11.786H619.84V353.338h35.775Z"/>
  </g>
  <g>
    <rect class="cls-7" x="403.84" y="353.338" width="35.775" height="34.641"/>
    <polygon class="cls-7" points="433.947 349.72 410.371 349.72 404.503 352.049 439.084 352.049 433.947 349.72"/>
    <rect class="cls-7" x="432.036" y="403.417" width="1.288" height="4.51"/>
    <rect class="cls-7" x="435.901" y="403.417" width="1.289" height="4.51"/>
    <path class="cls-7" d="M403.84,410.446h35.775v-9.38H403.84Zm31.417-7.351a.323.323,0,0,1,.323-.322h1.931a.323.323,0,0,1,.323.322v5.154a.323.323,0,0,1-.323.322H435.58a.323.323,0,0,1-.323-.322Zm-3.865,0a.322.322,0,0,1,.322-.322h1.932a.322.322,0,0,1,.323.322v5.154a.322.322,0,0,1-.323.322h-1.932a.322.322,0,0,1-.322-.322Zm-21.151,1.741a.886.886,0,1,1-.886.886A.886.886,0,0,1,410.241,404.836Zm-3.144,0a.886.886,0,1,1-.885.886A.886.886,0,0,1,407.1,404.836Z"/>
    <rect class="cls-7" x="403.84" y="389.267" width="35.775" height="10.497"/>
    <path class="cls-9" d="M407.1,406.608a.886.886,0,1,0-.885-.886A.885.885,0,0,0,407.1,406.608Z"/>
    <circle class="cls-9" cx="410.241" cy="405.722" r="0.886"/>
    <path class="cls-9" d="M435.58,408.571h1.931a.323.323,0,0,0,.323-.322V403.1a.323.323,0,0,0-.323-.322H435.58a.323.323,0,0,0-.323.322v5.154A.323.323,0,0,0,435.58,408.571Zm.321-5.154h1.289v4.51H435.9Z"/>
    <path class="cls-9" d="M431.714,408.571h1.932a.322.322,0,0,0,.323-.322V403.1a.322.322,0,0,0-.323-.322h-1.932a.322.322,0,0,0-.322.322v5.154A.322.322,0,0,0,431.714,408.571Zm.322-5.154h1.288v4.51h-1.288Z"/>
    <path class="cls-9" d="M439.792,350.955l-5.567-2.524h-24.1l-6.406,2.543a1.839,1.839,0,0,0-1.167,1.719v58.4a.644.644,0,0,0,.644.644h37.063a.644.644,0,0,0,.645-.644V352.68A1.9,1.9,0,0,0,439.792,350.955Zm-29.421-1.235h23.576l5.137,2.329H404.5Zm29.244,60.726H403.84v-9.38h35.775Zm0-10.681H403.84v-10.5h35.775Zm0-11.786H403.84V353.338h35.775Z"/>
  </g>
  <g>
    <rect class="cls-7" x="73.84" y="353.338" width="35.775" height="34.641"/>
    <polygon class="cls-7" points="103.947 349.72 80.371 349.72 74.503 352.049 109.084 352.049 103.947 349.72"/>
    <rect class="cls-7" x="102.036" y="403.417" width="1.288" height="4.51"/>
    <rect class="cls-7" x="105.901" y="403.417" width="1.289" height="4.51"/>
    <path class="cls-7" d="M73.84,410.446h35.775v-9.38H73.84Zm31.417-7.351a.323.323,0,0,1,.323-.322h1.931a.323.323,0,0,1,.323.322v5.154a.323.323,0,0,1-.323.322H105.58a.323.323,0,0,1-.323-.322Zm-3.865,0a.322.322,0,0,1,.322-.322h1.932a.322.322,0,0,1,.323.322v5.154a.322.322,0,0,1-.323.322h-1.932a.322.322,0,0,1-.322-.322Zm-21.151,1.741a.886.886,0,1,1-.886.886A.886.886,0,0,1,80.241,404.836Zm-3.144,0a.886.886,0,1,1-.885.886A.886.886,0,0,1,77.1,404.836Z"/>
    <rect class="cls-7" x="73.84" y="389.267" width="35.775" height="10.497"/>
    <path class="cls-9" d="M77.1,406.608a.886.886,0,1,0-.885-.886A.885.885,0,0,0,77.1,406.608Z"/>
    <circle class="cls-9" cx="80.241" cy="405.722" r="0.886"/>
    <path class="cls-9" d="M105.58,408.571h1.931a.323.323,0,0,0,.323-.322V403.1a.323.323,0,0,0-.323-.322H105.58a.323.323,0,0,0-.323.322v5.154A.323.323,0,0,0,105.58,408.571Zm.321-5.154h1.289v4.51H105.9Z"/>
    <path class="cls-9" d="M101.714,408.571h1.932a.322.322,0,0,0,.323-.322V403.1a.322.322,0,0,0-.323-.322h-1.932a.322.322,0,0,0-.322.322v5.154A.322.322,0,0,0,101.714,408.571Zm.322-5.154h1.288v4.51h-1.288Z"/>
    <path class="cls-9" d="M109.792,350.955l-5.567-2.524h-24.1l-6.406,2.543a1.839,1.839,0,0,0-1.167,1.719v58.4a.644.644,0,0,0,.644.644h37.063a.644.644,0,0,0,.645-.644V352.68A1.9,1.9,0,0,0,109.792,350.955ZM80.371,349.72h23.576l5.137,2.329H74.5Zm29.244,60.726H73.84v-9.38h35.775Zm0-10.681H73.84v-10.5h35.775Zm0-11.786H73.84V353.338h35.775Z"/>
  </g>
  <g>
    <rect class="cls-7" x="255.84" y="503.338" width="35.775" height="34.641"/>
    <polygon class="cls-7" points="285.947 499.72 262.371 499.72 256.503 502.049 291.084 502.049 285.947 499.72"/>
    <rect class="cls-7" x="284.036" y="553.417" width="1.288" height="4.51"/>
    <rect class="cls-7" x="287.901" y="553.417" width="1.289" height="4.51"/>
    <path class="cls-7" d="M255.84,560.446h35.775v-9.38H255.84Zm31.417-7.351a.323.323,0,0,1,.323-.322h1.931a.323.323,0,0,1,.323.322v5.154a.323.323,0,0,1-.323.322H287.58a.323.323,0,0,1-.323-.322Zm-3.865,0a.322.322,0,0,1,.322-.322h1.932a.322.322,0,0,1,.323.322v5.154a.322.322,0,0,1-.323.322h-1.932a.322.322,0,0,1-.322-.322Zm-21.151,1.741a.886.886,0,1,1-.886.886A.886.886,0,0,1,262.241,554.836Zm-3.144,0a.886.886,0,1,1-.885.886A.886.886,0,0,1,259.1,554.836Z"/>
    <rect class="cls-7" x="255.84" y="539.267" width="35.775" height="10.497"/>
    <path class="cls-9" d="M259.1,556.608a.886.886,0,1,0-.885-.886A.885.885,0,0,0,259.1,556.608Z"/>
    <circle class="cls-9" cx="262.241" cy="555.722" r="0.886"/>
    <path class="cls-9" d="M287.58,558.571h1.931a.323.323,0,0,0,.323-.322V553.1a.323.323,0,0,0-.323-.322H287.58a.323.323,0,0,0-.323.322v5.154A.323.323,0,0,0,287.58,558.571Zm.321-5.154h1.289v4.51H287.9Z"/>
    <path class="cls-9" d="M283.714,558.571h1.932a.322.322,0,0,0,.323-.322V553.1a.322.322,0,0,0-.323-.322h-1.932a.322.322,0,0,0-.322.322v5.154A.322.322,0,0,0,283.714,558.571Zm.322-5.154h1.288v4.51h-1.288Z"/>
    <path class="cls-9" d="M291.792,500.955l-5.567-2.524h-24.1l-6.406,2.543a1.839,1.839,0,0,0-1.167,1.719v58.4a.644.644,0,0,0,.644.644h37.063a.644.644,0,0,0,.645-.644V502.68A1.9,1.9,0,0,0,291.792,500.955Zm-29.421-1.235h23.576l5.137,2.329H256.5Zm29.244,60.726H255.84v-9.38h35.775Zm0-10.681H255.84v-10.5h35.775Zm0-11.786H255.84V503.338h35.775Z"/>
  </g>
  <g>
    <rect class="cls-7" x="73.84" y="39.186" width="35.775" height="34.641"/>
    <polygon class="cls-7" points="103.947 35.568 80.371 35.568 74.503 37.898 109.084 37.898 103.947 35.568"/>
    <rect class="cls-7" x="102.036" y="89.265" width="1.288" height="4.51"/>
    <rect class="cls-7" x="105.901" y="89.265" width="1.289" height="4.51"/>
    <path class="cls-7" d="M73.84,96.294h35.775v-9.38H73.84Zm31.417-7.351a.323.323,0,0,1,.323-.322h1.931a.323.323,0,0,1,.323.322V94.1a.323.323,0,0,1-.323.322H105.58a.323.323,0,0,1-.323-.322Zm-3.865,0a.322.322,0,0,1,.322-.322h1.932a.322.322,0,0,1,.323.322V94.1a.322.322,0,0,1-.323.322h-1.932a.322.322,0,0,1-.322-.322ZM80.241,90.685a.886.886,0,1,1-.886.885A.885.885,0,0,1,80.241,90.685Zm-3.144,0a.886.886,0,1,1-.885.885A.885.885,0,0,1,77.1,90.685Z"/>
    <rect class="cls-7" x="73.84" y="75.116" width="35.775" height="10.497"/>
    <path class="cls-9" d="M77.1,92.456a.886.886,0,1,0-.885-.886A.885.885,0,0,0,77.1,92.456Z"/>
    <circle class="cls-9" cx="80.241" cy="91.57" r="0.886"/>
    <path class="cls-9" d="M105.58,94.419h1.931a.323.323,0,0,0,.323-.322V88.943a.323.323,0,0,0-.323-.322H105.58a.323.323,0,0,0-.323.322V94.1A.323.323,0,0,0,105.58,94.419Zm.321-5.154h1.289v4.51H105.9Z"/>
    <path class="cls-9" d="M101.714,94.419h1.932a.322.322,0,0,0,.323-.322V88.943a.322.322,0,0,0-.323-.322h-1.932a.322.322,0,0,0-.322.322V94.1A.322.322,0,0,0,101.714,94.419Zm.322-5.154h1.288v4.51h-1.288Z"/>
    <path class="cls-9" d="M109.792,36.8l-5.567-2.524h-24.1l-6.406,2.542a1.84,1.84,0,0,0-1.167,1.72v58.4a.644.644,0,0,0,.644.645h37.063a.645.645,0,0,0,.645-.645V38.528A1.9,1.9,0,0,0,109.792,36.8ZM80.371,35.568h23.576l5.137,2.33H74.5Zm29.244,60.726H73.84v-9.38h35.775Zm0-10.681H73.84v-10.5h35.775Zm0-11.786H73.84V39.186h35.775Z"/>
  </g>
  <g>
    <polygon class="cls-7" points="438.416 203.908 432.025 207.124 479.43 207.124 473.039 203.908 438.416 203.908"/>
    <path class="cls-7" d="M473.54,215.339a2.247,2.247,0,0,1,2.244-2.245h5.725v-4.675H429.946v13.839h51.563v-4.675h-5.725A2.247,2.247,0,0,1,473.54,215.339Zm-39.784,4.243a.892.892,0,0,1-1.262-1.262.89.89,0,0,1,1.521.634A.914.914,0,0,1,433.756,219.582Zm0-3.618a.885.885,0,0,1-.627.265.895.895,0,0,1-.894-.893.914.914,0,0,1,.259-.628.928.928,0,0,1,1.262,0,.912.912,0,0,1,.259.628A.892.892,0,0,1,433.756,215.964Zm0-3.612a.89.89,0,0,1-1.262-1.256.928.928,0,0,1,1.262,0,.891.891,0,0,1,0,1.256Zm3.1,7.489a.89.89,0,1,1,.886-.887A.89.89,0,0,1,436.857,219.841Zm0-3.612a.89.89,0,1,1,.886-.893A.9.9,0,0,1,436.857,216.229Zm0-3.612a.89.89,0,1,1,.886-.893A.9.9,0,0,1,436.857,212.617Zm3.721,7.224a.89.89,0,0,1,0-1.78.89.89,0,1,1,0,1.78Zm0-3.612a.89.89,0,1,1,.893-.893A.89.89,0,0,1,440.578,216.229Zm0-3.612a.89.89,0,1,1,.893-.893A.89.89,0,0,1,440.578,212.617Zm3.729,7.224a.89.89,0,0,1,0-1.78.89.89,0,1,1,0,1.78Zm0-3.612a.89.89,0,1,1,.892-.893A.89.89,0,0,1,444.307,216.229Zm0-3.612a.89.89,0,1,1,.892-.893A.89.89,0,0,1,444.307,212.617Zm3.728,7.224a.89.89,0,1,1,.886-.887A.89.89,0,0,1,448.035,219.841Zm0-3.612a.89.89,0,1,1,0-1.78.89.89,0,0,1,0,1.78Zm0-3.612a.89.89,0,1,1,0-1.78.89.89,0,0,1,0,1.78Zm3.729,7.224a.89.89,0,1,1,.887-.887A.889.889,0,0,1,451.764,219.841Zm0-3.612a.89.89,0,1,1,0-1.78.89.89,0,0,1,0,1.78Zm0-3.612a.89.89,0,1,1,0-1.78.89.89,0,0,1,0,1.78Zm3.722,7.224a.89.89,0,0,1,0-1.78.89.89,0,1,1,0,1.78Zm0-3.612a.89.89,0,1,1,.894-.893A.889.889,0,0,1,455.486,216.229Zm0-3.612a.89.89,0,1,1,.894-.893A.889.889,0,0,1,455.486,212.617Zm3.727,7.224a.89.89,0,0,1,0-1.78.89.89,0,1,1,0,1.78Zm0-3.612a.89.89,0,1,1,.894-.893A.889.889,0,0,1,459.213,216.229Zm0-3.612a.89.89,0,1,1,.894-.893A.889.889,0,0,1,459.213,212.617Zm3.729,7.224a.89.89,0,1,1,.887-.887A.889.889,0,0,1,462.942,219.841Zm0-3.612a.89.89,0,1,1,0-1.78.89.89,0,0,1,0,1.78Zm0-3.612a.89.89,0,1,1,0-1.78.89.89,0,0,1,0,1.78Zm3.728,7.224a.89.89,0,1,1,.888-.887A.888.888,0,0,1,466.67,219.841Zm0-3.612a.89.89,0,1,1,0-1.78.89.89,0,0,1,0,1.78Zm0-3.612a.89.89,0,1,1,0-1.78.89.89,0,0,1,0,1.78Zm4.357,6.966a.9.9,0,0,1-1.262,0,.89.89,0,1,1,1.262-1.255.89.89,0,0,1,.259.628A.916.916,0,0,1,471.027,219.583Zm0-3.614a.914.914,0,0,1-.635.26.895.895,0,0,1-.886-.893.914.914,0,0,1,.259-.628.928.928,0,0,1,1.262,0,.9.9,0,0,1,0,1.261Zm0-3.617a.89.89,0,0,1-1.521-.628.89.89,0,0,1,1.521-.628.891.891,0,0,1,0,1.256Z"/>
    <path class="cls-7" d="M475.784,213.741a1.6,1.6,0,0,0,0,3.195h5.725v-3.195Z"/>
    <path class="cls-9" d="M428.827,207.335a.64.64,0,0,1,.107-.084A.629.629,0,0,0,428.827,207.335Z"/>
    <path class="cls-9" d="M428.7,207.543a.533.533,0,0,1,.057-.1A.594.594,0,0,0,428.7,207.543Z"/>
    <path class="cls-9" d="M482.517,207.248a.657.657,0,0,1,.113.088A.646.646,0,0,0,482.517,207.248Z"/>
    <path class="cls-9" d="M482.734,208.063a.645.645,0,0,1-.869.286l-2.435-1.225H432.025l-2.435,1.225a.645.645,0,0,1-.869-.286.633.633,0,0,1-.052-.376.6.6,0,0,0-.017.084v15.134a.646.646,0,0,0,.647.647h52.857a.647.647,0,0,0,.648-.646V207.771a.668.668,0,0,0-.02-.1A.642.642,0,0,1,482.734,208.063Zm-.578,8.873a.324.324,0,1,1,0,.647h-.647v4.675H429.946V208.419h51.563v4.675h.647a.324.324,0,1,1,0,.647h-.647v3.195Z"/>
    <path class="cls-9" d="M482.7,207.434a.653.653,0,0,1,.063.112A.618.618,0,0,0,482.7,207.434Z"/>
    <path class="cls-9" d="M482.758,207.546a.655.655,0,0,1,.026.126A.671.671,0,0,0,482.758,207.546Z"/>
    <path class="cls-9" d="M432.025,207.124l6.391-3.216h34.623l6.391,3.216h2.726a.633.633,0,0,1,.361.124.628.628,0,0,0-.07-.055l-8.962-4.511a.652.652,0,0,0-.291-.069H438.261a.659.659,0,0,0-.291.069l-8.962,4.511a.611.611,0,0,0-.074.058.629.629,0,0,1,.365-.127Z"/>
    <path class="cls-9" d="M428.669,207.687a.624.624,0,0,1,.029-.144A.594.594,0,0,0,428.669,207.687Z"/>
    <path class="cls-9" d="M482.63,207.336a.724.724,0,0,1,.065.1A.641.641,0,0,0,482.63,207.336Z"/>
    <path class="cls-9" d="M428.755,207.442a.646.646,0,0,1,.072-.107A.59.59,0,0,0,428.755,207.442Z"/>
    <path class="cls-9" d="M479.43,207.124l2.435,1.225a.632.632,0,0,0,.919-.677.418.418,0,0,0-.089-.238.724.724,0,0,0-.065-.1.657.657,0,0,0-.113-.088.633.633,0,0,0-.361-.124Z"/>
    <path class="cls-9" d="M428.721,208.063a.645.645,0,0,0,.869.286l2.435-1.225H429.3a.629.629,0,0,0-.365.127.425.425,0,0,0-.179.191.533.533,0,0,0-.057.1.624.624,0,0,0-.029.144A.633.633,0,0,0,428.721,208.063Z"/>
    <path class="cls-9" d="M474.187,215.339a1.6,1.6,0,0,1,1.6-1.6h5.725v-.647h-5.725a2.245,2.245,0,0,0,0,4.489h5.725v-.647h-5.725A1.6,1.6,0,0,1,474.187,215.339Z"/>
    <path class="cls-9" d="M482.156,217.583a.324.324,0,1,0,0-.647h-.647v.647Z"/>
    <path class="cls-9" d="M482.156,213.741a.324.324,0,1,0,0-.647h-.647v.647Z"/>
    <path class="cls-9" d="M432.494,214.708a.914.914,0,0,0-.259.628.895.895,0,0,0,.894.893.895.895,0,0,0,.886-.893.912.912,0,0,0-.259-.628A.928.928,0,0,0,432.494,214.708Z"/>
    <path class="cls-9" d="M444.307,214.449a.89.89,0,0,0,0,1.78.89.89,0,1,0,0-1.78Z"/>
    <path class="cls-9" d="M466.67,214.449a.89.89,0,1,0,.888.887A.888.888,0,0,0,466.67,214.449Z"/>
    <path class="cls-9" d="M451.764,214.449a.89.89,0,1,0,.887.887A.889.889,0,0,0,451.764,214.449Z"/>
    <path class="cls-9" d="M440.578,214.449a.89.89,0,0,0,0,1.78.89.89,0,1,0,0-1.78Z"/>
    <path class="cls-9" d="M448.035,214.449a.89.89,0,1,0,.886.887A.89.89,0,0,0,448.035,214.449Z"/>
    <path class="cls-9" d="M436.857,214.449a.89.89,0,1,0,.886.887A.89.89,0,0,0,436.857,214.449Z"/>
    <path class="cls-9" d="M462.942,214.449a.89.89,0,1,0,.887.887A.889.889,0,0,0,462.942,214.449Z"/>
    <path class="cls-9" d="M459.213,214.449a.89.89,0,0,0,0,1.78.89.89,0,1,0,0-1.78Z"/>
    <path class="cls-9" d="M455.486,214.449a.89.89,0,0,0,0,1.78.89.89,0,1,0,0-1.78Z"/>
    <path class="cls-9" d="M469.765,214.708a.914.914,0,0,0-.259.628.895.895,0,0,0,.886.893.892.892,0,0,0,.635-1.521A.928.928,0,0,0,469.765,214.708Z"/>
    <path class="cls-9" d="M432.494,211.1a.89.89,0,1,0,1.262,0A.928.928,0,0,0,432.494,211.1Z"/>
    <path class="cls-9" d="M455.486,210.837a.89.89,0,0,0,0,1.78.89.89,0,1,0,0-1.78Z"/>
    <path class="cls-9" d="M440.578,210.837a.89.89,0,0,0,0,1.78.89.89,0,1,0,0-1.78Z"/>
    <path class="cls-9" d="M466.67,210.837a.89.89,0,1,0,.888.887A.889.889,0,0,0,466.67,210.837Z"/>
    <path class="cls-9" d="M459.213,210.837a.89.89,0,0,0,0,1.78.89.89,0,1,0,0-1.78Z"/>
    <path class="cls-9" d="M436.857,210.837a.89.89,0,1,0,.886.887A.89.89,0,0,0,436.857,210.837Z"/>
    <path class="cls-9" d="M462.942,210.837a.89.89,0,1,0,.887.887A.889.889,0,0,0,462.942,210.837Z"/>
    <path class="cls-9" d="M448.035,210.837a.89.89,0,1,0,.886.887A.89.89,0,0,0,448.035,210.837Z"/>
    <path class="cls-9" d="M444.307,210.837a.89.89,0,1,0,.892.887A.885.885,0,0,0,444.307,210.837Z"/>
    <path class="cls-9" d="M451.764,210.837a.89.89,0,1,0,.887.887A.889.889,0,0,0,451.764,210.837Z"/>
    <path class="cls-9" d="M469.765,211.1a.914.914,0,0,0-.259.628.89.89,0,1,0,1.521-.628A.921.921,0,0,0,469.765,211.1Z"/>
    <path class="cls-9" d="M432.494,218.32a.89.89,0,1,0,1.262,0A.928.928,0,0,0,432.494,218.32Z"/>
    <path class="cls-9" d="M466.67,218.061a.89.89,0,1,0,0,1.78.89.89,0,0,0,0-1.78Z"/>
    <path class="cls-9" d="M451.764,218.061a.89.89,0,1,0,0,1.78.89.89,0,0,0,0-1.78Z"/>
    <path class="cls-9" d="M462.942,218.061a.89.89,0,1,0,0,1.78.89.89,0,0,0,0-1.78Z"/>
    <path class="cls-9" d="M440.578,218.061a.89.89,0,1,0,.893.893A.889.889,0,0,0,440.578,218.061Z"/>
    <path class="cls-9" d="M436.857,218.061a.89.89,0,1,0,.886.893A.9.9,0,0,0,436.857,218.061Z"/>
    <path class="cls-9" d="M444.307,218.061a.89.89,0,1,0,.892.893A.89.89,0,0,0,444.307,218.061Z"/>
    <path class="cls-9" d="M459.213,218.061a.89.89,0,1,0,.894.893A.889.889,0,0,0,459.213,218.061Z"/>
    <path class="cls-9" d="M455.486,218.061a.89.89,0,1,0,.894.893A.889.889,0,0,0,455.486,218.061Z"/>
    <path class="cls-9" d="M448.035,218.061a.89.89,0,1,0,0,1.78.89.89,0,0,0,0-1.78Z"/>
    <path class="cls-9" d="M469.765,218.32a.893.893,0,1,0,1.521.635.89.89,0,0,0-.259-.628A.921.921,0,0,0,469.765,218.32Z"/>
  </g>
  <line class="cls-10" x1="143.965" y1="215.848" x2="221.675" y2="215.848"/>
  <line class="cls-10" x1="325.375" y1="215.848" x2="403.085" y2="215.848"/>
  <line class="cls-10" x1="325.375" y1="380.083" x2="403.085" y2="380.083"/>
  <line class="cls-10" x1="273.728" y1="337.452" x2="273.728" y2="259.742"/>
  <line class="cls-10" x1="273.728" y1="500.426" x2="273.728" y2="422.717"/>
  <line class="cls-10" x1="273.728" y1="174.137" x2="273.728" y2="96.428"/>
  <line class="cls-10" x1="637.728" y1="174.137" x2="637.728" y2="96.428"/>
  <line class="cls-10" x1="91.728" y1="174.137" x2="91.728" y2="96.428"/>
  <line class="cls-10" x1="91.728" y1="348.47" x2="91.728" y2="258.742"/>
  <line class="cls-10" x1="637.728" y1="348.47" x2="637.728" y2="258.742"/>
  <line class="cls-10" x1="508.377" y1="215.848" x2="586.086" y2="215.848"/>
  <g>
    <path d="M81.041,240.819h1.44v3.539h4.173v-3.539h1.439v8.4H86.654v-3.6H82.481v3.6h-1.44Z"/>
    <path d="M91.2,246.78a1.294,1.294,0,0,0,1.32,1.439,1.515,1.515,0,0,0,1.319-.743v-4.27H95.2v6.009H93.843v-1a2.2,2.2,0,0,1-1.919,1.092,2.016,2.016,0,0,1-2.075-2.147v-3.958H91.2Z"/>
    <path d="M99.975,249.275a2.236,2.236,0,0,1-1.775-.84v.78H96.869V240.64l1.355-.228v3.6a2.34,2.34,0,0,1,1.847-.852,3.074,3.074,0,0,1-.1,6.117Zm-1.751-4.306v2.507a1.842,1.842,0,0,0,1.439.659,1.923,1.923,0,0,0,0-3.837A1.766,1.766,0,0,0,98.224,244.969Z"/>
  </g>
  <g>
    <path d="M255.535,240.819h3.73a2.559,2.559,0,0,1,2.807,2.543,2.387,2.387,0,0,1-1.655,2.3l1.763,3.55h-1.6l-1.619-3.358h-1.991v3.358h-1.44Zm1.44,1.212v2.674h2.171a1.343,1.343,0,1,0,0-2.674Z"/>
    <path d="M265.878,243.111a3.113,3.113,0,1,1-3.022,3.105A3,3,0,0,1,265.878,243.111Zm1.679,3.118a1.7,1.7,0,1,0-3.358,0,1.7,1.7,0,1,0,3.358,0Z"/>
    <path d="M271.627,246.78a1.293,1.293,0,0,0,1.319,1.439,1.513,1.513,0,0,0,1.319-.743v-4.27h1.356v6.009h-1.356v-1a2.2,2.2,0,0,1-1.919,1.092,2.015,2.015,0,0,1-2.074-2.147v-3.958h1.355Z"/>
    <path d="M278.035,244.286h-1.212v-1.08h1.212v-1.655l1.355-.288v1.943h1.68v1.08h-1.68v3.046c0,.588.228.816.84.816a2.508,2.508,0,0,0,.815-.144v1.139a4.258,4.258,0,0,1-1.163.168c-1.211,0-1.847-.575-1.847-1.679Z"/>
    <path d="M284.958,249.335a3.054,3.054,0,0,1-3.059-3.119,2.959,2.959,0,0,1,2.927-3.105,2.884,2.884,0,0,1,2.842,3.094v.336h-4.437a1.834,1.834,0,0,0,1.8,1.643,1.953,1.953,0,0,0,1.428-.564l.887.827A3.474,3.474,0,0,1,284.958,249.335Zm-1.7-3.622h3.13a1.645,1.645,0,0,0-1.571-1.5A1.612,1.612,0,0,0,283.255,245.713Z"/>
    <path d="M289.051,243.206h1.355v1.308a1.783,1.783,0,0,1,1.656-1.416,1.627,1.627,0,0,1,.587.12v1.187a1.93,1.93,0,0,0-.744-.143,1.649,1.649,0,0,0-1.5,1v3.958h-1.355Z"/>
  </g>
  <g>
    <path d="M441.667,240.819c1.583,0,2.651.888,2.651,2.208a2.012,2.012,0,0,1-1.343,1.858,2.1,2.1,0,0,1,1.631,1.991c0,1.392-1.116,2.339-2.771,2.339h-3.9v-8.4ZM439.377,242v2.351h2.147c.827,0,1.355-.456,1.355-1.176S442.351,242,441.524,242Zm3.777,4.749a1.309,1.309,0,0,0-1.487-1.283h-2.29v2.579h2.29A1.318,1.318,0,0,0,443.154,246.744Z"/>
    <path d="M446.121,243.206h1.356v1.308a1.782,1.782,0,0,1,1.655-1.416,1.628,1.628,0,0,1,.588.12v1.187a1.93,1.93,0,0,0-.744-.143,1.648,1.648,0,0,0-1.5,1v3.958h-1.356Z"/>
    <path d="M450.669,241.155a.846.846,0,0,1,1.692,0,.846.846,0,0,1-1.692,0Zm1.524,8.06h-1.356v-6.009h1.356Z"/>
    <path d="M458.155,248.411a2.31,2.31,0,0,1-1.847.864,3.074,3.074,0,0,1,.084-6.117,2.292,2.292,0,0,1,1.751.792v-3.31l1.355-.228v8.8h-1.343Zm-1.439-.276a1.8,1.8,0,0,0,1.427-.659v-2.531a1.867,1.867,0,0,0-1.427-.647,1.923,1.923,0,0,0,0,3.837Z"/>
    <path d="M460.905,246.205a2.9,2.9,0,0,1,2.807-3.047,2.262,2.262,0,0,1,1.763.816v-.768h1.344v6.213c0,1.547-1.008,2.4-2.832,2.4a5.226,5.226,0,0,1-2.41-.576l.48-1.007a4.1,4.1,0,0,0,1.871.515c1.007,0,1.535-.456,1.535-1.331V248.4a2.335,2.335,0,0,1-1.835.851A2.88,2.88,0,0,1,460.905,246.205Zm3.13,1.919a1.8,1.8,0,0,0,1.428-.66v-2.519a1.866,1.866,0,0,0-1.428-.647,1.792,1.792,0,0,0-1.787,1.907A1.817,1.817,0,0,0,464.035,248.124Z"/>
    <path d="M471.272,249.335a3.055,3.055,0,0,1-3.059-3.119,2.959,2.959,0,0,1,2.927-3.105,2.884,2.884,0,0,1,2.843,3.094v.336h-4.438a1.835,1.835,0,0,0,1.8,1.643,1.952,1.952,0,0,0,1.427-.564l.887.827A3.472,3.472,0,0,1,471.272,249.335Zm-1.7-3.622h3.13a1.644,1.644,0,0,0-1.571-1.5A1.613,1.613,0,0,0,469.569,245.713Z"/>
  </g>
  <g>
    <path d="M255.477,408.674A4.2,4.2,0,0,0,258.3,409.9c1.116,0,1.883-.563,1.883-1.331,0-.684-.408-.995-1.523-1.2l-1.547-.264c-1.451-.264-2.159-.983-2.159-2.135,0-1.511,1.211-2.518,3.094-2.518a5.614,5.614,0,0,1,3.371,1.091l-.732,1.079a4.354,4.354,0,0,0-2.687-.971c-1.007,0-1.667.5-1.667,1.188,0,.6.372.911,1.3,1.054l1.487.264c1.691.288,2.482,1.032,2.482,2.3,0,1.535-1.367,2.627-3.37,2.627a5.287,5.287,0,0,1-3.526-1.356Z"/>
    <path d="M263.768,410.965l-1.619-6.009h1.3L264.5,409.2l1.235-4.246h1.151l1.236,4.258,1.043-4.258h1.272l-1.619,6.009H267.51l-1.211-4.234-1.211,4.234Z"/>
    <path d="M271.389,402.905a.846.846,0,0,1,1.691,0,.846.846,0,0,1-1.691,0Zm1.523,8.06h-1.355v-6.009h1.355Z"/>
    <path d="M275.324,406.036h-1.211v-1.08h1.211V403.3l1.356-.288v1.943h1.679v1.08H276.68v3.046c0,.588.228.815.839.815a2.513,2.513,0,0,0,.816-.143v1.139a4.263,4.263,0,0,1-1.163.167c-1.212,0-1.848-.575-1.848-1.678Z"/>
    <path d="M283.758,409.225l.816.817a3.127,3.127,0,0,1-2.351,1.043,3.107,3.107,0,0,1,0-6.213,3.238,3.238,0,0,1,2.4,1.008l-.84.876a1.985,1.985,0,0,0-1.511-.708,1.927,1.927,0,0,0,.036,3.837A1.841,1.841,0,0,0,283.758,409.225Z"/>
    <path d="M285.74,402.389l1.356-.227v3.777A2.18,2.18,0,0,1,289,404.86a2.023,2.023,0,0,1,2.075,2.147v3.958h-1.356V407.39a1.293,1.293,0,0,0-1.319-1.438,1.54,1.54,0,0,0-1.307.72v4.293H285.74Z"/>
  </g>
  <g>
    <path d="M627.041,240.819h1.44v3.539h4.173v-3.539h1.439v8.4h-1.439v-3.6h-4.173v3.6h-1.44Z"/>
    <path d="M637.2,246.78a1.294,1.294,0,0,0,1.32,1.439,1.515,1.515,0,0,0,1.319-.743v-4.27H641.2v6.009h-1.355v-1a2.2,2.2,0,0,1-1.919,1.092,2.016,2.016,0,0,1-2.075-2.147v-3.958H637.2Z"/>
    <path d="M645.975,249.275a2.236,2.236,0,0,1-1.775-.84v.78h-1.332V240.64l1.356-.228v3.6a2.34,2.34,0,0,1,1.847-.852,3.074,3.074,0,0,1-.1,6.117Zm-1.751-4.306v2.507a1.839,1.839,0,0,0,1.439.659,1.923,1.923,0,0,0,0-3.837A1.766,1.766,0,0,0,644.224,244.969Z"/>
  </g>
  <g>
    <circle class="cls-11" cx="37.5" cy="35.891" r="10"/>
    <path class="cls-7" d="M38.7,39.676H37V33.735l-1.518.627v-1.5l2.145-.891H38.7Z"/>
  </g>
  <g>
    <circle class="cls-11" cx="582.446" cy="35.891" r="10"/>
    <path class="cls-7" d="M583.362,33.471h-4.181v-1.5H585.2V33.24l-3.1,6.436h-2.035Z"/>
  </g>
  <g>
    <circle class="cls-11" cx="273.728" cy="135.282" r="10"/>
    <path class="cls-7" d="M270.756,137.858l3.255-3.224a1.435,1.435,0,0,0,.518-1.023c0-.495-.484-.869-1.134-.869a2.655,2.655,0,0,0-1.947.946l-.946-1.155a4.23,4.23,0,0,1,2.949-1.266c1.639,0,2.728.892,2.728,2.234a2.689,2.689,0,0,1-1,1.991l-2.221,2.145,3.333-.01v1.441h-5.533Z"/>
  </g>
  <g>
    <circle class="cls-11" cx="273.728" cy="298.597" r="10"/>
    <path class="cls-7" d="M273.362,302.492a4.02,4.02,0,0,1-3.036-1.243l1.144-1.056a2.183,2.183,0,0,0,1.871.814c.835,0,1.385-.374,1.385-.946,0-.484-.395-.792-1.011-.792h-.991v-1.4h.815c.627,0,1-.319,1-.858s-.518-.946-1.211-.946a2.145,2.145,0,0,0-1.793.88l-1.155-1.045a4.043,4.043,0,0,1,3.014-1.342c1.684,0,2.85.913,2.85,2.222a1.862,1.862,0,0,1-1.452,1.761,1.785,1.785,0,0,1,1.65,1.661C276.443,301.535,275.156,302.492,273.362,302.492Z"/>
  </g>
  <g>
    <circle class="cls-11" cx="273.728" cy="461.572" r="10"/>
    <path class="cls-7" d="M275.942,462.188h.913v1.442h-.913v1.727h-1.694V463.63h-4.115v-1.4l3.829-4.576h1.98Zm-1.694,0V459.35l-2.355,2.838Z"/>
  </g>
  <g>
    <circle class="cls-11" cx="364.23" cy="380.083" r="10"/>
    <path class="cls-7" d="M361.461,376.167H366.5v1.441h-3.62l-.077,1.728a3.333,3.333,0,0,1,1.508-.353,2.338,2.338,0,0,1,2.6,2.344c0,1.6-1.275,2.662-3.168,2.662a4.219,4.219,0,0,1-2.816-1.034l1.012-1.177a2.829,2.829,0,0,0,1.892.748c.8,0,1.342-.44,1.342-1.111,0-.65-.6-1.122-1.419-1.122a2.634,2.634,0,0,0-1.287.363l-1.188-.353Z"/>
  </g>
  <g>
    <circle class="cls-11" cx="364.23" cy="215.848" r="10"/>
    <path class="cls-7" d="M360.862,215.9c0-2.464,1.5-4.1,3.74-4.1a3.643,3.643,0,0,1,2.343.836l-.979,1.211a2.148,2.148,0,0,0-1.5-.528c-1.254,0-1.925.946-1.925,2.64a2.4,2.4,0,0,1,1.969-1.089A2.369,2.369,0,0,1,367.1,217.2a2.64,2.64,0,0,1-2.85,2.553C362.226,219.755,360.862,218.2,360.862,215.9Zm1.782.957a1.647,1.647,0,0,0,1.518,1.441,1.156,1.156,0,0,0,1.277-1.067,1.085,1.085,0,0,0-1.211-1.045A2.141,2.141,0,0,0,362.644,216.861Z"/>
  </g>
</svg>
