<?xml version="1.0" encoding="UTF-8" standalone="no"?>
<svg
   xmlns:dc="http://purl.org/dc/elements/1.1/"
   xmlns:cc="http://creativecommons.org/ns#"
   xmlns:rdf="http://www.w3.org/1999/02/22-rdf-syntax-ns#"
   xmlns:svg="http://www.w3.org/2000/svg"
   xmlns="http://www.w3.org/2000/svg"
   xmlns:sodipodi="http://sodipodi.sourceforge.net/DTD/sodipodi-0.dtd"
   xmlns:inkscape="http://www.inkscape.org/namespaces/inkscape"
   inkscape:version="1.0 (4035a4f, 2020-05-01)"
   sodipodi:docname="ovn-controlplane.svg"
   version="1.1"
   viewBox="0 0 595.276 735.857"
   height="10.22in"
   width="8.268in"
   id="svg2">
  <metadata
     id="metadata386">
    <rdf:RDF>
      <cc:Work
         rdf:about="">
        <dc:format>image/svg+xml</dc:format>
        <dc:type
           rdf:resource="http://purl.org/dc/dcmitype/StillImage" />
        <dc:title></dc:title>
        <dc:subject>
          <rdf:Bag>
            <rdf:li>classroom_diagram</rdf:li>
            <rdf:li>vxlan-header</rdf:li>
            <rdf:li>networking-ovn-controlplane</rdf:li>
          </rdf:Bag>
        </dc:subject>
      </cc:Work>
    </rdf:RDF>
  </metadata>
  <sodipodi:namedview
     inkscape:current-layer="svg2"
     inkscape:window-maximized="0"
     inkscape:window-y="25"
     inkscape:window-x="0"
     inkscape:cy="490.56001"
     inkscape:cx="396.86398"
     inkscape:zoom="0.63119862"
     showgrid="false"
     id="namedview384"
     inkscape:window-height="480"
     inkscape:window-width="987"
     inkscape:pageshadow="2"
     inkscape:pageopacity="0"
     guidetolerance="10"
     gridtolerance="10"
     objecttolerance="10"
     borderopacity="1"
     bordercolor="#666666"
     pagecolor="#ffffff" />
  <defs
     id="defs12">
    <style
       id="style10">
      .cls-1 {
        fill: #e6e6e6;
      }

      .cls-2 {
        fill: #4c4c4c;
      }

      .cls-3 {
        fill: #fff;
      }

      .cls-4 {
        fill: #d2d2d2;
      }

      .cls-5 {
        fill: #8c8c8c;
      }

      .cls-6 {
        fill: #0088ce;
      }
    </style>
  </defs>
  <g
     id="g381">
    <path
       d="M272.766,705.583H29.353V482.868H272.766Z"
       class="cls-1"
       id="path12" />
    <g
       id="g14">
      <path
         d="M105.435,691.775v-4.5h-4.39v4.5H98.9V681.067h2.142v4.1h4.39v-4.1h2.142v10.708Z"
         class="cls-2"
         id="path16" />
    </g>
    <g
       id="g26">
      <path
         d="M115.484,687.538v4.237h-2.142v-4.192l-4.054-6.517h2.463l1.515,2.54c.383.643.963,1.7,1.163,2.1.2-.4.764-1.423,1.162-2.1l1.515-2.54h2.432Z"
         class="cls-2"
         id="path28" />
    </g>
    <g
       id="g30">
      <path
         d="M125.854,683.146h-2.463V685.9h2.494c.994,0,1.529-.459,1.529-1.392s-.611-1.362-1.56-1.362m-.108,4.834h-2.355v3.795h-2.142V681.067h4.682c2.019,0,3.685,1.116,3.685,3.4,0,2.478-1.651,3.517-3.87,3.517"
         class="cls-2"
         id="path32" />
    </g>
    <g
       id="g34">
      <path
         d="M131.65,691.775V681.067h7.435v2.1h-5.293v1.851h3.074v2.081h-3.074v2.585h5.522v2.1Z"
         class="cls-2"
         id="path36" />
    </g>
    <g
       id="g38">
      <path
         d="M146.533,683.146h-2.8V685.9h2.8c.994,0,1.53-.459,1.53-1.392,0-.963-.581-1.362-1.53-1.362m1.269,8.629-1.911-3.856h-2.158v3.856h-2.141V681.067h4.987c2.019,0,3.686,1.116,3.686,3.4a3.05,3.05,0,0,1-2.05,3.15l2.05,4.162Z"
         class="cls-2"
         id="path40" />
    </g>
    <g
       id="g42">
      <path
         d="M157.207,691.775h-2.08l-3.809-10.708h2.371l2.019,6.195c.2.6.413,1.376.506,1.759.091-.4.29-1.131.489-1.759l1.973-6.195h2.341Z"
         class="cls-2"
         id="path44" />
    </g>
    <path
       d="M163.156,681.067H165.3v10.708h-2.141Z"
       class="cls-2"
       id="path46" />
    <g
       id="g48">
      <path
         d="M171.844,691.943A4.967,4.967,0,0,1,167.683,690l1.546-1.377a3.465,3.465,0,0,0,2.738,1.224c1.27,0,1.866-.351,1.866-1.162,0-.689-.367-.995-2.386-1.454-1.973-.458-3.35-1.085-3.35-3.2,0-1.943,1.713-3.135,3.824-3.135a5.123,5.123,0,0,1,3.9,1.681l-1.545,1.5a3.267,3.267,0,0,0-2.433-1.1c-1.147,0-1.529.489-1.529.963,0,.673.459.887,2.156,1.286s3.58.978,3.58,3.3c0,2.035-1.285,3.412-4.207,3.412"
         class="cls-2"
         id="path50" />
    </g>
    <g
       id="g52">
      <path
         d="M182.324,683.024c-1.729,0-2.448,1.485-2.448,3.4s.719,3.4,2.448,3.4,2.447-1.485,2.447-3.4-.719-3.4-2.447-3.4m0,8.919c-2.923,0-4.651-2.264-4.651-5.523s1.728-5.521,4.651-5.521,4.65,2.263,4.65,5.521-1.729,5.523-4.65,5.523"
         class="cls-2"
         id="path54" />
    </g>
    <g
       id="g56">
      <path
         d="M194.1,683.146h-2.8V685.9h2.8c1,0,1.531-.459,1.531-1.392,0-.963-.582-1.362-1.531-1.362m1.27,8.629-1.912-3.856H191.3v3.856H189.16V681.067h4.986c2.019,0,3.687,1.116,3.687,3.4a3.05,3.05,0,0,1-2.05,3.15l2.05,4.162Z"
         class="cls-2"
         id="path58" />
    </g>
    <g
       id="g60">
      <path
         d="M201.135,691.775v-7.741H199.3v-1.576c1.193-.061,1.974-.5,2.187-1.391h1.775v10.708Z"
         class="cls-2"
         id="path62" />
    </g>
    <path
       d="M565.922,705.583H322.509V482.868H565.922Z"
       class="cls-1"
       id="path64" />
    <g
       id="g66">
      <path
         d="M397.07,691.775v-4.5h-4.39v4.5h-2.143V681.067h2.143v4.1h4.39v-4.1h2.141v10.708Z"
         class="cls-2"
         id="path68" />
    </g>
    <g
       id="g70">
      <path
         d="M407.119,687.538v4.237h-2.143v-4.192l-4.053-6.517h2.463l1.514,2.54c.383.643.964,1.7,1.164,2.1.2-.4.764-1.423,1.162-2.1l1.514-2.54h2.433Z"
         class="cls-2"
         id="path72" />
    </g>
    <g
       id="g74">
      <path
         d="M417.487,683.146h-2.462V685.9h2.493c1,0,1.529-.459,1.529-1.392s-.611-1.362-1.56-1.362m-.106,4.834h-2.356v3.795h-2.142V681.067h4.681c2.019,0,3.687,1.116,3.687,3.4,0,2.478-1.653,3.517-3.87,3.517"
         class="cls-2"
         id="path76" />
    </g>
    <g
       id="g78">
      <path
         d="M423.284,691.775V681.067h7.434v2.1h-5.291v1.851H428.5v2.081h-3.074v2.585h5.521v2.1Z"
         class="cls-2"
         id="path80" />
    </g>
    <g
       id="g82">
      <path
         d="M438.167,683.146h-2.8V685.9h2.8c.994,0,1.53-.459,1.53-1.392,0-.963-.582-1.362-1.53-1.362m1.27,8.629-1.912-3.856h-2.157v3.856h-2.142V681.067h4.987c2.019,0,3.686,1.116,3.686,3.4a3.05,3.05,0,0,1-2.049,3.15l2.049,4.162Z"
         class="cls-2"
         id="path84" />
    </g>
    <g
       id="g86">
      <path
         d="M448.841,691.775h-2.08l-3.81-10.708h2.372l2.019,6.195c.2.6.414,1.376.5,1.759.092-.4.29-1.131.489-1.759l1.974-6.195h2.34Z"
         class="cls-2"
         id="path88" />
    </g>
    <path
       d="M454.79,681.067h2.143v10.708H454.79Z"
       class="cls-2"
       id="path90" />
    <g
       id="g92">
      <path
         d="M463.478,691.943a4.964,4.964,0,0,1-4.16-1.943l1.545-1.377a3.467,3.467,0,0,0,2.739,1.224c1.268,0,1.866-.351,1.866-1.162,0-.689-.368-.995-2.387-1.454-1.973-.458-3.35-1.085-3.35-3.2,0-1.943,1.712-3.135,3.824-3.135a5.123,5.123,0,0,1,3.9,1.681l-1.545,1.5a3.267,3.267,0,0,0-2.433-1.1c-1.147,0-1.529.489-1.529.963,0,.673.459.887,2.157,1.286s3.579.978,3.579,3.3c0,2.035-1.285,3.412-4.207,3.412"
         class="cls-2"
         id="path94" />
    </g>
    <g
       id="g96">
      <path
         d="M473.958,683.024c-1.729,0-2.447,1.485-2.447,3.4s.718,3.4,2.447,3.4,2.447-1.485,2.447-3.4-.719-3.4-2.447-3.4m0,8.919c-2.921,0-4.651-2.264-4.651-5.523s1.73-5.521,4.651-5.521,4.649,2.263,4.649,5.521-1.728,5.523-4.649,5.523"
         class="cls-2"
         id="path98" />
    </g>
    <g
       id="g100">
      <path
         d="M485.735,683.146h-2.8V685.9h2.8c.994,0,1.53-.459,1.53-1.392,0-.963-.582-1.362-1.53-1.362m1.27,8.629-1.912-3.856h-2.157v3.856h-2.142V681.067h4.987c2.019,0,3.686,1.116,3.686,3.4a3.05,3.05,0,0,1-2.049,3.15l2.049,4.162Z"
         class="cls-2"
         id="path102" />
    </g>
    <g
       id="g104">
      <path
         d="M496.211,691.775V687.43c0-1.437-.489-1.866-1.362-1.866s-1.376.429-1.376,1.821v4.39h-2.111v-8.031h2.111v.535a2.635,2.635,0,0,1,1.881-.7c2.05,0,2.968,1.407,2.968,3.671v4.529Z"
         class="cls-2"
         id="path106" />
    </g>
    <path
       d="M403.971,306.275H191.3V28.538H403.971Z"
       class="cls-1"
       id="path108" />
    <g
       id="g124">
      <path
         d="M297.638,106.434a.881.881,0,0,1-.881-.881V102.91a.881.881,0,1,1,1.762,0v2.643a.881.881,0,0,1-.881.881"
         class="cls-2"
         id="path126" />
    </g>
    <g
       id="g128">
      <path
         d="M297.638,115.722a.881.881,0,0,1-.881-.881V110.2a.881.881,0,1,1,1.762,0v4.644a.881.881,0,0,1-.881.881m0,9.287a.88.88,0,0,1-.881-.881v-4.643a.881.881,0,1,1,1.762,0v4.643a.88.88,0,0,1-.881.881m0,9.289a.881.881,0,0,1-.881-.881v-4.644a.881.881,0,1,1,1.762,0v4.644a.881.881,0,0,1-.881.881"
         class="cls-2"
         id="path130" />
    </g>
    <g
       id="g132">
      <path
         d="M297.638,141.585a.88.88,0,0,1-.881-.881v-2.642a.881.881,0,1,1,1.762,0V140.7a.88.88,0,0,1-.881.881"
         class="cls-2"
         id="path134" />
    </g>
    <g
       id="g136">
      <path
         d="M297.638,198.075a.881.881,0,0,1-.881-.881v-2.643a.881.881,0,1,1,1.762,0v2.643a.881.881,0,0,1-.881.881"
         class="cls-2"
         id="path138" />
    </g>
    <g
       id="g140">
      <path
         d="M297.638,207.363a.881.881,0,0,1-.881-.881v-4.643a.881.881,0,1,1,1.762,0v4.643a.881.881,0,0,1-.881.881m0,9.288a.88.88,0,0,1-.881-.881v-4.644a.881.881,0,1,1,1.762,0v4.644a.88.88,0,0,1-.881.881m0,9.289a.881.881,0,0,1-.881-.881v-4.645a.881.881,0,0,1,1.762,0v4.645a.881.881,0,0,1-.881.881"
         class="cls-2"
         id="path142" />
    </g>
    <g
       id="g144">
      <path
         d="M297.638,233.227a.881.881,0,0,1-.881-.881V229.7a.881.881,0,0,1,1.762,0v2.643a.881.881,0,0,1-.881.881"
         class="cls-2"
         id="path146" />
    </g>
    <g
       id="g148">
      <path
         d="M297.638,288.571a.881.881,0,0,1-.881-.881v-2.643a.881.881,0,0,1,1.762,0v2.643a.881.881,0,0,1-.881.881"
         class="cls-2"
         id="path150" />
    </g>
    <g
       id="g152">
      <path
         d="M297.638,298.887a.881.881,0,0,1-.881-.881v-5.158a.881.881,0,0,1,1.762,0v5.158a.881.881,0,0,1-.881.881m0,10.315a.88.88,0,0,1-.881-.881v-5.157a.881.881,0,1,1,1.762,0v5.157a.88.88,0,0,1-.881.881m0,10.316a.88.88,0,0,1-.881-.881V313.48a.881.881,0,0,1,1.762,0v5.157a.88.88,0,0,1-.881.881m0,10.316a.88.88,0,0,1-.881-.881V323.8a.881.881,0,0,1,1.762,0v5.158a.88.88,0,0,1-.881.881m0,10.316a.88.88,0,0,1-.881-.881v-5.158a.881.881,0,1,1,1.762,0v5.158a.88.88,0,0,1-.881.881m0,10.315a.88.88,0,0,1-.881-.881v-5.157a.881.881,0,0,1,1.762,0v5.157a.88.88,0,0,1-.881.881"
         class="cls-2"
         id="path154" />
    </g>
    <g
       id="g156">
      <path
         d="M297.638,358.267a.88.88,0,0,1-.881-.881v-2.643a.881.881,0,1,1,1.762,0v2.643a.88.88,0,0,1-.881.881"
         class="cls-2"
         id="path158" />
    </g>
    <g
       id="g160">
      <path
         d="M296.363,414.313a.88.88,0,0,1-.881-.881v-2.643a.881.881,0,1,1,1.762,0v2.643a.88.88,0,0,1-.881.881"
         class="cls-2"
         id="path162" />
    </g>
    <g
       id="g164">
      <path
         d="M296.363,423.363a.88.88,0,0,1-.881-.88v-4.526a.881.881,0,1,1,1.762,0v4.526a.88.88,0,0,1-.881.88m0,9.051a.88.88,0,0,1-.881-.881v-4.525a.881.881,0,1,1,1.762,0v4.525a.88.88,0,0,1-.881.881m0,9.051a.88.88,0,0,1-.881-.881v-4.525a.881.881,0,0,1,1.762,0v4.525a.88.88,0,0,1-.881.881"
         class="cls-2"
         id="path166" />
    </g>
    <g
       id="g168">
      <path
         d="M296.363,448.633H293.72a.881.881,0,1,1,0-1.762h1.762v-1.762a.881.881,0,1,1,1.762,0v2.643a.88.88,0,0,1-.881.881"
         class="cls-2"
         id="path170" />
    </g>
    <g
       id="g172">
      <path
         d="M164.073,448.633h-5.186a.881.881,0,0,1,0-1.762h5.186a.881.881,0,0,1,0,1.762m10.372,0H169.26a.881.881,0,0,1,0-1.762h5.185a.881.881,0,0,1,0,1.762m10.372,0h-5.186a.881.881,0,0,1,0-1.762h5.186a.881.881,0,0,1,0,1.762m10.372,0H190a.881.881,0,0,1,0-1.762h5.186a.881.881,0,0,1,0,1.762m10.371,0h-5.185a.881.881,0,0,1,0-1.762h5.185a.881.881,0,0,1,0,1.762m10.373,0h-5.187a.881.881,0,0,1,0-1.762h5.187a.881.881,0,0,1,0,1.762m10.371,0h-5.186a.881.881,0,0,1,0-1.762H226.3a.881.881,0,0,1,0,1.762m10.371,0H231.49a.881.881,0,0,1,0-1.762h5.185a.881.881,0,0,1,0,1.762m10.373,0h-5.186a.881.881,0,0,1,0-1.762h5.186a.881.881,0,0,1,0,1.762m10.371,0h-5.186a.881.881,0,0,1,0-1.762h5.186a.881.881,0,1,1,0,1.762m10.372,0h-5.186a.881.881,0,0,1,0-1.762h5.186a.881.881,0,1,1,0,1.762m10.371,0h-5.185a.881.881,0,1,1,0-1.762h5.185a.881.881,0,1,1,0,1.762m10.373,0h-5.187a.881.881,0,1,1,0-1.762h5.187a.881.881,0,1,1,0,1.762"
         class="cls-2"
         id="path174" />
    </g>
    <g
       id="g176">
      <path
         d="M151.059,451.276a.881.881,0,0,1-.881-.881v-2.643a.881.881,0,0,1,.881-.881H153.7a.881.881,0,0,1,0,1.762H151.94V450.4a.88.88,0,0,1-.881.881"
         class="cls-2"
         id="path178" />
    </g>
    <g
       id="g180">
      <path
         d="M151.059,462.154a.881.881,0,0,1-.881-.881v-5.439a.881.881,0,1,1,1.762,0v5.439a.88.88,0,0,1-.881.881m0,10.878a.882.882,0,0,1-.881-.881v-5.439a.881.881,0,0,1,1.762,0v5.439a.881.881,0,0,1-.881.881m0,10.877a.881.881,0,0,1-.881-.881v-5.439a.881.881,0,0,1,1.762,0v5.439a.88.88,0,0,1-.881.881m0,10.878a.881.881,0,0,1-.881-.881v-5.439a.881.881,0,0,1,1.762,0v5.439a.88.88,0,0,1-.881.881"
         class="cls-2"
         id="path182" />
    </g>
    <g
       id="g184">
      <path
         d="M151.059,502.868a.881.881,0,0,1-.881-.881v-2.643a.881.881,0,0,1,1.762,0v2.643a.88.88,0,0,1-.881.881"
         class="cls-2"
         id="path186" />
    </g>
    <g
       id="g188">
      <path
         d="M296.363,414.313a.88.88,0,0,1-.881-.881v-2.643a.881.881,0,1,1,1.762,0v2.643a.88.88,0,0,1-.881.881"
         class="cls-2"
         id="path190" />
    </g>
    <g
       id="g192">
      <path
         d="M296.363,423.363a.88.88,0,0,1-.881-.88v-4.526a.881.881,0,1,1,1.762,0v4.526a.88.88,0,0,1-.881.88m0,9.051a.88.88,0,0,1-.881-.881v-4.525a.881.881,0,1,1,1.762,0v4.525a.88.88,0,0,1-.881.881m0,9.051a.88.88,0,0,1-.881-.881v-4.525a.881.881,0,0,1,1.762,0v4.525a.88.88,0,0,1-.881.881"
         class="cls-2"
         id="path194" />
    </g>
    <g
       id="g196">
      <path
         d="M299.006,448.633h-2.643a.88.88,0,0,1-.881-.881v-2.643a.881.881,0,1,1,1.762,0v1.762h1.762a.881.881,0,1,1,0,1.762"
         class="cls-2"
         id="path198" />
    </g>
    <g
       id="g200">
      <path
         d="M309.567,448.633h-5.28a.881.881,0,1,1,0-1.762h5.28a.881.881,0,1,1,0,1.762m10.56,0h-5.28a.881.881,0,1,1,0-1.762h5.28a.881.881,0,1,1,0,1.762m10.561,0h-5.28a.881.881,0,1,1,0-1.762h5.28a.881.881,0,0,1,0,1.762m10.561,0h-5.281a.881.881,0,1,1,0-1.762h5.281a.881.881,0,1,1,0,1.762m10.56,0h-5.281a.881.881,0,1,1,0-1.762h5.281a.881.881,0,1,1,0,1.762m10.561,0h-5.282a.881.881,0,1,1,0-1.762h5.282a.881.881,0,1,1,0,1.762m10.56,0h-5.28a.881.881,0,0,1,0-1.762h5.28a.881.881,0,1,1,0,1.762m10.561,0H378.21a.881.881,0,0,1,0-1.762h5.281a.881.881,0,0,1,0,1.762m10.56,0H388.77a.881.881,0,1,1,0-1.762h5.281a.881.881,0,0,1,0,1.762m10.56,0h-5.279a.881.881,0,1,1,0-1.762h5.279a.881.881,0,1,1,0,1.762m10.561,0h-5.28a.881.881,0,1,1,0-1.762h5.28a.881.881,0,1,1,0,1.762m10.56,0h-5.28a.881.881,0,1,1,0-1.762h5.28a.881.881,0,1,1,0,1.762m10.561,0h-5.28a.881.881,0,1,1,0-1.762h5.28a.881.881,0,1,1,0,1.762"
         class="cls-2"
         id="path202" />
    </g>
    <g
       id="g204">
      <path
         d="M444.216,451.276a.88.88,0,0,1-.881-.881v-1.762h-1.762a.881.881,0,0,1,0-1.762h2.643a.88.88,0,0,1,.881.881V450.4a.88.88,0,0,1-.881.881"
         class="cls-2"
         id="path206" />
    </g>
    <g
       id="g208">
      <path
         d="M444.216,462.154a.88.88,0,0,1-.881-.881v-5.439a.881.881,0,0,1,1.762,0v5.439a.88.88,0,0,1-.881.881m0,10.878a.881.881,0,0,1-.881-.881v-5.439a.881.881,0,1,1,1.762,0v5.439a.881.881,0,0,1-.881.881m0,10.877a.88.88,0,0,1-.881-.881v-5.439a.881.881,0,1,1,1.762,0v5.439a.88.88,0,0,1-.881.881m0,10.878a.88.88,0,0,1-.881-.881v-5.439a.881.881,0,1,1,1.762,0v5.439a.88.88,0,0,1-.881.881"
         class="cls-2"
         id="path210" />
    </g>
    <g
       id="g212">
      <path
         d="M444.216,502.868a.88.88,0,0,1-.881-.881v-2.643a.881.881,0,1,1,1.762,0v2.643a.88.88,0,0,1-.881.881"
         class="cls-2"
         id="path214" />
    </g>
    <g
       id="g216">
      <path
         d="M95.653,563.407a.881.881,0,0,1-.881-.881V557.24a.881.881,0,0,1,1.762,0v5.286a.88.88,0,0,1-.881.881m0,10.571a.881.881,0,0,1-.881-.881v-5.286a.881.881,0,0,1,1.762,0V573.1a.88.88,0,0,1-.881.881m0,10.571a.88.88,0,0,1-.881-.881v-5.285a.881.881,0,1,1,1.762,0v5.285a.88.88,0,0,1-.881.881m0,10.572a.881.881,0,0,1-.881-.881v-5.286a.881.881,0,0,1,1.762,0v5.286a.88.88,0,0,1-.881.881m0,10.571a.88.88,0,0,1-.881-.881v-5.285a.881.881,0,0,1,1.762,0v5.285a.88.88,0,0,1-.881.881"
         class="cls-2"
         id="path218" />
    </g>
    <g
       id="g220">
      <path
         d="M206.466,563.407a.881.881,0,0,1-.881-.881V557.24a.881.881,0,0,1,1.762,0v5.286a.881.881,0,0,1-.881.881m0,10.571a.881.881,0,0,1-.881-.881v-5.286a.881.881,0,1,1,1.762,0V573.1a.881.881,0,0,1-.881.881m0,10.571a.88.88,0,0,1-.881-.881v-5.285a.881.881,0,1,1,1.762,0v5.285a.88.88,0,0,1-.881.881m0,10.572a.881.881,0,0,1-.881-.881v-5.286a.881.881,0,0,1,1.762,0v5.286a.881.881,0,0,1-.881.881m0,10.571a.88.88,0,0,1-.881-.881v-5.285a.881.881,0,0,1,1.762,0v5.285a.88.88,0,0,1-.881.881"
         class="cls-2"
         id="path222" />
    </g>
    <g
       id="g224">
      <path
         d="M388.81,563.407a.88.88,0,0,1-.881-.881V557.24a.881.881,0,1,1,1.762,0v5.286a.88.88,0,0,1-.881.881m0,10.571a.88.88,0,0,1-.881-.881v-5.286a.881.881,0,1,1,1.762,0V573.1a.88.88,0,0,1-.881.881m0,10.571a.88.88,0,0,1-.881-.881v-5.285a.881.881,0,1,1,1.762,0v5.285a.88.88,0,0,1-.881.881m0,10.572a.88.88,0,0,1-.881-.881v-5.286a.881.881,0,1,1,1.762,0v5.286a.88.88,0,0,1-.881.881m0,10.571a.88.88,0,0,1-.881-.881v-5.285a.881.881,0,1,1,1.762,0v5.285a.88.88,0,0,1-.881.881"
         class="cls-2"
         id="path226" />
    </g>
    <g
       id="g228">
      <path
         d="M499.622,563.407a.88.88,0,0,1-.881-.881V557.24a.881.881,0,1,1,1.762,0v5.286a.88.88,0,0,1-.881.881m0,10.571a.88.88,0,0,1-.881-.881v-5.286a.881.881,0,0,1,1.762,0V573.1a.88.88,0,0,1-.881.881m0,10.571a.88.88,0,0,1-.881-.881v-5.285a.881.881,0,0,1,1.762,0v5.285a.879.879,0,0,1-.881.881m0,10.572a.88.88,0,0,1-.881-.881v-5.286a.881.881,0,0,1,1.762,0v5.286a.88.88,0,0,1-.881.881m0,10.571a.88.88,0,0,1-.881-.881v-5.285a.881.881,0,0,1,1.762,0v5.285a.879.879,0,0,1-.881.881"
         class="cls-2"
         id="path230" />
    </g>
    <path
       d="M255.5,557.24H46.623v-53.4H255.5Z"
       class="cls-3"
       id="path232" />
    <path
       d="M47.5,556.359h207.11V504.717H47.5Zm208.872,1.762H45.742V502.955H256.376Z"
       class="cls-4"
       id="path234" />
    <g
       id="g236">
      <path
         d="M103.445,525.73c-1.866,0-2.892,1.514-2.892,3.915s1.026,3.917,2.892,3.917c1.881,0,2.906-1.515,2.906-3.917s-1.025-3.915-2.906-3.915m0,9.438c-2.769,0-4.528-2.28-4.528-5.523s1.759-5.521,4.528-5.521c2.784,0,4.543,2.279,4.543,5.521s-1.759,5.523-4.543,5.523"
         class="cls-2"
         id="path238" />
    </g>
    <g
       id="g240">
      <path
         d="M114.321,535h-1.7l-3.717-10.708h1.744l2.233,6.823c.2.628.5,1.575.6,1.958.091-.383.4-1.346.6-1.974l2.2-6.807h1.713Z"
         class="cls-2"
         id="path242" />
    </g>
    <g
       id="g244">
      <path
         d="M126.71,535l-4.268-6.715c-.26-.4-.627-1.041-.8-1.315,0,.4.016,1.881.016,2.477V535H120.1V524.291h1.636l4.07,6.533c.275.443.734,1.238.887,1.514,0-.4-.016-1.928-.016-2.525v-5.522h1.56V535Z"
         class="cls-2"
         id="path246" />
    </g>
    <path
       d="M130.472,528.62H134.3v1.56h-3.824Z"
       class="cls-2"
       id="path248" />
    <g
       id="g250">
      <path
         d="M141.347,529.278a2.636,2.636,0,0,0-1.959-.978c-1.147,0-1.88,1.024-1.88,2.661,0,1.575.673,2.707,1.927,2.707a2.359,2.359,0,0,0,1.82-1l1.01,1a3.409,3.409,0,0,1-2.877,1.5c-1.957,0-3.471-1.652-3.471-4.161,0-2.663,1.56-4.207,3.518-4.207a3.554,3.554,0,0,1,2.846,1.361Z"
         class="cls-2"
         id="path252" />
    </g>
    <g
       id="g254">
      <path
         d="M147.157,528.3c-1.192,0-1.927,1.056-1.927,2.647,0,1.759.81,2.723,2,2.723s1.973-1.209,1.973-2.678c0-1.636-.78-2.692-2.05-2.692m.016,6.869c-2.02,0-3.534-1.668-3.534-4.177,0-2.631,1.56-4.191,3.579-4.191,2.05,0,3.58,1.637,3.58,4.146,0,2.661-1.56,4.222-3.625,4.222"
         class="cls-2"
         id="path256" />
    </g>
    <g
       id="g258">
      <path
         d="M157.619,535v-4.543c0-1.622-.611-2.2-1.652-2.2s-1.651.75-1.651,2.05V535h-1.577v-8.03h1.577v.764a2.458,2.458,0,0,1,2.019-.934c1.866,0,2.86,1.225,2.86,3.6V535Z"
         class="cls-2"
         id="path260" />
    </g>
    <g
       id="g262">
      <path
         d="M165.222,534.8a3.2,3.2,0,0,1-1.545.367c-1.116,0-1.8-.689-1.8-2.127v-4.635h-1.147v-1.438h1.147v-2.294l1.545-.827v3.121h1.988v1.438h-1.988v4.36c0,.749.245.963.826.963a2.531,2.531,0,0,0,1.162-.32Z"
         class="cls-2"
         id="path264" />
    </g>
    <g
       id="g266">
      <path
         d="M171.906,528.636a2.346,2.346,0,0,0-1.209-.291c-.993,0-1.575.7-1.575,2.066V535h-1.576v-8.032h1.576v.766a2.226,2.226,0,0,1,1.835-.934,2.313,2.313,0,0,1,1.362.336Z"
         class="cls-2"
         id="path268" />
    </g>
    <g
       id="g270">
      <path
         d="M176.7,528.3c-1.193,0-1.927,1.056-1.927,2.647,0,1.759.81,2.723,2,2.723s1.973-1.209,1.973-2.678c0-1.636-.78-2.692-2.05-2.692m.016,6.869c-2.02,0-3.534-1.668-3.534-4.177,0-2.631,1.56-4.191,3.579-4.191,2.05,0,3.58,1.637,3.58,4.146,0,2.661-1.56,4.222-3.625,4.222"
         class="cls-2"
         id="path272" />
    </g>
    <g
       id="g274">
      <path
         d="M182.354,535V524.674l1.575-.827V535Z"
         class="cls-2"
         id="path276" />
    </g>
    <g
       id="g278">
      <path
         d="M186.407,535V524.674l1.576-.827V535Z"
         class="cls-2"
         id="path280" />
    </g>
    <g
       id="g282">
      <path
         d="M193.412,528.223c-1.055,0-1.7.734-1.835,2.019h3.732c-.076-1.1-.6-2.019-1.9-2.019m3.442,3.319h-5.308c.169,1.544,1.041,2.2,2.02,2.2a2.811,2.811,0,0,0,1.743-.643l.933,1.011a3.738,3.738,0,0,1-2.769,1.055c-1.881,0-3.472-1.515-3.472-4.176,0-2.723,1.438-4.192,3.519-4.192,2.279,0,3.38,1.851,3.38,4.023,0,.291-.031.551-.046.719"
         class="cls-2"
         id="path284" />
    </g>
    <g
       id="g286">
      <path
         d="M203.217,528.636a2.349,2.349,0,0,0-1.209-.291c-.994,0-1.575.7-1.575,2.066V535h-1.576v-8.032h1.576v.766a2.223,2.223,0,0,1,1.835-.934,2.315,2.315,0,0,1,1.362.336Z"
         class="cls-2"
         id="path288" />
    </g>
    <path
       d="M144.682,663.032H46.623v-53.4h98.059Z"
       class="cls-3"
       id="path290" />
    <path
       d="M47.5,662.151h96.3V610.509H47.5Zm98.059,1.762H45.742V608.747h99.821Z"
       class="cls-5"
       id="path292" />
    <g
       id="g294">
      <path
         d="M83.531,622.906c-1.866,0-2.891,1.515-2.891,3.916s1.025,3.917,2.891,3.917c1.882,0,2.906-1.515,2.906-3.917s-1.024-3.916-2.906-3.916m0,9.439c-2.769,0-4.528-2.28-4.528-5.523s1.759-5.522,4.528-5.522,4.543,2.279,4.543,5.522-1.759,5.523-4.543,5.523"
         class="cls-2"
         id="path296" />
    </g>
    <g
       id="g298">
      <path
         d="M94.408,632.176h-1.7l-3.717-10.708h1.745l2.233,6.823c.2.627.5,1.575.6,1.957.092-.382.4-1.346.6-1.973l2.2-6.807h1.713Z"
         class="cls-2"
         id="path300" />
    </g>
    <g
       id="g302">
      <path
         d="M103.019,632.345a4.958,4.958,0,0,1-3.809-1.73l1.148-1.116a3.914,3.914,0,0,0,2.784,1.27c1.5,0,2.218-.52,2.218-1.561,0-.826-.627-1.239-2.416-1.774-2.265-.674-3.352-1.238-3.352-3.151,0-1.852,1.561-2.983,3.535-2.983a4.8,4.8,0,0,1,3.5,1.453L105.5,623.9A3.242,3.242,0,0,0,103,622.875c-1.254,0-1.79.612-1.79,1.331,0,.749.49,1.117,2.341,1.667,2.111.643,3.427,1.315,3.427,3.228s-1.225,3.244-3.963,3.244"
         class="cls-2"
         id="path304" />
    </g>
    <path
       d="M108.524,625.8h3.825v1.561h-3.825Z"
       class="cls-2"
       id="path306" />
    <g
       id="g308">
      <path
         d="M69.605,650.53H68.029L65.154,642.5h1.651l1.439,4.36c.26.779.489,1.529.6,1.972.092-.443.306-1.193.551-1.972l1.377-4.36h1.667Z"
         class="cls-2"
         id="path310" />
    </g>
    <g
       id="g312">
      <path
         d="M76.5,650.7a5.481,5.481,0,0,1-3.075-1.025l.719-1.194a4.215,4.215,0,0,0,2.341.8c.994,0,1.468-.321,1.468-.888,0-.612-.7-.9-1.866-1.346-1.729-.674-2.356-1.254-2.356-2.524,0-1.437,1.132-2.188,2.738-2.188a4.783,4.783,0,0,1,2.723.888l-.688,1.208a3.5,3.5,0,0,0-2.08-.688c-.765,0-1.1.306-1.1.735,0,.4.276.688,1.484,1.162,1.79.688,2.708,1.177,2.708,2.692,0,1.774-1.438,2.371-3.014,2.371"
         class="cls-2"
         id="path314" />
    </g>
    <g
       id="g316">
      <path
         d="M88.482,650.53H87.136l-1.086-4.054c-.169-.612-.337-1.331-.413-1.714-.076.383-.245,1.118-.414,1.729l-1.07,4.039H82.807L80.6,642.5h1.561l.947,3.9c.154.611.322,1.376.4,1.759.092-.4.276-1.133.444-1.759l1.071-3.9h1.269l1.087,3.916c.168.627.336,1.346.428,1.744.091-.4.245-1.148.4-1.759l.948-3.9h1.56Z"
         class="cls-2"
         id="path318" />
    </g>
    <path
       d="M92.565,642.5h1.576v8.031H92.565Zm.8-1.039a1.018,1.018,0,1,1,1.009-1.011,1.023,1.023,0,0,1-1.009,1.011"
       class="cls-2"
       id="path320" />
    <g
       id="g322">
      <path
         d="M100.382,650.331a3.2,3.2,0,0,1-1.546.367c-1.116,0-1.8-.689-1.8-2.126v-4.636H95.884V642.5h1.147V640.2l1.546-.827V642.5h1.988v1.438H98.577v4.36c0,.75.244.964.826.964a2.539,2.539,0,0,0,1.162-.321Z"
         class="cls-2"
         id="path324" />
    </g>
    <g
       id="g326">
      <path
         d="M107.448,644.809a2.637,2.637,0,0,0-1.959-.979c-1.147,0-1.88,1.025-1.88,2.661,0,1.575.673,2.708,1.927,2.708a2.359,2.359,0,0,0,1.82-1l1.01,1a3.41,3.41,0,0,1-2.877,1.5c-1.957,0-3.471-1.653-3.471-4.162,0-2.662,1.56-4.206,3.518-4.206a3.554,3.554,0,0,1,2.846,1.361Z"
         class="cls-2"
         id="path328" />
    </g>
    <g
       id="g330">
      <path
         d="M115.264,650.53v-4.543c0-1.622-.612-2.2-1.652-2.2-1.056,0-1.652.75-1.652,2.05v4.7h-1.576V640.2l1.576-.826v3.886a2.457,2.457,0,0,1,2.019-.934c1.866,0,2.861,1.224,2.861,3.595v4.605Z"
         class="cls-2"
         id="path332" />
    </g>
    <g
       id="g334">
      <path
         d="M123.951,644.839a2.571,2.571,0,0,0-1.882-1.056c-1.132,0-1.743.857-1.743,2.555,0,2.019.642,2.907,1.805,2.907a2.464,2.464,0,0,0,1.82-1.025Zm-.016,5.691v-.765a3.056,3.056,0,0,1-2.095.933c-1.728,0-3.09-1.254-3.09-4.314,0-2.753,1.5-4.054,3.166-4.054a2.851,2.851,0,0,1,2.019.918v-3.059l1.561-.811V650.53Z"
         class="cls-2"
         id="path336" />
    </g>
    <path
       d="M255.5,663.032H157.436v-53.4H255.5Z"
       class="cls-3"
       id="path338" />
    <path
       d="M158.317,662.151h96.3V610.509h-96.3Zm98.059,1.762H156.555V608.747h99.821Z"
       class="cls-6"
       id="path340" />
    <g
       id="g342">
      <path
         d="M187.287,625.476c-1.193,0-1.928,1.055-1.928,2.646,0,1.76.811,2.723,2,2.723s1.974-1.208,1.974-2.677c0-1.637-.781-2.692-2.05-2.692m.016,6.869c-2.02,0-3.535-1.669-3.535-4.177,0-2.631,1.56-4.191,3.579-4.191,2.05,0,3.581,1.636,3.581,4.145,0,2.662-1.561,4.223-3.625,4.223"
         class="cls-2"
         id="path344" />
    </g>
    <g
       id="g346">
      <path
         d="M196.386,632.176H194.81l-2.875-8.031h1.651l1.439,4.36c.26.78.489,1.529.6,1.972.092-.443.306-1.192.551-1.972l1.377-4.36h1.667Z"
         class="cls-2"
         id="path348" />
    </g>
    <g
       id="g350">
      <path
         d="M203.285,632.345a5.475,5.475,0,0,1-3.075-1.026l.719-1.193a4.222,4.222,0,0,0,2.341.8c.994,0,1.469-.321,1.469-.887,0-.612-.7-.9-1.867-1.346-1.729-.674-2.356-1.255-2.356-2.525,0-1.437,1.132-2.188,2.738-2.188a4.783,4.783,0,0,1,2.723.888l-.688,1.208a3.5,3.5,0,0,0-2.08-.688c-.765,0-1.1.306-1.1.735,0,.4.276.688,1.485,1.162,1.789.688,2.707,1.178,2.707,2.692,0,1.774-1.438,2.372-3.014,2.372"
         class="cls-2"
         id="path352" />
    </g>
    <g
       id="g354">
      <path
         d="M213.013,626.485a2.572,2.572,0,0,0-1.882-1.055c-1.132,0-1.743.856-1.743,2.554,0,2.02.642,2.907,1.805,2.907a2.464,2.464,0,0,0,1.82-1.025ZM213,632.176v-.765a3.065,3.065,0,0,1-2.1.933c-1.728,0-3.09-1.253-3.09-4.314,0-2.753,1.5-4.054,3.166-4.054a2.856,2.856,0,0,1,2.02.918v-3.059l1.56-.811v11.152Z"
         class="cls-2"
         id="path356" />
    </g>
    <g
       id="g358">
      <path
         d="M220.247,625.429a2.465,2.465,0,0,0-1.82,1.026v3.38a2.567,2.567,0,0,0,1.881,1.055c1.132,0,1.744-.855,1.744-2.553,0-2.02-.642-2.908-1.8-2.908m.214,6.916a2.853,2.853,0,0,1-2.019-.918v.749h-1.56V621.835l1.56-.811v3.886a3.06,3.06,0,0,1,2.095-.933c1.729,0,3.091,1.253,3.091,4.314,0,2.753-1.5,4.054-3.167,4.054"
         class="cls-2"
         id="path360" />
    </g>
    <path
       d="M225.278,625.8H229.1v1.561h-3.824Z"
       class="cls-2"
       id="path362" />
    <g
       id="g364">
      <path
         d="M187.616,650.7a5.481,5.481,0,0,1-3.075-1.025l.719-1.194a4.215,4.215,0,0,0,2.341.8c.994,0,1.468-.321,1.468-.888,0-.612-.7-.9-1.866-1.346-1.729-.674-2.356-1.254-2.356-2.524,0-1.437,1.132-2.188,2.738-2.188a4.783,4.783,0,0,1,2.723.888l-.688,1.208a3.5,3.5,0,0,0-2.08-.688c-.766,0-1.1.306-1.1.735,0,.4.276.688,1.484,1.162,1.79.688,2.708,1.177,2.708,2.692,0,1.774-1.438,2.371-3.014,2.371"
         class="cls-2"
         id="path366" />
    </g>
    <g
       id="g368">
      <path
         d="M195.523,643.753c-1.055,0-1.7.734-1.835,2.019h3.732c-.077-1.1-.6-2.019-1.9-2.019m3.442,3.32h-5.308c.169,1.544,1.041,2.2,2.02,2.2a2.821,2.821,0,0,0,1.743-.643l.933,1.01a3.738,3.738,0,0,1-2.769,1.056c-1.881,0-3.472-1.516-3.472-4.177,0-2.723,1.438-4.192,3.519-4.192,2.279,0,3.38,1.851,3.38,4.024,0,.29-.031.55-.046.719"
         class="cls-2"
         id="path370" />
    </g>
    <g
       id="g372">
      <path
         d="M205.327,644.166a2.355,2.355,0,0,0-1.208-.291c-.994,0-1.576.7-1.576,2.066v4.589h-1.576V642.5h1.576v.766a2.226,2.226,0,0,1,1.835-.934,2.31,2.31,0,0,1,1.362.337Z"
         class="cls-2"
         id="path374" />
    </g>
    <g
       id="g376">
      <path
         d="M211.155,650.53h-1.576L206.7,642.5h1.652l1.439,4.36c.259.779.488,1.529.6,1.972.092-.443.306-1.193.551-1.972l1.376-4.36h1.667Z"
         class="cls-2"
         id="path378" />
    </g>
    <g
       id="g380">
      <path
         d="M218.4,643.753c-1.056,0-1.7.734-1.835,2.019H220.3c-.076-1.1-.6-2.019-1.9-2.019m3.441,3.32h-5.308c.169,1.544,1.041,2.2,2.02,2.2a2.817,2.817,0,0,0,1.743-.643l.933,1.01a3.738,3.738,0,0,1-2.769,1.056c-1.881,0-3.472-1.516-3.472-4.177,0-2.723,1.438-4.192,3.519-4.192,2.279,0,3.38,1.851,3.38,4.024,0,.29-.031.55-.046.719"
         class="cls-2"
         id="path382" />
    </g>
    <g
       id="g384">
      <path
         d="M228.208,644.166a2.359,2.359,0,0,0-1.209-.291c-.994,0-1.575.7-1.575,2.066v4.589h-1.576V642.5h1.576v.766a2.223,2.223,0,0,1,1.835-.934,2.315,2.315,0,0,1,1.362.337Z"
         class="cls-2"
         id="path386" />
    </g>
    <path
       d="M548.652,557.24H339.78v-53.4H548.652Z"
       class="cls-3"
       id="path388" />
    <path
       d="M340.661,556.359h207.11V504.717H340.661Zm208.872,1.762H338.9V502.955H549.533Z"
       class="cls-4"
       id="path390" />
    <g
       id="g392">
      <path
         d="M396.6,525.73c-1.867,0-2.892,1.514-2.892,3.915s1.025,3.917,2.892,3.917,2.906-1.515,2.906-3.917-1.025-3.915-2.906-3.915m0,9.438c-2.77,0-4.529-2.28-4.529-5.523s1.759-5.521,4.529-5.521,4.543,2.279,4.543,5.521-1.76,5.523-4.543,5.523"
         class="cls-2"
         id="path394" />
    </g>
    <g
       id="g396">
      <path
         d="M407.477,535h-1.7l-3.717-10.708h1.744l2.233,6.823c.2.628.5,1.575.6,1.958.092-.383.4-1.346.6-1.974l2.2-6.807h1.714Z"
         class="cls-2"
         id="path398" />
    </g>
    <g
       id="g400">
      <path
         d="M419.867,535l-4.268-6.715c-.261-.4-.628-1.041-.8-1.315,0,.4.016,1.881.016,2.477V535h-1.561V524.291H414.9l4.069,6.533c.276.443.735,1.238.887,1.514,0-.4-.015-1.928-.015-2.525v-5.522h1.56V535Z"
         class="cls-2"
         id="path402" />
    </g>
    <path
       d="M423.628,528.62h3.824v1.56h-3.824Z"
       class="cls-2"
       id="path404" />
    <g
       id="g406">
      <path
         d="M434.5,529.278a2.632,2.632,0,0,0-1.958-.978c-1.146,0-1.881,1.024-1.881,2.661,0,1.575.672,2.707,1.928,2.707a2.362,2.362,0,0,0,1.82-1l1.009,1a3.408,3.408,0,0,1-2.876,1.5c-1.958,0-3.472-1.652-3.472-4.161,0-2.663,1.56-4.207,3.519-4.207a3.552,3.552,0,0,1,2.845,1.361Z"
         class="cls-2"
         id="path408" />
    </g>
    <g
       id="g410">
      <path
         d="M440.315,528.3c-1.193,0-1.928,1.056-1.928,2.647,0,1.759.811,2.723,2,2.723s1.974-1.209,1.974-2.678c0-1.636-.781-2.692-2.049-2.692m.015,6.869c-2.02,0-3.534-1.668-3.534-4.177,0-2.631,1.56-4.191,3.579-4.191,2.05,0,3.58,1.637,3.58,4.146,0,2.661-1.56,4.222-3.625,4.222"
         class="cls-2"
         id="path412" />
    </g>
    <g
       id="g414">
      <path
         d="M450.777,535v-4.543c0-1.622-.612-2.2-1.653-2.2s-1.652.75-1.652,2.05V535H445.9v-8.03h1.576v.764a2.463,2.463,0,0,1,2.02-.934c1.865,0,2.86,1.225,2.86,3.6V535Z"
         class="cls-2"
         id="path416" />
    </g>
    <g
       id="g418">
      <path
         d="M458.379,534.8a3.2,3.2,0,0,1-1.544.367c-1.117,0-1.806-.689-1.806-2.127v-4.635h-1.147v-1.438h1.147v-2.294l1.545-.827v3.121h1.99v1.438h-1.99v4.36c0,.749.245.963.827.963a2.539,2.539,0,0,0,1.163-.32Z"
         class="cls-2"
         id="path420" />
    </g>
    <g
       id="g422">
      <path
         d="M465.064,528.636a2.349,2.349,0,0,0-1.209-.291c-.993,0-1.575.7-1.575,2.066V535H460.7v-8.032h1.576v.766a2.228,2.228,0,0,1,1.836-.934,2.314,2.314,0,0,1,1.361.336Z"
         class="cls-2"
         id="path424" />
    </g>
    <g
       id="g426">
      <path
         d="M469.852,528.3c-1.192,0-1.927,1.056-1.927,2.647,0,1.759.81,2.723,2,2.723s1.973-1.209,1.973-2.678c0-1.636-.78-2.692-2.049-2.692m.015,6.869c-2.019,0-3.533-1.668-3.533-4.177,0-2.631,1.56-4.191,3.579-4.191,2.05,0,3.579,1.637,3.579,4.146,0,2.661-1.56,4.222-3.625,4.222"
         class="cls-2"
         id="path428" />
    </g>
    <g
       id="g430">
      <path
         d="M475.511,535V524.674l1.576-.827V535Z"
         class="cls-2"
         id="path432" />
    </g>
    <g
       id="g434">
      <path
         d="M479.564,535V524.674l1.576-.827V535Z"
         class="cls-2"
         id="path436" />
    </g>
    <g
       id="g438">
      <path
         d="M486.569,528.223c-1.055,0-1.7.734-1.836,2.019h3.733c-.077-1.1-.6-2.019-1.9-2.019m3.442,3.319H484.7c.168,1.544,1.041,2.2,2.019,2.2a2.816,2.816,0,0,0,1.744-.643l.934,1.011a3.741,3.741,0,0,1-2.77,1.055c-1.881,0-3.472-1.515-3.472-4.176,0-2.723,1.438-4.192,3.518-4.192,2.28,0,3.381,1.851,3.381,4.023a7.152,7.152,0,0,1-.046.719"
         class="cls-2"
         id="path440" />
    </g>
    <g
       id="g442">
      <path
         d="M496.373,528.636a2.346,2.346,0,0,0-1.209-.291c-.993,0-1.575.7-1.575,2.066V535h-1.576v-8.032h1.576v.766a2.228,2.228,0,0,1,1.836-.934,2.314,2.314,0,0,1,1.361.336Z"
         class="cls-2"
         id="path444" />
    </g>
    <path
       d="M437.84,663.032H339.78v-53.4h98.06Z"
       class="cls-3"
       id="path446" />
    <path
       d="M340.661,662.151h96.3V610.509h-96.3Zm98.06,1.762H338.9V608.747h99.822Z"
       class="cls-5"
       id="path448" />
    <g
       id="g450">
      <path
         d="M376.689,622.906c-1.867,0-2.891,1.515-2.891,3.916s1.024,3.917,2.891,3.917,2.906-1.515,2.906-3.917-1.024-3.916-2.906-3.916m0,9.439c-2.77,0-4.529-2.28-4.529-5.523s1.759-5.522,4.529-5.522,4.543,2.279,4.543,5.522-1.759,5.523-4.543,5.523"
         class="cls-2"
         id="path452" />
    </g>
    <g
       id="g454">
      <path
         d="M387.564,632.176h-1.7l-3.717-10.708h1.743l2.233,6.823c.2.627.5,1.575.6,1.957.091-.382.4-1.346.6-1.973l2.2-6.807h1.713Z"
         class="cls-2"
         id="path456" />
    </g>
    <g
       id="g458">
      <path
         d="M396.178,632.345a4.955,4.955,0,0,1-3.809-1.73l1.147-1.116a3.914,3.914,0,0,0,2.784,1.27c1.5,0,2.218-.52,2.218-1.561,0-.826-.627-1.239-2.417-1.774-2.263-.674-3.35-1.238-3.35-3.151,0-1.852,1.561-2.983,3.534-2.983a4.8,4.8,0,0,1,3.5,1.453l-1.133,1.147a3.244,3.244,0,0,0-2.494-1.025c-1.254,0-1.79.612-1.79,1.331,0,.749.49,1.117,2.34,1.667,2.112.643,3.428,1.315,3.428,3.228s-1.224,3.244-3.962,3.244"
         class="cls-2"
         id="path460" />
    </g>
    <path
       d="M401.683,625.8h3.824v1.561h-3.824Z"
       class="cls-2"
       id="path462" />
    <g
       id="g464">
      <path
         d="M362.762,650.53h-1.575l-2.876-8.031h1.652l1.438,4.36c.26.779.49,1.529.6,1.972.091-.443.305-1.193.55-1.972l1.376-4.36h1.669Z"
         class="cls-2"
         id="path466" />
    </g>
    <g
       id="g468">
      <path
         d="M369.661,650.7a5.481,5.481,0,0,1-3.074-1.025l.718-1.194a4.215,4.215,0,0,0,2.34.8c1,0,1.469-.321,1.469-.888,0-.612-.7-.9-1.866-1.346-1.728-.674-2.356-1.254-2.356-2.524,0-1.437,1.133-2.188,2.739-2.188a4.788,4.788,0,0,1,2.723.888l-.689,1.208a3.5,3.5,0,0,0-2.08-.688c-.765,0-1.1.306-1.1.735,0,.4.276.688,1.485,1.162,1.789.688,2.707,1.177,2.707,2.692,0,1.774-1.438,2.371-3.014,2.371"
         class="cls-2"
         id="path470" />
    </g>
    <g
       id="g472">
      <path
         d="M381.639,650.53h-1.346l-1.087-4.054c-.167-.612-.336-1.331-.412-1.714-.077.383-.245,1.118-.413,1.729l-1.072,4.039h-1.345l-2.2-8.031h1.56l.948,3.9c.153.611.322,1.376.4,1.759.092-.4.276-1.133.443-1.759l1.071-3.9h1.271l1.085,3.916c.168.627.338,1.346.428,1.744.093-.4.246-1.148.4-1.759l.948-3.9h1.56Z"
         class="cls-2"
         id="path474" />
    </g>
    <path
       d="M385.722,642.5H387.3v8.031h-1.576Zm.8-1.039a1.018,1.018,0,1,1,1.01-1.011,1.022,1.022,0,0,1-1.01,1.011"
       class="cls-2"
       id="path476" />
    <g
       id="g478">
      <path
         d="M393.537,650.331a3.2,3.2,0,0,1-1.544.367c-1.117,0-1.806-.689-1.806-2.126v-4.636h-1.146V642.5h1.146V640.2l1.545-.827V642.5h1.989v1.438h-1.989v4.36c0,.75.245.964.827.964a2.532,2.532,0,0,0,1.162-.321Z"
         class="cls-2"
         id="path480" />
    </g>
    <g
       id="g482">
      <path
         d="M400.6,644.809a2.635,2.635,0,0,0-1.959-.979c-1.146,0-1.88,1.025-1.88,2.661,0,1.575.672,2.708,1.927,2.708a2.359,2.359,0,0,0,1.82-1l1.01,1a3.409,3.409,0,0,1-2.877,1.5c-1.957,0-3.471-1.653-3.471-4.162,0-2.662,1.56-4.206,3.518-4.206a3.553,3.553,0,0,1,2.846,1.361Z"
         class="cls-2"
         id="path484" />
    </g>
    <g
       id="g486">
      <path
         d="M408.42,650.53v-4.543c0-1.622-.613-2.2-1.653-2.2s-1.652.75-1.652,2.05v4.7h-1.576V640.2l1.576-.826v3.886a2.459,2.459,0,0,1,2.019-.934c1.866,0,2.861,1.224,2.861,3.595v4.605Z"
         class="cls-2"
         id="path488" />
    </g>
    <g
       id="g490">
      <path
         d="M417.107,644.839a2.57,2.57,0,0,0-1.882-1.056c-1.132,0-1.743.857-1.743,2.555,0,2.019.642,2.907,1.8,2.907a2.466,2.466,0,0,0,1.82-1.025Zm-.016,5.691v-.765a3.056,3.056,0,0,1-2.1.933c-1.728,0-3.09-1.254-3.09-4.314,0-2.753,1.5-4.054,3.166-4.054a2.851,2.851,0,0,1,2.019.918v-3.059l1.561-.811V650.53Z"
         class="cls-2"
         id="path492" />
    </g>
    <path
       d="M548.652,663.032h-98.06v-53.4h98.06Z"
       class="cls-3"
       id="path494" />
    <path
       d="M451.473,662.151h96.3V610.509h-96.3Zm98.06,1.762H449.711V608.747h99.822Z"
       class="cls-6"
       id="path496" />
    <g
       id="g498">
      <path
         d="M480.444,625.476c-1.193,0-1.928,1.055-1.928,2.646,0,1.76.81,2.723,2,2.723s1.974-1.208,1.974-2.677c0-1.637-.781-2.692-2.049-2.692m.015,6.869c-2.02,0-3.534-1.669-3.534-4.177,0-2.631,1.56-4.191,3.579-4.191,2.05,0,3.58,1.636,3.58,4.145,0,2.662-1.56,4.223-3.625,4.223"
         class="cls-2"
         id="path500" />
    </g>
    <g
       id="g502">
      <path
         d="M489.543,632.176h-1.575l-2.876-8.031h1.651l1.439,4.36c.26.78.49,1.529.6,1.972.092-.443.306-1.192.551-1.972l1.377-4.36h1.668Z"
         class="cls-2"
         id="path504" />
    </g>
    <g
       id="g506">
      <path
         d="M496.442,632.345a5.48,5.48,0,0,1-3.075-1.026l.719-1.193a4.221,4.221,0,0,0,2.34.8c1,0,1.469-.321,1.469-.887,0-.612-.7-.9-1.866-1.346-1.729-.674-2.356-1.255-2.356-2.525,0-1.437,1.133-2.188,2.739-2.188a4.788,4.788,0,0,1,2.723.888l-.689,1.208a3.5,3.5,0,0,0-2.081-.688c-.764,0-1.1.306-1.1.735,0,.4.276.688,1.484,1.162,1.79.688,2.708,1.178,2.708,2.692,0,1.774-1.438,2.372-3.014,2.372"
         class="cls-2"
         id="path508" />
    </g>
    <g
       id="g510">
      <path
         d="M506.169,626.485a2.568,2.568,0,0,0-1.881-1.055c-1.132,0-1.744.856-1.744,2.554,0,2.02.642,2.907,1.805,2.907a2.466,2.466,0,0,0,1.82-1.025Zm-.016,5.691v-.765a3.056,3.056,0,0,1-2.094.933c-1.729,0-3.091-1.253-3.091-4.314,0-2.753,1.5-4.054,3.166-4.054a2.849,2.849,0,0,1,2.019.918v-3.059l1.562-.811v11.152Z"
         class="cls-2"
         id="path512" />
    </g>
    <g
       id="g514">
      <path
         d="M513.4,625.429a2.463,2.463,0,0,0-1.82,1.026v3.38a2.567,2.567,0,0,0,1.881,1.055c1.132,0,1.744-.855,1.744-2.553,0-2.02-.642-2.908-1.8-2.908m.214,6.916a2.853,2.853,0,0,1-2.019-.918v.749h-1.561V621.835l1.561-.811v3.886a3.06,3.06,0,0,1,2.095-.933c1.729,0,3.091,1.253,3.091,4.314,0,2.753-1.5,4.054-3.167,4.054"
         class="cls-2"
         id="path516" />
    </g>
    <path
       d="M518.435,625.8h3.825v1.561h-3.825Z"
       class="cls-2"
       id="path518" />
    <g
       id="g520">
      <path
         d="M480.772,650.7a5.481,5.481,0,0,1-3.074-1.025l.719-1.194a4.212,4.212,0,0,0,2.339.8c1,0,1.469-.321,1.469-.888,0-.612-.7-.9-1.866-1.346-1.728-.674-2.356-1.254-2.356-2.524,0-1.437,1.133-2.188,2.739-2.188a4.785,4.785,0,0,1,2.723.888l-.689,1.208a3.5,3.5,0,0,0-2.08-.688c-.765,0-1.1.306-1.1.735,0,.4.276.688,1.485,1.162,1.789.688,2.707,1.177,2.707,2.692,0,1.774-1.438,2.371-3.014,2.371"
         class="cls-2"
         id="path522" />
    </g>
    <g
       id="g524">
      <path
         d="M488.679,643.753c-1.055,0-1.7.734-1.836,2.019h3.733c-.077-1.1-.6-2.019-1.9-2.019m3.442,3.32h-5.308c.168,1.544,1.041,2.2,2.02,2.2a2.819,2.819,0,0,0,1.743-.643l.934,1.01a3.74,3.74,0,0,1-2.77,1.056c-1.881,0-3.472-1.516-3.472-4.177,0-2.723,1.438-4.192,3.519-4.192,2.279,0,3.38,1.851,3.38,4.024a7.194,7.194,0,0,1-.046.719"
         class="cls-2"
         id="path526" />
    </g>
    <g
       id="g528">
      <path
         d="M498.483,644.166a2.355,2.355,0,0,0-1.208-.291c-.994,0-1.575.7-1.575,2.066v4.589h-1.576V642.5H495.7v.766a2.225,2.225,0,0,1,1.835-.934,2.317,2.317,0,0,1,1.362.337Z"
         class="cls-2"
         id="path530" />
    </g>
    <g
       id="g532">
      <path
         d="M504.31,650.53h-1.575l-2.876-8.031h1.652l1.438,4.36c.26.779.49,1.529.6,1.972.091-.443.305-1.193.55-1.972l1.376-4.36h1.669Z"
         class="cls-2"
         id="path534" />
    </g>
    <g
       id="g536">
      <path
         d="M511.559,643.753c-1.055,0-1.7.734-1.836,2.019h3.733c-.077-1.1-.6-2.019-1.9-2.019m3.442,3.32h-5.308c.168,1.544,1.041,2.2,2.019,2.2a2.819,2.819,0,0,0,1.744-.643l.934,1.01a3.742,3.742,0,0,1-2.77,1.056c-1.881,0-3.472-1.516-3.472-4.177,0-2.723,1.438-4.192,3.519-4.192,2.279,0,3.38,1.851,3.38,4.024a7.194,7.194,0,0,1-.046.719"
         class="cls-2"
         id="path538" />
    </g>
    <g
       id="g540">
      <path
         d="M521.363,644.166a2.355,2.355,0,0,0-1.208-.291c-.994,0-1.576.7-1.576,2.066v4.589H517V642.5h1.576v.766a2.228,2.228,0,0,1,1.836-.934,2.311,2.311,0,0,1,1.361.337Z"
         class="cls-2"
         id="path542" />
    </g>
    <path
       d="M403.971,410.789H191.3v-53.4H403.971Z"
       class="cls-3"
       id="path544" />
    <path
       d="M192.185,409.908H403.091V358.267H192.185Zm212.667,1.762H190.422V356.505h214.43Z"
       class="cls-6"
       id="path546" />
    <path
       d="M383.036,102.91H209.69v-53.4H383.036Z"
       class="cls-3"
       id="path548" />
    <path
       d="M210.571,102.029H382.155V50.388H210.571Zm173.346,1.762H208.81V48.626H383.917Z"
       class="cls-4"
       id="path550" />
    <path
       d="M383.036,194.108H209.69v-53.4H383.036Z"
       class="cls-3"
       id="path552" />
    <path
       d="M210.571,193.227H382.155V141.586H210.571Zm173.346,1.762H208.81V139.824H383.917Z"
       class="cls-4"
       id="path554" />
    <path
       d="M383.036,285.306H209.69V231.9H383.036Z"
       class="cls-3"
       id="path556" />
    <path
       d="M210.571,284.425H382.155V232.784H210.571Zm173.346,1.762H208.81V231.022H383.917Z"
       class="cls-4"
       id="path558" />
    <g
       id="g560">
      <path
         d="M252.586,80.669l-4.268-6.716c-.26-.4-.627-1.04-.8-1.315,0,.4.016,1.882.016,2.478v5.553h-1.561V69.961h1.636l4.07,6.531c.275.444.734,1.24.887,1.515,0-.4-.015-1.927-.015-2.524V69.961h1.56V80.669Z"
         class="cls-2"
         id="path562" />
    </g>
    <g
       id="g564">
      <path
         d="M259.7,73.892c-1.055,0-1.7.734-1.835,2.019H261.6c-.077-1.1-.6-2.019-1.9-2.019m3.442,3.32h-5.309c.17,1.545,1.042,2.2,2.021,2.2a2.813,2.813,0,0,0,1.743-.643l.933,1.009a3.734,3.734,0,0,1-2.769,1.056c-1.881,0-3.472-1.514-3.472-4.176,0-2.723,1.438-4.192,3.519-4.192,2.279,0,3.38,1.851,3.38,4.024,0,.29-.031.55-.046.719"
         class="cls-2"
         id="path566" />
    </g>
    <g
       id="g568">
      <path
         d="M269.961,80.669V79.9a2.457,2.457,0,0,1-2.019.933c-1.867,0-2.86-1.224-2.86-3.595v-4.6h1.575v4.543c0,1.621.612,2.2,1.652,2.2,1.056,0,1.652-.75,1.652-2.05v-4.7h1.576v8.031Z"
         class="cls-2"
         id="path570" />
    </g>
    <g
       id="g572">
      <path
         d="M277.7,80.47a3.2,3.2,0,0,1-1.545.367c-1.116,0-1.8-.688-1.8-2.126V74.076H273.2V72.638h1.147v-2.3l1.545-.826v3.121h1.988v1.438H275.9v4.359c0,.75.245.964.826.964a2.508,2.508,0,0,0,1.162-.322Z"
         class="cls-2"
         id="path574" />
    </g>
    <g
       id="g576">
      <path
         d="M284.384,74.305a2.355,2.355,0,0,0-1.208-.291c-.994,0-1.576.7-1.576,2.065v4.59h-1.576V72.638H281.6V73.4a2.226,2.226,0,0,1,1.836-.933,2.31,2.31,0,0,1,1.361.336Z"
         class="cls-2"
         id="path578" />
    </g>
    <g
       id="g580">
      <path
         d="M289.174,73.969c-1.194,0-1.928,1.055-1.928,2.646,0,1.759.811,2.723,2,2.723s1.974-1.208,1.974-2.677c0-1.637-.781-2.692-2.049-2.692m.015,6.868c-2.02,0-3.534-1.667-3.534-4.176,0-2.631,1.56-4.192,3.579-4.192,2.05,0,3.58,1.637,3.58,4.146,0,2.662-1.56,4.222-3.625,4.222"
         class="cls-2"
         id="path582" />
    </g>
    <g
       id="g584">
      <path
         d="M299.635,80.669V76.126c0-1.622-.612-2.2-1.653-2.2s-1.652.75-1.652,2.05v4.7h-1.576V72.638h1.576V73.4a2.459,2.459,0,0,1,2.02-.933c1.865,0,2.86,1.223,2.86,3.594v4.605Z"
         class="cls-2"
         id="path586" />
    </g>
    <g
       id="g588">
      <path
         d="M312.283,71.475h-2.875v3.687h2.875a1.665,1.665,0,0,0,1.836-1.852,1.689,1.689,0,0,0-1.836-1.835m-.076,5.2h-2.8v3.993h-1.576V69.961h4.482a3.148,3.148,0,0,1,3.442,3.349c0,2.2-1.469,3.366-3.549,3.366"
         class="cls-2"
         id="path590" />
    </g>
    <g
       id="g592">
      <path
         d="M317.666,80.669V70.343l1.576-.826V80.669Z"
         class="cls-2"
         id="path594" />
    </g>
    <g
       id="g596">
      <path
         d="M326.461,80.669V79.9a2.456,2.456,0,0,1-2.019.933c-1.866,0-2.861-1.224-2.861-3.595v-4.6h1.576v4.543c0,1.621.612,2.2,1.652,2.2s1.652-.75,1.652-2.05v-4.7h1.576v8.031Z"
         class="cls-2"
         id="path598" />
    </g>
    <g
       id="g600">
      <path
         d="M335.21,74.978a2.568,2.568,0,0,0-1.881-1.055c-1.133,0-1.744.856-1.744,2.555,0,2.019.642,2.906,1.805,2.906a2.469,2.469,0,0,0,1.82-1.025Zm-2.249,8.643-.535-1.192c2.264-.108,2.753-.72,2.753-2.387V79.9a3.021,3.021,0,0,1-2.08.933c-1.713,0-3.09-1.254-3.09-4.313,0-2.754,1.514-4.055,3.166-4.055a2.787,2.787,0,0,1,2,.918v-.749h1.576V79.9c0,2.448-.887,3.626-3.794,3.717"
         class="cls-2"
         id="path602" />
    </g>
    <path
       d="M339.155,72.638h1.576v8.031h-1.576Zm.8-1.04a1.017,1.017,0,1,1,1.008-1.01,1.021,1.021,0,0,1-1.008,1.01"
       class="cls-2"
       id="path604" />
    <g
       id="g606">
      <path
         d="M348.012,80.669V76.126c0-1.622-.612-2.2-1.652-2.2-1.056,0-1.652.75-1.652,2.05v4.7h-1.576V72.638h1.576V73.4a2.457,2.457,0,0,1,2.019-.933c1.866,0,2.861,1.223,2.861,3.594v4.605Z"
         class="cls-2"
         id="path608" />
    </g>
    <g
       id="g610">
      <path
         d="M285.978,153.982c-1.867,0-2.891,1.515-2.891,3.916s1.024,3.917,2.891,3.917,2.906-1.515,2.906-3.917-1.024-3.916-2.906-3.916m0,9.439c-2.769,0-4.528-2.28-4.528-5.523s1.759-5.522,4.528-5.522c2.785,0,4.544,2.279,4.544,5.522s-1.759,5.523-4.544,5.523"
         class="cls-2"
         id="path612" />
    </g>
    <g
       id="g614">
      <path
         d="M296.853,163.253h-1.7l-3.717-10.708h1.744l2.233,6.822c.2.627.5,1.576.6,1.958.092-.382.4-1.346.6-1.973l2.2-6.807h1.713Z"
         class="cls-2"
         id="path616" />
    </g>
    <g
       id="g618">
      <path
         d="M309.244,163.253l-4.269-6.716c-.26-.4-.627-1.04-.8-1.315,0,.4.016,1.881.016,2.478v5.553h-1.561V152.545h1.637l4.069,6.531c.275.444.734,1.239.887,1.515,0-.4-.015-1.927-.015-2.525v-5.521h1.56v10.708Z"
         class="cls-2"
         id="path620" />
    </g>
    <g
       id="g622">
      <path
         d="M249.615,181.607l-4.268-6.716c-.26-.4-.627-1.04-.8-1.315,0,.4.016,1.882.016,2.478v5.553h-1.561V170.9h1.636l4.07,6.531c.275.444.734,1.24.887,1.515,0-.4-.015-1.927-.015-2.524V170.9h1.56v10.708Z"
         class="cls-2"
         id="path624" />
    </g>
    <g
       id="g626">
      <path
         d="M256.834,174.907c-1.193,0-1.927,1.055-1.927,2.646,0,1.759.81,2.723,2,2.723s1.973-1.209,1.973-2.677c0-1.637-.78-2.692-2.05-2.692m.016,6.868c-2.02,0-3.534-1.667-3.534-4.176,0-2.632,1.56-4.192,3.579-4.192,2.05,0,3.58,1.637,3.58,4.146,0,2.661-1.56,4.222-3.625,4.222"
         class="cls-2"
         id="path628" />
    </g>
    <g
       id="g630">
      <path
         d="M266.776,175.243a2.359,2.359,0,0,0-1.209-.291c-.993,0-1.575.7-1.575,2.065v4.59h-1.576v-8.032h1.576v.766a2.225,2.225,0,0,1,1.835-.933,2.313,2.313,0,0,1,1.362.336Z"
         class="cls-2"
         id="path632" />
    </g>
    <g
       id="g634">
      <path
         d="M272.8,181.408a3.2,3.2,0,0,1-1.545.367c-1.116,0-1.805-.689-1.805-2.126v-4.635h-1.147v-1.439h1.147v-2.294l1.545-.826v3.12h1.989v1.439H271v4.359c0,.75.245.964.827.964a2.515,2.515,0,0,0,1.162-.322Z"
         class="cls-2"
         id="path636" />
    </g>
    <g
       id="g638">
      <path
         d="M280.007,181.607v-4.543c0-1.622-.612-2.2-1.652-2.2-1.056,0-1.652.75-1.652,2.05v4.7h-1.576V171.281l1.576-.826v3.886a2.456,2.456,0,0,1,2.019-.933c1.866,0,2.861,1.223,2.861,3.594v4.6Z"
         class="cls-2"
         id="path640" />
    </g>
    <g
       id="g642">
      <path
         d="M287.21,174.861a2.466,2.466,0,0,0-1.82,1.025v3.38a2.573,2.573,0,0,0,1.881,1.056c1.132,0,1.744-.857,1.744-2.555,0-2.019-.643-2.906-1.805-2.906m.214,6.914a2.853,2.853,0,0,1-2.019-.918v.75h-1.56V171.266l1.56-.811v3.886a3.058,3.058,0,0,1,2.1-.933c1.729,0,3.09,1.254,3.09,4.313,0,2.754-1.5,4.054-3.167,4.054"
         class="cls-2"
         id="path644" />
    </g>
    <g
       id="g646">
      <path
         d="M295.7,174.907c-1.193,0-1.928,1.055-1.928,2.646,0,1.759.811,2.723,2,2.723s1.973-1.209,1.973-2.677c0-1.637-.78-2.692-2.049-2.692m.015,6.868c-2.019,0-3.534-1.667-3.534-4.176,0-2.632,1.561-4.192,3.58-4.192,2.05,0,3.579,1.637,3.579,4.146,0,2.661-1.56,4.222-3.625,4.222"
         class="cls-2"
         id="path648" />
    </g>
    <g
       id="g650">
      <path
         d="M306.1,181.607v-.765a2.456,2.456,0,0,1-2.019.933c-1.866,0-2.86-1.224-2.86-3.595v-4.6H302.8v4.543c0,1.621.611,2.2,1.651,2.2,1.056,0,1.652-.75,1.652-2.051v-4.695h1.576v8.031Z"
         class="cls-2"
         id="path652" />
    </g>
    <g
       id="g654">
      <path
         d="M314.88,181.607v-4.543c0-1.622-.613-2.2-1.653-2.2-1.056,0-1.652.75-1.652,2.05v4.7H310v-8.031h1.576v.765a2.457,2.457,0,0,1,2.019-.933c1.866,0,2.861,1.223,2.861,3.594v4.6Z"
         class="cls-2"
         id="path656" />
    </g>
    <g
       id="g658">
      <path
         d="M323.567,175.916a2.567,2.567,0,0,0-1.882-1.055c-1.132,0-1.743.856-1.743,2.555,0,2.019.642,2.906,1.805,2.906a2.467,2.467,0,0,0,1.82-1.026Zm-.016,5.69v-.764a3.06,3.06,0,0,1-2.095.933c-1.728,0-3.09-1.254-3.09-4.314,0-2.753,1.5-4.054,3.166-4.054a2.847,2.847,0,0,1,2.019.918v-3.059l1.561-.811v11.151Z"
         class="cls-2"
         id="path660" />
    </g>
    <g
       id="g662">
      <path
         d="M334.716,172.459H333.4v7.588h1.315c2.54,0,3.58-1.545,3.58-3.794s-1.04-3.794-3.58-3.794m0,9.148H331.8V170.9h2.921c2.877,0,5.217,1.575,5.217,5.354s-2.417,5.354-5.217,5.354"
         class="cls-2"
         id="path664" />
    </g>
    <g
       id="g666">
      <path
         d="M346.6,176.589h-2.907v3.549h2.861c1.422,0,1.942-.718,1.942-1.774a1.684,1.684,0,0,0-1.9-1.775m-.031-4.221h-2.876v2.768h2.876a1.319,1.319,0,0,0,1.483-1.362,1.3,1.3,0,0,0-1.483-1.406m-.138,9.239h-4.253V170.9h4.406c1.867,0,3.075.979,3.075,2.784a2.261,2.261,0,0,1-1.361,2.141,2.466,2.466,0,0,1,1.805,2.493c0,2.173-1.331,3.29-3.672,3.29"
         class="cls-2"
         id="path668" />
    </g>
    <g
       id="g670">
      <path
         d="M260.708,254.358c-1.866,0-2.892,1.514-2.892,3.915s1.026,3.917,2.892,3.917c1.882,0,2.906-1.515,2.906-3.917s-1.024-3.915-2.906-3.915m0,9.438c-2.769,0-4.528-2.28-4.528-5.523s1.759-5.521,4.528-5.521,4.543,2.279,4.543,5.521-1.759,5.523-4.543,5.523"
         class="cls-2"
         id="path672" />
    </g>
    <g
       id="g674">
      <path
         d="M271.584,263.628h-1.7l-3.717-10.708h1.744l2.233,6.822c.2.627.5,1.576.6,1.958.092-.382.4-1.346.6-1.973l2.2-6.807h1.712Z"
         class="cls-2"
         id="path676" />
    </g>
    <g
       id="g678">
      <path
         d="M283.973,263.628l-4.268-6.716c-.26-.4-.627-1.04-.8-1.315,0,.4.016,1.882.016,2.478v5.553h-1.56V252.92H279l4.07,6.531c.275.444.734,1.24.887,1.516,0-.4-.016-1.928-.016-2.525V252.92h1.56v10.708Z"
         class="cls-2"
         id="path680" />
    </g>
    <path
       d="M287.735,257.249h3.824v1.56h-3.824Z"
       class="cls-2"
       id="path682" />
    <g
       id="g684">
      <path
         d="M298.442,263.628v-4.543c0-1.622-.613-2.2-1.653-2.2s-1.652.749-1.652,2.05v4.7h-1.576V255.6h1.576v.765a2.459,2.459,0,0,1,2.019-.934c1.866,0,2.861,1.225,2.861,3.6v4.6Z"
         class="cls-2"
         id="path686" />
    </g>
    <g
       id="g688">
      <path
         d="M305.416,256.928c-1.193,0-1.927,1.055-1.927,2.646,0,1.759.809,2.723,2,2.723s1.973-1.208,1.973-2.677c0-1.637-.78-2.692-2.049-2.692m.015,6.868c-2.019,0-3.533-1.667-3.533-4.176,0-2.631,1.56-4.192,3.579-4.192,2.05,0,3.579,1.637,3.579,4.146,0,2.662-1.56,4.222-3.625,4.222"
         class="cls-2"
         id="path690" />
    </g>
    <g
       id="g692">
      <path
         d="M315.358,257.264a2.359,2.359,0,0,0-1.209-.29c-.994,0-1.575.7-1.575,2.065v4.589H311V255.6h1.576v.765a2.228,2.228,0,0,1,1.836-.934,2.316,2.316,0,0,1,1.361.337Z"
         class="cls-2"
         id="path694" />
    </g>
    <g
       id="g696">
      <path
         d="M321.383,263.429a3.2,3.2,0,0,1-1.544.368c-1.117,0-1.806-.689-1.806-2.127v-4.635h-1.146V255.6h1.146v-2.3l1.545-.826V255.6h1.99v1.438h-1.99v4.359c0,.75.245.964.827.964a2.515,2.515,0,0,0,1.163-.321Z"
         class="cls-2"
         id="path698" />
    </g>
    <g
       id="g700">
      <path
         d="M328.588,263.628v-4.543c0-1.622-.612-2.2-1.652-2.2-1.056,0-1.652.749-1.652,2.05v4.7h-1.576V253.3l1.576-.826v3.886a2.458,2.458,0,0,1,2.019-.934c1.866,0,2.861,1.225,2.861,3.6v4.6Z"
         class="cls-2"
         id="path702" />
    </g>
    <g
       id="g704">
      <path
         d="M337.276,257.937a2.572,2.572,0,0,0-1.882-1.055c-1.132,0-1.743.856-1.743,2.555,0,2.019.642,2.906,1.805,2.906a2.469,2.469,0,0,0,1.82-1.025Zm-.016,5.69v-.764a3.06,3.06,0,0,1-2.095.933c-1.728,0-3.09-1.254-3.09-4.313,0-2.754,1.5-4.055,3.166-4.055a2.851,2.851,0,0,1,2.019.918v-3.059l1.561-.811v11.151Z"
         class="cls-2"
         id="path706" />
    </g>
    <g
       id="g708">
      <path
         d="M287.252,370.664c-1.867,0-2.891,1.514-2.891,3.916s1.024,3.916,2.891,3.916,2.906-1.515,2.906-3.916-1.024-3.916-2.906-3.916m0,9.438c-2.769,0-4.528-2.28-4.528-5.522s1.759-5.522,4.528-5.522c2.785,0,4.544,2.279,4.544,5.522s-1.759,5.522-4.544,5.522"
         class="cls-2"
         id="path710" />
    </g>
    <g
       id="g712">
      <path
         d="M298.128,379.933h-1.7l-3.717-10.708h1.744l2.233,6.823c.2.628.5,1.576.6,1.958.092-.382.4-1.346.6-1.973l2.2-6.808H301.8Z"
         class="cls-2"
         id="path714" />
    </g>
    <g
       id="g716">
      <path
         d="M310.518,379.933l-4.268-6.715c-.261-.4-.628-1.04-.8-1.315,0,.4.016,1.881.016,2.477v5.553h-1.561V369.225h1.637l4.07,6.533c.275.443.733,1.238.886,1.514,0-.4-.015-1.927-.015-2.525v-5.522h1.56v10.708Z"
         class="cls-2"
         id="path718" />
    </g>
    <g
       id="g720">
      <path
         d="M247.157,398.456a4.961,4.961,0,0,1-3.809-1.729l1.148-1.117a3.914,3.914,0,0,0,2.784,1.27c1.5,0,2.218-.52,2.218-1.561,0-.826-.627-1.239-2.418-1.774-2.264-.674-3.35-1.238-3.35-3.151,0-1.852,1.561-2.983,3.535-2.983a4.8,4.8,0,0,1,3.5,1.453l-1.132,1.147a3.243,3.243,0,0,0-2.493-1.025c-1.254,0-1.79.612-1.79,1.332,0,.748.49,1.116,2.341,1.666,2.11.643,3.427,1.316,3.427,3.228,0,1.928-1.225,3.244-3.963,3.244"
         class="cls-2"
         id="path722" />
    </g>
    <g
       id="g724">
      <path
         d="M256.273,391.587c-1.193,0-1.928,1.056-1.928,2.647,0,1.759.811,2.723,2.005,2.723s1.973-1.209,1.973-2.678c0-1.636-.781-2.692-2.05-2.692m.016,6.869c-2.02,0-3.535-1.669-3.535-4.177,0-2.631,1.561-4.191,3.58-4.191,2.05,0,3.58,1.637,3.58,4.146,0,2.661-1.56,4.222-3.625,4.222"
         class="cls-2"
         id="path726" />
    </g>
    <g
       id="g728">
      <path
         d="M266.673,398.287v-.764a2.459,2.459,0,0,1-2.019.933c-1.866,0-2.861-1.224-2.861-3.6v-4.6h1.576V394.8c0,1.621.612,2.2,1.653,2.2s1.651-.75,1.651-2.049v-4.7h1.577v8.031Z"
         class="cls-2"
         id="path730" />
    </g>
    <g
       id="g732">
      <path
         d="M274.412,398.088a3.188,3.188,0,0,1-1.545.368c-1.116,0-1.805-.689-1.805-2.127v-4.635h-1.147v-1.438h1.147v-2.294l1.545-.827v3.121H274.6v1.438h-1.989v4.359c0,.75.245.964.827.964a2.538,2.538,0,0,0,1.162-.32Z"
         class="cls-2"
         id="path734" />
    </g>
    <g
       id="g736">
      <path
         d="M281.617,398.287v-4.543c0-1.622-.612-2.2-1.652-2.2-1.056,0-1.652.75-1.652,2.05v4.7h-1.576V387.962l1.576-.827v3.886a2.459,2.459,0,0,1,2.019-.934c1.866,0,2.861,1.225,2.861,3.6v4.6Z"
         class="cls-2"
         id="path738" />
    </g>
    <g
       id="g740">
      <path
         d="M288.82,391.541a2.467,2.467,0,0,0-1.82,1.025v3.38A2.568,2.568,0,0,0,288.881,397c1.132,0,1.744-.856,1.744-2.554,0-2.019-.642-2.907-1.805-2.907m.214,6.915a2.855,2.855,0,0,1-2.019-.918v.749h-1.56V387.946l1.56-.811v3.886a3.061,3.061,0,0,1,2.1-.933c1.728,0,3.09,1.254,3.09,4.314,0,2.753-1.5,4.054-3.167,4.054"
         class="cls-2"
         id="path742" />
    </g>
    <g
       id="g744">
      <path
         d="M297.309,391.587c-1.192,0-1.927,1.056-1.927,2.647,0,1.759.81,2.723,2,2.723s1.974-1.209,1.974-2.678c0-1.636-.781-2.692-2.05-2.692m.015,6.869c-2.019,0-3.533-1.669-3.533-4.177,0-2.631,1.56-4.191,3.579-4.191,2.05,0,3.58,1.637,3.58,4.146,0,2.661-1.561,4.222-3.626,4.222"
         class="cls-2"
         id="path746" />
    </g>
    <g
       id="g748">
      <path
         d="M307.71,398.287v-.764a2.46,2.46,0,0,1-2.019.933c-1.866,0-2.861-1.224-2.861-3.6v-4.6h1.576V394.8c0,1.621.612,2.2,1.652,2.2s1.652-.75,1.652-2.049v-4.7h1.576v8.031Z"
         class="cls-2"
         id="path750" />
    </g>
    <g
       id="g752">
      <path
         d="M316.49,398.287v-4.543c0-1.622-.612-2.2-1.653-2.2s-1.651.75-1.651,2.05v4.7H311.61v-8.031h1.576v.765a2.459,2.459,0,0,1,2.019-.934c1.866,0,2.86,1.225,2.86,3.6v4.6Z"
         class="cls-2"
         id="path754" />
    </g>
    <g
       id="g756">
      <path
         d="M325.177,392.6a2.568,2.568,0,0,0-1.881-1.055c-1.132,0-1.744.856-1.744,2.555,0,2.019.642,2.906,1.805,2.906a2.466,2.466,0,0,0,1.82-1.025Zm-.016,5.691v-.764a3.06,3.06,0,0,1-2.094.933c-1.729,0-3.091-1.254-3.091-4.314,0-2.753,1.5-4.055,3.166-4.055a2.849,2.849,0,0,1,2.019.918v-3.058l1.562-.812v11.152Z"
         class="cls-2"
         id="path758" />
    </g>
    <g
       id="g760">
      <path
         d="M336.327,389.14h-1.315v7.586h1.315c2.54,0,3.579-1.545,3.579-3.792s-1.039-3.794-3.579-3.794m0,9.147h-2.921V387.579h2.921c2.876,0,5.217,1.576,5.217,5.355s-2.417,5.353-5.217,5.353"
         class="cls-2"
         id="path762" />
    </g>
    <g
       id="g764">
      <path
         d="M348.211,393.27H345.3v3.548h2.861c1.422,0,1.943-.718,1.943-1.774a1.684,1.684,0,0,0-1.9-1.774m-.031-4.222H345.3v2.769h2.876a1.319,1.319,0,0,0,1.484-1.362,1.3,1.3,0,0,0-1.484-1.407m-.137,9.239H343.79V387.579h4.4c1.867,0,3.076.979,3.076,2.784a2.264,2.264,0,0,1-1.361,2.142,2.465,2.465,0,0,1,1.8,2.493c0,2.173-1.331,3.289-3.672,3.289"
         class="cls-2"
         id="path766" />
    </g>
  </g>
</svg>
