<?xml version="1.0" encoding="utf-8"?>
<!-- Generator: Adobe Illustrator 21.0.2, SVG Export Plug-In . SVG Version: 6.00 Build 0)  -->
<svg version="1.1" id="Layer_1" xmlns="http://www.w3.org/2000/svg" xmlns:xlink="http://www.w3.org/1999/xlink" x="0px" y="0px"
	 width="638px" height="314.5px" viewBox="0 0 638 314.5" style="enable-background:new 0 0 638 314.5;" xml:space="preserve">
<style type="text/css">
	.st0{fill:#F0F0F0;}
	.st1{fill:#FFFFFF;stroke:#FFFFFF;stroke-width:0.5;stroke-miterlimit:10;}
	.st2{fill:#DCDCDC;stroke:#FFFFFF;stroke-width:0.5;stroke-miterlimit:10;}
	.st3{fill:#969696;stroke:#FFFFFF;stroke-width:0.5;stroke-miterlimit:10;}
	.st4{fill:#0088CE;stroke:#FFFFFF;stroke-width:0.5;stroke-miterlimit:10;}
	.st5{fill:#4C4C4C;}
	.st6{fill:#FFFFFF;}
	.st7{fill:none;stroke:#4C4C4C;stroke-width:0.75;stroke-miterlimit:10;}
	.st8{fill:none;stroke:#4C4C4C;stroke-width:0.75;stroke-miterlimit:10;stroke-dasharray:2.9647,2.9647;}
	.st9{fill:none;stroke:#4C4C4C;stroke-miterlimit:10;}
</style>
<rect class="st0" width="638" height="314.5"/>
<rect x="32.3" y="69.3" class="st1" width="95.7" height="75.6"/>
<rect x="128" y="69.3" class="st2" width="95.7" height="75.6"/>
<rect x="223.7" y="69.3" class="st3" width="95.7" height="75.6"/>
<rect x="319.4" y="69.3" class="st4" width="95.7" height="75.6"/>
<rect x="415.1" y="69.3" class="st4" width="95.7" height="75.6"/>
<rect x="510.8" y="69.3" class="st4" width="95.7" height="75.6"/>
<g>
	<path class="st5" d="M46.3,103.3h-2.7v-9.8h2.7c2.6,0,4.8,1.4,4.8,4.9S48.8,103.3,46.3,103.3z M46.3,94.9H45v6.9h1.2
		c2.3,0,3.3-1.4,3.3-3.5C49.5,96.3,48.6,94.9,46.3,94.9z"/>
	<path class="st5" d="M58.8,100.1h-4.9c0.2,1.4,1,2,1.8,2c0.6,0,1.1-0.2,1.6-0.6l0.9,0.9c-0.6,0.6-1.4,1-2.5,1
		c-1.7,0-3.2-1.4-3.2-3.8c0-2.5,1.3-3.8,3.2-3.8c2.1,0,3.1,1.7,3.1,3.7C58.8,99.7,58.8,100,58.8,100.1z M55.6,97.1
		c-1,0-1.6,0.7-1.7,1.8h3.4C57.3,97.9,56.8,97.1,55.6,97.1z"/>
	<path class="st5" d="M62.9,103.4c-1,0-2.1-0.4-2.8-0.9l0.7-1.1c0.7,0.5,1.5,0.7,2.1,0.7c0.9,0,1.3-0.3,1.3-0.8
		c0-0.6-0.6-0.8-1.7-1.2c-1.6-0.6-2.2-1.1-2.2-2.3c0-1.3,1-2,2.5-2c0.9,0,1.8,0.3,2.5,0.8l-0.6,1.1c-0.6-0.4-1.2-0.6-1.9-0.6
		c-0.7,0-1,0.3-1,0.7c0,0.4,0.3,0.6,1.4,1.1c1.6,0.6,2.5,1.1,2.5,2.5C65.6,102.9,64.3,103.4,62.9,103.4z"/>
	<path class="st5" d="M70.8,103.1c-0.4,0.2-0.8,0.3-1.4,0.3c-1,0-1.7-0.6-1.7-1.9v-4.2h-1.1v-1.3h1.1v-2.1l1.4-0.8v2.9H71v1.3h-1.8
		v4c0,0.7,0.2,0.9,0.8,0.9c0.4,0,0.8-0.1,1.1-0.3L70.8,103.1z"/>
	<path class="st5" d="M73.8,95c-0.5,0-0.9-0.4-0.9-0.9c0-0.5,0.4-0.9,0.9-0.9c0.5,0,0.9,0.4,0.9,0.9C74.7,94.5,74.3,95,73.8,95z
		 M73,103.3v-7.4h1.4v7.4H73z"/>
	<path class="st5" d="M81.2,103.3v-4.2c0-1.5-0.6-2-1.5-2c-1,0-1.5,0.7-1.5,1.9v4.3h-1.4v-7.4h1.4v0.7c0.4-0.5,1.1-0.9,1.8-0.9
		c1.7,0,2.6,1.1,2.6,3.3v4.2H81.2z"/>
	<path class="st5" d="M88.9,103.3v-0.7c-0.5,0.5-1.2,0.9-2,0.9c-1.2,0-2.5-0.7-2.5-2.5c0-1.6,1.3-2.4,2.9-2.4c0.7,0,1.2,0.1,1.6,0.3
		v-0.5c0-0.8-0.5-1.2-1.4-1.2c-0.8,0-1.3,0.1-1.9,0.5L85,96.4c0.7-0.4,1.5-0.7,2.5-0.7c1.6,0,2.8,0.8,2.8,2.5v5H88.9z M88.9,100.1
		c-0.4-0.2-0.9-0.3-1.7-0.3c-0.9,0-1.5,0.4-1.5,1.1c0,0.7,0.5,1.2,1.4,1.2c0.8,0,1.4-0.5,1.8-0.9V100.1z"/>
	<path class="st5" d="M95.9,103.1c-0.4,0.2-0.8,0.3-1.4,0.3c-1,0-1.7-0.6-1.7-1.9v-4.2h-1.1v-1.3h1.1v-2.1l1.4-0.8v2.9H96v1.3h-1.8
		v4c0,0.7,0.2,0.9,0.8,0.9c0.4,0,0.8-0.1,1.1-0.3L95.9,103.1z"/>
	<path class="st5" d="M98.8,95c-0.5,0-0.9-0.4-0.9-0.9c0-0.5,0.4-0.9,0.9-0.9c0.5,0,0.9,0.4,0.9,0.9C99.7,94.5,99.3,95,98.8,95z
		 M98.1,103.3v-7.4h1.4v7.4H98.1z"/>
	<path class="st5" d="M104.6,103.4c-1.8,0-3.2-1.5-3.2-3.8c0-2.4,1.4-3.8,3.3-3.8c1.9,0,3.3,1.5,3.3,3.8
		C107.9,102,106.5,103.4,104.6,103.4z M104.6,97.1c-1.1,0-1.8,1-1.8,2.4c0,1.6,0.7,2.5,1.8,2.5c1.1,0,1.8-1.1,1.8-2.5
		C106.5,98.1,105.8,97.1,104.6,97.1z"/>
	<path class="st5" d="M114.2,103.3v-4.2c0-1.5-0.6-2-1.5-2c-1,0-1.5,0.7-1.5,1.9v4.3h-1.4v-7.4h1.4v0.7c0.4-0.5,1.1-0.9,1.8-0.9
		c1.7,0,2.6,1.1,2.6,3.3v4.2H114.2z"/>
	<path class="st5" d="M50,120.1l-0.8-2.3h-3.9l-0.8,2.3H43l3.5-9.8H48l3.6,9.8H50z M48,114.2c-0.2-0.7-0.6-1.8-0.7-2.3
		c-0.1,0.4-0.5,1.5-0.7,2.3l-0.8,2.2h3L48,114.2z"/>
	<path class="st5" d="M57.6,120.1v-0.7c-0.5,0.5-1.1,0.9-1.9,0.9c-1.6,0-2.8-1.1-2.8-4c0-2.5,1.4-3.7,2.9-3.7c0.7,0,1.4,0.4,1.8,0.8
		v-2.8l1.4-0.7v10.2H57.6z M57.6,114.9c-0.3-0.4-1-1-1.7-1c-1,0-1.6,0.8-1.6,2.3c0,1.8,0.6,2.7,1.7,2.7c0.7,0,1.3-0.5,1.7-0.9V114.9
		z"/>
	<path class="st5" d="M65.5,120.1v-0.7c-0.5,0.5-1.1,0.9-1.9,0.9c-1.6,0-2.8-1.1-2.8-4c0-2.5,1.4-3.7,2.9-3.7c0.7,0,1.4,0.4,1.8,0.8
		v-2.8l1.4-0.7v10.2H65.5z M65.5,114.9c-0.3-0.4-1-1-1.7-1c-1,0-1.6,0.8-1.6,2.3c0,1.8,0.6,2.7,1.7,2.7c0.7,0,1.3-0.5,1.7-0.9V114.9
		z"/>
	<path class="st5" d="M73.1,114.2c-0.3-0.2-0.6-0.3-1.1-0.3c-0.9,0-1.4,0.6-1.4,1.9v4.2h-1.4v-7.4h1.4v0.7c0.3-0.5,1-0.9,1.7-0.9
		c0.6,0,1,0.1,1.2,0.3L73.1,114.2z"/>
	<path class="st5" d="M80.5,116.9h-4.9c0.2,1.4,1,2,1.8,2c0.6,0,1.1-0.2,1.6-0.6l0.9,0.9c-0.6,0.6-1.4,1-2.5,1
		c-1.7,0-3.2-1.4-3.2-3.8c0-2.5,1.3-3.8,3.2-3.8c2.1,0,3.1,1.7,3.1,3.7C80.6,116.5,80.5,116.7,80.5,116.9z M77.4,113.9
		c-1,0-1.6,0.7-1.7,1.8h3.4C79,114.7,78.6,113.9,77.4,113.9z"/>
	<path class="st5" d="M84.6,120.2c-1,0-2.1-0.4-2.8-0.9l0.7-1.1c0.7,0.5,1.5,0.7,2.1,0.7c0.9,0,1.3-0.3,1.3-0.8
		c0-0.6-0.6-0.8-1.7-1.2c-1.6-0.6-2.2-1.1-2.2-2.3c0-1.3,1-2,2.5-2c0.9,0,1.8,0.3,2.5,0.8l-0.6,1.1c-0.6-0.4-1.2-0.6-1.9-0.6
		c-0.7,0-1,0.3-1,0.7c0,0.4,0.3,0.6,1.4,1.1c1.6,0.6,2.5,1.1,2.5,2.5C87.3,119.7,86,120.2,84.6,120.2z"/>
	<path class="st5" d="M91.4,120.2c-1,0-2.1-0.4-2.8-0.9l0.7-1.1c0.7,0.5,1.5,0.7,2.1,0.7c0.9,0,1.3-0.3,1.3-0.8
		c0-0.6-0.6-0.8-1.7-1.2c-1.6-0.6-2.2-1.1-2.2-2.3c0-1.3,1-2,2.5-2c0.9,0,1.8,0.3,2.5,0.8l-0.6,1.1c-0.6-0.4-1.2-0.6-1.9-0.6
		c-0.7,0-1,0.3-1,0.7c0,0.4,0.3,0.6,1.4,1.1c1.6,0.6,2.5,1.1,2.5,2.5C94.2,119.7,92.9,120.2,91.4,120.2z"/>
</g>
<g>
	<path class="st5" d="M140.5,103.4c-1.4,0-2.7-0.6-3.5-1.6l1.1-1c0.7,0.7,1.6,1.2,2.5,1.2c1.4,0,2-0.5,2-1.4c0-0.8-0.6-1.1-2.2-1.6
		c-2.1-0.6-3.1-1.1-3.1-2.9c0-1.7,1.4-2.7,3.2-2.7c1.3,0,2.3,0.5,3.2,1.3l-1,1.1c-0.6-0.6-1.3-0.9-2.3-0.9c-1.1,0-1.6,0.6-1.6,1.2
		c0,0.7,0.4,1,2.1,1.5c1.9,0.6,3.1,1.2,3.1,3C144.1,102.2,143,103.4,140.5,103.4z"/>
	<path class="st5" d="M148.9,103.4c-1.8,0-3.2-1.5-3.2-3.8c0-2.4,1.4-3.8,3.3-3.8c1.9,0,3.3,1.5,3.3,3.8
		C152.2,102,150.8,103.4,148.9,103.4z M148.9,97.1c-1.1,0-1.8,1-1.8,2.4c0,1.6,0.7,2.5,1.8,2.5c1.1,0,1.8-1.1,1.8-2.5
		C150.7,98.1,150,97.1,148.9,97.1z"/>
	<path class="st5" d="M158.4,103.3v-0.7c-0.4,0.5-1.1,0.9-1.8,0.9c-1.7,0-2.6-1.1-2.6-3.3v-4.2h1.4v4.2c0,1.5,0.6,2,1.5,2
		c1,0,1.5-0.7,1.5-1.9v-4.3h1.4v7.4H158.4z"/>
	<path class="st5" d="M165.9,97.4c-0.3-0.2-0.6-0.3-1.1-0.3c-0.9,0-1.4,0.6-1.4,1.9v4.2h-1.4v-7.4h1.4v0.7c0.3-0.5,1-0.9,1.7-0.9
		c0.6,0,1,0.1,1.2,0.3L165.9,97.4z"/>
	<path class="st5" d="M172.1,98c-0.6-0.6-1.1-0.9-1.8-0.9c-1.1,0-1.7,0.9-1.7,2.4c0,1.4,0.6,2.5,1.8,2.5c0.7,0,1.1-0.3,1.7-0.9
		l0.9,0.9c-0.6,0.7-1.3,1.4-2.6,1.4c-1.8,0-3.2-1.5-3.2-3.8c0-2.4,1.4-3.9,3.2-3.9c1.1,0,1.9,0.4,2.6,1.2L172.1,98z"/>
	<path class="st5" d="M180.4,100.1h-4.9c0.2,1.4,1,2,1.8,2c0.6,0,1.1-0.2,1.6-0.6l0.9,0.9c-0.6,0.6-1.4,1-2.5,1
		c-1.7,0-3.2-1.4-3.2-3.8c0-2.5,1.3-3.8,3.2-3.8c2.1,0,3.1,1.7,3.1,3.7C180.5,99.7,180.5,100,180.4,100.1z M177.3,97.1
		c-1,0-1.6,0.7-1.7,1.8h3.4C179,97.9,178.5,97.1,177.3,97.1z"/>
	<path class="st5" d="M144,120.1l-0.8-2.3h-3.9l-0.8,2.3H137l3.5-9.8h1.6l3.6,9.8H144z M142,114.2c-0.2-0.7-0.6-1.8-0.7-2.3
		c-0.1,0.4-0.5,1.5-0.7,2.3l-0.8,2.2h3L142,114.2z"/>
	<path class="st5" d="M151.6,120.1v-0.7c-0.5,0.5-1.1,0.9-1.9,0.9c-1.6,0-2.8-1.1-2.8-4c0-2.5,1.4-3.7,2.9-3.7
		c0.7,0,1.4,0.4,1.8,0.8v-2.8l1.4-0.7v10.2H151.6z M151.6,114.9c-0.3-0.4-1-1-1.7-1c-1,0-1.6,0.8-1.6,2.3c0,1.8,0.6,2.7,1.7,2.7
		c0.7,0,1.3-0.5,1.7-0.9V114.9z"/>
	<path class="st5" d="M159.5,120.1v-0.7c-0.5,0.5-1.1,0.9-1.9,0.9c-1.6,0-2.8-1.1-2.8-4c0-2.5,1.4-3.7,2.9-3.7
		c0.7,0,1.4,0.4,1.8,0.8v-2.8l1.4-0.7v10.2H159.5z M159.5,114.9c-0.3-0.4-1-1-1.7-1c-1,0-1.6,0.8-1.6,2.3c0,1.8,0.6,2.7,1.7,2.7
		c0.7,0,1.3-0.5,1.7-0.9V114.9z"/>
	<path class="st5" d="M167.1,114.2c-0.3-0.2-0.6-0.3-1.1-0.3c-0.9,0-1.4,0.6-1.4,1.9v4.2h-1.4v-7.4h1.4v0.7c0.3-0.5,1-0.9,1.7-0.9
		c0.6,0,1,0.1,1.2,0.3L167.1,114.2z"/>
	<path class="st5" d="M174.5,116.9h-4.9c0.2,1.4,1,2,1.8,2c0.6,0,1.1-0.2,1.6-0.6l0.9,0.9c-0.6,0.6-1.4,1-2.5,1
		c-1.7,0-3.2-1.4-3.2-3.8c0-2.5,1.3-3.8,3.2-3.8c2.1,0,3.1,1.7,3.1,3.7C174.6,116.5,174.5,116.7,174.5,116.9z M171.4,113.9
		c-1,0-1.6,0.7-1.7,1.8h3.4C173,114.7,172.6,113.9,171.4,113.9z"/>
	<path class="st5" d="M178.6,120.2c-1,0-2.1-0.4-2.8-0.9l0.7-1.1c0.7,0.5,1.5,0.7,2.1,0.7c0.9,0,1.3-0.3,1.3-0.8
		c0-0.6-0.6-0.8-1.7-1.2c-1.6-0.6-2.2-1.1-2.2-2.3c0-1.3,1-2,2.5-2c0.9,0,1.8,0.3,2.5,0.8l-0.6,1.1c-0.6-0.4-1.2-0.6-1.9-0.6
		c-0.7,0-1,0.3-1,0.7c0,0.4,0.3,0.6,1.4,1.1c1.6,0.6,2.5,1.1,2.5,2.5C181.3,119.7,180,120.2,178.6,120.2z"/>
	<path class="st5" d="M185.4,120.2c-1,0-2.1-0.4-2.8-0.9l0.7-1.1c0.7,0.5,1.5,0.7,2.1,0.7c0.9,0,1.3-0.3,1.3-0.8
		c0-0.6-0.6-0.8-1.7-1.2c-1.6-0.6-2.2-1.1-2.2-2.3c0-1.3,1-2,2.5-2c0.9,0,1.8,0.3,2.5,0.8l-0.6,1.1c-0.6-0.4-1.2-0.6-1.9-0.6
		c-0.7,0-1,0.3-1,0.7c0,0.4,0.3,0.6,1.4,1.1c1.6,0.6,2.5,1.1,2.5,2.5C188.2,119.7,186.9,120.2,185.4,120.2z"/>
</g>
<g>
	<path class="st5" d="M105.9,198.1v-7.5h-1.7v-1c1-0.1,1.8-0.4,2-1.3h1.2v9.8H105.9z"/>
	<path class="st5" d="M117.7,198.1h-3.9v-9.8h4c1.7,0,2.8,0.9,2.8,2.5c0,1-0.5,1.6-1.2,2c0.8,0.2,1.7,0.9,1.7,2.3
		C121,197.1,119.8,198.1,117.7,198.1z M117.8,189.6h-2.6v2.5h2.6c1,0,1.4-0.6,1.4-1.2C119.2,190.2,118.8,189.6,117.8,189.6z
		 M117.8,193.5h-2.7v3.2h2.6c1.3,0,1.8-0.7,1.8-1.6C119.6,194.1,118.9,193.5,117.8,193.5z"/>
	<path class="st5" d="M125.2,200.7h-1.5l1.1-2.7l-2.7-7.2h1.6l1.2,3.6c0.2,0.6,0.6,1.7,0.6,2.1c0.1-0.4,0.4-1.5,0.7-2.1l1.2-3.6h1.5
		L125.2,200.7z"/>
	<path class="st5" d="M133.9,197.9c-0.4,0.2-0.8,0.3-1.4,0.3c-1,0-1.7-0.6-1.7-1.9v-4.2h-1.1v-1.3h1.1v-2.1l1.4-0.8v2.9h1.8v1.3
		h-1.8v4c0,0.7,0.2,0.9,0.8,0.9c0.4,0,0.8-0.1,1.1-0.3L133.9,197.9z"/>
	<path class="st5" d="M141.7,194.9h-4.9c0.2,1.4,1,2,1.8,2c0.6,0,1.1-0.2,1.6-0.6l0.9,0.9c-0.6,0.6-1.4,1-2.5,1
		c-1.7,0-3.2-1.4-3.2-3.8c0-2.5,1.3-3.8,3.2-3.8c2.1,0,3.1,1.7,3.1,3.7C141.8,194.5,141.7,194.8,141.7,194.9z M138.6,191.9
		c-1,0-1.6,0.7-1.7,1.8h3.4C140.2,192.7,139.8,191.9,138.6,191.9z"/>
	<path class="st5" d="M145.8,198.3c-1,0-2.1-0.4-2.8-0.9l0.7-1.1c0.7,0.5,1.5,0.7,2.1,0.7c0.9,0,1.3-0.3,1.3-0.8
		c0-0.6-0.6-0.8-1.7-1.2c-1.6-0.6-2.2-1.1-2.2-2.3c0-1.3,1-2,2.5-2c0.9,0,1.8,0.3,2.5,0.8l-0.6,1.1c-0.6-0.4-1.2-0.6-1.9-0.6
		c-0.7,0-1,0.3-1,0.7c0,0.4,0.3,0.6,1.4,1.1c1.6,0.6,2.5,1.1,2.5,2.5C148.5,197.7,147.2,198.3,145.8,198.3z"/>
</g>
<g>
	<path class="st5" d="M253.9,38.2v2.2h-1.4v-2.2h-5.3v-1.4l5.1-6.2h1.7v6.3h1.3v1.3H253.9z M251.6,33.4l-1.9,2.4
		c-0.3,0.4-0.7,0.9-0.9,1.1c0.3,0,1.1,0,1.6,0h2.1V34c0-0.6,0-1.4,0-1.8C252.3,32.5,251.9,33,251.6,33.4z"/>
	<path class="st5" d="M264.9,40.4H261v-9.8h4c1.7,0,2.8,0.9,2.8,2.5c0,1-0.5,1.6-1.2,2c0.8,0.2,1.7,0.9,1.7,2.3
		C268.2,39.3,267,40.4,264.9,40.4z M265,31.9h-2.6v2.5h2.6c1,0,1.4-0.6,1.4-1.2C266.4,32.5,266,31.9,265,31.9z M265,35.8h-2.7V39
		h2.6c1.3,0,1.8-0.7,1.8-1.6C266.8,36.4,266.1,35.8,265,35.8z"/>
	<path class="st5" d="M272.4,42.9h-1.5l1.1-2.7l-2.7-7.2h1.6l1.2,3.6c0.2,0.6,0.6,1.7,0.6,2.1c0.1-0.4,0.4-1.5,0.7-2.1l1.2-3.6h1.5
		L272.4,42.9z"/>
	<path class="st5" d="M281.1,40.2c-0.4,0.2-0.8,0.3-1.4,0.3c-1,0-1.7-0.6-1.7-1.9v-4.2H277V33h1.1v-2.1l1.4-0.8V33h1.8v1.3h-1.8v4
		c0,0.7,0.2,0.9,0.8,0.9c0.4,0,0.8-0.1,1.1-0.3L281.1,40.2z"/>
	<path class="st5" d="M288.9,37.2H284c0.2,1.4,1,2,1.8,2c0.6,0,1.1-0.2,1.6-0.6l0.9,0.9c-0.6,0.6-1.4,1-2.5,1
		c-1.7,0-3.2-1.4-3.2-3.8c0-2.5,1.3-3.8,3.2-3.8c2.1,0,3.1,1.7,3.1,3.7C288.9,36.8,288.9,37,288.9,37.2z M285.8,34.2
		c-1,0-1.6,0.7-1.7,1.8h3.4C287.4,35,286.9,34.2,285.8,34.2z"/>
	<path class="st5" d="M293,40.5c-1,0-2.1-0.4-2.8-0.9l0.7-1.1c0.7,0.5,1.5,0.7,2.1,0.7c0.9,0,1.3-0.3,1.3-0.8c0-0.6-0.6-0.8-1.7-1.2
		c-1.6-0.6-2.2-1.1-2.2-2.3c0-1.3,1-2,2.5-2c0.9,0,1.8,0.3,2.5,0.8l-0.6,1.1c-0.6-0.4-1.2-0.6-1.9-0.6c-0.7,0-1,0.3-1,0.7
		c0,0.4,0.3,0.6,1.4,1.1c1.6,0.6,2.5,1.1,2.5,2.5C295.7,40,294.4,40.5,293,40.5z"/>
</g>
<g>
	<path class="st5" d="M212.9,198.1c0.1-2.9,1.8-4.1,3.8-5.3c1.3-0.8,1.7-1.2,1.7-1.9c0-0.8-0.5-1.3-1.9-1.3c-0.8,0-1.7,0.4-2.4,1
		l-0.9-1.1c0.9-0.8,2.1-1.3,3.3-1.3c2,0,3.3,0.9,3.3,2.7c0,1.5-0.7,2.2-2.5,3.2c-1.9,1.1-2.4,1.7-2.6,2.7h5.2v1.4H212.9z"/>
	<path class="st5" d="M230,198.1h-3.9v-9.8h4c1.7,0,2.8,0.9,2.8,2.5c0,1-0.5,1.6-1.2,2c0.8,0.2,1.7,0.9,1.7,2.3
		C233.4,197.1,232.2,198.1,230,198.1z M230.2,189.6h-2.6v2.5h2.6c1,0,1.4-0.6,1.4-1.2C231.5,190.2,231.1,189.6,230.2,189.6z
		 M230.2,193.5h-2.7v3.2h2.6c1.3,0,1.8-0.7,1.8-1.6C231.9,194.1,231.3,193.5,230.2,193.5z"/>
	<path class="st5" d="M237.6,200.7H236l1.1-2.7l-2.7-7.2h1.6l1.2,3.6c0.2,0.6,0.6,1.7,0.6,2.1c0.1-0.4,0.4-1.5,0.7-2.1l1.2-3.6h1.5
		L237.6,200.7z"/>
	<path class="st5" d="M246.3,197.9c-0.4,0.2-0.8,0.3-1.4,0.3c-1,0-1.7-0.6-1.7-1.9v-4.2h-1.1v-1.3h1.1v-2.1l1.4-0.8v2.9h1.8v1.3
		h-1.8v4c0,0.7,0.2,0.9,0.8,0.9c0.4,0,0.8-0.1,1.1-0.3L246.3,197.9z"/>
	<path class="st5" d="M254.1,194.9h-4.9c0.2,1.4,1,2,1.8,2c0.6,0,1.1-0.2,1.6-0.6l0.9,0.9c-0.6,0.6-1.4,1-2.5,1
		c-1.7,0-3.2-1.4-3.2-3.8c0-2.5,1.3-3.8,3.2-3.8c2.1,0,3.1,1.7,3.1,3.7C254.1,194.5,254.1,194.8,254.1,194.9z M250.9,191.9
		c-1,0-1.6,0.7-1.7,1.8h3.4C252.6,192.7,252.1,191.9,250.9,191.9z"/>
	<path class="st5" d="M258.1,198.3c-1,0-2.1-0.4-2.8-0.9l0.7-1.1c0.7,0.5,1.5,0.7,2.1,0.7c0.9,0,1.3-0.3,1.3-0.8
		c0-0.6-0.6-0.8-1.7-1.2c-1.6-0.6-2.2-1.1-2.2-2.3c0-1.3,1-2,2.5-2c0.9,0,1.8,0.3,2.5,0.8l-0.6,1.1c-0.6-0.4-1.2-0.6-1.9-0.6
		c-0.7,0-1,0.3-1,0.7c0,0.4,0.3,0.6,1.4,1.1c1.6,0.6,2.5,1.1,2.5,2.5C260.9,197.7,259.6,198.3,258.1,198.3z"/>
	<path class="st5" d="M269,199.6c-1.4-1.3-2.7-3.2-2.7-5.7c0-2.6,1.3-4.5,2.7-5.8l0.7,0.6c-1.2,1.4-1.9,3-1.9,5.1
		c0,2.3,0.7,3.8,1.9,5.2L269,199.6z"/>
	<path class="st5" d="M275.4,189.7v8.4h-1.5v-8.4h-2.9v-1.4h7.2v1.4H275.4z"/>
	<path class="st5" d="M282.4,198.1v-0.7c-0.5,0.5-1.2,0.9-2,0.9c-1.2,0-2.5-0.7-2.5-2.5c0-1.6,1.3-2.4,2.9-2.4
		c0.7,0,1.2,0.1,1.6,0.3v-0.5c0-0.8-0.5-1.2-1.4-1.2c-0.8,0-1.3,0.1-1.9,0.5l-0.6-1.1c0.7-0.4,1.5-0.7,2.5-0.7
		c1.6,0,2.8,0.8,2.8,2.5v5H282.4z M282.4,195c-0.4-0.2-0.9-0.3-1.7-0.3c-0.9,0-1.5,0.4-1.5,1.1c0,0.7,0.5,1.2,1.4,1.2
		c0.8,0,1.4-0.5,1.8-0.9V195z"/>
	<path class="st5" d="M288.3,200.8l-0.5-1.1c2.1-0.1,2.5-0.7,2.5-2.2v-0.1c-0.5,0.5-1.1,0.9-1.9,0.9c-1.6,0-2.8-1.1-2.8-4
		c0-2.5,1.4-3.7,2.9-3.7c0.7,0,1.4,0.4,1.8,0.8v-0.7h1.4v6.7C291.8,199.6,291,200.7,288.3,200.8z M290.4,192.9c-0.3-0.4-1-1-1.7-1
		c-1,0-1.6,0.8-1.6,2.3c0,1.8,0.6,2.7,1.7,2.7c0.7,0,1.3-0.5,1.7-0.9V192.9z"/>
	<path class="st5" d="M301.6,198.3c-2.5,0-4.1-2.1-4.1-5.1s1.6-5.1,4.1-5.1c1.6,0,2.7,0.6,3.3,1.8l-1.3,0.8c-0.5-0.8-1-1.2-2-1.2
		c-1.7,0-2.6,1.4-2.6,3.6s0.9,3.6,2.6,3.6c1,0,1.7-0.4,2.2-1.2l1.2,0.8C304.2,197.6,303,198.3,301.6,198.3z"/>
	<path class="st5" d="M309.4,198.3c-1.8,0-3.2-1.5-3.2-3.8c0-2.4,1.4-3.8,3.3-3.8c1.9,0,3.3,1.5,3.3,3.8
		C312.8,196.8,311.3,198.3,309.4,198.3z M309.4,192c-1.1,0-1.8,1-1.8,2.4c0,1.6,0.7,2.5,1.8,2.5c1.1,0,1.8-1.1,1.8-2.5
		C311.3,192.9,310.6,192,309.4,192z"/>
	<path class="st5" d="M319,198.1v-4.2c0-1.5-0.6-2-1.5-2c-1,0-1.5,0.7-1.5,1.9v4.3h-1.4v-7.4h1.4v0.7c0.4-0.5,1.1-0.9,1.8-0.9
		c1.7,0,2.6,1.1,2.6,3.3v4.2H319z"/>
	<path class="st5" d="M326,197.9c-0.4,0.2-0.8,0.3-1.4,0.3c-1,0-1.7-0.6-1.7-1.9v-4.2h-1.1v-1.3h1.1v-2.1l1.4-0.8v2.9h1.8v1.3h-1.8
		v4c0,0.7,0.2,0.9,0.8,0.9c0.4,0,0.8-0.1,1.1-0.3L326,197.9z"/>
	<path class="st5" d="M332.1,192.3c-0.3-0.2-0.6-0.3-1.1-0.3c-0.9,0-1.4,0.6-1.4,1.9v4.2h-1.4v-7.4h1.4v0.7c0.3-0.5,1-0.9,1.7-0.9
		c0.6,0,1,0.1,1.2,0.3L332.1,192.3z"/>
	<path class="st5" d="M336.5,198.3c-1.8,0-3.2-1.5-3.2-3.8c0-2.4,1.4-3.8,3.3-3.8c1.9,0,3.3,1.5,3.3,3.8
		C339.8,196.8,338.4,198.3,336.5,198.3z M336.5,192c-1.1,0-1.8,1-1.8,2.4c0,1.6,0.7,2.5,1.8,2.5s1.8-1.1,1.8-2.5
		C338.3,192.9,337.6,192,336.5,192z"/>
	<path class="st5" d="M341.6,198.1v-9.5l1.4-0.8v10.2H341.6z"/>
	<path class="st5" d="M349.3,198.1v-9.8h1.5v9.8H349.3z"/>
	<path class="st5" d="M357.7,198.1v-4.2c0-1.5-0.6-2-1.5-2c-1,0-1.5,0.7-1.5,1.9v4.3h-1.4v-7.4h1.4v0.7c0.4-0.5,1.1-0.9,1.8-0.9
		c1.7,0,2.6,1.1,2.6,3.3v4.2H357.7z"/>
	<path class="st5" d="M363.6,189.2c-0.5,0-0.7,0.2-0.7,0.7v0.8h1.4v1.3h-1.4v6h-1.4v-6h-1v-1.3h1v-1c0-1.3,0.8-1.8,1.9-1.8
		c0.4,0,0.8,0.1,1.1,0.1v1.3C364.1,189.2,363.9,189.2,363.6,189.2z"/>
	<path class="st5" d="M368.6,198.3c-1.8,0-3.2-1.5-3.2-3.8c0-2.4,1.4-3.8,3.3-3.8c1.9,0,3.3,1.5,3.3,3.8
		C372,196.8,370.5,198.3,368.6,198.3z M368.6,192c-1.1,0-1.8,1-1.8,2.4c0,1.6,0.7,2.5,1.8,2.5c1.1,0,1.8-1.1,1.8-2.5
		C370.5,192.9,369.8,192,368.6,192z"/>
	<path class="st5" d="M377.7,192.3c-0.3-0.2-0.6-0.3-1.1-0.3c-0.9,0-1.4,0.6-1.4,1.9v4.2h-1.4v-7.4h1.4v0.7c0.3-0.5,1-0.9,1.7-0.9
		c0.6,0,1,0.1,1.2,0.3L377.7,192.3z"/>
	<path class="st5" d="M388.1,198.1v-4.2c0-1.5-0.5-2-1.4-2c-1,0-1.4,0.7-1.4,1.9v4.3h-1.4v-4.2c0-1.5-0.5-2-1.4-2
		c-1,0-1.4,0.7-1.4,1.9v4.3h-1.4v-7.4h1.4v0.7c0.4-0.5,1-0.9,1.8-0.9c1,0,1.6,0.4,2,1.1c0.5-0.7,1.1-1.1,2.3-1.1
		c1.7,0,2.5,1.1,2.5,3.3v4.2H388.1z"/>
	<path class="st5" d="M395.9,198.1v-0.7c-0.5,0.5-1.2,0.9-2,0.9c-1.2,0-2.5-0.7-2.5-2.5c0-1.6,1.3-2.4,2.9-2.4
		c0.7,0,1.2,0.1,1.6,0.3v-0.5c0-0.8-0.5-1.2-1.4-1.2c-0.8,0-1.3,0.1-1.9,0.5l-0.6-1.1c0.7-0.4,1.5-0.7,2.5-0.7
		c1.6,0,2.8,0.8,2.8,2.5v5H395.9z M395.9,195c-0.4-0.2-0.9-0.3-1.7-0.3c-0.9,0-1.5,0.4-1.5,1.1c0,0.7,0.5,1.2,1.4,1.2
		c0.8,0,1.4-0.5,1.8-0.9V195z"/>
	<path class="st5" d="M402.9,197.9c-0.4,0.2-0.8,0.3-1.4,0.3c-1,0-1.7-0.6-1.7-1.9v-4.2h-1.1v-1.3h1.1v-2.1l1.4-0.8v2.9h1.8v1.3
		h-1.8v4c0,0.7,0.2,0.9,0.8,0.9c0.4,0,0.8-0.1,1.1-0.3L402.9,197.9z"/>
	<path class="st5" d="M405.8,189.8c-0.5,0-0.9-0.4-0.9-0.9c0-0.5,0.4-0.9,0.9-0.9c0.5,0,0.9,0.4,0.9,0.9
		C406.7,189.4,406.3,189.8,405.8,189.8z M405.1,198.1v-7.4h1.4v7.4H405.1z"/>
	<path class="st5" d="M411.6,198.3c-1.8,0-3.2-1.5-3.2-3.8c0-2.4,1.4-3.8,3.3-3.8c1.9,0,3.3,1.5,3.3,3.8
		C414.9,196.8,413.5,198.3,411.6,198.3z M411.6,192c-1.1,0-1.8,1-1.8,2.4c0,1.6,0.7,2.5,1.8,2.5c1.1,0,1.8-1.1,1.8-2.5
		C413.4,192.9,412.7,192,411.6,192z"/>
	<path class="st5" d="M421.1,198.1v-4.2c0-1.5-0.6-2-1.5-2c-1,0-1.5,0.7-1.5,1.9v4.3h-1.4v-7.4h1.4v0.7c0.4-0.5,1.1-0.9,1.8-0.9
		c1.7,0,2.6,1.1,2.6,3.3v4.2H421.1z"/>
	<path class="st5" d="M424.6,199.6l-0.7-0.6c1.2-1.4,1.9-3,1.9-5.1c0-2.3-0.7-3.8-1.9-5.2l0.7-0.6c1.4,1.3,2.7,3.2,2.7,5.7
		C427.4,196.4,426.1,198.3,424.6,199.6z"/>
</g>
<g>
	<path class="st6" d="M238,103.4c-2.4,0-3.8-1.1-3.8-3c0-1.2,0.6-2,1.7-2.4c-1-0.4-1.3-1.3-1.3-1.9c0-1.9,1.5-2.8,3.4-2.8
		c1.8,0,3.4,0.9,3.4,2.7c0,0.6-0.3,1.5-1.3,1.9c1.1,0.4,1.7,1.2,1.7,2.4C241.8,102.3,240.3,103.4,238,103.4z M238,98.8
		c-1.6,0-2.4,0.6-2.4,1.6c0,1,0.9,1.7,2.4,1.7c1.6,0,2.4-0.7,2.4-1.6C240.4,99.4,239.6,98.8,238,98.8z M238,94.7
		c-1.4,0-1.9,0.6-1.9,1.4c0,0.8,0.7,1.3,2,1.3c1.3,0,1.9-0.6,1.9-1.3C239.9,95.4,239.4,94.7,238,94.7z"/>
	<path class="st6" d="M247.3,103.4c-2.5,0-3.9-2.1-3.9-5s1.3-5.1,3.9-5.1c2.5,0,3.9,2.1,3.9,5S249.8,103.4,247.3,103.4z M247.3,94.7
		c-1.7,0-2.4,1.6-2.4,3.6c0,2.1,0.7,3.6,2.4,3.6c1.7,0,2.4-1.6,2.4-3.6C249.7,96.3,249,94.7,247.3,94.7z"/>
	<path class="st6" d="M252.4,103.3c0.1-2.9,1.8-4.1,3.8-5.3c1.3-0.8,1.7-1.2,1.7-1.9c0-0.8-0.5-1.3-1.9-1.3c-0.8,0-1.7,0.4-2.4,1
		l-0.9-1.1c0.9-0.8,2.1-1.3,3.3-1.3c2,0,3.3,0.9,3.3,2.7c0,1.5-0.7,2.2-2.5,3.2c-1.9,1.1-2.4,1.7-2.6,2.7h5.2v1.4H252.4z"/>
	<path class="st6" d="M262.3,103.4c-0.6,0-1.1-0.5-1.1-1.1c0-0.6,0.5-1.1,1.1-1.1c0.6,0,1.1,0.5,1.1,1.1
		C263.4,102.9,262.9,103.4,262.3,103.4z"/>
	<path class="st6" d="M265.5,103.3v-7.5h-1.7v-1c1-0.1,1.8-0.4,2-1.3h1.2v9.8H265.5z"/>
	<path class="st6" d="M275.9,102.4l0.7,1l-1.2,0.8l-0.7-1c-0.4,0.2-0.9,0.3-1.4,0.3c-2.5,0-4.1-2.1-4.1-5.1s1.6-5.1,4.1-5.1
		c2.5,0,4.2,2.1,4.2,5.1C277.4,100.1,276.8,101.5,275.9,102.4z M273.2,94.8c-1.7,0-2.6,1.4-2.6,3.6s0.9,3.6,2.6,3.6
		c0.3,0,0.5,0,0.7-0.1l-0.7-1.1l1.2-0.8l0.7,1.1c0.6-0.6,0.8-1.6,0.8-2.8C275.9,96.2,275,94.8,273.2,94.8z"/>
	<path class="st6" d="M238.9,120.1h-1.6l-3.4-9.8h1.6l2,6.2c0.2,0.6,0.5,1.4,0.5,1.8c0.1-0.4,0.4-1.2,0.5-1.8l2-6.2h1.6L238.9,120.1
		z"/>
	<path class="st6" d="M244.2,120.1v-9.8h1.5v8.4h4.9v1.4H244.2z"/>
	<path class="st6" d="M259,120.1l-0.8-2.3h-3.9l-0.8,2.3h-1.5l3.5-9.8h1.6l3.6,9.8H259z M256.9,114.2c-0.2-0.7-0.6-1.8-0.7-2.3
		c-0.1,0.4-0.5,1.5-0.7,2.3l-0.8,2.2h3L256.9,114.2z"/>
	<path class="st6" d="M268.6,120.1l-3.9-6.1c-0.2-0.4-0.6-1-0.7-1.2c0,0.4,0,1.7,0,2.3v5.1h-1.4v-9.8h1.5l3.7,6
		c0.3,0.4,0.7,1.1,0.8,1.4c0-0.4,0-1.8,0-2.3v-5.1h1.4v9.8H268.6z"/>
	<path class="st6" d="M280,111.7v8.4h-1.5v-8.4h-2.9v-1.4h7.2v1.4H280z"/>
	<path class="st6" d="M287,120.1v-0.7c-0.5,0.5-1.2,0.9-2,0.9c-1.2,0-2.5-0.7-2.5-2.5c0-1.6,1.3-2.4,2.9-2.4c0.7,0,1.2,0.1,1.6,0.3
		v-0.5c0-0.8-0.5-1.2-1.4-1.2c-0.8,0-1.3,0.1-1.9,0.5l-0.6-1.1c0.7-0.4,1.5-0.7,2.5-0.7c1.6,0,2.8,0.8,2.8,2.5v5H287z M287,116.9
		c-0.4-0.2-0.9-0.3-1.7-0.3c-0.9,0-1.5,0.4-1.5,1.1c0,0.7,0.5,1.2,1.4,1.2c0.8,0,1.4-0.5,1.8-0.9V116.9z"/>
	<path class="st6" d="M292.9,122.8l-0.5-1.1c2.1-0.1,2.5-0.7,2.5-2.2v-0.1c-0.5,0.5-1.1,0.9-1.9,0.9c-1.6,0-2.8-1.1-2.8-4
		c0-2.5,1.4-3.7,2.9-3.7c0.7,0,1.4,0.4,1.8,0.8v-0.7h1.4v6.7C296.4,121.6,295.6,122.7,292.9,122.8z M295,114.9c-0.3-0.4-1-1-1.7-1
		c-1,0-1.6,0.8-1.6,2.3c0,1.8,0.6,2.7,1.7,2.7c0.7,0,1.3-0.5,1.7-0.9V114.9z"/>
</g>
<g>
	<path class="st6" d="M334.3,103.3v8.4h-1.5v-8.4H330v-1.4h7.2v1.4H334.3z"/>
	<path class="st6" d="M340,114.3h-1.5l1.1-2.7l-2.7-7.2h1.6l1.2,3.6c0.2,0.6,0.6,1.7,0.6,2.1c0.1-0.4,0.4-1.5,0.7-2.1l1.2-3.6h1.5
		L340,114.3z"/>
	<path class="st6" d="M348.5,111.8c-0.7,0-1.4-0.4-1.8-0.8v2.6l-1.4,0.7v-10.1h1.4v0.7c0.5-0.5,1.1-0.9,1.9-0.9c1.6,0,2.8,1.1,2.8,4
		C351.4,110.6,350,111.8,348.5,111.8z M348.3,105.5c-0.7,0-1.3,0.5-1.7,0.9v3.1c0.3,0.4,1,1,1.7,1c1,0,1.6-0.8,1.6-2.3
		C349.9,106.3,349.3,105.5,348.3,105.5z"/>
	<path class="st6" d="M359.1,108.5h-4.9c0.2,1.4,1,2,1.8,2c0.6,0,1.1-0.2,1.6-0.6l0.9,0.9c-0.6,0.6-1.4,1-2.5,1
		c-1.7,0-3.2-1.4-3.2-3.8c0-2.5,1.3-3.8,3.2-3.8c2.1,0,3.1,1.7,3.1,3.7C359.1,108.1,359.1,108.4,359.1,108.5z M355.9,105.5
		c-1,0-1.6,0.7-1.7,1.8h3.4C357.6,106.3,357.1,105.5,355.9,105.5z"/>
	<path class="st6" d="M361.2,112.9h-1.4l4.4-12.3h1.4L361.2,112.9z"/>
	<path class="st6" d="M367,111.7v-9.8h1.5v8.4h4.9v1.4H367z"/>
	<path class="st6" d="M380.9,108.5H376c0.2,1.4,1,2,1.8,2c0.6,0,1.1-0.2,1.6-0.6l0.9,0.9c-0.6,0.6-1.4,1-2.5,1
		c-1.7,0-3.2-1.4-3.2-3.8c0-2.5,1.3-3.8,3.2-3.8c2.1,0,3.1,1.7,3.1,3.7C380.9,108.1,380.9,108.4,380.9,108.5z M377.7,105.5
		c-1,0-1.6,0.7-1.7,1.8h3.4C379.4,106.3,378.9,105.5,377.7,105.5z"/>
	<path class="st6" d="M387.2,111.7v-4.2c0-1.5-0.6-2-1.5-2c-1,0-1.5,0.7-1.5,1.9v4.3h-1.4v-7.4h1.4v0.7c0.4-0.5,1.1-0.9,1.8-0.9
		c1.7,0,2.6,1.1,2.6,3.3v4.2H387.2z"/>
</g>
<g>
	<path class="st6" d="M428.3,111.7h-2.7v-9.8h2.7c2.6,0,4.8,1.4,4.8,4.9S430.8,111.7,428.3,111.7z M428.3,103.3H427v6.9h1.2
		c2.3,0,3.3-1.4,3.3-3.5C431.5,104.7,430.6,103.3,428.3,103.3z"/>
	<path class="st6" d="M439.1,111.7v-0.7c-0.5,0.5-1.2,0.9-2,0.9c-1.2,0-2.5-0.7-2.5-2.5c0-1.6,1.3-2.4,2.9-2.4
		c0.7,0,1.2,0.1,1.6,0.3v-0.5c0-0.8-0.5-1.2-1.4-1.2c-0.8,0-1.3,0.1-1.9,0.5l-0.6-1.1c0.7-0.4,1.5-0.7,2.5-0.7
		c1.6,0,2.8,0.8,2.8,2.5v5H439.1z M439.1,108.5c-0.4-0.2-0.9-0.3-1.7-0.3c-0.9,0-1.5,0.4-1.5,1.1c0,0.7,0.5,1.2,1.4,1.2
		c0.8,0,1.4-0.5,1.8-0.9V108.5z"/>
	<path class="st6" d="M446.1,111.5c-0.4,0.2-0.8,0.3-1.4,0.3c-1,0-1.7-0.6-1.7-1.9v-4.2H442v-1.3h1.1v-2.1l1.4-0.8v2.9h1.8v1.3h-1.8
		v4c0,0.7,0.2,0.9,0.8,0.9c0.4,0,0.8-0.1,1.1-0.3L446.1,111.5z"/>
	<path class="st6" d="M452.2,111.7v-0.7c-0.5,0.5-1.2,0.9-2,0.9c-1.2,0-2.5-0.7-2.5-2.5c0-1.6,1.3-2.4,2.9-2.4
		c0.7,0,1.2,0.1,1.6,0.3v-0.5c0-0.8-0.5-1.2-1.4-1.2c-0.8,0-1.3,0.1-1.9,0.5l-0.6-1.1c0.7-0.4,1.5-0.7,2.5-0.7
		c1.6,0,2.8,0.8,2.8,2.5v5H452.2z M452.2,108.5c-0.4-0.2-0.9-0.3-1.7-0.3c-0.9,0-1.5,0.4-1.5,1.1c0,0.7,0.5,1.2,1.4,1.2
		c0.8,0,1.4-0.5,1.8-0.9V108.5z"/>
</g>
<g>
	<path class="st6" d="M524,94.9v2.6h2.8v1.4H524v4.4h-1.5v-9.8h6.3v1.4H524z"/>
	<path class="st6" d="M533.4,97.4c-0.3-0.2-0.6-0.3-1.1-0.3c-0.9,0-1.4,0.6-1.4,1.9v4.2h-1.4v-7.4h1.4v0.7c0.3-0.5,1-0.9,1.7-0.9
		c0.6,0,1,0.1,1.2,0.3L533.4,97.4z"/>
	<path class="st6" d="M539,103.3v-0.7c-0.5,0.5-1.2,0.9-2,0.9c-1.2,0-2.5-0.7-2.5-2.5c0-1.6,1.3-2.4,2.9-2.4c0.7,0,1.2,0.1,1.6,0.3
		v-0.5c0-0.8-0.5-1.2-1.4-1.2c-0.8,0-1.3,0.1-1.9,0.5l-0.6-1.1c0.7-0.4,1.5-0.7,2.5-0.7c1.6,0,2.8,0.8,2.8,2.5v5H539z M539,100.1
		c-0.4-0.2-0.9-0.3-1.7-0.3c-0.9,0-1.5,0.4-1.5,1.1c0,0.7,0.5,1.2,1.4,1.2c0.8,0,1.4-0.5,1.8-0.9V100.1z"/>
	<path class="st6" d="M551,103.3v-4.2c0-1.5-0.5-2-1.4-2c-1,0-1.4,0.7-1.4,1.9v4.3h-1.4v-4.2c0-1.5-0.5-2-1.4-2
		c-1,0-1.4,0.7-1.4,1.9v4.3h-1.4v-7.4h1.4v0.7c0.4-0.5,1-0.9,1.8-0.9c1,0,1.6,0.4,2,1.1c0.5-0.7,1.1-1.1,2.3-1.1
		c1.7,0,2.5,1.1,2.5,3.3v4.2H551z"/>
	<path class="st6" d="M560.4,100.1h-4.9c0.2,1.4,1,2,1.8,2c0.6,0,1.1-0.2,1.6-0.6l0.9,0.9c-0.6,0.6-1.4,1-2.5,1
		c-1.7,0-3.2-1.4-3.2-3.8c0-2.5,1.3-3.8,3.2-3.8c2.1,0,3.1,1.7,3.1,3.7C560.5,99.7,560.4,100,560.4,100.1z M557.3,97.1
		c-1,0-1.6,0.7-1.7,1.8h3.4C558.9,97.9,558.5,97.1,557.3,97.1z"/>
	<path class="st6" d="M526.3,120.2c-2.5,0-4.1-2.1-4.1-5.1s1.6-5.1,4.1-5.1c1.6,0,2.7,0.6,3.3,1.8l-1.3,0.8c-0.5-0.8-1-1.2-2-1.2
		c-1.7,0-2.6,1.4-2.6,3.6s0.9,3.6,2.6,3.6c1,0,1.7-0.4,2.2-1.2l1.2,0.8C528.9,119.6,527.7,120.2,526.3,120.2z"/>
	<path class="st6" d="M536,120.1v-4.2c0-1.5-0.6-2-1.5-2c-1,0-1.5,0.7-1.5,1.9v4.3h-1.4v-9.5l1.4-0.8v3.6c0.4-0.5,1.1-0.9,1.8-0.9
		c1.7,0,2.6,1.1,2.6,3.3v4.2H536z"/>
	<path class="st6" d="M545.4,116.9h-4.9c0.2,1.4,1,2,1.8,2c0.6,0,1.1-0.2,1.6-0.6l0.9,0.9c-0.6,0.6-1.4,1-2.5,1
		c-1.7,0-3.2-1.4-3.2-3.8c0-2.5,1.3-3.8,3.2-3.8c2.1,0,3.1,1.7,3.1,3.7C545.5,116.5,545.5,116.7,545.4,116.9z M542.3,113.9
		c-1,0-1.6,0.7-1.7,1.8h3.4C544,114.7,543.5,113.9,542.3,113.9z"/>
	<path class="st6" d="M551.9,114.8c-0.6-0.6-1.1-0.9-1.8-0.9c-1,0-1.7,0.9-1.7,2.4c0,1.4,0.6,2.5,1.8,2.5c0.7,0,1.1-0.3,1.7-0.9
		l0.9,0.9c-0.6,0.7-1.3,1.4-2.6,1.4c-1.8,0-3.2-1.5-3.2-3.8c0-2.4,1.4-3.9,3.2-3.9c1.1,0,1.9,0.4,2.6,1.2L551.9,114.8z"/>
	<path class="st6" d="M558.8,120.1l-1.6-3.7l-1.1,1.5v2.2h-1.4v-9.5l1.4-0.8v4.6c0,0.4,0,1.2,0,1.6c0.2-0.3,0.6-0.9,0.8-1.2l1.5-2.1
		h1.6l-1.9,2.5l2.2,4.9H558.8z"/>
</g>
<g>
	<line class="st6" x1="176.3" y1="283.2" x2="176.3" y2="170.5"/>
	<g>
		<line class="st7" x1="176.3" y1="283.2" x2="176.3" y2="281.7"/>
		<line class="st8" x1="176.3" y1="278.8" x2="176.3" y2="173.5"/>
		<line class="st7" x1="176.3" y1="172" x2="176.3" y2="170.5"/>
	</g>
</g>
<g>
	<path class="st9" d="M271.5,147.9v2.4c0,7.4-7.2,13.3-16.1,13.3H93.2c-7.2,0-13,4.8-13,10.7v0"/>
	<path class="st9" d="M271.5,147.9v2.4c0,7.4,7.2,13.3,16.1,13.3h162.3c7.2,0,13,4.8,13,10.7v0"/>
</g>
<g>
	<path class="st9" d="M271.9,49.4v1.1c0,3.3-1.8,5.9-4.1,5.9H227c-1.8,0-3.3,2.1-3.3,4.8v0"/>
	<path class="st9" d="M271.9,49.4v1.1c0,3.3,1.8,5.9,4.1,5.9h40.9c1.8,0,3.3,2.1,3.3,4.8v0"/>
</g>
<g>
	<rect x="80.2" y="207.6" class="st3" width="95.7" height="75.6"/>
	<rect x="175.8" y="207.6" class="st3" width="95.7" height="75.6"/>
	<rect x="271.5" y="207.6" class="st3" width="95.7" height="75.6"/>
	<rect x="367.2" y="207.6" class="st3" width="95.7" height="75.6"/>
</g>
<g>
	<path class="st6" d="M98.3,216.5v8.4h-1.5v-8.4H94V215h7.2v1.4H98.3z"/>
	<path class="st6" d="M105.3,224.8v-0.7c-0.5,0.5-1.2,0.9-2,0.9c-1.2,0-2.5-0.7-2.5-2.5c0-1.6,1.3-2.4,2.9-2.4
		c0.7,0,1.2,0.1,1.6,0.3v-0.5c0-0.8-0.5-1.2-1.4-1.2c-0.8,0-1.3,0.1-1.9,0.5l-0.6-1.1c0.7-0.4,1.5-0.7,2.5-0.7
		c1.6,0,2.8,0.8,2.8,2.5v5H105.3z M105.3,221.7c-0.4-0.2-0.9-0.3-1.7-0.3c-0.9,0-1.5,0.4-1.5,1.1c0,0.7,0.5,1.2,1.4,1.2
		c0.8,0,1.4-0.5,1.8-0.9V221.7z"/>
	<path class="st6" d="M111.2,227.5l-0.5-1.1c2.1-0.1,2.5-0.7,2.5-2.2v-0.1c-0.5,0.5-1.1,0.9-1.9,0.9c-1.6,0-2.8-1.1-2.8-4
		c0-2.5,1.4-3.7,2.9-3.7c0.7,0,1.4,0.4,1.8,0.8v-0.7h1.4v6.7C114.7,226.4,113.9,227.4,111.2,227.5z M113.3,219.6c-0.3-0.4-1-1-1.7-1
		c-1,0-1.6,0.8-1.6,2.3c0,1.8,0.6,2.7,1.7,2.7c0.7,0,1.3-0.5,1.7-0.9V219.6z"/>
	<path class="st6" d="M98.6,238H96v3.7h-1.4v-9.8h4.1c1.8,0,3.2,1,3.2,3.1C101.8,236.9,100.5,238,98.6,238z M98.7,233.2H96v3.4h2.6
		c1.1,0,1.7-0.6,1.7-1.7C100.3,233.8,99.7,233.2,98.7,233.2z"/>
	<path class="st6" d="M107.5,235.8c-0.3-0.2-0.6-0.3-1.1-0.3c-0.9,0-1.4,0.6-1.4,1.9v4.2h-1.4v-7.4h1.4v0.7c0.3-0.5,1-0.9,1.7-0.9
		c0.6,0,1,0.1,1.2,0.3L107.5,235.8z"/>
	<path class="st6" d="M111.9,241.8c-1.8,0-3.2-1.5-3.2-3.8c0-2.4,1.4-3.8,3.3-3.8c1.9,0,3.3,1.5,3.3,3.8
		C115.2,240.4,113.8,241.8,111.9,241.8z M111.9,235.5c-1.1,0-1.8,1-1.8,2.4c0,1.6,0.7,2.5,1.8,2.5c1.1,0,1.8-1.1,1.8-2.5
		C113.8,236.5,113,235.5,111.9,235.5z"/>
	<path class="st6" d="M120.4,241.4c-0.4,0.2-0.8,0.3-1.4,0.3c-1,0-1.7-0.6-1.7-1.9v-4.2h-1.1v-1.3h1.1v-2.1l1.4-0.8v2.9h1.8v1.3
		h-1.8v4c0,0.7,0.2,0.9,0.8,0.9c0.4,0,0.8-0.1,1.1-0.3L120.4,241.4z"/>
	<path class="st6" d="M125.2,241.8c-1.8,0-3.2-1.5-3.2-3.8c0-2.4,1.4-3.8,3.3-3.8c1.9,0,3.3,1.5,3.3,3.8
		C128.5,240.4,127.1,241.8,125.2,241.8z M125.2,235.5c-1.1,0-1.8,1-1.8,2.4c0,1.6,0.7,2.5,1.8,2.5c1.1,0,1.8-1.1,1.8-2.5
		C127,236.5,126.3,235.5,125.2,235.5z"/>
	<path class="st6" d="M134.9,236.4c-0.6-0.6-1.1-0.9-1.8-0.9c-1.1,0-1.7,0.9-1.7,2.4c0,1.4,0.6,2.5,1.8,2.5c0.7,0,1.1-0.3,1.7-0.9
		l0.9,0.9c-0.6,0.7-1.3,1.4-2.6,1.4c-1.8,0-3.2-1.5-3.2-3.8c0-2.4,1.4-3.9,3.2-3.9c1.1,0,1.9,0.4,2.6,1.2L134.9,236.4z"/>
	<path class="st6" d="M140.2,241.8c-1.8,0-3.2-1.5-3.2-3.8c0-2.4,1.4-3.8,3.3-3.8c1.9,0,3.3,1.5,3.3,3.8
		C143.5,240.4,142.1,241.8,140.2,241.8z M140.2,235.5c-1.1,0-1.8,1-1.8,2.4c0,1.6,0.7,2.5,1.8,2.5c1.1,0,1.8-1.1,1.8-2.5
		C142.1,236.5,141.4,235.5,140.2,235.5z"/>
	<path class="st6" d="M145.4,241.6v-9.5l1.4-0.8v10.2H145.4z"/>
	<path class="st6" d="M94.6,258.4v-9.8h1.5v9.8H94.6z"/>
	<path class="st6" d="M101.4,258.4h-2.7v-9.8h2.7c2.6,0,4.8,1.4,4.8,4.9S104,258.4,101.4,258.4z M101.4,250.1h-1.2v6.9h1.2
		c2.3,0,3.3-1.4,3.3-3.5C104.7,251.5,103.7,250.1,101.4,250.1z"/>
	<path class="st6" d="M98.3,275.4c-2.5,0-4.1-2.1-4.1-5.1s1.6-5.1,4.1-5.1c2.5,0,4.2,2.1,4.2,5.1S100.8,275.4,98.3,275.4z
		 M98.3,266.7c-1.7,0-2.6,1.4-2.6,3.6s0.9,3.6,2.6,3.6c1.7,0,2.7-1.4,2.7-3.6S100,266.7,98.3,266.7z"/>
	<path class="st6" d="M108.2,275.2l-0.7-1.3c-0.3-0.5-0.6-1.2-0.8-1.5c-0.1,0.3-0.5,1-0.8,1.5l-0.7,1.3h-1.6l2.3-3.8l-2.2-3.5h1.7
		l0.6,1c0.3,0.5,0.6,1.2,0.8,1.5c0.2-0.3,0.5-1,0.8-1.5l0.6-1h1.7l-2.2,3.5l2.3,3.8H108.2z"/>
	<path class="st6" d="M115.2,275.4c-2.4,0-3.8-1.1-3.8-3c0-1.2,0.6-2,1.7-2.4c-1-0.4-1.3-1.3-1.3-1.9c0-1.9,1.5-2.8,3.4-2.8
		c1.8,0,3.4,0.9,3.4,2.7c0,0.6-0.3,1.5-1.3,1.9c1.1,0.4,1.7,1.2,1.7,2.4C119,274.3,117.5,275.4,115.2,275.4z M115.2,270.7
		c-1.6,0-2.4,0.6-2.4,1.6c0,1,0.9,1.7,2.4,1.7c1.6,0,2.4-0.7,2.4-1.6C117.6,271.4,116.8,270.7,115.2,270.7z M115.2,266.6
		c-1.4,0-1.9,0.6-1.9,1.4c0,0.8,0.7,1.3,2,1.3c1.3,0,1.9-0.6,1.9-1.3C117.1,267.3,116.6,266.6,115.2,266.6z"/>
	<path class="st6" d="M121.8,275.2v-7.5h-1.7v-1c1-0.1,1.8-0.4,2-1.3h1.2v9.8H121.8z"/>
	<path class="st6" d="M129.2,275.4c-2.5,0-3.9-2.1-3.9-5s1.3-5.1,3.9-5.1c2.5,0,3.9,2.1,3.9,5S131.8,275.4,129.2,275.4z
		 M129.2,266.7c-1.7,0-2.4,1.6-2.4,3.6c0,2.1,0.7,3.6,2.4,3.6c1.7,0,2.4-1.6,2.4-3.6C131.6,268.3,130.9,266.7,129.2,266.7z"/>
	<path class="st6" d="M138.5,275.4c-2.5,0-3.9-2.1-3.9-5s1.3-5.1,3.9-5.1c2.5,0,3.9,2.1,3.9,5S141,275.4,138.5,275.4z M138.5,266.7
		c-1.7,0-2.4,1.6-2.4,3.6c0,2.1,0.7,3.6,2.4,3.6c1.7,0,2.4-1.6,2.4-3.6C140.9,268.3,140.2,266.7,138.5,266.7z"/>
</g>
<g>
	<path class="st6" d="M191.9,233.4c-2.4,0-3.7-1.6-3.7-4.3v-5.7h1.5v5.6c0,1.8,0.8,2.8,2.2,2.8c1.5,0,2.3-1,2.3-2.7v-5.7h1.5v5.7
		C195.7,231.9,194.3,233.4,191.9,233.4z"/>
	<path class="st6" d="M200.3,233.4c-1,0-2.1-0.4-2.8-0.9l0.7-1.1c0.7,0.5,1.5,0.7,2.1,0.7c0.9,0,1.3-0.3,1.3-0.8
		c0-0.6-0.6-0.8-1.7-1.2c-1.6-0.6-2.2-1.1-2.2-2.3c0-1.3,1-2,2.5-2c0.9,0,1.8,0.3,2.5,0.8l-0.6,1.1c-0.6-0.4-1.2-0.6-1.9-0.6
		c-0.7,0-1,0.3-1,0.7c0,0.4,0.3,0.6,1.4,1.1c1.6,0.6,2.5,1.1,2.5,2.5C203.1,232.8,201.7,233.4,200.3,233.4z"/>
	<path class="st6" d="M210.7,230.1h-4.9c0.2,1.4,1,2,1.8,2c0.6,0,1.1-0.2,1.6-0.6l0.9,0.9c-0.6,0.6-1.4,1-2.5,1
		c-1.7,0-3.2-1.4-3.2-3.8c0-2.5,1.3-3.8,3.2-3.8c2.1,0,3.1,1.7,3.1,3.7C210.7,229.7,210.7,229.9,210.7,230.1z M207.5,227
		c-1,0-1.6,0.7-1.7,1.8h3.4C209.2,227.9,208.7,227,207.5,227z"/>
	<path class="st6" d="M216.5,227.4c-0.3-0.2-0.6-0.3-1.1-0.3c-0.9,0-1.4,0.6-1.4,1.9v4.2h-1.4v-7.4h1.4v0.7c0.3-0.5,1-0.9,1.7-0.9
		c0.6,0,1,0.1,1.2,0.3L216.5,227.4z"/>
	<path class="st6" d="M192.3,246.4h-2.6v3.7h-1.4v-9.8h4.1c1.8,0,3.2,1,3.2,3.1C195.5,245.3,194.2,246.4,192.3,246.4z M192.4,241.6
		h-2.6v3.4h2.6c1.1,0,1.7-0.6,1.7-1.7C194,242.2,193.4,241.6,192.4,241.6z"/>
	<path class="st6" d="M201.2,244.2c-0.3-0.2-0.6-0.3-1.1-0.3c-0.9,0-1.4,0.6-1.4,1.9v4.2h-1.4v-7.4h1.4v0.7c0.3-0.5,1-0.9,1.7-0.9
		c0.6,0,1,0.1,1.2,0.3L201.2,244.2z"/>
	<path class="st6" d="M203.9,241.7c-0.5,0-0.9-0.4-0.9-0.9c0-0.5,0.4-0.9,0.9-0.9c0.5,0,0.9,0.4,0.9,0.9
		C204.8,241.3,204.4,241.7,203.9,241.7z M203.1,250v-7.4h1.4v7.4H203.1z"/>
	<path class="st6" d="M209.7,250.2c-1.8,0-3.2-1.5-3.2-3.8c0-2.4,1.4-3.8,3.3-3.8c1.9,0,3.3,1.5,3.3,3.8
		C213,248.8,211.5,250.2,209.7,250.2z M209.6,243.9c-1.1,0-1.8,1-1.8,2.4c0,1.6,0.7,2.5,1.8,2.5c1.1,0,1.8-1.1,1.8-2.5
		C211.5,244.9,210.8,243.9,209.6,243.9z"/>
	<path class="st6" d="M218.7,244.2c-0.3-0.2-0.6-0.3-1.1-0.3c-0.9,0-1.4,0.6-1.4,1.9v4.2h-1.4v-7.4h1.4v0.7c0.3-0.5,1-0.9,1.7-0.9
		c0.6,0,1,0.1,1.2,0.3L218.7,244.2z"/>
	<path class="st6" d="M221.4,241.7c-0.5,0-0.9-0.4-0.9-0.9c0-0.5,0.4-0.9,0.9-0.9c0.5,0,0.9,0.4,0.9,0.9
		C222.3,241.3,221.9,241.7,221.4,241.7z M220.7,250v-7.4h1.4v7.4H220.7z"/>
	<path class="st6" d="M227.8,249.8c-0.4,0.2-0.8,0.3-1.4,0.3c-1,0-1.7-0.6-1.7-1.9V244h-1.1v-1.3h1.1v-2.1l1.4-0.8v2.9h1.8v1.3h-1.8
		v4c0,0.7,0.2,0.9,0.8,0.9c0.4,0,0.8-0.1,1.1-0.3L227.8,249.8z"/>
	<path class="st6" d="M232.2,252.6h-1.5l1.1-2.7l-2.7-7.2h1.6l1.2,3.6c0.2,0.6,0.6,1.7,0.6,2.1c0.1-0.4,0.4-1.5,0.7-2.1l1.2-3.6h1.5
		L232.2,252.6z"/>
	<path class="st6" d="M190.5,268.4c-1.4-1.3-2.7-3.2-2.7-5.7c0-2.6,1.3-4.5,2.7-5.8l0.7,0.6c-1.2,1.4-1.9,3-1.9,5.1
		c0,2.3,0.7,3.8,1.9,5.2L190.5,268.4z"/>
	<path class="st6" d="M195.9,267c-1.4,0-2.8-0.6-3.5-1.6l1.1-1c0.6,0.8,1.5,1.1,2.4,1.1c1.6,0,2.1-0.6,2.1-1.6c0-1-0.8-1.5-1.8-1.5
		h-0.9V261h0.9c0.9,0,1.4-0.6,1.4-1.3c0-0.6-0.4-1.3-1.8-1.3c-0.8,0-1.4,0.3-1.9,0.9l-1.1-1c0.8-0.9,1.8-1.3,3.1-1.3
		c1.8,0,3.3,1,3.3,2.7c0,1.2-0.5,1.8-1.2,2.1c0.9,0.3,1.6,1,1.6,2.2C199.5,265.9,198.1,267,195.9,267z"/>
	<path class="st6" d="M209.5,266.8h-3.9V257h4c1.7,0,2.8,0.9,2.8,2.5c0,1-0.5,1.6-1.2,2c0.8,0.2,1.7,0.9,1.7,2.3
		C212.8,265.8,211.6,266.8,209.5,266.8z M209.6,258.4H207v2.5h2.6c1,0,1.4-0.6,1.4-1.2C210.9,258.9,210.6,258.4,209.6,258.4z
		 M209.6,262.2H207v3.2h2.6c1.3,0,1.8-0.7,1.8-1.6C211.3,262.9,210.7,262.2,209.6,262.2z"/>
	<path class="st6" d="M215.5,258.5c-0.5,0-0.9-0.4-0.9-0.9c0-0.5,0.4-0.9,0.9-0.9c0.5,0,0.9,0.4,0.9,0.9
		C216.4,258.1,216,258.5,215.5,258.5z M214.7,266.8v-7.4h1.4v7.4H214.7z"/>
	<path class="st6" d="M221.9,266.6c-0.4,0.2-0.8,0.3-1.4,0.3c-1,0-1.7-0.6-1.7-1.9v-4.2h-1.1v-1.3h1.1v-2.1l1.4-0.8v2.9h1.8v1.3
		h-1.8v4c0,0.7,0.2,0.9,0.8,0.9c0.4,0,0.8-0.1,1.1-0.3L221.9,266.6z"/>
	<path class="st6" d="M226.3,267c-1,0-2.1-0.4-2.8-0.9l0.7-1.1c0.7,0.5,1.5,0.7,2.1,0.7c0.9,0,1.3-0.3,1.3-0.8
		c0-0.6-0.6-0.8-1.7-1.2c-1.6-0.6-2.2-1.1-2.2-2.3c0-1.3,1-2,2.5-2c0.9,0,1.8,0.3,2.5,0.8l-0.6,1.1c-0.6-0.4-1.2-0.6-1.9-0.6
		c-0.7,0-1,0.3-1,0.7c0,0.4,0.3,0.6,1.4,1.1c1.6,0.6,2.5,1.1,2.5,2.5C229.1,266.4,227.7,267,226.3,267z"/>
	<path class="st6" d="M230.8,268.4l-0.7-0.6c1.2-1.4,1.9-3,1.9-5.1c0-2.3-0.7-3.8-1.9-5.2l0.7-0.6c1.4,1.3,2.7,3.2,2.7,5.7
		C233.5,265.1,232.2,267,230.8,268.4z"/>
</g>
<g>
	<path class="st6" d="M286,225c-2.5,0-4.1-2.1-4.1-5.1s1.6-5.1,4.1-5.1c1.6,0,2.7,0.6,3.3,1.8l-1.3,0.8c-0.5-0.8-1-1.2-2-1.2
		c-1.7,0-2.6,1.4-2.6,3.6s0.9,3.6,2.6,3.6c1,0,1.7-0.4,2.2-1.2l1.2,0.8C288.6,224.3,287.4,225,286,225z"/>
	<path class="st6" d="M295.2,224.8v-0.7c-0.5,0.5-1.2,0.9-2,0.9c-1.2,0-2.5-0.7-2.5-2.5c0-1.6,1.3-2.4,2.9-2.4
		c0.7,0,1.2,0.1,1.6,0.3v-0.5c0-0.8-0.5-1.2-1.4-1.2c-0.8,0-1.3,0.1-1.9,0.5l-0.6-1.1c0.7-0.4,1.5-0.7,2.5-0.7
		c1.6,0,2.8,0.8,2.8,2.5v5H295.2z M295.2,221.7c-0.4-0.2-0.9-0.3-1.7-0.3c-0.9,0-1.5,0.4-1.5,1.1c0,0.7,0.5,1.2,1.4,1.2
		c0.8,0,1.4-0.5,1.8-0.9V221.7z"/>
	<path class="st6" d="M303.2,224.8v-4.2c0-1.5-0.6-2-1.5-2c-1,0-1.5,0.7-1.5,1.9v4.3h-1.4v-7.4h1.4v0.7c0.4-0.5,1.1-0.9,1.8-0.9
		c1.7,0,2.6,1.1,2.6,3.3v4.2H303.2z"/>
	<path class="st6" d="M309.6,225c-1.8,0-3.2-1.5-3.2-3.8c0-2.4,1.4-3.8,3.3-3.8c1.9,0,3.3,1.5,3.3,3.8
		C312.9,223.6,311.5,225,309.6,225z M309.6,218.7c-1.1,0-1.8,1-1.8,2.4c0,1.6,0.7,2.5,1.8,2.5c1.1,0,1.8-1.1,1.8-2.5
		C311.5,219.7,310.7,218.7,309.6,218.7z"/>
	<path class="st6" d="M319.2,224.8v-4.2c0-1.5-0.6-2-1.5-2c-1,0-1.5,0.7-1.5,1.9v4.3h-1.4v-7.4h1.4v0.7c0.4-0.5,1.1-0.9,1.8-0.9
		c1.7,0,2.6,1.1,2.6,3.3v4.2H319.2z"/>
	<path class="st6" d="M323.5,216.5c-0.5,0-0.9-0.4-0.9-0.9c0-0.5,0.4-0.9,0.9-0.9c0.5,0,0.9,0.4,0.9,0.9
		C324.4,216.1,324,216.5,323.5,216.5z M322.7,224.8v-7.4h1.4v7.4H322.7z"/>
	<path class="st6" d="M331,219.6c-0.6-0.6-1.1-0.9-1.8-0.9c-1.1,0-1.7,0.9-1.7,2.4c0,1.4,0.6,2.5,1.8,2.5c0.7,0,1.1-0.3,1.7-0.9
		l0.9,0.9c-0.6,0.7-1.3,1.4-2.6,1.4c-1.8,0-3.2-1.5-3.2-3.8c0-2.4,1.4-3.9,3.2-3.9c1.1,0,1.9,0.4,2.6,1.2L331,219.6z"/>
	<path class="st6" d="M337.7,224.8v-0.7c-0.5,0.5-1.2,0.9-2,0.9c-1.2,0-2.5-0.7-2.5-2.5c0-1.6,1.3-2.4,2.9-2.4
		c0.7,0,1.2,0.1,1.6,0.3v-0.5c0-0.8-0.5-1.2-1.4-1.2c-0.8,0-1.3,0.1-1.9,0.5l-0.6-1.1c0.7-0.4,1.5-0.7,2.5-0.7
		c1.6,0,2.8,0.8,2.8,2.5v5H337.7z M337.7,221.7c-0.4-0.2-0.9-0.3-1.7-0.3c-0.9,0-1.5,0.4-1.5,1.1c0,0.7,0.5,1.2,1.4,1.2
		c0.8,0,1.4-0.5,1.8-0.9V221.7z"/>
	<path class="st6" d="M341.2,224.8v-9.5l1.4-0.8v10.2H341.2z"/>
	<path class="st6" d="M283.7,233.3v2.6h2.8v1.4h-2.8v4.4h-1.5v-9.8h6.3v1.4H283.7z"/>
	<path class="st6" d="M291.8,241.8c-1.8,0-3.2-1.5-3.2-3.8c0-2.4,1.4-3.8,3.3-3.8c1.9,0,3.3,1.5,3.3,3.8
		C295.1,240.4,293.7,241.8,291.8,241.8z M291.8,235.5c-1.1,0-1.8,1-1.8,2.4c0,1.6,0.7,2.5,1.8,2.5c1.1,0,1.8-1.1,1.8-2.5
		C293.6,236.5,292.9,235.5,291.8,235.5z"/>
	<path class="st6" d="M300.9,235.8c-0.3-0.2-0.6-0.3-1.1-0.3c-0.9,0-1.4,0.6-1.4,1.9v4.2h-1.4v-7.4h1.4v0.7c0.3-0.5,1-0.9,1.7-0.9
		c0.6,0,1,0.1,1.2,0.3L300.9,235.8z"/>
	<path class="st6" d="M311.3,241.6v-4.2c0-1.5-0.5-2-1.4-2c-1,0-1.4,0.7-1.4,1.9v4.3H307v-4.2c0-1.5-0.5-2-1.4-2
		c-1,0-1.4,0.7-1.4,1.9v4.3h-1.4v-7.4h1.4v0.7c0.4-0.5,1-0.9,1.8-0.9c1,0,1.6,0.4,2,1.1c0.5-0.7,1.1-1.1,2.3-1.1
		c1.7,0,2.5,1.1,2.5,3.3v4.2H311.3z"/>
	<path class="st6" d="M319,241.6v-0.7c-0.5,0.5-1.2,0.9-2,0.9c-1.2,0-2.5-0.7-2.5-2.5c0-1.6,1.3-2.4,2.9-2.4c0.7,0,1.2,0.1,1.6,0.3
		v-0.5c0-0.8-0.5-1.2-1.4-1.2c-0.8,0-1.3,0.1-1.9,0.5l-0.6-1.1c0.7-0.4,1.5-0.7,2.5-0.7c1.6,0,2.8,0.8,2.8,2.5v5H319z M319,238.5
		c-0.4-0.2-0.9-0.3-1.7-0.3c-0.9,0-1.5,0.4-1.5,1.1c0,0.7,0.5,1.2,1.4,1.2c0.8,0,1.4-0.5,1.8-0.9V238.5z"/>
	<path class="st6" d="M326,241.4c-0.4,0.2-0.8,0.3-1.4,0.3c-1,0-1.7-0.6-1.7-1.9v-4.2h-1.1v-1.3h1.1v-2.1l1.4-0.8v2.9h1.8v1.3h-1.8
		v4c0,0.7,0.2,0.9,0.8,0.9c0.4,0,0.8-0.1,1.1-0.3L326,241.4z"/>
	<path class="st6" d="M282.3,258.4v-9.8h1.5v9.8H282.3z"/>
	<path class="st6" d="M290.7,258.4v-4.2c0-1.5-0.6-2-1.5-2c-1,0-1.5,0.7-1.5,1.9v4.3h-1.4v-7.4h1.4v0.7c0.4-0.5,1.1-0.9,1.8-0.9
		c1.7,0,2.6,1.1,2.6,3.3v4.2H290.7z"/>
	<path class="st6" d="M298.6,258.4v-0.7c-0.5,0.5-1.1,0.9-1.9,0.9c-1.6,0-2.8-1.1-2.8-4c0-2.5,1.4-3.7,2.9-3.7
		c0.7,0,1.4,0.4,1.8,0.8V249l1.4-0.7v10.2H298.6z M298.6,253.2c-0.3-0.4-1-1-1.7-1c-1,0-1.6,0.8-1.6,2.3c0,1.8,0.6,2.7,1.7,2.7
		c0.7,0,1.3-0.5,1.7-0.9V253.2z"/>
	<path class="st6" d="M303,250.1c-0.5,0-0.9-0.4-0.9-0.9c0-0.5,0.4-0.9,0.9-0.9c0.5,0,0.9,0.4,0.9,0.9
		C303.9,249.7,303.5,250.1,303,250.1z M302.3,258.4v-7.4h1.4v7.4H302.3z"/>
	<path class="st6" d="M310.5,253.2c-0.6-0.6-1.1-0.9-1.8-0.9c-1.1,0-1.7,0.9-1.7,2.4c0,1.4,0.6,2.5,1.8,2.5c0.7,0,1.1-0.3,1.7-0.9
		l0.9,0.9c-0.6,0.7-1.3,1.4-2.6,1.4c-1.8,0-3.2-1.5-3.2-3.8c0-2.4,1.4-3.9,3.2-3.9c1.1,0,1.9,0.4,2.6,1.2L310.5,253.2z"/>
	<path class="st6" d="M317.2,258.4v-0.7c-0.5,0.5-1.2,0.9-2,0.9c-1.2,0-2.5-0.7-2.5-2.5c0-1.6,1.3-2.4,2.9-2.4
		c0.7,0,1.2,0.1,1.6,0.3v-0.5c0-0.8-0.5-1.2-1.4-1.2c-0.8,0-1.3,0.1-1.9,0.5l-0.6-1.1c0.7-0.4,1.5-0.7,2.5-0.7
		c1.6,0,2.8,0.8,2.8,2.5v5H317.2z M317.2,255.3c-0.4-0.2-0.9-0.3-1.7-0.3c-0.9,0-1.5,0.4-1.5,1.1c0,0.7,0.5,1.2,1.4,1.2
		c0.8,0,1.4-0.5,1.8-0.9V255.3z"/>
	<path class="st6" d="M324.2,258.2c-0.4,0.2-0.8,0.3-1.4,0.3c-1,0-1.7-0.6-1.7-1.9v-4.2h-1.1v-1.3h1.1V249l1.4-0.8v2.9h1.8v1.3h-1.8
		v4c0,0.7,0.2,0.9,0.8,0.9c0.4,0,0.8-0.1,1.1-0.3L324.2,258.2z"/>
	<path class="st6" d="M328.9,258.6c-1.8,0-3.2-1.5-3.2-3.8c0-2.4,1.4-3.8,3.3-3.8c1.9,0,3.3,1.5,3.3,3.8
		C332.2,257.2,330.8,258.6,328.9,258.6z M328.9,252.3c-1.1,0-1.8,1-1.8,2.4c0,1.6,0.7,2.5,1.8,2.5c1.1,0,1.8-1.1,1.8-2.5
		C330.8,253.3,330.1,252.3,328.9,252.3z"/>
	<path class="st6" d="M338,252.6c-0.3-0.2-0.6-0.3-1.1-0.3c-0.9,0-1.4,0.6-1.4,1.9v4.2H334v-7.4h1.4v0.7c0.3-0.5,1-0.9,1.7-0.9
		c0.6,0,1,0.1,1.2,0.3L338,252.6z"/>
	<path class="st6" d="M284.5,276.8c-1.4-1.3-2.7-3.2-2.7-5.7c0-2.6,1.3-4.5,2.7-5.8l0.7,0.6c-1.2,1.4-1.9,3-1.9,5.1
		c0,2.3,0.7,3.8,1.9,5.2L284.5,276.8z"/>
	<path class="st6" d="M287.9,275.2v-7.5h-1.7v-1c1-0.1,1.8-0.4,2-1.3h1.2v9.8H287.9z"/>
	<path class="st6" d="M299.7,275.2h-3.9v-9.8h4c1.7,0,2.8,0.9,2.8,2.5c0,1-0.5,1.6-1.2,2c0.8,0.2,1.7,0.9,1.7,2.3
		C303,274.2,301.8,275.2,299.7,275.2z M299.8,266.8h-2.6v2.5h2.6c1,0,1.4-0.6,1.4-1.2C301.2,267.3,300.8,266.8,299.8,266.8z
		 M299.8,270.6h-2.7v3.2h2.6c1.3,0,1.8-0.7,1.8-1.6C301.6,271.3,300.9,270.6,299.8,270.6z"/>
	<path class="st6" d="M305.7,266.9c-0.5,0-0.9-0.4-0.9-0.9c0-0.5,0.4-0.9,0.9-0.9c0.5,0,0.9,0.4,0.9,0.9
		C306.6,266.5,306.2,266.9,305.7,266.9z M305,275.2v-7.4h1.4v7.4H305z"/>
	<path class="st6" d="M312.1,275c-0.4,0.2-0.8,0.3-1.4,0.3c-1,0-1.7-0.6-1.7-1.9v-4.2H308v-1.3h1.1v-2.1l1.4-0.8v2.9h1.8v1.3h-1.8v4
		c0,0.7,0.2,0.9,0.8,0.9c0.4,0,0.8-0.1,1.1-0.3L312.1,275z"/>
	<path class="st6" d="M314.3,276.8l-0.7-0.6c1.2-1.4,1.9-3,1.9-5.1c0-2.3-0.7-3.8-1.9-5.2l0.7-0.6c1.4,1.3,2.7,3.2,2.7,5.7
		C317,273.5,315.7,275.4,314.3,276.8z"/>
</g>
<g>
	<path class="st6" d="M381.6,241.6h-1.6l-3.4-9.8h1.6l2,6.2c0.2,0.6,0.5,1.4,0.5,1.8c0.1-0.4,0.4-1.2,0.5-1.8l2-6.2h1.6L381.6,241.6
		z"/>
	<path class="st6" d="M386.9,241.6v-9.8h1.5v8.4h4.9v1.4H386.9z"/>
	<path class="st6" d="M401.7,241.6l-0.8-2.3H397l-0.8,2.3h-1.5l3.5-9.8h1.6l3.6,9.8H401.7z M399.6,235.7c-0.2-0.7-0.6-1.8-0.7-2.3
		c-0.1,0.4-0.5,1.5-0.7,2.3l-0.8,2.2h3L399.6,235.7z"/>
	<path class="st6" d="M411.3,241.6l-3.9-6.1c-0.2-0.4-0.6-1-0.7-1.2c0,0.4,0,1.7,0,2.3v5.1h-1.4v-9.8h1.5l3.7,6
		c0.3,0.4,0.7,1.1,0.8,1.4c0-0.4,0-1.8,0-2.3v-5.1h1.4v9.8H411.3z"/>
	<path class="st6" d="M419,241.6v-9.8h1.5v9.8H419z"/>
	<path class="st6" d="M425.8,241.6h-2.7v-9.8h2.7c2.6,0,4.8,1.4,4.8,4.9S428.4,241.6,425.8,241.6z M425.8,233.3h-1.2v6.9h1.2
		c2.3,0,3.3-1.4,3.3-3.5C429.1,234.7,428.1,233.3,425.8,233.3z"/>
	<path class="st6" d="M379.5,260c-1.4-1.3-2.7-3.2-2.7-5.7c0-2.6,1.3-4.5,2.7-5.8l0.7,0.6c-1.2,1.4-1.9,3-1.9,5.1
		c0,2.3,0.7,3.8,1.9,5.2L379.5,260z"/>
	<path class="st6" d="M382.9,258.4v-7.5h-1.7v-1c1-0.1,1.8-0.4,2-1.3h1.2v9.8H382.9z"/>
	<path class="st6" d="M386.4,258.4c0.1-2.9,1.8-4.1,3.8-5.3c1.3-0.8,1.7-1.2,1.7-1.9c0-0.8-0.5-1.3-1.9-1.3c-0.8,0-1.7,0.4-2.4,1
		l-0.9-1.1c0.9-0.8,2.1-1.3,3.3-1.3c2,0,3.3,0.9,3.3,2.7c0,1.5-0.7,2.2-2.5,3.2c-1.9,1.1-2.4,1.7-2.6,2.7h5.2v1.4H386.4z"/>
	<path class="st6" d="M403.5,258.4h-3.9v-9.8h4c1.7,0,2.8,0.9,2.8,2.5c0,1-0.5,1.6-1.2,2c0.8,0.2,1.7,0.9,1.7,2.3
		C406.9,257.4,405.7,258.4,403.5,258.4z M403.7,250H401v2.5h2.6c1,0,1.4-0.6,1.4-1.2C405,250.5,404.6,250,403.7,250z M403.7,253.8
		H401v3.2h2.6c1.3,0,1.8-0.7,1.8-1.6C405.4,254.5,404.8,253.8,403.7,253.8z"/>
	<path class="st6" d="M409.5,250.1c-0.5,0-0.9-0.4-0.9-0.9c0-0.5,0.4-0.9,0.9-0.9c0.5,0,0.9,0.4,0.9,0.9
		C410.5,249.7,410,250.1,409.5,250.1z M408.8,258.4v-7.4h1.4v7.4H408.8z"/>
	<path class="st6" d="M416,258.2c-0.4,0.2-0.8,0.3-1.4,0.3c-1,0-1.7-0.6-1.7-1.9v-4.2h-1.1v-1.3h1.1V249l1.4-0.8v2.9h1.8v1.3h-1.8v4
		c0,0.7,0.2,0.9,0.8,0.9c0.4,0,0.8-0.1,1.1-0.3L416,258.2z"/>
	<path class="st6" d="M420.4,258.6c-1,0-2.1-0.4-2.8-0.9l0.7-1.1c0.7,0.5,1.5,0.7,2.1,0.7c0.9,0,1.3-0.3,1.3-0.8
		c0-0.6-0.6-0.8-1.7-1.2c-1.6-0.6-2.2-1.1-2.2-2.3c0-1.3,1-2,2.5-2c0.9,0,1.8,0.3,2.5,0.8l-0.6,1.1c-0.6-0.4-1.2-0.6-1.9-0.6
		c-0.7,0-1,0.3-1,0.7c0,0.4,0.3,0.6,1.4,1.1c1.6,0.6,2.5,1.1,2.5,2.5C423.1,258,421.8,258.6,420.4,258.6z"/>
	<path class="st6" d="M424.8,260l-0.7-0.6c1.2-1.4,1.9-3,1.9-5.1c0-2.3-0.7-3.8-1.9-5.2l0.7-0.6c1.4,1.3,2.7,3.2,2.7,5.7
		C427.6,256.7,426.3,258.6,424.8,260z"/>
</g>
</svg>
