<?xml version="1.0" encoding="UTF-8" standalone="no"?>
<svg
   xmlns:dc="http://purl.org/dc/elements/1.1/"
   xmlns:cc="http://creativecommons.org/ns#"
   xmlns:rdf="http://www.w3.org/1999/02/22-rdf-syntax-ns#"
   xmlns:svg="http://www.w3.org/2000/svg"
   xmlns="http://www.w3.org/2000/svg"
   xmlns:sodipodi="http://sodipodi.sourceforge.net/DTD/sodipodi-0.dtd"
   xmlns:inkscape="http://www.inkscape.org/namespaces/inkscape"
   inkscape:version="1.0 (4035a4f, 2020-05-01)"
   sodipodi:docname="Persona Ecosystem-01.svg"
   version="1.1"
   viewBox="0 0 595.276 597.574"
   height="210.811mm"
   width="210mm"
   data-name="Layer 1"
   id="Layer_1">
  <metadata
     id="metadata635">
    <rdf:RDF>
      <cc:Work
         rdf:about="">
        <dc:format>image/svg+xml</dc:format>
        <dc:type
           rdf:resource="http://purl.org/dc/dcmitype/StillImage" />
        <dc:title></dc:title>
        <dc:subject>
          <rdf:Bag>
            <rdf:li>personas</rdf:li>
            <rdf:li>OpenStack</rdf:li>
          </rdf:Bag>
        </dc:subject>
      </cc:Work>
    </rdf:RDF>
  </metadata>
  <sodipodi:namedview
     inkscape:current-layer="Layer_1"
     inkscape:window-maximized="0"
     inkscape:window-y="23"
     inkscape:window-x="0"
     inkscape:cy="398.383"
     inkscape:cx="396.85039"
     inkscape:zoom="0.92247912"
     showgrid="false"
     id="namedview633"
     inkscape:window-height="480"
     inkscape:window-width="1278"
     inkscape:pageshadow="2"
     inkscape:pageopacity="0"
     guidetolerance="10"
     gridtolerance="10"
     objecttolerance="10"
     borderopacity="1"
     bordercolor="#666666"
     pagecolor="#ffffff" />
  <defs
     id="defs12">
    <style
       id="style10">
      .cls-1, .cls-2, .cls-3, .cls-4 {
        fill: none;
        stroke-width: 1.5px;
      }

      .cls-1, .cls-2 {
        stroke: #8e1913;
        stroke-linecap: round;
        stroke-linejoin: round;
      }

      .cls-2 {
        stroke-dasharray: 3;
      }

      .cls-3 {
        stroke: #6c97d3;
      }

      .cls-3, .cls-4 {
        stroke-miterlimit: 10;
      }

      .cls-4 {
        stroke: #3f9c35;
      }

      .cls-5 {
        fill: #3f9c35;
      }

      .cls-6 {
        fill: #27579a;
      }

      .cls-7 {
        fill: #8f0000;
      }

      .cls-8 {
        fill: #fff;
      }

      .cls-9 {
        fill: #010101;
      }
    </style>
  </defs>
  <circle
     id="circle14"
     r="282.226"
     cy="296.569"
     cx="297.638"
     class="cls-1" />
  <circle
     id="circle16"
     r="209.092"
     cy="296.569"
     cx="297.638"
     class="cls-2" />
  <circle
     id="circle18"
     r="144.138"
     cy="296.569"
     cx="297.638"
     class="cls-3" />
  <circle
     id="circle20"
     r="68.453"
     cy="296.569"
     cx="297.638"
     class="cls-4" />
  <g
     id="g38">
    <path
       id="path22"
       d="M264.577,253.333h1.739v3.37h3.862v-3.37h1.74v8.4h-1.74V258.3h-3.862v3.43h-1.739Z"
       class="cls-5" />
    <path
       id="path24"
       d="M276.1,253.333h2.015l3.406,8.4h-1.883l-.851-2.207h-3.467l-.863,2.207h-1.811Zm2.159,4.8-1.188-3.095-1.211,3.095Z"
       class="cls-5" />
    <path
       id="path26"
       d="M282.229,253.333h4.1a2.646,2.646,0,0,1,2.9,2.6,2.493,2.493,0,0,1-1.643,2.339l1.859,3.454h-1.943l-1.643-3.214h-1.895v3.214h-1.739Zm1.739,1.5v2.255h2.207a1.138,1.138,0,1,0,0-2.255Z"
       class="cls-5" />
    <path
       id="path28"
       d="M290.377,253.333H293.6a4.2,4.2,0,1,1,0,8.4h-3.227Zm1.739,1.547v5.3h1.475a2.651,2.651,0,1,0,0-5.3Z"
       class="cls-5" />
    <path
       id="path30"
       d="M300.409,261.729l-1.859-8.4h1.786l1.14,5.7,1.644-5.7h1.631l1.63,5.673,1.14-5.673h1.727l-1.859,8.4h-1.823l-1.667-5.865-1.667,5.865Z"
       class="cls-5" />
    <path
       id="path32"
       d="M312.216,253.333h2.015l3.406,8.4h-1.883l-.851-2.207h-3.467l-.863,2.207h-1.811Zm2.159,4.8-1.188-3.095-1.211,3.095Z"
       class="cls-5" />
    <path
       id="path34"
       d="M318.349,253.333h4.1a2.646,2.646,0,0,1,2.9,2.6,2.493,2.493,0,0,1-1.643,2.339l1.859,3.454h-1.942l-1.644-3.214h-1.895v3.214h-1.739Zm1.739,1.5v2.255h2.206a1.138,1.138,0,1,0,0-2.255Z"
       class="cls-5" />
    <path
       id="path36"
       d="M326.5,253.333h6.453v1.512h-4.714v1.919h3.106v1.463h-3.106v1.991H333v1.511h-6.5Z"
       class="cls-5" />
  </g>
  <g
     id="g98">
    <path
       id="path40"
       d="M237.852,196.014a4.331,4.331,0,1,1,4.449-4.329A4.345,4.345,0,0,1,237.852,196.014Zm0-7.065a2.736,2.736,0,1,0,2.662,2.736A2.643,2.643,0,0,0,237.852,188.949Z"
       class="cls-6" />
    <path
       id="path42"
       d="M243.494,187.487h4.21a2.622,2.622,0,1,1,0,5.229h-2.471v3.166h-1.739Zm1.739,1.5v2.291h2.279a1.15,1.15,0,1,0,0-2.291Z"
       class="cls-6" />
    <path
       id="path44"
       d="M251.666,187.487h6.452V189h-4.713v1.919h3.106v1.463h-3.106v1.991h4.761v1.511h-6.5Z"
       class="cls-6" />
    <path
       id="path46"
       d="M261.061,187.487l4.174,5.433v-5.433h1.631v8.4h-1.535l-4.282-5.613v5.613h-1.643v-8.4Z"
       class="cls-6" />
    <path
       id="path48"
       d="M268.669,193.3a4.157,4.157,0,0,0,2.843,1.223c1.044,0,1.715-.408,1.715-1.056,0-.575-.384-.863-1.379-1.031l-1.667-.287c-1.439-.241-2.195-1.02-2.195-2.244,0-1.571,1.271-2.543,3.31-2.543a5.835,5.835,0,0,1,3.466,1.176l-.935,1.295a4.276,4.276,0,0,0-2.651-1.007c-.935,0-1.535.371-1.535.948,0,.515.336.779,1.2.911l1.583.263c1.68.277,2.507,1.068,2.507,2.364,0,1.642-1.379,2.686-3.538,2.686a5.57,5.57,0,0,1-3.718-1.451Z"
       class="cls-6" />
    <path
       id="path50"
       d="M275.2,187.487h7.388v1.535h-2.819v6.86h-1.739v-6.86H275.2Z"
       class="cls-6" />
    <path
       id="path52"
       d="M284.568,187.487h2.015l3.406,8.4h-1.883l-.851-2.207h-3.466l-.864,2.207h-1.811Zm2.159,4.8-1.187-3.094-1.212,3.094Z"
       class="cls-6" />
    <path
       id="path54"
       d="M296.686,193.327l1.139,1.128A4.61,4.61,0,0,1,294.383,196a4.326,4.326,0,1,1,0-8.647,4.6,4.6,0,0,1,3.491,1.571l-1.176,1.163a2.925,2.925,0,0,0-2.315-1.14,2.723,2.723,0,0,0,.048,5.446A2.88,2.88,0,0,0,296.686,193.327Z"
       class="cls-6" />
    <path
       id="path56"
       d="M298.849,187.487h1.739v3.765l3.67-3.765h2.123l-4.053,3.994,4.245,4.4h-2.326l-3.659-3.933v3.933h-1.739Z"
       class="cls-6" />
    <path
       id="path58"
       d="M316.078,193.327l1.138,1.128A4.608,4.608,0,0,1,313.775,196a4.326,4.326,0,1,1,0-8.647,4.6,4.6,0,0,1,3.49,1.571l-1.176,1.163a2.925,2.925,0,0,0-2.314-1.14,2.723,2.723,0,0,0,.048,5.446A2.883,2.883,0,0,0,316.078,193.327Z"
       class="cls-6" />
    <path
       id="path60"
       d="M318.241,187.487h1.739v6.86h4.593v1.535h-6.332Z"
       class="cls-6" />
    <path
       id="path62"
       d="M329.23,196.014a4.331,4.331,0,1,1,4.45-4.329A4.344,4.344,0,0,1,329.23,196.014Zm0-7.065a2.736,2.736,0,1,0,2.663,2.736A2.642,2.642,0,0,0,329.23,188.949Z"
       class="cls-6" />
    <path
       id="path64"
       d="M338.459,196a3.486,3.486,0,0,1-3.718-3.754v-4.761h1.739v4.761a1.985,1.985,0,1,0,3.957,0v-4.761h1.739v4.761A3.5,3.5,0,0,1,338.459,196Z"
       class="cls-6" />
    <path
       id="path66"
       d="M343.573,187.487H346.8a4.2,4.2,0,1,1,0,8.4h-3.226Zm1.739,1.546v5.3h1.475a2.651,2.651,0,0,0,0-5.3Z"
       class="cls-6" />
    <path
       id="path68"
       d="M361.005,196.122c-.383-.288-.78-.6-1.175-.923a4.015,4.015,0,0,1-2.5.8c-1.763,0-2.962-.96-2.962-2.386,0-1.044.456-1.667,1.63-2.315a2.827,2.827,0,0,1-.695-1.835,2.186,2.186,0,0,1,2.351-2.123,2,2,0,0,1,1.079,3.8l-.611.372c.467.5,1.019,1.043,1.594,1.57a6.251,6.251,0,0,0,.672-1.894l1.415.227a8.086,8.086,0,0,1-1.007,2.591c.408.348.816.672,1.188.947Zm-3.55-1.416a2.284,2.284,0,0,0,1.343-.407c-.719-.66-1.4-1.355-2-2.027-.647.372-.9.719-.9,1.223C355.9,194.239,356.5,194.706,357.455,194.706Zm-.12-4.113.492-.3a1.033,1.033,0,0,0,.611-.924.8.8,0,0,0-.827-.8.816.816,0,0,0-.827.864A1.8,1.8,0,0,0,357.335,190.593Z"
       class="cls-6" />
    <path
       id="path70"
       d="M243.206,201.887h1.739v8.4h-1.739Z"
       class="cls-6" />
    <path
       id="path72"
       d="M248.125,201.887l4.174,5.434v-5.434h1.631v8.4H252.4l-4.282-5.614v5.614H246.47v-8.4Z"
       class="cls-6" />
    <path
       id="path74"
       d="M255.458,201.887h6.489V203.4H257.2v1.978h3.155v1.463H257.2v3.443h-1.739Z"
       class="cls-6" />
    <path
       id="path76"
       d="M263.126,201.887h4.1a2.646,2.646,0,0,1,2.9,2.6,2.492,2.492,0,0,1-1.643,2.338l1.859,3.455H268.4l-1.643-3.214h-1.895v3.214h-1.739Zm1.739,1.5v2.255h2.206a1.138,1.138,0,1,0,0-2.255Z"
       class="cls-6" />
    <path
       id="path78"
       d="M274.044,201.887h2.015l3.406,8.4h-1.882l-.852-2.208h-3.466l-.864,2.208H270.59Zm2.159,4.8-1.187-3.095-1.211,3.095Z"
       class="cls-6" />
    <path
       id="path80"
       d="M280.693,207.7a4.157,4.157,0,0,0,2.843,1.223c1.044,0,1.715-.407,1.715-1.056,0-.575-.384-.863-1.379-1.031l-1.667-.287c-1.439-.24-2.195-1.02-2.195-2.243,0-1.571,1.271-2.543,3.31-2.543a5.83,5.83,0,0,1,3.466,1.176l-.935,1.295a4.27,4.27,0,0,0-2.651-1.007c-.935,0-1.535.371-1.535.947,0,.516.336.779,1.2.911l1.583.264c1.68.276,2.507,1.067,2.507,2.363,0,1.643-1.379,2.687-3.538,2.687a5.571,5.571,0,0,1-3.718-1.452Z"
       class="cls-6" />
    <path
       id="path82"
       d="M287.222,201.887h7.388v1.535h-2.819v6.861h-1.739v-6.861h-2.83Z"
       class="cls-6" />
    <path
       id="path84"
       d="M295.585,201.887h4.1a2.646,2.646,0,0,1,2.9,2.6,2.491,2.491,0,0,1-1.642,2.338l1.858,3.455h-1.942l-1.644-3.214h-1.894v3.214h-1.74Zm1.74,1.5v2.255h2.206a1.138,1.138,0,1,0,0-2.255Z"
       class="cls-6" />
    <path
       id="path86"
       d="M307.319,210.4a3.486,3.486,0,0,1-3.718-3.754v-4.762h1.739v4.762a1.985,1.985,0,1,0,3.957,0v-4.762h1.74v4.762A3.5,3.5,0,0,1,307.319,210.4Z"
       class="cls-6" />
    <path
       id="path88"
       d="M318.885,207.728l1.14,1.128a4.617,4.617,0,0,1-3.442,1.547,4.327,4.327,0,1,1,0-8.648,4.6,4.6,0,0,1,3.49,1.571L318.9,204.49a2.927,2.927,0,0,0-2.315-1.14,2.723,2.723,0,0,0,.047,5.445A2.884,2.884,0,0,0,318.885,207.728Z"
       class="cls-6" />
    <path
       id="path90"
       d="M320.628,201.887h7.389v1.535H325.2v6.861H323.46v-6.861h-2.832Z"
       class="cls-6" />
    <path
       id="path92"
       d="M332.579,210.4a3.486,3.486,0,0,1-3.718-3.754v-4.762H330.6v4.762a1.985,1.985,0,1,0,3.957,0v-4.762H336.3v4.762A3.5,3.5,0,0,1,332.579,210.4Z"
       class="cls-6" />
    <path
       id="path94"
       d="M337.692,201.887h4.1a2.646,2.646,0,0,1,2.9,2.6,2.492,2.492,0,0,1-1.644,2.338l1.86,3.455h-1.944l-1.642-3.214h-1.9v3.214h-1.739Zm1.739,1.5v2.255h2.207a1.138,1.138,0,1,0,0-2.255Z"
       class="cls-6" />
    <path
       id="path96"
       d="M345.84,201.887h6.453V203.4H347.58v1.919h3.106v1.463H347.58v1.991h4.76v1.511h-6.5Z"
       class="cls-6" />
  </g>
  <g
     id="g130">
    <path
       id="path100"
       d="M239.442,130.112a4.332,4.332,0,1,1,4.45-4.329A4.346,4.346,0,0,1,239.442,130.112Zm0-7.065a2.736,2.736,0,1,0,2.663,2.736A2.642,2.642,0,0,0,239.442,123.047Z"
       class="cls-7" />
    <path
       id="path102"
       d="M245.084,121.584h4.21a2.622,2.622,0,1,1,0,5.23h-2.471v3.166h-1.739Zm1.739,1.5v2.291H249.1a1.15,1.15,0,1,0,0-2.291Z"
       class="cls-7" />
    <path
       id="path104"
       d="M253.256,121.584h6.453V123.1H255v1.919H258.1v1.463H255v1.991h4.761v1.511h-6.5Z"
       class="cls-7" />
    <path
       id="path106"
       d="M262.651,121.584l4.174,5.434v-5.434h1.631v8.4h-1.535l-4.282-5.614v5.614H261v-8.4Z"
       class="cls-7" />
    <path
       id="path108"
       d="M270.26,127.4a4.16,4.16,0,0,0,2.843,1.222c1.043,0,1.714-.407,1.714-1.055,0-.576-.383-.864-1.379-1.032l-1.667-.287c-1.439-.24-2.195-1.019-2.195-2.243,0-1.571,1.272-2.543,3.311-2.543a5.832,5.832,0,0,1,3.466,1.176l-.936,1.3a4.268,4.268,0,0,0-2.65-1.007c-.936,0-1.536.371-1.536.947,0,.516.336.78,1.2.911l1.583.264c1.679.276,2.507,1.067,2.507,2.363,0,1.643-1.38,2.687-3.539,2.687a5.565,5.565,0,0,1-3.717-1.451Z"
       class="cls-7" />
    <path
       id="path110"
       d="M276.788,121.584h7.388v1.535h-2.819v6.861h-1.738v-6.861h-2.831Z"
       class="cls-7" />
    <path
       id="path112"
       d="M286.159,121.584h2.014l3.407,8.4H289.7l-.852-2.207h-3.466l-.863,2.207h-1.811Zm2.158,4.8-1.187-3.095-1.212,3.095Z"
       class="cls-7" />
    <path
       id="path114"
       d="M298.276,127.425l1.14,1.128a4.617,4.617,0,0,1-3.442,1.547,4.327,4.327,0,1,1,0-8.648,4.6,4.6,0,0,1,3.489,1.572l-1.174,1.163a2.928,2.928,0,0,0-2.315-1.14,2.723,2.723,0,0,0,.048,5.445A2.882,2.882,0,0,0,298.276,127.425Z"
       class="cls-7" />
    <path
       id="path116"
       d="M300.439,121.584h1.739v3.766l3.67-3.766h2.123l-4.053,3.994,4.246,4.4h-2.328l-3.658-3.934v3.934h-1.739Z"
       class="cls-7" />
    <path
       id="path118"
       d="M311.215,121.584h3.227a4.2,4.2,0,1,1,0,8.4h-3.227Zm1.74,1.547v5.3h1.474a2.651,2.651,0,1,0,0-5.3Z"
       class="cls-7" />
    <path
       id="path120"
       d="M324.2,130.112a4.332,4.332,0,1,1,4.449-4.329A4.345,4.345,0,0,1,324.2,130.112Zm0-7.065a2.736,2.736,0,1,0,2.662,2.736A2.643,2.643,0,0,0,324.2,123.047Z"
       class="cls-7" />
    <path
       id="path122"
       d="M331.446,123.8v6.177h-1.608v-8.4h2.232l2.3,4.51,2.3-4.51h2.231v8.4h-1.643v-6.165l-2.915,5.565Z"
       class="cls-7" />
    <path
       id="path124"
       d="M343.074,121.584h2.014l3.407,8.4h-1.883l-.852-2.207h-3.467l-.863,2.207h-1.81Zm2.158,4.8-1.188-3.095-1.21,3.095Z"
       class="cls-7" />
    <path
       id="path126"
       d="M349.207,121.584h1.739v8.4h-1.739Z"
       class="cls-7" />
    <path
       id="path128"
       d="M354.126,121.584l4.173,5.434v-5.434h1.631v8.4H358.4l-4.281-5.614v5.614H352.47v-8.4Z"
       class="cls-7" />
  </g>
  <g
     id="g154">
    <path
       id="path132"
       d="M260.31,49.217h2.015l3.406,8.4h-1.883L263,55.406H259.53l-.863,2.207h-1.811Zm2.159,4.8-1.188-3.095-1.211,3.095Z"
       class="cls-7" />
    <path
       id="path134"
       d="M266.443,49.217h4.21a2.622,2.622,0,1,1,0,5.23h-2.471v3.166h-1.739Zm1.739,1.5v2.291h2.279a1.15,1.15,0,1,0,0-2.291Z"
       class="cls-7" />
    <path
       id="path136"
       d="M274.615,49.217h4.21a2.622,2.622,0,1,1,0,5.23h-2.47v3.166h-1.74Zm1.74,1.5v2.291h2.278a1.15,1.15,0,1,0,0-2.291Z"
       class="cls-7" />
    <path
       id="path138"
       d="M282.787,49.217h1.739v6.86h4.594v1.536h-6.333Z"
       class="cls-7" />
    <path
       id="path140"
       d="M290.323,49.217h1.739v8.4h-1.739Z"
       class="cls-7" />
    <path
       id="path142"
       d="M300.04,55.058l1.139,1.128a4.615,4.615,0,0,1-3.442,1.547,4.327,4.327,0,1,1,0-8.648,4.6,4.6,0,0,1,3.49,1.572l-1.175,1.163a2.924,2.924,0,0,0-2.315-1.14,2.723,2.723,0,0,0,.048,5.445A2.884,2.884,0,0,0,300.04,55.058Z"
       class="cls-7" />
    <path
       id="path144"
       d="M304.854,49.217h2.015l3.406,8.4h-1.883l-.851-2.207h-3.467l-.864,2.207H301.4Zm2.158,4.8-1.187-3.095-1.211,3.095Z"
       class="cls-7" />
    <path
       id="path146"
       d="M308.8,49.217h7.389v1.535h-2.819v6.861h-1.739V50.752H308.8Z"
       class="cls-7" />
    <path
       id="path148"
       d="M317.167,49.217h1.739v8.4h-1.739Z"
       class="cls-7" />
    <path
       id="path150"
       d="M324.544,57.744A4.331,4.331,0,1,1,329,53.415,4.344,4.344,0,0,1,324.544,57.744Zm0-7.064a2.736,2.736,0,1,0,2.664,2.735A2.642,2.642,0,0,0,324.544,50.68Z"
       class="cls-7" />
    <path
       id="path152"
       d="M331.842,49.217l4.174,5.434V49.217h1.631v8.4h-1.535L331.831,52v5.614h-1.644v-8.4Z"
       class="cls-7" />
  </g>
  <g
     id="g192">
    <path
       id="path156"
       d="M346.8,377.045h1.23l2.858,7h-1.14l-.809-2.049h-3.128L345,384.041h-1.09Zm1.8,4.078-1.219-3.068-1.219,3.068Z"
       class="cls-6" />
    <path
       id="path158"
       d="M352.275,381.973a1.192,1.192,0,0,0,1.26,1.3,1.431,1.431,0,0,0,1.249-.67v-3.649h1v5.088h-1v-.509a2.078,2.078,0,0,1-1.53.609,1.9,1.9,0,0,1-1.978-2v-3.19h1Z"
       class="cls-6" />
    <path
       id="path160"
       d="M357.626,379.793h-1.081v-.84h1.081v-1.3l.989-.241v1.539h1.5v.84h-1.5v2.759c0,.521.21.71.749.71a1.956,1.956,0,0,0,.729-.12v.839a3.3,3.3,0,0,1-.949.15c-.989,0-1.518-.47-1.518-1.349Z"
       class="cls-6" />
    <path
       id="path162"
       d="M363.164,378.854a2.644,2.644,0,1,1-2.649,2.638A2.611,2.611,0,0,1,363.164,378.854Zm1.659,2.638a1.667,1.667,0,1,0-1.659,1.77A1.7,1.7,0,0,0,364.823,381.492Z"
       class="cls-6" />
    <path
       id="path164"
       d="M366.755,378.953h1v.481a1.951,1.951,0,0,1,1.429-.58,1.773,1.773,0,0,1,1.569.849,2.038,2.038,0,0,1,1.719-.849,1.864,1.864,0,0,1,1.909,1.989v3.2h-1v-3.028a1.142,1.142,0,0,0-1.169-1.289,1.355,1.355,0,0,0-1.189.679,2.126,2.126,0,0,1,.04.44v3.2h-.989v-3.028a1.143,1.143,0,0,0-1.17-1.289,1.332,1.332,0,0,0-1.149.62v3.7h-1Z"
       class="cls-6" />
    <path
       id="path166"
       d="M375.275,382.582c0-.959.78-1.549,2.06-1.549a3.588,3.588,0,0,1,1.388.28v-.539c0-.721-.43-1.08-1.239-1.08a3.625,3.625,0,0,0-1.579.429l-.369-.75a4.765,4.765,0,0,1,2.089-.519c1.319,0,2.078.65,2.078,1.819v3.368h-.98V383.6a2.415,2.415,0,0,1-1.579.529C376.035,384.131,375.275,383.5,375.275,382.582Zm2.1.81a1.952,1.952,0,0,0,1.348-.48v-.879a2.636,2.636,0,0,0-1.308-.31c-.73,0-1.18.33-1.18.84C376.235,383.052,376.7,383.392,377.375,383.392Z"
       class="cls-6" />
    <path
       id="path168"
       d="M381.315,379.793h-1.079v-.84h1.079v-1.3l.989-.241v1.539h1.5v.84h-1.5v2.759c0,.521.21.71.75.71a1.965,1.965,0,0,0,.73-.12v.839a3.311,3.311,0,0,1-.949.15c-.991,0-1.52-.47-1.52-1.349Z"
       class="cls-6" />
    <path
       id="path170"
       d="M384.435,377.515a.614.614,0,0,1,.609-.62.62.62,0,1,1,0,1.24A.614.614,0,0,1,384.435,377.515Zm1.109,6.526h-1v-5.088h1Z"
       class="cls-6" />
    <path
       id="path172"
       d="M389.144,378.854a2.644,2.644,0,1,1-2.648,2.638A2.612,2.612,0,0,1,389.144,378.854Zm1.659,2.638a1.667,1.667,0,1,0-1.659,1.77A1.7,1.7,0,0,0,390.8,381.492Z"
       class="cls-6" />
    <path
       id="path174"
       d="M392.735,378.953h1v.51a2.1,2.1,0,0,1,1.528-.609,1.9,1.9,0,0,1,1.989,1.989v3.2h-1v-3.028a1.184,1.184,0,0,0-1.259-1.289,1.435,1.435,0,0,0-1.259.659v3.658h-1Z"
       class="cls-6" />
    <path
       id="path176"
       d="M351.055,389.045h5.157v.92h-4.107v2.1h2.7v.9h-2.7v2.158h4.147v.92h-5.2Z"
       class="cls-6" />
    <path
       id="path178"
       d="M357.215,390.953h1v.51a2.1,2.1,0,0,1,1.529-.609,1.9,1.9,0,0,1,1.989,1.989v3.2h-1v-3.028a1.184,1.184,0,0,0-1.26-1.289,1.436,1.436,0,0,0-1.259.659v3.658h-1Z"
       class="cls-6" />
    <path
       id="path180"
       d="M362.656,393.473a2.566,2.566,0,0,1,2.578-2.609,2.507,2.507,0,0,1,1.51.509v-.42h.989v5.159c0,1.318-.83,2.058-2.329,2.058a4.3,4.3,0,0,1-2.049-.5l.39-.779a3.444,3.444,0,0,0,1.629.439c.889,0,1.359-.42,1.359-1.218v-.571a2.391,2.391,0,0,1-1.519.54A2.561,2.561,0,0,1,362.656,393.473Zm2.679,1.738a1.794,1.794,0,0,0,1.4-.59v-2.3a1.828,1.828,0,0,0-1.4-.59,1.739,1.739,0,0,0,0,3.477Z"
       class="cls-6" />
    <path
       id="path182"
       d="M368.805,389.515a.615.615,0,0,1,.61-.62.62.62,0,1,1,0,1.24A.615.615,0,0,1,368.805,389.515Zm1.11,6.526h-1v-5.088h1Z"
       class="cls-6" />
    <path
       id="path184"
       d="M371.1,390.953h1v.51a2.1,2.1,0,0,1,1.529-.609,1.9,1.9,0,0,1,1.989,1.989v3.2h-1v-3.028a1.184,1.184,0,0,0-1.26-1.289,1.436,1.436,0,0,0-1.259.659v3.658h-1Z"
       class="cls-6" />
    <path
       id="path186"
       d="M379.2,396.131a2.617,2.617,0,0,1-2.668-2.639,2.556,2.556,0,0,1,2.548-2.618,2.52,2.52,0,0,1,2.459,2.659v.29h-4.018a1.717,1.717,0,0,0,1.719,1.459,1.977,1.977,0,0,0,1.289-.45l.639.629A3.029,3.029,0,0,1,379.2,396.131Zm-1.669-3.058h3.018a1.517,1.517,0,0,0-3.018,0Z"
       class="cls-6" />
    <path
       id="path188"
       d="M384.954,396.131a2.617,2.617,0,0,1-2.668-2.639,2.556,2.556,0,0,1,2.548-2.618,2.52,2.52,0,0,1,2.459,2.659v.29h-4.018a1.717,1.717,0,0,0,1.719,1.459,1.977,1.977,0,0,0,1.289-.45l.639.629A3.029,3.029,0,0,1,384.954,396.131Zm-1.669-3.058H386.3a1.517,1.517,0,0,0-3.018,0Z"
       class="cls-6" />
    <path
       id="path190"
       d="M388.246,390.953h1v.651a1.59,1.59,0,0,1,1.4-.76,1.274,1.274,0,0,1,.51.08v.9a1.718,1.718,0,0,0-.59-.111,1.387,1.387,0,0,0-1.319.93v3.4h-1Z"
       class="cls-6" />
  </g>
  <g
     id="g230">
    <path
       id="path194"
       d="M270.837,320.254h2.469a3.5,3.5,0,1,1,0,7h-2.469Zm1.05.94v5.117h1.439a2.559,2.559,0,1,0,0-5.117Z"
       class="cls-5" />
    <path
       id="path196"
       d="M277.638,325.791c0-.96.78-1.55,2.059-1.55a3.589,3.589,0,0,1,1.389.281v-.54c0-.72-.43-1.079-1.239-1.079a3.625,3.625,0,0,0-1.579.429l-.37-.75a4.768,4.768,0,0,1,2.089-.519c1.319,0,2.078.649,2.078,1.819v3.368h-.979v-.44a2.412,2.412,0,0,1-1.579.53C278.4,327.34,277.638,326.71,277.638,325.791Zm2.1.81a1.952,1.952,0,0,0,1.349-.481v-.879a2.651,2.651,0,0,0-1.309-.31c-.73,0-1.18.33-1.18.84C278.6,326.261,279.057,326.6,279.737,326.6Z"
       class="cls-5" />
    <path
       id="path198"
       d="M283.678,323H282.6v-.84h1.08v-1.3l.989-.241v1.539h1.5V323h-1.5v2.759c0,.52.21.709.75.709a1.959,1.959,0,0,0,.729-.119v.839a3.3,3.3,0,0,1-.949.15c-.99,0-1.519-.47-1.519-1.349Z"
       class="cls-5" />
    <path
       id="path200"
       d="M286.648,325.791c0-.96.779-1.55,2.059-1.55a3.593,3.593,0,0,1,1.389.281v-.54c0-.72-.43-1.079-1.24-1.079a3.629,3.629,0,0,0-1.579.429l-.369-.75a4.768,4.768,0,0,1,2.089-.519c1.318,0,2.078.649,2.078,1.819v3.368H290.1v-.44a2.414,2.414,0,0,1-1.579.53C287.407,327.34,286.648,326.71,286.648,325.791Zm2.1.81a1.952,1.952,0,0,0,1.349-.481v-.879a2.653,2.653,0,0,0-1.309-.31c-.73,0-1.18.33-1.18.84C287.607,326.261,288.067,326.6,288.747,326.6Z"
       class="cls-5" />
    <path
       id="path202"
       d="M299.915,325.451l.69.7a3.849,3.849,0,0,1-2.8,1.209,3.608,3.608,0,1,1,0-7.216,3.8,3.8,0,0,1,2.819,1.209l-.7.72a2.78,2.78,0,0,0-2.119-.959,2.639,2.639,0,0,0,.03,5.277A2.714,2.714,0,0,0,299.915,325.451Z"
       class="cls-5" />
    <path
       id="path204"
       d="M303.756,327.34a2.617,2.617,0,0,1-2.668-2.639,2.557,2.557,0,0,1,2.548-2.618,2.519,2.519,0,0,1,2.459,2.658v.291h-4.017a1.716,1.716,0,0,0,1.718,1.459,1.97,1.97,0,0,0,1.289-.451l.64.63A3.031,3.031,0,0,1,303.756,327.34Zm-1.669-3.058h3.019a1.518,1.518,0,0,0-3.019,0Z"
       class="cls-5" />
    <path
       id="path206"
       d="M307.048,322.162h1v.51a2.1,2.1,0,0,1,1.53-.609,1.9,1.9,0,0,1,1.989,1.989v3.2h-1v-3.028a1.183,1.183,0,0,0-1.259-1.289,1.439,1.439,0,0,0-1.26.659v3.658h-1Z"
       class="cls-5" />
    <path
       id="path208"
       d="M313.177,323H312.1v-.84h1.079v-1.3l.99-.241v1.539h1.5V323h-1.5v2.759c0,.52.21.709.75.709a1.962,1.962,0,0,0,.729-.119v.839a3.3,3.3,0,0,1-.949.15c-.99,0-1.52-.47-1.52-1.349Z"
       class="cls-5" />
    <path
       id="path210"
       d="M318.737,327.34a2.618,2.618,0,0,1-2.669-2.639,2.556,2.556,0,0,1,2.549-2.618,2.519,2.519,0,0,1,2.459,2.658v.291h-4.019a1.718,1.718,0,0,0,1.72,1.459,1.974,1.974,0,0,0,1.289-.451l.64.63A3.033,3.033,0,0,1,318.737,327.34Zm-1.669-3.058h3.017a1.517,1.517,0,0,0-3.017,0Z"
       class="cls-5" />
    <path
       id="path212"
       d="M322.028,322.162h1v.651a1.59,1.59,0,0,1,1.4-.76,1.268,1.268,0,0,1,.51.08v.9a1.686,1.686,0,0,0-.59-.111,1.388,1.388,0,0,0-1.318.93v3.4h-1Z"
       class="cls-5" />
    <path
       id="path214"
       d="M280.661,339.36a3.608,3.608,0,1,1,3.648-3.608A3.588,3.588,0,0,1,280.661,339.36Zm0-6.246a2.639,2.639,0,1,0,2.578,2.638A2.559,2.559,0,0,0,280.661,333.114Z"
       class="cls-5" />
    <path
       id="path216"
       d="M285.313,334.162h.989v.491a2.32,2.32,0,0,1,1.559-.57,2.624,2.624,0,1,1-1.549,4.747v2.489h-1Zm1,1.4v2.3a1.884,1.884,0,0,0,1.419.6,1.754,1.754,0,0,0,0-3.508A1.824,1.824,0,0,0,286.312,335.562Z"
       class="cls-5" />
    <path
       id="path218"
       d="M293.841,339.34a2.618,2.618,0,0,1-2.669-2.639,2.557,2.557,0,0,1,2.549-2.618,2.519,2.519,0,0,1,2.459,2.658v.291h-4.018a1.717,1.717,0,0,0,1.719,1.459,1.974,1.974,0,0,0,1.289-.451l.64.63A3.033,3.033,0,0,1,293.841,339.34Zm-1.669-3.058h3.018a1.517,1.517,0,0,0-3.018,0Z"
       class="cls-5" />
    <path
       id="path220"
       d="M297.132,334.162h1v.651a1.59,1.59,0,0,1,1.4-.76,1.271,1.271,0,0,1,.51.08v.9a1.691,1.691,0,0,0-.59-.111,1.389,1.389,0,0,0-1.319.93v3.4h-1Z"
       class="cls-5" />
    <path
       id="path222"
       d="M300.373,337.791c0-.96.779-1.55,2.058-1.55a3.594,3.594,0,0,1,1.39.281v-.54c0-.72-.43-1.079-1.239-1.079a3.629,3.629,0,0,0-1.58.429l-.37-.75a4.772,4.772,0,0,1,2.089-.519c1.32,0,2.079.649,2.079,1.819v3.368h-.979v-.44a2.414,2.414,0,0,1-1.579.53C301.132,339.34,300.373,338.71,300.373,337.791Zm2.1.81a1.955,1.955,0,0,0,1.35-.481v-.879a2.654,2.654,0,0,0-1.31-.31c-.729,0-1.179.33-1.179.84C301.332,338.261,301.792,338.6,302.471,338.6Z"
       class="cls-5" />
    <path
       id="path224"
       d="M306.413,335h-1.08v-.84h1.08v-1.3l.989-.241v1.539h1.5V335h-1.5v2.759c0,.52.21.709.749.709a1.956,1.956,0,0,0,.729-.119v.839a3.3,3.3,0,0,1-.949.15c-.989,0-1.518-.47-1.518-1.349Z"
       class="cls-5" />
    <path
       id="path226"
       d="M311.952,334.063A2.644,2.644,0,1,1,309.3,336.7,2.611,2.611,0,0,1,311.952,334.063Zm1.659,2.638a1.667,1.667,0,1,0-1.659,1.769A1.7,1.7,0,0,0,313.611,336.7Z"
       class="cls-5" />
    <path
       id="path228"
       d="M315.543,334.162h1v.651a1.589,1.589,0,0,1,1.4-.76,1.271,1.271,0,0,1,.51.08v.9a1.691,1.691,0,0,0-.59-.111,1.387,1.387,0,0,0-1.318.93v3.4h-1Z"
       class="cls-5" />
  </g>
  <g
     id="g272">
    <path
       id="path232"
       d="M388.017,283.359a3.373,3.373,0,0,0,2.408,1.1c1.01,0,1.7-.479,1.7-1.169,0-.62-.4-.929-1.419-1.1l-1.17-.191c-1.28-.21-1.909-.809-1.909-1.818,0-1.22,1.019-2.009,2.579-2.009a4.7,4.7,0,0,1,2.818.949l-.58.8a3.713,3.713,0,0,0-2.288-.86c-.91,0-1.52.42-1.52,1.04,0,.569.35.84,1.249.989l1.13.18c1.48.24,2.149.849,2.149,1.939,0,1.289-1.12,2.149-2.788,2.149a4.216,4.216,0,0,1-3-1.259Z"
       class="cls-6" />
    <path
       id="path234"
       d="M396.555,285.348a2.617,2.617,0,0,1-2.668-2.639,2.556,2.556,0,0,1,2.548-2.618,2.519,2.519,0,0,1,2.459,2.658v.29h-4.017A1.714,1.714,0,0,0,396.6,284.5a1.975,1.975,0,0,0,1.289-.45l.64.63A3.031,3.031,0,0,1,396.555,285.348Zm-1.669-3.059h3.019a1.518,1.518,0,0,0-3.019,0Z"
       class="cls-6" />
    <path
       id="path236"
       d="M399.847,280.17h1v.651a1.591,1.591,0,0,1,1.4-.76,1.251,1.251,0,0,1,.509.08v.9a1.707,1.707,0,0,0-.589-.11,1.39,1.39,0,0,0-1.32.93v3.4h-1Z"
       class="cls-6" />
    <path
       id="path238"
       d="M403.2,280.17h1.1l1.589,3.809,1.589-3.809h1.069l-2.2,5.088H405.4Z"
       class="cls-6" />
    <path
       id="path240"
       d="M409.056,278.732a.615.615,0,0,1,.61-.62.62.62,0,1,1,0,1.239A.614.614,0,0,1,409.056,278.732Zm1.11,6.526h-1V280.17h1Z"
       class="cls-6" />
    <path
       id="path242"
       d="M415.144,283.849l.6.649a2.813,2.813,0,0,1-2.009.85,2.639,2.639,0,0,1,0-5.277,2.888,2.888,0,0,1,2.049.849l-.63.68a1.89,1.89,0,0,0-1.4-.64,1.757,1.757,0,0,0,.02,3.508A1.85,1.85,0,0,0,415.144,283.849Z"
       class="cls-6" />
    <path
       id="path244"
       d="M418.794,285.348a2.616,2.616,0,0,1-2.667-2.639,2.556,2.556,0,0,1,2.547-2.618,2.519,2.519,0,0,1,2.459,2.658v.29h-4.017a1.715,1.715,0,0,0,1.719,1.459,1.977,1.977,0,0,0,1.289-.45l.639.63A3.031,3.031,0,0,1,418.794,285.348Zm-1.668-3.059h3.018a1.517,1.517,0,0,0-3.018,0Z"
       class="cls-6" />
    <path
       id="path246"
       d="M376.215,290.262h1.23l2.858,7h-1.139l-.81-2.049h-3.128l-.819,2.049h-1.09Zm1.8,4.077-1.219-3.068-1.219,3.068Z"
       class="cls-6" />
    <path
       id="path248"
       d="M384.534,296.779a2.406,2.406,0,0,1-1.559.559,2.624,2.624,0,1,1,1.549-4.748v-2.328l1-.22v7.216h-.99Zm-1.419-.311a1.835,1.835,0,0,0,1.409-.609V293.55a1.859,1.859,0,0,0-1.409-.6,1.759,1.759,0,0,0,0,3.518Z"
       class="cls-6" />
    <path
       id="path250"
       d="M386.707,292.17h1v.481a1.947,1.947,0,0,1,1.428-.58,1.776,1.776,0,0,1,1.57.849,2.037,2.037,0,0,1,1.718-.849,1.864,1.864,0,0,1,1.91,1.989v3.2h-1V294.23a1.143,1.143,0,0,0-1.169-1.289,1.358,1.358,0,0,0-1.19.678,2.129,2.129,0,0,1,.04.441v3.2h-.989V294.23a1.143,1.143,0,0,0-1.17-1.289,1.329,1.329,0,0,0-1.148.619v3.7h-1Z"
       class="cls-6" />
    <path
       id="path252"
       d="M395.377,290.732a.614.614,0,0,1,.609-.62.62.62,0,1,1,0,1.239A.613.613,0,0,1,395.377,290.732Zm1.109,6.526h-1V292.17h1Z"
       class="cls-6" />
    <path
       id="path254"
       d="M397.667,292.17h1v.51a2.1,2.1,0,0,1,1.529-.609,1.9,1.9,0,0,1,1.989,1.989v3.2h-1V294.23a1.183,1.183,0,0,0-1.259-1.289,1.436,1.436,0,0,0-1.259.659v3.658h-1Z"
       class="cls-6" />
    <path
       id="path256"
       d="M403.226,290.732a.614.614,0,0,1,.609-.62.62.62,0,1,1,0,1.239A.614.614,0,0,1,403.226,290.732Zm1.109,6.526h-1V292.17h1Z"
       class="cls-6" />
    <path
       id="path258"
       d="M405.576,295.939a2.666,2.666,0,0,0,1.659.639c.72,0,1.22-.309,1.22-.759,0-.36-.26-.57-.82-.65l-.92-.13c-1.008-.15-1.518-.62-1.518-1.409,0-.92.8-1.539,1.988-1.539a3.487,3.487,0,0,1,2.049.65l-.51.659a2.831,2.831,0,0,0-1.608-.53c-.611,0-1.02.28-1.02.69,0,.37.239.55.839.639l.92.13c1.01.151,1.539.63,1.539,1.419,0,.91-.92,1.6-2.129,1.6a3.35,3.35,0,0,1-2.228-.75Z"
       class="cls-6" />
    <path
       id="path260"
       d="M410.726,293.01h-1.08v-.84h1.08v-1.3l.989-.24v1.539h1.5v.84h-1.5v2.759c0,.519.21.709.749.709a1.957,1.957,0,0,0,.73-.119v.839a3.346,3.346,0,0,1-.949.15c-.99,0-1.519-.47-1.519-1.35Z"
       class="cls-6" />
    <path
       id="path262"
       d="M413.957,292.17h1v.651a1.588,1.588,0,0,1,1.4-.76,1.256,1.256,0,0,1,.51.08v.9a1.717,1.717,0,0,0-.59-.11,1.387,1.387,0,0,0-1.319.93v3.4h-1Z"
       class="cls-6" />
    <path
       id="path264"
       d="M417.2,295.8c0-.96.779-1.55,2.058-1.55a3.591,3.591,0,0,1,1.39.281v-.54c0-.72-.43-1.08-1.239-1.08a3.614,3.614,0,0,0-1.579.43l-.37-.75a4.768,4.768,0,0,1,2.088-.519c1.32,0,2.08.649,2.08,1.819v3.368h-.98v-.44a2.414,2.414,0,0,1-1.579.53C417.956,297.348,417.2,296.718,417.2,295.8Zm2.1.81a1.952,1.952,0,0,0,1.35-.481v-.879a2.642,2.642,0,0,0-1.309-.31c-.73,0-1.18.33-1.18.84C418.155,296.269,418.615,296.609,419.294,296.609Z"
       class="cls-6" />
    <path
       id="path266"
       d="M423.236,293.01h-1.08v-.84h1.08v-1.3l.989-.24v1.539h1.5v.84h-1.5v2.759c0,.519.21.709.749.709a1.961,1.961,0,0,0,.73-.119v.839a3.347,3.347,0,0,1-.95.15c-.989,0-1.518-.47-1.518-1.35Z"
       class="cls-6" />
    <path
       id="path268"
       d="M428.775,292.071a2.644,2.644,0,1,1-2.648,2.638A2.612,2.612,0,0,1,428.775,292.071Zm1.659,2.638a1.667,1.667,0,1,0-1.659,1.769A1.7,1.7,0,0,0,430.434,294.709Z"
       class="cls-6" />
    <path
       id="path270"
       d="M432.366,292.17h1v.651a1.588,1.588,0,0,1,1.4-.76,1.25,1.25,0,0,1,.51.08v.9a1.708,1.708,0,0,0-.59-.11,1.388,1.388,0,0,0-1.318.93v3.4h-1Z"
       class="cls-6" />
  </g>
  <g
     id="g300">
    <path
       id="path274"
       d="M208.643,371.255l.69.7a3.849,3.849,0,0,1-2.8,1.209,3.608,3.608,0,1,1,0-7.215,3.8,3.8,0,0,1,2.819,1.209l-.7.719a2.78,2.78,0,0,0-2.119-.959,2.639,2.639,0,0,0,.03,5.278A2.714,2.714,0,0,0,208.643,371.255Z"
       class="cls-6" />
    <path
       id="path276"
       d="M211.246,373.054h-1v-7l1-.22Z"
       class="cls-6" />
    <path
       id="path278"
       d="M214.845,367.866a2.644,2.644,0,1,1-2.649,2.639A2.611,2.611,0,0,1,214.845,367.866Zm1.659,2.639a1.667,1.667,0,1,0-1.659,1.769A1.7,1.7,0,0,0,216.5,370.505Z"
       class="cls-6" />
    <path
       id="path280"
       d="M219.416,370.985a1.191,1.191,0,0,0,1.259,1.3,1.431,1.431,0,0,0,1.249-.669v-3.649h1v5.088h-1v-.51a2.078,2.078,0,0,1-1.529.61,1.9,1.9,0,0,1-1.979-2v-3.189h1Z"
       class="cls-6" />
    <path
       id="path282"
       d="M228,372.574a2.4,2.4,0,0,1-1.559.56,2.624,2.624,0,0,1,.02-5.247,2.6,2.6,0,0,1,1.53.5v-2.328l1-.22v7.216H228Zm-1.418-.31a1.836,1.836,0,0,0,1.409-.609v-2.309a1.86,1.86,0,0,0-1.409-.6,1.7,1.7,0,0,0-1.729,1.749A1.72,1.72,0,0,0,226.585,372.264Z"
       class="cls-6" />
    <path
       id="path284"
       d="M199.044,385.163a3.608,3.608,0,1,1,3.648-3.607A3.588,3.588,0,0,1,199.044,385.163Zm0-6.246a2.64,2.64,0,1,0,2.579,2.639A2.559,2.559,0,0,0,199.044,378.917Z"
       class="cls-6" />
    <path
       id="path286"
       d="M203.7,379.966h.99v.49a2.319,2.319,0,0,1,1.559-.569,2.624,2.624,0,1,1-1.549,4.747v2.488h-1Zm1,1.4v2.3a1.885,1.885,0,0,0,1.419.6,1.754,1.754,0,0,0,0-3.508A1.822,1.822,0,0,0,204.7,381.366Z"
       class="cls-6" />
    <path
       id="path288"
       d="M212.225,385.144a2.619,2.619,0,0,1-2.669-2.639,2.556,2.556,0,0,1,2.549-2.618,2.519,2.519,0,0,1,2.459,2.658v.29h-4.019a1.717,1.717,0,0,0,1.72,1.459,1.979,1.979,0,0,0,1.289-.45l.639.63A3.03,3.03,0,0,1,212.225,385.144Zm-1.669-3.059h3.018a1.517,1.517,0,0,0-3.018,0Z"
       class="cls-6" />
    <path
       id="path290"
       d="M215.516,379.966h1v.65a1.589,1.589,0,0,1,1.4-.759,1.251,1.251,0,0,1,.509.08v.9a1.707,1.707,0,0,0-.589-.11,1.387,1.387,0,0,0-1.319.93v3.4h-1Z"
       class="cls-6" />
    <path
       id="path292"
       d="M218.756,383.6c0-.96.78-1.55,2.059-1.55a3.607,3.607,0,0,1,1.389.28v-.54c0-.719-.43-1.079-1.239-1.079a3.614,3.614,0,0,0-1.579.43l-.37-.75a4.77,4.77,0,0,1,2.089-.52c1.319,0,2.079.65,2.079,1.82v3.368h-.98v-.44a2.412,2.412,0,0,1-1.579.53C219.516,385.144,218.756,384.514,218.756,383.6Zm2.1.81a1.955,1.955,0,0,0,1.349-.481v-.879a2.64,2.64,0,0,0-1.309-.31c-.729,0-1.18.33-1.18.839C219.715,384.065,220.175,384.405,220.855,384.405Z"
       class="cls-6" />
    <path
       id="path294"
       d="M224.8,380.806h-1.08v-.84h1.08v-1.3l.989-.24v1.539h1.5v.84h-1.5v2.759c0,.519.21.709.75.709a1.979,1.979,0,0,0,.729-.119v.838a3.3,3.3,0,0,1-.949.151c-.99,0-1.519-.47-1.519-1.35Z"
       class="cls-6" />
    <path
       id="path296"
       d="M230.335,379.866a2.644,2.644,0,1,1-2.648,2.639A2.612,2.612,0,0,1,230.335,379.866Zm1.659,2.639a1.667,1.667,0,1,0-1.659,1.769A1.7,1.7,0,0,0,231.994,382.505Z"
       class="cls-6" />
    <path
       id="path298"
       d="M233.926,379.966h1v.65a1.589,1.589,0,0,1,1.4-.759,1.256,1.256,0,0,1,.51.08v.9a1.713,1.713,0,0,0-.59-.11,1.388,1.388,0,0,0-1.319.93v3.4h-1Z"
       class="cls-6" />
  </g>
  <g
     id="g330">
    <path
       id="path302"
       d="M452.586,323.776h2.469a3.5,3.5,0,1,1,0,7h-2.469Zm1.05.939v5.117h1.439a2.559,2.559,0,1,0,0-5.117Z"
       class="cls-7" />
    <path
       id="path304"
       d="M462.165,325.584a2.644,2.644,0,1,1-2.649,2.639A2.611,2.611,0,0,1,462.165,325.584Zm1.659,2.639a1.667,1.667,0,1,0-1.659,1.769A1.7,1.7,0,0,0,463.824,328.223Z"
       class="cls-7" />
    <path
       id="path306"
       d="M465.756,325.684h1v.48a1.951,1.951,0,0,1,1.429-.58,1.774,1.774,0,0,1,1.569.85,2.037,2.037,0,0,1,1.719-.85,1.865,1.865,0,0,1,1.909,1.99v3.2h-1v-3.029a1.143,1.143,0,0,0-1.169-1.289,1.357,1.357,0,0,0-1.189.679,2.135,2.135,0,0,1,.04.441v3.2h-.989v-3.029a1.143,1.143,0,0,0-1.17-1.289,1.332,1.332,0,0,0-1.149.62v3.7h-1Z"
       class="cls-7" />
    <path
       id="path308"
       d="M474.276,329.313c0-.959.78-1.549,2.059-1.549a3.606,3.606,0,0,1,1.389.279V327.5c0-.721-.43-1.08-1.239-1.08a3.614,3.614,0,0,0-1.579.43l-.369-.75a4.753,4.753,0,0,1,2.089-.52c1.319,0,2.078.651,2.078,1.82v3.368h-.98v-.44a2.41,2.41,0,0,1-1.579.53C475.036,330.862,474.276,330.233,474.276,329.313Zm2.1.809a1.956,1.956,0,0,0,1.348-.479v-.88a2.636,2.636,0,0,0-1.308-.31c-.73,0-1.18.33-1.18.84C475.236,329.783,475.7,330.122,476.376,330.122Z"
       class="cls-7" />
    <path
       id="path310"
       d="M479.747,324.245a.614.614,0,0,1,.609-.62.621.621,0,0,1,0,1.241A.615.615,0,0,1,479.747,324.245Zm1.109,6.527h-1v-5.088h1Z"
       class="cls-7" />
    <path
       id="path312"
       d="M482.037,325.684h1v.51a2.1,2.1,0,0,1,1.529-.61,1.9,1.9,0,0,1,1.989,1.99v3.2h-1v-3.029a1.184,1.184,0,0,0-1.259-1.289,1.437,1.437,0,0,0-1.259.66v3.658h-1Z"
       class="cls-7" />
    <path
       id="path314"
       d="M452.519,342.881a3.608,3.608,0,1,1,3.649-3.607A3.587,3.587,0,0,1,452.519,342.881Zm0-6.246a2.639,2.639,0,1,0,2.579,2.639A2.559,2.559,0,0,0,452.519,336.635Z"
       class="cls-7" />
    <path
       id="path316"
       d="M457.171,337.684h.99v.49a2.323,2.323,0,0,1,1.558-.569,2.624,2.624,0,1,1-1.549,4.747v2.488h-1Zm1,1.4v2.3a1.892,1.892,0,0,0,1.419.6,1.755,1.755,0,0,0,0-3.509A1.827,1.827,0,0,0,458.17,339.084Z"
       class="cls-7" />
    <path
       id="path318"
       d="M465.7,342.862a2.619,2.619,0,0,1-2.669-2.639,2.556,2.556,0,0,1,2.549-2.618,2.519,2.519,0,0,1,2.459,2.658v.29H464.02a1.717,1.717,0,0,0,1.72,1.459,1.984,1.984,0,0,0,1.289-.449l.639.629A3.029,3.029,0,0,1,465.7,342.862Zm-1.669-3.059h3.017a1.517,1.517,0,0,0-3.017,0Z"
       class="cls-7" />
    <path
       id="path320"
       d="M468.991,337.684h1v.65a1.59,1.59,0,0,1,1.4-.76,1.249,1.249,0,0,1,.51.081v.9a1.732,1.732,0,0,0-.59-.11,1.388,1.388,0,0,0-1.318.929v3.4h-1Z"
       class="cls-7" />
    <path
       id="path322"
       d="M472.231,341.313c0-.959.779-1.549,2.059-1.549a3.6,3.6,0,0,1,1.389.279V339.5c0-.721-.429-1.08-1.239-1.08a3.614,3.614,0,0,0-1.579.43l-.37-.75a4.76,4.76,0,0,1,2.089-.52c1.319,0,2.079.651,2.079,1.82v3.368h-.98v-.44a2.414,2.414,0,0,1-1.579.53C472.991,342.862,472.231,342.233,472.231,341.313Zm2.1.809a1.959,1.959,0,0,0,1.349-.479v-.88a2.64,2.64,0,0,0-1.309-.31c-.73,0-1.18.33-1.18.84C473.19,341.783,473.65,342.122,474.33,342.122Z"
       class="cls-7" />
    <path
       id="path324"
       d="M478.271,338.524h-1.08v-.84h1.08v-1.3l.989-.24v1.539h1.5v.84h-1.5v2.759c0,.52.21.709.749.709a1.958,1.958,0,0,0,.73-.12v.839a3.311,3.311,0,0,1-.949.151c-.99,0-1.519-.47-1.519-1.35Z"
       class="cls-7" />
    <path
       id="path326"
       d="M483.81,337.584a2.644,2.644,0,1,1-2.648,2.639A2.612,2.612,0,0,1,483.81,337.584Zm1.659,2.639a1.667,1.667,0,1,0-1.659,1.769A1.7,1.7,0,0,0,485.469,340.223Z"
       class="cls-7" />
    <path
       id="path328"
       d="M487.4,337.684h1v.65a1.59,1.59,0,0,1,1.4-.76,1.249,1.249,0,0,1,.51.081v.9a1.732,1.732,0,0,0-.59-.11,1.388,1.388,0,0,0-1.318.929v3.4h-1Z"
       class="cls-7" />
  </g>
  <g
     id="g372">
    <path
       id="path332"
       d="M65.659,169.274h1.23l2.858,7H68.608l-.81-2.049H64.67l-.819,2.049h-1.09Zm1.8,4.078-1.22-3.069-1.219,3.069Z"
       class="cls-7" />
    <path
       id="path334"
       d="M70.351,171.183h.989v.489A2.324,2.324,0,0,1,72.9,171.1a2.624,2.624,0,1,1-1.549,4.747v2.489h-1Zm1,1.4v2.3a1.889,1.889,0,0,0,1.419.6,1.755,1.755,0,0,0,0-3.509A1.827,1.827,0,0,0,71.35,172.582Z"
       class="cls-7" />
    <path
       id="path336"
       d="M76.42,171.183h.99v.489a2.324,2.324,0,0,1,1.559-.569,2.624,2.624,0,1,1-1.549,4.747v2.489h-1Zm1,1.4v2.3a1.889,1.889,0,0,0,1.419.6,1.755,1.755,0,0,0,0-3.509A1.827,1.827,0,0,0,77.42,172.582Z"
       class="cls-7" />
    <path
       id="path338"
       d="M83.49,176.27h-1v-7l1-.22Z"
       class="cls-7" />
    <path
       id="path340"
       d="M84.56,169.743a.614.614,0,0,1,.61-.619.62.62,0,1,1,0,1.24A.615.615,0,0,1,84.56,169.743Zm1.11,6.527h-1v-5.087h1Z"
       class="cls-7" />
    <path
       id="path342"
       d="M90.648,174.861l.6.649a2.814,2.814,0,0,1-2.009.85,2.639,2.639,0,0,1,0-5.277,2.889,2.889,0,0,1,2.049.85l-.63.679a1.9,1.9,0,0,0-1.4-.64,1.757,1.757,0,0,0,.02,3.509A1.855,1.855,0,0,0,90.648,174.861Z"
       class="cls-7" />
    <path
       id="path344"
       d="M91.8,174.811c0-.959.78-1.549,2.059-1.549a3.606,3.606,0,0,1,1.389.279V173c0-.719-.43-1.08-1.239-1.08a3.614,3.614,0,0,0-1.579.43l-.37-.749a4.743,4.743,0,0,1,2.089-.52c1.319,0,2.079.65,2.079,1.819v3.368h-.98v-.44a2.412,2.412,0,0,1-1.579.53C92.56,176.36,91.8,175.731,91.8,174.811Zm2.1.809a1.959,1.959,0,0,0,1.349-.479v-.88a2.64,2.64,0,0,0-1.309-.31c-.729,0-1.18.331-1.18.84C92.759,175.281,93.219,175.62,93.9,175.62Z"
       class="cls-7" />
    <path
       id="path346"
       d="M97.84,172.023H96.76v-.84h1.08v-1.3l.989-.239v1.539h1.5v.84h-1.5v2.758c0,.52.21.71.75.71a1.96,1.96,0,0,0,.729-.121v.84a3.3,3.3,0,0,1-.949.15c-.99,0-1.519-.47-1.519-1.349Z"
       class="cls-7" />
    <path
       id="path348"
       d="M100.96,169.743a.614.614,0,0,1,.61-.619.62.62,0,0,1,0,1.24A.615.615,0,0,1,100.96,169.743Zm1.11,6.527h-1v-5.087h1Z"
       class="cls-7" />
    <path
       id="path350"
       d="M105.668,171.083a2.644,2.644,0,1,1-2.648,2.638A2.61,2.61,0,0,1,105.668,171.083Zm1.66,2.638a1.667,1.667,0,1,0-1.66,1.77A1.7,1.7,0,0,0,107.328,173.721Z"
       class="cls-7" />
    <path
       id="path352"
       d="M109.26,171.183h1v.51a2.092,2.092,0,0,1,1.529-.61,1.9,1.9,0,0,1,1.989,1.989v3.2h-1v-3.029a1.184,1.184,0,0,0-1.259-1.289,1.437,1.437,0,0,0-1.259.66v3.658h-1Z"
       class="cls-7" />
    <path
       id="path354"
       d="M65.52,181.274h2.469a3.5,3.5,0,1,1,0,7H65.52Zm1.05.939v5.117h1.439a2.559,2.559,0,1,0,0-5.117Z"
       class="cls-7" />
    <path
       id="path356"
       d="M75.119,188.36a2.619,2.619,0,0,1-2.669-2.639A2.556,2.556,0,0,1,75,183.1a2.519,2.519,0,0,1,2.459,2.658v.29H73.439a1.717,1.717,0,0,0,1.72,1.459,1.984,1.984,0,0,0,1.289-.449l.639.63A3.035,3.035,0,0,1,75.119,188.36ZM73.45,185.3h3.018a1.517,1.517,0,0,0-3.018,0Z"
       class="cls-7" />
    <path
       id="path358"
       d="M77.65,183.183h1.1l1.589,3.808,1.589-3.808H83l-2.2,5.087H79.85Z"
       class="cls-7" />
    <path
       id="path360"
       d="M85.859,188.36a2.619,2.619,0,0,1-2.669-2.639,2.556,2.556,0,0,1,2.549-2.618,2.519,2.519,0,0,1,2.459,2.658v.29H84.18A1.716,1.716,0,0,0,85.9,187.51a1.984,1.984,0,0,0,1.289-.449l.64.63A3.038,3.038,0,0,1,85.859,188.36ZM84.19,185.3h3.018a1.517,1.517,0,0,0-3.018,0Z"
       class="cls-7" />
    <path
       id="path362"
       d="M90.15,188.27h-1v-7l1-.22Z"
       class="cls-7" />
    <path
       id="path364"
       d="M93.749,183.083a2.644,2.644,0,1,1-2.649,2.638A2.61,2.61,0,0,1,93.749,183.083Zm1.659,2.638a1.667,1.667,0,1,0-1.659,1.77A1.7,1.7,0,0,0,95.408,185.721Z"
       class="cls-7" />
    <path
       id="path366"
       d="M97.34,183.183h.99v.489a2.324,2.324,0,0,1,1.559-.569,2.624,2.624,0,1,1-1.549,4.747v2.489h-1Zm1,1.4v2.3a1.889,1.889,0,0,0,1.419.6,1.755,1.755,0,0,0,0-3.509A1.825,1.825,0,0,0,98.34,184.582Z"
       class="cls-7" />
    <path
       id="path368"
       d="M105.869,188.36a2.619,2.619,0,0,1-2.669-2.639,2.556,2.556,0,0,1,2.549-2.618,2.519,2.519,0,0,1,2.459,2.658v.29h-4.019a1.717,1.717,0,0,0,1.72,1.459,1.984,1.984,0,0,0,1.289-.449l.639.63A3.035,3.035,0,0,1,105.869,188.36ZM104.2,185.3h3.018a1.517,1.517,0,0,0-3.018,0Z"
       class="cls-7" />
    <path
       id="path370"
       d="M109.16,183.183h1v.649a1.592,1.592,0,0,1,1.4-.759,1.268,1.268,0,0,1,.509.08v.9a1.73,1.73,0,0,0-.589-.109,1.386,1.386,0,0,0-1.319.929v3.4h-1Z"
       class="cls-7" />
  </g>
  <g
     id="g382">
    <path
       id="path374"
       d="M87.734,135.852a5.442,5.442,0,1,0-5.443-5.442A5.45,5.45,0,0,0,87.734,135.852Z"
       class="cls-8" />
    <path
       id="path376"
       d="M99.533,148.053c-.39-3.952-1.2-9.139-8.75-9.139H84.689c-7.552,0-8.408,4.939-8.752,9.139l-.446,5.594c0,2.694,1.432,4.046,3.545,5.6l.872-12.089a.4.4,0,1,1,.8,0l-.876,14.925a.377.377,0,0,1-.019.113c.582.493,2.516,1.632,7.918,1.632,5.213,0,7.194-1.06,7.856-1.576l-.876-15.094a.4.4,0,1,1,.8,0l.872,12.12c2.13-1.563,3.589-2.918,3.589-5.628h-.006Z"
       class="cls-8" />
    <path
       id="path378"
       d="M90.783,138H84.69c-8.849,0-9.38,6.492-9.665,9.982l-.45,5.63v.037c0,3.193,1.854,4.818,3.919,6.335l.523.384-.135,2.232.34.293c.815.691,3,1.85,8.511,1.85,5.349,0,7.571-1.109,8.419-1.77l.379-.3L96.4,160.4l.531-.39c2.168-1.59,3.962-3.167,3.962-6.366l-.448-5.684C100.1,144.48,99.462,138,90.783,138Zm5.605,21.277-.872-12.12a.4.4,0,1,0-.8,0l.876,15.094c-.662.516-2.643,1.576-7.856,1.576-5.4,0-7.336-1.139-7.918-1.632a.377.377,0,0,0,.019-.113l.876-14.925a.4.4,0,1,0-.8,0l-.872,12.089c-2.113-1.551-3.545-2.9-3.545-5.6l.446-5.594c.344-4.2,1.2-9.139,8.752-9.139h6.094c7.549,0,8.36,5.187,8.75,9.139l.438,5.594h.006C99.977,156.357,98.518,157.712,96.388,159.275Z"
       class="cls-9" />
    <path
       id="path380"
       d="M87.733,136.767a6.358,6.358,0,1,0-6.358-6.357A6.365,6.365,0,0,0,87.733,136.767Zm0-11.8a5.442,5.442,0,1,1-5.443,5.442A5.449,5.449,0,0,1,87.734,124.968Z"
       class="cls-9" />
  </g>
  <g
     id="g392">
    <path
       id="path384"
       d="M81.375,385.256a5.442,5.442,0,1,0-5.443-5.442A5.45,5.45,0,0,0,81.375,385.256Z"
       class="cls-8" />
    <path
       id="path386"
       d="M93.174,397.457c-.39-3.952-1.2-9.139-8.75-9.139H78.33c-7.552,0-8.408,4.939-8.752,9.139l-.446,5.594c0,2.694,1.432,4.046,3.545,5.6l.872-12.089a.4.4,0,1,1,.8,0l-.876,14.925a.377.377,0,0,1-.019.113c.582.493,2.516,1.632,7.918,1.632,5.213,0,7.194-1.06,7.856-1.576l-.876-15.094a.4.4,0,1,1,.8,0l.872,12.12c2.13-1.563,3.589-2.918,3.589-5.628h-.006Z"
       class="cls-8" />
    <path
       id="path388"
       d="M84.424,387.4H78.331c-8.849,0-9.38,6.492-9.665,9.982l-.45,5.63v.037c0,3.193,1.854,4.818,3.919,6.335l.523.384L72.523,412l.34.293c.815.691,3,1.85,8.511,1.85,5.349,0,7.571-1.109,8.419-1.77l.379-.3-.132-2.273.531-.39c2.168-1.59,3.962-3.167,3.962-6.366l-.448-5.684C93.742,393.884,93.1,387.4,84.424,387.4Zm5.6,21.277-.872-12.12a.4.4,0,1,0-.8,0l.876,15.094c-.662.516-2.643,1.576-7.856,1.576-5.4,0-7.336-1.139-7.918-1.632a.377.377,0,0,0,.019-.113l.876-14.925a.4.4,0,1,0-.8,0l-.872,12.089c-2.113-1.551-3.545-2.9-3.545-5.6l.446-5.594c.344-4.2,1.2-9.139,8.752-9.139h6.094c7.549,0,8.36,5.187,8.75,9.139l.438,5.594h.006C93.618,405.761,92.159,407.116,90.029,408.679Z"
       class="cls-9" />
    <path
       id="path390"
       d="M81.374,386.171a6.358,6.358,0,1,0-6.358-6.357A6.365,6.365,0,0,0,81.374,386.171Zm0-11.8a5.442,5.442,0,1,1-5.443,5.442A5.449,5.449,0,0,1,81.375,374.372Z"
       class="cls-9" />
  </g>
  <g
     id="g402">
    <path
       id="path394"
       d="M201.863,226.863a5.442,5.442,0,1,0-5.443-5.441A5.449,5.449,0,0,0,201.863,226.863Z"
       class="cls-8" />
    <path
       id="path396"
       d="M213.662,239.064c-.39-3.951-1.2-9.139-8.75-9.139h-6.094c-7.552,0-8.408,4.939-8.752,9.139l-.446,5.594c0,2.694,1.433,4.046,3.545,5.6l.872-12.089a.4.4,0,1,1,.8,0l-.877,14.926a.365.365,0,0,1-.019.112c.582.494,2.516,1.633,7.918,1.633,5.213,0,7.194-1.061,7.856-1.577l-.876-15.094a.4.4,0,1,1,.8,0l.872,12.12c2.13-1.563,3.589-2.918,3.589-5.628H214.1Z"
       class="cls-8" />
    <path
       id="path398"
       d="M204.912,229.009h-6.093c-8.849,0-9.38,6.492-9.665,9.982l-.449,5.631v.036c0,3.193,1.853,4.819,3.918,6.335l.523.385-.135,2.232.34.292c.815.691,3,1.851,8.511,1.851,5.349,0,7.571-1.11,8.419-1.771l.379-.295-.132-2.273.531-.389c2.168-1.591,3.962-3.168,3.962-6.367l-.447-5.684C214.23,235.492,213.591,229.009,204.912,229.009Zm5.6,21.277-.872-12.12a.4.4,0,1,0-.8,0l.876,15.094c-.662.516-2.643,1.577-7.856,1.577-5.4,0-7.336-1.139-7.918-1.633a.365.365,0,0,0,.019-.112l.877-14.926a.4.4,0,1,0-.8,0l-.872,12.089c-2.112-1.551-3.545-2.9-3.545-5.6l.446-5.594c.344-4.2,1.2-9.139,8.752-9.139h6.094c7.549,0,8.36,5.188,8.75,9.139l.438,5.594h.006C214.106,247.368,212.647,248.723,210.517,250.286Z"
       class="cls-9" />
    <path
       id="path400"
       d="M201.862,227.779a6.358,6.358,0,1,0-6.358-6.357A6.366,6.366,0,0,0,201.862,227.779Zm0-11.8a5.442,5.442,0,1,1-5.443,5.443A5.449,5.449,0,0,1,201.863,215.979Z"
       class="cls-9" />
  </g>
  <g
     id="g412">
    <path
       id="path404"
       d="M216.021,333.713a5.442,5.442,0,1,0-5.443-5.441A5.448,5.448,0,0,0,216.021,333.713Z"
       class="cls-8" />
    <path
       id="path406"
       d="M227.821,345.914c-.39-3.951-1.2-9.139-8.751-9.139h-6.093c-7.553,0-8.409,4.939-8.752,9.139l-.446,5.594c0,2.694,1.432,4.046,3.545,5.6l.872-12.089a.4.4,0,1,1,.8,0l-.876,14.925a.366.366,0,0,1-.02.113c.583.493,2.517,1.633,7.919,1.633,5.212,0,7.193-1.061,7.855-1.577L223,345.016a.4.4,0,1,1,.8,0l.872,12.12c2.129-1.563,3.588-2.918,3.588-5.628h-.005Z"
       class="cls-8" />
    <path
       id="path408"
       d="M219.07,335.859h-6.093c-8.848,0-9.379,6.492-9.665,9.982l-.449,5.631v.036c0,3.193,1.853,4.819,3.918,6.335l.524.384-.136,2.233.341.292c.815.691,3,1.85,8.511,1.85,5.349,0,7.57-1.109,8.419-1.77l.379-.3-.132-2.273.531-.389c2.167-1.591,3.962-3.168,3.962-6.367l-.448-5.684C228.389,342.342,227.749,335.859,219.07,335.859Zm5.606,21.277-.872-12.12a.4.4,0,1,0-.8,0l.875,15.094c-.662.516-2.643,1.577-7.855,1.577-5.4,0-7.336-1.14-7.919-1.633a.366.366,0,0,0,.02-.113L209,345.016a.4.4,0,1,0-.8,0l-.872,12.089c-2.113-1.551-3.545-2.9-3.545-5.6l.446-5.594c.343-4.2,1.2-9.139,8.752-9.139h6.093c7.55,0,8.361,5.188,8.751,9.139l.438,5.594h.005C228.264,354.218,226.805,355.573,224.676,357.136Z"
       class="cls-9" />
    <path
       id="path410"
       d="M216.021,334.629a6.358,6.358,0,1,0-6.359-6.357A6.366,6.366,0,0,0,216.021,334.629Zm0-11.8a5.442,5.442,0,1,1-5.443,5.443A5.449,5.449,0,0,1,216.021,322.829Z"
       class="cls-9" />
  </g>
  <g
     id="g422">
    <path
       id="path414"
       d="M370.855,345.05a5.442,5.442,0,1,0-5.443-5.441A5.449,5.449,0,0,0,370.855,345.05Z"
       class="cls-8" />
    <path
       id="path416"
       d="M382.655,357.251c-.39-3.952-1.2-9.139-8.751-9.139h-6.093c-7.553,0-8.409,4.939-8.752,9.139l-.446,5.594c0,2.694,1.432,4.046,3.545,5.6l.872-12.089a.4.4,0,1,1,.8,0l-.876,14.925a.377.377,0,0,1-.02.113c.583.493,2.517,1.632,7.919,1.632,5.212,0,7.193-1.06,7.855-1.576l-.875-15.094a.4.4,0,1,1,.8,0l.872,12.12c2.129-1.563,3.588-2.918,3.588-5.628h0Z"
       class="cls-8" />
    <path
       id="path418"
       d="M373.9,347.2h-6.093c-8.848,0-9.379,6.492-9.665,9.982l-.449,5.63v.037c0,3.193,1.853,4.818,3.918,6.335l.524.384L362,371.8l.341.293c.815.691,3,1.85,8.511,1.85,5.349,0,7.57-1.109,8.419-1.77l.379-.295-.132-2.273.531-.389c2.167-1.591,3.962-3.168,3.962-6.367l-.448-5.684C383.223,353.679,382.583,347.2,373.9,347.2Zm5.606,21.277-.872-12.12a.4.4,0,1,0-.8,0l.875,15.094c-.662.516-2.643,1.576-7.855,1.576-5.4,0-7.336-1.139-7.919-1.632a.377.377,0,0,0,.02-.113l.876-14.925a.4.4,0,1,0-.8,0l-.872,12.089c-2.113-1.551-3.545-2.9-3.545-5.6l.446-5.594c.343-4.2,1.2-9.139,8.752-9.139H373.9c7.55,0,8.361,5.187,8.751,9.139l.438,5.594h0C383.1,365.555,381.639,366.91,379.51,368.473Z"
       class="cls-9" />
    <path
       id="path420"
       d="M370.855,345.965a6.358,6.358,0,1,0-6.358-6.356A6.365,6.365,0,0,0,370.855,345.965Zm0-11.8a5.442,5.442,0,1,1-5.443,5.443A5.449,5.449,0,0,1,370.855,334.166Z"
       class="cls-9" />
  </g>
  <g
     id="g432">
    <path
       id="path424"
       d="M402.4,244.982a5.442,5.442,0,1,0-5.443-5.441A5.448,5.448,0,0,0,402.4,244.982Z"
       class="cls-8" />
    <path
       id="path426"
       d="M414.2,257.183c-.39-3.951-1.2-9.139-8.75-9.139h-6.094c-7.552,0-8.408,4.939-8.751,9.139l-.446,5.594c0,2.694,1.432,4.046,3.544,5.6l.873-12.089a.4.4,0,1,1,.8,0l-.877,14.926a.365.365,0,0,1-.019.112c.582.494,2.516,1.633,7.919,1.633,5.212,0,7.193-1.061,7.855-1.577l-.875-15.094a.4.4,0,1,1,.8,0l.873,12.12c2.129-1.563,3.588-2.918,3.588-5.628h-.006Z"
       class="cls-8" />
    <path
       id="path428"
       d="M405.446,247.128h-6.093c-8.848,0-9.38,6.492-9.665,9.982l-.449,5.631v.036c0,3.193,1.853,4.819,3.918,6.335l.524.385-.136,2.232.34.292c.815.691,3,1.851,8.512,1.851,5.349,0,7.57-1.11,8.418-1.771l.379-.3-.131-2.273.53-.389c2.168-1.591,3.963-3.168,3.963-6.367l-.448-5.684C414.764,253.611,414.125,247.128,405.446,247.128Zm5.606,21.277-.873-12.12a.4.4,0,1,0-.8,0l.875,15.094c-.662.516-2.643,1.577-7.855,1.577-5.4,0-7.337-1.139-7.919-1.633a.365.365,0,0,0,.019-.112l.877-14.926a.4.4,0,1,0-.8,0l-.873,12.089c-2.112-1.551-3.544-2.9-3.544-5.6l.446-5.594c.343-4.2,1.2-9.139,8.751-9.139h6.094c7.55,0,8.36,5.188,8.75,9.139l.438,5.594h.006C414.64,265.487,413.181,266.842,411.052,268.4Z"
       class="cls-9" />
    <path
       id="path430"
       d="M402.4,245.9a6.358,6.358,0,1,0-6.359-6.357A6.365,6.365,0,0,0,402.4,245.9Zm0-11.8a5.442,5.442,0,1,1-5.443,5.443A5.449,5.449,0,0,1,402.4,234.1Z"
       class="cls-9" />
  </g>
  <g
     id="g442">
    <path
       id="path434"
       d="M297.638,284.024a5.442,5.442,0,1,0-5.443-5.441A5.448,5.448,0,0,0,297.638,284.024Z"
       class="cls-8" />
    <path
       id="path436"
       d="M309.437,296.225c-.39-3.951-1.2-9.139-8.75-9.139h-6.094c-7.552,0-8.408,4.939-8.752,9.139l-.446,5.594c0,2.694,1.432,4.046,3.545,5.6l.872-12.089a.4.4,0,1,1,.8,0l-.876,14.925a.348.348,0,0,1-.02.113c.583.493,2.517,1.633,7.919,1.633,5.213,0,7.194-1.061,7.855-1.577l-.875-15.094a.4.4,0,1,1,.8,0l.872,12.12c2.13-1.563,3.588-2.918,3.588-5.628h0Z"
       class="cls-8" />
    <path
       id="path438"
       d="M300.687,286.17h-6.094c-8.848,0-9.379,6.492-9.664,9.982l-.45,5.63v.037c0,3.193,1.854,4.818,3.919,6.335l.523.384-.136,2.233.341.292c.815.691,3,1.85,8.511,1.85,5.349,0,7.571-1.109,8.419-1.77l.379-.295-.132-2.273.531-.389c2.168-1.591,3.962-3.168,3.962-6.367l-.448-5.684C310.005,292.653,309.365,286.17,300.687,286.17Zm5.6,21.277-.872-12.12a.4.4,0,1,0-.8,0l.875,15.094c-.661.516-2.642,1.577-7.855,1.577-5.4,0-7.336-1.14-7.919-1.633a.348.348,0,0,0,.02-.113l.876-14.925a.4.4,0,1,0-.8,0l-.872,12.089c-2.113-1.551-3.545-2.9-3.545-5.6l.446-5.594c.344-4.2,1.2-9.139,8.752-9.139h6.094c7.549,0,8.36,5.188,8.75,9.139l.438,5.594h0C309.88,304.529,308.422,305.884,306.292,307.447Z"
       class="cls-9" />
    <path
       id="path440"
       d="M297.637,284.94a6.358,6.358,0,1,0-6.358-6.357A6.366,6.366,0,0,0,297.637,284.94Zm0-11.8a5.442,5.442,0,1,1-5.443,5.443A5.448,5.448,0,0,1,297.638,273.14Z"
       class="cls-9" />
  </g>
  <g
     id="g452">
    <path
       id="path444"
       d="M471.422,290.939a5.442,5.442,0,1,0-5.443-5.441A5.449,5.449,0,0,0,471.422,290.939Z"
       class="cls-8" />
    <path
       id="path446"
       d="M483.221,303.14c-.39-3.951-1.2-9.139-8.75-9.139h-6.094c-7.552,0-8.408,4.94-8.751,9.139l-.447,5.594c0,2.694,1.433,4.046,3.545,5.6l.872-12.088a.4.4,0,1,1,.8,0l-.877,14.925a.365.365,0,0,1-.019.112c.582.494,2.516,1.633,7.918,1.633,5.213,0,7.194-1.06,7.856-1.577l-.875-15.093a.4.4,0,1,1,.8,0l.873,12.119c2.129-1.562,3.588-2.918,3.588-5.628h-.006Z"
       class="cls-8" />
    <path
       id="path448"
       d="M474.471,293.086h-6.093c-8.848,0-9.38,6.491-9.665,9.981l-.449,5.631v.036c0,3.193,1.853,4.819,3.918,6.335l.524.385-.136,2.232.34.292c.815.691,3,1.851,8.511,1.851,5.35,0,7.571-1.11,8.419-1.77l.379-.3-.132-2.273.531-.389c2.168-1.591,3.963-3.168,3.963-6.367l-.448-5.683C483.789,299.568,483.15,293.086,474.471,293.086Zm5.606,21.276-.873-12.119a.4.4,0,1,0-.8,0l.875,15.093c-.662.517-2.643,1.577-7.856,1.577-5.4,0-7.336-1.139-7.918-1.633a.365.365,0,0,0,.019-.112l.877-14.925a.4.4,0,1,0-.8,0l-.872,12.088c-2.112-1.551-3.545-2.9-3.545-5.6l.447-5.594c.343-4.2,1.2-9.139,8.751-9.139h6.094c7.55,0,8.36,5.188,8.75,9.139l.438,5.594h.006C483.665,311.444,482.206,312.8,480.077,314.362Z"
       class="cls-9" />
    <path
       id="path450"
       d="M471.421,291.855a6.358,6.358,0,1,0-6.358-6.357A6.365,6.365,0,0,0,471.421,291.855Zm0-11.8a5.442,5.442,0,1,1-5.443,5.443A5.449,5.449,0,0,1,471.422,280.055Z"
       class="cls-9" />
  </g>
  <g
     id="g462">
    <path
       id="path454"
       d="M539.7,212.876a5.442,5.442,0,1,0-5.443-5.441A5.449,5.449,0,0,0,539.7,212.876Z"
       class="cls-8" />
    <path
       id="path456"
       d="M551.5,225.077c-.39-3.951-1.2-9.139-8.75-9.139h-6.094c-7.552,0-8.408,4.939-8.752,9.139l-.446,5.594c0,2.694,1.432,4.046,3.545,5.6l.872-12.089a.4.4,0,1,1,.8,0L531.8,239.1a.366.366,0,0,1-.019.113c.582.493,2.516,1.633,7.918,1.633,5.213,0,7.194-1.061,7.856-1.577l-.876-15.094a.4.4,0,1,1,.8,0l.872,12.12c2.13-1.563,3.589-2.918,3.589-5.628h-.006Z"
       class="cls-8" />
    <path
       id="path458"
       d="M542.749,215.022h-6.093c-8.849,0-9.38,6.492-9.665,9.982l-.45,5.631v.036c0,3.193,1.854,4.819,3.919,6.335l.523.384-.135,2.233.34.292c.815.691,3,1.85,8.511,1.85,5.349,0,7.571-1.109,8.419-1.77l.379-.3-.132-2.273.531-.389c2.168-1.591,3.962-3.168,3.962-6.367l-.448-5.684C552.067,221.505,551.428,215.022,542.749,215.022Zm5.605,21.277-.872-12.12a.4.4,0,1,0-.8,0l.876,15.094c-.662.516-2.643,1.577-7.856,1.577-5.4,0-7.336-1.14-7.918-1.633a.366.366,0,0,0,.019-.113l.876-14.925a.4.4,0,1,0-.8,0L531,236.268c-2.113-1.551-3.545-2.9-3.545-5.6l.446-5.594c.344-4.2,1.2-9.139,8.752-9.139h6.094c7.549,0,8.36,5.188,8.75,9.139l.438,5.594h.006C551.943,233.381,550.484,234.736,548.354,236.3Z"
       class="cls-9" />
    <path
       id="path460"
       d="M539.7,213.792a6.358,6.358,0,1,0-6.358-6.357A6.366,6.366,0,0,0,539.7,213.792Zm0-11.8a5.442,5.442,0,1,1-5.443,5.443A5.449,5.449,0,0,1,539.7,201.992Z"
       class="cls-9" />
  </g>
  <g
     id="g472">
    <path
       id="path464"
       d="M489.9,423.518a5.442,5.442,0,1,0-5.442-5.441A5.448,5.448,0,0,0,489.9,423.518Z"
       class="cls-8" />
    <path
       id="path466"
       d="M501.7,435.719c-.39-3.951-1.2-9.139-8.75-9.139h-6.094c-7.552,0-8.408,4.939-8.752,9.139l-.446,5.594c0,2.694,1.432,4.046,3.545,5.6l.872-12.089a.4.4,0,1,1,.8,0L482,449.746a.339.339,0,0,1-.02.113c.583.493,2.517,1.633,7.919,1.633,5.212,0,7.194-1.061,7.855-1.577l-.875-15.094a.4.4,0,1,1,.8,0l.872,12.12c2.129-1.563,3.588-2.918,3.588-5.628h0Z"
       class="cls-8" />
    <path
       id="path468"
       d="M492.95,425.664h-6.094c-8.848,0-9.379,6.492-9.664,9.982l-.45,5.631v.036c0,3.193,1.854,4.819,3.919,6.335l.523.384-.136,2.233.341.292c.815.691,3,1.85,8.511,1.85,5.349,0,7.57-1.109,8.419-1.77l.379-.3-.132-2.273.531-.389c2.168-1.591,3.962-3.168,3.962-6.367l-.448-5.684C502.268,432.147,501.628,425.664,492.95,425.664Zm5.605,21.277-.872-12.12a.4.4,0,1,0-.8,0l.875,15.094c-.661.516-2.643,1.577-7.855,1.577-5.4,0-7.336-1.14-7.919-1.633a.339.339,0,0,0,.02-.113l.876-14.925a.4.4,0,1,0-.8,0L481.2,446.91c-2.113-1.551-3.545-2.9-3.545-5.6l.446-5.594c.344-4.2,1.2-9.139,8.752-9.139h6.094c7.549,0,8.36,5.188,8.75,9.139l.438,5.594h0C502.143,444.023,500.684,445.378,498.555,446.941Z"
       class="cls-9" />
    <path
       id="path470"
       d="M489.9,424.434a6.358,6.358,0,1,0-6.358-6.357A6.366,6.366,0,0,0,489.9,424.434Zm0-11.8a5.442,5.442,0,1,1-5.442,5.443A5.448,5.448,0,0,1,489.9,412.634Z"
       class="cls-9" />
  </g>
  <g
     id="g498">
    <path
       id="path474"
       d="M65.51,419.209h3.238a2.1,2.1,0,1,1,0,4.178H66.56v2.818H65.51Zm1.05.919V422.5h2.078a1.194,1.194,0,1,0,0-2.369Z"
       class="cls-7" />
    <path
       id="path476"
       d="M72,421.117h1v.651a1.59,1.59,0,0,1,1.4-.76,1.271,1.271,0,0,1,.51.08v.9a1.686,1.686,0,0,0-.59-.111,1.388,1.388,0,0,0-1.318.93v3.4H72Z"
       class="cls-7" />
    <path
       id="path478"
       d="M77.818,421.018a2.644,2.644,0,1,1-2.648,2.639A2.611,2.611,0,0,1,77.818,421.018Zm1.66,2.639a1.668,1.668,0,1,0-1.66,1.768A1.7,1.7,0,0,0,79.478,423.657Z"
       class="cls-7" />
    <path
       id="path480"
       d="M80.391,428.244v-.8a1.637,1.637,0,0,0,.4.04c.439,0,.619-.18.619-.62v-5.748h1v5.818a1.288,1.288,0,0,1-1.45,1.379A2.145,2.145,0,0,1,80.391,428.244Zm.909-8.565a.615.615,0,0,1,.61-.62.62.62,0,0,1,0,1.239A.614.614,0,0,1,81.3,419.679Z"
       class="cls-7" />
    <path
       id="path482"
       d="M86.028,426.3a2.617,2.617,0,0,1-2.668-2.638,2.556,2.556,0,0,1,2.548-2.619,2.52,2.52,0,0,1,2.459,2.659v.29H84.349a1.717,1.717,0,0,0,1.719,1.459A1.97,1.97,0,0,0,87.357,425l.64.63A3.031,3.031,0,0,1,86.028,426.3Zm-1.669-3.058h3.018a1.517,1.517,0,0,0-3.018,0Z"
       class="cls-7" />
    <path
       id="path484"
       d="M93.138,424.8l.6.65a2.809,2.809,0,0,1-2.008.849,2.639,2.639,0,0,1,0-5.277,2.884,2.884,0,0,1,2.048.849l-.629.68a1.89,1.89,0,0,0-1.4-.639,1.756,1.756,0,0,0,.02,3.507A1.853,1.853,0,0,0,93.138,424.8Z"
       class="cls-7" />
    <path
       id="path486"
       d="M95.31,421.957H94.23v-.84h1.08v-1.3l.989-.241v1.539h1.5v.84H96.3v2.759c0,.52.21.709.749.709a1.964,1.964,0,0,0,.73-.119v.839a3.311,3.311,0,0,1-.949.15c-.99,0-1.519-.47-1.519-1.349Z"
       class="cls-7" />
    <path
       id="path488"
       d="M70.158,438.315a3.608,3.608,0,1,1,3.648-3.608A3.588,3.588,0,0,1,70.158,438.315Zm0-6.246a2.639,2.639,0,1,0,2.579,2.638A2.559,2.559,0,0,0,70.158,432.069Z"
       class="cls-7" />
    <path
       id="path490"
       d="M75.759,438.205l-1.419-5.088h.97l.979,3.739,1.17-3.739h.859l1.16,3.739.989-3.739h.939l-1.429,5.088h-.959l-1.14-3.728-1.149,3.728Z"
       class="cls-7" />
    <path
       id="path492"
       d="M82.12,433.117h1v.51a2.1,2.1,0,0,1,1.528-.609,1.9,1.9,0,0,1,1.99,1.989v3.2h-1v-3.028a1.184,1.184,0,0,0-1.259-1.289,1.435,1.435,0,0,0-1.259.659v3.658h-1Z"
       class="cls-7" />
    <path
       id="path494"
       d="M90.229,438.3a2.618,2.618,0,0,1-2.669-2.638,2.556,2.556,0,0,1,2.548-2.619,2.52,2.52,0,0,1,2.459,2.659v.29H88.549a1.717,1.717,0,0,0,1.72,1.459A1.974,1.974,0,0,0,91.558,437l.639.63A3.03,3.03,0,0,1,90.229,438.3Zm-1.669-3.058h3.018a1.517,1.517,0,0,0-3.018,0Z"
       class="cls-7" />
    <path
       id="path496"
       d="M93.52,433.117h1v.651a1.59,1.59,0,0,1,1.4-.76,1.271,1.271,0,0,1,.51.08v.9a1.686,1.686,0,0,0-.59-.111,1.388,1.388,0,0,0-1.318.93v3.4h-1Z"
       class="cls-7" />
  </g>
  <g
     id="g540">
    <path
       id="path500"
       d="M464.5,456.97h1.229l2.859,7h-1.139l-.81-2.049h-3.129l-.819,2.049H461.6Zm1.8,4.077-1.219-3.068-1.22,3.068Z"
       class="cls-7" />
    <path
       id="path502"
       d="M469.188,458.878h.989v.49a2.322,2.322,0,0,1,1.56-.569,2.624,2.624,0,1,1-1.549,4.747v2.488h-1Zm1,1.4v2.3a1.88,1.88,0,0,0,1.419.6,1.754,1.754,0,0,0,0-3.508A1.822,1.822,0,0,0,470.188,460.278Z"
       class="cls-7" />
    <path
       id="path504"
       d="M475.258,458.878h.99v.49a2.318,2.318,0,0,1,1.558-.569,2.624,2.624,0,1,1-1.549,4.747v2.488h-1Zm1,1.4v2.3a1.885,1.885,0,0,0,1.419.6,1.754,1.754,0,0,0,0-3.508A1.825,1.825,0,0,0,476.257,460.278Z"
       class="cls-7" />
    <path
       id="path506"
       d="M482.328,463.966h-1v-7l1-.22Z"
       class="cls-7" />
    <path
       id="path508"
       d="M483.4,457.44a.614.614,0,0,1,.609-.62.62.62,0,1,1,0,1.239A.614.614,0,0,1,483.4,457.44Zm1.109,6.526h-1v-5.088h1Z"
       class="cls-7" />
    <path
       id="path510"
       d="M489.486,462.557l.6.649a2.814,2.814,0,0,1-2.008.85,2.639,2.639,0,0,1,0-5.277,2.89,2.89,0,0,1,2.049.849l-.63.68a1.892,1.892,0,0,0-1.4-.64,1.757,1.757,0,0,0,.021,3.508A1.853,1.853,0,0,0,489.486,462.557Z"
       class="cls-7" />
    <path
       id="path512"
       d="M490.637,462.507c0-.96.781-1.55,2.06-1.55a3.584,3.584,0,0,1,1.388.281v-.54c0-.72-.429-1.08-1.239-1.08a3.618,3.618,0,0,0-1.579.43l-.369-.75a4.768,4.768,0,0,1,2.089-.519c1.319,0,2.078.649,2.078,1.819v3.368h-.98v-.44a2.408,2.408,0,0,1-1.579.53C491.4,464.056,490.637,463.426,490.637,462.507Zm2.1.81a1.948,1.948,0,0,0,1.348-.481v-.879a2.633,2.633,0,0,0-1.308-.31c-.73,0-1.18.33-1.18.84C491.6,462.977,492.057,463.317,492.737,463.317Z"
       class="cls-7" />
    <path
       id="path514"
       d="M496.677,459.718H495.6v-.84h1.079v-1.3l.99-.24v1.539h1.5v.84h-1.5v2.759c0,.519.21.709.75.709a1.962,1.962,0,0,0,.729-.119v.839a3.334,3.334,0,0,1-.949.15c-.99,0-1.52-.47-1.52-1.35Z"
       class="cls-7" />
    <path
       id="path516"
       d="M499.8,457.44a.615.615,0,0,1,.61-.62.62.62,0,0,1,0,1.239A.614.614,0,0,1,499.8,457.44Zm1.11,6.526h-1v-5.088h1Z"
       class="cls-7" />
    <path
       id="path518"
       d="M504.506,458.779a2.644,2.644,0,1,1-2.648,2.638A2.611,2.611,0,0,1,504.506,458.779Zm1.66,2.638a1.668,1.668,0,1,0-1.66,1.769A1.7,1.7,0,0,0,506.166,461.417Z"
       class="cls-7" />
    <path
       id="path520"
       d="M508.1,458.878h1v.51a2.1,2.1,0,0,1,1.53-.609,1.9,1.9,0,0,1,1.989,1.989v3.2h-1v-3.028a1.183,1.183,0,0,0-1.259-1.289,1.438,1.438,0,0,0-1.26.659v3.658h-1Z"
       class="cls-7" />
    <path
       id="path522"
       d="M469.192,468.97h1.229l2.859,7h-1.14l-.809-2.049H468.2l-.82,2.049h-1.09Zm1.8,4.077-1.219-3.068-1.22,3.068Z"
       class="cls-7" />
    <path
       id="path524"
       d="M473.883,470.878h1v.651a1.591,1.591,0,0,1,1.4-.76,1.256,1.256,0,0,1,.51.08v.9a1.717,1.717,0,0,0-.59-.11,1.39,1.39,0,0,0-1.32.93v3.4h-1Z"
       class="cls-7" />
    <path
       id="path526"
       d="M481.081,474.557l.6.649a2.811,2.811,0,0,1-2.009.85,2.639,2.639,0,0,1,0-5.277,2.885,2.885,0,0,1,2.049.849l-.63.68a1.888,1.888,0,0,0-1.4-.64,1.757,1.757,0,0,0,.019,3.508A1.854,1.854,0,0,0,481.081,474.557Z"
       class="cls-7" />
    <path
       id="path528"
       d="M482.493,468.97l1-.22v2.638a2.1,2.1,0,0,1,1.528-.609,1.9,1.9,0,0,1,1.989,1.989v3.2h-1v-3.028a1.184,1.184,0,0,0-1.259-1.289,1.433,1.433,0,0,0-1.259.659v3.658h-1Z"
       class="cls-7" />
    <path
       id="path530"
       d="M488.053,469.44a.615.615,0,0,1,.61-.62.62.62,0,0,1,0,1.239A.614.614,0,0,1,488.053,469.44Zm1.11,6.526h-1v-5.088h1Z"
       class="cls-7" />
    <path
       id="path532"
       d="M491,471.718h-1.079v-.84H491v-1.3l.99-.24v1.539h1.5v.84h-1.5v2.759c0,.519.21.709.75.709a1.962,1.962,0,0,0,.729-.119v.839a3.334,3.334,0,0,1-.949.15c-.99,0-1.52-.47-1.52-1.35Z"
       class="cls-7" />
    <path
       id="path534"
       d="M496.561,476.056a2.617,2.617,0,0,1-2.668-2.639,2.556,2.556,0,0,1,2.548-2.618,2.519,2.519,0,0,1,2.459,2.658v.29h-4.018a1.716,1.716,0,0,0,1.719,1.459,1.975,1.975,0,0,0,1.289-.45l.64.63A3.031,3.031,0,0,1,496.561,476.056ZM494.892,473h3.019a1.518,1.518,0,0,0-3.019,0Z"
       class="cls-7" />
    <path
       id="path536"
       d="M503.67,474.557l.6.649a2.811,2.811,0,0,1-2.009.85,2.639,2.639,0,0,1,0-5.277,2.885,2.885,0,0,1,2.049.849l-.63.68a1.888,1.888,0,0,0-1.4-.64,1.757,1.757,0,0,0,.019,3.508A1.85,1.85,0,0,0,503.67,474.557Z"
       class="cls-7" />
    <path
       id="path538"
       d="M505.842,471.718h-1.079v-.84h1.079v-1.3l.99-.24v1.539h1.5v.84h-1.5v2.759c0,.519.21.709.75.709a1.962,1.962,0,0,0,.729-.119v.839a3.334,3.334,0,0,1-.949.15c-.99,0-1.52-.47-1.52-1.35Z"
       class="cls-7" />
  </g>
  <g
     id="g582">
    <path
       id="path542"
       d="M521.295,250.628a3.379,3.379,0,0,0,2.409,1.1c1.009,0,1.7-.48,1.7-1.169,0-.619-.4-.93-1.419-1.1l-1.17-.189c-1.279-.21-1.909-.81-1.909-1.82,0-1.218,1.019-2.008,2.579-2.008a4.7,4.7,0,0,1,2.818.949l-.58.8a3.713,3.713,0,0,0-2.288-.86c-.91,0-1.519.42-1.519,1.039,0,.571.349.84,1.249.991l1.129.179c1.48.24,2.149.85,2.149,1.939,0,1.289-1.119,2.149-2.788,2.149a4.212,4.212,0,0,1-3-1.26Z"
       class="cls-7" />
    <path
       id="path544"
       d="M531.193,251.117l.6.65a2.813,2.813,0,0,1-2.009.849,2.638,2.638,0,0,1,0-5.276,2.889,2.889,0,0,1,2.049.85l-.63.678a1.892,1.892,0,0,0-1.4-.639,1.757,1.757,0,0,0,.02,3.509A1.853,1.853,0,0,0,531.193,251.117Z"
       class="cls-7" />
    <path
       id="path546"
       d="M532.5,246a.614.614,0,0,1,.61-.619.62.62,0,0,1,0,1.239A.615.615,0,0,1,532.5,246Zm1.11,6.527h-1V247.44h1Z"
       class="cls-7" />
    <path
       id="path548"
       d="M537.223,252.616a2.617,2.617,0,0,1-2.668-2.638,2.555,2.555,0,0,1,2.548-2.618,2.519,2.519,0,0,1,2.459,2.658v.29h-4.018a1.716,1.716,0,0,0,1.719,1.459,1.98,1.98,0,0,0,1.289-.449l.64.63A3.035,3.035,0,0,1,537.223,252.616Zm-1.669-3.057h3.019a1.518,1.518,0,0,0-3.019,0Z"
       class="cls-7" />
    <path
       id="path550"
       d="M540.515,247.44h1v.509a2.1,2.1,0,0,1,1.529-.609,1.9,1.9,0,0,1,1.99,1.988v3.2h-1V249.5a1.184,1.184,0,0,0-1.259-1.289,1.44,1.44,0,0,0-1.26.659v3.659h-1Z"
       class="cls-7" />
    <path
       id="path552"
       d="M546.645,248.28h-1.08v-.84h1.08v-1.3l.989-.239v1.539h1.5v.84h-1.5v2.757c0,.521.21.71.749.71a1.958,1.958,0,0,0,.73-.12v.84a3.31,3.31,0,0,1-.949.149c-.99,0-1.519-.469-1.519-1.348Z"
       class="cls-7" />
    <path
       id="path554"
       d="M549.764,246a.615.615,0,0,1,.611-.619.62.62,0,0,1,0,1.239A.615.615,0,0,1,549.764,246Zm1.111,6.527h-1V247.44h1Z"
       class="cls-7" />
    <path
       id="path556"
       d="M552.814,247.44v-.77a1.518,1.518,0,0,1,1.729-1.639,2.625,2.625,0,0,1,.72.09v.87a1.972,1.972,0,0,0-.63-.09c-.549,0-.819.25-.819.789v.75h1.449v.84h-1.449v4.247h-1V248.28h-1.179v-.84Z"
       class="cls-7" />
    <path
       id="path558"
       d="M555.915,246a.613.613,0,0,1,.609-.619.62.62,0,1,1,0,1.239A.614.614,0,0,1,555.915,246Zm1.109,6.527h-1V247.44h1Z"
       class="cls-7" />
    <path
       id="path560"
       d="M562,251.117l.6.65a2.813,2.813,0,0,1-2.009.849,2.638,2.638,0,0,1,0-5.276,2.887,2.887,0,0,1,2.049.85l-.63.678a1.892,1.892,0,0,0-1.4-.639,1.757,1.757,0,0,0,.02,3.509A1.856,1.856,0,0,0,562,251.117Z"
       class="cls-7" />
    <path
       id="path562"
       d="M516.669,257.531h3.179a2.1,2.1,0,0,1,2.329,2.069,1.977,1.977,0,0,1-1.439,1.919l1.558,3.008h-1.159l-1.449-2.869h-1.969v2.869h-1.05Zm1.05.919v2.339h2.039a1.183,1.183,0,1,0,0-2.339Z"
       class="cls-7" />
    <path
       id="path564"
       d="M525.279,264.616a2.618,2.618,0,0,1-2.669-2.638,2.556,2.556,0,0,1,2.549-2.618,2.519,2.519,0,0,1,2.459,2.658v.29H523.6a1.717,1.717,0,0,0,1.72,1.459,1.984,1.984,0,0,0,1.289-.449l.64.63A3.037,3.037,0,0,1,525.279,264.616Zm-1.669-3.057h3.017a1.517,1.517,0,0,0-3.017,0Z"
       class="cls-7" />
    <path
       id="path566"
       d="M528.679,263.207a2.669,2.669,0,0,0,1.659.64c.72,0,1.22-.31,1.22-.76,0-.359-.26-.569-.819-.649l-.92-.13c-1.009-.15-1.519-.619-1.519-1.409,0-.919.8-1.539,1.989-1.539a3.488,3.488,0,0,1,2.048.649l-.509.66a2.829,2.829,0,0,0-1.609-.53c-.61,0-1.019.28-1.019.69,0,.37.239.549.839.64l.92.13c1.009.149,1.539.629,1.539,1.419,0,.909-.92,1.6-2.129,1.6a3.354,3.354,0,0,1-2.229-.749Z"
       class="cls-7" />
    <path
       id="path568"
       d="M535.758,264.616a2.618,2.618,0,0,1-2.669-2.638,2.556,2.556,0,0,1,2.549-2.618,2.519,2.519,0,0,1,2.459,2.658v.29h-4.018a1.715,1.715,0,0,0,1.719,1.459,1.984,1.984,0,0,0,1.289-.449l.64.63A3.037,3.037,0,0,1,535.758,264.616Zm-1.669-3.057h3.018a1.517,1.517,0,0,0-3.018,0Z"
       class="cls-7" />
    <path
       id="path570"
       d="M538.73,263.068c0-.959.779-1.549,2.059-1.549a3.584,3.584,0,0,1,1.389.279v-.539c0-.72-.429-1.08-1.239-1.08a3.614,3.614,0,0,0-1.579.43l-.37-.749a4.746,4.746,0,0,1,2.089-.52c1.319,0,2.079.65,2.079,1.818v3.369h-.98v-.44a2.413,2.413,0,0,1-1.579.529C539.49,264.616,538.73,263.988,538.73,263.068Zm2.1.809a1.959,1.959,0,0,0,1.349-.479v-.88a2.64,2.64,0,0,0-1.309-.31c-.73,0-1.18.33-1.18.84C539.689,263.537,540.149,263.877,540.829,263.877Z"
       class="cls-7" />
    <path
       id="path572"
       d="M544.31,259.44h1v.649a1.6,1.6,0,0,1,1.4-.76,1.286,1.286,0,0,1,.509.08v.9a1.732,1.732,0,0,0-.59-.11,1.389,1.389,0,0,0-1.319.93v3.4h-1Z"
       class="cls-7" />
    <path
       id="path574"
       d="M551.507,263.117l.6.65a2.81,2.81,0,0,1-2.009.849,2.638,2.638,0,0,1,0-5.276,2.886,2.886,0,0,1,2.049.85l-.63.678a1.892,1.892,0,0,0-1.4-.639,1.757,1.757,0,0,0,.019,3.509A1.853,1.853,0,0,0,551.507,263.117Z"
       class="cls-7" />
    <path
       id="path576"
       d="M552.919,257.531l1-.22v2.638a2.1,2.1,0,0,1,1.529-.609,1.9,1.9,0,0,1,1.989,1.988v3.2h-1V261.5a1.184,1.184,0,0,0-1.26-1.289,1.438,1.438,0,0,0-1.259.659v3.659h-1Z"
       class="cls-7" />
    <path
       id="path578"
       d="M561.028,264.616a2.617,2.617,0,0,1-2.668-2.638,2.555,2.555,0,0,1,2.548-2.618,2.519,2.519,0,0,1,2.459,2.658v.29h-4.018a1.716,1.716,0,0,0,1.719,1.459,1.98,1.98,0,0,0,1.289-.449l.64.63A3.035,3.035,0,0,1,561.028,264.616Zm-1.669-3.057h3.018a1.517,1.517,0,0,0-3.018,0Z"
       class="cls-7" />
    <path
       id="path580"
       d="M564.32,259.44h1v.649a1.594,1.594,0,0,1,1.4-.76,1.288,1.288,0,0,1,.51.08v.9a1.737,1.737,0,0,0-.59-.11,1.388,1.388,0,0,0-1.319.93v3.4h-1Z"
       class="cls-7" />
  </g>
  <g
     id="g630">
    <path
       id="path584"
       d="M169.2,260.262h1.049v7H169.2Z"
       class="cls-6" />
    <path
       id="path586"
       d="M171.563,262.17h1v.51a2.1,2.1,0,0,1,1.528-.609,1.9,1.9,0,0,1,1.99,1.989v3.2h-1V264.23a1.184,1.184,0,0,0-1.259-1.289,1.435,1.435,0,0,0-1.259.659v3.658h-1Z"
       class="cls-6" />
    <path
       id="path588"
       d="M177.792,262.17V261.4a1.518,1.518,0,0,1,1.729-1.639,2.625,2.625,0,0,1,.72.09v.869a2.03,2.03,0,0,0-.63-.09c-.549,0-.819.25-.819.79v.749h1.449v.84h-1.449v4.248h-1V263.01h-1.179v-.84Z"
       class="cls-6" />
    <path
       id="path590"
       d="M181,262.17h1v.651a1.591,1.591,0,0,1,1.4-.76,1.253,1.253,0,0,1,.51.08v.9a1.708,1.708,0,0,0-.59-.11,1.389,1.389,0,0,0-1.319.93v3.4h-1Z"
       class="cls-6" />
    <path
       id="path592"
       d="M184.242,265.8c0-.96.78-1.55,2.059-1.55a3.586,3.586,0,0,1,1.389.281v-.54c0-.72-.429-1.08-1.239-1.08a3.614,3.614,0,0,0-1.579.43l-.37-.75a4.772,4.772,0,0,1,2.089-.519c1.32,0,2.079.649,2.079,1.819v3.368h-.98v-.44a2.41,2.41,0,0,1-1.579.53C185,267.348,184.242,266.718,184.242,265.8Zm2.1.81a1.949,1.949,0,0,0,1.349-.481v-.879a2.637,2.637,0,0,0-1.309-.31c-.729,0-1.179.33-1.179.84C185.2,266.269,185.662,266.609,186.341,266.609Z"
       class="cls-6" />
    <path
       id="path594"
       d="M189.882,265.939a2.666,2.666,0,0,0,1.66.639c.719,0,1.219-.309,1.219-.759,0-.36-.26-.57-.82-.65l-.919-.13c-1.009-.15-1.519-.62-1.519-1.409,0-.92.8-1.539,1.989-1.539a3.49,3.49,0,0,1,2.049.65l-.51.659a2.837,2.837,0,0,0-1.609-.53c-.61,0-1.02.28-1.02.69,0,.37.24.55.84.639l.919.13c1.01.151,1.54.63,1.54,1.419,0,.91-.92,1.6-2.129,1.6a3.352,3.352,0,0,1-2.229-.75Z"
       class="cls-6" />
    <path
       id="path596"
       d="M195.032,263.01h-1.079v-.84h1.079v-1.3l.99-.24v1.539h1.5v.84h-1.5v2.759c0,.519.209.709.749.709a1.964,1.964,0,0,0,.73-.119v.839a3.347,3.347,0,0,1-.95.15c-.989,0-1.519-.47-1.519-1.35Z"
       class="cls-6" />
    <path
       id="path598"
       d="M198.263,262.17h1v.651a1.591,1.591,0,0,1,1.4-.76,1.253,1.253,0,0,1,.51.08v.9a1.713,1.713,0,0,0-.59-.11,1.389,1.389,0,0,0-1.319.93v3.4h-1Z"
       class="cls-6" />
    <path
       id="path600"
       d="M202.892,265.189a1.192,1.192,0,0,0,1.259,1.3,1.429,1.429,0,0,0,1.249-.67V262.17h1v5.088h-1v-.51a2.075,2.075,0,0,1-1.528.61,1.9,1.9,0,0,1-1.979-2V262.17h1Z"
       class="cls-6" />
    <path
       id="path602"
       d="M211.38,265.849l.6.649a2.813,2.813,0,0,1-2.009.85,2.639,2.639,0,0,1,0-5.277,2.886,2.886,0,0,1,2.049.849l-.63.68a1.888,1.888,0,0,0-1.4-.64,1.757,1.757,0,0,0,.02,3.508A1.85,1.85,0,0,0,211.38,265.849Z"
       class="cls-6" />
    <path
       id="path604"
       d="M213.552,263.01h-1.08v-.84h1.08v-1.3l.989-.24v1.539h1.5v.84h-1.5v2.759c0,.519.21.709.75.709a1.959,1.959,0,0,0,.729-.119v.839a3.334,3.334,0,0,1-.949.15c-.99,0-1.519-.47-1.519-1.35Z"
       class="cls-6" />
    <path
       id="path606"
       d="M217.762,265.189a1.192,1.192,0,0,0,1.259,1.3,1.43,1.43,0,0,0,1.249-.67V262.17h1v5.088h-1v-.51a2.076,2.076,0,0,1-1.529.61,1.9,1.9,0,0,1-1.979-2V262.17h1Z"
       class="cls-6" />
    <path
       id="path608"
       d="M222.452,262.17h1v.651a1.588,1.588,0,0,1,1.4-.76,1.251,1.251,0,0,1,.509.08v.9a1.707,1.707,0,0,0-.589-.11,1.387,1.387,0,0,0-1.319.93v3.4h-1Z"
       class="cls-6" />
    <path
       id="path610"
       d="M228.291,267.348a2.618,2.618,0,0,1-2.669-2.639,2.556,2.556,0,0,1,2.548-2.618,2.519,2.519,0,0,1,2.459,2.658v.29h-4.018a1.717,1.717,0,0,0,1.72,1.459,1.979,1.979,0,0,0,1.289-.45l.639.63A3.03,3.03,0,0,1,228.291,267.348Zm-1.669-3.059h3.018a1.517,1.517,0,0,0-3.018,0Z"
       class="cls-6" />
    <path
       id="path612"
       d="M181.551,272.262h1.23l2.858,7H184.5l-.81-2.049h-3.128l-.819,2.049h-1.09Zm1.8,4.077-1.22-3.068-1.219,3.068Z"
       class="cls-6" />
    <path
       id="path614"
       d="M186.243,274.17h1v.651a1.591,1.591,0,0,1,1.4-.76,1.253,1.253,0,0,1,.51.08v.9a1.713,1.713,0,0,0-.59-.11,1.389,1.389,0,0,0-1.319.93v3.4h-1Z"
       class="cls-6" />
    <path
       id="path616"
       d="M193.44,277.849l.6.649a2.813,2.813,0,0,1-2.009.85,2.639,2.639,0,0,1,0-5.277,2.886,2.886,0,0,1,2.049.849l-.63.68a1.888,1.888,0,0,0-1.4-.64,1.757,1.757,0,0,0,.02,3.508A1.85,1.85,0,0,0,193.44,277.849Z"
       class="cls-6" />
    <path
       id="path618"
       d="M194.853,272.262l1-.22v2.638a2.1,2.1,0,0,1,1.529-.609,1.9,1.9,0,0,1,1.989,1.989v3.2h-1V276.23a1.184,1.184,0,0,0-1.26-1.289,1.436,1.436,0,0,0-1.259.659v3.658h-1Z"
       class="cls-6" />
    <path
       id="path620"
       d="M200.413,272.732a.614.614,0,0,1,.609-.62.62.62,0,1,1,0,1.239A.613.613,0,0,1,200.413,272.732Zm1.109,6.526h-1V274.17h1Z"
       class="cls-6" />
    <path
       id="path622"
       d="M203.362,275.01h-1.079v-.84h1.079v-1.3l.99-.24v1.539h1.5v.84h-1.5v2.759c0,.519.21.709.749.709a1.964,1.964,0,0,0,.73-.119v.839a3.347,3.347,0,0,1-.95.15c-.989,0-1.519-.47-1.519-1.35Z"
       class="cls-6" />
    <path
       id="path624"
       d="M208.921,279.348a2.618,2.618,0,0,1-2.669-2.639,2.557,2.557,0,0,1,2.549-2.618,2.519,2.519,0,0,1,2.459,2.658v.29h-4.018a1.716,1.716,0,0,0,1.719,1.459,1.979,1.979,0,0,0,1.289-.45l.64.63A3.033,3.033,0,0,1,208.921,279.348Zm-1.669-3.059h3.018a1.517,1.517,0,0,0-3.018,0Z"
       class="cls-6" />
    <path
       id="path626"
       d="M216.03,277.849l.6.649a2.814,2.814,0,0,1-2.009.85,2.639,2.639,0,0,1,0-5.277,2.886,2.886,0,0,1,2.049.849l-.63.68a1.89,1.89,0,0,0-1.4-.64,1.757,1.757,0,0,0,.02,3.508A1.852,1.852,0,0,0,216.03,277.849Z"
       class="cls-6" />
    <path
       id="path628"
       d="M218.2,275.01h-1.079v-.84H218.2v-1.3l.989-.24v1.539h1.5v.84h-1.5v2.759c0,.519.21.709.75.709a1.956,1.956,0,0,0,.729-.119v.839a3.334,3.334,0,0,1-.949.15c-.99,0-1.519-.47-1.519-1.35Z"
       class="cls-6" />
  </g>
</svg>
