<?xml version="1.0" encoding="UTF-8" standalone="no"?>
<!-- Created with Inkscape (http://www.inkscape.org/) -->

<svg
   xmlns:dc="http://purl.org/dc/elements/1.1/"
   xmlns:cc="http://creativecommons.org/ns#"
   xmlns:rdf="http://www.w3.org/1999/02/22-rdf-syntax-ns#"
   xmlns:svg="http://www.w3.org/2000/svg"
   xmlns="http://www.w3.org/2000/svg"
   xmlns:sodipodi="http://sodipodi.sourceforge.net/DTD/sodipodi-0.dtd"
   xmlns:inkscape="http://www.inkscape.org/namespaces/inkscape"
   version="1.1"
   id="svg2"
   xml:space="preserve"
   width="1072"
   height="410.66666"
   viewBox="0 0 1072 410.66666"
   sodipodi:docname="Aggregates.svg"
   inkscape:version="0.92.2 5c3e80d, 2017-08-06"><metadata
     id="metadata8"><rdf:RDF><cc:Work
         rdf:about=""><dc:format>image/svg+xml</dc:format><dc:type
           rdf:resource="http://purl.org/dc/dcmitype/StillImage" /><dc:title></dc:title><dc:subject><rdf:Bag><rdf:li>openstack</rdf:li><rdf:li>aggreates</rdf:li></rdf:Bag></dc:subject></cc:Work></rdf:RDF></metadata><defs
     id="defs6"><clipPath
       clipPathUnits="userSpaceOnUse"
       id="clipPath22"><path
         d="M 0,308 H 804 V 0 H 0 Z"
         id="path20"
         inkscape:connector-curvature="0" /></clipPath><clipPath
       clipPathUnits="userSpaceOnUse"
       id="clipPath438"><path
         d="m 200.5,224 h 405 v -55 h -405 z"
         id="path436"
         inkscape:connector-curvature="0" /></clipPath><clipPath
       clipPathUnits="userSpaceOnUse"
       id="clipPath454"><path
         d="m 37.5,132.5 h 568 v -55 h -568 z"
         id="path452"
         inkscape:connector-curvature="0" /></clipPath><clipPath
       clipPathUnits="userSpaceOnUse"
       id="clipPath470"><path
         d="M 24,36 H 47 V 22 H 24 Z"
         id="path468"
         inkscape:connector-curvature="0" /></clipPath><clipPath
       clipPathUnits="userSpaceOnUse"
       id="clipPath486"><path
         d="m 302,36 h 23 V 22 h -23 z"
         id="path484"
         inkscape:connector-curvature="0" /></clipPath></defs><sodipodi:namedview
     pagecolor="#ffffff"
     bordercolor="#666666"
     borderopacity="1"
     objecttolerance="10"
     gridtolerance="10"
     guidetolerance="10"
     inkscape:pageopacity="0"
     inkscape:pageshadow="2"
     inkscape:window-width="640"
     inkscape:window-height="480"
     id="namedview4"
     showgrid="false"
     inkscape:zoom="0.32835821"
     inkscape:cx="536"
     inkscape:cy="205.33333"
     inkscape:window-x="0"
     inkscape:window-y="0"
     inkscape:window-maximized="0"
     inkscape:current-layer="g10" /><g
     id="g10"
     inkscape:groupmode="layer"
     inkscape:label="Aggregates"
     transform="matrix(1.3333333,0,0,-1.3333333,0,410.66667)"><path
       d="m 376.75,63.5 h -353 v 218 h 353 z"
       style="fill:#e6e6e6;fill-opacity:1;fill-rule:nonzero;stroke:none"
       id="path12"
       inkscape:connector-curvature="0" /><path
       d="m 191.5,177.5 h -145 v 38 h 145 z"
       style="fill:#ffffff;fill-opacity:1;fill-rule:nonzero;stroke:#c8c8c8;stroke-width:1;stroke-linecap:butt;stroke-linejoin:miter;stroke-miterlimit:10;stroke-dasharray:none;stroke-opacity:1"
       id="path14"
       inkscape:connector-curvature="0" /><g
       id="g16"><g
         id="g18"
         clip-path="url(#clipPath22)"><g
           id="g24"
           transform="translate(53.6826,260.5117)"><path
             d="M 0,0 C -0.231,0.677 -0.462,1.37 -0.578,1.8 -0.694,1.37 -0.925,0.677 -1.156,0 L -1.899,-2.097 H 0.743 Z M 2.443,-6.868 1.535,-4.292 H -2.691 L -3.6,-6.868 H -6.076 L -1.651,4.689 H 0.594 L 4.986,-6.868 Z"
             style="fill:#4c4c4c;fill-opacity:1;fill-rule:nonzero;stroke:none"
             id="path26"
             inkscape:connector-curvature="0" /></g><g
           id="g28"
           transform="translate(64.5137,253.6436)"><path
             d="m 0,0 h -2.245 l -4.111,11.557 h 2.559 l 2.179,-6.686 c 0.215,-0.644 0.446,-1.486 0.545,-1.899 0.099,0.429 0.314,1.221 0.528,1.899 l 2.13,6.686 h 2.526 z"
             style="fill:#4c4c4c;fill-opacity:1;fill-rule:nonzero;stroke:none"
             id="path30"
             inkscape:connector-curvature="0" /></g><g
           id="g32"
           transform="translate(74.1895,260.5117)"><path
             d="M 0,0 C -0.231,0.677 -0.462,1.37 -0.578,1.8 -0.694,1.37 -0.925,0.677 -1.156,0 L -1.899,-2.097 H 0.743 Z M 2.443,-6.868 1.535,-4.292 H -2.691 L -3.6,-6.868 H -6.076 L -1.651,4.689 H 0.594 L 4.986,-6.868 Z"
             style="fill:#4c4c4c;fill-opacity:1;fill-rule:nonzero;stroke:none"
             id="path34"
             inkscape:connector-curvature="0" /></g><path
           d="m 81.489,265.201 h 2.312 v -11.557 h -2.312 z"
           style="fill:#4c4c4c;fill-opacity:1;fill-rule:nonzero;stroke:none"
           id="path36"
           inkscape:connector-curvature="0" /><g
           id="g38"
           transform="translate(86.939,253.6436)"><path
             d="M 0,0 V 11.557 H 2.312 V 2.278 H 8.106 V 0 Z"
             style="fill:#4c4c4c;fill-opacity:1;fill-rule:nonzero;stroke:none"
             id="path40"
             inkscape:connector-curvature="0" /></g><g
           id="g42"
           transform="translate(102.4277,260.5117)"><path
             d="M 0,0 C -0.231,0.677 -0.462,1.37 -0.578,1.8 -0.694,1.37 -0.925,0.677 -1.156,0 L -1.899,-2.097 H 0.743 Z M 2.443,-6.868 1.535,-4.292 H -2.691 L -3.6,-6.868 H -6.076 L -1.651,4.689 H 0.594 L 4.986,-6.868 Z"
             style="fill:#4c4c4c;fill-opacity:1;fill-rule:nonzero;stroke:none"
             id="path44"
             inkscape:connector-curvature="0" /></g><g
           id="g46"
           transform="translate(114.8955,258.8276)"><path
             d="M 0,0 H -3.071 V -2.988 H 0 c 1.123,0 1.651,0.594 1.651,1.502 C 1.651,-0.495 1.123,0 0,0 M -0.132,4.243 H -3.071 V 2.047 h 3.054 c 0.958,0 1.305,0.446 1.305,1.09 0,0.726 -0.413,1.106 -1.42,1.106 m 0.049,-9.427 h -5.25 V 6.373 h 5.3 C 2.212,6.373 3.632,5.3 3.632,3.318 3.632,2.328 3.17,1.536 2.41,1.073 3.335,0.661 4.028,-0.182 4.028,-1.453 c 0,-2.427 -1.634,-3.731 -4.111,-3.731"
             style="fill:#4c4c4c;fill-opacity:1;fill-rule:nonzero;stroke:none"
             id="path48"
             inkscape:connector-curvature="0" /></g><path
           d="m 121.452,265.201 h 2.312 v -11.557 h -2.312 z"
           style="fill:#4c4c4c;fill-opacity:1;fill-rule:nonzero;stroke:none"
           id="path50"
           inkscape:connector-curvature="0" /><g
           id="g52"
           transform="translate(126.9019,253.6436)"><path
             d="M 0,0 V 11.557 H 2.312 V 2.278 H 8.106 V 0 Z"
             style="fill:#4c4c4c;fill-opacity:1;fill-rule:nonzero;stroke:none"
             id="path54"
             inkscape:connector-curvature="0" /></g><path
           d="m 137.305,265.201 h 2.312 v -11.557 h -2.312 z"
           style="fill:#4c4c4c;fill-opacity:1;fill-rule:nonzero;stroke:none"
           id="path56"
           inkscape:connector-curvature="0" /><g
           id="g58"
           transform="translate(147.6416,262.9224)"><path
             d="M 0,0 V -9.279 H -2.312 V 0 H -5.63 V 2.278 H 3.318 L 3.318,0 Z"
             style="fill:#4c4c4c;fill-opacity:1;fill-rule:nonzero;stroke:none"
             id="path60"
             inkscape:connector-curvature="0" /></g><g
           id="g62"
           transform="translate(158.7549,258.2168)"><path
             d="m 0,0 v -4.573 h -2.312 v 4.524 l -4.375,7.033 h 2.659 l 1.634,-2.741 c 0.413,-0.693 1.04,-1.832 1.255,-2.262 0.214,0.43 0.826,1.536 1.255,2.262 L 1.75,6.984 h 2.625 z"
             style="fill:#4c4c4c;fill-opacity:1;fill-rule:nonzero;stroke:none"
             id="path64"
             inkscape:connector-curvature="0" /></g><g
           id="g66"
           transform="translate(169.4067,253.6436)"><path
             d="M 0,0 V 2.047 L 4.97,7.974 C 5.333,8.42 5.993,9.18 6.291,9.477 5.828,9.46 4.623,9.444 3.946,9.444 H 0.331 v 2.113 h 8.7 V 9.51 L 4.111,3.583 C 3.748,3.137 3.087,2.377 2.791,2.08 3.252,2.097 4.458,2.113 5.135,2.113 H 9.114 V 0 Z"
             style="fill:#4c4c4c;fill-opacity:1;fill-rule:nonzero;stroke:none"
             id="path68"
             inkscape:connector-curvature="0" /></g><g
           id="g70"
           transform="translate(185.0435,263.0874)"><path
             d="m 0,0 c -1.866,0 -2.642,-1.602 -2.642,-3.666 0,-2.063 0.776,-3.665 2.642,-3.665 1.866,0 2.642,1.602 2.642,3.665 C 2.642,-1.602 1.866,0 0,0 m 0,-9.625 c -3.153,0 -5.019,2.443 -5.019,5.959 0,3.517 1.866,5.961 5.019,5.961 3.153,0 5.019,-2.444 5.019,-5.961 0,-3.516 -1.866,-5.959 -5.019,-5.959"
             style="fill:#4c4c4c;fill-opacity:1;fill-rule:nonzero;stroke:none"
             id="path72"
             inkscape:connector-curvature="0" /></g><g
           id="g74"
           transform="translate(199.7231,253.6436)"><path
             d="m 0,0 -4.243,6.307 c -0.28,0.429 -0.66,1.007 -0.809,1.304 0,-0.429 0.033,-1.882 0.033,-2.526 V 0 h -2.278 v 11.557 h 2.212 l 4.094,-6.109 c 0.281,-0.429 0.661,-1.007 0.809,-1.304 0,0.429 -0.032,1.882 -0.032,2.526 v 4.887 H 2.064 L 2.064,0 Z"
             style="fill:#4c4c4c;fill-opacity:1;fill-rule:nonzero;stroke:none"
             id="path76"
             inkscape:connector-curvature="0" /></g><g
           id="g78"
           transform="translate(204.7612,253.6436)"><path
             d="M 0,0 V 11.557 H 8.024 V 9.295 H 2.312 V 7.297 H 5.63 V 5.052 H 2.312 V 2.262 H 8.271 L 8.271,0 Z"
             style="fill:#4c4c4c;fill-opacity:1;fill-rule:nonzero;stroke:none"
             id="path80"
             inkscape:connector-curvature="0" /></g><g
           id="g82"
           transform="translate(216.2539,253.4619)"><path
             d="m 0,0 c -0.842,0 -1.552,0.71 -1.552,1.552 0,0.842 0.71,1.552 1.552,1.552 0.842,0 1.552,-0.71 1.552,-1.552 C 1.552,0.71 0.842,0 0,0 m 0,5.927 c -0.842,0 -1.552,0.71 -1.552,1.552 0,0.842 0.71,1.552 1.552,1.552 0.842,0 1.552,-0.71 1.552,-1.552 C 1.552,6.637 0.842,5.927 0,5.927"
             style="fill:#4c4c4c;fill-opacity:1;fill-rule:nonzero;stroke:none"
             id="path84"
             inkscape:connector-curvature="0" /></g><g
           id="g86"
           transform="translate(229.7441,262.9551)"><path
             d="m 0,0 h -2.658 v -2.972 h 2.691 c 1.073,0 1.651,0.495 1.651,1.503 C 1.684,-0.462 1.023,0 0,0 M -0.116,-5.217 H -2.658 V -9.312 H -4.97 V 2.246 h 5.053 c 2.179,0 3.979,-1.206 3.979,-3.666 0,-2.674 -1.784,-3.797 -4.178,-3.797"
             style="fill:#4c4c4c;fill-opacity:1;fill-rule:nonzero;stroke:none"
             id="path88"
             inkscape:connector-curvature="0" /></g><g
           id="g90"
           transform="translate(240.0322,260.5117)"><path
             d="M 0,0 C -0.231,0.677 -0.462,1.37 -0.578,1.8 -0.694,1.37 -0.925,0.677 -1.156,0 L -1.899,-2.097 H 0.743 Z M 2.443,-6.868 1.535,-4.292 H -2.691 L -3.6,-6.868 H -6.076 L -1.651,4.689 H 0.594 L 4.986,-6.868 Z"
             style="fill:#4c4c4c;fill-opacity:1;fill-rule:nonzero;stroke:none"
             id="path92"
             inkscape:connector-curvature="0" /></g><g
           id="g94"
           transform="translate(252.5,262.9551)"><path
             d="M 0,0 H -3.021 V -2.972 H 0 c 1.073,0 1.651,0.495 1.651,1.503 C 1.651,-0.429 1.023,0 0,0 m 1.37,-9.312 -2.064,4.161 H -3.021 V -9.312 H -5.333 V 2.246 h 5.382 c 2.18,0 3.979,-1.206 3.979,-3.666 0,-1.733 -0.743,-2.823 -2.212,-3.401 l 2.212,-4.491 z"
             style="fill:#4c4c4c;fill-opacity:1;fill-rule:nonzero;stroke:none"
             id="path96"
             inkscape:connector-curvature="0" /></g><path
           d="m 259.123,265.201 h 2.312 v -11.557 h -2.312 z"
           style="fill:#4c4c4c;fill-opacity:1;fill-rule:nonzero;stroke:none"
           id="path98"
           inkscape:connector-curvature="0" /><g
           id="g100"
           transform="translate(268.502,253.4619)"><path
             d="m 0,0 c -1.932,0 -3.616,0.809 -4.491,2.097 l 1.668,1.486 c 0.808,-0.941 1.849,-1.321 2.955,-1.321 1.37,0 2.014,0.38 2.014,1.255 0,0.743 -0.396,1.073 -2.576,1.568 -2.129,0.496 -3.615,1.172 -3.615,3.451 0,2.096 1.849,3.384 4.128,3.384 1.799,0 3.12,-0.677 4.209,-1.816 L 2.625,8.486 C 1.882,9.246 1.057,9.675 0,9.675 c -1.238,0 -1.651,-0.529 -1.651,-1.04 0,-0.727 0.495,-0.958 2.328,-1.387 C 2.509,6.819 4.54,6.191 4.54,3.682 4.54,1.486 3.153,0 0,0"
             style="fill:#4c4c4c;fill-opacity:1;fill-rule:nonzero;stroke:none"
             id="path102"
             inkscape:connector-curvature="0" /></g><g
           id="g104"
           transform="translate(80.7539,190.8936)"><path
             d="m 0,0 c -2.988,0 -4.887,2.46 -4.887,5.96 0,3.5 1.899,5.96 4.887,5.96 1.882,0 3.137,-0.759 3.929,-2.163 L 2.394,8.8 C 1.799,9.741 1.188,10.187 0,10.187 c -2.015,0 -3.104,-1.635 -3.104,-4.227 0,-2.592 1.089,-4.227 3.104,-4.227 1.205,0 1.948,0.496 2.542,1.437 L 3.979,2.212 C 3.153,0.792 1.75,0 0,0"
             style="fill:#4c4c4c;fill-opacity:1;fill-rule:nonzero;stroke:none"
             id="path106"
             inkscape:connector-curvature="0" /></g><g
           id="g108"
           transform="translate(91.1914,201.0801)"><path
             d="m 0,0 c -2.015,0 -3.121,-1.634 -3.121,-4.227 0,-2.591 1.106,-4.226 3.121,-4.226 2.031,0 3.137,1.635 3.137,4.226 C 3.137,-1.634 2.031,0 0,0 m 0,-10.187 c -2.988,0 -4.887,2.46 -4.887,5.96 0,3.501 1.899,5.961 4.887,5.961 3.005,0 4.903,-2.46 4.903,-5.961 0,-3.5 -1.898,-5.96 -4.903,-5.96"
             style="fill:#4c4c4c;fill-opacity:1;fill-rule:nonzero;stroke:none"
             id="path110"
             inkscape:connector-curvature="0" /></g><g
           id="g112"
           transform="translate(107.1919,191.0752)"><path
             d="M 0,0 V 6.109 C 0,6.802 0.017,7.809 0.033,8.14 -0.099,7.809 -0.429,6.984 -0.71,6.323 L -3.517,-0.182 -6.291,6.323 C -6.571,6.984 -6.901,7.809 -7.033,8.14 -7.017,7.809 -7,6.802 -7,6.109 V 0 h -1.635 v 11.557 h 1.783 L -4.26,5.399 c 0.281,-0.661 0.644,-1.503 0.793,-1.982 0.165,0.479 0.495,1.305 0.776,1.982 l 2.543,6.158 H 1.701 L 1.701,0 Z"
             style="fill:#4c4c4c;fill-opacity:1;fill-rule:nonzero;stroke:none"
             id="path114"
             inkscape:connector-curvature="0" /></g><g
           id="g116"
           transform="translate(116.7041,200.9976)"><path
             d="M 0,0 H -3.104 V -3.979 H 0 c 1.321,0 1.981,0.76 1.981,1.998 C 1.981,-0.71 1.206,0 0,0 m -0.083,-5.613 h -3.021 v -4.309 h -1.7 V 1.635 h 4.837 c 2.13,0 3.715,-1.222 3.715,-3.616 0,-2.377 -1.585,-3.632 -3.831,-3.632"
             style="fill:#4c4c4c;fill-opacity:1;fill-rule:nonzero;stroke:none"
             id="path118"
             inkscape:connector-curvature="0" /></g><g
           id="g120"
           transform="translate(126.9429,190.8936)"><path
             d="m 0,0 c -2.856,0 -4.342,1.849 -4.342,5.036 v 6.703 h 1.733 V 5.085 c 0,-2.179 0.908,-3.352 2.642,-3.352 1.816,0 2.675,1.123 2.675,3.237 v 6.769 H 4.441 V 5.002 C 4.441,1.767 2.873,0 0,0"
             style="fill:#4c4c4c;fill-opacity:1;fill-rule:nonzero;stroke:none"
             id="path122"
             inkscape:connector-curvature="0" /></g><g
           id="g124"
           transform="translate(138.6836,200.9316)"><path
             d="M 0,0 V -9.856 H -1.733 V 0 h -3.369 v 1.701 h 8.47 L 3.368,0 Z"
             style="fill:#4c4c4c;fill-opacity:1;fill-rule:nonzero;stroke:none"
             id="path126"
             inkscape:connector-curvature="0" /></g><g
           id="g128"
           transform="translate(144.332,191.0752)"><path
             d="M 0,0 V 11.557 H 7.446 V 9.873 H 1.733 V 7.017 H 5.052 V 5.333 H 1.733 V 1.684 H 7.694 V 0 Z"
             style="fill:#4c4c4c;fill-opacity:1;fill-rule:nonzero;stroke:none"
             id="path130"
             inkscape:connector-curvature="0" /></g><g
           id="g132"
           transform="translate(159.8047,191.0752)"><path
             d="m 0,0 v 8.85 h -2.047 v 1.205 c 1.189,0.082 2.163,0.478 2.377,1.502 H 1.733 L 1.733,0 Z"
             style="fill:#4c4c4c;fill-opacity:1;fill-rule:nonzero;stroke:none"
             id="path134"
             inkscape:connector-curvature="0" /></g><path
           d="m 781.75,63.5 h -353 v 218 h 353 z"
           style="fill:#e6e6e6;fill-opacity:1;fill-rule:nonzero;stroke:none"
           id="path136"
           inkscape:connector-curvature="0" /><path
           d="m 759.5,134.5 h -145 v 38 h 145 z"
           style="fill:#ffffff;fill-opacity:1;fill-rule:nonzero;stroke:#c8c8c8;stroke-width:1;stroke-linecap:butt;stroke-linejoin:miter;stroke-miterlimit:10;stroke-dasharray:none;stroke-opacity:1"
           id="path138"
           inkscape:connector-curvature="0" /><g
           id="g140"
           transform="translate(458.6826,260.5117)"><path
             d="M 0,0 C -0.231,0.677 -0.462,1.37 -0.578,1.8 -0.694,1.37 -0.925,0.677 -1.156,0 L -1.899,-2.097 H 0.743 Z M 2.443,-6.868 1.535,-4.292 H -2.691 L -3.6,-6.868 H -6.076 L -1.651,4.689 H 0.594 L 4.986,-6.868 Z"
             style="fill:#4c4c4c;fill-opacity:1;fill-rule:nonzero;stroke:none"
             id="path142"
             inkscape:connector-curvature="0" /></g><g
           id="g144"
           transform="translate(469.5137,253.6436)"><path
             d="m 0,0 h -2.245 l -4.111,11.557 h 2.559 l 2.179,-6.686 c 0.215,-0.644 0.446,-1.486 0.545,-1.899 0.099,0.429 0.314,1.221 0.528,1.899 l 2.13,6.686 h 2.526 z"
             style="fill:#4c4c4c;fill-opacity:1;fill-rule:nonzero;stroke:none"
             id="path146"
             inkscape:connector-curvature="0" /></g><g
           id="g148"
           transform="translate(479.1895,260.5117)"><path
             d="M 0,0 C -0.231,0.677 -0.463,1.37 -0.578,1.8 -0.693,1.37 -0.925,0.677 -1.156,0 l -0.742,-2.097 h 2.64 z M 2.443,-6.868 1.535,-4.292 H -2.691 L -3.6,-6.868 H -6.076 L -1.651,4.689 H 0.594 L 4.986,-6.868 Z"
             style="fill:#4c4c4c;fill-opacity:1;fill-rule:nonzero;stroke:none"
             id="path150"
             inkscape:connector-curvature="0" /></g><path
           d="m 486.489,265.201 h 2.312 v -11.557 h -2.312 z"
           style="fill:#4c4c4c;fill-opacity:1;fill-rule:nonzero;stroke:none"
           id="path152"
           inkscape:connector-curvature="0" /><g
           id="g154"
           transform="translate(491.9395,253.6436)"><path
             d="M 0,0 V 11.557 H 2.311 V 2.278 H 8.105 V 0 Z"
             style="fill:#4c4c4c;fill-opacity:1;fill-rule:nonzero;stroke:none"
             id="path156"
             inkscape:connector-curvature="0" /></g><g
           id="g158"
           transform="translate(507.4277,260.5117)"><path
             d="M 0,0 C -0.231,0.677 -0.463,1.37 -0.578,1.8 -0.693,1.37 -0.925,0.677 -1.156,0 l -0.742,-2.097 h 2.64 z M 2.443,-6.868 1.535,-4.292 H -2.691 L -3.6,-6.868 H -6.076 L -1.651,4.689 H 0.594 L 4.986,-6.868 Z"
             style="fill:#4c4c4c;fill-opacity:1;fill-rule:nonzero;stroke:none"
             id="path160"
             inkscape:connector-curvature="0" /></g><g
           id="g162"
           transform="translate(519.8955,258.8276)"><path
             d="M 0,0 H -3.071 V -2.988 H 0 c 1.122,0 1.651,0.594 1.651,1.502 C 1.651,-0.495 1.122,0 0,0 M -0.132,4.243 H -3.071 V 2.047 h 3.054 c 0.957,0 1.305,0.446 1.305,1.09 0,0.726 -0.413,1.106 -1.42,1.106 m 0.049,-9.427 h -5.25 V 6.373 h 5.3 C 2.212,6.373 3.632,5.3 3.632,3.318 3.632,2.328 3.17,1.536 2.41,1.073 3.335,0.661 4.028,-0.182 4.028,-1.453 c 0,-2.427 -1.634,-3.731 -4.111,-3.731"
             style="fill:#4c4c4c;fill-opacity:1;fill-rule:nonzero;stroke:none"
             id="path164"
             inkscape:connector-curvature="0" /></g><path
           d="m 526.452,265.201 h 2.312 v -11.557 h -2.312 z"
           style="fill:#4c4c4c;fill-opacity:1;fill-rule:nonzero;stroke:none"
           id="path166"
           inkscape:connector-curvature="0" /><g
           id="g168"
           transform="translate(531.9023,253.6436)"><path
             d="M 0,0 V 11.557 H 2.311 V 2.278 H 8.105 V 0 Z"
             style="fill:#4c4c4c;fill-opacity:1;fill-rule:nonzero;stroke:none"
             id="path170"
             inkscape:connector-curvature="0" /></g><path
           d="m 542.305,265.201 h 2.313 v -11.557 h -2.313 z"
           style="fill:#4c4c4c;fill-opacity:1;fill-rule:nonzero;stroke:none"
           id="path172"
           inkscape:connector-curvature="0" /><g
           id="g174"
           transform="translate(552.6416,262.9224)"><path
             d="M 0,0 V -9.279 H -2.312 V 0 H -5.63 V 2.278 H 3.318 L 3.318,0 Z"
             style="fill:#4c4c4c;fill-opacity:1;fill-rule:nonzero;stroke:none"
             id="path176"
             inkscape:connector-curvature="0" /></g><g
           id="g178"
           transform="translate(563.7549,258.2168)"><path
             d="m 0,0 v -4.573 h -2.312 v 4.524 l -4.375,7.033 h 2.659 l 1.634,-2.741 c 0.413,-0.693 1.04,-1.832 1.254,-2.262 0.215,0.43 0.827,1.536 1.256,2.262 L 1.75,6.984 h 2.625 z"
             style="fill:#4c4c4c;fill-opacity:1;fill-rule:nonzero;stroke:none"
             id="path180"
             inkscape:connector-curvature="0" /></g><g
           id="g182"
           transform="translate(574.4062,253.6436)"><path
             d="M 0,0 V 2.047 L 4.971,7.974 C 5.334,8.42 5.994,9.18 6.291,9.477 5.828,9.46 4.623,9.444 3.946,9.444 H 0.331 v 2.113 h 8.7 V 9.51 L 4.111,3.583 C 3.748,3.137 3.088,2.377 2.791,2.08 3.253,2.097 4.459,2.113 5.135,2.113 H 9.114 V 0 Z"
             style="fill:#4c4c4c;fill-opacity:1;fill-rule:nonzero;stroke:none"
             id="path184"
             inkscape:connector-curvature="0" /></g><g
           id="g186"
           transform="translate(590.043,263.0874)"><path
             d="m 0,0 c -1.865,0 -2.641,-1.602 -2.641,-3.666 0,-2.063 0.776,-3.665 2.641,-3.665 1.866,0 2.643,1.602 2.643,3.665 C 2.643,-1.602 1.866,0 0,0 m 0,-9.625 c -3.152,0 -5.019,2.443 -5.019,5.959 0,3.517 1.867,5.961 5.019,5.961 3.154,0 5.02,-2.444 5.02,-5.961 0,-3.516 -1.866,-5.959 -5.02,-5.959"
             style="fill:#4c4c4c;fill-opacity:1;fill-rule:nonzero;stroke:none"
             id="path188"
             inkscape:connector-curvature="0" /></g><g
           id="g190"
           transform="translate(604.7227,253.6436)"><path
             d="m 0,0 -4.242,6.307 c -0.281,0.429 -0.66,1.007 -0.809,1.304 0,-0.429 0.032,-1.882 0.032,-2.526 V 0 h -2.278 v 11.557 h 2.213 L -0.99,5.448 c 0.281,-0.429 0.66,-1.007 0.808,-1.304 0,0.429 -0.032,1.882 -0.032,2.526 v 4.887 H 2.064 V 0 Z"
             style="fill:#4c4c4c;fill-opacity:1;fill-rule:nonzero;stroke:none"
             id="path192"
             inkscape:connector-curvature="0" /></g><g
           id="g194"
           transform="translate(609.7617,253.6436)"><path
             d="M 0,0 V 11.557 H 8.023 V 9.295 H 2.311 V 7.297 H 5.629 V 5.052 H 2.311 v -2.79 h 5.96 L 8.271,0 Z"
             style="fill:#4c4c4c;fill-opacity:1;fill-rule:nonzero;stroke:none"
             id="path196"
             inkscape:connector-curvature="0" /></g><g
           id="g198"
           transform="translate(621.2539,253.4619)"><path
             d="m 0,0 c -0.842,0 -1.552,0.71 -1.552,1.552 0,0.842 0.71,1.552 1.552,1.552 0.842,0 1.553,-0.71 1.553,-1.552 C 1.553,0.71 0.842,0 0,0 m 0,5.927 c -0.842,0 -1.552,0.71 -1.552,1.552 0,0.842 0.71,1.552 1.552,1.552 0.842,0 1.553,-0.71 1.553,-1.552 C 1.553,6.637 0.842,5.927 0,5.927"
             style="fill:#4c4c4c;fill-opacity:1;fill-rule:nonzero;stroke:none"
             id="path200"
             inkscape:connector-curvature="0" /></g><g
           id="g202"
           transform="translate(635.1074,258.8276)"><path
             d="M 0,0 H -3.071 V -2.988 H 0 c 1.123,0 1.65,0.594 1.65,1.502 C 1.65,-0.495 1.123,0 0,0 M -0.133,4.243 H -3.071 V 2.047 h 3.054 c 0.958,0 1.304,0.446 1.304,1.09 0,0.726 -0.412,1.106 -1.42,1.106 m 0.05,-9.427 h -5.25 V 6.373 h 5.3 C 2.212,6.373 3.632,5.3 3.632,3.318 3.632,2.328 3.17,1.536 2.41,1.073 3.335,0.661 4.028,-0.182 4.028,-1.453 c 0,-2.427 -1.634,-3.731 -4.111,-3.731"
             style="fill:#4c4c4c;fill-opacity:1;fill-rule:nonzero;stroke:none"
             id="path204"
             inkscape:connector-curvature="0" /></g><g
           id="g206"
           transform="translate(645.79,263.0874)"><path
             d="m 0,0 c -1.866,0 -2.642,-1.602 -2.642,-3.666 0,-2.063 0.776,-3.665 2.642,-3.665 1.866,0 2.642,1.602 2.642,3.665 C 2.642,-1.602 1.866,0 0,0 m 0,-9.625 c -3.153,0 -5.019,2.443 -5.019,5.959 0,3.517 1.866,5.961 5.019,5.961 3.153,0 5.019,-2.444 5.019,-5.961 0,-3.516 -1.866,-5.959 -5.019,-5.959"
             style="fill:#4c4c4c;fill-opacity:1;fill-rule:nonzero;stroke:none"
             id="path208"
             inkscape:connector-curvature="0" /></g><g
           id="g210"
           transform="translate(656.8564,253.4619)"><path
             d="m 0,0 c -1.933,0 -3.616,0.809 -4.491,2.097 l 1.668,1.486 c 0.808,-0.941 1.849,-1.321 2.955,-1.321 1.37,0 2.014,0.38 2.014,1.255 0,0.743 -0.396,1.073 -2.576,1.568 -2.13,0.496 -3.616,1.172 -3.616,3.451 0,2.096 1.85,3.384 4.129,3.384 1.799,0 3.119,-0.677 4.209,-1.816 L 2.625,8.486 C 1.882,9.246 1.057,9.675 0,9.675 c -1.238,0 -1.651,-0.529 -1.651,-1.04 0,-0.727 0.496,-0.958 2.328,-1.387 C 2.509,6.819 4.54,6.191 4.54,3.682 4.54,1.486 3.153,0 0,0"
             style="fill:#4c4c4c;fill-opacity:1;fill-rule:nonzero;stroke:none"
             id="path212"
             inkscape:connector-curvature="0" /></g><g
           id="g214"
           transform="translate(668.3027,262.9224)"><path
             d="M 0,0 V -9.279 H -2.313 V 0 H -5.631 V 2.278 H 3.318 L 3.318,0 Z"
             style="fill:#4c4c4c;fill-opacity:1;fill-rule:nonzero;stroke:none"
             id="path216"
             inkscape:connector-curvature="0" /></g><g
           id="g218"
           transform="translate(677.6992,263.0874)"><path
             d="m 0,0 c -1.865,0 -2.642,-1.602 -2.642,-3.666 0,-2.063 0.777,-3.665 2.642,-3.665 1.865,0 2.642,1.602 2.642,3.665 C 2.642,-1.602 1.865,0 0,0 m 0,-9.625 c -3.153,0 -5.02,2.443 -5.02,5.959 0,3.517 1.867,5.961 5.02,5.961 3.153,0 5.02,-2.444 5.02,-5.961 0,-3.516 -1.867,-5.959 -5.02,-5.959"
             style="fill:#4c4c4c;fill-opacity:1;fill-rule:nonzero;stroke:none"
             id="path220"
             inkscape:connector-curvature="0" /></g><g
           id="g222"
           transform="translate(692.3789,253.6436)"><path
             d="m 0,0 -4.243,6.307 c -0.28,0.429 -0.66,1.007 -0.809,1.304 0,-0.429 0.032,-1.882 0.032,-2.526 V 0 h -2.277 v 11.557 h 2.212 L -0.99,5.448 c 0.28,-0.429 0.66,-1.007 0.808,-1.304 0,0.429 -0.033,1.882 -0.033,2.526 v 4.887 H 2.064 L 2.064,0 Z"
             style="fill:#4c4c4c;fill-opacity:1;fill-rule:nonzero;stroke:none"
             id="path224"
             inkscape:connector-curvature="0" /></g><g
           id="g226"
           transform="translate(640.5137,147.8936)"><path
             d="m 0,0 c -2.988,0 -4.887,2.46 -4.887,5.96 0,3.501 1.899,5.961 4.887,5.961 1.882,0 3.137,-0.76 3.93,-2.163 L 2.394,8.8 C 1.799,9.741 1.188,10.187 0,10.187 c -2.015,0 -3.104,-1.634 -3.104,-4.227 0,-2.592 1.089,-4.227 3.104,-4.227 1.205,0 1.948,0.496 2.543,1.437 L 3.979,2.213 C 3.153,0.793 1.75,0 0,0"
             style="fill:#4c4c4c;fill-opacity:1;fill-rule:nonzero;stroke:none"
             id="path228"
             inkscape:connector-curvature="0" /></g><g
           id="g230"
           transform="translate(650.9512,158.0801)"><path
             d="m 0,0 c -2.015,0 -3.121,-1.634 -3.121,-4.227 0,-2.591 1.106,-4.226 3.121,-4.226 2.031,0 3.137,1.635 3.137,4.226 C 3.137,-1.634 2.031,0 0,0 m 0,-10.187 c -2.988,0 -4.887,2.46 -4.887,5.96 0,3.501 1.899,5.961 4.887,5.961 3.005,0 4.903,-2.46 4.903,-5.961 0,-3.5 -1.898,-5.96 -4.903,-5.96"
             style="fill:#4c4c4c;fill-opacity:1;fill-rule:nonzero;stroke:none"
             id="path232"
             inkscape:connector-curvature="0" /></g><g
           id="g234"
           transform="translate(666.9512,148.0752)"><path
             d="M 0,0 V 6.109 C 0,6.803 0.018,7.81 0.033,8.14 -0.099,7.81 -0.429,6.984 -0.709,6.323 L -3.516,-0.182 -6.29,6.323 C -6.57,6.984 -6.9,7.81 -7.033,8.14 -7.016,7.81 -7,6.803 -7,6.109 V 0 h -1.635 v 11.558 h 1.783 L -4.26,5.399 c 0.281,-0.661 0.645,-1.503 0.793,-1.981 0.165,0.478 0.496,1.304 0.776,1.981 l 2.543,6.159 H 1.701 L 1.701,0 Z"
             style="fill:#4c4c4c;fill-opacity:1;fill-rule:nonzero;stroke:none"
             id="path236"
             inkscape:connector-curvature="0" /></g><g
           id="g238"
           transform="translate(676.4639,157.998)"><path
             d="M 0,0 H -3.104 V -3.979 H 0 c 1.321,0 1.981,0.759 1.981,1.998 C 1.981,-0.71 1.206,0 0,0 m -0.083,-5.613 h -3.021 v -4.31 h -1.7 V 1.635 h 4.837 c 2.13,0 3.715,-1.222 3.715,-3.616 0,-2.377 -1.585,-3.632 -3.831,-3.632"
             style="fill:#4c4c4c;fill-opacity:1;fill-rule:nonzero;stroke:none"
             id="path240"
             inkscape:connector-curvature="0" /></g><g
           id="g242"
           transform="translate(686.7031,147.8936)"><path
             d="m 0,0 c -2.857,0 -4.343,1.85 -4.343,5.036 v 6.703 h 1.734 V 5.085 c 0,-2.179 0.908,-3.352 2.641,-3.352 1.817,0 2.675,1.123 2.675,3.237 v 6.769 H 4.44 V 5.003 C 4.44,1.767 2.872,0 0,0"
             style="fill:#4c4c4c;fill-opacity:1;fill-rule:nonzero;stroke:none"
             id="path244"
             inkscape:connector-curvature="0" /></g><g
           id="g246"
           transform="translate(698.4434,157.9316)"><path
             d="M 0,0 V -9.856 H -1.733 V 0 h -3.369 v 1.701 h 8.47 L 3.368,0 Z"
             style="fill:#4c4c4c;fill-opacity:1;fill-rule:nonzero;stroke:none"
             id="path248"
             inkscape:connector-curvature="0" /></g><g
           id="g250"
           transform="translate(704.0918,148.0752)"><path
             d="M 0,0 V 11.558 H 7.445 V 9.873 H 1.733 V 7.017 h 3.32 V 5.333 H 1.733 V 1.685 h 5.96 L 7.693,0 Z"
             style="fill:#4c4c4c;fill-opacity:1;fill-rule:nonzero;stroke:none"
             id="path252"
             inkscape:connector-curvature="0" /></g><g
           id="g254"
           transform="translate(722.7178,158.2295)"><path
             d="m 0,0 c -1.684,0 -2.278,-0.76 -2.278,-1.635 0,-0.925 0.875,-1.585 2.311,-1.585 1.486,0 2.279,0.677 2.279,1.519 C 2.312,-0.826 1.685,0 0,0 m 0,-4.854 c -1.849,0 -2.773,-0.727 -2.773,-1.899 0,-1.222 1.006,-1.998 2.79,-1.998 1.849,0 2.79,0.793 2.79,1.915 0,1.222 -0.875,1.982 -2.807,1.982 m -0.017,-5.482 c -2.79,0 -4.506,1.272 -4.506,3.55 0,1.387 0.71,2.378 2.046,2.873 -1.188,0.495 -1.551,1.535 -1.551,2.228 0,2.229 1.799,3.27 4.061,3.27 2.064,0 4.029,-1.008 4.029,-3.236 0,-0.677 -0.364,-1.784 -1.552,-2.262 1.238,-0.463 2.048,-1.387 2.048,-2.873 0,-2.278 -1.784,-3.55 -4.575,-3.55"
             style="fill:#4c4c4c;fill-opacity:1;fill-rule:nonzero;stroke:none"
             id="path256"
             inkscape:connector-curvature="0" /></g><g
           id="g258"
           transform="translate(733.7812,158.2295)"><path
             d="m 0,0 c -1.684,0 -2.277,-0.76 -2.277,-1.635 0,-0.925 0.875,-1.585 2.31,-1.585 1.487,0 2.28,0.677 2.28,1.519 C 2.313,-0.826 1.685,0 0,0 m 0,-4.854 c -1.849,0 -2.773,-0.727 -2.773,-1.899 0,-1.222 1.007,-1.998 2.791,-1.998 1.848,0 2.79,0.793 2.79,1.915 0,1.222 -0.876,1.982 -2.808,1.982 m -0.016,-5.482 c -2.791,0 -4.507,1.272 -4.507,3.55 0,1.387 0.71,2.378 2.047,2.873 -1.188,0.495 -1.551,1.535 -1.551,2.228 0,2.229 1.798,3.27 4.06,3.27 2.065,0 4.029,-1.008 4.029,-3.236 0,-0.677 -0.363,-1.784 -1.552,-2.262 1.238,-0.463 2.048,-1.387 2.048,-2.873 0,-2.278 -1.784,-3.55 -4.574,-3.55"
             style="fill:#4c4c4c;fill-opacity:1;fill-rule:nonzero;stroke:none"
             id="path260"
             inkscape:connector-curvature="0" /></g><g
           id="g262"
           transform="translate(62.4692,23.0752)"><path
             d="M 0,0 V 4.557 H -4.672 V 0 h -1.524 v 10.158 h 1.524 V 6.052 H 0 v 4.106 H 1.524 V 0 Z"
             style="fill:#0088ce;fill-opacity:1;fill-rule:nonzero;stroke:none"
             id="path264"
             inkscape:connector-curvature="0" /></g><g
           id="g266"
           transform="translate(70.4517,31.8691)"><path
             d="m 0,0 c -1.77,0 -2.742,-1.437 -2.742,-3.715 0,-2.278 0.972,-3.715 2.742,-3.715 1.785,0 2.757,1.437 2.757,3.715 C 2.757,-1.437 1.785,0 0,0 m 0,-8.953 c -2.626,0 -4.295,2.162 -4.295,5.238 0,3.076 1.669,5.238 4.295,5.238 2.641,0 4.31,-2.162 4.31,-5.238 0,-3.076 -1.669,-5.238 -4.31,-5.238"
             style="fill:#0088ce;fill-opacity:1;fill-rule:nonzero;stroke:none"
             id="path268"
             inkscape:connector-curvature="0" /></g><g
           id="g270"
           transform="translate(79.7568,22.916)"><path
             d="m 0,0 c -1.48,0 -2.757,0.639 -3.613,1.64 l 1.088,1.059 c 0.682,-0.74 1.684,-1.205 2.641,-1.205 1.423,0 2.104,0.494 2.104,1.481 0,0.783 -0.595,1.175 -2.292,1.683 -2.148,0.638 -3.178,1.175 -3.178,2.989 0,1.756 1.48,2.83 3.352,2.83 1.378,0 2.423,-0.508 3.323,-1.378 L 2.351,8.01 c -0.639,0.653 -1.364,0.972 -2.365,0.972 -1.19,0 -1.698,-0.581 -1.698,-1.262 0,-0.711 0.464,-1.06 2.22,-1.582 C 2.511,5.528 3.758,4.89 3.758,3.076 3.758,1.248 2.598,0 0,0"
             style="fill:#0088ce;fill-opacity:1;fill-rule:nonzero;stroke:none"
             id="path272"
             inkscape:connector-curvature="0" /></g><g
           id="g274"
           transform="translate(89.2788,31.7383)"><path
             d="M 0,0 V -8.663 H -1.524 V 0 h -2.96 V 1.495 H 2.96 V 0 Z"
             style="fill:#0088ce;fill-opacity:1;fill-rule:nonzero;stroke:none"
             id="path276"
             inkscape:connector-curvature="0" /></g><g
           id="g278"
           transform="translate(102.7324,29.1846)"><path
             d="M 0,0 C -0.247,0.726 -0.653,1.901 -0.769,2.336 -0.885,1.901 -1.248,0.74 -1.509,-0.015 L -2.322,-2.336 H 0.812 Z M 2.133,-6.109 1.277,-3.7 h -4.063 l -0.842,-2.409 h -1.581 l 3.656,10.158 h 1.611 l 3.7,-10.158 z"
             style="fill:#0088ce;fill-opacity:1;fill-rule:nonzero;stroke:none"
             id="path280"
             inkscape:connector-curvature="0" /></g><g
           id="g282"
           transform="translate(111.9922,22.916)"><path
             d="m 0,0 c -2.626,0 -4.295,2.162 -4.295,5.238 0,3.076 1.669,5.239 4.295,5.239 1.654,0 2.757,-0.667 3.454,-1.901 L 2.119,7.749 C 1.596,8.576 1.045,8.953 0,8.953 -1.77,8.953 -2.742,7.517 -2.742,5.238 -2.742,2.96 -1.77,1.523 0,1.523 c 1.654,0 2.308,1.088 2.308,2.279 V 3.846 H 0.653 V 5.311 H 3.86 V 4.136 C 3.86,1.523 2.264,0 0,0"
             style="fill:#0088ce;fill-opacity:1;fill-rule:nonzero;stroke:none"
             id="path284"
             inkscape:connector-curvature="0" /></g><g
           id="g286"
           transform="translate(121.832,22.916)"><path
             d="m 0,0 c -2.626,0 -4.295,2.162 -4.295,5.238 0,3.076 1.669,5.239 4.295,5.239 1.654,0 2.757,-0.667 3.454,-1.901 L 2.119,7.749 C 1.596,8.576 1.045,8.953 0,8.953 -1.77,8.953 -2.742,7.517 -2.742,5.238 -2.742,2.96 -1.77,1.523 0,1.523 c 1.654,0 2.308,1.088 2.308,2.279 V 3.846 H 0.653 V 5.311 H 3.86 V 4.136 C 3.86,1.523 2.264,0 0,0"
             style="fill:#0088ce;fill-opacity:1;fill-rule:nonzero;stroke:none"
             id="path288"
             inkscape:connector-curvature="0" /></g><g
           id="g290"
           transform="translate(132.3105,31.7969)"><path
             d="M 0,0 H -2.96 V -3.266 H 0 c 1.016,0 1.727,0.523 1.727,1.626 C 1.727,-0.581 1.03,0 0,0 M 1.03,-4.571 3.105,-8.722 H 1.35 l -2.017,4.02 H -2.96 v -4.02 H -4.455 V 1.437 H 0 c 1.771,0 3.265,-0.944 3.265,-3.034 0,-1.625 -0.856,-2.626 -2.235,-2.974"
             style="fill:#0088ce;fill-opacity:1;fill-rule:nonzero;stroke:none"
             id="path292"
             inkscape:connector-curvature="0" /></g><g
           id="g294"
           transform="translate(137.9277,23.0752)"><path
             d="M 0,0 V 10.158 H 6.545 V 8.678 H 1.524 V 6.167 H 4.44 V 4.687 H 1.524 V 1.48 h 5.238 l 0,-1.48 z"
             style="fill:#0088ce;fill-opacity:1;fill-rule:nonzero;stroke:none"
             id="path296"
             inkscape:connector-curvature="0" /></g><g
           id="g298"
           transform="translate(150.1914,22.916)"><path
             d="m 0,0 c -2.626,0 -4.295,2.162 -4.295,5.238 0,3.076 1.669,5.239 4.295,5.239 1.654,0 2.757,-0.667 3.454,-1.901 L 2.119,7.749 C 1.596,8.576 1.045,8.953 0,8.953 -1.77,8.953 -2.742,7.517 -2.742,5.238 -2.742,2.96 -1.77,1.523 0,1.523 c 1.654,0 2.308,1.088 2.308,2.279 V 3.846 H 0.653 V 5.311 H 3.86 V 4.136 C 3.86,1.523 2.264,0 0,0"
             style="fill:#0088ce;fill-opacity:1;fill-rule:nonzero;stroke:none"
             id="path300"
             inkscape:connector-curvature="0" /></g><g
           id="g302"
           transform="translate(160.5703,29.1846)"><path
             d="M 0,0 C -0.247,0.726 -0.653,1.901 -0.769,2.336 -0.885,1.901 -1.248,0.74 -1.509,-0.015 L -2.322,-2.336 H 0.812 Z M 2.133,-6.109 1.277,-3.7 h -4.063 l -0.842,-2.409 h -1.581 l 3.656,10.158 h 1.611 l 3.7,-10.158 z"
             style="fill:#0088ce;fill-opacity:1;fill-rule:nonzero;stroke:none"
             id="path304"
             inkscape:connector-curvature="0" /></g><g
           id="g306"
           transform="translate(168.8706,31.7383)"><path
             d="M 0,0 V -8.663 H -1.524 V 0 h -2.96 V 1.495 H 2.96 V 0 Z"
             style="fill:#0088ce;fill-opacity:1;fill-rule:nonzero;stroke:none"
             id="path308"
             inkscape:connector-curvature="0" /></g><g
           id="g310"
           transform="translate(173.8345,23.0752)"><path
             d="M 0,0 V 10.158 H 6.545 V 8.678 H 1.524 V 6.167 H 4.44 V 4.687 H 1.524 V 1.48 h 5.238 l 0,-1.48 z"
             style="fill:#0088ce;fill-opacity:1;fill-rule:nonzero;stroke:none"
             id="path312"
             inkscape:connector-curvature="0" /></g><g
           id="g314"
           transform="translate(183.2827,22.916)"><path
             d="m 0,0 c -0.624,0 -1.146,0.522 -1.146,1.146 0,0.625 0.522,1.161 1.146,1.161 0.624,0 1.146,-0.536 1.146,-1.161 C 1.146,0.522 0.624,0 0,0 m 0,5.63 c -0.624,0 -1.146,0.522 -1.146,1.146 C -1.146,7.4 -0.624,7.937 0,7.937 0.624,7.937 1.146,7.4 1.146,6.776 1.146,6.152 0.624,5.63 0,5.63"
             style="fill:#0088ce;fill-opacity:1;fill-rule:nonzero;stroke:none"
             id="path316"
             inkscape:connector-curvature="0" /></g><g
           id="g318"
           transform="translate(194.8198,31.7969)"><path
             d="M 0,0 H -2.96 V -3.266 H 0 c 1.016,0 1.727,0.523 1.727,1.626 C 1.727,-0.581 1.03,0 0,0 M 1.03,-4.571 3.105,-8.722 H 1.35 l -2.017,4.02 H -2.96 v -4.02 H -4.455 V 1.437 H 0 c 1.771,0 3.265,-0.944 3.265,-3.034 0,-1.625 -0.856,-2.626 -2.235,-2.974"
             style="fill:#0088ce;fill-opacity:1;fill-rule:nonzero;stroke:none"
             id="path320"
             inkscape:connector-curvature="0" /></g><g
           id="g322"
           transform="translate(204.792,29.1846)"><path
             d="M 0,0 C -0.247,0.726 -0.653,1.901 -0.769,2.336 -0.885,1.901 -1.248,0.74 -1.509,-0.015 L -2.322,-2.336 H 0.812 Z M 2.133,-6.109 1.277,-3.7 h -4.063 l -0.842,-2.409 h -1.581 l 3.656,10.158 h 1.611 l 3.7,-10.158 z"
             style="fill:#0088ce;fill-opacity:1;fill-rule:nonzero;stroke:none"
             id="path324"
             inkscape:connector-curvature="0" /></g><g
           id="g326"
           transform="translate(218.1436,23.0752)"><path
             d="M 0,0 V 5.369 C 0,5.979 0.015,6.864 0.029,7.154 -0.087,6.864 -0.377,6.139 -0.624,5.558 l -2.467,-5.717 -2.438,5.717 c -0.246,0.581 -0.536,1.306 -0.653,1.596 0.015,-0.29 0.03,-1.175 0.03,-1.785 V 0 h -1.437 v 10.158 h 1.567 l 2.278,-5.413 c 0.247,-0.58 0.566,-1.32 0.697,-1.741 0.145,0.421 0.435,1.146 0.682,1.741 l 2.235,5.413 H 1.495 L 1.495,0 Z"
             style="fill:#0088ce;fill-opacity:1;fill-rule:nonzero;stroke:none"
             id="path328"
             inkscape:connector-curvature="0" /></g><g
           id="g330"
           transform="translate(225.5757,23.0752)"><path
             d="M 0,0 C 0.102,2.975 1.901,4.296 3.904,5.485 5.282,6.298 5.63,6.748 5.63,7.459 5.63,8.271 5.079,8.794 3.686,8.794 2.83,8.794 1.887,8.402 1.234,7.778 L 0.261,8.939 c 0.915,0.856 2.206,1.378 3.468,1.378 2.104,0 3.454,-0.899 3.454,-2.771 C 7.183,5.979 6.414,5.312 4.629,4.252 2.685,3.105 2.133,2.452 1.901,1.48 H 7.285 V 0 Z"
             style="fill:#0088ce;fill-opacity:1;fill-rule:nonzero;stroke:none"
             id="path332"
             inkscape:connector-curvature="0" /></g><g
           id="g334"
           transform="translate(238.5928,31.9131)"><path
             d="m 0,0 c -1.77,0 -2.452,-1.611 -2.452,-3.744 0,-2.133 0.711,-3.774 2.481,-3.774 1.785,0 2.452,1.612 2.452,3.745 C 2.481,-1.641 1.785,0 0,0 m 0,-8.997 c -2.626,0 -3.99,2.147 -3.99,5.224 0,3.076 1.393,5.252 4.019,5.252 2.627,0 3.991,-2.147 3.991,-5.223 C 4.02,-6.82 2.626,-8.997 0,-8.997"
             style="fill:#0088ce;fill-opacity:1;fill-rule:nonzero;stroke:none"
             id="path336"
             inkscape:connector-curvature="0" /></g><g
           id="g338"
           transform="translate(248.5483,22.916)"><path
             d="m 0,0 c -2.626,0 -4.295,2.162 -4.295,5.238 0,3.076 1.669,5.239 4.295,5.239 1.654,0 2.757,-0.667 3.454,-1.901 L 2.119,7.749 C 1.597,8.576 1.045,8.953 0,8.953 -1.77,8.953 -2.742,7.517 -2.742,5.238 -2.742,2.96 -1.77,1.523 0,1.523 c 1.654,0 2.308,1.088 2.308,2.279 V 3.846 H 0.653 V 5.311 H 3.86 V 4.136 C 3.86,1.523 2.264,0 0,0"
             style="fill:#0088ce;fill-opacity:1;fill-rule:nonzero;stroke:none"
             id="path340"
             inkscape:connector-curvature="0" /></g><g
           id="g342"
           transform="translate(258.7656,27.835)"><path
             d="m 0,0 h -2.757 v -3.366 h 2.714 c 1.349,0 1.842,0.681 1.842,1.682 C 1.799,-0.639 1.146,0 0,0 M -0.029,4.005 H -2.757 V 1.379 h 2.728 c 1.001,0 1.407,0.624 1.407,1.291 0,0.755 -0.391,1.335 -1.407,1.335 M -0.16,-4.76 H -4.194 V 5.398 h 4.179 c 1.771,0 2.917,-0.928 2.917,-2.641 0,-1.03 -0.551,-1.668 -1.291,-2.031 0.798,-0.218 1.712,-0.958 1.712,-2.366 0,-2.06 -1.262,-3.12 -3.483,-3.12"
             style="fill:#0088ce;fill-opacity:1;fill-rule:nonzero;stroke:none"
             id="path344"
             inkscape:connector-curvature="0" /></g><g
           id="g346"
           transform="translate(339.9692,23.0752)"><path
             d="M 0,0 V 4.557 H -4.672 V 0 h -1.524 v 10.158 h 1.524 V 6.052 H 0 v 4.106 H 1.524 V 0 Z"
             style="fill:#359c3f;fill-opacity:1;fill-rule:nonzero;stroke:none"
             id="path348"
             inkscape:connector-curvature="0" /></g><g
           id="g350"
           transform="translate(347.9517,31.8691)"><path
             d="m 0,0 c -1.77,0 -2.742,-1.437 -2.742,-3.715 0,-2.278 0.972,-3.715 2.742,-3.715 1.785,0 2.757,1.437 2.757,3.715 C 2.757,-1.437 1.785,0 0,0 m 0,-8.953 c -2.626,0 -4.295,2.162 -4.295,5.238 0,3.076 1.669,5.238 4.295,5.238 2.641,0 4.31,-2.162 4.31,-5.238 0,-3.076 -1.669,-5.238 -4.31,-5.238"
             style="fill:#359c3f;fill-opacity:1;fill-rule:nonzero;stroke:none"
             id="path352"
             inkscape:connector-curvature="0" /></g><g
           id="g354"
           transform="translate(357.2568,22.916)"><path
             d="m 0,0 c -1.48,0 -2.757,0.639 -3.613,1.64 l 1.088,1.059 c 0.682,-0.74 1.684,-1.205 2.641,-1.205 1.423,0 2.104,0.494 2.104,1.481 0,0.783 -0.595,1.175 -2.292,1.683 -2.148,0.638 -3.178,1.175 -3.178,2.989 0,1.756 1.48,2.83 3.352,2.83 1.378,0 2.423,-0.508 3.323,-1.378 L 2.351,8.01 c -0.639,0.653 -1.364,0.972 -2.365,0.972 -1.19,0 -1.698,-0.581 -1.698,-1.262 0,-0.711 0.464,-1.06 2.22,-1.582 C 2.511,5.528 3.758,4.89 3.758,3.076 3.758,1.248 2.598,0 0,0"
             style="fill:#359c3f;fill-opacity:1;fill-rule:nonzero;stroke:none"
             id="path356"
             inkscape:connector-curvature="0" /></g><g
           id="g358"
           transform="translate(366.7788,31.7383)"><path
             d="M 0,0 V -8.663 H -1.524 V 0 h -2.96 V 1.495 H 2.96 V 0 Z"
             style="fill:#359c3f;fill-opacity:1;fill-rule:nonzero;stroke:none"
             id="path360"
             inkscape:connector-curvature="0" /></g><g
           id="g362"
           transform="translate(380.2324,29.1846)"><path
             d="M 0,0 C -0.247,0.726 -0.653,1.901 -0.769,2.336 -0.885,1.901 -1.248,0.74 -1.509,-0.015 L -2.322,-2.336 H 0.812 Z M 2.133,-6.109 1.277,-3.7 h -4.063 l -0.842,-2.409 h -1.581 l 3.656,10.158 h 1.611 l 3.7,-10.158 z"
             style="fill:#359c3f;fill-opacity:1;fill-rule:nonzero;stroke:none"
             id="path364"
             inkscape:connector-curvature="0" /></g><g
           id="g366"
           transform="translate(389.4922,22.916)"><path
             d="m 0,0 c -2.626,0 -4.295,2.162 -4.295,5.238 0,3.076 1.669,5.239 4.295,5.239 1.654,0 2.757,-0.667 3.454,-1.901 L 2.119,7.749 C 1.596,8.576 1.045,8.953 0,8.953 -1.77,8.953 -2.742,7.517 -2.742,5.238 -2.742,2.96 -1.77,1.523 0,1.523 c 1.654,0 2.308,1.088 2.308,2.279 V 3.846 H 0.653 V 5.311 H 3.86 V 4.136 C 3.86,1.523 2.264,0 0,0"
             style="fill:#359c3f;fill-opacity:1;fill-rule:nonzero;stroke:none"
             id="path368"
             inkscape:connector-curvature="0" /></g><g
           id="g370"
           transform="translate(399.332,22.916)"><path
             d="m 0,0 c -2.626,0 -4.295,2.162 -4.295,5.238 0,3.076 1.669,5.239 4.295,5.239 1.654,0 2.757,-0.667 3.454,-1.901 L 2.119,7.749 C 1.596,8.576 1.045,8.953 0,8.953 -1.77,8.953 -2.742,7.517 -2.742,5.238 -2.742,2.96 -1.77,1.523 0,1.523 c 1.654,0 2.308,1.088 2.308,2.279 V 3.846 H 0.653 V 5.311 H 3.86 V 4.136 C 3.86,1.523 2.264,0 0,0"
             style="fill:#359c3f;fill-opacity:1;fill-rule:nonzero;stroke:none"
             id="path372"
             inkscape:connector-curvature="0" /></g><g
           id="g374"
           transform="translate(409.8105,31.7969)"><path
             d="M 0,0 H -2.96 V -3.266 H 0 c 1.016,0 1.727,0.523 1.727,1.626 C 1.727,-0.581 1.03,0 0,0 M 1.03,-4.571 3.105,-8.722 H 1.35 l -2.017,4.02 H -2.96 v -4.02 H -4.455 V 1.437 H 0 c 1.771,0 3.265,-0.944 3.265,-3.034 0,-1.625 -0.856,-2.626 -2.235,-2.974"
             style="fill:#359c3f;fill-opacity:1;fill-rule:nonzero;stroke:none"
             id="path376"
             inkscape:connector-curvature="0" /></g><g
           id="g378"
           transform="translate(415.4277,23.0752)"><path
             d="M 0,0 V 10.158 H 6.545 V 8.678 H 1.524 V 6.167 H 4.44 V 4.687 H 1.524 V 1.48 h 5.238 l 0,-1.48 z"
             style="fill:#359c3f;fill-opacity:1;fill-rule:nonzero;stroke:none"
             id="path380"
             inkscape:connector-curvature="0" /></g><g
           id="g382"
           transform="translate(427.6914,22.916)"><path
             d="m 0,0 c -2.626,0 -4.295,2.162 -4.295,5.238 0,3.076 1.669,5.239 4.295,5.239 1.654,0 2.757,-0.667 3.454,-1.901 L 2.119,7.749 C 1.596,8.576 1.045,8.953 0,8.953 -1.77,8.953 -2.742,7.517 -2.742,5.238 -2.742,2.96 -1.77,1.523 0,1.523 c 1.654,0 2.308,1.088 2.308,2.279 V 3.846 H 0.653 V 5.311 H 3.86 V 4.136 C 3.86,1.523 2.264,0 0,0"
             style="fill:#359c3f;fill-opacity:1;fill-rule:nonzero;stroke:none"
             id="path384"
             inkscape:connector-curvature="0" /></g><g
           id="g386"
           transform="translate(438.0703,29.1846)"><path
             d="M 0,0 C -0.247,0.726 -0.653,1.901 -0.769,2.336 -0.885,1.901 -1.248,0.74 -1.509,-0.015 L -2.322,-2.336 H 0.812 Z M 2.133,-6.109 1.277,-3.7 h -4.063 l -0.842,-2.409 h -1.581 l 3.656,10.158 h 1.611 l 3.7,-10.158 z"
             style="fill:#359c3f;fill-opacity:1;fill-rule:nonzero;stroke:none"
             id="path388"
             inkscape:connector-curvature="0" /></g><g
           id="g390"
           transform="translate(446.3706,31.7383)"><path
             d="M 0,0 V -8.663 H -1.524 V 0 h -2.96 V 1.495 H 2.96 V 0 Z"
             style="fill:#359c3f;fill-opacity:1;fill-rule:nonzero;stroke:none"
             id="path392"
             inkscape:connector-curvature="0" /></g><g
           id="g394"
           transform="translate(451.3345,23.0752)"><path
             d="M 0,0 V 10.158 H 6.545 V 8.678 H 1.524 V 6.167 H 4.44 V 4.687 H 1.524 V 1.48 h 5.238 l 0,-1.48 z"
             style="fill:#359c3f;fill-opacity:1;fill-rule:nonzero;stroke:none"
             id="path396"
             inkscape:connector-curvature="0" /></g><g
           id="g398"
           transform="translate(460.7827,22.916)"><path
             d="m 0,0 c -0.624,0 -1.146,0.522 -1.146,1.146 0,0.625 0.522,1.161 1.146,1.161 0.624,0 1.146,-0.536 1.146,-1.161 C 1.146,0.522 0.624,0 0,0 m 0,5.63 c -0.624,0 -1.146,0.522 -1.146,1.146 C -1.146,7.4 -0.624,7.937 0,7.937 0.624,7.937 1.146,7.4 1.146,6.776 1.146,6.152 0.624,5.63 0,5.63"
             style="fill:#359c3f;fill-opacity:1;fill-rule:nonzero;stroke:none"
             id="path400"
             inkscape:connector-curvature="0" /></g><g
           id="g402"
           transform="translate(474.0605,23.0752)"><path
             d="M 0,0 V 4.557 H -4.672 V 0 h -1.524 v 10.158 h 1.524 V 6.052 H 0 v 4.106 H 1.524 V 0 Z"
             style="fill:#359c3f;fill-opacity:1;fill-rule:nonzero;stroke:none"
             id="path404"
             inkscape:connector-curvature="0" /></g><g
           id="g406"
           transform="translate(482.0439,22.916)"><path
             d="m 0,0 c -2.626,0 -4.295,2.162 -4.295,5.238 0,3.076 1.669,5.239 4.295,5.239 1.654,0 2.757,-0.667 3.454,-1.901 L 2.104,7.734 C 1.582,8.562 1.045,8.953 0,8.953 c -1.771,0 -2.728,-1.436 -2.728,-3.715 0,-2.278 0.957,-3.715 2.728,-3.715 1.06,0 1.712,0.436 2.235,1.263 L 3.497,1.944 C 2.772,0.696 1.538,0 0,0"
             style="fill:#359c3f;fill-opacity:1;fill-rule:nonzero;stroke:none"
             id="path408"
             inkscape:connector-curvature="0" /></g><path
           d="m 487.807,33.233 h 1.523 V 23.075 h -1.523 z"
           style="fill:#359c3f;fill-opacity:1;fill-rule:nonzero;stroke:none"
           id="path410"
           inkscape:connector-curvature="0" /><g
           id="g412"
           transform="translate(502.2314,23.0752)"><path
             d="m 0,0 -4.049,6.371 c -0.247,0.377 -0.595,0.986 -0.755,1.247 0,-0.377 0.016,-1.784 0.016,-2.35 V 0 h -1.481 v 10.158 h 1.553 l 3.86,-6.196 c 0.261,-0.421 0.697,-1.176 0.841,-1.437 0,0.377 -0.014,1.829 -0.014,2.395 v 5.238 h 1.48 L 1.451,0 Z"
             style="fill:#359c3f;fill-opacity:1;fill-rule:nonzero;stroke:none"
             id="path414"
             inkscape:connector-curvature="0" /></g><g
           id="g416"
           transform="translate(510.1406,31.8691)"><path
             d="m 0,0 c -1.77,0 -2.742,-1.437 -2.742,-3.715 0,-2.278 0.972,-3.715 2.742,-3.715 1.785,0 2.758,1.437 2.758,3.715 C 2.758,-1.437 1.785,0 0,0 m 0,-8.953 c -2.626,0 -4.295,2.162 -4.295,5.238 0,3.076 1.669,5.238 4.295,5.238 2.642,0 4.311,-2.162 4.311,-5.238 0,-3.076 -1.669,-5.238 -4.311,-5.238"
             style="fill:#359c3f;fill-opacity:1;fill-rule:nonzero;stroke:none"
             id="path418"
             inkscape:connector-curvature="0" /></g><g
           id="g420"
           transform="translate(519.3867,31.7529)"><path
             d="M 0,0 H -1.248 V -7.197 H 0 c 2.408,0 3.396,1.466 3.396,3.598 C 3.396,-1.466 2.408,0 0,0 M 0,-8.678 H -2.771 V 1.48 H 0 c 2.729,0 4.948,-1.495 4.948,-5.079 0,-3.584 -2.293,-5.079 -4.948,-5.079"
             style="fill:#359c3f;fill-opacity:1;fill-rule:nonzero;stroke:none"
             id="path422"
             inkscape:connector-curvature="0" /></g><g
           id="g424"
           transform="translate(526.4687,23.0752)"><path
             d="M 0,0 V 10.158 H 6.545 V 8.678 H 1.524 V 6.167 H 4.441 V 4.687 H 1.524 V 1.48 H 6.763 V 0 Z"
             style="fill:#359c3f;fill-opacity:1;fill-rule:nonzero;stroke:none"
             id="path426"
             inkscape:connector-curvature="0" /></g><g
           id="g428"
           transform="translate(538.2266,22.916)"><path
             d="m 0,0 c -1.48,0 -2.758,0.639 -3.613,1.64 l 1.088,1.059 c 0.681,-0.74 1.683,-1.205 2.64,-1.205 1.423,0 2.105,0.494 2.105,1.481 0,0.783 -0.595,1.175 -2.292,1.683 -2.149,0.638 -3.179,1.175 -3.179,2.989 0,1.756 1.48,2.83 3.353,2.83 1.378,0 2.422,-0.508 3.322,-1.378 L 2.351,8.01 c -0.639,0.653 -1.365,0.972 -2.366,0.972 -1.19,0 -1.698,-0.581 -1.698,-1.262 0,-0.711 0.465,-1.06 2.221,-1.582 C 2.51,5.528 3.758,4.89 3.758,3.076 3.758,1.248 2.598,0 0,0"
             style="fill:#359c3f;fill-opacity:1;fill-rule:nonzero;stroke:none"
             id="path430"
             inkscape:connector-curvature="0" /></g><g
           id="g432"><g
             id="g434" /><g
             id="g444"><g
               clip-path="url(#clipPath438)"
               id="g442"
               style="opacity:0.10000598"><path
                 d="m 605.5,169 h -405 v 55 h 405 z"
                 style="fill:#0088ce;fill-opacity:1;fill-rule:nonzero;stroke:none"
                 id="path440"
                 inkscape:connector-curvature="0" /></g></g></g><path
           d="m 201.5,170 h 403 v 53 h -403 z m 405,-2 h -407 v 57 h 407 z"
           style="fill:#0088ce;fill-opacity:1;fill-rule:nonzero;stroke:none"
           id="path446"
           inkscape:connector-curvature="0" /><g
           id="g448"><g
             id="g450" /><g
             id="g460"><g
               clip-path="url(#clipPath454)"
               id="g458"
               style="opacity:0.10000598"><path
                 d="m 605.5,77.5 h -568 v 55 h 568 z"
                 style="fill:#359c3f;fill-opacity:1;fill-rule:nonzero;stroke:none"
                 id="path456"
                 inkscape:connector-curvature="0" /></g></g></g><path
           d="m 38.5,78.5 h 566 v 53 h -566 z m 568,-2 h -570 v 57 h 570 z"
           style="fill:#3f9c35;fill-opacity:1;fill-rule:nonzero;stroke:none"
           id="path462"
           inkscape:connector-curvature="0" /><g
           id="g464"><g
             id="g466" /><g
             id="g476"><g
               clip-path="url(#clipPath470)"
               id="g474"
               style="opacity:0.10000598"><path
                 d="M 47,22 H 24 v 14 h 23 z"
                 style="fill:#0088ce;fill-opacity:1;fill-rule:nonzero;stroke:none"
                 id="path472"
                 inkscape:connector-curvature="0" /></g></g></g><path
           d="M 25,23 H 46 V 35 H 25 Z M 48,21 H 23 v 16 h 25 z"
           style="fill:#0088ce;fill-opacity:1;fill-rule:nonzero;stroke:none"
           id="path478"
           inkscape:connector-curvature="0" /><g
           id="g480"><g
             id="g482" /><g
             id="g492"><g
               clip-path="url(#clipPath486)"
               id="g490"
               style="opacity:0.10000598"><path
                 d="m 325,22 h -23 v 14 h 23 z"
                 style="fill:#359c3f;fill-opacity:1;fill-rule:nonzero;stroke:none"
                 id="path488"
                 inkscape:connector-curvature="0" /></g></g></g><path
           d="m 303,23 h 21 v 12 h -21 z m 23,-2 h -25 v 16 h 25 z"
           style="fill:#3f9c35;fill-opacity:1;fill-rule:nonzero;stroke:none"
           id="path494"
           inkscape:connector-curvature="0" /><path
           d="m 191.5,86.5 h -145 v 38 h 145 z"
           style="fill:#ffffff;fill-opacity:1;fill-rule:nonzero;stroke:#c8c8c8;stroke-width:1;stroke-linecap:butt;stroke-linejoin:miter;stroke-miterlimit:10;stroke-dasharray:none;stroke-opacity:1"
           id="path496"
           inkscape:connector-curvature="0" /><path
           d="m 354.5,86.5 h -145 v 38 h 145 z"
           style="fill:#ffffff;fill-opacity:1;fill-rule:nonzero;stroke:#c8c8c8;stroke-width:1;stroke-linecap:butt;stroke-linejoin:miter;stroke-miterlimit:10;stroke-dasharray:none;stroke-opacity:1"
           id="path498"
           inkscape:connector-curvature="0" /><g
           id="g500"
           transform="translate(75.8496,99.8936)"><path
             d="m 0,0 c -2.988,0 -4.887,2.46 -4.887,5.96 0,3.501 1.899,5.961 4.887,5.961 1.882,0 3.137,-0.76 3.929,-2.163 L 2.394,8.8 C 1.799,9.741 1.188,10.187 0,10.187 c -2.015,0 -3.104,-1.634 -3.104,-4.227 0,-2.592 1.089,-4.227 3.104,-4.227 1.205,0 1.948,0.496 2.542,1.437 L 3.979,2.213 C 3.153,0.793 1.75,0 0,0"
             style="fill:#4c4c4c;fill-opacity:1;fill-rule:nonzero;stroke:none"
             id="path502"
             inkscape:connector-curvature="0" /></g><g
           id="g504"
           transform="translate(86.2871,110.0801)"><path
             d="m 0,0 c -2.015,0 -3.121,-1.634 -3.121,-4.227 0,-2.591 1.106,-4.226 3.121,-4.226 2.031,0 3.137,1.635 3.137,4.226 C 3.137,-1.634 2.031,0 0,0 m 0,-10.187 c -2.988,0 -4.887,2.46 -4.887,5.96 0,3.501 1.899,5.961 4.887,5.961 3.005,0 4.903,-2.46 4.903,-5.961 0,-3.5 -1.898,-5.96 -4.903,-5.96"
             style="fill:#4c4c4c;fill-opacity:1;fill-rule:nonzero;stroke:none"
             id="path506"
             inkscape:connector-curvature="0" /></g><g
           id="g508"
           transform="translate(102.2876,100.0752)"><path
             d="M 0,0 V 6.109 C 0,6.803 0.017,7.81 0.033,8.14 -0.099,7.81 -0.429,6.984 -0.71,6.323 L -3.517,-0.182 -6.291,6.323 C -6.571,6.984 -6.901,7.81 -7.033,8.14 -7.017,7.81 -7,6.803 -7,6.109 V 0 h -1.635 v 11.558 h 1.783 L -4.26,5.399 c 0.281,-0.661 0.644,-1.503 0.793,-1.981 0.165,0.478 0.495,1.304 0.776,1.981 l 2.543,6.159 H 1.701 L 1.701,0 Z"
             style="fill:#4c4c4c;fill-opacity:1;fill-rule:nonzero;stroke:none"
             id="path510"
             inkscape:connector-curvature="0" /></g><g
           id="g512"
           transform="translate(111.7998,109.998)"><path
             d="M 0,0 H -3.104 V -3.979 H 0 c 1.321,0 1.981,0.759 1.981,1.998 C 1.981,-0.71 1.206,0 0,0 m -0.083,-5.613 h -3.021 v -4.31 h -1.7 V 1.635 h 4.837 c 2.13,0 3.715,-1.222 3.715,-3.616 0,-2.377 -1.585,-3.632 -3.831,-3.632"
             style="fill:#4c4c4c;fill-opacity:1;fill-rule:nonzero;stroke:none"
             id="path514"
             inkscape:connector-curvature="0" /></g><g
           id="g516"
           transform="translate(122.0386,99.8936)"><path
             d="m 0,0 c -2.856,0 -4.342,1.85 -4.342,5.036 v 6.703 h 1.733 V 5.085 c 0,-2.179 0.908,-3.352 2.642,-3.352 1.816,0 2.675,1.123 2.675,3.237 v 6.769 H 4.441 V 5.003 C 4.441,1.767 2.873,0 0,0"
             style="fill:#4c4c4c;fill-opacity:1;fill-rule:nonzero;stroke:none"
             id="path518"
             inkscape:connector-curvature="0" /></g><g
           id="g520"
           transform="translate(133.7793,109.9316)"><path
             d="M 0,0 V -9.856 H -1.733 V 0 h -3.369 v 1.701 h 8.47 L 3.368,0 Z"
             style="fill:#4c4c4c;fill-opacity:1;fill-rule:nonzero;stroke:none"
             id="path522"
             inkscape:connector-curvature="0" /></g><g
           id="g524"
           transform="translate(139.4277,100.0752)"><path
             d="M 0,0 V 11.558 H 7.446 V 9.873 H 1.733 V 7.017 H 5.052 V 5.333 H 1.733 V 1.685 H 7.694 V 0 Z"
             style="fill:#4c4c4c;fill-opacity:1;fill-rule:nonzero;stroke:none"
             id="path526"
             inkscape:connector-curvature="0" /></g><g
           id="g528"
           transform="translate(154.9004,100.0752)"><path
             d="m 0,0 v 8.85 h -2.047 v 1.205 c 1.189,0.083 2.163,0.478 2.377,1.503 H 1.733 L 1.733,0 Z"
             style="fill:#4c4c4c;fill-opacity:1;fill-rule:nonzero;stroke:none"
             id="path530"
             inkscape:connector-curvature="0" /></g><g
           id="g532"
           transform="translate(162.8096,100.0752)"><path
             d="m 0,0 h -1.75 c 0.066,3.979 1.42,7.083 3.583,9.873 h -6.06 v 1.685 H 3.847 V 9.808 C 1.882,7.611 0.083,4.293 0,0"
             style="fill:#4c4c4c;fill-opacity:1;fill-rule:nonzero;stroke:none"
             id="path534"
             inkscape:connector-curvature="0" /></g><g
           id="g536"
           transform="translate(238.2466,99.8936)"><path
             d="m 0,0 c -2.988,0 -4.887,2.46 -4.887,5.96 0,3.501 1.899,5.961 4.887,5.961 1.882,0 3.137,-0.76 3.929,-2.163 L 2.394,8.8 C 1.799,9.741 1.188,10.187 0,10.187 c -2.014,0 -3.104,-1.634 -3.104,-4.227 0,-2.592 1.09,-4.227 3.104,-4.227 1.205,0 1.948,0.496 2.542,1.437 L 3.979,2.213 C 3.153,0.793 1.75,0 0,0"
             style="fill:#4c4c4c;fill-opacity:1;fill-rule:nonzero;stroke:none"
             id="path538"
             inkscape:connector-curvature="0" /></g><g
           id="g540"
           transform="translate(248.6841,110.0801)"><path
             d="m 0,0 c -2.014,0 -3.121,-1.634 -3.121,-4.227 0,-2.591 1.107,-4.226 3.121,-4.226 2.031,0 3.137,1.635 3.137,4.226 C 3.137,-1.634 2.031,0 0,0 m 0,-10.187 c -2.988,0 -4.887,2.46 -4.887,5.96 0,3.501 1.899,5.961 4.887,5.961 3.004,0 4.903,-2.46 4.903,-5.961 0,-3.5 -1.899,-5.96 -4.903,-5.96"
             style="fill:#4c4c4c;fill-opacity:1;fill-rule:nonzero;stroke:none"
             id="path542"
             inkscape:connector-curvature="0" /></g><g
           id="g544"
           transform="translate(264.6846,100.0752)"><path
             d="M 0,0 V 6.109 C 0,6.803 0.017,7.81 0.033,8.14 -0.099,7.81 -0.429,6.984 -0.71,6.323 L -3.517,-0.182 -6.291,6.323 C -6.571,6.984 -6.901,7.81 -7.033,8.14 -7.017,7.81 -7,6.803 -7,6.109 V 0 h -1.635 v 11.558 h 1.783 L -4.26,5.399 c 0.281,-0.661 0.644,-1.503 0.793,-1.981 0.165,0.478 0.495,1.304 0.776,1.981 l 2.543,6.159 H 1.701 L 1.701,0 Z"
             style="fill:#4c4c4c;fill-opacity:1;fill-rule:nonzero;stroke:none"
             id="path546"
             inkscape:connector-curvature="0" /></g><g
           id="g548"
           transform="translate(274.1968,109.998)"><path
             d="M 0,0 H -3.104 V -3.979 H 0 c 1.321,0 1.981,0.759 1.981,1.998 C 1.981,-0.71 1.206,0 0,0 m -0.083,-5.613 h -3.021 v -4.31 h -1.7 V 1.635 h 4.837 c 2.13,0 3.715,-1.222 3.715,-3.616 0,-2.377 -1.585,-3.632 -3.831,-3.632"
             style="fill:#4c4c4c;fill-opacity:1;fill-rule:nonzero;stroke:none"
             id="path550"
             inkscape:connector-curvature="0" /></g><g
           id="g552"
           transform="translate(284.4355,99.8936)"><path
             d="m 0,0 c -2.856,0 -4.342,1.85 -4.342,5.036 v 6.703 h 1.733 V 5.085 c 0,-2.179 0.908,-3.352 2.642,-3.352 1.816,0 2.675,1.123 2.675,3.237 v 6.769 H 4.441 V 5.003 C 4.441,1.767 2.873,0 0,0"
             style="fill:#4c4c4c;fill-opacity:1;fill-rule:nonzero;stroke:none"
             id="path554"
             inkscape:connector-curvature="0" /></g><g
           id="g556"
           transform="translate(296.1763,109.9316)"><path
             d="M 0,0 V -9.856 H -1.733 V 0 h -3.369 v 1.701 h 8.47 L 3.368,0 Z"
             style="fill:#4c4c4c;fill-opacity:1;fill-rule:nonzero;stroke:none"
             id="path558"
             inkscape:connector-curvature="0" /></g><g
           id="g560"
           transform="translate(301.8247,100.0752)"><path
             d="M 0,0 V 11.558 H 7.446 V 9.873 H 1.733 V 7.017 H 5.052 V 5.333 H 1.733 V 1.685 H 7.694 V 0 Z"
             style="fill:#4c4c4c;fill-opacity:1;fill-rule:nonzero;stroke:none"
             id="path562"
             inkscape:connector-curvature="0" /></g><g
           id="g564"
           transform="translate(317.2974,100.0752)"><path
             d="m 0,0 v 8.85 h -2.047 v 1.205 c 1.189,0.083 2.163,0.478 2.377,1.503 H 1.734 L 1.734,0 Z"
             style="fill:#4c4c4c;fill-opacity:1;fill-rule:nonzero;stroke:none"
             id="path566"
             inkscape:connector-curvature="0" /></g><g
           id="g568"
           transform="translate(326.5273,108.3135)"><path
             d="m 0,0 -2.229,-2.839 c -0.346,-0.446 -0.842,-1.024 -1.089,-1.288 0.396,0 1.271,0.017 1.865,0.017 h 2.444 v 3.368 c 0,0.66 0.05,1.683 0.05,2.113 C 0.826,1.073 0.38,0.479 0,0 M 2.675,-5.646 V -8.238 H 0.991 v 2.543 h -6.258 v 1.65 L 0.694,3.319 H 2.675 V -4.11 H 4.21 v -1.536 z"
             style="fill:#4c4c4c;fill-opacity:1;fill-rule:nonzero;stroke:none"
             id="path570"
             inkscape:connector-curvature="0" /></g><path
           d="m 596.5,86.5 h -145 v 38 h 145 z"
           style="fill:#ffffff;fill-opacity:1;fill-rule:nonzero;stroke:#c8c8c8;stroke-width:1;stroke-linecap:butt;stroke-linejoin:miter;stroke-miterlimit:10;stroke-dasharray:none;stroke-opacity:1"
           id="path572"
           inkscape:connector-curvature="0" /><g
           id="g574"
           transform="translate(480.2881,99.8936)"><path
             d="m 0,0 c -2.988,0 -4.888,2.46 -4.888,5.96 0,3.501 1.9,5.961 4.888,5.961 1.882,0 3.137,-0.76 3.929,-2.163 L 2.394,8.8 C 1.8,9.741 1.188,10.187 0,10.187 c -2.015,0 -3.104,-1.634 -3.104,-4.227 0,-2.592 1.089,-4.227 3.104,-4.227 1.205,0 1.948,0.496 2.542,1.437 L 3.979,2.213 C 3.153,0.793 1.75,0 0,0"
             style="fill:#4c4c4c;fill-opacity:1;fill-rule:nonzero;stroke:none"
             id="path576"
             inkscape:connector-curvature="0" /></g><g
           id="g578"
           transform="translate(490.7256,110.0801)"><path
             d="m 0,0 c -2.015,0 -3.12,-1.634 -3.12,-4.227 0,-2.591 1.105,-4.226 3.12,-4.226 2.03,0 3.137,1.635 3.137,4.226 C 3.137,-1.634 2.03,0 0,0 m 0,-10.187 c -2.988,0 -4.888,2.46 -4.888,5.96 0,3.501 1.9,5.961 4.888,5.961 3.005,0 4.903,-2.46 4.903,-5.961 0,-3.5 -1.898,-5.96 -4.903,-5.96"
             style="fill:#4c4c4c;fill-opacity:1;fill-rule:nonzero;stroke:none"
             id="path580"
             inkscape:connector-curvature="0" /></g><g
           id="g582"
           transform="translate(506.7266,100.0752)"><path
             d="M 0,0 V 6.109 C 0,6.803 0.016,7.81 0.032,8.14 -0.1,7.81 -0.43,6.984 -0.711,6.323 L -3.518,-0.182 -6.291,6.323 C -6.571,6.984 -6.902,7.81 -7.033,8.14 -7.018,7.81 -7.001,6.803 -7.001,6.109 V 0 h -1.634 v 11.558 h 1.783 L -4.26,5.399 c 0.281,-0.661 0.644,-1.503 0.792,-1.981 0.165,0.478 0.495,1.304 0.777,1.981 l 2.543,6.159 H 1.7 L 1.7,0 Z"
             style="fill:#4c4c4c;fill-opacity:1;fill-rule:nonzero;stroke:none"
             id="path584"
             inkscape:connector-curvature="0" /></g><g
           id="g586"
           transform="translate(516.2383,109.998)"><path
             d="M 0,0 H -3.104 V -3.979 H 0 c 1.32,0 1.981,0.759 1.981,1.998 C 1.981,-0.71 1.205,0 0,0 m -0.082,-5.613 h -3.022 v -4.31 H -4.805 V 1.635 h 4.838 c 2.13,0 3.715,-1.222 3.715,-3.616 0,-2.377 -1.585,-3.632 -3.83,-3.632"
             style="fill:#4c4c4c;fill-opacity:1;fill-rule:nonzero;stroke:none"
             id="path588"
             inkscape:connector-curvature="0" /></g><g
           id="g590"
           transform="translate(526.4766,99.8936)"><path
             d="m 0,0 c -2.855,0 -4.342,1.85 -4.342,5.036 v 6.703 h 1.734 V 5.085 c 0,-2.179 0.908,-3.352 2.641,-3.352 1.817,0 2.675,1.123 2.675,3.237 v 6.769 H 4.441 V 5.003 C 4.441,1.767 2.873,0 0,0"
             style="fill:#4c4c4c;fill-opacity:1;fill-rule:nonzero;stroke:none"
             id="path592"
             inkscape:connector-curvature="0" /></g><g
           id="g594"
           transform="translate(538.2178,109.9316)"><path
             d="M 0,0 V -9.856 H -1.733 V 0 h -3.369 v 1.701 h 8.47 L 3.368,0 Z"
             style="fill:#4c4c4c;fill-opacity:1;fill-rule:nonzero;stroke:none"
             id="path596"
             inkscape:connector-curvature="0" /></g><g
           id="g598"
           transform="translate(543.8662,100.0752)"><path
             d="M 0,0 V 11.558 H 7.446 V 9.873 H 1.733 V 7.017 H 5.052 V 5.333 H 1.733 V 1.685 H 7.694 V 0 Z"
             style="fill:#4c4c4c;fill-opacity:1;fill-rule:nonzero;stroke:none"
             id="path600"
             inkscape:connector-curvature="0" /></g><g
           id="g602"
           transform="translate(559.3389,100.0752)"><path
             d="m 0,0 v 8.85 h -2.048 v 1.205 c 1.19,0.083 2.164,0.478 2.378,1.503 H 1.733 V 0 Z"
             style="fill:#4c4c4c;fill-opacity:1;fill-rule:nonzero;stroke:none"
             id="path604"
             inkscape:connector-curvature="0" /></g><g
           id="g606"
           transform="translate(568.0742,110.1299)"><path
             d="m 0,0 c -2.015,0 -2.791,-1.832 -2.791,-4.26 0,-2.427 0.81,-4.292 2.824,-4.292 2.03,0 2.789,1.832 2.789,4.26 C 2.822,-1.865 2.03,0 0,0 m 0,-10.236 c -2.988,0 -4.541,2.443 -4.541,5.944 0,3.5 1.586,5.977 4.574,5.977 2.988,0 4.539,-2.445 4.539,-5.945 0,-3.5 -1.584,-5.976 -4.572,-5.976"
             style="fill:#4c4c4c;fill-opacity:1;fill-rule:nonzero;stroke:none"
             id="path608"
             inkscape:connector-curvature="0" /></g><path
           d="m 354.5,177.5 h -145 v 38 h 145 z"
           style="fill:#ffffff;fill-opacity:1;fill-rule:nonzero;stroke:#c8c8c8;stroke-width:1;stroke-linecap:butt;stroke-linejoin:miter;stroke-miterlimit:10;stroke-dasharray:none;stroke-opacity:1"
           id="path610"
           inkscape:connector-curvature="0" /><g
           id="g612"
           transform="translate(241.3262,190.8936)"><path
             d="m 0,0 c -2.988,0 -4.887,2.46 -4.887,5.96 0,3.5 1.899,5.96 4.887,5.96 1.882,0 3.137,-0.759 3.929,-2.163 L 2.394,8.8 C 1.799,9.741 1.188,10.187 0,10.187 c -2.015,0 -3.104,-1.635 -3.104,-4.227 0,-2.592 1.089,-4.227 3.104,-4.227 1.205,0 1.948,0.496 2.542,1.437 L 3.979,2.212 C 3.153,0.792 1.75,0 0,0"
             style="fill:#4c4c4c;fill-opacity:1;fill-rule:nonzero;stroke:none"
             id="path614"
             inkscape:connector-curvature="0" /></g><g
           id="g616"
           transform="translate(251.7637,201.0801)"><path
             d="m 0,0 c -2.015,0 -3.121,-1.634 -3.121,-4.227 0,-2.591 1.106,-4.226 3.121,-4.226 2.031,0 3.137,1.635 3.137,4.226 C 3.137,-1.634 2.031,0 0,0 m 0,-10.187 c -2.988,0 -4.887,2.46 -4.887,5.96 0,3.501 1.899,5.961 4.887,5.961 3.005,0 4.903,-2.46 4.903,-5.961 0,-3.5 -1.898,-5.96 -4.903,-5.96"
             style="fill:#4c4c4c;fill-opacity:1;fill-rule:nonzero;stroke:none"
             id="path618"
             inkscape:connector-curvature="0" /></g><g
           id="g620"
           transform="translate(267.7642,191.0752)"><path
             d="M 0,0 V 6.109 C 0,6.802 0.017,7.809 0.033,8.14 -0.099,7.809 -0.429,6.984 -0.71,6.323 L -3.517,-0.182 -6.291,6.323 C -6.571,6.984 -6.901,7.809 -7.033,8.14 -7.017,7.809 -7,6.802 -7,6.109 V 0 h -1.635 v 11.557 h 1.783 L -4.26,5.399 c 0.281,-0.661 0.644,-1.503 0.793,-1.982 0.165,0.479 0.495,1.305 0.776,1.982 l 2.543,6.158 H 1.701 L 1.701,0 Z"
             style="fill:#4c4c4c;fill-opacity:1;fill-rule:nonzero;stroke:none"
             id="path622"
             inkscape:connector-curvature="0" /></g><g
           id="g624"
           transform="translate(277.2764,200.9976)"><path
             d="M 0,0 H -3.104 V -3.979 H 0 c 1.321,0 1.981,0.76 1.981,1.998 C 1.981,-0.71 1.206,0 0,0 m -0.083,-5.613 h -3.021 v -4.309 h -1.7 V 1.635 h 4.837 c 2.13,0 3.715,-1.222 3.715,-3.616 0,-2.377 -1.585,-3.632 -3.831,-3.632"
             style="fill:#4c4c4c;fill-opacity:1;fill-rule:nonzero;stroke:none"
             id="path626"
             inkscape:connector-curvature="0" /></g><g
           id="g628"
           transform="translate(287.5151,190.8936)"><path
             d="m 0,0 c -2.856,0 -4.342,1.849 -4.342,5.036 v 6.703 h 1.733 V 5.085 c 0,-2.179 0.908,-3.352 2.642,-3.352 1.816,0 2.675,1.123 2.675,3.237 v 6.769 H 4.441 V 5.002 C 4.441,1.767 2.873,0 0,0"
             style="fill:#4c4c4c;fill-opacity:1;fill-rule:nonzero;stroke:none"
             id="path630"
             inkscape:connector-curvature="0" /></g><g
           id="g632"
           transform="translate(299.2559,200.9316)"><path
             d="M 0,0 V -9.856 H -1.733 V 0 h -3.369 v 1.701 h 8.47 L 3.368,0 Z"
             style="fill:#4c4c4c;fill-opacity:1;fill-rule:nonzero;stroke:none"
             id="path634"
             inkscape:connector-curvature="0" /></g><g
           id="g636"
           transform="translate(304.9043,191.0752)"><path
             d="M 0,0 V 11.557 H 7.446 V 9.873 H 1.733 V 7.017 H 5.052 V 5.333 H 1.733 V 1.684 H 7.694 V 0 Z"
             style="fill:#4c4c4c;fill-opacity:1;fill-rule:nonzero;stroke:none"
             id="path638"
             inkscape:connector-curvature="0" /></g><g
           id="g640"
           transform="translate(322.936,190.8936)"><path
             d="m 0,0 c -1.469,0 -2.79,0.347 -4.028,1.139 l 0.841,1.437 c 0.975,-0.545 2.196,-0.892 3.237,-0.892 1.799,0 2.74,0.875 2.74,2.344 0,1.371 -0.908,2.064 -2.344,2.064 -0.974,0 -1.634,-0.28 -2.229,-0.726 l -1.849,0.726 0.396,5.647 H 3.863 V 10.088 H -1.684 L -1.915,7.166 C -1.271,7.529 -0.462,7.76 0.578,7.76 3.22,7.76 4.557,6.208 4.557,4.111 4.557,1.288 2.675,0 0,0"
             style="fill:#4c4c4c;fill-opacity:1;fill-rule:nonzero;stroke:none"
             id="path642"
             inkscape:connector-curvature="0" /></g><path
           d="m 596.5,177.5 h -145 v 38 h 145 z"
           style="fill:#ffffff;fill-opacity:1;fill-rule:nonzero;stroke:#c8c8c8;stroke-width:1;stroke-linecap:butt;stroke-linejoin:miter;stroke-miterlimit:10;stroke-dasharray:none;stroke-opacity:1"
           id="path644"
           inkscape:connector-curvature="0" /><g
           id="g646"
           transform="translate(483.0703,190.8936)"><path
             d="m 0,0 c -2.988,0 -4.887,2.46 -4.887,5.96 0,3.5 1.899,5.96 4.887,5.96 1.882,0 3.137,-0.759 3.93,-2.163 L 2.394,8.8 C 1.799,9.741 1.188,10.187 0,10.187 c -2.015,0 -3.104,-1.635 -3.104,-4.227 0,-2.592 1.089,-4.227 3.104,-4.227 1.205,0 1.948,0.496 2.543,1.437 L 3.979,2.212 C 3.153,0.792 1.75,0 0,0"
             style="fill:#4c4c4c;fill-opacity:1;fill-rule:nonzero;stroke:none"
             id="path648"
             inkscape:connector-curvature="0" /></g><g
           id="g650"
           transform="translate(493.5078,201.0801)"><path
             d="m 0,0 c -2.015,0 -3.121,-1.634 -3.121,-4.227 0,-2.591 1.106,-4.226 3.121,-4.226 2.031,0 3.137,1.635 3.137,4.226 C 3.137,-1.634 2.031,0 0,0 m 0,-10.187 c -2.988,0 -4.887,2.46 -4.887,5.96 0,3.501 1.899,5.961 4.887,5.961 3.005,0 4.903,-2.46 4.903,-5.961 0,-3.5 -1.898,-5.96 -4.903,-5.96"
             style="fill:#4c4c4c;fill-opacity:1;fill-rule:nonzero;stroke:none"
             id="path652"
             inkscape:connector-curvature="0" /></g><g
           id="g654"
           transform="translate(509.5078,191.0752)"><path
             d="M 0,0 V 6.109 C 0,6.802 0.018,7.809 0.033,8.14 -0.099,7.809 -0.429,6.984 -0.709,6.323 L -3.516,-0.182 -6.29,6.323 C -6.57,6.984 -6.9,7.809 -7.033,8.14 -7.016,7.809 -7,6.802 -7,6.109 V 0 h -1.635 v 11.557 h 1.783 L -4.26,5.399 c 0.281,-0.661 0.645,-1.503 0.793,-1.982 0.165,0.479 0.496,1.305 0.776,1.982 l 2.543,6.158 H 1.701 L 1.701,0 Z"
             style="fill:#4c4c4c;fill-opacity:1;fill-rule:nonzero;stroke:none"
             id="path656"
             inkscape:connector-curvature="0" /></g><g
           id="g658"
           transform="translate(519.0205,200.9976)"><path
             d="M 0,0 H -3.104 V -3.979 H 0 c 1.321,0 1.981,0.76 1.981,1.998 C 1.981,-0.71 1.206,0 0,0 m -0.083,-5.613 h -3.021 v -4.309 h -1.7 V 1.635 h 4.837 c 2.13,0 3.715,-1.222 3.715,-3.616 0,-2.377 -1.585,-3.632 -3.831,-3.632"
             style="fill:#4c4c4c;fill-opacity:1;fill-rule:nonzero;stroke:none"
             id="path660"
             inkscape:connector-curvature="0" /></g><g
           id="g662"
           transform="translate(529.2598,190.8936)"><path
             d="m 0,0 c -2.857,0 -4.343,1.849 -4.343,5.036 v 6.703 h 1.734 V 5.085 c 0,-2.179 0.908,-3.352 2.641,-3.352 1.817,0 2.675,1.123 2.675,3.237 v 6.769 H 4.44 V 5.002 C 4.44,1.767 2.872,0 0,0"
             style="fill:#4c4c4c;fill-opacity:1;fill-rule:nonzero;stroke:none"
             id="path664"
             inkscape:connector-curvature="0" /></g><g
           id="g666"
           transform="translate(541,200.9316)"><path
             d="M 0,0 V -9.856 H -1.733 V 0 h -3.369 v 1.701 h 8.47 L 3.368,0 Z"
             style="fill:#4c4c4c;fill-opacity:1;fill-rule:nonzero;stroke:none"
             id="path668"
             inkscape:connector-curvature="0" /></g><g
           id="g670"
           transform="translate(546.6484,191.0752)"><path
             d="M 0,0 V 11.557 H 7.445 V 9.873 H 1.733 V 7.017 h 3.32 V 5.333 H 1.733 V 1.684 h 5.96 L 7.693,0 Z"
             style="fill:#4c4c4c;fill-opacity:1;fill-rule:nonzero;stroke:none"
             id="path672"
             inkscape:connector-curvature="0" /></g><g
           id="g674"
           transform="translate(565.7041,199.3135)"><path
             d="m 0,0 -2.229,-2.839 c -0.346,-0.446 -0.842,-1.024 -1.09,-1.288 0.396,0 1.271,0.016 1.866,0.016 H 0.99 v 3.368 c 0,0.66 0.05,1.684 0.05,2.114 C 0.825,1.073 0.38,0.479 0,0 M 2.675,-5.646 V -8.238 H 0.99 v 2.542 h -6.257 v 1.651 l 5.96,7.364 h 1.982 v -7.43 H 4.21 v -1.535 z"
             style="fill:#4c4c4c;fill-opacity:1;fill-rule:nonzero;stroke:none"
             id="path676"
             inkscape:connector-curvature="0" /></g></g></g></g></svg>