<?xml version="1.0" encoding="UTF-8" standalone="no"?>
<svg
   xmlns:dc="http://purl.org/dc/elements/1.1/"
   xmlns:cc="http://creativecommons.org/ns#"
   xmlns:rdf="http://www.w3.org/1999/02/22-rdf-syntax-ns#"
   xmlns:svg="http://www.w3.org/2000/svg"
   xmlns="http://www.w3.org/2000/svg"
   xmlns:sodipodi="http://sodipodi.sourceforge.net/DTD/sodipodi-0.dtd"
   xmlns:inkscape="http://www.inkscape.org/namespaces/inkscape"
   inkscape:version="1.0 (4035a4f, 2020-05-01)"
   sodipodi:docname="single-stack.svg"
   version="1.1"
   viewBox="0 0 595.276 470.855"
   height="166.107mm"
   width="210mm"
   data-name="Layer 1"
   id="Layer_1">
  <metadata
     id="metadata531">
    <rdf:RDF>
      <cc:Work
         rdf:about="">
        <dc:format>image/svg+xml</dc:format>
        <dc:type
           rdf:resource="http://purl.org/dc/dcmitype/StillImage" />
        <dc:title></dc:title>
        <dc:subject>
          <rdf:Bag>
            <rdf:li>heat stack</rdf:li>
            <rdf:li>availability zone</rdf:li>
          </rdf:Bag>
        </dc:subject>
      </cc:Work>
    </rdf:RDF>
  </metadata>
  <sodipodi:namedview
     inkscape:current-layer="Layer_1"
     inkscape:window-maximized="0"
     inkscape:window-y="23"
     inkscape:window-x="0"
     inkscape:cy="313.90298"
     inkscape:cx="396.85039"
     inkscape:zoom="0.63122024"
     showgrid="false"
     id="namedview529"
     inkscape:window-height="480"
     inkscape:window-width="987"
     inkscape:pageshadow="2"
     inkscape:pageopacity="0"
     guidetolerance="10"
     gridtolerance="10"
     objecttolerance="10"
     borderopacity="1"
     bordercolor="#666666"
     pagecolor="#ffffff" />
  <defs
     id="defs12">
    <style
       id="style10">
      .cls-1 {
        fill: #e6e6e6;
      }

      .cls-2, .cls-9 {
        fill: #fff;
      }

      .cls-10, .cls-3, .cls-6, .cls-7 {
        fill: none;
      }

      .cls-3 {
        stroke: #a1c2e7;
        stroke-miterlimit: 10;
      }

      .cls-10, .cls-3, .cls-6, .cls-9 {
        stroke-width: 1.5px;
      }

      .cls-4 {
        fill: #a1c2e7;
      }

      .cls-5 {
        fill: #06c;
      }

      .cls-6 {
        stroke: #06c;
        stroke-dasharray: 3;
      }

      .cls-10, .cls-6, .cls-7, .cls-9 {
        stroke-linecap: round;
        stroke-linejoin: round;
      }

      .cls-7 {
        stroke: #151515;
      }

      .cls-8 {
        fill: #151515;
      }

      .cls-10, .cls-9 {
        stroke: #5b5b5b;
      }
    </style>
  </defs>
  <rect
     id="rect14"
     height="440.752"
     width="218.972"
     y="15.302"
     x="17.914"
     class="cls-1" />
  <rect
     id="rect16"
     height="138.567"
     width="217.887"
     y="93.182"
     x="350.321"
     class="cls-1" />
  <rect
     id="rect18"
     height="99.747"
     width="187.491"
     y="109.653"
     x="365.519"
     class="cls-2" />
  <rect
     id="rect20"
     height="158.113"
     width="187.491"
     y="253.79"
     x="33.655"
     class="cls-2" />
  <g
     id="g28">
    <polyline
       id="polyline22"
       points="206.38 176.84 206.38 221.971 57.447 221.971"
       class="cls-3" />
    <polyline
       id="polyline24"
       points="201.867 172.327 201.867 217.458 52.934 217.458"
       class="cls-3" />
    <rect
       id="rect26"
       height="45.131"
       width="148.933"
       y="167.814"
       x="48.42"
       class="cls-4" />
  </g>
  <rect
     id="rect30"
     height="45.131"
     width="148.933"
     y="94.408"
     x="48.42"
     class="cls-2" />
  <rect
     id="rect32"
     height="45.131"
     width="148.933"
     y="30.874"
     x="48.42"
     class="cls-2" />
  <g
     id="g40">
    <polyline
       id="polyline34"
       points="206.38 290.735 206.38 335.866 57.447 335.866"
       class="cls-3" />
    <polyline
       id="polyline36"
       points="201.867 286.222 201.867 331.353 52.934 331.353"
       class="cls-3" />
    <rect
       id="rect38"
       height="45.131"
       width="148.933"
       y="281.709"
       x="48.42"
       class="cls-4" />
  </g>
  <g
     id="g48">
    <polyline
       id="polyline42"
       points="206.38 352.969 206.38 398.1 57.447 398.1"
       class="cls-3" />
    <polyline
       id="polyline44"
       points="201.867 348.456 201.867 393.587 52.934 393.587"
       class="cls-3" />
    <rect
       id="rect46"
       height="45.131"
       width="148.933"
       y="343.943"
       x="48.42"
       class="cls-4" />
  </g>
  <g
     id="g84">
    <path
       id="path50"
       d="M51.464,264.691H52.97l2.936,7.583h-1.4l-.769-2.123h-3.12l-.78,2.123H48.485Zm1.9,4.442L52.19,265.9,51,269.133Z" />
    <path
       id="path52"
       d="M55.212,266.847h1.332l1.506,3.965,1.506-3.965h1.289l-2.232,5.427h-1.18Z" />
    <path
       id="path54"
       d="M61.45,270.714c0-.975.791-1.593,2.07-1.593a3.366,3.366,0,0,1,1.463.336v-.595c0-.715-.413-1.084-1.247-1.084a3.746,3.746,0,0,0-1.581.423l-.434-.889a5.216,5.216,0,0,1,2.254-.552c1.408,0,2.221.715,2.221,1.972v3.542H64.983v-.552a2.27,2.27,0,0,1-1.615.639A1.712,1.712,0,0,1,61.45,270.714Zm2.254.791a1.939,1.939,0,0,0,1.279-.444v-.888a2.8,2.8,0,0,0-1.257-.261c-.694,0-1.127.3-1.127.781C62.6,271.191,63.032,271.505,63.7,271.505Z" />
    <path
       id="path56"
       d="M67.526,264.994a.764.764,0,0,1,1.528,0,.764.764,0,0,1-1.528,0Zm1.376,7.28H67.678v-5.427H68.9Z" />
    <path
       id="path58"
       d="M71.632,272.274H70.408v-7.746l1.224-.206Z" />
    <path
       id="path60"
       d="M72.866,270.714c0-.975.791-1.593,2.07-1.593a3.366,3.366,0,0,1,1.463.336v-.595c0-.715-.413-1.084-1.247-1.084a3.746,3.746,0,0,0-1.581.423l-.434-.889a5.216,5.216,0,0,1,2.254-.552c1.408,0,2.221.715,2.221,1.972v3.542H76.4v-.552a2.27,2.27,0,0,1-1.615.639A1.712,1.712,0,0,1,72.866,270.714Zm2.254.791a1.939,1.939,0,0,0,1.279-.444v-.888a2.8,2.8,0,0,0-1.257-.261c-.694,0-1.127.3-1.127.781C74.015,271.191,74.448,271.505,75.12,271.505Z" />
    <path
       id="path62"
       d="M81.9,272.328a2.019,2.019,0,0,1-1.6-.758v.7h-1.2v-7.746l1.224-.206v3.251a2.114,2.114,0,0,1,1.669-.77,2.6,2.6,0,0,1,2.459,2.763A2.631,2.631,0,0,1,81.9,272.328Zm-1.582-3.889V270.7a1.668,1.668,0,0,0,1.3.6,1.738,1.738,0,0,0,0-3.467A1.6,1.6,0,0,0,80.318,268.439Z" />
    <path
       id="path64"
       d="M85.561,264.994a.764.764,0,0,1,1.527,0,.764.764,0,0,1-1.527,0Zm1.376,7.28H85.712v-5.427h1.225Z" />
    <path
       id="path66"
       d="M89.666,272.274H88.442v-7.746l1.224-.206Z" />
    <path
       id="path68"
       d="M91.02,264.994a.764.764,0,0,1,1.527,0,.764.764,0,0,1-1.527,0Zm1.376,7.28H91.171v-5.427H92.4Z" />
    <path
       id="path70"
       d="M94.573,267.822H93.479v-.975h1.094v-1.5l1.224-.259v1.755h1.517v.975H95.8v2.752c0,.53.206.736.758.736a2.238,2.238,0,0,0,.737-.13v1.029a3.832,3.832,0,0,1-1.051.152c-1.094,0-1.668-.52-1.668-1.517Z" />
    <path
       id="path72"
       d="M99.88,272.307l-2.047-5.46H99.2l1.376,4.03,1.517-4.03h1.332l-2.578,6.315a1.834,1.834,0,0,1-1.928,1.431,2.611,2.611,0,0,1-.618-.076v-1.051a4.583,4.583,0,0,0,.477.043.864.864,0,0,0,.877-.628Z" />
    <path
       id="path74"
       d="M106.346,271.408l4.258-5.645-4.225.033v-1.105h5.871v.866l-4.236,5.645,4.3-.033v1.105h-5.97Z" />
    <path
       id="path76"
       d="M115.748,266.76a2.813,2.813,0,1,1-2.73,2.806A2.71,2.71,0,0,1,115.748,266.76Zm1.517,2.817a1.534,1.534,0,1,0-3.033,0,1.531,1.531,0,1,0,3.033,0Z" />
    <path
       id="path78"
       d="M119.744,266.847h1.224v.888a1.971,1.971,0,0,1,1.723-.975,1.827,1.827,0,0,1,1.875,1.939v3.575h-1.225v-3.228a1.169,1.169,0,0,0-1.191-1.3,1.4,1.4,0,0,0-1.182.65v3.878h-1.224Z" />
    <path
       id="path80"
       d="M128.562,272.383a2.76,2.76,0,0,1-2.763-2.817,2.674,2.674,0,0,1,2.644-2.806,2.6,2.6,0,0,1,2.567,2.8v.3H127a1.658,1.658,0,0,0,1.625,1.485,1.759,1.759,0,0,0,1.289-.51l.8.748A3.137,3.137,0,0,1,128.562,272.383Zm-1.538-3.272h2.827a1.485,1.485,0,0,0-1.419-1.354A1.456,1.456,0,0,0,127.024,269.111Z" />
    <path
       id="path82"
       d="M134.572,272.328l.954-1.159a3.939,3.939,0,0,1-1.029-2.687,3.846,3.846,0,0,1,5.969-3.271l.476-.574h1.138l-.953,1.148a3.925,3.925,0,0,1,1.04,2.7,3.838,3.838,0,0,1-3.835,3.911,3.787,3.787,0,0,1-2.156-.66l-.488.595Zm1.777-2.145,3.348-4.041a2.408,2.408,0,0,0-1.355-.411,2.6,2.6,0,0,0-2.513,2.751A2.953,2.953,0,0,0,136.349,270.183Zm3.965-3.423-3.347,4.03a2.306,2.306,0,0,0,1.375.434,2.57,2.57,0,0,0,2.492-2.742A3,3,0,0,0,140.314,266.76Z" />
  </g>
  <g
     id="g92">
    <polyline
       id="polyline86"
       points="538.244 152.599 538.244 197.731 389.311 197.731"
       class="cls-3" />
    <polyline
       id="polyline88"
       points="533.731 148.086 533.731 193.218 384.798 193.218"
       class="cls-3" />
    <rect
       id="rect90"
       height="45.131"
       width="148.933"
       y="143.573"
       x="380.285"
       class="cls-4" />
  </g>
  <g
     id="g128">
    <path
       id="path94"
       d="M383.329,121.9h1.506l2.937,7.583h-1.4l-.769-2.123h-3.121l-.78,2.123h-1.353Zm1.9,4.442-1.17-3.229-1.193,3.229Z" />
    <path
       id="path96"
       d="M387.076,124.051h1.333l1.506,3.965,1.506-3.965h1.289l-2.232,5.427H389.3Z" />
    <path
       id="path98"
       d="M393.316,127.918c0-.975.791-1.592,2.069-1.592a3.361,3.361,0,0,1,1.463.335v-.595c0-.715-.412-1.084-1.246-1.084a3.753,3.753,0,0,0-1.582.423l-.433-.889a5.226,5.226,0,0,1,2.253-.552c1.408,0,2.221.715,2.221,1.972v3.542h-1.213v-.552a2.268,2.268,0,0,1-1.615.639A1.711,1.711,0,0,1,393.316,127.918Zm2.253.791a1.937,1.937,0,0,0,1.279-.444v-.888a2.8,2.8,0,0,0-1.257-.26c-.693,0-1.127.3-1.127.78C394.464,128.4,394.9,128.709,395.569,128.709Z" />
    <path
       id="path100"
       d="M399.392,122.2a.764.764,0,0,1,1.527,0,.764.764,0,0,1-1.527,0Zm1.376,7.28h-1.224v-5.427h1.224Z" />
    <path
       id="path102"
       d="M403.5,129.478h-1.223v-7.746l1.223-.206Z" />
    <path
       id="path104"
       d="M404.732,127.918c0-.975.791-1.592,2.069-1.592a3.361,3.361,0,0,1,1.463.335v-.595c0-.715-.412-1.084-1.246-1.084a3.753,3.753,0,0,0-1.582.423l-.433-.889a5.226,5.226,0,0,1,2.253-.552c1.408,0,2.221.715,2.221,1.972v3.542h-1.213v-.552a2.268,2.268,0,0,1-1.614.639A1.712,1.712,0,0,1,404.732,127.918Zm2.253.791a1.937,1.937,0,0,0,1.279-.444v-.888a2.8,2.8,0,0,0-1.257-.26c-.693,0-1.127.3-1.127.78C405.88,128.4,406.314,128.709,406.985,128.709Z" />
    <path
       id="path106"
       d="M413.766,129.533a2.018,2.018,0,0,1-1.6-.759v.7h-1.2v-7.746l1.224-.206v3.251a2.113,2.113,0,0,1,1.669-.77,2.605,2.605,0,0,1,2.459,2.763A2.632,2.632,0,0,1,413.766,129.533Zm-1.582-3.89v2.265a1.666,1.666,0,0,0,1.3.595,1.738,1.738,0,0,0,0-3.467A1.6,1.6,0,0,0,412.184,125.643Z" />
    <path
       id="path108"
       d="M417.426,122.2a.764.764,0,0,1,1.527,0,.764.764,0,0,1-1.527,0Zm1.376,7.28h-1.224v-5.427H418.8Z" />
    <path
       id="path110"
       d="M421.531,129.478h-1.223v-7.746l1.223-.206Z" />
    <path
       id="path112"
       d="M422.885,122.2a.764.764,0,0,1,1.527,0,.764.764,0,0,1-1.527,0Zm1.376,7.28h-1.224v-5.427h1.224Z" />
    <path
       id="path114"
       d="M426.438,125.026h-1.094v-.975h1.094v-1.5l1.224-.26v1.755h1.517v.975h-1.517v2.752c0,.53.206.736.759.736a2.233,2.233,0,0,0,.736-.13v1.029a3.825,3.825,0,0,1-1.05.152c-1.1,0-1.669-.52-1.669-1.517Z" />
    <path
       id="path116"
       d="M431.746,129.511l-2.048-5.46h1.366l1.376,4.03,1.516-4.03h1.332l-2.578,6.316a1.835,1.835,0,0,1-1.929,1.43,2.609,2.609,0,0,1-.617-.076V130.67a4.264,4.264,0,0,0,.477.043.866.866,0,0,0,.878-.628Z" />
    <path
       id="path118"
       d="M438.211,128.612l4.258-5.645-4.226.033V121.9h5.872v.867l-4.235,5.644,4.3-.033v1.105h-5.97Z" />
    <path
       id="path120"
       d="M447.613,123.964a2.813,2.813,0,1,1-2.73,2.806A2.711,2.711,0,0,1,447.613,123.964Zm1.517,2.817a1.534,1.534,0,1,0-3.033,0,1.531,1.531,0,1,0,3.033,0Z" />
    <path
       id="path122"
       d="M451.61,124.051h1.224v.888a1.971,1.971,0,0,1,1.723-.975,1.826,1.826,0,0,1,1.874,1.939v3.575h-1.224V126.25a1.169,1.169,0,0,0-1.192-1.3,1.393,1.393,0,0,0-1.181.65v3.878H451.61Z" />
    <path
       id="path124"
       d="M460.427,129.587a2.76,2.76,0,0,1-2.763-2.817,2.674,2.674,0,0,1,2.644-2.806,2.606,2.606,0,0,1,2.568,2.8v.3h-4.009a1.658,1.658,0,0,0,1.625,1.485,1.759,1.759,0,0,0,1.289-.51l.8.748A3.136,3.136,0,0,1,460.427,129.587Zm-1.538-3.272h2.827a1.485,1.485,0,0,0-1.419-1.354A1.457,1.457,0,0,0,458.889,126.315Z" />
    <path
       id="path126"
       d="M468.724,129.478h-1.181V123.13l-1.344.585v-1.051l1.778-.769h.747Z" />
  </g>
  <g
     id="g160">
    <path
       id="path130"
       d="M34.5,434.393h3.7a2.478,2.478,0,1,1,0,4.941H36.363v2.643H34.5Zm1.863,1.539v1.917h1.506c.758,0,1.126-.411,1.126-.963s-.368-.954-1.116-.954Z" />
    <path
       id="path132"
       d="M42.027,436.388h1.755v1.267c.358-.931.856-1.376,1.517-1.376a1.191,1.191,0,0,1,.585.141v1.506a1.91,1.91,0,0,0-.823-.174,1.547,1.547,0,0,0-1.279.693v3.532H42.027Z" />
    <path
       id="path134"
       d="M46.706,434.546a.99.99,0,0,1,.986-.987,1,1,0,0,1,1,.987.992.992,0,0,1-1.983,0Zm1.863,7.431H46.815v-5.589h1.754Z" />
    <path
       id="path136"
       d="M49.934,436.388h1.755v.887a1.92,1.92,0,0,1,1.658-.974,1.656,1.656,0,0,1,1.571,1.04,2.109,2.109,0,0,1,1.831-1.04,1.791,1.791,0,0,1,1.755,1.961v3.715H56.749v-3.369a.836.836,0,0,0-.835-.931.958.958,0,0,0-.812.433v3.867H53.347v-3.369a.836.836,0,0,0-.835-.931,1,1,0,0,0-.823.433v3.867H49.934Z" />
    <path
       id="path138"
       d="M59.563,440.374c0-1.029.8-1.625,2.178-1.625a3.64,3.64,0,0,1,1.3.26v-.455c0-.541-.358-.813-1.1-.813a4.145,4.145,0,0,0-1.571.391l-.607-1.225a6.2,6.2,0,0,1,2.568-.606c1.549,0,2.449.769,2.449,2.1v3.575H63.041v-.487a2.231,2.231,0,0,1-1.549.574A1.74,1.74,0,0,1,59.563,440.374Zm2.47.531a1.915,1.915,0,0,0,1.008-.282v-.715a4.19,4.19,0,0,0-.964-.119c-.574,0-.9.195-.9.553S61.492,440.905,62.033,440.905Z" />
    <path
       id="path140"
       d="M66.094,436.388h1.755v1.267c.358-.931.856-1.376,1.517-1.376a1.194,1.194,0,0,1,.585.141v1.506a1.913,1.913,0,0,0-.823-.174,1.547,1.547,0,0,0-1.279.693v3.532H66.094Z" />
    <path
       id="path142"
       d="M72.388,442.086l-2.059-5.7h1.94L73.384,440l1.279-3.607h1.9l-2.513,6.24a2.3,2.3,0,0,1-2.449,1.744,3.582,3.582,0,0,1-.726-.087v-1.474a3.66,3.66,0,0,0,.52.044.856.856,0,0,0,.91-.563Z" />
    <path
       id="path144"
       d="M79.807,434.393h1.864v5.992H85.43v1.592H79.807Z" />
    <path
       id="path146"
       d="M89.166,436.3a2.893,2.893,0,1,1-2.915,2.892A2.846,2.846,0,0,1,89.166,436.3Zm1.213,2.892a1.225,1.225,0,1,0-2.416,0,1.222,1.222,0,1,0,2.416,0Z" />
    <path
       id="path148"
       d="M97.138,440.016l1.04,1.03a2.941,2.941,0,0,1-2.275,1.04,2.893,2.893,0,1,1,0-5.785,3.025,3.025,0,0,1,2.329,1.029L97.159,438.4a1.459,1.459,0,0,0-1.191-.606,1.4,1.4,0,0,0,.043,2.773A1.351,1.351,0,0,0,97.138,440.016Z" />
    <path
       id="path150"
       d="M98.837,440.374c0-1.029.8-1.625,2.178-1.625a3.64,3.64,0,0,1,1.3.26v-.455c0-.541-.358-.813-1.105-.813a4.145,4.145,0,0,0-1.571.391l-.607-1.225a6.2,6.2,0,0,1,2.568-.606c1.549,0,2.448.769,2.448,2.1v3.575h-1.733v-.487a2.231,2.231,0,0,1-1.549.574A1.74,1.74,0,0,1,98.837,440.374Zm2.47.531a1.915,1.915,0,0,0,1.008-.282v-.715a4.19,4.19,0,0,0-.964-.119c-.575,0-.9.195-.9.553S100.766,440.905,101.307,440.905Z" />
    <path
       id="path152"
       d="M105.943,437.741h-1.084v-1.353h1.084v-1.55l1.755-.358v1.908h1.5v1.353h-1.5v2.167c0,.5.2.672.737.672a2.371,2.371,0,0,0,.715-.119v1.419a4.922,4.922,0,0,1-1.2.174c-1.322,0-2-.608-2-1.8Z" />
    <path
       id="path154"
       d="M110.059,434.546a.991.991,0,0,1,1.982,0,.991.991,0,0,1-1.982,0Zm1.863,7.431h-1.755v-5.589h1.755Z" />
    <path
       id="path156"
       d="M115.951,436.3a2.893,2.893,0,1,1-2.914,2.892A2.846,2.846,0,0,1,115.951,436.3Zm1.214,2.892a1.225,1.225,0,1,0-2.416,0,1.222,1.222,0,1,0,2.416,0Z" />
    <path
       id="path158"
       d="M119.991,436.388h1.755v.909a2.062,2.062,0,0,1,1.766-1,1.806,1.806,0,0,1,1.852,1.906v3.77h-1.755v-3.26a.93.93,0,0,0-.932-1.04,1.128,1.128,0,0,0-.931.465v3.835h-1.755Z" />
  </g>
  <g
     id="g186">
    <path
       id="path162"
       d="M88.223,305.467l.856.823a3.892,3.892,0,1,1,.033-5.135l-.878.867a2.668,2.668,0,1,0-2.037,4.431A2.571,2.571,0,0,0,88.223,305.467Z" />
    <path
       id="path164"
       d="M92.587,302a2.813,2.813,0,1,1-2.729,2.806A2.71,2.71,0,0,1,92.587,302Zm1.517,2.817a1.534,1.534,0,1,0-3.033,0,1.531,1.531,0,1,0,3.033,0Z" />
    <path
       id="path166"
       d="M96.584,302.087h1.224v.866A1.852,1.852,0,0,1,99.422,302a1.706,1.706,0,0,1,1.593,1.051,2,2,0,0,1,1.8-1.051,1.8,1.8,0,0,1,1.776,1.972v3.543h-1.224v-3.283a1.1,1.1,0,0,0-1.094-1.246,1.293,1.293,0,0,0-1.094.639c.011.119.021.228.021.347v3.543H99.975v-3.283a1.1,1.1,0,0,0-1.094-1.246,1.261,1.261,0,0,0-1.073.617v3.912H96.584Z" />
    <path
       id="path168"
       d="M106.072,302.087h1.2v.78a2.045,2.045,0,0,1,1.69-.824,2.6,2.6,0,0,1,2.459,2.763,2.631,2.631,0,0,1-2.545,2.763,2.032,2.032,0,0,1-1.583-.7v2.946h-1.224Zm1.224,1.593v2.264a1.667,1.667,0,0,0,1.3.595,1.737,1.737,0,0,0,0-3.466A1.6,1.6,0,0,0,107.3,303.68Z" />
    <path
       id="path170"
       d="M113.882,305.315a1.169,1.169,0,0,0,1.191,1.3,1.368,1.368,0,0,0,1.192-.671v-3.857h1.224v5.428h-1.224v-.9a1.981,1.981,0,0,1-1.733.986,1.82,1.82,0,0,1-1.874-1.939v-3.575h1.224Z" />
    <path
       id="path172"
       d="M119.666,303.062h-1.095v-.975h1.095v-1.5l1.224-.26v1.755h1.516v.975H120.89v2.752c0,.531.206.736.758.736a2.238,2.238,0,0,0,.737-.13v1.03a3.875,3.875,0,0,1-1.051.151c-1.094,0-1.668-.52-1.668-1.517Z" />
    <path
       id="path174"
       d="M125.916,307.623a2.759,2.759,0,0,1-2.763-2.817A2.674,2.674,0,0,1,125.8,302a2.6,2.6,0,0,1,2.567,2.8v.3h-4.008a1.658,1.658,0,0,0,1.625,1.484,1.762,1.762,0,0,0,1.289-.509l.8.747A3.137,3.137,0,0,1,125.916,307.623Zm-1.538-3.272h2.827A1.484,1.484,0,0,0,125.786,303,1.457,1.457,0,0,0,124.378,304.351Z" />
    <path
       id="path176"
       d="M133.465,299.931l3.954,5.5-.021-5.5h1.224v7.584h-1.16l-4.062-5.656.021,5.656H132.2v-7.584Z" />
    <path
       id="path178"
       d="M142.769,302a2.813,2.813,0,1,1-2.73,2.806A2.71,2.71,0,0,1,142.769,302Zm1.517,2.817a1.534,1.534,0,1,0-3.033,0,1.531,1.531,0,1,0,3.033,0Z" />
    <path
       id="path180"
       d="M150.676,306.788a2.086,2.086,0,0,1-1.668.781,2.777,2.777,0,0,1,.076-5.526,2.073,2.073,0,0,1,1.582.716v-2.991l1.224-.206v7.953h-1.214Zm-1.3-.249a1.625,1.625,0,0,0,1.289-.595v-2.286a1.681,1.681,0,0,0-1.289-.585,1.737,1.737,0,0,0,0,3.466Z" />
    <path
       id="path182"
       d="M155.919,307.623a2.759,2.759,0,0,1-2.763-2.817A2.673,2.673,0,0,1,155.8,302a2.606,2.606,0,0,1,2.568,2.8v.3h-4.009a1.659,1.659,0,0,0,1.625,1.484,1.765,1.765,0,0,0,1.29-.509l.8.747A3.137,3.137,0,0,1,155.919,307.623Zm-1.539-3.272h2.828a1.486,1.486,0,0,0-1.42-1.354A1.458,1.458,0,0,0,154.38,304.351Z" />
    <path
       id="path184"
       d="M159.752,306.063a3.128,3.128,0,0,0,1.744.618c.65,0,1.094-.293,1.094-.727,0-.335-.227-.52-.747-.617l-.964-.162c-1.051-.2-1.571-.683-1.571-1.5,0-1.019.834-1.68,2.1-1.68a3.823,3.823,0,0,1,2.135.65l-.575.8a2.968,2.968,0,0,0-1.635-.52c-.564,0-.932.238-.932.639,0,.347.2.5.769.6l.954.173c1.083.206,1.6.7,1.6,1.517a1.988,1.988,0,0,1-2.21,1.766,3.638,3.638,0,0,1-2.34-.737Z" />
  </g>
  <g
     id="g212">
    <path
       id="path188"
       d="M420.088,167.091l.855.823a3.892,3.892,0,1,1,.033-5.135l-.877.867a2.668,2.668,0,1,0-2.037,4.431A2.573,2.573,0,0,0,420.088,167.091Z" />
    <path
       id="path190"
       d="M424.452,163.624a2.813,2.813,0,1,1-2.73,2.806A2.711,2.711,0,0,1,424.452,163.624Zm1.517,2.817a1.534,1.534,0,1,0-3.033,0,1.531,1.531,0,1,0,3.033,0Z" />
    <path
       id="path192"
       d="M428.448,163.711h1.224v.867a1.85,1.85,0,0,1,1.614-.954,1.707,1.707,0,0,1,1.593,1.051,2,2,0,0,1,1.8-1.051,1.8,1.8,0,0,1,1.777,1.972v3.543H435.23v-3.283a1.1,1.1,0,0,0-1.094-1.246,1.3,1.3,0,0,0-1.1.639c.011.12.023.228.023.347v3.543h-1.225v-3.283a1.1,1.1,0,0,0-1.095-1.246,1.262,1.262,0,0,0-1.072.617v3.912h-1.224Z" />
    <path
       id="path194"
       d="M437.937,163.711h1.2v.78a2.044,2.044,0,0,1,1.69-.824,2.605,2.605,0,0,1,2.459,2.763,2.631,2.631,0,0,1-2.546,2.763,2.031,2.031,0,0,1-1.582-.7v2.946h-1.223Zm1.223,1.593v2.264a1.667,1.667,0,0,0,1.3.595,1.737,1.737,0,0,0,0-3.466A1.594,1.594,0,0,0,439.16,165.3Z" />
    <path
       id="path196"
       d="M445.746,166.939a1.169,1.169,0,0,0,1.192,1.3,1.369,1.369,0,0,0,1.192-.671v-3.857h1.224v5.428H448.13v-.9a1.984,1.984,0,0,1-1.734.986,1.82,1.82,0,0,1-1.874-1.939v-3.575h1.224Z" />
    <path
       id="path198"
       d="M451.529,164.686h-1.093v-.975h1.093v-1.5l1.225-.26v1.755h1.517v.975h-1.517v2.752c0,.531.206.736.759.736a2.233,2.233,0,0,0,.736-.13v1.03a3.864,3.864,0,0,1-1.051.151c-1.094,0-1.669-.52-1.669-1.517Z" />
    <path
       id="path200"
       d="M457.779,169.247a2.759,2.759,0,0,1-2.762-2.817,2.673,2.673,0,0,1,2.643-2.806,2.605,2.605,0,0,1,2.568,2.8v.3H456.22a1.658,1.658,0,0,0,1.625,1.484,1.764,1.764,0,0,0,1.289-.509l.8.747A3.138,3.138,0,0,1,457.779,169.247Zm-1.538-3.272h2.827a1.484,1.484,0,0,0-1.418-1.354A1.459,1.459,0,0,0,456.241,165.975Z" />
    <path
       id="path202"
       d="M465.329,161.555l3.954,5.5-.021-5.5h1.223v7.584h-1.159l-4.062-5.656.021,5.656h-1.223v-7.584Z" />
    <path
       id="path204"
       d="M474.634,163.624a2.813,2.813,0,1,1-2.731,2.806A2.71,2.71,0,0,1,474.634,163.624Zm1.516,2.817a1.534,1.534,0,1,0-3.033,0,1.531,1.531,0,1,0,3.033,0Z" />
    <path
       id="path206"
       d="M482.54,168.412a2.086,2.086,0,0,1-1.668.781,2.777,2.777,0,0,1,.075-5.526,2.07,2.07,0,0,1,1.582.716v-2.991l1.225-.206v7.953H482.54Zm-1.3-.249a1.623,1.623,0,0,0,1.289-.595v-2.286a1.681,1.681,0,0,0-1.289-.585,1.737,1.737,0,0,0,0,3.466Z" />
    <path
       id="path208"
       d="M487.782,169.247a2.759,2.759,0,0,1-2.762-2.817,2.673,2.673,0,0,1,2.643-2.806,2.606,2.606,0,0,1,2.569,2.8v.3h-4.009a1.658,1.658,0,0,0,1.625,1.484,1.764,1.764,0,0,0,1.289-.509l.8.747A3.14,3.14,0,0,1,487.782,169.247Zm-1.538-3.272h2.827a1.484,1.484,0,0,0-1.419-1.354A1.458,1.458,0,0,0,486.244,165.975Z" />
    <path
       id="path210"
       d="M491.616,167.687a3.133,3.133,0,0,0,1.744.618c.651,0,1.095-.293,1.095-.727,0-.335-.227-.52-.748-.617l-.964-.162c-1.051-.2-1.571-.683-1.571-1.5,0-1.019.835-1.68,2.1-1.68a3.819,3.819,0,0,1,2.133.65l-.574.8a2.969,2.969,0,0,0-1.636-.52c-.563,0-.931.238-.931.639,0,.347.195.5.769.6l.953.173c1.083.206,1.6.7,1.6,1.517a1.989,1.989,0,0,1-2.21,1.766,3.641,3.641,0,0,1-2.341-.737Z" />
  </g>
  <g
     id="g232">
    <path
       id="path214"
       d="M366.364,216.351h1.864v5.991h3.759v1.593h-5.623Z" />
    <path
       id="path216"
       d="M375.724,218.258a2.893,2.893,0,1,1-2.914,2.893A2.846,2.846,0,0,1,375.724,218.258Zm1.213,2.893a1.225,1.225,0,1,0-2.415,0,1.222,1.222,0,1,0,2.415,0Z" />
    <path
       id="path218"
       d="M383.7,221.974l1.04,1.029a2.938,2.938,0,0,1-2.274,1.04,2.893,2.893,0,1,1,0-5.785,3.024,3.024,0,0,1,2.329,1.029l-1.072,1.073a1.464,1.464,0,0,0-1.193-.607,1.4,1.4,0,0,0,.044,2.774A1.351,1.351,0,0,0,383.7,221.974Z" />
    <path
       id="path220"
       d="M385.4,222.331c0-1.029.8-1.625,2.177-1.625a3.626,3.626,0,0,1,1.3.261v-.455c0-.542-.357-.813-1.105-.813a4.164,4.164,0,0,0-1.571.39l-.607-1.224a6.184,6.184,0,0,1,2.568-.607c1.549,0,2.449.769,2.449,2.1v3.575h-1.734v-.487a2.229,2.229,0,0,1-1.55.573A1.739,1.739,0,0,1,385.4,222.331Zm2.469.531a1.914,1.914,0,0,0,1.008-.281v-.715a4.193,4.193,0,0,0-.965-.12c-.574,0-.9.195-.9.553S387.323,222.862,387.865,222.862Z" />
    <path
       id="path222"
       d="M392.5,219.7h-1.083v-1.354H392.5V216.8l1.755-.357v1.907h1.5V219.7h-1.5v2.167c0,.5.195.671.737.671a2.367,2.367,0,0,0,.715-.119v1.419a4.859,4.859,0,0,1-1.2.174c-1.322,0-2-.607-2-1.8Z" />
    <path
       id="path224"
       d="M396.616,216.5a.992.992,0,0,1,1.983,0,.992.992,0,0,1-1.983,0Zm1.864,7.432h-1.755v-5.59h1.755Z" />
    <path
       id="path226"
       d="M402.509,218.258a2.893,2.893,0,1,1-2.914,2.893A2.846,2.846,0,0,1,402.509,218.258Zm1.213,2.893a1.225,1.225,0,1,0-2.415,0,1.222,1.222,0,1,0,2.415,0Z" />
    <path
       id="path228"
       d="M406.549,218.345H408.3v.91a2.062,2.062,0,0,1,1.765-1,1.807,1.807,0,0,1,1.853,1.907v3.77h-1.755v-3.261a.931.931,0,0,0-.932-1.04,1.13,1.13,0,0,0-.931.466v3.835h-1.755Z" />
    <path
       id="path230"
       d="M415.442,222.743l3.207-3.174a1.419,1.419,0,0,0,.508-1.008c0-.487-.476-.856-1.116-.856a2.614,2.614,0,0,0-1.917.932l-.932-1.137a4.162,4.162,0,0,1,2.9-1.246c1.614,0,2.686.877,2.686,2.2a2.649,2.649,0,0,1-.986,1.961l-2.188,2.113,3.283-.012v1.42h-5.449Z" />
  </g>
  <g
     id="g262">
    <path
       id="path234"
       d="M494.034,434.316a3.911,3.911,0,1,1,3.911-3.911A3.878,3.878,0,0,1,494.034,434.316Zm-.01-6.165a2.271,2.271,0,1,0,1.993,2.254A2.086,2.086,0,0,0,494.024,428.151Z"
       class="cls-5" />
    <path
       id="path236"
       d="M498.507,428.606h1.906l1.268,3.511,1.278-3.511h1.81l-2.286,5.591h-1.712Z"
       class="cls-5" />
    <path
       id="path238"
       d="M508.061,434.306a2.891,2.891,0,0,1-2.947-2.893,2.8,2.8,0,0,1,2.817-2.9,2.746,2.746,0,0,1,2.752,2.967v.379h-3.846a1.341,1.341,0,0,0,1.311,1.052,1.387,1.387,0,0,0,1.1-.466l1.159.964A3.26,3.26,0,0,1,508.061,434.306Zm-1.224-3.446h2.221a1.166,1.166,0,0,0-1.138-.986A1.11,1.11,0,0,0,506.837,430.86Z"
       class="cls-5" />
    <path
       id="path240"
       d="M511.775,428.606h1.755v1.268c.358-.932.856-1.376,1.517-1.376a1.205,1.205,0,0,1,.585.142v1.5a1.928,1.928,0,0,0-.823-.173,1.548,1.548,0,0,0-1.279.693V434.2h-1.755Z"
       class="cls-5" />
    <path
       id="path242"
       d="M520.278,432.236l1.04,1.029a2.939,2.939,0,0,1-2.274,1.041,2.893,2.893,0,0,1,0-5.786,3.025,3.025,0,0,1,2.329,1.03l-1.072,1.072a1.464,1.464,0,0,0-1.193-.607,1.4,1.4,0,0,0,.044,2.774A1.351,1.351,0,0,0,520.278,432.236Z"
       class="cls-5" />
    <path
       id="path244"
       d="M523.993,434.2h-1.755v-7.746l1.755-.271Z"
       class="cls-5" />
    <path
       id="path246"
       d="M528.023,428.52a2.893,2.893,0,1,1-2.915,2.893A2.845,2.845,0,0,1,528.023,428.52Zm1.212,2.893a1.225,1.225,0,1,0-2.415,0,1.222,1.222,0,1,0,2.415,0Z"
       class="cls-5" />
    <path
       id="path248"
       d="M533.775,431.868a.931.931,0,0,0,.931,1.04,1.131,1.131,0,0,0,.932-.466v-3.836h1.755V434.2h-1.755v-.91a2.065,2.065,0,0,1-1.766,1,1.805,1.805,0,0,1-1.852-1.906v-3.771h1.755Z"
       class="cls-5" />
    <path
       id="path250"
       d="M542.623,433.471a2.109,2.109,0,0,1-1.646.758,2.663,2.663,0,0,1-2.47-2.839,2.7,2.7,0,0,1,2.6-2.816,1.955,1.955,0,0,1,1.5.672v-2.795l1.755-.271V434.2h-1.734Zm-1.061-.694a1.36,1.36,0,0,0,1.04-.443v-1.886a1.425,1.425,0,0,0-1.04-.433,1.382,1.382,0,0,0,0,2.762Z"
       class="cls-5" />
    <path
       id="path252"
       d="M548.526,431.781a4.169,4.169,0,0,0,2.459,1.008c.8,0,1.29-.325,1.29-.791,0-.444-.26-.65-1-.791l-1.614-.282A2.01,2.01,0,0,1,547.8,428.9c0-1.473,1.126-2.394,3.012-2.394a5.146,5.146,0,0,1,3.109,1l-.942,1.354a3.627,3.627,0,0,0-2.265-.835c-.736,0-1.159.3-1.159.715,0,.38.249.586.855.683l1.517.261c1.42.249,2.167.985,2.167,2.144,0,1.474-1.257,2.482-3.239,2.482a5.384,5.384,0,0,1-3.283-1.149Z"
       class="cls-5" />
    <path
       id="path254"
       d="M555.718,429.961h-1.083v-1.355h1.083v-1.549l1.755-.357v1.906h1.5v1.355h-1.5v2.167c0,.5.2.672.737.672a2.4,2.4,0,0,0,.715-.119V434.1a4.859,4.859,0,0,1-1.2.173c-1.323,0-2-.606-2-1.8Z"
       class="cls-5" />
    <path
       id="path256"
       d="M559.683,432.594c0-1.03.8-1.625,2.177-1.625a3.641,3.641,0,0,1,1.3.259v-.455c0-.542-.357-.812-1.105-.812a4.178,4.178,0,0,0-1.571.389l-.607-1.223a6.184,6.184,0,0,1,2.568-.607c1.549,0,2.449.769,2.449,2.1V434.2H563.16v-.487a2.229,2.229,0,0,1-1.55.573A1.739,1.739,0,0,1,559.683,432.594Zm2.469.53a1.909,1.909,0,0,0,1.008-.281v-.715a4.185,4.185,0,0,0-.965-.119c-.574,0-.9.194-.9.552S561.61,433.124,562.152,433.124Z"
       class="cls-5" />
    <path
       id="path258"
       d="M570.092,432.236l1.04,1.029a2.939,2.939,0,0,1-2.274,1.041,2.893,2.893,0,1,1,0-5.786,3.028,3.028,0,0,1,2.329,1.03l-1.073,1.072a1.461,1.461,0,0,0-1.192-.607,1.4,1.4,0,0,0,.044,2.774A1.351,1.351,0,0,0,570.092,432.236Z"
       class="cls-5" />
    <path
       id="path260"
       d="M572.052,426.451l1.755-.271v4.648l1.95-2.222H577.7l-2.275,2.5,2.437,3.088H575.67l-1.863-2.471V434.2h-1.755Z"
       class="cls-5" />
  </g>
  <rect
     id="rect264"
     height="136.904"
     width="217.887"
     y="274.999"
     x="350.321"
     class="cls-1" />
  <rect
     id="rect266"
     height="99.747"
     width="187.491"
     y="289.806"
     x="365.519"
     class="cls-2" />
  <g
     id="g274">
    <polyline
       id="polyline268"
       points="538.244 332.753 538.244 377.884 389.311 377.884"
       class="cls-3" />
    <polyline
       id="polyline270"
       points="533.731 328.24 533.731 373.371 384.798 373.371"
       class="cls-3" />
    <rect
       id="rect272"
       height="45.131"
       width="148.933"
       y="323.727"
       x="380.285"
       class="cls-4" />
  </g>
  <g
     id="g310">
    <path
       id="path276"
       d="M383.329,302.049h1.506l2.937,7.583h-1.4l-.769-2.123h-3.121l-.78,2.123h-1.353Zm1.9,4.442-1.17-3.229-1.193,3.229Z" />
    <path
       id="path278"
       d="M387.076,304.2h1.333l1.506,3.966,1.506-3.966h1.289l-2.232,5.428H389.3Z" />
    <path
       id="path280"
       d="M393.316,308.072c0-.975.791-1.593,2.069-1.593a3.363,3.363,0,0,1,1.463.336v-.595c0-.715-.412-1.084-1.246-1.084a3.753,3.753,0,0,0-1.582.423l-.433-.889a5.212,5.212,0,0,1,2.253-.552c1.408,0,2.221.715,2.221,1.972v3.542h-1.213v-.553a2.265,2.265,0,0,1-1.615.64A1.711,1.711,0,0,1,393.316,308.072Zm2.253.791a1.937,1.937,0,0,0,1.279-.444v-.888a2.8,2.8,0,0,0-1.257-.261c-.693,0-1.127.3-1.127.781C394.464,308.549,394.9,308.863,395.569,308.863Z" />
    <path
       id="path282"
       d="M399.392,302.352a.764.764,0,0,1,1.527,0,.764.764,0,0,1-1.527,0Zm1.376,7.28h-1.224V304.2h1.224Z" />
    <path
       id="path284"
       d="M403.5,309.632h-1.223v-7.746l1.223-.206Z" />
    <path
       id="path286"
       d="M404.732,308.072c0-.975.791-1.593,2.069-1.593a3.363,3.363,0,0,1,1.463.336v-.595c0-.715-.412-1.084-1.246-1.084a3.753,3.753,0,0,0-1.582.423L405,304.67a5.212,5.212,0,0,1,2.253-.552c1.408,0,2.221.715,2.221,1.972v3.542h-1.213v-.553a2.264,2.264,0,0,1-1.614.64A1.712,1.712,0,0,1,404.732,308.072Zm2.253.791a1.937,1.937,0,0,0,1.279-.444v-.888a2.8,2.8,0,0,0-1.257-.261c-.693,0-1.127.3-1.127.781C405.88,308.549,406.314,308.863,406.985,308.863Z" />
    <path
       id="path288"
       d="M413.766,309.686a2.02,2.02,0,0,1-1.6-.758v.7h-1.2v-7.746l1.224-.206v3.251a2.11,2.11,0,0,1,1.669-.77,2.776,2.776,0,0,1-.087,5.525Zm-1.582-3.889v2.264a1.664,1.664,0,0,0,1.3.6,1.738,1.738,0,0,0,0-3.467A1.592,1.592,0,0,0,412.184,305.8Z" />
    <path
       id="path290"
       d="M417.426,302.352a.764.764,0,0,1,1.527,0,.764.764,0,0,1-1.527,0Zm1.376,7.28h-1.224V304.2H418.8Z" />
    <path
       id="path292"
       d="M421.531,309.632h-1.223v-7.746l1.223-.206Z" />
    <path
       id="path294"
       d="M422.885,302.352a.764.764,0,0,1,1.527,0,.764.764,0,0,1-1.527,0Zm1.376,7.28h-1.224V304.2h1.224Z" />
    <path
       id="path296"
       d="M426.438,305.18h-1.094V304.2h1.094v-1.5l1.224-.259V304.2h1.517v.976h-1.517v2.752c0,.53.206.736.759.736a2.233,2.233,0,0,0,.736-.13v1.029a3.825,3.825,0,0,1-1.05.152c-1.1,0-1.669-.52-1.669-1.517Z" />
    <path
       id="path298"
       d="M431.746,309.665,429.7,304.2h1.366l1.376,4.031,1.516-4.031h1.332l-2.578,6.316a1.836,1.836,0,0,1-1.929,1.431,2.609,2.609,0,0,1-.617-.076v-1.051a4.539,4.539,0,0,0,.477.043.866.866,0,0,0,.878-.628Z" />
    <path
       id="path300"
       d="M438.211,308.765l4.258-5.644-4.226.033v-1.105h5.872v.866l-4.235,5.644,4.3-.032v1.105h-5.97Z" />
    <path
       id="path302"
       d="M447.613,304.118a2.813,2.813,0,1,1-2.73,2.806A2.71,2.71,0,0,1,447.613,304.118Zm1.517,2.816a1.534,1.534,0,1,0-3.033,0,1.531,1.531,0,1,0,3.033,0Z" />
    <path
       id="path304"
       d="M451.61,304.2h1.224v.889a1.969,1.969,0,0,1,1.723-.975,1.826,1.826,0,0,1,1.874,1.939v3.575h-1.224V306.4a1.169,1.169,0,0,0-1.192-1.3,1.391,1.391,0,0,0-1.181.65v3.878H451.61Z" />
    <path
       id="path306"
       d="M460.427,309.741a2.76,2.76,0,0,1-2.763-2.817,2.673,2.673,0,0,1,2.644-2.806,2.606,2.606,0,0,1,2.568,2.8v.3h-4.009a1.658,1.658,0,0,0,1.625,1.485,1.763,1.763,0,0,0,1.289-.51l.8.748A3.136,3.136,0,0,1,460.427,309.741Zm-1.538-3.272h2.827a1.485,1.485,0,0,0-1.419-1.354A1.456,1.456,0,0,0,458.889,306.469Z" />
    <path
       id="path308"
       d="M466.352,308.776l3.109-3.25a2.031,2.031,0,0,0,.736-1.43,1.236,1.236,0,0,0-1.386-1.116,2.729,2.729,0,0,0-1.961.932l-.672-.813a3.839,3.839,0,0,1,2.665-1.148c1.484,0,2.5.845,2.5,2.069a2.9,2.9,0,0,1-1.083,2.113l-2.427,2.5,3.65-.022v1.018h-5.134Z" />
  </g>
  <g
     id="g330">
    <path
       id="path312"
       d="M366.364,396.144h1.864v5.991h3.759v1.592h-5.623Z" />
    <path
       id="path314"
       d="M375.724,398.051a2.893,2.893,0,1,1-2.914,2.892A2.846,2.846,0,0,1,375.724,398.051Zm1.213,2.892a1.225,1.225,0,1,0-2.415,0,1.222,1.222,0,1,0,2.415,0Z" />
    <path
       id="path316"
       d="M383.7,401.766l1.04,1.03a2.938,2.938,0,0,1-2.274,1.04,2.893,2.893,0,1,1,0-5.785,3.024,3.024,0,0,1,2.329,1.029l-1.072,1.072a1.465,1.465,0,0,0-1.193-.606,1.4,1.4,0,0,0,.044,2.773A1.348,1.348,0,0,0,383.7,401.766Z" />
    <path
       id="path318"
       d="M385.4,402.124c0-1.029.8-1.625,2.177-1.625a3.644,3.644,0,0,1,1.3.26V400.3c0-.542-.357-.812-1.105-.812a4.178,4.178,0,0,0-1.571.389l-.607-1.224a6.181,6.181,0,0,1,2.568-.606c1.549,0,2.449.769,2.449,2.1v3.575h-1.734v-.487a2.226,2.226,0,0,1-1.55.574A1.74,1.74,0,0,1,385.4,402.124Zm2.469.531a1.915,1.915,0,0,0,1.008-.282v-.715a4.192,4.192,0,0,0-.965-.119c-.574,0-.9.195-.9.553S387.323,402.655,387.865,402.655Z" />
    <path
       id="path320"
       d="M392.5,399.492h-1.083v-1.355H392.5v-1.549l1.755-.358v1.907h1.5v1.355h-1.5v2.166c0,.5.195.672.737.672a2.367,2.367,0,0,0,.715-.119v1.419a4.906,4.906,0,0,1-1.2.173c-1.322,0-2-.606-2-1.8Z" />
    <path
       id="path322"
       d="M396.616,396.3a.992.992,0,0,1,1.983,0,.992.992,0,0,1-1.983,0Zm1.864,7.432h-1.755v-5.59h1.755Z" />
    <path
       id="path324"
       d="M402.509,398.051a2.893,2.893,0,1,1-2.914,2.892A2.846,2.846,0,0,1,402.509,398.051Zm1.213,2.892a1.225,1.225,0,1,0-2.415,0,1.222,1.222,0,1,0,2.415,0Z" />
    <path
       id="path326"
       d="M406.549,398.137H408.3v.91a2.061,2.061,0,0,1,1.765-1,1.806,1.806,0,0,1,1.853,1.906v3.77h-1.755v-3.26a.93.93,0,0,0-.932-1.04,1.129,1.129,0,0,0-.931.465v3.835h-1.755Z" />
    <path
       id="path328"
       d="M418.2,403.836a3.958,3.958,0,0,1-2.99-1.224l1.127-1.04a2.148,2.148,0,0,0,1.842.8c.823,0,1.364-.368,1.364-.932,0-.476-.39-.78-1-.78h-.976v-1.375h.8c.618,0,.986-.314.986-.845s-.509-.932-1.192-.932a2.113,2.113,0,0,0-1.766.866l-1.137-1.028a3.979,3.979,0,0,1,2.968-1.322c1.658,0,2.806.9,2.806,2.188a1.834,1.834,0,0,1-1.43,1.734,1.757,1.757,0,0,1,1.625,1.635C421.237,402.893,419.97,403.836,418.2,403.836Z" />
  </g>
  <g
     id="g356">
    <path
       id="path332"
       d="M420.088,347.245l.855.823a3.892,3.892,0,1,1,.033-5.135l-.877.867a2.668,2.668,0,1,0-2.037,4.431A2.573,2.573,0,0,0,420.088,347.245Z" />
    <path
       id="path334"
       d="M424.452,343.778a2.813,2.813,0,1,1-2.73,2.806A2.711,2.711,0,0,1,424.452,343.778Zm1.517,2.817a1.534,1.534,0,1,0-3.033,0,1.531,1.531,0,1,0,3.033,0Z" />
    <path
       id="path336"
       d="M428.448,343.865h1.224v.866a1.851,1.851,0,0,1,1.614-.953,1.707,1.707,0,0,1,1.593,1.051,2,2,0,0,1,1.8-1.051,1.8,1.8,0,0,1,1.777,1.972v3.542H435.23V346.01a1.1,1.1,0,0,0-1.094-1.246,1.294,1.294,0,0,0-1.1.639c.011.119.023.228.023.347v3.542h-1.225V346.01a1.1,1.1,0,0,0-1.095-1.246,1.262,1.262,0,0,0-1.072.617v3.911h-1.224Z" />
    <path
       id="path338"
       d="M437.937,343.865h1.2v.78a2.044,2.044,0,0,1,1.69-.824,2.605,2.605,0,0,1,2.459,2.763,2.631,2.631,0,0,1-2.546,2.763,2.029,2.029,0,0,1-1.582-.7v2.947h-1.223Zm1.223,1.592v2.265a1.67,1.67,0,0,0,1.3.6,1.738,1.738,0,0,0,0-3.467A1.6,1.6,0,0,0,439.16,345.457Z" />
    <path
       id="path340"
       d="M445.746,347.093a1.169,1.169,0,0,0,1.192,1.3,1.371,1.371,0,0,0,1.192-.671v-3.857h1.224v5.427H448.13v-.9a1.984,1.984,0,0,1-1.734.986,1.82,1.82,0,0,1-1.874-1.939v-3.575h1.224Z" />
    <path
       id="path342"
       d="M451.529,344.84h-1.093v-.975h1.093v-1.5l1.225-.259v1.755h1.517v.975h-1.517v2.752c0,.53.206.736.759.736a2.233,2.233,0,0,0,.736-.13v1.029a3.827,3.827,0,0,1-1.051.152c-1.094,0-1.669-.52-1.669-1.517Z" />
    <path
       id="path344"
       d="M457.779,349.4a2.76,2.76,0,0,1-2.762-2.817,2.673,2.673,0,0,1,2.643-2.806,2.605,2.605,0,0,1,2.568,2.795v.3H456.22a1.658,1.658,0,0,0,1.625,1.485,1.761,1.761,0,0,0,1.289-.51l.8.748A3.138,3.138,0,0,1,457.779,349.4Zm-1.538-3.272h2.827a1.484,1.484,0,0,0-1.418-1.354A1.459,1.459,0,0,0,456.241,346.129Z" />
    <path
       id="path346"
       d="M465.329,341.709l3.954,5.5-.021-5.5h1.223v7.583h-1.159l-4.062-5.655.021,5.655h-1.223v-7.583Z" />
    <path
       id="path348"
       d="M474.634,343.778a2.813,2.813,0,1,1-2.731,2.806A2.71,2.71,0,0,1,474.634,343.778Zm1.516,2.817a1.534,1.534,0,1,0-3.033,0,1.531,1.531,0,1,0,3.033,0Z" />
    <path
       id="path350"
       d="M482.54,348.566a2.086,2.086,0,0,1-1.668.781,2.777,2.777,0,0,1,.075-5.526,2.069,2.069,0,0,1,1.582.715v-2.99l1.225-.206v7.952H482.54Zm-1.3-.249a1.623,1.623,0,0,0,1.289-.6v-2.287a1.684,1.684,0,0,0-1.289-.585,1.738,1.738,0,0,0,0,3.467Z" />
    <path
       id="path352"
       d="M487.782,349.4a2.759,2.759,0,0,1-2.762-2.817,2.673,2.673,0,0,1,2.643-2.806,2.606,2.606,0,0,1,2.569,2.795v.3h-4.009a1.658,1.658,0,0,0,1.625,1.485,1.761,1.761,0,0,0,1.289-.51l.8.748A3.14,3.14,0,0,1,487.782,349.4Zm-1.538-3.272h2.827a1.484,1.484,0,0,0-1.419-1.354A1.458,1.458,0,0,0,486.244,346.129Z" />
    <path
       id="path354"
       d="M491.616,347.841a3.131,3.131,0,0,0,1.744.617c.651,0,1.095-.293,1.095-.726,0-.336-.227-.52-.748-.617l-.964-.162c-1.051-.2-1.571-.683-1.571-1.5,0-1.018.835-1.679,2.1-1.679a3.819,3.819,0,0,1,2.133.65l-.574.8a2.961,2.961,0,0,0-1.636-.52c-.563,0-.931.238-.931.639,0,.347.195.5.769.6l.953.173c1.083.206,1.6.7,1.6,1.517a1.989,1.989,0,0,1-2.21,1.766,3.647,3.647,0,0,1-2.341-.737Z" />
  </g>
  <g
     id="g388">
    <path
       id="path358"
       d="M86.225,191.17l.856.824a3.893,3.893,0,1,1,.032-5.136l-.878.867a2.668,2.668,0,1,0-2.036,4.431A2.571,2.571,0,0,0,86.225,191.17Z" />
    <path
       id="path360"
       d="M90.589,187.7a2.813,2.813,0,1,1-2.73,2.806A2.71,2.71,0,0,1,90.589,187.7Zm1.517,2.817a1.535,1.535,0,1,0-3.034,0,1.532,1.532,0,1,0,3.034,0Z" />
    <path
       id="path362"
       d="M94.586,187.79H95.81v.888a1.969,1.969,0,0,1,1.722-.975,1.827,1.827,0,0,1,1.875,1.939v3.576H98.182v-3.229a1.169,1.169,0,0,0-1.191-1.3,1.392,1.392,0,0,0-1.181.65v3.879H94.586Z" />
    <path
       id="path364"
       d="M101.4,188.765H100.3v-.975H101.4v-1.5l1.224-.26v1.755h1.516v.975h-1.516v2.752c0,.531.2.736.758.736a2.238,2.238,0,0,0,.737-.13v1.03a3.875,3.875,0,0,1-1.051.151c-1.094,0-1.668-.519-1.668-1.517Z" />
    <path
       id="path366"
       d="M105.211,187.79h1.224v1.181a1.61,1.61,0,0,1,1.5-1.279,1.455,1.455,0,0,1,.531.109v1.072a1.719,1.719,0,0,0-.672-.129,1.489,1.489,0,0,0-1.354.9v3.576h-1.224Z" />
    <path
       id="path368"
       d="M111.689,187.7a2.813,2.813,0,1,1-2.73,2.806A2.71,2.71,0,0,1,111.689,187.7Zm1.516,2.817a1.534,1.534,0,1,0-3.033,0,1.531,1.531,0,1,0,3.033,0Z" />
    <path
       id="path370"
       d="M116.909,193.218h-1.224v-7.746l1.224-.207Z" />
    <path
       id="path372"
       d="M119.638,193.218h-1.224v-7.746l1.224-.207Z" />
    <path
       id="path374"
       d="M123.657,193.326a2.759,2.759,0,0,1-2.762-2.817,2.673,2.673,0,0,1,2.643-2.806,2.606,2.606,0,0,1,2.568,2.795v.3H122.1a1.657,1.657,0,0,0,1.625,1.484,1.761,1.761,0,0,0,1.289-.509l.8.747A3.137,3.137,0,0,1,123.657,193.326Zm-1.538-3.272h2.827a1.484,1.484,0,0,0-1.419-1.354A1.457,1.457,0,0,0,122.119,190.054Z" />
    <path
       id="path376"
       d="M127.35,187.79h1.224v1.181a1.611,1.611,0,0,1,1.495-1.279,1.451,1.451,0,0,1,.531.109v1.072a1.718,1.718,0,0,0-.671-.129,1.49,1.49,0,0,0-1.355.9v3.576H127.35Z" />
    <path
       id="path378"
       d="M135.463,185.634l3.955,5.5-.022-5.5h1.224v7.584h-1.159l-4.062-5.656.021,5.656H134.2v-7.584Z" />
    <path
       id="path380"
       d="M144.767,187.7a2.813,2.813,0,1,1-2.73,2.806A2.71,2.71,0,0,1,144.767,187.7Zm1.517,2.817a1.534,1.534,0,1,0-3.033,0,1.531,1.531,0,1,0,3.033,0Z" />
    <path
       id="path382"
       d="M152.674,192.492a2.087,2.087,0,0,1-1.668.78,2.777,2.777,0,0,1,.076-5.526,2.072,2.072,0,0,1,1.582.716v-2.99l1.224-.207v7.953h-1.214Zm-1.3-.249a1.626,1.626,0,0,0,1.289-.6v-2.286a1.684,1.684,0,0,0-1.289-.585,1.738,1.738,0,0,0,0,3.467Z" />
    <path
       id="path384"
       d="M157.917,193.326a2.759,2.759,0,0,1-2.763-2.817A2.673,2.673,0,0,1,157.8,187.7a2.606,2.606,0,0,1,2.568,2.795v.3h-4.008a1.657,1.657,0,0,0,1.625,1.484,1.764,1.764,0,0,0,1.289-.509l.8.747A3.137,3.137,0,0,1,157.917,193.326Zm-1.539-3.272h2.828a1.486,1.486,0,0,0-1.42-1.354A1.458,1.458,0,0,0,156.378,190.054Z" />
    <path
       id="path386"
       d="M161.751,191.766a3.128,3.128,0,0,0,1.744.618c.65,0,1.094-.293,1.094-.726,0-.336-.228-.52-.748-.618l-.964-.163c-1.051-.2-1.571-.682-1.571-1.494,0-1.019.834-1.68,2.1-1.68a3.82,3.82,0,0,1,2.134.65l-.574.8a2.961,2.961,0,0,0-1.636-.52c-.563,0-.932.238-.932.639,0,.347.195.5.77.6l.953.173c1.083.206,1.6.7,1.6,1.517a1.988,1.988,0,0,1-2.21,1.766,3.642,3.642,0,0,1-2.34-.737Z" />
  </g>
  <g
     id="g424">
    <path
       id="path390"
       d="M81.941,117.926l.856.823a3.893,3.893,0,1,1,.033-5.135l-.878.866a2.668,2.668,0,1,0-2.037,4.431A2.57,2.57,0,0,0,81.941,117.926Z" />
    <path
       id="path392"
       d="M86.305,114.459a2.812,2.812,0,1,1-2.73,2.806A2.71,2.71,0,0,1,86.305,114.459Zm1.517,2.816a1.534,1.534,0,1,0-3.033,0,1.531,1.531,0,1,0,3.033,0Z" />
    <path
       id="path394"
       d="M90.3,114.545h1.224v.888a1.97,1.97,0,0,1,1.723-.974,1.826,1.826,0,0,1,1.874,1.939v3.575H93.9v-3.229a1.168,1.168,0,0,0-1.192-1.3,1.389,1.389,0,0,0-1.181.65v3.878H90.3Z" />
    <path
       id="path396"
       d="M97.115,115.52H96.021v-.975h1.094v-1.5l1.224-.26v1.755h1.517v.975H98.339v2.752c0,.531.206.737.758.737a2.264,2.264,0,0,0,.737-.13v1.029a3.831,3.831,0,0,1-1.051.151c-1.094,0-1.668-.519-1.668-1.516Z" />
    <path
       id="path398"
       d="M100.656,118.413c0-.975.791-1.593,2.069-1.593a3.366,3.366,0,0,1,1.463.336v-.6c0-.714-.412-1.083-1.246-1.083a3.761,3.761,0,0,0-1.582.422l-.433-.888a5.212,5.212,0,0,1,2.253-.552c1.409,0,2.221.715,2.221,1.972v3.542h-1.213v-.553a2.263,2.263,0,0,1-1.614.639A1.711,1.711,0,0,1,100.656,118.413Zm2.253.791a1.939,1.939,0,0,0,1.279-.444v-.889a2.811,2.811,0,0,0-1.257-.26c-.693,0-1.127.3-1.127.78C101.8,118.89,102.238,119.2,102.909,119.2Z" />
    <path
       id="path400"
       d="M106.733,112.693a.764.764,0,0,1,1.527,0,.764.764,0,0,1-1.527,0Zm1.375,7.28h-1.224v-5.428h1.224Z" />
    <path
       id="path402"
       d="M109.614,114.545h1.224v.888a1.97,1.97,0,0,1,1.723-.974,1.826,1.826,0,0,1,1.874,1.939v3.575h-1.224v-3.229a1.168,1.168,0,0,0-1.192-1.3,1.389,1.389,0,0,0-1.181.65v3.878h-1.224Z" />
    <path
       id="path404"
       d="M118.431,120.081a2.758,2.758,0,0,1-2.762-2.816,2.673,2.673,0,0,1,2.643-2.806,2.6,2.6,0,0,1,2.567,2.8v.3h-4.008a1.657,1.657,0,0,0,1.625,1.484,1.762,1.762,0,0,0,1.289-.509l.8.748A3.141,3.141,0,0,1,118.431,120.081Zm-1.538-3.272h2.827a1.486,1.486,0,0,0-1.419-1.354A1.457,1.457,0,0,0,116.893,116.809Z" />
    <path
       id="path406"
       d="M122.124,114.545h1.224v1.181a1.61,1.61,0,0,1,1.5-1.278,1.45,1.45,0,0,1,.531.108v1.073a1.719,1.719,0,0,0-.671-.13,1.49,1.49,0,0,0-1.355.9v3.575h-1.224Z" />
    <path
       id="path408"
       d="M128.969,112.39h3.369a2.311,2.311,0,0,1,2.536,2.3,2.155,2.155,0,0,1-1.5,2.08l1.592,3.207H133.53l-1.463-3.034h-1.8v3.034h-1.3Zm1.3,1.094V115.9h1.961a1.213,1.213,0,1,0,0-2.415Z" />
    <path
       id="path410"
       d="M138.339,120.081a2.758,2.758,0,0,1-2.762-2.816,2.673,2.673,0,0,1,2.643-2.806,2.606,2.606,0,0,1,2.568,2.8v.3h-4.009a1.658,1.658,0,0,0,1.625,1.484,1.761,1.761,0,0,0,1.289-.509l.8.748A3.141,3.141,0,0,1,138.339,120.081Zm-1.538-3.272h2.828a1.488,1.488,0,0,0-1.42-1.354A1.458,1.458,0,0,0,136.8,116.809Z" />
    <path
       id="path412"
       d="M141.816,117.254a2.619,2.619,0,0,1,2.535-2.752,2.041,2.041,0,0,1,1.592.737v-.694h1.213v5.612c0,1.4-.91,2.167-2.556,2.167a4.711,4.711,0,0,1-2.178-.52l.434-.91a3.7,3.7,0,0,0,1.69.466c.91,0,1.386-.412,1.386-1.2v-.921a2.106,2.106,0,0,1-1.657.77A2.6,2.6,0,0,1,141.816,117.254Zm2.827,1.733a1.624,1.624,0,0,0,1.289-.6v-2.275a1.684,1.684,0,0,0-1.289-.585,1.619,1.619,0,0,0-1.614,1.723A1.64,1.64,0,0,0,144.643,118.987Z" />
    <path
       id="path414"
       d="M148.509,112.693a.764.764,0,0,1,1.528,0,.764.764,0,0,1-1.528,0Zm1.376,7.28h-1.224v-5.428h1.224Z" />
    <path
       id="path416"
       d="M151.477,118.521a3.123,3.123,0,0,0,1.744.618c.65,0,1.095-.292,1.095-.726,0-.336-.228-.52-.748-.618l-.964-.162c-1.051-.195-1.571-.682-1.571-1.495,0-1.019.834-1.679,2.1-1.679a3.815,3.815,0,0,1,2.135.65l-.575.8a2.962,2.962,0,0,0-1.635-.521c-.564,0-.932.239-.932.64,0,.346.195.5.769.595l.954.174c1.083.206,1.6.7,1.6,1.516a1.988,1.988,0,0,1-2.21,1.766,3.644,3.644,0,0,1-2.34-.736Z" />
    <path
       id="path418"
       d="M157.142,115.52h-1.094v-.975h1.094v-1.5l1.224-.26v1.755h1.517v.975h-1.517v2.752c0,.531.206.737.759.737a2.259,2.259,0,0,0,.736-.13v1.029a3.829,3.829,0,0,1-1.05.151c-1.095,0-1.669-.519-1.669-1.516Z" />
    <path
       id="path420"
       d="M160.954,114.545h1.224v1.181a1.61,1.61,0,0,1,1.5-1.278,1.45,1.45,0,0,1,.531.108v1.073a1.719,1.719,0,0,0-.671-.13,1.49,1.49,0,0,0-1.355.9v3.575h-1.224Z" />
    <path
       id="path422"
       d="M166.706,120.006l-2.048-5.461h1.365l1.376,4.031,1.517-4.031h1.332l-2.578,6.316a1.835,1.835,0,0,1-1.929,1.43,2.6,2.6,0,0,1-.617-.075v-1.051a4.561,4.561,0,0,0,.477.043.864.864,0,0,0,.877-.628Z" />
  </g>
  <g
     id="g446">
    <path
       id="path426"
       d="M97.435,56.548A3.046,3.046,0,0,1,94.25,53.19V48.856h1.3V53.19a1.927,1.927,0,0,0,1.895,2.188c1.149,0,1.886-.856,1.886-2.188V48.856h1.3V53.19A3.066,3.066,0,0,1,97.435,56.548Z" />
    <path
       id="path428"
       d="M102.146,51.012h1.224V51.9a1.968,1.968,0,0,1,1.722-.974,1.827,1.827,0,0,1,1.875,1.939V56.44h-1.225V53.211a1.169,1.169,0,0,0-1.191-1.3,1.392,1.392,0,0,0-1.181.65V56.44h-1.224Z" />
    <path
       id="path430"
       d="M112.328,55.714a2.088,2.088,0,0,1-1.669.78,2.777,2.777,0,0,1,.076-5.525,2.071,2.071,0,0,1,1.582.715v-2.99l1.224-.206V56.44h-1.213Zm-1.3-.249a1.624,1.624,0,0,0,1.289-.6V52.583A1.684,1.684,0,0,0,111.028,52a1.738,1.738,0,0,0,0,3.467Z" />
    <path
       id="path432"
       d="M117.57,56.548a2.759,2.759,0,0,1-2.763-2.817,2.672,2.672,0,0,1,2.644-2.8,2.6,2.6,0,0,1,2.567,2.795v.3H116.01a1.657,1.657,0,0,0,1.625,1.484A1.762,1.762,0,0,0,118.924,55l.8.747A3.137,3.137,0,0,1,117.57,56.548Zm-1.539-3.272h2.828a1.485,1.485,0,0,0-1.419-1.354A1.459,1.459,0,0,0,116.031,53.276Z" />
    <path
       id="path434"
       d="M121.263,51.012h1.224v1.181a1.61,1.61,0,0,1,1.5-1.279,1.472,1.472,0,0,1,.531.109V52.1a1.72,1.72,0,0,0-.672-.13,1.488,1.488,0,0,0-1.354.9V56.44h-1.224Z" />
    <path
       id="path436"
       d="M129.138,54.869l.737.737a2.822,2.822,0,0,1-2.123.942,2.807,2.807,0,0,1,0-5.612,2.923,2.923,0,0,1,2.167.911l-.759.79A1.8,1.8,0,0,0,127.8,52a1.741,1.741,0,0,0,.033,3.467A1.665,1.665,0,0,0,129.138,54.869Z" />
    <path
       id="path438"
       d="M132.149,56.44h-1.225V48.694l1.225-.206Z" />
    <path
       id="path440"
       d="M136.135,50.926a2.812,2.812,0,1,1-2.73,2.805A2.71,2.71,0,0,1,136.135,50.926Zm1.516,2.816a1.534,1.534,0,1,0-3.033,0,1.531,1.531,0,1,0,3.033,0Z" />
    <path
       id="path442"
       d="M141.323,54.241a1.168,1.168,0,0,0,1.192,1.3,1.37,1.37,0,0,0,1.192-.671V51.012h1.224V56.44h-1.224v-.9a1.984,1.984,0,0,1-1.734.986,1.82,1.82,0,0,1-1.874-1.939V51.012h1.224Z" />
    <path
       id="path444"
       d="M150.314,55.714a2.088,2.088,0,0,1-1.669.78,2.777,2.777,0,0,1,.076-5.525,2.071,2.071,0,0,1,1.582.715v-2.99l1.224-.206V56.44h-1.213Zm-1.3-.249a1.624,1.624,0,0,0,1.289-.6V52.583A1.684,1.684,0,0,0,149.014,52a1.738,1.738,0,0,0,0,3.467Z" />
  </g>
  <g
     id="g472">
    <path
       id="path448"
       d="M86,367.439a3.792,3.792,0,0,0,2.545,1.1c1.008,0,1.7-.509,1.7-1.2,0-.618-.368-.9-1.376-1.083l-1.4-.239c-1.311-.238-1.95-.888-1.95-1.928,0-1.365,1.094-2.275,2.795-2.275a5.06,5.06,0,0,1,3.044.986l-.661.975a3.933,3.933,0,0,0-2.427-.878c-.91,0-1.5.455-1.5,1.073,0,.542.336.823,1.17.953l1.343.238c1.528.26,2.242.932,2.242,2.08,0,1.387-1.234,2.373-3.043,2.373a4.78,4.78,0,0,1-3.186-1.224Z" />
    <path
       id="path450"
       d="M93.205,365.056H92.11v-.975h1.095v-1.5l1.224-.26v1.755h1.516v.975H94.429v2.752c0,.531.206.736.758.736a2.238,2.238,0,0,0,.737-.13v1.03a3.876,3.876,0,0,1-1.051.152c-1.094,0-1.668-.521-1.668-1.518Z" />
    <path
       id="path452"
       d="M99.422,363.994a2.813,2.813,0,1,1-2.73,2.806A2.71,2.71,0,0,1,99.422,363.994Zm1.517,2.817a1.535,1.535,0,1,0-3.034,0,1.532,1.532,0,1,0,3.034,0Z" />
    <path
       id="path454"
       d="M103.418,364.081h1.224v1.181a1.611,1.611,0,0,1,1.5-1.279,1.451,1.451,0,0,1,.531.109v1.072a1.736,1.736,0,0,0-.671-.129,1.49,1.49,0,0,0-1.355.9v3.576h-1.224Z" />
    <path
       id="path456"
       d="M107.22,367.949c0-.975.791-1.593,2.069-1.593a3.352,3.352,0,0,1,1.463.336v-.6c0-.715-.412-1.083-1.246-1.083a3.75,3.75,0,0,0-1.582.422l-.433-.888a5.214,5.214,0,0,1,2.253-.553c1.408,0,2.221.715,2.221,1.972v3.543h-1.213v-.553a2.269,2.269,0,0,1-1.614.64A1.712,1.712,0,0,1,107.22,367.949Zm2.253.791a1.935,1.935,0,0,0,1.279-.445v-.888a2.811,2.811,0,0,0-1.257-.26c-.693,0-1.127.3-1.127.78C108.368,368.425,108.8,368.74,109.473,368.74Z" />
    <path
       id="path458"
       d="M113.2,366.789a2.62,2.62,0,0,1,2.535-2.752,2.044,2.044,0,0,1,1.592.737v-.693h1.214v5.612c0,1.4-.91,2.167-2.557,2.167a4.714,4.714,0,0,1-2.178-.52l.434-.91a3.693,3.693,0,0,0,1.69.465c.91,0,1.387-.411,1.387-1.2v-.921a2.106,2.106,0,0,1-1.658.769A2.6,2.6,0,0,1,113.2,366.789Zm2.827,1.734a1.628,1.628,0,0,0,1.29-.6v-2.275a1.685,1.685,0,0,0-1.29-.585,1.619,1.619,0,0,0-1.614,1.722A1.642,1.642,0,0,0,116.026,368.523Z" />
    <path
       id="path460"
       d="M122.558,369.617A2.759,2.759,0,0,1,119.8,366.8a2.674,2.674,0,0,1,2.644-2.806,2.606,2.606,0,0,1,2.567,2.795v.3H121a1.657,1.657,0,0,0,1.625,1.484,1.764,1.764,0,0,0,1.289-.509l.8.747A3.135,3.135,0,0,1,122.558,369.617Zm-1.539-3.272h2.828a1.486,1.486,0,0,0-1.42-1.354A1.458,1.458,0,0,0,121.019,366.345Z" />
    <path
       id="path462"
       d="M130.107,361.925l3.954,5.5-.021-5.5h1.224v7.584H134.1l-4.063-5.656.022,5.656h-1.225v-7.584Z" />
    <path
       id="path464"
       d="M139.411,363.994a2.813,2.813,0,1,1-2.73,2.806A2.71,2.71,0,0,1,139.411,363.994Zm1.517,2.817a1.534,1.534,0,1,0-3.033,0,1.531,1.531,0,1,0,3.033,0Z" />
    <path
       id="path466"
       d="M147.318,368.783a2.09,2.09,0,0,1-1.668.78,2.777,2.777,0,0,1,.076-5.526,2.071,2.071,0,0,1,1.581.716v-2.99l1.224-.206v7.952h-1.213Zm-1.3-.249a1.624,1.624,0,0,0,1.289-.6v-2.286a1.684,1.684,0,0,0-1.289-.585,1.738,1.738,0,0,0,0,3.467Z" />
    <path
       id="path468"
       d="M152.561,369.617A2.759,2.759,0,0,1,149.8,366.8a2.674,2.674,0,0,1,2.644-2.806,2.606,2.606,0,0,1,2.567,2.795v.3H151a1.657,1.657,0,0,0,1.625,1.484,1.764,1.764,0,0,0,1.289-.509l.8.747A3.135,3.135,0,0,1,152.561,369.617Zm-1.539-3.272h2.828a1.486,1.486,0,0,0-1.42-1.354A1.458,1.458,0,0,0,151.022,366.345Z" />
    <path
       id="path470"
       d="M156.394,368.057a3.131,3.131,0,0,0,1.744.618c.65,0,1.095-.293,1.095-.726,0-.336-.228-.52-.748-.618l-.964-.162c-1.051-.195-1.571-.683-1.571-1.5,0-1.019.834-1.68,2.1-1.68a3.823,3.823,0,0,1,2.135.65l-.575.8a2.968,2.968,0,0,0-1.635-.52c-.564,0-.932.238-.932.639,0,.347.195.5.769.6l.954.173c1.083.206,1.6.7,1.6,1.517a1.988,1.988,0,0,1-2.21,1.766,3.638,3.638,0,0,1-2.34-.737Z" />
  </g>
  <polygon
     id="polygon474"
     points="246.478 82.877 246.478 157.582 23.115 157.582 23.115 420.908 231.199 421.788 577.912 420.908 577.912 82.877 246.478 82.877"
     class="cls-6" />
  <g
     id="g480">
    <polyline
       id="polyline476"
       points="293.774 226.079 293.774 162.466 343.145 162.466"
       class="cls-7" />
    <polygon
       id="polygon478"
       points="341.686 167.452 350.322 162.466 341.686 157.479 341.686 167.452"
       class="cls-8" />
  </g>
  <g
     id="g486">
    <polyline
       id="polyline482"
       points="293.774 285.222 293.774 343.943 343.145 343.943"
       class="cls-7" />
    <polygon
       id="polygon484"
       points="341.686 348.929 350.322 343.943 341.686 338.957 341.686 348.929"
       class="cls-8" />
  </g>
  <g
     id="g504">
    <path
       id="path488"
       d="M268.922,271.675h1.32v6.556h4.1v1.145h-5.424Z"
       class="cls-8" />
    <path
       id="path490"
       d="M278.085,279.486a3.869,3.869,0,0,1-2.849-1.155l.814-.76a2.522,2.522,0,0,0,2.024.859c.99,0,1.672-.517,1.672-1.277A1.216,1.216,0,0,0,278.382,276h-.957v-1h.858a1.116,1.116,0,0,0,1.221-1.155,1.329,1.329,0,0,0-1.463-1.221,2.38,2.38,0,0,0-1.914.913l-.814-.759a3.731,3.731,0,0,1,2.772-1.221c1.529,0,2.629.913,2.629,2.156a1.853,1.853,0,0,1-1.5,1.761,1.907,1.907,0,0,1,1.739,1.759C280.957,278.54,279.757,279.486,278.085,279.486Z"
       class="cls-8" />
    <path
       id="path492"
       d="M284.949,271.675h3.421a2.346,2.346,0,0,1,2.574,2.332,2.188,2.188,0,0,1-1.518,2.112l1.618,3.257H289.58L288.1,276.3h-1.826v3.08h-1.32Zm1.32,1.111v2.453h1.991a1.232,1.232,0,1,0,0-2.453Z"
       class="cls-8" />
    <path
       id="path494"
       d="M294.706,273.776a2.856,2.856,0,1,1-2.772,2.85A2.753,2.753,0,0,1,294.706,273.776Zm1.54,2.861a1.558,1.558,0,1,0-3.08,0,1.555,1.555,0,1,0,3.08,0Z"
       class="cls-8" />
    <path
       id="path496"
       d="M299.975,277.142a1.187,1.187,0,0,0,1.21,1.321,1.393,1.393,0,0,0,1.211-.683v-3.916h1.243v5.512H302.4v-.913a2.018,2.018,0,0,1-1.761,1,1.849,1.849,0,0,1-1.9-1.969v-3.631h1.243Z"
       class="cls-8" />
    <path
       id="path498"
       d="M305.849,274.854h-1.112v-.99h1.112v-1.518l1.243-.264v1.782h1.54v.99h-1.54v2.794c0,.539.209.748.769.748a2.27,2.27,0,0,0,.748-.131v1.044a3.86,3.86,0,0,1-1.066.155c-1.111,0-1.694-.529-1.694-1.54Z"
       class="cls-8" />
    <path
       id="path500"
       d="M312.273,279.486a2.8,2.8,0,0,1-2.805-2.86,2.715,2.715,0,0,1,2.684-2.85,2.646,2.646,0,0,1,2.608,2.838v.309h-4.071a1.683,1.683,0,0,0,1.65,1.507,1.793,1.793,0,0,0,1.31-.517l.813.759A3.187,3.187,0,0,1,312.273,279.486Zm-1.562-3.323h2.871a1.508,1.508,0,0,0-1.441-1.375A1.48,1.48,0,0,0,310.711,276.163Z"
       class="cls-8" />
    <path
       id="path502"
       d="M316.024,273.864h1.243v1.2a1.634,1.634,0,0,1,1.518-1.3,1.473,1.473,0,0,1,.539.11v1.089a1.753,1.753,0,0,0-.682-.132,1.514,1.514,0,0,0-1.375.913v3.631h-1.243Z"
       class="cls-8" />
  </g>
  <line
     id="line506"
     y2="246.028"
     x2="273.883"
     y1="246.028"
     x1="236.886"
     class="cls-7" />
  <g
     id="g526">
    <rect
       id="rect508"
       transform="translate(587.161 492.056) rotate(-180)"
       height="40.093"
       width="39.395"
       y="225.981"
       x="273.883"
       class="cls-9" />
    <polyline
       id="polyline510"
       points="297.192 242.353 305.399 234 301.459 234"
       class="cls-10" />
    <line
       id="line512"
       y2="238.009"
       x2="305.399"
       y1="234"
       x1="305.399"
       class="cls-10" />
    <polyline
       id="polyline514"
       points="289.969 249.703 281.762 258.056 281.762 254.047"
       class="cls-10" />
    <line
       id="line516"
       y2="258.056"
       x2="285.702"
       y1="258.056"
       x1="281.762"
       class="cls-10" />
    <polyline
       id="polyline518"
       points="307.04 259.726 297.192 249.703 297.192 253.713"
       class="cls-10" />
    <line
       id="line520"
       y2="249.703"
       x2="301.131"
       y1="249.703"
       x1="297.192"
       class="cls-10" />
    <polyline
       id="polyline522"
       points="280.121 232.33 289.969 242.353 286.03 242.353"
       class="cls-10" />
    <line
       id="line524"
       y2="238.344"
       x2="289.969"
       y1="242.353"
       x1="289.969"
       class="cls-10" />
  </g>
</svg>
