<?xml version="1.0" encoding="utf-8"?>
<!-- Generator: Adobe Illustrator 21.0.2, SVG Export Plug-In . SVG Version: 6.00 Build 0)  -->
<svg version="1.1" id="Layer_1" xmlns="http://www.w3.org/2000/svg" xmlns:xlink="http://www.w3.org/1999/xlink" x="0px" y="0px"
	 width="1506px" height="1063px" viewBox="0 0 1506 1063" style="enable-background:new 0 0 1506 1063;" xml:space="preserve">
<style type="text/css">
	.st0{fill:#F0F0F0;}
	.st1{fill:#4C4C4C;}
	.st2{fill:#FFFFFF;}
	.st3{fill:#0088CE;}
	.st4{fill:#D2D2D2;}
	.st5{opacity:0.25;fill:#0088CE;}
	.st6{fill:none;stroke:#0088CE;stroke-width:3;stroke-miterlimit:10;}
	.st7{fill:none;stroke:#4C4C4C;stroke-width:3;stroke-miterlimit:10;}
</style>
<g>
	<rect class="st0" width="1506" height="1063"/>
</g>
<g>
	<path class="st1" d="M601.9,1029l-5.7-10.1l-3.4,4v6.2h-4.2v-21h4.2v6c0,0.8,0,2.7-0.1,3.3c0.3-0.5,1.1-1.4,1.6-2.1l5.9-7.2h5.1
		l-6.1,7.3l7.7,13.7H601.9z"/>
	<path class="st1" d="M621,1022.5h-9.4c0.1,2.2,1.7,3,3.2,3c1.1,0,2.1-0.4,2.7-1.1l2.9,2.5c-1.3,1.6-3.5,2.5-5.6,2.5
		c-4.5,0-7.4-3.2-7.4-8.2c0-4.8,3-8.2,7-8.2c4.2,0,6.6,3.7,6.6,8.2C621,1021.7,621,1022.2,621,1022.5z M614.2,1016.5
		c-1.5,0-2.4,1.2-2.6,2.8h5.4C616.9,1017.9,616.1,1016.5,614.2,1016.5z"/>
	<path class="st1" d="M630.5,1034.5h-4.1l2.1-5.5l-6.1-15.7h4.6l2.6,7.6c0.4,1.2,0.8,2.7,1,3.5c0.2-0.8,0.6-2.2,1-3.5l2.6-7.6h4.4
		L630.5,1034.5z"/>
	<path class="st1" d="M657.5,1029.3c-1.4,0-2.6-0.5-3.3-1.2v4.6l-4.1,2.1v-21.5h4.1v1c0.8-0.7,1.8-1.3,3.3-1.3
		c3.4,0,6.1,2.5,6.1,8.4C663.6,1026,661.4,1029.3,657.5,1029.3z M656.7,1016.8c-1.3,0-2,0.5-2.5,1.3v5.9c0.6,0.9,1.6,1.3,2.8,1.3
		c1.6,0,2.5-1.4,2.5-4C659.4,1018.2,658.4,1016.8,656.7,1016.8z"/>
	<path class="st1" d="M675.3,1029v-1c-0.8,0.8-2.1,1.4-3.5,1.4c-2.9,0-5.9-1.8-5.9-5.6c0-3.5,2.8-5.2,6.4-5.2c1.4,0,2.4,0.3,3,0.6
		v-0.8c0-1.1-0.8-2-2.2-2c-1.9,0-2.9,0.3-4.3,1l-1.6-2.9c1.8-1,3.4-1.6,5.9-1.6c3.8,0,6.4,2,6.4,5.5v10.6H675.3z M675.3,1022.4
		c-0.7-0.5-1.4-0.7-2.9-0.7c-1.6,0-2.4,0.7-2.4,2c0,1.1,0.6,2.1,2.4,2.1c1.3,0,2.4-0.7,2.9-1.4V1022.4z"/>
	<path class="st1" d="M685.6,1012c-1.3,0-2.4-1.1-2.4-2.4s1.1-2.4,2.4-2.4s2.4,1.1,2.4,2.4S686.9,1012,685.6,1012z M683.5,1029
		v-15.7h4.1v15.7H683.5z"/>
	<path class="st1" d="M701,1018.1c-0.7-0.6-1.5-1-2.4-1c-1.6,0-2.7,0.7-2.7,3.4v8.5h-4.1v-15.7h4.1v1c0.7-0.8,1.8-1.4,3.2-1.4
		c1.4,0,2.4,0.5,2.9,1.1L701,1018.1z"/>
	<path class="st1" d="M722,1029v-1c-0.8,0.8-2.1,1.4-3.5,1.4c-2.9,0-5.9-1.8-5.9-5.6c0-3.5,2.8-5.2,6.4-5.2c1.4,0,2.4,0.3,3,0.6
		v-0.8c0-1.1-0.8-2-2.2-2c-1.9,0-2.9,0.3-4.3,1l-1.6-2.9c1.8-1,3.4-1.6,5.9-1.6c3.8,0,6.4,2,6.4,5.5v10.6H722z M722,1022.4
		c-0.7-0.5-1.4-0.7-2.9-0.7c-1.6,0-2.4,0.7-2.4,2c0,1.1,0.6,2.1,2.4,2.1c1.3,0,2.4-0.7,2.9-1.4V1022.4z"/>
	<path class="st1" d="M739.4,1029v-1c-0.7,0.8-2,1.4-3.7,1.4c-4,0-5.8-2.8-5.8-7.2v-8.9h4.1v8.5c0,2.8,1,3.7,2.7,3.7
		s2.7-0.8,2.7-3.6v-8.6h4.1v15.7H739.4z"/>
	<path class="st1" d="M756.3,1028.4c-0.7,0.5-1.9,1-3.2,1c-2.5,0-4.2-2-4.2-4.7v-7.4h-2.6v-3.9h2.6v-4l4.1-2.1v6.1h3.8v3.9h-3.8v6.3
		c0,1.5,0.5,1.9,1.5,1.9c0.8,0,1.3-0.3,2.3-1.2L756.3,1028.4z"/>
	<path class="st1" d="M770.3,1029v-8.5c0-2.8-1-3.7-2.7-3.7s-2.7,0.8-2.7,3.6v8.6h-4.1v-19.8l4.1-2.1v7.2c0.7-0.8,2-1.4,3.7-1.4
		c4,0,5.8,2.8,5.8,7.2v8.9H770.3z"/>
	<path class="st1" d="M791.1,1022.5h-9.4c0.2,2.2,1.7,3,3.2,3c1.1,0,2.1-0.4,2.7-1.1l2.9,2.5c-1.3,1.6-3.5,2.5-5.6,2.5
		c-4.5,0-7.4-3.2-7.4-8.2c0-4.8,3-8.2,7-8.2c4.2,0,6.6,3.7,6.6,8.2C791.2,1021.7,791.1,1022.2,791.1,1022.5z M784.3,1016.5
		c-1.5,0-2.4,1.2-2.6,2.8h5.4C787,1017.9,786.2,1016.5,784.3,1016.5z"/>
	<path class="st1" d="M804,1029v-8.5c0-2.8-1-3.7-2.7-3.7s-2.7,0.8-2.7,3.6v8.6h-4.1v-15.7h4.1v1c0.7-0.8,2-1.4,3.7-1.4
		c4,0,5.8,2.8,5.8,7.2v8.9H804z"/>
	<path class="st1" d="M820.6,1028.4c-0.7,0.5-1.9,1-3.2,1c-2.5,0-4.2-2-4.2-4.7v-7.4h-2.6v-3.9h2.6v-4l4.1-2.1v6.1h3.8v3.9h-3.8v6.3
		c0,1.5,0.5,1.9,1.5,1.9c0.8,0,1.3-0.3,2.3-1.2L820.6,1028.4z"/>
	<path class="st1" d="M827.3,1012c-1.3,0-2.4-1.1-2.4-2.4s1.1-2.4,2.4-2.4c1.3,0,2.4,1.1,2.4,2.4S828.6,1012,827.3,1012z
		 M825.3,1029v-15.7h4.1v15.7H825.3z"/>
	<path class="st1" d="M840.1,1029.3c-4.1,0-7.4-3.4-7.4-8.2c0-4.8,3.2-8.2,7.6-8.2c3,0,4.9,1.5,6.2,3.5l-2.7,2.8
		c-0.9-1.3-1.9-2.2-3.6-2.2c-2,0-3.3,1.7-3.3,4.2c0,2.5,1.3,4.2,3.3,4.2c1.6,0,2.6-0.7,3.7-2l2.6,2.5
		C845.1,1027.9,843.3,1029.3,840.1,1029.3z"/>
	<path class="st1" d="M858.2,1029v-1c-0.8,0.8-2.1,1.4-3.5,1.4c-2.9,0-5.9-1.8-5.9-5.6c0-3.5,2.8-5.2,6.4-5.2c1.4,0,2.4,0.3,3,0.6
		v-0.8c0-1.1-0.8-2-2.2-2c-1.9,0-2.9,0.3-4.3,1l-1.6-2.9c1.8-1,3.4-1.6,5.9-1.6c3.8,0,6.4,2,6.4,5.5v10.6H858.2z M858.2,1022.4
		c-0.7-0.5-1.4-0.7-2.9-0.7c-1.6,0-2.4,0.7-2.4,2c0,1.1,0.6,2.1,2.4,2.1c1.3,0,2.4-0.7,2.9-1.4V1022.4z"/>
	<path class="st1" d="M875,1028.4c-0.7,0.5-1.9,1-3.2,1c-2.5,0-4.2-2-4.2-4.7v-7.4h-2.6v-3.9h2.6v-4l4.1-2.1v6.1h3.8v3.9h-3.8v6.3
		c0,1.5,0.5,1.9,1.5,1.9c0.8,0,1.3-0.3,2.3-1.2L875,1028.4z"/>
	<path class="st1" d="M881.7,1012c-1.3,0-2.4-1.1-2.4-2.4s1.1-2.4,2.4-2.4s2.4,1.1,2.4,2.4S883,1012,881.7,1012z M879.6,1029v-15.7
		h4.1v15.7H879.6z"/>
	<path class="st1" d="M894.2,1029.3c-4.1,0-7.1-3.4-7.1-8.2c0-4.8,3-8.2,7.1-8.2c4.1,0,7.1,3.4,7.1,8.2
		C901.4,1026,898.3,1029.3,894.2,1029.3z M894.2,1016.9c-2,0-2.9,1.8-2.9,4.2c0,2.4,0.9,4.2,2.9,4.2c2,0,2.9-2,2.9-4.2
		C897.2,1018.7,896.2,1016.9,894.2,1016.9z"/>
	<path class="st1" d="M914.1,1029v-8.5c0-2.8-1-3.7-2.7-3.7s-2.7,0.8-2.7,3.6v8.6h-4.1v-15.7h4.1v1c0.7-0.8,2-1.4,3.7-1.4
		c4,0,5.8,2.8,5.8,7.2v8.9H914.1z"/>
</g>
<rect x="45.5" y="47.7" class="st2" width="702" height="913.8"/>
<rect x="758.5" y="47.5" class="st2" width="702" height="913.8"/>
<rect x="45.5" y="909" class="st3" width="702" height="52.5"/>
<rect x="758.5" y="909" class="st3" width="702" height="52.5"/>
<rect x="1171.4" y="335.8" class="st0" width="269" height="128.4"/>
<rect x="613.5" y="94.1" class="st4" width="269" height="128.4"/>
<rect x="827" y="547" class="st0" width="269" height="128.4"/>
<rect x="62" y="93.4" class="st5" width="269" height="128.4"/>
<rect x="331" y="547.3" class="st5" width="269" height="128.4"/>
<rect x="331" y="721" class="st5" width="269" height="128.4"/>
<g>
	<path class="st2" d="M374.2,945.4c-5.1,0-8.5-3.4-8.5-9.5v-11.8h4.2v11.7c0,3.4,1.6,5.5,4.3,5.5s4.3-2.1,4.3-5.4v-11.8h4.2v11.7
		C382.8,941.9,379.6,945.4,374.2,945.4z"/>
	<path class="st2" d="M393,945.4c-2.5,0-4.9-0.7-6.6-1.8l1.4-3.1c1.7,0.9,3.4,1.4,5.5,1.4c1.6,0,2.1-0.4,2.1-1.2
		c0-0.7-0.6-1.1-2.3-1.6c-3.8-1.1-6.2-2.1-6.2-5.4c0-3.3,2.6-4.7,6.3-4.7c2,0,4.1,0.6,5.8,1.5l-1.3,3.3c-1.6-0.8-3.3-1.3-4.6-1.3
		c-1.7,0-2.1,0.3-2.1,1c0,0.7,0.5,0.9,3.3,1.8c2.8,0.9,5.2,2,5.2,5.1C399.5,944.2,396.6,945.4,393,945.4z"/>
	<path class="st2" d="M415.6,938.6h-9.4c0.1,2.2,1.7,3,3.2,3c1.1,0,2.1-0.4,2.7-1.1l2.9,2.5c-1.3,1.6-3.5,2.5-5.6,2.5
		c-4.5,0-7.4-3.2-7.4-8.2c0-4.8,3-8.2,7-8.2c4.2,0,6.6,3.7,6.6,8.2C415.7,937.9,415.6,938.3,415.6,938.6z M408.8,932.6
		c-1.5,0-2.4,1.2-2.6,2.8h5.4C411.5,934,410.7,932.6,408.8,932.6z"/>
	<path class="st2" d="M428.2,934.2c-0.7-0.6-1.5-1-2.4-1c-1.6,0-2.7,0.7-2.7,3.4v8.5H419v-15.7h4.1v1c0.7-0.8,1.8-1.4,3.2-1.4
		c1.4,0,2.4,0.5,2.9,1.1L428.2,934.2z"/>
</g>
<g>
	<path class="st1" d="M180.3,151.4c-2.4,0-4.6-1.1-6-2.7l1.8-1.8c1.1,1.2,2.8,2,4.4,2c2.4,0,3.5-0.8,3.5-2.4c0-1.3-1-1.9-3.8-2.8
		c-3.6-1.1-5.3-1.9-5.3-4.9c0-2.9,2.4-4.7,5.5-4.7c2.3,0,4,0.8,5.5,2.3l-1.8,1.8c-1.1-1.1-2.3-1.6-3.9-1.6c-2,0-2.8,1-2.8,2.1
		c0,1.2,0.8,1.8,3.7,2.6c3.3,1,5.4,2.1,5.4,5.1C186.5,149.3,184.6,151.4,180.3,151.4z"/>
	<path class="st1" d="M195,151.4c-2.4,0-4.6-1.1-6-2.7l1.8-1.8c1.1,1.2,2.8,2,4.4,2c2.4,0,3.5-0.8,3.5-2.4c0-1.3-1-1.9-3.8-2.8
		c-3.6-1.1-5.3-1.9-5.3-4.9c0-2.9,2.4-4.7,5.5-4.7c2.3,0,4,0.8,5.5,2.3l-1.8,1.8c-1.1-1.1-2.3-1.6-3.9-1.6c-2,0-2.8,1-2.8,2.1
		c0,1.2,0.8,1.8,3.7,2.6c3.3,1,5.4,2.1,5.4,5.1C201.2,149.3,199.3,151.4,195,151.4z"/>
	<path class="st1" d="M215.2,151.1v-7.5h-7.7v7.5H205v-16.8h2.5v6.8h7.7v-6.8h2.5v16.8H215.2z"/>
	<path class="st1" d="M141.5,173.7h-4.4v6.3h-2.5v-16.8h7c3.1,0,5.4,1.8,5.4,5.3C147.1,171.8,144.8,173.7,141.5,173.7z M141.6,165.5
		h-4.5v5.8h4.5c1.9,0,2.9-1.1,2.9-2.9C144.5,166.5,143.4,165.5,141.6,165.5z"/>
	<path class="st1" d="M156.8,169.9c-0.5-0.3-1.1-0.5-1.9-0.5c-1.6,0-2.5,1.1-2.5,3.2v7.2h-2.5v-12.6h2.5v1.2
		c0.6-0.8,1.6-1.5,2.9-1.5c1,0,1.6,0.2,2.1,0.5L156.8,169.9z"/>
	<path class="st1" d="M161.3,165.7c-0.9,0-1.6-0.7-1.6-1.6c0-0.9,0.7-1.6,1.6-1.6c0.9,0,1.6,0.7,1.6,1.6
		C162.9,165,162.2,165.7,161.3,165.7z M160.1,179.9v-12.6h2.5v12.6H160.1z"/>
	<path class="st1" d="M172.3,179.9h-2.5l-4.5-12.6h2.6l2.3,6.8c0.4,1.2,0.8,2.4,0.9,3.1c0.1-0.7,0.5-1.9,0.9-3.1l2.2-6.8h2.6
		L172.3,179.9z"/>
	<path class="st1" d="M185.9,179.9v-1.2c-0.9,0.9-2.1,1.5-3.5,1.5c-2,0-4.4-1.2-4.4-4.2c0-2.8,2.2-4.1,5-4.1c1.2,0,2.1,0.2,2.8,0.5
		v-0.9c0-1.4-0.8-2.1-2.4-2.1c-1.3,0-2.3,0.2-3.3,0.8l-1-1.9c1.2-0.7,2.5-1.1,4.3-1.1c2.8,0,4.7,1.4,4.7,4.2v8.6H185.9z
		 M185.9,174.5c-0.7-0.3-1.5-0.6-2.9-0.6c-1.6,0-2.6,0.7-2.6,1.9c0,1.2,0.8,2.1,2.4,2.1c1.3,0,2.5-0.8,3-1.6V174.5z"/>
	<path class="st1" d="M197.9,179.6c-0.6,0.3-1.4,0.6-2.4,0.6c-1.8,0-2.8-1.1-2.8-3.3v-7.3h-1.8v-2.3h1.8v-3.6l2.4-1.3v4.9h3.1v2.3
		h-3.1v6.8c0,1.2,0.4,1.5,1.3,1.5c0.6,0,1.4-0.2,1.8-0.5L197.9,179.6z"/>
	<path class="st1" d="M211.2,174.5h-8.3c0.3,2.4,1.6,3.5,3.2,3.5c1.1,0,1.9-0.4,2.7-1l1.5,1.6c-1.1,1.1-2.4,1.7-4.3,1.7
		c-3,0-5.4-2.4-5.4-6.6c0-4.3,2.3-6.6,5.5-6.6c3.6,0,5.3,2.9,5.3,6.3C211.3,173.8,211.2,174.2,211.2,174.5z M205.8,169.3
		c-1.7,0-2.7,1.2-2.9,3.2h5.9C208.7,170.7,207.8,169.3,205.8,169.3z"/>
	<path class="st1" d="M231.6,179.9l-4.8-8.6l-3.1,3.8v4.8h-2.4v-16.8h2.4v5.8c0,0.6,0,2.4,0,3c0.3-0.4,1.4-1.8,1.9-2.5l5-6.2h2.9
		l-4.9,6.1l6,10.7H231.6z"/>
	<path class="st1" d="M246.4,174.5h-8.3c0.3,2.4,1.6,3.5,3.2,3.5c1.1,0,1.9-0.4,2.7-1l1.5,1.6c-1.1,1.1-2.4,1.7-4.3,1.7
		c-3,0-5.4-2.4-5.4-6.6c0-4.3,2.3-6.6,5.5-6.6c3.6,0,5.3,2.9,5.3,6.3C246.5,173.8,246.4,174.2,246.4,174.5z M241,169.3
		c-1.7,0-2.7,1.2-2.9,3.2h5.9C243.9,170.7,243.1,169.3,241,169.3z"/>
	<path class="st1" d="M253.4,184.4h-2.6l1.8-4.7l-4.6-12.4h2.7l2.1,6.2c0.4,1.1,1,3,1.1,3.7c0.2-0.7,0.7-2.5,1.1-3.6l2.1-6.2h2.6
		L253.4,184.4z"/>
</g>
<g>
	<path class="st1" d="M731.8,152c-2.4,0-4.6-1.1-6-2.7l1.8-1.8c1.1,1.2,2.8,2,4.4,2c2.4,0,3.5-0.8,3.5-2.4c0-1.3-1-1.9-3.8-2.8
		c-3.6-1.1-5.3-1.9-5.3-4.9c0-2.9,2.4-4.7,5.5-4.7c2.3,0,4,0.8,5.5,2.3l-1.8,1.8c-1.1-1.1-2.3-1.6-3.9-1.6c-2,0-2.8,1-2.8,2.1
		c0,1.2,0.8,1.8,3.7,2.6c3.3,1,5.4,2.1,5.4,5.1C738,150,736.1,152,731.8,152z"/>
	<path class="st1" d="M746.4,152c-2.4,0-4.6-1.1-6-2.7l1.8-1.8c1.1,1.2,2.8,2,4.4,2c2.4,0,3.5-0.8,3.5-2.4c0-1.3-1-1.9-3.8-2.8
		c-3.6-1.1-5.3-1.9-5.3-4.9c0-2.9,2.4-4.7,5.5-4.7c2.3,0,4,0.8,5.5,2.3l-1.8,1.8c-1.1-1.1-2.3-1.6-3.9-1.6c-2,0-2.8,1-2.8,2.1
		c0,1.2,0.8,1.8,3.7,2.6c3.3,1,5.4,2.1,5.4,5.1C752.7,150,750.7,152,746.4,152z"/>
	<path class="st1" d="M766.7,151.8v-7.5h-7.7v7.5h-2.5v-16.8h2.5v6.8h7.7v-6.8h2.5v16.8H766.7z"/>
	<path class="st1" d="M693.7,180.8c-4.3,0-7.1-3.6-7.1-8.7c0-5.1,2.8-8.7,7.1-8.7c2.7,0,4.6,1.1,5.7,3.1l-2.2,1.4
		c-0.9-1.4-1.8-2-3.5-2c-2.9,0-4.5,2.4-4.5,6.1c0,3.8,1.6,6.1,4.5,6.1c1.8,0,2.8-0.7,3.7-2.1l2.1,1.4
		C698.3,179.7,696.3,180.8,693.7,180.8z"/>
	<path class="st1" d="M707.2,180.8c-3.2,0-5.5-2.6-5.5-6.6c0-4.1,2.4-6.6,5.6-6.6c3.2,0,5.6,2.6,5.6,6.5
		C712.9,178.4,710.5,180.8,707.2,180.8z M707.2,170c-1.9,0-3,1.7-3,4.2c0,2.8,1.3,4.3,3.1,4.3c1.9,0,3.1-1.9,3.1-4.2
		C710.4,171.7,709.2,170,707.2,170z"/>
	<path class="st1" d="M723.6,180.6v-7.1c0-2.5-1-3.5-2.6-3.5c-1.7,0-2.6,1.2-2.6,3.2v7.4H716v-12.6h2.5v1.2c0.6-0.9,1.9-1.5,3.2-1.5
		c2.9,0,4.5,1.9,4.5,5.6v7.2H723.6z"/>
	<path class="st1" d="M737.3,180.6v-7.1c0-2.5-1-3.5-2.6-3.5c-1.7,0-2.6,1.2-2.6,3.2v7.4h-2.5v-12.6h2.5v1.2
		c0.6-0.9,1.9-1.5,3.2-1.5c2.9,0,4.5,1.9,4.5,5.6v7.2H737.3z"/>
	<path class="st1" d="M753.5,175.1h-8.3c0.3,2.4,1.6,3.5,3.2,3.5c1.1,0,1.9-0.4,2.7-1l1.5,1.6c-1.1,1.1-2.4,1.7-4.3,1.7
		c-3,0-5.4-2.4-5.4-6.6c0-4.3,2.3-6.6,5.5-6.6c3.6,0,5.3,2.9,5.3,6.3C753.5,174.5,753.5,174.9,753.5,175.1z M748.1,169.9
		c-1.7,0-2.7,1.2-2.9,3.2h5.9C750.9,171.4,750.1,169.9,748.1,169.9z"/>
	<path class="st1" d="M764.5,171.6c-1-1.1-1.9-1.5-3.1-1.5c-1.8,0-3,1.6-3,4.2c0,2.5,1.1,4.2,3,4.2c1.2,0,1.9-0.5,2.9-1.6l1.6,1.6
		c-1,1.2-2.2,2.4-4.5,2.4c-3.1,0-5.4-2.6-5.4-6.5c0-4.2,2.4-6.6,5.5-6.6c1.8,0,3.3,0.7,4.5,2.1L764.5,171.6z"/>
	<path class="st1" d="M775.2,180.2c-0.6,0.3-1.4,0.6-2.4,0.6c-1.8,0-2.8-1.1-2.8-3.3v-7.3h-1.8v-2.3h1.8v-3.6l2.4-1.3v4.9h3.1v2.3
		h-3.1v6.8c0,1.2,0.4,1.5,1.3,1.5c0.6,0,1.4-0.2,1.8-0.5L775.2,180.2z"/>
	<path class="st1" d="M780.2,166.3c-0.9,0-1.6-0.7-1.6-1.6c0-0.9,0.7-1.6,1.6-1.6c0.9,0,1.6,0.7,1.6,1.6
		C781.8,165.6,781,166.3,780.2,166.3z M778.9,180.6v-12.6h2.5v12.6H778.9z"/>
	<path class="st1" d="M790.1,180.8c-3.2,0-5.5-2.6-5.5-6.6c0-4.1,2.4-6.6,5.6-6.6c3.2,0,5.6,2.6,5.6,6.5
		C795.8,178.4,793.4,180.8,790.1,180.8z M790.1,170c-1.9,0-3,1.7-3,4.2c0,2.8,1.3,4.3,3.1,4.3c1.9,0,3.1-1.9,3.1-4.2
		C793.3,171.7,792.1,170,790.1,170z"/>
	<path class="st1" d="M806.5,180.6v-7.1c0-2.5-1-3.5-2.6-3.5c-1.7,0-2.6,1.2-2.6,3.2v7.4h-2.5v-12.6h2.5v1.2
		c0.6-0.9,1.9-1.5,3.2-1.5c2.9,0,4.5,1.9,4.5,5.6v7.2H806.5z"/>
</g>
<g>
	<path class="st1" d="M852.5,393.7c-4.3,0-7.1-3.6-7.1-8.7c0-5.1,2.8-8.7,7.1-8.7c2.7,0,4.6,1.1,5.7,3.1l-2.2,1.4
		c-0.9-1.4-1.8-2-3.5-2c-2.9,0-4.5,2.4-4.5,6.1c0,3.8,1.6,6.1,4.5,6.1c1.8,0,2.8-0.7,3.7-2.1l2.1,1.4
		C857.1,392.6,855,393.7,852.5,393.7z"/>
	<path class="st1" d="M869.2,393.5v-7.1c0-2.5-1-3.5-2.6-3.5c-1.7,0-2.6,1.2-2.6,3.2v7.4h-2.5v-16.2l2.5-1.3v6.1
		c0.6-0.9,1.9-1.5,3.2-1.5c2.9,0,4.5,1.9,4.5,5.6v7.2H869.2z"/>
	<path class="st1" d="M885.4,388H877c0.3,2.4,1.6,3.5,3.2,3.5c1.1,0,1.9-0.4,2.7-1l1.5,1.6c-1.1,1.1-2.4,1.7-4.3,1.7
		c-3,0-5.4-2.4-5.4-6.6c0-4.3,2.3-6.6,5.5-6.6c3.6,0,5.3,2.9,5.3,6.3C885.4,387.4,885.4,387.8,885.4,388z M880,382.8
		c-1.7,0-2.7,1.2-2.9,3.2h5.9C882.8,384.3,882,382.8,880,382.8z"/>
	<path class="st1" d="M896.4,384.5c-1-1.1-1.9-1.5-3.1-1.5c-1.8,0-3,1.6-3,4.2c0,2.5,1.1,4.2,3,4.2c1.2,0,1.9-0.5,2.9-1.6l1.6,1.6
		c-1,1.2-2.2,2.4-4.5,2.4c-3.1,0-5.4-2.6-5.4-6.5c0-4.2,2.4-6.6,5.5-6.6c1.8,0,3.3,0.7,4.5,2.1L896.4,384.5z"/>
	<path class="st1" d="M908.2,393.5l-2.8-6.3l-1.9,2.5v3.7H901v-16.2l2.5-1.3v7.9c0,0.8,0,2.1,0,2.7c0.3-0.5,1-1.5,1.4-2.1l2.6-3.7
		h2.8l-3.2,4.2l3.8,8.4H908.2z"/>
	<path class="st1" d="M917.4,393.7c-1.7,0-3.6-0.7-4.8-1.6l1.1-1.9c1.2,0.8,2.5,1.2,3.7,1.2c1.6,0,2.3-0.5,2.3-1.4
		c0-1-1.1-1.4-2.9-2.1c-2.7-1.1-3.7-2-3.7-4c0-2.3,1.8-3.4,4.3-3.4c1.6,0,3.1,0.6,4.3,1.4l-1.1,1.9c-1-0.7-2.1-1.1-3.3-1.1
		c-1.2,0-1.7,0.5-1.7,1.2c0,0.6,0.4,1.1,2.3,1.8c2.8,1.1,4.2,1.8,4.2,4.2C922.2,392.8,919.9,393.7,917.4,393.7z"/>
	<path class="st1" d="M937.4,393.7c-1.3,0-2.5-0.7-3.2-1.4v4.5l-2.4,1.3v-17.2h2.4v1.2c0.9-0.8,2-1.5,3.3-1.5c2.7,0,4.8,2,4.8,6.8
		C942.4,391.7,940,393.7,937.4,393.7z M937.1,382.9c-1.2,0-2.2,0.8-2.9,1.6v5.3c0.6,0.7,1.7,1.7,3,1.7c1.8,0,2.7-1.3,2.7-4
		C939.9,384.3,938.9,382.9,937.1,382.9z"/>
	<path class="st1" d="M953.1,393.5v-1.2c-0.6,0.9-1.9,1.5-3.2,1.5c-2.9,0-4.5-1.9-4.5-5.6v-7.2h2.5v7.1c0,2.5,1,3.5,2.6,3.5
		c1.7,0,2.6-1.2,2.6-3.2v-7.4h2.5v12.6H953.1z"/>
	<path class="st1" d="M964.8,393.7c-1.3,0-2.5-0.7-3.2-1.4v1.2h-2.4v-16.2l2.4-1.3v6.1c0.9-0.8,2-1.5,3.3-1.5c2.7,0,4.8,2,4.8,6.8
		C969.8,391.7,967.4,393.7,964.8,393.7z M964.5,382.9c-1.2,0-2.2,0.8-2.9,1.6v5.3c0.6,0.7,1.7,1.7,3,1.7c1.8,0,2.7-1.3,2.7-4
		C967.3,384.3,966.3,382.9,964.5,382.9z"/>
	<path class="st1" d="M973,393.5v-16.2l2.5-1.3v17.5H973z"/>
	<path class="st1" d="M980.6,379.2c-0.9,0-1.6-0.7-1.6-1.6c0-0.9,0.7-1.6,1.6-1.6c0.9,0,1.6,0.7,1.6,1.6
		C982.2,378.5,981.4,379.2,980.6,379.2z M979.3,393.5v-12.6h2.5v12.6H979.3z"/>
	<path class="st1" d="M993.5,384.5c-1-1.1-1.9-1.5-3.1-1.5c-1.8,0-3,1.6-3,4.2c0,2.5,1.1,4.2,3,4.2c1.2,0,1.9-0.5,2.9-1.6l1.6,1.6
		c-1,1.2-2.2,2.4-4.5,2.4c-3.1,0-5.4-2.6-5.4-6.5c0-4.2,2.4-6.6,5.5-6.6c1.8,0,3.3,0.7,4.5,2.1L993.5,384.5z"/>
	<path class="st1" d="M1011.8,393.5l-2.8-6.3l-1.9,2.5v3.7h-2.5v-16.2l2.5-1.3v7.9c0,0.8,0,2.1,0,2.7c0.3-0.5,1-1.5,1.4-2.1l2.6-3.7
		h2.8l-3.2,4.2l3.8,8.4H1011.8z"/>
	<path class="st1" d="M1026.8,388h-8.3c0.3,2.4,1.6,3.5,3.2,3.5c1.1,0,1.9-0.4,2.7-1l1.5,1.6c-1.1,1.1-2.4,1.7-4.3,1.7
		c-3,0-5.4-2.4-5.4-6.6c0-4.3,2.3-6.6,5.5-6.6c3.6,0,5.3,2.9,5.3,6.3C1026.9,387.4,1026.9,387.8,1026.8,388z M1021.4,382.8
		c-1.7,0-2.7,1.2-2.9,3.2h5.9C1024.3,384.3,1023.5,382.8,1021.4,382.8z"/>
	<path class="st1" d="M1033.8,397.9h-2.6l1.8-4.7l-4.6-12.4h2.7l2.1,6.2c0.4,1.1,1,3,1.1,3.7c0.2-0.7,0.7-2.5,1.1-3.6l2.1-6.2h2.6
		L1033.8,397.9z"/>
	<path class="st1" d="M1046.4,393.7c-1.7,0-3.6-0.7-4.8-1.6l1.1-1.9c1.2,0.8,2.5,1.2,3.7,1.2c1.6,0,2.3-0.5,2.3-1.4
		c0-1-1.1-1.4-2.9-2.1c-2.7-1.1-3.7-2-3.7-4c0-2.3,1.8-3.4,4.3-3.4c1.6,0,3.1,0.6,4.3,1.4l-1.1,1.9c-1-0.7-2.1-1.1-3.3-1.1
		c-1.2,0-1.7,0.5-1.7,1.2c0,0.6,0.4,1.1,2.3,1.8c2.8,1.1,4.2,1.8,4.2,4.2C1051.1,392.8,1048.9,393.7,1046.4,393.7z"/>
	<path class="st1" d="M1062.1,379.2c-0.9,0-1.6-0.7-1.6-1.6c0-0.9,0.7-1.6,1.6-1.6c0.9,0,1.6,0.7,1.6,1.6
		C1063.7,378.5,1063,379.2,1062.1,379.2z M1060.9,393.5v-12.6h2.5v12.6H1060.9z"/>
	<path class="st1" d="M1074.8,393.5v-7.1c0-2.5-1-3.5-2.6-3.5c-1.7,0-2.6,1.2-2.6,3.2v7.4h-2.5v-12.6h2.5v1.2
		c0.6-0.9,1.9-1.5,3.2-1.5c2.9,0,4.5,1.9,4.5,5.6v7.2H1074.8z"/>
	<path class="st1" d="M846.2,422.5c-1.7,0-3.6-0.7-4.8-1.6l1.1-1.9c1.2,0.8,2.5,1.2,3.7,1.2c1.6,0,2.3-0.5,2.3-1.4
		c0-1-1.1-1.4-2.9-2.1c-2.7-1.1-3.7-2-3.7-4c0-2.3,1.8-3.4,4.3-3.4c1.6,0,3.1,0.6,4.3,1.4l-1.1,1.9c-1-0.7-2.1-1.1-3.3-1.1
		c-1.2,0-1.7,0.5-1.7,1.2c0,0.6,0.4,1.1,2.3,1.8c2.8,1.1,4.2,1.8,4.2,4.2C851,421.6,848.7,422.5,846.2,422.5z"/>
	<path class="st1" d="M858,422.5c-1.7,0-3.6-0.7-4.8-1.6l1.1-1.9c1.2,0.8,2.5,1.2,3.7,1.2c1.6,0,2.3-0.5,2.3-1.4
		c0-1-1.1-1.4-2.9-2.1c-2.7-1.1-3.7-2-3.7-4c0-2.3,1.8-3.4,4.3-3.4c1.6,0,3.1,0.6,4.3,1.4l-1.1,1.9c-1-0.7-2.1-1.1-3.3-1.1
		c-1.2,0-1.7,0.5-1.7,1.2c0,0.6,0.4,1.1,2.3,1.8c2.8,1.1,4.2,1.8,4.2,4.2C862.7,421.6,860.4,422.5,858,422.5z"/>
	<path class="st1" d="M873.5,422.3v-7.1c0-2.5-1-3.5-2.6-3.5c-1.7,0-2.6,1.2-2.6,3.2v7.4h-2.5v-16.2l2.5-1.3v6.1
		c0.6-0.9,1.9-1.5,3.2-1.5c2.9,0,4.5,1.9,4.5,5.6v7.2H873.5z"/>
	<path class="st1" d="M880.6,424.4h-2.5l7.5-21.1h2.5L880.6,424.4z"/>
	<path class="st1" d="M895.3,422.3V421c-0.9,0.9-2.1,1.5-3.5,1.5c-2,0-4.4-1.2-4.4-4.2c0-2.8,2.2-4.1,5-4.1c1.2,0,2.1,0.2,2.8,0.5
		v-0.9c0-1.4-0.8-2.1-2.4-2.1c-1.3,0-2.3,0.2-3.3,0.8l-1-1.9c1.2-0.7,2.5-1.1,4.3-1.1c2.8,0,4.7,1.4,4.7,4.2v8.6H895.3z
		 M895.3,416.9c-0.7-0.3-1.5-0.6-2.9-0.6c-1.6,0-2.6,0.7-2.6,1.9c0,1.2,0.8,2.1,2.4,2.1c1.3,0,2.5-0.8,3-1.6V416.9z"/>
	<path class="st1" d="M908.8,422.3v-1.2c-0.6,0.9-1.9,1.5-3.2,1.5c-2.9,0-4.5-1.9-4.5-5.6v-7.2h2.5v7.1c0,2.5,1,3.5,2.6,3.5
		c1.7,0,2.6-1.2,2.6-3.2v-7.4h2.5v12.6H908.8z"/>
	<path class="st1" d="M920.9,422c-0.6,0.3-1.4,0.6-2.4,0.6c-1.8,0-2.8-1.1-2.8-3.3v-7.3h-1.8v-2.3h1.8v-3.6l2.4-1.3v4.9h3.1v2.3
		h-3.1v6.8c0,1.2,0.4,1.5,1.3,1.5c0.6,0,1.4-0.2,1.8-0.5L920.9,422z"/>
	<path class="st1" d="M932.2,422.3v-7.1c0-2.5-1-3.5-2.6-3.5c-1.7,0-2.6,1.2-2.6,3.2v7.4h-2.5v-16.2l2.5-1.3v6.1
		c0.6-0.9,1.9-1.5,3.2-1.5c2.9,0,4.5,1.9,4.5,5.6v7.2H932.2z"/>
	<path class="st1" d="M943.2,422.5c-3.2,0-5.5-2.6-5.5-6.6c0-4.1,2.4-6.6,5.6-6.6c3.2,0,5.6,2.6,5.6,6.5
		C948.9,420.1,946.4,422.5,943.2,422.5z M943.2,411.8c-1.9,0-3,1.7-3,4.2c0,2.8,1.3,4.3,3.1,4.3s3.1-1.9,3.1-4.2
		C946.4,413.4,945.2,411.8,943.2,411.8z"/>
	<path class="st1" d="M958.8,412.3c-0.5-0.3-1.1-0.5-1.9-0.5c-1.6,0-2.5,1.1-2.5,3.2v7.2h-2.5v-12.6h2.5v1.2
		c0.6-0.8,1.6-1.5,2.9-1.5c1,0,1.6,0.2,2.1,0.5L958.8,412.3z"/>
	<path class="st1" d="M963.3,408c-0.9,0-1.6-0.7-1.6-1.6c0-0.9,0.7-1.6,1.6-1.6c0.9,0,1.6,0.7,1.6,1.6
		C964.9,407.3,964.2,408,963.3,408z M962.1,422.3v-12.6h2.5v12.6H962.1z"/>
	<path class="st1" d="M967.9,422.3v-2l5.4-6.6c0.5-0.6,1.2-1.4,1.5-1.8c-0.5,0-1.6,0-2.3,0h-4.2v-2.2h9.2v2l-5.3,6.6
		c-0.5,0.6-1.2,1.5-1.5,1.8c0.5,0,1.7,0,2.3,0h4.5v2.2H967.9z"/>
	<path class="st1" d="M990.7,416.8h-8.3c0.3,2.4,1.6,3.5,3.2,3.5c1.1,0,1.9-0.4,2.7-1l1.5,1.6c-1.1,1.1-2.4,1.7-4.3,1.7
		c-3,0-5.4-2.4-5.4-6.6c0-4.3,2.3-6.6,5.5-6.6c3.6,0,5.3,2.9,5.3,6.3C990.8,416.2,990.8,416.6,990.7,416.8z M985.3,411.6
		c-1.7,0-2.7,1.2-2.9,3.2h5.9C988.2,413.1,987.4,411.6,985.3,411.6z"/>
	<path class="st1" d="M1001.5,422.3v-1.2c-0.9,0.8-2,1.5-3.3,1.5c-2.7,0-4.8-2-4.8-6.8c0-4.3,2.4-6.4,5-6.4c1.3,0,2.5,0.7,3.2,1.4
		V406l2.4-1.3v17.5H1001.5z M1001.5,413.3c-0.6-0.7-1.7-1.7-3-1.7c-1.8,0-2.7,1.3-2.7,4c0,3.2,1,4.6,2.8,4.6c1.2,0,2.2-0.8,2.9-1.6
		V413.3z"/>
	<path class="st1" d="M1005.7,426.5v-2.3h12v2.3H1005.7z"/>
	<path class="st1" d="M1026.7,422.3l-2.8-6.3l-1.9,2.5v3.7h-2.5v-16.2l2.5-1.3v7.9c0,0.8,0,2.1,0,2.7c0.3-0.5,1-1.5,1.4-2.1l2.6-3.7
		h2.8l-3.2,4.2l3.8,8.4H1026.7z"/>
	<path class="st1" d="M1041.8,416.8h-8.3c0.3,2.4,1.6,3.5,3.2,3.5c1.1,0,1.9-0.4,2.7-1l1.5,1.6c-1.1,1.1-2.4,1.7-4.3,1.7
		c-3,0-5.4-2.4-5.4-6.6c0-4.3,2.3-6.6,5.5-6.6c3.6,0,5.3,2.9,5.3,6.3C1041.9,416.2,1041.8,416.6,1041.8,416.8z M1036.4,411.6
		c-1.7,0-2.7,1.2-2.9,3.2h5.9C1039.3,413.1,1038.5,411.6,1036.4,411.6z"/>
	<path class="st1" d="M1048.8,426.7h-2.6l1.8-4.7l-4.6-12.4h2.7l2.1,6.2c0.4,1.1,1,3,1.1,3.7c0.2-0.7,0.7-2.5,1.1-3.6l2.1-6.2h2.6
		L1048.8,426.7z"/>
	<path class="st1" d="M1061.4,422.5c-1.7,0-3.6-0.7-4.8-1.6l1.1-1.9c1.2,0.8,2.5,1.2,3.7,1.2c1.6,0,2.3-0.5,2.3-1.4
		c0-1-1.1-1.4-2.9-2.1c-2.7-1.1-3.7-2-3.7-4c0-2.3,1.8-3.4,4.3-3.4c1.6,0,3.1,0.6,4.3,1.4l-1.1,1.9c-1-0.7-2.1-1.1-3.3-1.1
		c-1.2,0-1.7,0.5-1.7,1.2c0,0.6,0.4,1.1,2.3,1.8c2.8,1.1,4.2,1.8,4.2,4.2C1066.1,421.6,1063.8,422.5,1061.4,422.5z"/>
	<path class="st1" d="M1068.6,422.3c0.2-4.9,3.1-7.1,6.5-9.1c2.3-1.3,2.9-2.1,2.9-3.3c0-1.3-0.9-2.2-3.2-2.2c-1.4,0-3,0.6-4.1,1.7
		l-1.6-1.9c1.5-1.4,3.6-2.3,5.7-2.3c3.5,0,5.7,1.5,5.7,4.6c0,2.6-1.3,3.7-4.2,5.4c-3.2,1.9-4.1,3-4.5,4.6h8.9v2.4H1068.6z"/>
</g>
<g>
	<path class="st1" d="M1246.6,393.5l-4.8-8.6l-3.1,3.8v4.8h-2.4v-16.8h2.4v5.8c0,0.6,0,2.4,0,3c0.3-0.4,1.4-1.8,1.9-2.5l5-6.2h2.9
		l-4.9,6.1l6,10.7H1246.6z"/>
	<path class="st1" d="M1261.5,388h-8.3c0.3,2.4,1.6,3.5,3.2,3.5c1.1,0,1.9-0.4,2.7-1l1.5,1.6c-1.1,1.1-2.4,1.7-4.3,1.7
		c-3,0-5.4-2.4-5.4-6.6c0-4.3,2.3-6.6,5.5-6.6c3.6,0,5.3,2.9,5.3,6.3C1261.5,387.4,1261.5,387.8,1261.5,388z M1256.1,382.8
		c-1.7,0-2.7,1.2-2.9,3.2h5.9C1258.9,384.3,1258.1,382.8,1256.1,382.8z"/>
	<path class="st1" d="M1268.5,397.9h-2.6l1.8-4.7l-4.6-12.4h2.7l2.1,6.2c0.4,1.1,1,3,1.1,3.7c0.2-0.7,0.7-2.5,1.1-3.6l2.1-6.2h2.6
		L1268.5,397.9z"/>
	<path class="st1" d="M1291.5,393.5v-1.2c-0.9,0.8-2,1.5-3.3,1.5c-2.7,0-4.8-2-4.8-6.8c0-4.3,2.4-6.4,5-6.4c1.3,0,2.5,0.7,3.2,1.4
		v-4.8l2.4-1.3v17.5H1291.5z M1291.5,384.5c-0.6-0.7-1.7-1.7-3-1.7c-1.8,0-2.7,1.3-2.7,4c0,3.2,1,4.6,2.8,4.6c1.2,0,2.2-0.8,2.9-1.6
		V384.5z"/>
	<path class="st1" d="M1302.5,393.7c-3.2,0-5.5-2.6-5.5-6.6c0-4.1,2.4-6.6,5.6-6.6c3.2,0,5.6,2.6,5.6,6.5
		C1308.2,391.3,1305.8,393.7,1302.5,393.7z M1302.5,383c-1.9,0-3,1.7-3,4.2c0,2.8,1.3,4.3,3.1,4.3c1.9,0,3.1-1.9,3.1-4.2
		C1305.7,384.6,1304.5,383,1302.5,383z"/>
	<path class="st1" d="M1321.4,388h-8.3c0.3,2.4,1.6,3.5,3.2,3.5c1.1,0,1.9-0.4,2.7-1l1.5,1.6c-1.1,1.1-2.4,1.7-4.3,1.7
		c-3,0-5.4-2.4-5.4-6.6c0-4.3,2.3-6.6,5.5-6.6c3.6,0,5.3,2.9,5.3,6.3C1321.5,387.4,1321.4,387.8,1321.4,388z M1316,382.8
		c-1.7,0-2.7,1.2-2.9,3.2h5.9C1318.9,384.3,1318,382.8,1316,382.8z"/>
	<path class="st1" d="M1328.4,393.7c-1.7,0-3.6-0.7-4.8-1.6l1.1-1.9c1.2,0.8,2.5,1.2,3.7,1.2c1.6,0,2.3-0.5,2.3-1.4
		c0-1-1.1-1.4-2.9-2.1c-2.7-1.1-3.7-2-3.7-4c0-2.3,1.8-3.4,4.3-3.4c1.6,0,3.1,0.6,4.3,1.4l-1.1,1.9c-1-0.7-2.1-1.1-3.3-1.1
		c-1.2,0-1.7,0.5-1.7,1.2c0,0.6,0.4,1.1,2.3,1.8c2.8,1.1,4.2,1.8,4.2,4.2C1333.1,392.8,1330.9,393.7,1328.4,393.7z"/>
	<path class="st1" d="M1350.4,393.5v-7.1c0-2.5-1-3.5-2.6-3.5c-1.7,0-2.6,1.2-2.6,3.2v7.4h-2.5v-12.6h2.5v1.2
		c0.6-0.9,1.9-1.5,3.2-1.5c2.9,0,4.5,1.9,4.5,5.6v7.2H1350.4z"/>
	<path class="st1" d="M1361.4,393.7c-3.2,0-5.5-2.6-5.5-6.6c0-4.1,2.4-6.6,5.6-6.6c3.2,0,5.6,2.6,5.6,6.5
		C1367.1,391.3,1364.6,393.7,1361.4,393.7z M1361.4,383c-1.9,0-3,1.7-3,4.2c0,2.8,1.3,4.3,3.1,4.3c1.9,0,3.1-1.9,3.1-4.2
		C1364.6,384.6,1363.4,383,1361.4,383z"/>
	<path class="st1" d="M1376,393.2c-0.6,0.3-1.4,0.6-2.4,0.6c-1.8,0-2.8-1.1-2.8-3.3v-7.3h-1.8v-2.3h1.8v-3.6l2.4-1.3v4.9h3.1v2.3
		h-3.1v6.8c0,1.2,0.4,1.5,1.3,1.5c0.6,0,1.4-0.2,1.8-0.5L1376,393.2z"/>
	<path class="st1" d="M1287.8,422.3v-7.1c0-2.5-0.8-3.5-2.4-3.5c-1.7,0-2.4,1.2-2.4,3.2v7.4h-2.5v-7.1c0-2.5-0.8-3.5-2.4-3.5
		c-1.7,0-2.4,1.2-2.4,3.2v7.4h-2.5v-12.6h2.5v1.2c0.6-0.9,1.7-1.5,3-1.5c1.7,0,2.8,0.6,3.5,1.8c0.9-1.1,1.9-1.8,3.9-1.8
		c2.9,0,4.3,1.9,4.3,5.6v7.2H1287.8z"/>
	<path class="st1" d="M1301,422.3V421c-0.9,0.9-2.1,1.5-3.5,1.5c-2,0-4.4-1.2-4.4-4.2c0-2.8,2.2-4.1,5-4.1c1.2,0,2.1,0.2,2.8,0.5
		v-0.9c0-1.4-0.8-2.1-2.4-2.1c-1.3,0-2.3,0.2-3.3,0.8l-1-1.9c1.2-0.7,2.5-1.1,4.3-1.1c2.8,0,4.7,1.4,4.7,4.2v8.6H1301z M1301,416.9
		c-0.7-0.3-1.5-0.6-2.9-0.6c-1.6,0-2.6,0.7-2.6,1.9c0,1.2,0.8,2.1,2.4,2.1c1.3,0,2.5-0.8,3-1.6V416.9z"/>
	<path class="st1" d="M1313,422c-0.6,0.3-1.4,0.6-2.4,0.6c-1.8,0-2.8-1.1-2.8-3.3v-7.3h-1.8v-2.3h1.8v-3.6l2.4-1.3v4.9h3.1v2.3h-3.1
		v6.8c0,1.2,0.4,1.5,1.3,1.5c0.6,0,1.4-0.2,1.8-0.5L1313,422z"/>
	<path class="st1" d="M1324.1,413.3c-1-1.1-1.9-1.5-3.1-1.5c-1.8,0-3,1.6-3,4.2c0,2.5,1.1,4.2,3,4.2c1.2,0,1.9-0.5,2.9-1.6l1.6,1.6
		c-1,1.2-2.2,2.4-4.5,2.4c-3.1,0-5.4-2.6-5.4-6.5c0-4.2,2.4-6.6,5.5-6.6c1.8,0,3.3,0.7,4.5,2.1L1324.1,413.3z"/>
	<path class="st1" d="M1336.4,422.3v-7.1c0-2.5-1-3.5-2.6-3.5c-1.7,0-2.6,1.2-2.6,3.2v7.4h-2.5v-16.2l2.5-1.3v6.1
		c0.6-0.9,1.9-1.5,3.2-1.5c2.9,0,4.5,1.9,4.5,5.6v7.2H1336.4z"/>
</g>
<g>
	<path class="st1" d="M411.2,780.1c-4.3,0-7.1-3.6-7.1-8.7c0-5.1,2.8-8.7,7.1-8.7c2.7,0,4.6,1.1,5.7,3.1l-2.2,1.4
		c-0.9-1.4-1.8-2-3.5-2c-2.9,0-4.5,2.4-4.5,6.1c0,3.8,1.6,6.1,4.5,6.1c1.8,0,2.8-0.7,3.7-2.1l2.1,1.4
		C415.8,778.9,413.8,780.1,411.2,780.1z"/>
	<path class="st1" d="M424.8,780.1c-3.2,0-5.5-2.6-5.5-6.6c0-4.1,2.4-6.6,5.6-6.6c3.2,0,5.6,2.6,5.6,6.5
		C430.4,777.6,428,780.1,424.8,780.1z M424.7,769.3c-1.9,0-3,1.7-3,4.2c0,2.8,1.3,4.3,3.1,4.3c1.9,0,3.1-1.9,3.1-4.2
		C427.9,770.9,426.7,769.3,424.7,769.3z"/>
	<path class="st1" d="M441.1,779.8v-7.1c0-2.5-1-3.5-2.6-3.5c-1.7,0-2.6,1.2-2.6,3.2v7.4h-2.5v-12.6h2.5v1.2
		c0.6-0.9,1.9-1.5,3.2-1.5c2.9,0,4.5,1.9,4.5,5.6v7.2H441.1z"/>
	<path class="st1" d="M454.8,779.8v-7.1c0-2.5-1-3.5-2.6-3.5c-1.7,0-2.6,1.2-2.6,3.2v7.4h-2.5v-12.6h2.5v1.2
		c0.6-0.9,1.9-1.5,3.2-1.5c2.9,0,4.5,1.9,4.5,5.6v7.2H454.8z"/>
	<path class="st1" d="M471,774.4h-8.3c0.3,2.4,1.6,3.5,3.2,3.5c1.1,0,1.9-0.4,2.7-1l1.5,1.6c-1.1,1.1-2.4,1.7-4.3,1.7
		c-3,0-5.4-2.4-5.4-6.6c0-4.3,2.3-6.6,5.5-6.6c3.6,0,5.3,2.9,5.3,6.3C471.1,773.7,471,774.1,471,774.4z M465.6,769.2
		c-1.7,0-2.7,1.2-2.9,3.2h5.9C468.5,770.6,467.6,769.2,465.6,769.2z"/>
	<path class="st1" d="M482.1,770.8c-1-1.1-1.9-1.5-3.1-1.5c-1.8,0-3,1.6-3,4.2c0,2.5,1.1,4.2,3,4.2c1.2,0,1.9-0.5,2.9-1.6l1.6,1.6
		c-1,1.2-2.2,2.4-4.5,2.4c-3.1,0-5.4-2.6-5.4-6.5c0-4.2,2.4-6.6,5.5-6.6c1.8,0,3.3,0.7,4.5,2.1L482.1,770.8z"/>
	<path class="st1" d="M492.7,779.5c-0.6,0.3-1.4,0.6-2.4,0.6c-1.8,0-2.8-1.1-2.8-3.3v-7.3h-1.8v-2.3h1.8v-3.6l2.4-1.3v4.9h3.1v2.3
		h-3.1v6.8c0,1.2,0.4,1.5,1.3,1.5c0.6,0,1.4-0.2,1.8-0.5L492.7,779.5z"/>
	<path class="st1" d="M497.7,765.6c-0.9,0-1.6-0.7-1.6-1.6c0-0.9,0.7-1.6,1.6-1.6c0.9,0,1.6,0.7,1.6,1.6
		C499.3,764.8,498.6,765.6,497.7,765.6z M496.5,779.8v-12.6h2.5v12.6H496.5z"/>
	<path class="st1" d="M507.6,780.1c-3.2,0-5.5-2.6-5.5-6.6c0-4.1,2.4-6.6,5.6-6.6c3.2,0,5.6,2.6,5.6,6.5
		C513.3,777.6,510.9,780.1,507.6,780.1z M507.6,769.3c-1.9,0-3,1.7-3,4.2c0,2.8,1.3,4.3,3.1,4.3c1.9,0,3.1-1.9,3.1-4.2
		C510.8,770.9,509.6,769.3,507.6,769.3z"/>
	<path class="st1" d="M524,779.8v-7.1c0-2.5-1-3.5-2.6-3.5c-1.7,0-2.6,1.2-2.6,3.2v7.4h-2.5v-12.6h2.5v1.2c0.6-0.9,1.9-1.5,3.2-1.5
		c2.9,0,4.5,1.9,4.5,5.6v7.2H524z"/>
	<path class="st1" d="M432.3,798.6c-0.5-0.3-1.1-0.5-1.9-0.5c-1.6,0-2.5,1.1-2.5,3.2v7.2h-2.5V796h2.5v1.2c0.6-0.8,1.6-1.5,2.9-1.5
		c1,0,1.6,0.2,2.1,0.5L432.3,798.6z"/>
	<path class="st1" d="M445.1,803.2h-8.3c0.3,2.4,1.6,3.5,3.2,3.5c1.1,0,1.9-0.4,2.7-1l1.5,1.6c-1.1,1.1-2.4,1.7-4.3,1.7
		c-3,0-5.4-2.4-5.4-6.6c0-4.3,2.3-6.6,5.5-6.6c3.6,0,5.3,2.9,5.3,6.3C445.1,802.5,445.1,802.9,445.1,803.2z M439.7,798
		c-1.7,0-2.7,1.2-2.9,3.2h5.9C442.5,799.4,441.7,798,439.7,798z"/>
	<path class="st1" d="M452.5,793.3c-0.8,0-1.2,0.3-1.2,1.2v1.4h2.3v2.3h-2.3v10.3h-2.5v-10.3h-1.6V796h1.6v-1.7
		c0-2.3,1.4-3.2,3.2-3.2c0.6,0,1.3,0.1,1.9,0.2v2.2C453.4,793.4,453,793.3,452.5,793.3z"/>
	<path class="st1" d="M464.3,808.6v-1.2c-0.6,0.9-1.9,1.5-3.2,1.5c-2.9,0-4.5-1.9-4.5-5.6V796h2.5v7.1c0,2.5,1,3.5,2.6,3.5
		c1.7,0,2.6-1.2,2.6-3.2V796h2.5v12.6H464.3z"/>
	<path class="st1" d="M474.5,808.9c-1.7,0-3.6-0.7-4.8-1.6l1.1-1.9c1.2,0.8,2.5,1.2,3.7,1.2c1.6,0,2.3-0.5,2.3-1.4
		c0-1-1.1-1.4-2.9-2.1c-2.7-1.1-3.7-2-3.7-4c0-2.3,1.8-3.4,4.3-3.4c1.6,0,3.1,0.6,4.3,1.4l-1.1,1.9c-1-0.7-2.1-1.1-3.3-1.1
		s-1.7,0.5-1.7,1.2c0,0.6,0.4,1.1,2.3,1.8c2.8,1.1,4.2,1.8,4.2,4.2C479.3,807.9,477,808.9,474.5,808.9z"/>
	<path class="st1" d="M492.3,803.2H484c0.3,2.4,1.6,3.5,3.2,3.5c1.1,0,1.9-0.4,2.7-1l1.5,1.6c-1.1,1.1-2.4,1.7-4.3,1.7
		c-3,0-5.4-2.4-5.4-6.6c0-4.3,2.3-6.6,5.5-6.6c3.6,0,5.3,2.9,5.3,6.3C492.4,802.5,492.4,802.9,492.3,803.2z M486.9,798
		c-1.7,0-2.7,1.2-2.9,3.2h5.9C489.8,799.4,489,798,486.9,798z"/>
	<path class="st1" d="M503.1,808.6v-1.2c-0.9,0.8-2,1.5-3.3,1.5c-2.7,0-4.8-2-4.8-6.8c0-4.3,2.4-6.4,5-6.4c1.3,0,2.5,0.7,3.2,1.4
		v-4.8l2.4-1.3v17.5H503.1z M503.1,799.7c-0.6-0.7-1.7-1.7-3-1.7c-1.8,0-2.7,1.3-2.7,4c0,3.2,1,4.6,2.8,4.6c1.2,0,2.2-0.8,2.9-1.6
		V799.7z"/>
</g>
<g>
	<path class="st1" d="M411.2,606.3c-4.3,0-7.1-3.6-7.1-8.7c0-5.1,2.8-8.7,7.1-8.7c2.7,0,4.6,1.1,5.7,3.1l-2.2,1.4
		c-0.9-1.4-1.8-2-3.5-2c-2.9,0-4.5,2.4-4.5,6.1c0,3.8,1.6,6.1,4.5,6.1c1.8,0,2.8-0.7,3.7-2.1l2.1,1.4
		C415.8,605.2,413.8,606.3,411.2,606.3z"/>
	<path class="st1" d="M424.8,606.3c-3.2,0-5.5-2.6-5.5-6.6c0-4.1,2.4-6.6,5.6-6.6c3.2,0,5.6,2.6,5.6,6.5
		C430.4,603.9,428,606.3,424.8,606.3z M424.7,595.5c-1.9,0-3,1.7-3,4.2c0,2.8,1.3,4.3,3.1,4.3c1.9,0,3.1-1.9,3.1-4.2
		C427.9,597.2,426.7,595.5,424.7,595.5z"/>
	<path class="st1" d="M441.1,606.1v-7.1c0-2.5-1-3.5-2.6-3.5c-1.7,0-2.6,1.2-2.6,3.2v7.4h-2.5v-12.6h2.5v1.2
		c0.6-0.9,1.9-1.5,3.2-1.5c2.9,0,4.5,1.9,4.5,5.6v7.2H441.1z"/>
	<path class="st1" d="M454.8,606.1v-7.1c0-2.5-1-3.5-2.6-3.5c-1.7,0-2.6,1.2-2.6,3.2v7.4h-2.5v-12.6h2.5v1.2
		c0.6-0.9,1.9-1.5,3.2-1.5c2.9,0,4.5,1.9,4.5,5.6v7.2H454.8z"/>
	<path class="st1" d="M471,600.6h-8.3c0.3,2.4,1.6,3.5,3.2,3.5c1.1,0,1.9-0.4,2.7-1l1.5,1.6c-1.1,1.1-2.4,1.7-4.3,1.7
		c-3,0-5.4-2.4-5.4-6.6c0-4.3,2.3-6.6,5.5-6.6c3.6,0,5.3,2.9,5.3,6.3C471.1,600,471,600.4,471,600.6z M465.6,595.4
		c-1.7,0-2.7,1.2-2.9,3.2h5.9C468.5,596.9,467.6,595.4,465.6,595.4z"/>
	<path class="st1" d="M482.1,597.1c-1-1.1-1.9-1.5-3.1-1.5c-1.8,0-3,1.6-3,4.2c0,2.5,1.1,4.2,3,4.2c1.2,0,1.9-0.5,2.9-1.6l1.6,1.6
		c-1,1.2-2.2,2.4-4.5,2.4c-3.1,0-5.4-2.6-5.4-6.5c0-4.2,2.4-6.6,5.5-6.6c1.8,0,3.3,0.7,4.5,2.1L482.1,597.1z"/>
	<path class="st1" d="M492.7,605.7c-0.6,0.3-1.4,0.6-2.4,0.6c-1.8,0-2.8-1.1-2.8-3.3v-7.3h-1.8v-2.3h1.8v-3.6l2.4-1.3v4.9h3.1v2.3
		h-3.1v6.8c0,1.2,0.4,1.5,1.3,1.5c0.6,0,1.4-0.2,1.8-0.5L492.7,605.7z"/>
	<path class="st1" d="M497.7,591.8c-0.9,0-1.6-0.7-1.6-1.6c0-0.9,0.7-1.6,1.6-1.6c0.9,0,1.6,0.7,1.6,1.6
		C499.3,591.1,498.6,591.8,497.7,591.8z M496.5,606.1v-12.6h2.5v12.6H496.5z"/>
	<path class="st1" d="M507.6,606.3c-3.2,0-5.5-2.6-5.5-6.6c0-4.1,2.4-6.6,5.6-6.6c3.2,0,5.6,2.6,5.6,6.5
		C513.3,603.9,510.9,606.3,507.6,606.3z M507.6,595.5c-1.9,0-3,1.7-3,4.2c0,2.8,1.3,4.3,3.1,4.3c1.9,0,3.1-1.9,3.1-4.2
		C510.8,597.2,509.6,595.5,507.6,595.5z"/>
	<path class="st1" d="M524,606.1v-7.1c0-2.5-1-3.5-2.6-3.5c-1.7,0-2.6,1.2-2.6,3.2v7.4h-2.5v-12.6h2.5v1.2c0.6-0.9,1.9-1.5,3.2-1.5
		c2.9,0,4.5,1.9,4.5,5.6v7.2H524z"/>
	<path class="st1" d="M428.5,639.5l-0.8-1.9c3.6-0.2,4.3-1.1,4.3-3.7v-0.2c-0.9,0.8-1.9,1.5-3.3,1.5c-2.7,0-4.8-2-4.8-6.8
		c0-4.3,2.4-6.4,5-6.4c1.3,0,2.5,0.7,3.1,1.4v-1.2h2.5v11.4C434.4,637.5,433.1,639.3,428.5,639.5z M432,625.9
		c-0.6-0.7-1.7-1.7-3-1.7c-1.8,0-2.7,1.3-2.7,4c0,3.2,1,4.6,2.8,4.6c1.2,0,2.2-0.8,2.9-1.6V625.9z"/>
	<path class="st1" d="M444.9,624.9c-0.5-0.3-1.1-0.5-1.9-0.5c-1.6,0-2.5,1.1-2.5,3.2v7.2h-2.5v-12.6h2.5v1.2
		c0.6-0.8,1.6-1.5,2.9-1.5c1,0,1.6,0.2,2.1,0.5L444.9,624.9z"/>
	<path class="st1" d="M454.5,634.9v-1.2c-0.9,0.9-2.1,1.5-3.5,1.5c-2,0-4.4-1.2-4.4-4.2c0-2.8,2.2-4.1,5-4.1c1.2,0,2.1,0.2,2.8,0.5
		v-0.9c0-1.4-0.8-2.1-2.4-2.1c-1.3,0-2.3,0.2-3.3,0.8l-1-1.9c1.2-0.7,2.5-1.1,4.3-1.1c2.8,0,4.7,1.4,4.7,4.2v8.6H454.5z
		 M454.5,629.5c-0.7-0.3-1.5-0.6-2.9-0.6c-1.6,0-2.6,0.7-2.6,1.9c0,1.2,0.8,2.1,2.4,2.1c1.3,0,2.5-0.8,3-1.6V629.5z"/>
	<path class="st1" d="M468.1,634.9v-7.1c0-2.5-1-3.5-2.6-3.5c-1.7,0-2.6,1.2-2.6,3.2v7.4h-2.5v-12.6h2.5v1.2
		c0.6-0.9,1.9-1.5,3.2-1.5c2.9,0,4.5,1.9,4.5,5.6v7.2H468.1z"/>
	<path class="st1" d="M480.1,634.5c-0.6,0.3-1.4,0.6-2.4,0.6c-1.8,0-2.8-1.1-2.8-3.3v-7.3H473v-2.3h1.8v-3.6l2.4-1.3v4.9h3.1v2.3
		h-3.1v6.8c0,1.2,0.4,1.5,1.3,1.5c0.6,0,1.4-0.2,1.8-0.5L480.1,634.5z"/>
	<path class="st1" d="M493.4,629.4h-8.3c0.3,2.4,1.6,3.5,3.2,3.5c1.1,0,1.9-0.4,2.7-1l1.5,1.6c-1.1,1.1-2.4,1.7-4.3,1.7
		c-3,0-5.4-2.4-5.4-6.6c0-4.3,2.3-6.6,5.5-6.6c3.6,0,5.3,2.9,5.3,6.3C493.5,628.8,493.4,629.2,493.4,629.4z M488,624.2
		c-1.7,0-2.7,1.2-2.9,3.2h5.9C490.9,625.7,490,624.2,488,624.2z"/>
	<path class="st1" d="M504.1,634.9v-1.2c-0.9,0.8-2,1.5-3.3,1.5c-2.7,0-4.8-2-4.8-6.8c0-4.3,2.4-6.4,5-6.4c1.3,0,2.5,0.7,3.2,1.4
		v-4.8l2.4-1.3v17.5H504.1z M504.1,625.9c-0.6-0.7-1.7-1.7-3-1.7c-1.8,0-2.7,1.3-2.7,4c0,3.2,1,4.6,2.8,4.6c1.2,0,2.2-0.8,2.9-1.6
		V625.9z"/>
</g>
<g>
	<path class="st2" d="M1051.3,945.1v-21h4.2v21H1051.3z"/>
	<path class="st2" d="M1070,945.1v-8.5c0-2.8-1-3.7-2.7-3.7s-2.7,0.8-2.7,3.6v8.6h-4.1v-15.7h4.1v1c0.7-0.8,2-1.4,3.7-1.4
		c4,0,5.8,2.8,5.8,7.2v8.9H1070z"/>
	<path class="st2" d="M1084,945.4c-2.5,0-4.9-0.7-6.6-1.8l1.4-3.1c1.7,0.9,3.5,1.4,5.5,1.4c1.6,0,2.1-0.4,2.1-1.2
		c0-0.7-0.6-1.1-2.3-1.6c-3.8-1.1-6.2-2.1-6.2-5.4c0-3.3,2.6-4.7,6.3-4.7c2,0,4.1,0.6,5.8,1.5l-1.3,3.3c-1.6-0.8-3.3-1.3-4.6-1.3
		c-1.7,0-2.1,0.3-2.1,1c0,0.7,0.5,0.9,3.3,1.8c2.8,0.9,5.2,2,5.2,5.1C1090.5,944.2,1087.6,945.4,1084,945.4z"/>
	<path class="st2" d="M1102.6,944.5c-0.7,0.5-1.9,1-3.2,1c-2.5,0-4.2-2-4.2-4.7v-7.4h-2.6v-3.9h2.6v-4l4.1-2.1v6.1h3.8v3.9h-3.8v6.3
		c0,1.5,0.5,1.9,1.5,1.9c0.8,0,1.3-0.3,2.3-1.2L1102.6,944.5z"/>
	<path class="st2" d="M1115.3,945.1v-1c-0.8,0.8-2.1,1.4-3.5,1.4c-2.9,0-5.9-1.8-5.9-5.6c0-3.5,2.8-5.2,6.4-5.2c1.4,0,2.4,0.3,3,0.6
		v-0.8c0-1.1-0.8-2-2.2-2c-1.9,0-2.9,0.3-4.3,1l-1.6-2.9c1.8-1,3.4-1.6,5.9-1.6c3.8,0,6.4,2,6.4,5.5v10.6H1115.3z M1115.3,938.5
		c-0.7-0.5-1.4-0.7-2.9-0.7c-1.6,0-2.4,0.7-2.4,2c0,1.1,0.6,2.1,2.4,2.1c1.3,0,2.4-0.7,2.9-1.4V938.5z"/>
	<path class="st2" d="M1132.8,945.1v-8.5c0-2.8-1-3.7-2.7-3.7c-1.7,0-2.7,0.8-2.7,3.6v8.6h-4.1v-15.7h4.1v1c0.7-0.8,2-1.4,3.7-1.4
		c4,0,5.8,2.8,5.8,7.2v8.9H1132.8z"/>
	<path class="st2" d="M1147.4,945.4c-4.1,0-7.4-3.4-7.4-8.2c0-4.8,3.2-8.2,7.6-8.2c3,0,4.9,1.5,6.2,3.5l-2.7,2.8
		c-0.9-1.3-1.9-2.2-3.6-2.2c-2,0-3.3,1.7-3.3,4.2c0,2.5,1.3,4.2,3.3,4.2c1.6,0,2.6-0.7,3.7-2l2.6,2.5
		C1152.3,944,1150.5,945.4,1147.4,945.4z"/>
	<path class="st2" d="M1169.4,938.6h-9.4c0.2,2.2,1.7,3,3.2,3c1.1,0,2.1-0.4,2.7-1.1l2.9,2.5c-1.3,1.6-3.5,2.5-5.6,2.5
		c-4.5,0-7.4-3.2-7.4-8.2c0-4.8,3-8.2,7-8.2c4.2,0,6.6,3.7,6.6,8.2C1169.4,937.9,1169.4,938.3,1169.4,938.6z M1162.6,932.6
		c-1.5,0-2.4,1.2-2.6,2.8h5.4C1165.3,934,1164.4,932.6,1162.6,932.6z"/>
</g>
<g>
	<path class="st1" d="M902.9,617.8l-4.8-8.6l-3.1,3.8v4.8h-2.4V601h2.4v5.8c0,0.6,0,2.4,0,3c0.3-0.4,1.4-1.8,1.9-2.5l5-6.2h2.9
		l-4.9,6.1l6,10.7H902.9z"/>
	<path class="st1" d="M917.7,612.4h-8.3c0.3,2.4,1.6,3.5,3.2,3.5c1.1,0,1.9-0.4,2.7-1l1.5,1.6c-1.1,1.1-2.4,1.7-4.3,1.7
		c-3,0-5.4-2.4-5.4-6.6c0-4.3,2.3-6.6,5.5-6.6c3.6,0,5.3,2.9,5.3,6.3C917.8,611.7,917.8,612.1,917.7,612.4z M912.3,607.2
		c-1.7,0-2.7,1.2-2.9,3.2h5.9C915.2,608.6,914.4,607.2,912.3,607.2z"/>
	<path class="st1" d="M924.7,622.2h-2.6l1.8-4.7l-4.6-12.4h2.7l2.1,6.2c0.4,1.1,1,3,1.1,3.7c0.2-0.7,0.7-2.5,1.1-3.6l2.1-6.2h2.6
		L924.7,622.2z"/>
	<path class="st1" d="M954.8,617.8v-7.1c0-2.5-0.8-3.5-2.4-3.5c-1.7,0-2.4,1.2-2.4,3.2v7.4h-2.5v-7.1c0-2.5-0.8-3.5-2.4-3.5
		c-1.7,0-2.4,1.2-2.4,3.2v7.4h-2.5v-12.6h2.5v1.2c0.6-0.9,1.7-1.5,3-1.5c1.7,0,2.8,0.6,3.5,1.8c0.9-1.1,1.9-1.8,3.9-1.8
		c2.9,0,4.3,1.9,4.3,5.6v7.2H954.8z"/>
	<path class="st1" d="M968.1,617.8v-1.2c-0.9,0.9-2.1,1.5-3.5,1.5c-2,0-4.4-1.2-4.4-4.2c0-2.8,2.2-4.1,5-4.1c1.2,0,2.1,0.2,2.8,0.5
		v-0.9c0-1.4-0.8-2.1-2.4-2.1c-1.3,0-2.3,0.2-3.3,0.8l-1-1.9c1.2-0.7,2.5-1.1,4.3-1.1c2.8,0,4.7,1.4,4.7,4.2v8.6H968.1z
		 M968.1,612.4c-0.7-0.3-1.5-0.6-2.9-0.6c-1.6,0-2.6,0.7-2.6,1.9c0,1.2,0.8,2.1,2.4,2.1c1.3,0,2.5-0.8,3-1.6V612.4z"/>
	<path class="st1" d="M980.1,617.5c-0.6,0.3-1.4,0.6-2.4,0.6c-1.8,0-2.8-1.1-2.8-3.3v-7.3H973v-2.3h1.8v-3.6l2.4-1.3v4.9h3.1v2.3
		h-3.1v6.8c0,1.2,0.4,1.5,1.3,1.5c0.6,0,1.4-0.2,1.8-0.5L980.1,617.5z"/>
	<path class="st1" d="M991.1,608.8c-1-1.1-1.9-1.5-3.1-1.5c-1.8,0-3,1.6-3,4.2c0,2.5,1.1,4.2,3,4.2c1.2,0,1.9-0.5,2.9-1.6l1.6,1.6
		c-1,1.2-2.2,2.4-4.5,2.4c-3.1,0-5.4-2.6-5.4-6.5c0-4.2,2.4-6.6,5.5-6.6c1.8,0,3.3,0.7,4.5,2.1L991.1,608.8z"/>
	<path class="st1" d="M1003.4,617.8v-7.1c0-2.5-1-3.5-2.6-3.5c-1.7,0-2.6,1.2-2.6,3.2v7.4h-2.5v-16.2l2.5-1.3v6.1
		c0.6-0.9,1.9-1.5,3.2-1.5c2.9,0,4.5,1.9,4.5,5.6v7.2H1003.4z"/>
	<path class="st1" d="M1019.6,612.4h-8.3c0.3,2.4,1.6,3.5,3.2,3.5c1.1,0,1.9-0.4,2.7-1l1.5,1.6c-1.1,1.1-2.4,1.7-4.3,1.7
		c-3,0-5.4-2.4-5.4-6.6c0-4.3,2.3-6.6,5.5-6.6c3.6,0,5.3,2.9,5.3,6.3C1019.7,611.7,1019.6,612.1,1019.6,612.4z M1014.2,607.2
		c-1.7,0-2.7,1.2-2.9,3.2h5.9C1017,608.6,1016.2,607.2,1014.2,607.2z"/>
	<path class="st1" d="M1026.6,618.1c-1.7,0-3.6-0.7-4.8-1.6l1.1-1.9c1.2,0.8,2.5,1.2,3.7,1.2c1.6,0,2.3-0.5,2.3-1.4
		c0-1-1.1-1.4-2.9-2.1c-2.7-1.1-3.7-2-3.7-4c0-2.3,1.8-3.4,4.3-3.4c1.6,0,3.1,0.6,4.3,1.4l-1.1,1.9c-1-0.7-2.1-1.1-3.3-1.1
		s-1.7,0.5-1.7,1.2c0,0.6,0.4,1.1,2.3,1.8c2.8,1.1,4.2,1.8,4.2,4.2C1031.3,617.1,1029,618.1,1026.6,618.1z"/>
</g>
<rect x="827" y="335.8" class="st6" width="269" height="128.4"/>
<g>
	<g>
		<polyline class="st7" points="1305.5,464.2 1305.5,784.9 614.6,784.9 		"/>
		<g>
			<polygon class="st1" points="617.6,774.5 599.5,784.9 617.6,795.4 			"/>
		</g>
	</g>
</g>
<g>
	<g>
		<line class="st7" x1="962" y1="463.2" x2="962" y2="530.9"/>
		<g>
			<polygon class="st1" points="951.5,527.9 962,546 972.4,527.9 			"/>
		</g>
	</g>
</g>
<g>
	<g>
		<polyline class="st7" points="882.5,151.1 961.5,151.1 961.5,320.7 		"/>
		<g>
			<polygon class="st1" points="951,317.6 961.5,335.8 972,317.6 			"/>
		</g>
	</g>
</g>
<g>
	<g>
		<line class="st7" x1="330.5" y1="157.6" x2="598.4" y2="157.6"/>
		<g>
			<polygon class="st1" points="595.4,168.1 613.5,157.6 595.4,147.2 			"/>
		</g>
	</g>
</g>
<g>
	<g>
		<line class="st7" x1="1095.5" y1="399.9" x2="1156.4" y2="399.9"/>
		<g>
			<polygon class="st1" points="1153.4,410.4 1171.5,399.9 1153.4,389.5 			"/>
		</g>
	</g>
</g>
<g>
	<g>
		<line class="st7" x1="826.5" y1="611.5" x2="614.6" y2="612.1"/>
		<g>
			<polygon class="st1" points="617.6,601.6 599.5,612.1 617.7,622.5 			"/>
		</g>
	</g>
</g>
<g>
</g>
<g>
</g>
<g>
</g>
<g>
</g>
<g>
</g>
<g>
</g>
<g>
</g>
<g>
</g>
<g>
</g>
<g>
</g>
<g>
</g>
<g>
</g>
<g>
</g>
<g>
</g>
<g>
</g>
<g>
</g>
</svg>
