<svg id="svg2" xmlns="http://www.w3.org/2000/svg" width="279.4mm" height="137.036mm" viewBox="0 0 792 388.449">
  <defs>
    <style>
      .cls-1, .cls-5 {
        fill: none;
      }

      .cls-1, .cls-6 {
        stroke: #a1c2e7;
      }

      .cls-1, .cls-2, .cls-5, .cls-6 {
        stroke-miterlimit: 10;
      }

      .cls-2 {
        fill: #f0f0f0;
        stroke: #c9c9c9;
      }

      .cls-3 {
        fill: #fff;
      }

      .cls-4 {
        fill: #06c;
      }

      .cls-5 {
        stroke: #000;
      }

      .cls-6 {
        fill: #a1c2e7;
      }

      .cls-7 {
        fill: #151515;
      }
    </style>
  </defs>
  <rect class="cls-1" x="621.872" y="62.72" width="151.845" height="63.109"/>
  <rect class="cls-1" x="621.872" y="183.573" width="151.845" height="63.109"/>
  <rect class="cls-1" x="621.872" y="304.426" width="151.845" height="63.109"/>
  <rect class="cls-2" x="144.384" y="129.614" width="151.845" height="127.126"/>
  <g>
    <rect class="cls-3" x="373.362" y="130.614" width="149.845" height="125.125"/>
    <path class="cls-4" d="M522.207,131.614V254.74H374.362V131.614H522.207m2-2H372.362V256.74H524.207V129.614Z"/>
  </g>
  <g>
    <rect class="cls-3" x="217.627" y="148.311" width="5.204" height="5.204"/>
    <path class="cls-3" d="M206.407,150.912a2.6,2.6,0,1,0-2.6,2.6A2.6,2.6,0,0,0,206.407,150.912Z"/>
    <rect class="cls-3" x="204.479" y="163.659" width="15.076" height="4.957"/>
    <polygon class="cls-3" points="203.132 169.962 203.132 163.658 196.818 163.658 196.818 173.18 203.132 173.18 203.132 169.962"/>
    <rect class="cls-3" x="204.479" y="169.963" width="31.5" height="3.218"/>
    <rect class="cls-3" x="196.818" y="174.526" width="6.315" height="9.522"/>
    <rect class="cls-3" x="237.323" y="163.658" width="6.471" height="9.521"/>
    <polygon class="cls-3" points="237.325 177.634 237.325 184.048 243.795 184.048 243.795 174.526 237.325 174.526 237.325 177.634"/>
    <rect class="cls-3" x="220.902" y="163.659" width="15.076" height="4.957"/>
    <path class="cls-3" d="M234.05,196.794a2.6,2.6,0,1,0,2.6-2.6A2.605,2.605,0,0,0,234.05,196.794Z"/>
    <rect class="cls-3" x="220.902" y="178.981" width="15.076" height="5.067"/>
    <polygon class="cls-3" points="236.651 148.984 234.179 153.268 239.126 153.268 236.651 148.984"/>
    <rect class="cls-3" x="204.479" y="174.526" width="31.5" height="3.108"/>
    <rect class="cls-3" x="204.479" y="178.981" width="15.076" height="5.067"/>
    <polygon class="cls-3" points="217.756 199.15 222.703 199.15 220.23 194.865 217.756 199.15"/>
    <rect class="cls-3" x="201.359" y="194.191" width="5.204" height="5.204"/>
    <path d="M237.323,154.614h4.134l-4.806-8.322-4.806,8.322h4.133v7.7H220.9V154.86h3.274v-7.9h-7.9v7.9h3.276v7.451H204.479v-7.519a3.947,3.947,0,1,0-1.347,0v7.519h-7.66v23.083h7.66v7.45h-3.118v7.9h7.9v-7.9h-3.43v-7.451h15.075V193.3h.022l-4.154,7.194h9.61l-4.154-7.194h.021v-7.908h15.076v7.519a3.949,3.949,0,1,0,1.347,0v-7.519h7.818V162.311h-7.818Zm6.472,29.434h-6.47v-9.522h6.47Zm-6.472-20.39h6.471v9.522h-6.471Zm-1.345,0v4.957H220.9v-4.957Zm0,6.3v3.218h-31.5v-3.218Zm-18.352-16.448v-5.2h5.2v5.2Zm1.928,10.144v4.957H204.479v-4.957ZM201.2,150.912a2.6,2.6,0,1,1,2.6,2.6A2.605,2.605,0,0,1,201.2,150.912Zm-4.386,12.746h6.314v9.522h-6.314Zm0,20.39v-9.522h6.314v9.522Zm9.745,10.143v5.2h-5.2v-5.2Zm12.992-10.143H204.479v-5.067h15.076Zm3.148,15.1h-4.947l2.474-4.285Zm-18.224-21.516v-3.108h31.5v3.108Zm16.423,6.414v-5.067h15.076v5.067Zm18.35,12.746a2.6,2.6,0,1,1-2.6-2.6A2.6,2.6,0,0,1,239.252,196.794Zm-5.073-43.526,2.472-4.284,2.475,4.284Z"/>
  </g>
  <g>
    <g id="g24">
      <path id="path26" class="cls-3" d="M476.8,184.715v-31.94h-.091c-5.789,4.387-13.909,10.316-19.549,13.954,5.727,4.771,14.024,12.54,19.64,17.986"/>
    </g>
    <g id="g28">
      <path id="path30" class="cls-3" d="M446.3,166.842l.117.072c1.174.733,2.047,1.238,2.7,1.587a5.264,5.264,0,0,0,1.8.6,5.323,5.323,0,0,0,1.814-.589c.691-.363,1.625-.9,2.89-1.7.316-.2.641-.4.977-.62,5.382-3.459,13.105-9.076,18.866-13.425H426.309c5.88,4.4,13.737,10.068,19.124,13.517.3.191.589.374.871.551"/>
    </g>
    <g id="g32">
      <path id="path34" class="cls-3" d="M453.1,169.165a5.3,5.3,0,0,1-2.18.822,5.1,5.1,0,0,1-2.066-.786c-.812-.369-1.92-.939-3.474-1.824-5.729,4.783-14.033,12.628-19.626,18.108a1.841,1.841,0,0,0,.556.086H475.5a1.822,1.822,0,0,0,.882-.223c-5.609-5.442-13.969-13.274-19.711-18.057-1.449.83-2.631,1.45-3.568,1.874"/>
    </g>
    <g id="g36">
      <path id="path38" class="cls-3" d="M425.191,152.868V185c5.6-5.487,13.932-13.358,19.693-18.171-5.609-3.6-13.792-9.529-19.693-13.956"/>
    </g>
    <g id="g40">
      <path id="path42" d="M425.191,152.868c5.9,4.427,14.084,10.352,19.693,13.956-5.761,4.813-14.094,12.684-19.693,18.171Zm50.28-.093c-5.762,4.347-13.486,9.966-18.868,13.425-.334.217-.661.421-.976.62-1.264.794-2.2,1.331-2.891,1.7a3.037,3.037,0,0,1-3.615-.015c-.653-.35-1.526-.854-2.7-1.587l-.117-.072c-.28-.176-.571-.359-.869-.551-5.389-3.449-13.245-9.12-19.125-13.516Zm1.324,0v31.94c-5.614-5.446-13.912-13.215-19.64-17.986,5.641-3.639,13.761-9.567,19.549-13.954Zm-1.3,32.795H426.312a1.872,1.872,0,0,1-.556-.085c5.593-5.48,13.9-13.324,19.626-18.109,1.554.886,2.662,1.455,3.474,1.825a5.1,5.1,0,0,0,2.066.787,5.309,5.309,0,0,0,2.18-.823c.937-.423,2.119-1.044,3.568-1.875,5.742,4.784,14.1,12.617,19.711,18.059a1.832,1.832,0,0,1-.882.221M424.075,186.9h53.837V151.659H424.075Z"/>
    </g>
    <g id="g622">
      <path id="path624" class="cls-3" d="M472.716,188.8V156.856h-.091c-5.789,4.386-13.909,10.315-19.549,13.953,5.727,4.771,14.024,12.54,19.64,17.986"/>
    </g>
    <g id="g626">
      <path id="path628" class="cls-3" d="M442.223,170.922l.117.073c1.174.733,2.047,1.237,2.7,1.587a3.041,3.041,0,0,0,3.615.013c.691-.363,1.625-.9,2.89-1.7.316-.2.641-.4.977-.62,5.382-3.459,13.1-9.076,18.866-13.424H422.228c5.88,4.4,13.738,10.067,19.125,13.517q.448.285.87.55"/>
    </g>
    <g id="g630">
      <path id="path632" class="cls-3" d="M449.022,173.246a5.288,5.288,0,0,1-2.18.821,5.082,5.082,0,0,1-2.066-.786c-.812-.369-1.921-.939-3.474-1.824-5.729,4.784-14.034,12.629-19.627,18.109a1.879,1.879,0,0,0,.557.085h49.187a1.8,1.8,0,0,0,.881-.223c-5.609-5.442-13.968-13.273-19.71-18.057-1.449.83-2.631,1.45-3.568,1.875"/>
    </g>
    <g id="g634">
      <path id="path636" class="cls-3" d="M421.111,156.948v32.127c5.6-5.486,13.932-13.357,19.693-18.171-5.609-3.6-13.793-9.529-19.693-13.956"/>
    </g>
    <g id="g638">
      <path id="path640" d="M421.111,156.948c5.9,4.427,14.084,10.352,19.693,13.956-5.761,4.814-14.095,12.685-19.693,18.171Zm50.279-.092c-5.761,4.347-13.485,9.965-18.867,13.424-.335.218-.661.422-.977.62-1.263.794-2.2,1.332-2.89,1.7a3.037,3.037,0,0,1-3.615-.015c-.653-.349-1.526-.854-2.7-1.587l-.117-.072c-.28-.176-.572-.359-.869-.551-5.389-3.449-13.245-9.119-19.125-13.515Zm1.325,0V188.8c-5.614-5.446-13.912-13.215-19.64-17.986,5.64-3.638,13.76-9.567,19.549-13.953Zm-1.3,32.8H422.232a1.848,1.848,0,0,1-.557-.086c5.593-5.48,13.9-13.324,19.627-18.109,1.553.886,2.662,1.456,3.474,1.826a5.1,5.1,0,0,0,2.066.786,5.309,5.309,0,0,0,2.18-.823c.937-.423,2.119-1.043,3.568-1.874,5.742,4.783,14.1,12.616,19.71,18.058a1.826,1.826,0,0,1-.881.222m-51.425,1.326h53.838V155.739H419.994Z"/>
    </g>
  </g>
  <g>
    <path d="M180.5,222.971h1.791v1.267a2.711,2.711,0,0,1,2.363-1.394,2.5,2.5,0,0,1,2.33,1.537,2.928,2.928,0,0,1,2.632-1.537,2.631,2.631,0,0,1,2.6,2.885v5.184h-1.792v-4.8a1.607,1.607,0,0,0-1.6-1.823,1.893,1.893,0,0,0-1.6.936c.016.174.031.333.031.507v5.184h-1.791v-4.8a1.607,1.607,0,0,0-1.6-1.823,1.843,1.843,0,0,0-1.57.9v5.724H180.5Z"/>
    <path d="M193.99,228.63c0-1.427,1.157-2.33,3.028-2.33a4.909,4.909,0,0,1,2.141.491v-.872c0-1.046-.6-1.585-1.824-1.585a5.49,5.49,0,0,0-2.314.618l-.634-1.3a7.621,7.621,0,0,1,3.3-.808c2.061,0,3.25,1.046,3.25,2.885v5.184h-1.775V230.1a3.315,3.315,0,0,1-2.363.936C195.132,231.04,193.99,230.057,193.99,228.63Zm3.3,1.157a2.84,2.84,0,0,0,1.871-.649v-1.3a4.106,4.106,0,0,0-1.839-.381c-1.015,0-1.649.443-1.649,1.142C195.671,229.328,196.305,229.787,197.288,229.787Z"/>
    <path d="M203.106,222.971H204.9v1.3a2.882,2.882,0,0,1,2.521-1.427,2.672,2.672,0,0,1,2.742,2.838v5.231h-1.791v-4.725a1.711,1.711,0,0,0-1.744-1.9,2.037,2.037,0,0,0-1.728.951v5.676h-1.791Z"/>
    <path d="M212.11,220.26a1.118,1.118,0,0,1,2.236,0,1.118,1.118,0,0,1-2.236,0Zm2.014,10.653h-1.792v-7.942h1.792Z"/>
    <path d="M218.119,230.913h-1.792V219.577l1.792-.3Z"/>
    <path d="M219.926,228.63c0-1.427,1.157-2.33,3.028-2.33a4.909,4.909,0,0,1,2.141.491v-.872c0-1.046-.6-1.585-1.824-1.585a5.49,5.49,0,0,0-2.314.618l-.634-1.3a7.621,7.621,0,0,1,3.3-.808c2.061,0,3.25,1.046,3.25,2.885v5.184H225.1V230.1a3.315,3.315,0,0,1-2.363.936C221.068,231.04,219.926,230.057,219.926,228.63Zm3.3,1.157a2.838,2.838,0,0,0,1.871-.649v-1.3a4.106,4.106,0,0,0-1.839-.381c-1.015,0-1.649.443-1.649,1.142C221.607,229.328,222.241,229.787,223.224,229.787Z"/>
    <path d="M234.353,225.665v1.507h-5.517v-1.507Z"/>
    <path d="M239.473,219.815h2.2l4.3,11.1h-2.045l-1.125-3.107h-4.566l-1.142,3.107h-1.981Zm2.775,6.5-1.713-4.724-1.743,4.724Z"/>
    <path d="M247.4,219.815h4.963a3.443,3.443,0,1,1,0,6.865H249.3v4.233h-1.9Zm1.9,1.6v3.709h2.758a1.867,1.867,0,1,0,.016-3.709Z"/>
    <path d="M258.07,219.815h1.9v11.1h-1.9Z"/>
  </g>
  <g>
    <line class="cls-5" x1="79.768" y1="193.177" x2="136.135" y2="193.177"/>
    <polygon points="81.227 198.163 72.592 193.177 81.227 188.191 81.227 198.163"/>
    <polygon points="134.676 198.163 143.311 193.177 134.676 188.191 134.676 198.163"/>
  </g>
  <g>
    <line class="cls-5" x1="307.006" y1="193.177" x2="363.373" y2="193.177"/>
    <polygon points="308.465 198.163 299.83 193.177 308.465 188.191 308.465 198.163"/>
    <polygon points="361.914 198.163 370.549 193.177 361.914 188.191 361.914 198.163"/>
  </g>
  <g>
    <line class="cls-5" x1="535.064" y1="193.177" x2="612.569" y2="193.177"/>
    <polygon points="536.523 198.163 527.888 193.177 536.523 188.191 536.523 198.163"/>
    <polygon points="611.11 198.163 619.745 193.177 611.11 188.191 611.11 198.163"/>
  </g>
  <g>
    <polyline class="cls-5" points="535.064 193.177 574.88 193.177 574.88 73.817 614.697 73.817"/>
    <polygon points="536.523 198.163 527.888 193.177 536.523 188.191 536.523 198.163"/>
    <polygon points="613.238 78.802 621.872 73.817 613.238 68.831 613.238 78.802"/>
  </g>
  <g>
    <polyline class="cls-5" points="614.697 315.899 574.88 315.899 574.88 193.177 535.064 193.177"/>
    <polygon points="613.238 310.913 621.872 315.898 613.238 320.885 613.238 310.913"/>
    <polygon points="536.523 188.191 527.888 193.176 536.523 198.163 536.523 188.191"/>
  </g>
  <rect class="cls-6" x="621.872" y="18.818" width="151.845" height="43.566"/>
  <g>
    <path d="M650.734,36.883h1.792V38.15a2.709,2.709,0,0,1,2.362-1.394,2.494,2.494,0,0,1,2.33,1.537,2.93,2.93,0,0,1,2.632-1.537,2.632,2.632,0,0,1,2.6,2.885v5.184h-1.792v-4.8a1.608,1.608,0,0,0-1.6-1.823,1.894,1.894,0,0,0-1.6.936c.016.174.032.333.032.507v5.184H655.7v-4.8a1.608,1.608,0,0,0-1.6-1.823,1.842,1.842,0,0,0-1.569.9v5.723h-1.792Z"/>
    <path d="M664.226,42.542c0-1.427,1.157-2.33,3.027-2.33a4.913,4.913,0,0,1,2.141.491v-.872c0-1.046-.6-1.585-1.823-1.585a5.509,5.509,0,0,0-2.315.618l-.635-1.3a7.628,7.628,0,0,1,3.3-.808c2.062,0,3.25,1.046,3.25,2.885v5.184h-1.775v-.808a3.317,3.317,0,0,1-2.362.935C665.367,44.952,664.226,43.969,664.226,42.542Zm3.3,1.157a2.836,2.836,0,0,0,1.871-.649v-1.3a4.1,4.1,0,0,0-1.839-.381c-1.015,0-1.649.443-1.649,1.142C665.906,43.24,666.54,43.7,667.523,43.7Z"/>
    <path d="M673.341,36.883h1.792v1.3a2.881,2.881,0,0,1,2.521-1.427,2.673,2.673,0,0,1,2.743,2.838v5.231h-1.792V40.1a1.711,1.711,0,0,0-1.744-1.9,2.037,2.037,0,0,0-1.728.951v5.676h-1.792Z"/>
    <path d="M682.346,34.172a1.118,1.118,0,0,1,2.235,0,1.118,1.118,0,0,1-2.235,0Zm2.014,10.653h-1.792V36.883h1.792Z"/>
    <path d="M688.355,44.825h-1.792V33.489l1.792-.3Z"/>
    <path d="M690.162,42.542c0-1.427,1.158-2.33,3.028-2.33a4.905,4.905,0,0,1,2.14.491v-.872c0-1.046-.6-1.585-1.823-1.585a5.505,5.505,0,0,0-2.314.618l-.635-1.3a7.622,7.622,0,0,1,3.3-.808c2.061,0,3.25,1.046,3.25,2.885v5.184H695.33v-.808a3.316,3.316,0,0,1-2.362.935C691.3,44.952,690.162,43.969,690.162,42.542Zm3.3,1.157a2.836,2.836,0,0,0,1.871-.649v-1.3a4.1,4.1,0,0,0-1.838-.381c-1.015,0-1.65.443-1.65,1.142C691.842,43.24,692.477,43.7,693.459,43.7Z"/>
    <path d="M704.588,39.577v1.507h-5.517V39.577Z"/>
    <path d="M706.728,42.7a4.578,4.578,0,0,0,2.553.9c.951,0,1.6-.427,1.6-1.062,0-.491-.333-.761-1.094-.9l-1.411-.239c-1.538-.285-2.3-1-2.3-2.187,0-1.49,1.221-2.457,3.076-2.457a5.589,5.589,0,0,1,3.123.951l-.84,1.173a4.336,4.336,0,0,0-2.395-.761c-.824,0-1.363.349-1.363.936,0,.507.286.728,1.126.872l1.4.253c1.584.3,2.345,1.031,2.345,2.219,0,1.459-1.394,2.584-3.234,2.584a5.319,5.319,0,0,1-3.424-1.078Z"/>
    <path d="M714.2,33.489l1.792-.3v4.995a2.88,2.88,0,0,1,2.52-1.427,2.673,2.673,0,0,1,2.743,2.838v5.231h-1.792V40.1a1.71,1.71,0,0,0-1.744-1.9,2.034,2.034,0,0,0-1.727.951v5.676H714.2Z"/>
    <path d="M723.026,42.542c0-1.427,1.157-2.33,3.027-2.33a4.913,4.913,0,0,1,2.141.491v-.872c0-1.046-.6-1.585-1.824-1.585a5.505,5.505,0,0,0-2.314.618l-.635-1.3a7.628,7.628,0,0,1,3.3-.808c2.062,0,3.25,1.046,3.25,2.885v5.184h-1.775v-.808a3.318,3.318,0,0,1-2.363.935C724.166,44.952,723.026,43.969,723.026,42.542Zm3.3,1.157a2.838,2.838,0,0,0,1.871-.649v-1.3a4.106,4.106,0,0,0-1.839-.381c-1.015,0-1.65.443-1.65,1.142C724.705,43.24,725.34,43.7,726.323,43.7Z"/>
    <path d="M732.141,36.883h1.792V38.61a2.356,2.356,0,0,1,2.187-1.871,2.152,2.152,0,0,1,.778.159v1.57a2.527,2.527,0,0,0-.984-.191,2.18,2.18,0,0,0-1.981,1.317v5.231h-1.792Z"/>
    <path d="M741.669,44.983a4.037,4.037,0,0,1-4.043-4.122,3.911,3.911,0,0,1,3.868-4.1,3.812,3.812,0,0,1,3.758,4.09v.444h-5.866a2.426,2.426,0,0,0,2.378,2.172,2.584,2.584,0,0,0,1.887-.745l1.173,1.094A4.594,4.594,0,0,1,741.669,44.983ZM739.417,40.2h4.139a2.174,2.174,0,0,0-2.077-1.982A2.135,2.135,0,0,0,739.417,40.2Z"/>
  </g>
  <g>
    <line class="cls-5" x1="448.285" y1="122.438" x2="448.285" y2="69.896"/>
    <polygon points="453.271 120.979 448.285 129.614 443.299 120.979 453.271 120.979"/>
    <polygon points="453.271 71.355 448.285 62.72 443.299 71.355 453.271 71.355"/>
  </g>
  <g>
    <rect class="cls-2" x="372.362" y="18.818" width="151.845" height="43.566"/>
    <g>
      <path d="M385.2,36.882h1.792v1.267a2.708,2.708,0,0,1,2.362-1.394,2.5,2.5,0,0,1,2.33,1.537,2.929,2.929,0,0,1,2.632-1.537,2.631,2.631,0,0,1,2.6,2.885v5.184h-1.792v-4.8a1.608,1.608,0,0,0-1.6-1.824,1.893,1.893,0,0,0-1.6.936c.016.174.032.333.032.507v5.184H390.16v-4.8a1.608,1.608,0,0,0-1.6-1.824,1.842,1.842,0,0,0-1.569.9v5.723H385.2Z"/>
      <path d="M398.689,42.541c0-1.427,1.157-2.33,3.027-2.33a4.913,4.913,0,0,1,2.141.491V39.83c0-1.046-.6-1.585-1.823-1.585a5.509,5.509,0,0,0-2.315.618l-.635-1.3a7.628,7.628,0,0,1,3.3-.808c2.062,0,3.25,1.046,3.25,2.885v5.184h-1.775v-.808a3.318,3.318,0,0,1-2.363.935C399.829,44.951,398.689,43.968,398.689,42.541Zm3.3,1.157a2.836,2.836,0,0,0,1.871-.649v-1.3a4.106,4.106,0,0,0-1.839-.381c-1.015,0-1.65.444-1.65,1.142C400.368,43.239,401,43.7,401.986,43.7Z"/>
      <path d="M407.8,36.882H409.6v1.3a2.881,2.881,0,0,1,2.521-1.427,2.673,2.673,0,0,1,2.743,2.838v5.231h-1.792V40.1a1.711,1.711,0,0,0-1.744-1.9,2.037,2.037,0,0,0-1.728.951v5.676H407.8Z"/>
      <path d="M416.809,34.17a1.118,1.118,0,0,1,2.235,0,1.118,1.118,0,0,1-2.235,0Zm2.014,10.654h-1.792V36.882h1.792Z"/>
      <path d="M422.818,44.824h-1.792V33.488l1.792-.3Z"/>
      <path d="M424.625,42.541c0-1.427,1.158-2.33,3.028-2.33a4.908,4.908,0,0,1,2.14.491V39.83c0-1.046-.6-1.585-1.823-1.585a5.505,5.505,0,0,0-2.314.618l-.635-1.3a7.622,7.622,0,0,1,3.3-.808c2.061,0,3.25,1.046,3.25,2.885v5.184h-1.776v-.808a3.317,3.317,0,0,1-2.362.935C425.766,44.951,424.625,43.968,424.625,42.541Zm3.3,1.157a2.836,2.836,0,0,0,1.871-.649v-1.3a4.1,4.1,0,0,0-1.839-.381c-1.014,0-1.649.444-1.649,1.142C426.305,43.239,426.94,43.7,427.922,43.7Z"/>
      <path d="M439.051,39.576v1.507h-5.517V39.576Z"/>
      <path d="M441.191,42.7a4.58,4.58,0,0,0,2.552.9c.952,0,1.6-.428,1.6-1.063,0-.491-.333-.761-1.094-.9L442.84,41.4c-1.538-.285-2.3-1-2.3-2.187,0-1.49,1.221-2.457,3.076-2.457a5.589,5.589,0,0,1,3.123.951l-.84,1.173a4.336,4.336,0,0,0-2.395-.761c-.824,0-1.363.349-1.363.936,0,.507.286.728,1.126.872l1.4.253c1.585.3,2.346,1.031,2.346,2.219,0,1.459-1.394,2.584-3.234,2.584a5.319,5.319,0,0,1-3.424-1.078Z"/>
      <path d="M454.412,42.525l1.079,1.079a4.133,4.133,0,0,1-3.108,1.378,4.107,4.107,0,0,1,0-8.211,4.278,4.278,0,0,1,3.171,1.332l-1.109,1.157a2.628,2.628,0,0,0-2-.936,2.548,2.548,0,0,0,.047,5.073A2.438,2.438,0,0,0,454.412,42.525Z"/>
      <path d="M457.029,33.488l1.792-.3v4.994a2.88,2.88,0,0,1,2.52-1.427,2.673,2.673,0,0,1,2.743,2.838v5.231h-1.792V40.1a1.71,1.71,0,0,0-1.744-1.9,2.034,2.034,0,0,0-1.727.951v5.676h-1.792Z"/>
      <path d="M469.934,44.982a4.036,4.036,0,0,1-4.043-4.122,3.911,3.911,0,0,1,3.868-4.1,3.812,3.812,0,0,1,3.758,4.09v.444h-5.866a2.426,2.426,0,0,0,2.378,2.172,2.58,2.58,0,0,0,1.886-.745l1.173,1.094A4.593,4.593,0,0,1,469.934,44.982ZM467.683,40.2h4.138a2.174,2.174,0,0,0-2.078-1.982A2.133,2.133,0,0,0,467.683,40.2Z"/>
      <path d="M481.062,43.762A3.055,3.055,0,0,1,478.62,44.9a3.811,3.811,0,0,1-3.6-4.043,3.848,3.848,0,0,1,3.71-4.042,3.03,3.03,0,0,1,2.314,1.046V33.488l1.792-.3V44.824h-1.776Zm-1.9-.365a2.376,2.376,0,0,0,1.886-.872V39.181a2.464,2.464,0,0,0-1.886-.857,2.543,2.543,0,0,0,0,5.073Z"/>
      <path d="M486.8,41.605a1.711,1.711,0,0,0,1.744,1.9,2,2,0,0,0,1.744-.984V36.882h1.791v7.942h-1.791V43.509a2.907,2.907,0,0,1-2.537,1.442,2.664,2.664,0,0,1-2.742-2.838V36.882H486.8Z"/>
      <path d="M496.076,44.824h-1.792V33.488l1.792-.3Z"/>
      <path d="M501.957,44.982a4.037,4.037,0,0,1-4.043-4.122,3.912,3.912,0,0,1,3.869-4.1,3.812,3.812,0,0,1,3.757,4.09v.444h-5.866a2.426,2.426,0,0,0,2.378,2.172,2.584,2.584,0,0,0,1.887-.745l1.173,1.094A4.594,4.594,0,0,1,501.957,44.982ZM499.706,40.2h4.138a2.174,2.174,0,0,0-2.077-1.982A2.133,2.133,0,0,0,499.706,40.2Z"/>
      <path d="M507.363,36.882h1.792v1.727a2.355,2.355,0,0,1,2.187-1.871,2.142,2.142,0,0,1,.777.159v1.57a2.526,2.526,0,0,0-.983-.191,2.18,2.18,0,0,0-1.981,1.317v5.231h-1.792Z"/>
    </g>
  </g>
  <g>
    <path d="M665.479,87.568c2.093,0,3.5,1.173,3.5,2.917a2.658,2.658,0,0,1-1.776,2.457,2.776,2.776,0,0,1,2.157,2.632c0,1.839-1.475,3.092-3.662,3.092h-5.153v-11.1Zm-3.028,1.554v3.107h2.837c1.094,0,1.791-.6,1.791-1.553s-.7-1.554-1.791-1.554Zm4.994,6.278a1.731,1.731,0,0,0-1.966-1.7h-3.028v3.408h3.028A1.743,1.743,0,0,0,667.445,95.4Z"/>
    <path d="M670.964,96.383c0-1.427,1.157-2.33,3.028-2.33a4.908,4.908,0,0,1,2.14.491v-.872c0-1.046-.6-1.585-1.823-1.585a5.494,5.494,0,0,0-2.315.618l-.634-1.3a7.622,7.622,0,0,1,3.3-.808c2.061,0,3.25,1.046,3.25,2.884v5.185h-1.776v-.809a3.314,3.314,0,0,1-2.362.936C672.105,98.793,670.964,97.81,670.964,96.383Zm3.3,1.157a2.836,2.836,0,0,0,1.871-.649v-1.3a4.1,4.1,0,0,0-1.839-.381c-1.014,0-1.649.443-1.649,1.142C672.644,97.081,673.279,97.54,674.261,97.54Z"/>
    <path d="M685.755,96.367l1.078,1.078a4.126,4.126,0,0,1-3.107,1.379,4.107,4.107,0,0,1,0-8.212,4.282,4.282,0,0,1,3.171,1.332l-1.11,1.158a2.623,2.623,0,0,0-2-.936,2.548,2.548,0,0,0,.048,5.073A2.438,2.438,0,0,0,685.755,96.367Z"/>
    <path d="M688.37,87.33l1.792-.3v7.087l3.3-3.392h2.045L691.874,94.4l3.853,4.265h-2.3L690.162,95v3.662H688.37Z"/>
    <path d="M704.193,98.824A4.036,4.036,0,0,1,700.15,94.7a3.911,3.911,0,0,1,3.868-4.105,3.812,3.812,0,0,1,3.758,4.09v.444H701.91a2.426,2.426,0,0,0,2.377,2.172,2.581,2.581,0,0,0,1.887-.745l1.173,1.093A4.59,4.59,0,0,1,704.193,98.824Zm-2.252-4.787h4.138A2.173,2.173,0,0,0,704,92.055,2.135,2.135,0,0,0,701.941,94.037Z"/>
    <path d="M709.6,90.724h1.792v1.3a2.882,2.882,0,0,1,2.52-1.426,2.673,2.673,0,0,1,2.744,2.838v5.231h-1.792V93.941a1.711,1.711,0,0,0-1.744-1.9,2.037,2.037,0,0,0-1.728.951v5.676H709.6Z"/>
    <path d="M724.5,97.6a3.055,3.055,0,0,1-2.441,1.141,4.064,4.064,0,0,1,.111-8.085,3.032,3.032,0,0,1,2.315,1.046V87.33l1.792-.3V98.666H724.5Zm-1.9-.365a2.378,2.378,0,0,0,1.887-.872V93.022a2.465,2.465,0,0,0-1.887-.856,2.543,2.543,0,0,0,0,5.073Z"/>
    <path d="M735.233,98.666h-1.728v-9.29l-1.966.855V88.694l2.6-1.126h1.094Z"/>
  </g>
  <rect class="cls-6" x="621.872" y="139.671" width="151.845" height="43.566"/>
  <g>
    <path d="M650.734,157.735h1.792V159a2.71,2.71,0,0,1,2.362-1.395,2.5,2.5,0,0,1,2.33,1.538,2.931,2.931,0,0,1,2.632-1.538,2.632,2.632,0,0,1,2.6,2.885v5.185h-1.792v-4.8a1.608,1.608,0,0,0-1.6-1.823,1.893,1.893,0,0,0-1.6.935c.016.174.032.333.032.507v5.185H655.7v-4.8a1.608,1.608,0,0,0-1.6-1.823,1.843,1.843,0,0,0-1.569.9v5.724h-1.792Z"/>
    <path d="M664.226,163.4c0-1.427,1.157-2.331,3.027-2.331a4.914,4.914,0,0,1,2.141.492v-.872c0-1.046-.6-1.585-1.823-1.585a5.494,5.494,0,0,0-2.315.618l-.635-1.3a7.616,7.616,0,0,1,3.3-.809c2.062,0,3.25,1.046,3.25,2.885v5.185h-1.775v-.809a3.314,3.314,0,0,1-2.362.936C665.367,165.805,664.226,164.821,664.226,163.4Zm3.3,1.157a2.832,2.832,0,0,0,1.871-.65v-1.3a4.1,4.1,0,0,0-1.839-.381c-1.015,0-1.649.443-1.649,1.141C665.906,164.093,666.54,164.552,667.523,164.552Z"/>
    <path d="M673.341,157.735h1.792v1.3a2.883,2.883,0,0,1,2.521-1.427,2.673,2.673,0,0,1,2.743,2.838v5.232h-1.792v-4.725a1.711,1.711,0,0,0-1.744-1.9,2.037,2.037,0,0,0-1.728.951v5.676h-1.792Z"/>
    <path d="M682.346,155.023a1.118,1.118,0,0,1,2.235,0,1.118,1.118,0,0,1-2.235,0Zm2.014,10.655h-1.792v-7.943h1.792Z"/>
    <path d="M688.355,165.678h-1.792V154.342l1.792-.3Z"/>
    <path d="M690.162,163.4c0-1.427,1.158-2.331,3.028-2.331a4.907,4.907,0,0,1,2.14.492v-.872c0-1.046-.6-1.585-1.823-1.585a5.49,5.49,0,0,0-2.314.618l-.635-1.3a7.61,7.61,0,0,1,3.3-.809c2.061,0,3.25,1.046,3.25,2.885v5.185H695.33v-.809a3.312,3.312,0,0,1-2.362.936C691.3,165.805,690.162,164.821,690.162,163.4Zm3.3,1.157a2.832,2.832,0,0,0,1.871-.65v-1.3a4.1,4.1,0,0,0-1.838-.381c-1.015,0-1.65.443-1.65,1.141C691.842,164.093,692.477,164.552,693.459,164.552Z"/>
    <path d="M704.588,160.43v1.507h-5.517V160.43Z"/>
    <path d="M706.728,163.554a4.585,4.585,0,0,0,2.553.9c.951,0,1.6-.428,1.6-1.062,0-.492-.333-.761-1.094-.9l-1.411-.238c-1.538-.285-2.3-1-2.3-2.188,0-1.49,1.221-2.457,3.076-2.457a5.582,5.582,0,0,1,3.123.952l-.84,1.172a4.342,4.342,0,0,0-2.395-.76c-.824,0-1.363.348-1.363.935,0,.507.286.729,1.126.872l1.4.253c1.584.3,2.345,1.031,2.345,2.22,0,1.459-1.394,2.584-3.234,2.584a5.325,5.325,0,0,1-3.424-1.078Z"/>
    <path d="M714.2,154.342l1.792-.3v4.994a2.882,2.882,0,0,1,2.52-1.427,2.673,2.673,0,0,1,2.743,2.838v5.232h-1.792v-4.725a1.71,1.71,0,0,0-1.744-1.9,2.034,2.034,0,0,0-1.727.951v5.676H714.2Z"/>
    <path d="M723.026,163.4c0-1.427,1.157-2.331,3.027-2.331a4.914,4.914,0,0,1,2.141.492v-.872c0-1.046-.6-1.585-1.824-1.585a5.49,5.49,0,0,0-2.314.618l-.635-1.3a7.616,7.616,0,0,1,3.3-.809c2.062,0,3.25,1.046,3.25,2.885v5.185h-1.775v-.809a3.315,3.315,0,0,1-2.363.936C724.166,165.805,723.026,164.821,723.026,163.4Zm3.3,1.157a2.834,2.834,0,0,0,1.871-.65v-1.3a4.106,4.106,0,0,0-1.839-.381c-1.015,0-1.65.443-1.65,1.141C724.705,164.093,725.34,164.552,726.323,164.552Z"/>
    <path d="M732.141,157.735h1.792v1.728a2.354,2.354,0,0,1,2.187-1.871,2.131,2.131,0,0,1,.778.159v1.569a2.527,2.527,0,0,0-.984-.19,2.179,2.179,0,0,0-1.981,1.316v5.232h-1.792Z"/>
    <path d="M741.669,165.836a4.037,4.037,0,0,1-4.043-4.122,3.912,3.912,0,0,1,3.868-4.106,3.813,3.813,0,0,1,3.758,4.09v.445h-5.866a2.426,2.426,0,0,0,2.378,2.171,2.58,2.58,0,0,0,1.887-.745l1.173,1.094A4.59,4.59,0,0,1,741.669,165.836Zm-2.252-4.787h4.139a2.175,2.175,0,0,0-2.077-1.983A2.136,2.136,0,0,0,739.417,161.049Z"/>
  </g>
  <g>
    <path d="M665.479,208.421c2.093,0,3.5,1.173,3.5,2.917a2.659,2.659,0,0,1-1.776,2.457,2.776,2.776,0,0,1,2.157,2.632c0,1.839-1.475,3.092-3.662,3.092h-5.153v-11.1Zm-3.028,1.554v3.107h2.837c1.094,0,1.791-.6,1.791-1.554s-.7-1.553-1.791-1.553Zm4.994,6.278a1.731,1.731,0,0,0-1.966-1.7h-3.028v3.408h3.028A1.743,1.743,0,0,0,667.445,216.253Z"/>
    <path d="M670.964,217.235c0-1.426,1.157-2.33,3.028-2.33a4.908,4.908,0,0,1,2.14.491v-.872c0-1.045-.6-1.585-1.823-1.585a5.5,5.5,0,0,0-2.315.619l-.634-1.3a7.61,7.61,0,0,1,3.3-.809c2.061,0,3.25,1.046,3.25,2.885v5.185h-1.776v-.809a3.318,3.318,0,0,1-2.362.936C672.105,219.646,670.964,218.662,670.964,217.235Zm3.3,1.158a2.832,2.832,0,0,0,1.871-.65v-1.3a4.114,4.114,0,0,0-1.839-.381c-1.014,0-1.649.444-1.649,1.142C672.644,217.934,673.279,218.393,674.261,218.393Z"/>
    <path d="M685.755,217.22l1.078,1.078a4.13,4.13,0,0,1-3.107,1.379,4.107,4.107,0,0,1,0-8.212A4.278,4.278,0,0,1,686.9,212.8l-1.11,1.157a2.625,2.625,0,0,0-2-.935,2.548,2.548,0,0,0,.048,5.073A2.441,2.441,0,0,0,685.755,217.22Z"/>
    <path d="M688.37,208.183l1.792-.3v7.087l3.3-3.393h2.045l-3.631,3.678,3.853,4.265h-2.3l-3.266-3.663v3.663H688.37Z"/>
    <path d="M704.193,219.677a4.037,4.037,0,0,1-4.043-4.122,3.912,3.912,0,0,1,3.868-4.106,3.813,3.813,0,0,1,3.758,4.09v.444H701.91a2.426,2.426,0,0,0,2.377,2.172,2.577,2.577,0,0,0,1.887-.745l1.173,1.094A4.594,4.594,0,0,1,704.193,219.677Zm-2.252-4.787h4.138A2.174,2.174,0,0,0,704,212.907,2.135,2.135,0,0,0,701.941,214.89Z"/>
    <path d="M709.6,211.576h1.792v1.3a2.881,2.881,0,0,1,2.52-1.427,2.673,2.673,0,0,1,2.744,2.838v5.232h-1.792v-4.725a1.711,1.711,0,0,0-1.744-1.9,2.037,2.037,0,0,0-1.728.951v5.676H709.6Z"/>
    <path d="M724.5,218.456a3.053,3.053,0,0,1-2.441,1.142,4.064,4.064,0,0,1,.111-8.085,3.032,3.032,0,0,1,2.315,1.046v-4.376l1.792-.3v11.637H724.5Zm-1.9-.364a2.381,2.381,0,0,0,1.887-.872v-3.345a2.465,2.465,0,0,0-1.887-.856,2.543,2.543,0,0,0,0,5.073Z"/>
    <path d="M735.233,219.519h-1.728v-9.29l-1.966.855v-1.537l2.6-1.126h1.094Z"/>
  </g>
  <rect class="cls-6" x="621.872" y="260.524" width="151.845" height="43.566"/>
  <g>
    <path d="M650.734,278.588h1.792v1.267a2.711,2.711,0,0,1,2.362-1.394,2.494,2.494,0,0,1,2.33,1.537,2.93,2.93,0,0,1,2.632-1.537,2.632,2.632,0,0,1,2.6,2.885v5.184h-1.792v-4.8a1.608,1.608,0,0,0-1.6-1.824,1.894,1.894,0,0,0-1.6.936c.016.174.032.333.032.507v5.184H655.7v-4.8a1.608,1.608,0,0,0-1.6-1.824,1.842,1.842,0,0,0-1.569.9v5.723h-1.792Z"/>
    <path d="M664.226,284.247c0-1.427,1.157-2.33,3.027-2.33a4.913,4.913,0,0,1,2.141.491v-.872c0-1.046-.6-1.585-1.823-1.585a5.509,5.509,0,0,0-2.315.618l-.635-1.3a7.616,7.616,0,0,1,3.3-.809c2.062,0,3.25,1.046,3.25,2.885v5.184h-1.775v-.808a3.317,3.317,0,0,1-2.362.935C665.367,286.657,664.226,285.674,664.226,284.247Zm3.3,1.157a2.836,2.836,0,0,0,1.871-.649v-1.3a4.117,4.117,0,0,0-1.839-.381c-1.015,0-1.649.444-1.649,1.142C665.906,284.945,666.54,285.4,667.523,285.4Z"/>
    <path d="M673.341,278.588h1.792v1.3a2.881,2.881,0,0,1,2.521-1.427A2.673,2.673,0,0,1,680.4,281.3v5.231h-1.792v-4.724a1.711,1.711,0,0,0-1.744-1.9,2.037,2.037,0,0,0-1.728.951v5.676h-1.792Z"/>
    <path d="M682.346,275.877a1.118,1.118,0,0,1,2.235,0,1.118,1.118,0,0,1-2.235,0Zm2.014,10.653h-1.792v-7.942h1.792Z"/>
    <path d="M688.355,286.53h-1.792V275.194l1.792-.3Z"/>
    <path d="M690.162,284.247c0-1.427,1.158-2.33,3.028-2.33a4.905,4.905,0,0,1,2.14.491v-.872c0-1.046-.6-1.585-1.823-1.585a5.505,5.505,0,0,0-2.314.618l-.635-1.3a7.61,7.61,0,0,1,3.3-.809c2.061,0,3.25,1.046,3.25,2.885v5.184H695.33v-.808a3.316,3.316,0,0,1-2.362.935C691.3,286.657,690.162,285.674,690.162,284.247Zm3.3,1.157a2.836,2.836,0,0,0,1.871-.649v-1.3a4.113,4.113,0,0,0-1.838-.381c-1.015,0-1.65.444-1.65,1.142C691.842,284.945,692.477,285.4,693.459,285.4Z"/>
    <path d="M704.588,281.282v1.507h-5.517v-1.507Z"/>
    <path d="M706.728,284.406a4.58,4.58,0,0,0,2.553.9c.951,0,1.6-.428,1.6-1.063,0-.491-.333-.761-1.094-.9l-1.411-.239c-1.538-.285-2.3-1-2.3-2.187,0-1.49,1.221-2.457,3.076-2.457a5.589,5.589,0,0,1,3.123.951l-.84,1.173a4.344,4.344,0,0,0-2.395-.761c-.824,0-1.363.349-1.363.936,0,.507.286.728,1.126.872l1.4.253c1.584.3,2.345,1.031,2.345,2.219,0,1.459-1.394,2.584-3.234,2.584a5.319,5.319,0,0,1-3.424-1.078Z"/>
    <path d="M714.2,275.194l1.792-.3v4.994a2.88,2.88,0,0,1,2.52-1.427,2.673,2.673,0,0,1,2.743,2.838v5.231h-1.792v-4.724a1.71,1.71,0,0,0-1.744-1.9,2.034,2.034,0,0,0-1.727.951v5.676H714.2Z"/>
    <path d="M723.026,284.247c0-1.427,1.157-2.33,3.027-2.33a4.913,4.913,0,0,1,2.141.491v-.872c0-1.046-.6-1.585-1.824-1.585a5.505,5.505,0,0,0-2.314.618l-.635-1.3a7.616,7.616,0,0,1,3.3-.809c2.062,0,3.25,1.046,3.25,2.885v5.184h-1.775v-.808a3.318,3.318,0,0,1-2.363.935C724.166,286.657,723.026,285.674,723.026,284.247Zm3.3,1.157a2.838,2.838,0,0,0,1.871-.649v-1.3a4.12,4.12,0,0,0-1.839-.381c-1.015,0-1.65.444-1.65,1.142C724.705,284.945,725.34,285.4,726.323,285.4Z"/>
    <path d="M732.141,278.588h1.792v1.727a2.356,2.356,0,0,1,2.187-1.871,2.132,2.132,0,0,1,.778.16v1.569a2.527,2.527,0,0,0-.984-.191,2.18,2.18,0,0,0-1.981,1.317v5.231h-1.792Z"/>
    <path d="M741.669,286.688a4.037,4.037,0,0,1-4.043-4.122,3.911,3.911,0,0,1,3.868-4.1,3.812,3.812,0,0,1,3.758,4.09V283h-5.866a2.426,2.426,0,0,0,2.378,2.172,2.584,2.584,0,0,0,1.887-.745l1.173,1.094A4.594,4.594,0,0,1,741.669,286.688Zm-2.252-4.787h4.139a2.175,2.175,0,0,0-2.077-1.982A2.135,2.135,0,0,0,739.417,281.9Z"/>
  </g>
  <g>
    <path d="M665.479,329.274c2.093,0,3.5,1.173,3.5,2.917a2.658,2.658,0,0,1-1.776,2.457,2.777,2.777,0,0,1,2.157,2.632c0,1.839-1.475,3.092-3.662,3.092h-5.153v-11.1Zm-3.028,1.554v3.108h2.837c1.094,0,1.791-.6,1.791-1.554s-.7-1.554-1.791-1.554Zm4.994,6.278a1.731,1.731,0,0,0-1.966-1.7h-3.028v3.408h3.028A1.743,1.743,0,0,0,667.445,337.106Z"/>
    <path d="M670.964,338.089c0-1.427,1.157-2.33,3.028-2.33a4.908,4.908,0,0,1,2.14.491v-.872c0-1.046-.6-1.585-1.823-1.585a5.494,5.494,0,0,0-2.315.618l-.634-1.3a7.622,7.622,0,0,1,3.3-.808c2.061,0,3.25,1.046,3.25,2.885v5.184h-1.776v-.809a3.314,3.314,0,0,1-2.362.936C672.105,340.5,670.964,339.516,670.964,338.089Zm3.3,1.157a2.836,2.836,0,0,0,1.871-.649v-1.3a4.1,4.1,0,0,0-1.839-.381c-1.014,0-1.649.443-1.649,1.142C672.644,338.787,673.279,339.246,674.261,339.246Z"/>
    <path d="M685.755,338.073l1.078,1.078a4.126,4.126,0,0,1-3.107,1.379,4.107,4.107,0,0,1,0-8.212,4.282,4.282,0,0,1,3.171,1.332l-1.11,1.158a2.623,2.623,0,0,0-2-.936,2.548,2.548,0,0,0,.048,5.073A2.438,2.438,0,0,0,685.755,338.073Z"/>
    <path d="M688.37,329.036l1.792-.3v7.087l3.3-3.392h2.045l-3.631,3.677,3.853,4.265h-2.3l-3.266-3.662v3.662H688.37Z"/>
    <path d="M704.193,340.53a4.036,4.036,0,0,1-4.043-4.122,3.911,3.911,0,0,1,3.868-4.105,3.812,3.812,0,0,1,3.758,4.09v.444H701.91a2.426,2.426,0,0,0,2.377,2.172,2.581,2.581,0,0,0,1.887-.745l1.173,1.093A4.59,4.59,0,0,1,704.193,340.53Zm-2.252-4.787h4.138A2.173,2.173,0,0,0,704,333.761,2.135,2.135,0,0,0,701.941,335.743Z"/>
    <path d="M709.6,332.43h1.792v1.3a2.882,2.882,0,0,1,2.52-1.426,2.673,2.673,0,0,1,2.744,2.838v5.231h-1.792v-4.725a1.711,1.711,0,0,0-1.744-1.9,2.037,2.037,0,0,0-1.728.951v5.676H709.6Z"/>
    <path d="M724.5,339.31a3.055,3.055,0,0,1-2.441,1.141,4.064,4.064,0,0,1,.111-8.085,3.032,3.032,0,0,1,2.315,1.046v-4.376l1.792-.3v11.637H724.5Zm-1.9-.365a2.378,2.378,0,0,0,1.887-.872v-3.344a2.463,2.463,0,0,0-1.887-.857,2.543,2.543,0,0,0,0,5.073Z"/>
    <path d="M735.233,340.372h-1.728v-9.29l-1.966.856V330.4l2.6-1.126h1.094Z"/>
  </g>
  <g>
    <path d="M417.4,209.107h1.792v1.268a2.71,2.71,0,0,1,2.362-1.4,2.5,2.5,0,0,1,2.33,1.538,2.931,2.931,0,0,1,2.632-1.538,2.632,2.632,0,0,1,2.6,2.885v5.185h-1.792v-4.8a1.608,1.608,0,0,0-1.6-1.823,1.893,1.893,0,0,0-1.6.935c.016.174.032.333.032.507v5.185h-1.791v-4.8a1.608,1.608,0,0,0-1.6-1.823,1.843,1.843,0,0,0-1.569.9v5.724H417.4Z"/>
    <path d="M434.965,217.208a4.037,4.037,0,0,1-4.043-4.122,3.912,3.912,0,0,1,3.868-4.106,3.813,3.813,0,0,1,3.758,4.09v.445h-5.866a2.426,2.426,0,0,0,2.378,2.172,2.581,2.581,0,0,0,1.887-.746l1.172,1.094A4.586,4.586,0,0,1,434.965,217.208Zm-2.251-4.787h4.138a2.175,2.175,0,0,0-2.077-1.983A2.134,2.134,0,0,0,432.714,212.421Z"/>
    <path d="M440.577,214.926a4.585,4.585,0,0,0,2.552.9c.951,0,1.6-.428,1.6-1.062,0-.492-.333-.761-1.094-.9l-1.411-.238c-1.538-.285-2.3-1-2.3-2.187,0-1.491,1.221-2.458,3.075-2.458a5.577,5.577,0,0,1,3.123.952l-.84,1.172a4.339,4.339,0,0,0-2.393-.76c-.825,0-1.364.348-1.364.935,0,.507.286.729,1.126.872l1.395.253c1.585.3,2.346,1.032,2.346,2.22,0,1.459-1.395,2.584-3.235,2.584a5.324,5.324,0,0,1-3.423-1.078Z"/>
    <path d="M448.234,214.926a4.585,4.585,0,0,0,2.552.9c.952,0,1.6-.428,1.6-1.062,0-.492-.333-.761-1.094-.9l-1.411-.238c-1.538-.285-2.3-1-2.3-2.187,0-1.491,1.221-2.458,3.076-2.458a5.582,5.582,0,0,1,3.123.952l-.84,1.172a4.345,4.345,0,0,0-2.395-.76c-.824,0-1.363.348-1.363.935,0,.507.286.729,1.126.872l1.4.253c1.585.3,2.346,1.032,2.346,2.22,0,1.459-1.394,2.584-3.234,2.584a5.325,5.325,0,0,1-3.424-1.078Z"/>
    <path d="M455.384,214.767c0-1.427,1.157-2.33,3.027-2.33a4.909,4.909,0,0,1,2.141.491v-.872c0-1.046-.6-1.585-1.823-1.585a5.494,5.494,0,0,0-2.315.618l-.634-1.3a7.609,7.609,0,0,1,3.3-.809c2.062,0,3.25,1.046,3.25,2.885v5.185h-1.775v-.809a3.314,3.314,0,0,1-2.362.936C456.525,217.177,455.384,216.193,455.384,214.767Zm3.3,1.157a2.832,2.832,0,0,0,1.871-.65v-1.3a4.1,4.1,0,0,0-1.839-.381c-1.014,0-1.649.443-1.649,1.141C457.064,215.465,457.7,215.924,458.681,215.924Z"/>
    <path d="M464.135,213.07a3.833,3.833,0,0,1,3.71-4.026,2.986,2.986,0,0,1,2.33,1.078v-1.015h1.777v8.212c0,2.045-1.333,3.171-3.743,3.171a6.891,6.891,0,0,1-3.186-.761l.635-1.332a5.4,5.4,0,0,0,2.472.682c1.332,0,2.03-.6,2.03-1.76v-1.347a3.085,3.085,0,0,1-2.426,1.126A3.807,3.807,0,0,1,464.135,213.07Zm4.138,2.537a2.378,2.378,0,0,0,1.887-.872v-3.329a2.465,2.465,0,0,0-1.887-.856,2.37,2.37,0,0,0-2.363,2.52A2.4,2.4,0,0,0,468.273,215.607Z"/>
    <path d="M477.832,217.208a4.037,4.037,0,0,1-4.043-4.122,3.912,3.912,0,0,1,3.869-4.106,3.813,3.813,0,0,1,3.757,4.09v.445h-5.866a2.426,2.426,0,0,0,2.378,2.172,2.581,2.581,0,0,0,1.887-.746l1.173,1.094A4.59,4.59,0,0,1,477.832,217.208Zm-2.251-4.787h4.138a2.175,2.175,0,0,0-2.077-1.983A2.134,2.134,0,0,0,475.581,212.421Z"/>
    <path d="M426.809,228.335a3.847,3.847,0,0,1,3.71-4.042,2.986,2.986,0,0,1,2.33,1.078v-1.015h1.776v11.3h-1.792v-4.407a3.081,3.081,0,0,1-2.425,1.125A3.811,3.811,0,0,1,426.809,228.335Zm4.138,2.537a2.379,2.379,0,0,0,1.886-.872v-3.345a2.463,2.463,0,0,0-1.886-.856,2.543,2.543,0,0,0,0,5.073Z"/>
    <path d="M438.588,229.08a1.711,1.711,0,0,0,1.744,1.9,2.006,2.006,0,0,0,1.745-.983v-5.644h1.791V232.3h-1.791v-1.316a2.907,2.907,0,0,1-2.538,1.443,2.664,2.664,0,0,1-2.742-2.838v-5.232h1.791Z"/>
    <path d="M449.749,232.457a4.037,4.037,0,0,1-4.043-4.122,3.912,3.912,0,0,1,3.869-4.106,3.813,3.813,0,0,1,3.757,4.09v.445h-5.866a2.426,2.426,0,0,0,2.378,2.172,2.581,2.581,0,0,0,1.887-.746l1.173,1.094A4.59,4.59,0,0,1,449.749,232.457ZM447.5,227.67h4.139a2.174,2.174,0,0,0-2.077-1.982A2.135,2.135,0,0,0,447.5,227.67Z"/>
    <path d="M456.9,229.08a1.71,1.71,0,0,0,1.744,1.9,2.005,2.005,0,0,0,1.744-.983v-5.644h1.791V232.3h-1.791v-1.316a2.905,2.905,0,0,1-2.537,1.443,2.664,2.664,0,0,1-2.742-2.838v-5.232H456.9Z"/>
    <path d="M468.06,232.457a4.037,4.037,0,0,1-4.043-4.122,3.912,3.912,0,0,1,3.868-4.106,3.813,3.813,0,0,1,3.758,4.09v.445h-5.866a2.426,2.426,0,0,0,2.378,2.172,2.577,2.577,0,0,0,1.886-.746l1.173,1.094A4.59,4.59,0,0,1,468.06,232.457Zm-2.252-4.787h4.139a2.174,2.174,0,0,0-2.078-1.982A2.135,2.135,0,0,0,465.808,227.67Z"/>
  </g>
  <g>
    <g>
      <path class="cls-7" d="M423.476,359.212a3.054,3.054,0,0,1-2.441,1.142,4.064,4.064,0,0,1,.111-8.085,3.029,3.029,0,0,1,2.314,1.045v-4.376l1.792-.3v11.636h-1.776Zm-1.9-.364a2.379,2.379,0,0,0,1.886-.872v-3.345a2.464,2.464,0,0,0-1.886-.857,2.543,2.543,0,0,0,0,5.074Z"/>
      <path class="cls-7" d="M427.076,357.991c0-1.427,1.157-2.33,3.027-2.33a4.905,4.905,0,0,1,2.14.491v-.872c0-1.046-.6-1.585-1.823-1.585a5.505,5.505,0,0,0-2.314.618l-.635-1.3a7.61,7.61,0,0,1,3.3-.809c2.061,0,3.25,1.046,3.25,2.885v5.184h-1.776v-.808a3.314,3.314,0,0,1-2.362.935C428.216,360.4,427.076,359.418,427.076,357.991Zm3.3,1.157a2.836,2.836,0,0,0,1.871-.649v-1.3a4.113,4.113,0,0,0-1.838-.381c-1.015,0-1.65.444-1.65,1.142C428.755,358.689,429.39,359.148,430.372,359.148Z"/>
      <path class="cls-7" d="M437.173,353.759h-1.6v-1.427h1.6v-2.188l1.791-.38v2.568h2.22v1.427h-2.22v4.026c0,.777.3,1.078,1.111,1.078a3.312,3.312,0,0,0,1.078-.19v1.507a5.667,5.667,0,0,1-1.538.221c-1.6,0-2.442-.76-2.442-2.219Z"/>
      <path class="cls-7" d="M442.358,357.991c0-1.427,1.157-2.33,3.027-2.33a4.913,4.913,0,0,1,2.141.491v-.872c0-1.046-.6-1.585-1.824-1.585a5.505,5.505,0,0,0-2.314.618l-.635-1.3a7.616,7.616,0,0,1,3.3-.809c2.062,0,3.25,1.046,3.25,2.885v5.184h-1.775v-.808a3.318,3.318,0,0,1-2.363.935C443.5,360.4,442.358,359.418,442.358,357.991Zm3.3,1.157a2.838,2.838,0,0,0,1.871-.649v-1.3a4.12,4.12,0,0,0-1.839-.381c-1.015,0-1.65.444-1.65,1.142C444.037,358.689,444.672,359.148,445.655,359.148Z"/>
      <path class="cls-7" d="M455.578,360.354a2.956,2.956,0,0,1-2.346-1.11v1.03h-1.76V348.938l1.792-.3v4.756a3.089,3.089,0,0,1,2.441-1.125,3.811,3.811,0,0,1,3.6,4.042A3.85,3.85,0,0,1,455.578,360.354Zm-2.314-5.692v3.314a2.439,2.439,0,0,0,1.9.872,2.543,2.543,0,0,0,0-5.074A2.33,2.33,0,0,0,453.264,354.662Z"/>
      <path class="cls-7" d="M460.763,357.991c0-1.427,1.157-2.33,3.027-2.33a4.913,4.913,0,0,1,2.141.491v-.872c0-1.046-.6-1.585-1.823-1.585a5.509,5.509,0,0,0-2.315.618l-.634-1.3a7.609,7.609,0,0,1,3.3-.809c2.062,0,3.25,1.046,3.25,2.885v5.184h-1.775v-.808a3.317,3.317,0,0,1-2.362.935C461.9,360.4,460.763,359.418,460.763,357.991Zm3.3,1.157a2.836,2.836,0,0,0,1.871-.649v-1.3a4.117,4.117,0,0,0-1.839-.381c-1.015,0-1.649.444-1.649,1.142C462.443,358.689,463.077,359.148,464.06,359.148Z"/>
      <path class="cls-7" d="M470.005,358.15a4.58,4.58,0,0,0,2.553.9c.951,0,1.6-.428,1.6-1.063,0-.491-.333-.761-1.094-.9l-1.411-.238c-1.538-.286-2.3-1-2.3-2.188,0-1.49,1.221-2.457,3.075-2.457a5.589,5.589,0,0,1,3.123.951l-.84,1.173a4.343,4.343,0,0,0-2.394-.761c-.825,0-1.364.349-1.364.936,0,.507.287.728,1.126.872l1.4.253c1.585.3,2.346,1.031,2.346,2.22,0,1.459-1.4,2.584-3.235,2.584a5.32,5.32,0,0,1-3.424-1.079Z"/>
      <path class="cls-7" d="M481.151,360.433a4.037,4.037,0,0,1-4.043-4.122,3.912,3.912,0,0,1,3.868-4.106,3.813,3.813,0,0,1,3.758,4.09v.444h-5.866a2.426,2.426,0,0,0,2.377,2.172,2.577,2.577,0,0,0,1.887-.745l1.173,1.094A4.594,4.594,0,0,1,481.151,360.433Zm-2.251-4.787h4.137a2.174,2.174,0,0,0-2.077-1.983A2.133,2.133,0,0,0,478.9,355.646Z"/>
    </g>
    <g>
      <path class="cls-5" d="M425.492,310.337v14.13c0,7.8,11.451,14.129,25.576,14.129s25.576-6.326,25.576-14.129v-14.13"/>
      <path class="cls-5" d="M425.492,296.207v14.13c0,7.8,11.451,14.13,25.576,14.13s25.576-6.326,25.576-14.13v-14.13"/>
      <ellipse class="cls-5" cx="451.068" cy="296.207" rx="25.576" ry="14.13"/>
    </g>
  </g>
  <g>
    <g>
      <path class="cls-7" d="M30.809,234.334c-2.854,0-4.661-1.887-4.661-4.914v-6.342h1.9v6.342c0,1.95,1.093,3.2,2.774,3.2s2.759-1.252,2.759-3.2v-6.342h1.9v6.342C35.486,232.416,33.663,234.334,30.809,234.334Z"/>
      <path class="cls-7" d="M37.832,232.052a4.585,4.585,0,0,0,2.553.9c.951,0,1.6-.428,1.6-1.062,0-.492-.333-.761-1.094-.9l-1.411-.238c-1.538-.285-2.3-1-2.3-2.188,0-1.49,1.221-2.457,3.076-2.457a5.58,5.58,0,0,1,3.123.952l-.84,1.172a4.344,4.344,0,0,0-2.394-.76c-.824,0-1.363.348-1.363.935,0,.507.285.729,1.125.872l1.4.253c1.585.3,2.347,1.032,2.347,2.22,0,1.459-1.4,2.584-3.235,2.584a5.325,5.325,0,0,1-3.424-1.078Z"/>
      <path class="cls-7" d="M48.977,234.334a4.037,4.037,0,0,1-4.043-4.122,3.912,3.912,0,0,1,3.869-4.106,3.812,3.812,0,0,1,3.757,4.09v.445H46.694a2.425,2.425,0,0,0,2.378,2.171,2.58,2.58,0,0,0,1.887-.745l1.173,1.094A4.59,4.59,0,0,1,48.977,234.334Zm-2.251-4.787h4.138a2.175,2.175,0,0,0-2.077-1.983A2.135,2.135,0,0,0,46.726,229.547Z"/>
      <path class="cls-7" d="M54.383,226.233h1.792v1.728a2.354,2.354,0,0,1,2.187-1.871,2.13,2.13,0,0,1,.777.159v1.569a2.522,2.522,0,0,0-.983-.19,2.178,2.178,0,0,0-1.981,1.316v5.232H54.383Z"/>
    </g>
    <g>
      <path class="cls-5" d="M67.083,212.506a24.812,24.812,0,0,0-49.623,0Z"/>
      <ellipse class="cls-5" cx="42.272" cy="175.311" rx="12.457" ry="12.439"/>
    </g>
  </g>
</svg>
