<?xml version="1.0" encoding="UTF-8" standalone="no"?>
<svg
   xmlns:dc="http://purl.org/dc/elements/1.1/"
   xmlns:cc="http://creativecommons.org/ns#"
   xmlns:rdf="http://www.w3.org/1999/02/22-rdf-syntax-ns#"
   xmlns:svg="http://www.w3.org/2000/svg"
   xmlns="http://www.w3.org/2000/svg"
   xmlns:sodipodi="http://sodipodi.sourceforge.net/DTD/sodipodi-0.dtd"
   xmlns:inkscape="http://www.inkscape.org/namespaces/inkscape"
   inkscape:version="1.0 (4035a4f, 2020-05-01)"
   sodipodi:docname="3-Tier WebApp.svg"
   version="1.1"
   viewBox="0 0 595.276 289.651"
   height="102.182mm"
   width="210mm"
   data-name="Layer 1"
   id="Layer_1">
  <metadata
     id="metadata455">
    <rdf:RDF>
      <cc:Work
         rdf:about="">
        <dc:format>image/svg+xml</dc:format>
        <dc:type
           rdf:resource="http://purl.org/dc/dcmitype/StillImage" />
        <dc:title></dc:title>
        <dc:subject>
          <rdf:Bag>
            <rdf:li>cloudapp</rdf:li>
            <rdf:li>stack-orchestration</rdf:li>
            <rdf:li>3tier-webapp</rdf:li>
          </rdf:Bag>
        </dc:subject>
      </cc:Work>
    </rdf:RDF>
  </metadata>
  <sodipodi:namedview
     inkscape:current-layer="Layer_1"
     inkscape:window-maximized="0"
     inkscape:window-y="23"
     inkscape:window-x="0"
     inkscape:cy="193.09984"
     inkscape:cx="396.85039"
     inkscape:zoom="0.63122024"
     showgrid="false"
     id="namedview453"
     inkscape:window-height="480"
     inkscape:window-width="987"
     inkscape:pageshadow="2"
     inkscape:pageopacity="0"
     guidetolerance="10"
     gridtolerance="10"
     objecttolerance="10"
     borderopacity="1"
     bordercolor="#666666"
     pagecolor="#ffffff" />
  <defs
     id="defs12">
    <style
       id="style10">
      .cls-1 {
        fill: #e2eaf6;
      }

      .cls-2 {
        fill: #edf6f0;
      }

      .cls-3 {
        fill: #f0f0f0;
        stroke-dasharray: 3;
      }

      .cls-10, .cls-3, .cls-6, .cls-7, .cls-8 {
        stroke: #5b5b5b;
      }

      .cls-11, .cls-3, .cls-6, .cls-7, .cls-8 {
        stroke-linecap: round;
        stroke-linejoin: round;
      }

      .cls-4, .cls-6 {
        fill: #fff;
      }

      .cls-4 {
        stroke: #a1c2e7;
      }

      .cls-10, .cls-4 {
        stroke-miterlimit: 10;
      }

      .cls-5 {
        fill: #151515;
      }

      .cls-6, .cls-8 {
        stroke-width: 1.5px;
      }

      .cls-10, .cls-11, .cls-7, .cls-8 {
        fill: none;
      }

      .cls-10, .cls-11, .cls-7 {
        stroke-width: 2px;
      }

      .cls-9 {
        fill: #5b5b5b;
      }

      .cls-11 {
        stroke: #06c;
      }
    </style>
  </defs>
  <g
     id="g450">
    <rect
       id="rect14"
       height="192.601"
       width="420.278"
       y="86.312"
       x="164.388"
       class="cls-1" />
    <rect
       id="rect16"
       height="192.601"
       width="147.042"
       y="86.312"
       x="10.609"
       class="cls-2" />
    <rect
       id="rect18"
       height="153.154"
       width="103.219"
       y="95.734"
       x="109.093"
       class="cls-3" />
    <rect
       id="rect20"
       height="153.154"
       width="103.219"
       y="95.734"
       x="333.003"
       class="cls-3" />
    <rect
       id="rect22"
       height="153.154"
       width="103.219"
       y="95.734"
       x="471.822"
       class="cls-3" />
    <rect
       id="rect24"
       height="54.093"
       width="79.691"
       y="107.505"
       x="120.55"
       class="cls-4" />
    <rect
       id="rect26"
       height="54.093"
       width="79.691"
       y="173.224"
       x="120.55"
       class="cls-4" />
    <rect
       id="rect28"
       height="54.093"
       width="79.691"
       y="107.505"
       x="344.46"
       class="cls-4" />
    <rect
       id="rect30"
       height="54.093"
       width="79.691"
       y="173.224"
       x="344.46"
       class="cls-4" />
    <rect
       id="rect32"
       height="54.093"
       width="79.691"
       y="139.562"
       x="483.587"
       class="cls-4" />
    <g
       id="g50">
      <g
         id="g42">
        <path
           id="path34"
           d="M42.2,71.154a2.627,2.627,0,0,1-2.746-2.895V64.523h1.121v3.736a1.661,1.661,0,0,0,1.634,1.886c.99,0,1.625-.737,1.625-1.886V64.523h1.12v3.736A2.642,2.642,0,0,1,42.2,71.154Z"
           class="cls-5" />
        <path
           id="path36"
           d="M46.343,69.809a2.694,2.694,0,0,0,1.5.532c.56,0,.944-.252.944-.625,0-.29-.2-.449-.645-.533l-.831-.14c-.906-.168-1.354-.588-1.354-1.288,0-.878.719-1.448,1.812-1.448a3.293,3.293,0,0,1,1.839.561l-.495.69a2.559,2.559,0,0,0-1.41-.448c-.486,0-.8.206-.8.551,0,.3.168.43.663.514l.822.149c.934.178,1.382.607,1.382,1.308a1.714,1.714,0,0,1-1.905,1.522,3.137,3.137,0,0,1-2.017-.635Z"
           class="cls-5" />
        <path
           id="path38"
           d="M52.911,71.154a2.378,2.378,0,0,1-2.381-2.428,2.3,2.3,0,0,1,2.278-2.419,2.247,2.247,0,0,1,2.214,2.41v.261H51.567a1.427,1.427,0,0,0,1.4,1.279,1.519,1.519,0,0,0,1.111-.439l.692.645A2.71,2.71,0,0,1,52.911,71.154Zm-1.326-2.82h2.438A1.281,1.281,0,0,0,52.8,67.166,1.257,1.257,0,0,0,51.585,68.334Z"
           class="cls-5" />
        <path
           id="path40"
           d="M56.1,66.382h1.055V67.4a1.387,1.387,0,0,1,1.288-1.1,1.252,1.252,0,0,1,.458.093v.925a1.483,1.483,0,0,0-.579-.113,1.284,1.284,0,0,0-1.167.776V71.06H56.1Z"
           class="cls-5" />
      </g>
      <g
         id="g48">
        <path
           id="path44"
           d="M70.409,56.984a21.448,21.448,0,0,0-42.9,0Z"
           class="cls-6" />
        <ellipse
           id="ellipse46"
           ry="10.753"
           rx="10.768"
           cy="24.831"
           cx="48.961"
           class="cls-6" />
      </g>
    </g>
    <g
       id="g96">
      <g
         id="g76">
        <path
           id="path52"
           d="M21.376,187.38H20.32V180.7l1.056-.178Z"
           class="cls-5" />
        <path
           id="path54"
           d="M24.814,182.626a2.425,2.425,0,1,1-2.353,2.419A2.336,2.336,0,0,1,24.814,182.626Zm1.307,2.429a1.323,1.323,0,1,0-2.615,0,1.32,1.32,0,1,0,2.615,0Z"
           class="cls-5" />
        <path
           id="path56"
           d="M28.031,186.035c0-.84.681-1.373,1.783-1.373a2.894,2.894,0,0,1,1.261.29v-.514c0-.616-.355-.934-1.074-.934a3.25,3.25,0,0,0-1.363.364l-.374-.765a4.491,4.491,0,0,1,1.943-.477c1.214,0,1.914.617,1.914,1.7v3.054H31.075V186.9a1.955,1.955,0,0,1-1.391.55A1.475,1.475,0,0,1,28.031,186.035Zm1.942.682a1.667,1.667,0,0,0,1.1-.383v-.766a2.432,2.432,0,0,0-1.083-.224c-.6,0-.971.261-.971.672C29.021,186.446,29.394,186.717,29.973,186.717Z"
           class="cls-5" />
        <path
           id="path58"
           d="M36.748,186.754a1.8,1.8,0,0,1-1.439.673,2.394,2.394,0,0,1,.066-4.763,1.785,1.785,0,0,1,1.363.616V180.7l1.056-.178v6.855H36.748Zm-1.121-.215a1.4,1.4,0,0,0,1.111-.513v-1.97a1.45,1.45,0,0,0-1.111-.505,1.5,1.5,0,0,0,0,2.988Z"
           class="cls-5" />
        <path
           id="path60"
           d="M43.626,187.427a1.741,1.741,0,0,1-1.382-.654v.607H41.208V180.7l1.055-.178v2.8a1.818,1.818,0,0,1,1.438-.663,2.245,2.245,0,0,1,2.12,2.381A2.268,2.268,0,0,1,43.626,187.427Zm-1.363-3.353v1.952a1.436,1.436,0,0,0,1.12.513,1.5,1.5,0,0,0,0-2.988A1.372,1.372,0,0,0,42.263,184.074Z"
           class="cls-5" />
        <path
           id="path62"
           d="M46.685,186.035c0-.84.681-1.373,1.783-1.373a2.894,2.894,0,0,1,1.261.29v-.514c0-.616-.355-.934-1.074-.934a3.25,3.25,0,0,0-1.363.364l-.374-.765a4.487,4.487,0,0,1,1.942-.477c1.214,0,1.915.617,1.915,1.7v3.054H49.729V186.9a1.956,1.956,0,0,1-1.392.55A1.475,1.475,0,0,1,46.685,186.035Zm1.942.682a1.667,1.667,0,0,0,1.1-.383v-.766a2.432,2.432,0,0,0-1.083-.224c-.6,0-.972.261-.972.672C47.674,186.446,48.048,186.717,48.627,186.717Z"
           class="cls-5" />
        <path
           id="path64"
           d="M53.113,187.38H52.058V180.7l1.055-.178Z"
           class="cls-5" />
        <path
           id="path66"
           d="M54.18,186.035c0-.84.681-1.373,1.783-1.373a2.894,2.894,0,0,1,1.261.29v-.514c0-.616-.355-.934-1.074-.934a3.25,3.25,0,0,0-1.363.364l-.374-.765a4.491,4.491,0,0,1,1.943-.477c1.213,0,1.914.617,1.914,1.7v3.054H57.224V186.9a1.955,1.955,0,0,1-1.391.55A1.475,1.475,0,0,1,54.18,186.035Zm1.942.682a1.667,1.667,0,0,0,1.1-.383v-.766a2.432,2.432,0,0,0-1.083-.224c-.6,0-.971.261-.971.672C55.17,186.446,55.543,186.717,56.122,186.717Z"
           class="cls-5" />
        <path
           id="path68"
           d="M59.553,182.7h1.055v.766a1.7,1.7,0,0,1,1.485-.841,1.575,1.575,0,0,1,1.616,1.672v3.082H62.653V184.6a1.007,1.007,0,0,0-1.026-1.121,1.2,1.2,0,0,0-1.019.56v3.344H59.553Z"
           class="cls-5" />
        <path
           id="path70"
           d="M68.336,186.026l.634.634a2.431,2.431,0,0,1-1.83.813,2.419,2.419,0,0,1,0-4.837,2.52,2.52,0,0,1,1.867.784l-.653.682a1.547,1.547,0,0,0-1.177-.551,1.5,1.5,0,0,0,.028,2.988A1.441,1.441,0,0,0,68.336,186.026Z"
           class="cls-5" />
        <path
           id="path72"
           d="M72.046,187.473a2.378,2.378,0,0,1-2.381-2.428,2.3,2.3,0,0,1,2.278-2.419,2.246,2.246,0,0,1,2.214,2.41v.261H70.7a1.427,1.427,0,0,0,1.4,1.279,1.518,1.518,0,0,0,1.111-.438l.692.644A2.708,2.708,0,0,1,72.046,187.473Zm-1.326-2.82h2.438a1.281,1.281,0,0,0-1.224-1.167A1.257,1.257,0,0,0,70.72,184.653Z"
           class="cls-5" />
        <path
           id="path74"
           d="M75.235,182.7H76.29v1.018a1.387,1.387,0,0,1,1.289-1.1,1.227,1.227,0,0,1,.457.094v.924a1.481,1.481,0,0,0-.578-.112,1.284,1.284,0,0,0-1.168.775v3.082H75.235Z"
           class="cls-5" />
      </g>
      <g
         id="g94">
        <rect
           id="rect78"
           height="11.682"
           width="46.729"
           y="161.598"
           x="25.597"
           class="cls-6" />
        <line
           id="line80"
           y2="166.608"
           x2="67.331"
           y1="166.608"
           x1="67.331"
           class="cls-7" />
        <line
           id="line82"
           y2="169.098"
           x2="30.603"
           y1="165.729"
           x1="30.603"
           class="cls-8" />
        <line
           id="line84"
           y2="169.098"
           x2="35.61"
           y1="165.729"
           x1="35.61"
           class="cls-8" />
        <line
           id="line86"
           y2="169.098"
           x2="40.617"
           y1="165.729"
           x1="40.617"
           class="cls-8" />
        <line
           id="line88"
           y2="169.098"
           x2="45.623"
           y1="165.729"
           x1="45.623"
           class="cls-8" />
        <line
           id="line90"
           y2="169.098"
           x2="50.63"
           y1="165.729"
           x1="50.63"
           class="cls-8" />
        <line
           id="line92"
           y2="169.098"
           x2="55.637"
           y1="165.729"
           x1="55.637"
           class="cls-8" />
      </g>
    </g>
    <g
       id="g142">
      <g
         id="g122">
        <path
           id="path98"
           d="M244.853,187.38H243.8V180.7l1.056-.178Z"
           class="cls-5" />
        <path
           id="path100"
           d="M248.291,182.626a2.425,2.425,0,1,1-2.353,2.419A2.336,2.336,0,0,1,248.291,182.626Zm1.307,2.429a1.323,1.323,0,1,0-2.615,0,1.32,1.32,0,1,0,2.615,0Z"
           class="cls-5" />
        <path
           id="path102"
           d="M251.508,186.035c0-.84.682-1.373,1.784-1.373a2.893,2.893,0,0,1,1.26.29v-.514c0-.616-.355-.934-1.074-.934a3.25,3.25,0,0,0-1.363.364l-.374-.765a4.494,4.494,0,0,1,1.943-.477c1.214,0,1.914.617,1.914,1.7v3.054h-1.046V186.9a1.955,1.955,0,0,1-1.391.55A1.475,1.475,0,0,1,251.508,186.035Zm1.942.682a1.667,1.667,0,0,0,1.1-.383v-.766a2.432,2.432,0,0,0-1.083-.224c-.6,0-.971.261-.971.672C252.5,186.446,252.871,186.717,253.45,186.717Z"
           class="cls-5" />
        <path
           id="path104"
           d="M260.224,186.754a1.8,1.8,0,0,1-1.438.673,2.394,2.394,0,0,1,.066-4.763,1.785,1.785,0,0,1,1.363.616V180.7l1.055-.178v6.855h-1.046Zm-1.12-.215a1.4,1.4,0,0,0,1.111-.513v-1.97a1.45,1.45,0,0,0-1.111-.505,1.5,1.5,0,0,0,0,2.988Z"
           class="cls-5" />
        <path
           id="path106"
           d="M267.1,187.427a1.741,1.741,0,0,1-1.382-.654v.607h-1.036V180.7l1.055-.178v2.8a1.82,1.82,0,0,1,1.438-.663,2.244,2.244,0,0,1,2.119,2.381A2.267,2.267,0,0,1,267.1,187.427Zm-1.363-3.353v1.952a1.434,1.434,0,0,0,1.12.513,1.5,1.5,0,0,0,0-2.988A1.372,1.372,0,0,0,265.74,184.074Z"
           class="cls-5" />
        <path
           id="path108"
           d="M270.162,186.035c0-.84.681-1.373,1.783-1.373a2.894,2.894,0,0,1,1.261.29v-.514c0-.616-.355-.934-1.074-.934a3.25,3.25,0,0,0-1.363.364l-.374-.765a4.49,4.49,0,0,1,1.942-.477c1.214,0,1.915.617,1.915,1.7v3.054h-1.046V186.9a1.955,1.955,0,0,1-1.391.55A1.475,1.475,0,0,1,270.162,186.035Zm1.942.682a1.667,1.667,0,0,0,1.1-.383v-.766a2.432,2.432,0,0,0-1.083-.224c-.6,0-.972.261-.972.672C271.151,186.446,271.525,186.717,272.1,186.717Z"
           class="cls-5" />
        <path
           id="path110"
           d="M276.59,187.38h-1.055V180.7l1.055-.178Z"
           class="cls-5" />
        <path
           id="path112"
           d="M277.657,186.035c0-.84.681-1.373,1.783-1.373a2.894,2.894,0,0,1,1.261.29v-.514c0-.616-.355-.934-1.074-.934a3.25,3.25,0,0,0-1.363.364l-.374-.765a4.491,4.491,0,0,1,1.943-.477c1.213,0,1.914.617,1.914,1.7v3.054H280.7V186.9a1.955,1.955,0,0,1-1.391.55A1.475,1.475,0,0,1,277.657,186.035Zm1.942.682a1.667,1.667,0,0,0,1.1-.383v-.766a2.432,2.432,0,0,0-1.083-.224c-.6,0-.971.261-.971.672C278.647,186.446,279.02,186.717,279.6,186.717Z"
           class="cls-5" />
        <path
           id="path114"
           d="M283.03,182.7h1.056v.766a1.7,1.7,0,0,1,1.484-.841,1.575,1.575,0,0,1,1.616,1.672v3.082H286.13V184.6a1.007,1.007,0,0,0-1.027-1.121,1.2,1.2,0,0,0-1.017.56v3.344H283.03Z"
           class="cls-5" />
        <path
           id="path116"
           d="M291.812,186.026l.635.634a2.431,2.431,0,0,1-1.83.813,2.419,2.419,0,0,1,0-4.837,2.524,2.524,0,0,1,1.868.784l-.654.682a1.547,1.547,0,0,0-1.177-.551,1.5,1.5,0,0,0,.028,2.988A1.438,1.438,0,0,0,291.812,186.026Z"
           class="cls-5" />
        <path
           id="path118"
           d="M295.524,187.473a2.378,2.378,0,0,1-2.382-2.428,2.3,2.3,0,0,1,2.279-2.419,2.245,2.245,0,0,1,2.212,2.41v.261h-3.454a1.427,1.427,0,0,0,1.4,1.279,1.522,1.522,0,0,0,1.111-.438l.69.644A2.7,2.7,0,0,1,295.524,187.473Zm-1.327-2.82h2.437a1.28,1.28,0,0,0-1.223-1.167A1.257,1.257,0,0,0,294.2,184.653Z"
           class="cls-5" />
        <path
           id="path120"
           d="M298.712,182.7h1.056v1.018a1.387,1.387,0,0,1,1.289-1.1,1.231,1.231,0,0,1,.457.094v.924a1.483,1.483,0,0,0-.579-.112,1.283,1.283,0,0,0-1.167.775v3.082h-1.056Z"
           class="cls-5" />
      </g>
      <g
         id="g140">
        <rect
           id="rect124"
           height="11.682"
           width="46.729"
           y="161.598"
           x="249.074"
           class="cls-6" />
        <line
           id="line126"
           y2="166.608"
           x2="290.808"
           y1="166.608"
           x1="290.808"
           class="cls-7" />
        <line
           id="line128"
           y2="169.098"
           x2="254.081"
           y1="165.729"
           x1="254.081"
           class="cls-8" />
        <line
           id="line130"
           y2="169.098"
           x2="259.087"
           y1="165.729"
           x1="259.087"
           class="cls-8" />
        <line
           id="line132"
           y2="169.098"
           x2="264.094"
           y1="165.729"
           x1="264.094"
           class="cls-8" />
        <line
           id="line134"
           y2="169.098"
           x2="269.101"
           y1="165.729"
           x1="269.101"
           class="cls-8" />
        <line
           id="line136"
           y2="169.098"
           x2="274.107"
           y1="165.729"
           x1="274.107"
           class="cls-8" />
        <line
           id="line138"
           y2="169.098"
           x2="279.114"
           y1="165.729"
           x1="279.114"
           class="cls-8" />
      </g>
    </g>
    <g
       id="g154">
      <path
         id="path144"
         d="M164.388,117.968a13.706,13.706,0,0,0-20.241,3.26l-.125.2H142.75a10.507,10.507,0,1,0,0,21.014h15.037a.812.812,0,1,0,0-1.623h-.425v-.05H142.75a8.884,8.884,0,0,1,0-17.767,9.658,9.658,0,0,1,1.523.139.816.816,0,0,0,.86-.4,12.083,12.083,0,0,1,22.558,4.649.844.844,0,0,0,.917.743.836.836,0,0,0,.744-.918A13.616,13.616,0,0,0,164.388,117.968Z"
         class="cls-9" />
      <g
         id="g152">
        <rect
           id="rect146"
           height="6.676"
           width="26.702"
           y="132.701"
           x="161.846"
           class="cls-6" />
        <line
           id="line148"
           y2="135.564"
           x2="185.694"
           y1="135.564"
           x1="185.694"
           class="cls-7" />
        <line
           id="line150"
           y2="136.516"
           x2="169.121"
           y1="136.516"
           x1="165.116"
           class="cls-8" />
      </g>
    </g>
    <g
       id="g174">
      <path
         id="path156"
         d="M138.045,154.042l-1.261-4.678h1.008l.822,3.306.962-3.306h.9l.962,3.315.813-3.315h.989l-1.26,4.678h-1.018l-.943-3.3-.943,3.3Z"
         class="cls-5" />
      <path
         id="path158"
         d="M146.277,154.136a2.378,2.378,0,0,1-2.381-2.428,2.3,2.3,0,0,1,2.278-2.419,2.245,2.245,0,0,1,2.213,2.41v.261h-3.455a1.429,1.429,0,0,0,1.4,1.279,1.519,1.519,0,0,0,1.111-.439l.691.645A2.706,2.706,0,0,1,146.277,154.136Zm-1.326-2.821h2.437a1.28,1.28,0,0,0-1.223-1.167A1.257,1.257,0,0,0,144.951,151.315Z"
         class="cls-5" />
      <path
         id="path160"
         d="M151.884,154.089a1.739,1.739,0,0,1-1.381-.654v.607h-1.037v-6.676l1.055-.178v2.8a1.819,1.819,0,0,1,1.438-.664,2.393,2.393,0,0,1-.075,4.763Zm-1.363-3.352v1.951a1.434,1.434,0,0,0,1.121.514,1.5,1.5,0,0,0,0-2.988A1.373,1.373,0,0,0,150.521,150.737Z"
         class="cls-5" />
      <path
         id="path162"
         d="M157.353,152.791a2.694,2.694,0,0,0,1.5.532c.56,0,.942-.252.942-.625,0-.29-.195-.449-.644-.533l-.831-.14c-.905-.168-1.354-.588-1.354-1.288,0-.878.719-1.448,1.812-1.448a3.3,3.3,0,0,1,1.84.56l-.5.691a2.562,2.562,0,0,0-1.411-.448c-.485,0-.8.206-.8.551,0,.3.169.43.663.514l.822.149c.934.178,1.382.607,1.382,1.308a1.714,1.714,0,0,1-1.905,1.522,3.145,3.145,0,0,1-2.017-.635Z"
         class="cls-5" />
      <path
         id="path164"
         d="M163.921,154.136a2.378,2.378,0,0,1-2.381-2.428,2.3,2.3,0,0,1,2.278-2.419,2.246,2.246,0,0,1,2.214,2.41v.261h-3.455a1.427,1.427,0,0,0,1.4,1.279,1.519,1.519,0,0,0,1.111-.439l.692.645A2.708,2.708,0,0,1,163.921,154.136Zm-1.326-2.821h2.438a1.281,1.281,0,0,0-1.224-1.167A1.258,1.258,0,0,0,162.6,151.315Z"
         class="cls-5" />
      <path
         id="path166"
         d="M167.11,149.364h1.056v1.018a1.386,1.386,0,0,1,1.288-1.1,1.256,1.256,0,0,1,.458.093v.925a1.483,1.483,0,0,0-.579-.113,1.284,1.284,0,0,0-1.167.776v3.081H167.11Z"
         class="cls-5" />
      <path
         id="path168"
         d="M170.232,149.364h1.148l1.3,3.418,1.3-3.418h1.111l-1.923,4.678h-1.018Z"
         class="cls-5" />
      <path
         id="path170"
         d="M178.015,154.136a2.379,2.379,0,0,1-2.382-2.428,2.3,2.3,0,0,1,2.279-2.419,2.246,2.246,0,0,1,2.213,2.41v.261H176.67a1.429,1.429,0,0,0,1.4,1.279,1.521,1.521,0,0,0,1.111-.439l.691.645A2.707,2.707,0,0,1,178.015,154.136Zm-1.326-2.821h2.437a1.281,1.281,0,0,0-1.224-1.167A1.256,1.256,0,0,0,176.689,151.315Z"
         class="cls-5" />
      <path
         id="path172"
         d="M181.2,149.364h1.055v1.018a1.387,1.387,0,0,1,1.289-1.1,1.247,1.247,0,0,1,.457.093v.925a1.476,1.476,0,0,0-.579-.113,1.285,1.285,0,0,0-1.167.776v3.081H181.2Z"
         class="cls-5" />
    </g>
    <g
       id="g186">
      <path
         id="path176"
         d="M164.388,183.687a13.706,13.706,0,0,0-20.241,3.26l-.125.2H142.75a10.507,10.507,0,1,0,0,21.013h15.037a.812.812,0,1,0,0-1.623h-.425v-.05H142.75a8.884,8.884,0,0,1,0-17.767,9.658,9.658,0,0,1,1.523.139.817.817,0,0,0,.86-.4,12.082,12.082,0,0,1,22.558,4.648.844.844,0,0,0,.917.743.836.836,0,0,0,.744-.918A13.616,13.616,0,0,0,164.388,183.687Z"
         class="cls-9" />
      <g
         id="g184">
        <rect
           id="rect178"
           height="6.676"
           width="26.702"
           y="198.42"
           x="161.846"
           class="cls-6" />
        <line
           id="line180"
           y2="201.283"
           x2="185.694"
           y1="201.283"
           x1="185.694"
           class="cls-7" />
        <line
           id="line182"
           y2="202.235"
           x2="169.121"
           y1="202.235"
           x1="165.116"
           class="cls-8" />
      </g>
    </g>
    <g
       id="g206">
      <path
         id="path188"
         d="M138.045,219.761l-1.261-4.679h1.008l.822,3.307.962-3.307h.9l.962,3.316.813-3.316h.989l-1.26,4.679h-1.018l-.943-3.3-.943,3.3Z"
         class="cls-5" />
      <path
         id="path190"
         d="M146.277,219.854a2.378,2.378,0,0,1-2.381-2.427,2.3,2.3,0,0,1,2.278-2.419,2.245,2.245,0,0,1,2.213,2.409v.262h-3.455a1.43,1.43,0,0,0,1.4,1.279,1.519,1.519,0,0,0,1.111-.439l.691.644A2.706,2.706,0,0,1,146.277,219.854Zm-1.326-2.82h2.437a1.28,1.28,0,0,0-1.223-1.167A1.257,1.257,0,0,0,144.951,217.034Z"
         class="cls-5" />
      <path
         id="path192"
         d="M151.884,219.808a1.739,1.739,0,0,1-1.381-.654v.607h-1.037v-6.677l1.055-.177v2.8a1.821,1.821,0,0,1,1.438-.663,2.393,2.393,0,0,1-.075,4.763Zm-1.363-3.353v1.952a1.434,1.434,0,0,0,1.121.514,1.5,1.5,0,0,0,0-2.989A1.375,1.375,0,0,0,150.521,216.455Z"
         class="cls-5" />
      <path
         id="path194"
         d="M157.353,218.51a2.7,2.7,0,0,0,1.5.532c.56,0,.942-.252.942-.626,0-.289-.195-.448-.644-.532l-.831-.14c-.905-.168-1.354-.588-1.354-1.289,0-.878.719-1.447,1.812-1.447a3.292,3.292,0,0,1,1.84.56l-.5.691a2.562,2.562,0,0,0-1.411-.448c-.485,0-.8.2-.8.551,0,.3.169.429.663.513l.822.15c.934.177,1.382.607,1.382,1.307a1.714,1.714,0,0,1-1.905,1.522,3.144,3.144,0,0,1-2.017-.634Z"
         class="cls-5" />
      <path
         id="path196"
         d="M163.921,219.854a2.378,2.378,0,0,1-2.381-2.427,2.3,2.3,0,0,1,2.278-2.419,2.246,2.246,0,0,1,2.214,2.409v.262h-3.455a1.428,1.428,0,0,0,1.4,1.279,1.519,1.519,0,0,0,1.111-.439l.692.644A2.708,2.708,0,0,1,163.921,219.854Zm-1.326-2.82h2.438a1.281,1.281,0,0,0-1.224-1.167A1.258,1.258,0,0,0,162.6,217.034Z"
         class="cls-5" />
      <path
         id="path198"
         d="M167.11,215.082h1.056V216.1a1.387,1.387,0,0,1,1.288-1.1,1.278,1.278,0,0,1,.458.094v.924a1.5,1.5,0,0,0-.579-.112,1.284,1.284,0,0,0-1.167.776v3.081H167.11Z"
         class="cls-5" />
      <path
         id="path200"
         d="M170.232,215.082h1.148l1.3,3.418,1.3-3.418h1.111l-1.923,4.679h-1.018Z"
         class="cls-5" />
      <path
         id="path202"
         d="M178.015,219.854a2.378,2.378,0,0,1-2.382-2.427,2.3,2.3,0,0,1,2.279-2.419,2.246,2.246,0,0,1,2.213,2.409v.262H176.67a1.43,1.43,0,0,0,1.4,1.279,1.521,1.521,0,0,0,1.111-.439l.691.644A2.707,2.707,0,0,1,178.015,219.854Zm-1.326-2.82h2.437a1.281,1.281,0,0,0-1.224-1.167A1.256,1.256,0,0,0,176.689,217.034Z"
         class="cls-5" />
      <path
         id="path204"
         d="M181.2,215.082h1.055V216.1a1.388,1.388,0,0,1,1.289-1.1,1.268,1.268,0,0,1,.457.094v.924a1.494,1.494,0,0,0-.579-.112,1.285,1.285,0,0,0-1.167.776v3.081H181.2Z"
         class="cls-5" />
    </g>
    <polyline
       id="polyline208"
       points="73.054 167.413 96.794 167.413 96.794 134.552 120.309 134.552"
       class="cls-10" />
    <polyline
       id="polyline210"
       points="73.054 167.439 96.794 167.439 96.794 200.271 120.309 200.271"
       class="cls-10" />
    <g
       id="g216">
      <polyline
         id="polyline212"
         points="248.365 167.413 224.624 167.413 224.624 134.552 201.11 134.552"
         class="cls-11" />
      <polyline
         id="polyline214"
         points="248.365 167.439 224.624 167.439 224.624 200.271 201.11 200.271"
         class="cls-11" />
    </g>
    <g
       id="g222">
      <polyline
         id="polyline218"
         points="296.657 167.413 320.398 167.413 320.398 134.552 343.912 134.552"
         class="cls-11" />
      <polyline
         id="polyline220"
         points="296.657 167.439 320.398 167.439 320.398 200.271 343.912 200.271"
         class="cls-11" />
    </g>
    <g
       id="g228">
      <polyline
         id="polyline224"
         points="505.807 167.413 448.082 167.413 448.082 134.552 424.567 134.552"
         class="cls-11" />
      <polyline
         id="polyline226"
         points="505.807 167.439 448.082 167.439 448.082 200.271 424.567 200.271"
         class="cls-11" />
    </g>
    <path
       id="path230"
       d="M392.28,117.968a13.706,13.706,0,0,0-20.241,3.26l-.126.2h-1.272a10.507,10.507,0,0,0,0,21.014h15.038a.812.812,0,1,0,0-1.623h-.425v-.05H370.641a8.884,8.884,0,0,1,0-17.767,9.67,9.67,0,0,1,1.524.139.816.816,0,0,0,.86-.4,12.082,12.082,0,0,1,22.557,4.649.845.845,0,0,0,.918.743.834.834,0,0,0,.743-.918A13.618,13.618,0,0,0,392.28,117.968Z"
       class="cls-9" />
    <g
       id="g250">
      <path
         id="path232"
         d="M363.112,147.506h1.3l2.532,6.536h-1.206l-.663-1.83h-2.689l-.672,1.83h-1.168Zm1.635,3.828-1.009-2.782-1.027,2.782Z"
         class="cls-5" />
      <path
         id="path234"
         d="M367.655,149.364h1.037v.672a1.765,1.765,0,0,1,1.458-.71,2.394,2.394,0,0,1-.076,4.763,1.75,1.75,0,0,1-1.363-.607v2.54h-1.056Zm1.056,1.373v1.951a1.434,1.434,0,0,0,1.12.514,1.5,1.5,0,0,0,0-2.988A1.371,1.371,0,0,0,368.711,150.737Z"
         class="cls-5" />
      <path
         id="path236"
         d="M373.365,149.364H374.4v.672a1.766,1.766,0,0,1,1.457-.71,2.393,2.393,0,0,1-.075,4.763,1.749,1.749,0,0,1-1.363-.607v2.54h-1.056Zm1.056,1.373v1.951a1.434,1.434,0,0,0,1.12.514,1.5,1.5,0,0,0,0-2.988A1.371,1.371,0,0,0,374.421,150.737Z"
         class="cls-5" />
      <path
         id="path238"
         d="M381.254,152.791a2.692,2.692,0,0,0,1.5.532c.56,0,.943-.252.943-.625,0-.29-.2-.449-.644-.533l-.831-.14c-.906-.168-1.354-.588-1.354-1.288,0-.878.719-1.448,1.812-1.448a3.3,3.3,0,0,1,1.84.56l-.5.691a2.555,2.555,0,0,0-1.41-.448c-.485,0-.8.206-.8.551,0,.3.168.43.663.514l.821.149c.934.178,1.382.607,1.382,1.308a1.715,1.715,0,0,1-1.9,1.522,3.145,3.145,0,0,1-2.017-.635Z"
         class="cls-5" />
      <path
         id="path240"
         d="M387.822,154.136a2.378,2.378,0,0,1-2.381-2.428,2.3,2.3,0,0,1,2.279-2.419,2.246,2.246,0,0,1,2.213,2.41v.261h-3.455a1.427,1.427,0,0,0,1.4,1.279,1.519,1.519,0,0,0,1.111-.439l.692.645A2.71,2.71,0,0,1,387.822,154.136Zm-1.326-2.821h2.438a1.281,1.281,0,0,0-1.224-1.167A1.257,1.257,0,0,0,386.5,151.315Z"
         class="cls-5" />
      <path
         id="path242"
         d="M391.01,149.364h1.056v1.018a1.385,1.385,0,0,1,1.289-1.1,1.255,1.255,0,0,1,.457.093v.925a1.483,1.483,0,0,0-.579-.113,1.284,1.284,0,0,0-1.167.776v3.081H391.01Z"
         class="cls-5" />
      <path
         id="path244"
         d="M394.132,149.364h1.148l1.3,3.418,1.3-3.418h1.111l-1.923,4.678h-1.019Z"
         class="cls-5" />
      <path
         id="path246"
         d="M401.915,154.136a2.379,2.379,0,0,1-2.382-2.428,2.306,2.306,0,0,1,2.28-2.419,2.245,2.245,0,0,1,2.212,2.41v.261H400.57a1.429,1.429,0,0,0,1.4,1.279,1.521,1.521,0,0,0,1.111-.439l.692.645A2.708,2.708,0,0,1,401.915,154.136Zm-1.326-2.821h2.437a1.28,1.28,0,0,0-1.223-1.167A1.257,1.257,0,0,0,400.589,151.315Z"
         class="cls-5" />
      <path
         id="path248"
         d="M405.1,149.364h1.055v1.018a1.386,1.386,0,0,1,1.289-1.1,1.247,1.247,0,0,1,.457.093v.925a1.48,1.48,0,0,0-.579-.113,1.285,1.285,0,0,0-1.167.776v3.081H405.1Z"
         class="cls-5" />
    </g>
    <path
       id="path252"
       d="M392.28,183.687a13.706,13.706,0,0,0-20.241,3.26l-.126.2h-1.272a10.507,10.507,0,0,0,0,21.013h15.038a.812.812,0,1,0,0-1.623h-.425v-.05H370.641a8.884,8.884,0,0,1,0-17.767,9.67,9.67,0,0,1,1.524.139.817.817,0,0,0,.86-.4,12.082,12.082,0,0,1,22.557,4.648.845.845,0,0,0,.918.743.834.834,0,0,0,.743-.918A13.618,13.618,0,0,0,392.28,183.687Z"
       class="cls-9" />
    <g
       id="g272">
      <path
         id="path254"
         d="M363.112,213.224h1.3l2.532,6.537h-1.206l-.663-1.83h-2.689l-.672,1.83h-1.168Zm1.635,3.829-1.009-2.783-1.027,2.783Z"
         class="cls-5" />
      <path
         id="path256"
         d="M367.655,215.082h1.037v.673a1.762,1.762,0,0,1,1.458-.71,2.245,2.245,0,0,1,2.119,2.382,2.268,2.268,0,0,1-2.195,2.381,1.75,1.75,0,0,1-1.363-.607v2.54h-1.056Zm1.056,1.373v1.952a1.434,1.434,0,0,0,1.12.514,1.5,1.5,0,0,0,0-2.989A1.373,1.373,0,0,0,368.711,216.455Z"
         class="cls-5" />
      <path
         id="path258"
         d="M373.365,215.082H374.4v.673a1.763,1.763,0,0,1,1.457-.71,2.393,2.393,0,0,1-.075,4.763,1.749,1.749,0,0,1-1.363-.607v2.54h-1.056Zm1.056,1.373v1.952a1.434,1.434,0,0,0,1.12.514,1.5,1.5,0,0,0,0-2.989A1.373,1.373,0,0,0,374.421,216.455Z"
         class="cls-5" />
      <path
         id="path260"
         d="M381.254,218.51a2.7,2.7,0,0,0,1.5.532c.56,0,.943-.252.943-.626,0-.289-.2-.448-.644-.532l-.831-.14c-.906-.168-1.354-.588-1.354-1.289,0-.878.719-1.447,1.812-1.447a3.294,3.294,0,0,1,1.84.56l-.5.691a2.555,2.555,0,0,0-1.41-.448c-.485,0-.8.2-.8.551,0,.3.168.429.663.513l.821.15c.934.177,1.382.607,1.382,1.307a1.714,1.714,0,0,1-1.9,1.522,3.144,3.144,0,0,1-2.017-.634Z"
         class="cls-5" />
      <path
         id="path262"
         d="M387.822,219.854a2.377,2.377,0,0,1-2.381-2.427,2.3,2.3,0,0,1,2.279-2.419,2.246,2.246,0,0,1,2.213,2.409v.262h-3.455a1.428,1.428,0,0,0,1.4,1.279,1.519,1.519,0,0,0,1.111-.439l.692.644A2.71,2.71,0,0,1,387.822,219.854Zm-1.326-2.82h2.438a1.281,1.281,0,0,0-1.224-1.167A1.257,1.257,0,0,0,386.5,217.034Z"
         class="cls-5" />
      <path
         id="path264"
         d="M391.01,215.082h1.056V216.1a1.386,1.386,0,0,1,1.289-1.1,1.277,1.277,0,0,1,.457.094v.924a1.5,1.5,0,0,0-.579-.112,1.284,1.284,0,0,0-1.167.776v3.081H391.01Z"
         class="cls-5" />
      <path
         id="path266"
         d="M394.132,215.082h1.148l1.3,3.418,1.3-3.418h1.111l-1.923,4.679h-1.019Z"
         class="cls-5" />
      <path
         id="path268"
         d="M401.915,219.854a2.378,2.378,0,0,1-2.382-2.427,2.306,2.306,0,0,1,2.28-2.419,2.245,2.245,0,0,1,2.212,2.409v.262H400.57a1.43,1.43,0,0,0,1.4,1.279,1.521,1.521,0,0,0,1.111-.439l.692.644A2.708,2.708,0,0,1,401.915,219.854Zm-1.326-2.82h2.437a1.28,1.28,0,0,0-1.223-1.167A1.257,1.257,0,0,0,400.589,217.034Z"
         class="cls-5" />
      <path
         id="path270"
         d="M405.1,215.082h1.055V216.1a1.387,1.387,0,0,1,1.289-1.1,1.268,1.268,0,0,1,.457.094v.924a1.5,1.5,0,0,0-.579-.112,1.285,1.285,0,0,0-1.167.776v3.081H405.1Z"
         class="cls-5" />
    </g>
    <line
       id="line274"
       y2="161.189"
       x2="48.961"
       y1="73.38"
       x1="48.961"
       class="cls-10" />
    <g
       id="g302">
      <path
         id="path276"
         d="M22.824,263.75h2.923a2.028,2.028,0,1,1,0,4.044h-1.8v2.493h-1.12Zm1.12.943v2.185h1.625a1.1,1.1,0,1,0,.009-2.185Z"
         class="cls-5" />
      <path
         id="path278"
         d="M30.066,268.391a1.007,1.007,0,0,0,1.027,1.121,1.179,1.179,0,0,0,1.027-.579v-3.325h1.055v4.679H32.12v-.775a1.711,1.711,0,0,1-1.494.85,1.57,1.57,0,0,1-1.616-1.672v-3.082h1.056Z"
         class="cls-5" />
      <path
         id="path280"
         d="M36.9,270.334a1.741,1.741,0,0,1-1.382-.654v.607H34.478V263.61l1.055-.178v2.8a1.818,1.818,0,0,1,1.438-.663,2.244,2.244,0,0,1,2.119,2.381A2.267,2.267,0,0,1,36.9,270.334Zm-1.363-3.353v1.952a1.432,1.432,0,0,0,1.12.514,1.5,1.5,0,0,0,0-2.989A1.375,1.375,0,0,0,35.533,266.981Z"
         class="cls-5" />
      <path
         id="path282"
         d="M41.243,270.287H40.188V263.61l1.055-.178Z"
         class="cls-5" />
      <path
         id="path284"
         d="M42.412,264.012a.659.659,0,0,1,1.317,0,.659.659,0,0,1-1.317,0Zm1.186,6.275H42.543v-4.679H43.6Z"
         class="cls-5" />
      <path
         id="path286"
         d="M48.241,268.933l.635.635a2.434,2.434,0,0,1-1.83.812,2.419,2.419,0,0,1,0-4.837,2.525,2.525,0,0,1,1.868.784l-.654.682a1.548,1.548,0,0,0-1.177-.551,1.5,1.5,0,0,0,.028,2.989A1.439,1.439,0,0,0,48.241,268.933Z"
         class="cls-5" />
      <path
         id="path288"
         d="M53.112,263.75l3.409,4.744L56.5,263.75h1.055v6.537h-1l-3.5-4.875.019,4.875H52.019V263.75Z"
         class="cls-5" />
      <path
         id="path290"
         d="M61.167,270.38a2.378,2.378,0,0,1-2.381-2.428,2.3,2.3,0,0,1,2.278-2.418,2.246,2.246,0,0,1,2.213,2.409v.261H59.822a1.43,1.43,0,0,0,1.4,1.28,1.519,1.519,0,0,0,1.111-.439l.691.644A2.706,2.706,0,0,1,61.167,270.38Zm-1.326-2.82h2.437a1.28,1.28,0,0,0-1.223-1.167A1.256,1.256,0,0,0,59.841,267.56Z"
         class="cls-5" />
      <path
         id="path292"
         d="M64.934,266.449h-.943v-.841h.943V264.32l1.056-.224v1.512H67.3v.841H65.99v2.372c0,.457.177.635.653.635a1.938,1.938,0,0,0,.635-.112v.887a3.317,3.317,0,0,1-.905.131c-.944,0-1.439-.449-1.439-1.307Z"
         class="cls-5" />
      <path
         id="path294"
         d="M69.046,270.287l-1.26-4.679h1.008l.822,3.306.962-3.306h.9l.962,3.316.813-3.316h.989l-1.26,4.679H71.96l-.943-3.3-.943,3.3Z"
         class="cls-5" />
      <path
         id="path296"
         d="M77.251,265.534a2.424,2.424,0,1,1-2.353,2.418A2.335,2.335,0,0,1,77.251,265.534Zm1.307,2.428a1.323,1.323,0,1,0-2.615,0,1.32,1.32,0,1,0,2.615,0Z"
         class="cls-5" />
      <path
         id="path298"
         d="M80.7,265.608h1.055v1.018a1.388,1.388,0,0,1,1.289-1.1,1.278,1.278,0,0,1,.458.094v.924a1.5,1.5,0,0,0-.58-.112,1.286,1.286,0,0,0-1.167.775v3.082H80.7Z"
         class="cls-5" />
      <path
         id="path300"
         d="M84.374,263.61l1.055-.178v4.175l1.943-2h1.2l-2.138,2.167,2.269,2.512H87.353l-1.924-2.157v2.157H84.374Z"
         class="cls-5" />
    </g>
    <g
       id="g332">
      <path
         id="path304"
         d="M175.78,263.75H178.7a2.028,2.028,0,1,1,0,4.044h-1.8v2.493H175.78Zm1.121.943v2.185h1.624a1.1,1.1,0,1,0,.01-2.185Z"
         class="cls-5" />
      <path
         id="path306"
         d="M182,265.608h1.055v1.018a1.388,1.388,0,0,1,1.289-1.1,1.268,1.268,0,0,1,.457.094v.924a1.494,1.494,0,0,0-.579-.112,1.285,1.285,0,0,0-1.167.775v3.082H182Z"
         class="cls-5" />
      <path
         id="path308"
         d="M185.537,264.012a.659.659,0,0,1,1.317,0,.659.659,0,0,1-1.317,0Zm1.186,6.275h-1.055v-4.679h1.055Z"
         class="cls-5" />
      <path
         id="path310"
         d="M187.472,265.608h1.149l1.3,3.418,1.3-3.418h1.112l-1.924,4.679h-1.018Z"
         class="cls-5" />
      <path
         id="path312"
         d="M192.855,268.942c0-.84.682-1.372,1.783-1.372a2.893,2.893,0,0,1,1.261.289v-.513c0-.617-.354-.935-1.074-.935a3.242,3.242,0,0,0-1.363.365l-.374-.766a4.492,4.492,0,0,1,1.943-.476c1.214,0,1.914.616,1.914,1.7v3.054H195.9v-.476a1.952,1.952,0,0,1-1.391.551A1.475,1.475,0,0,1,192.855,268.942Zm1.942.682a1.666,1.666,0,0,0,1.1-.383v-.766a2.429,2.429,0,0,0-1.083-.224c-.6,0-.971.262-.971.673C193.845,269.353,194.218,269.624,194.8,269.624Z"
         class="cls-5" />
      <path
         id="path314"
         d="M198.807,266.449h-.943v-.841h.943V264.32l1.056-.224v1.512h1.307v.841h-1.307v2.372c0,.457.177.635.653.635a1.938,1.938,0,0,0,.635-.112v.887a3.317,3.317,0,0,1-.905.131c-.944,0-1.439-.449-1.439-1.307Z"
         class="cls-5" />
      <path
         id="path316"
         d="M204.264,270.38a2.378,2.378,0,0,1-2.382-2.428,2.3,2.3,0,0,1,2.279-2.418,2.246,2.246,0,0,1,2.213,2.409v.261h-3.455a1.43,1.43,0,0,0,1.4,1.28,1.521,1.521,0,0,0,1.111-.439l.691.644A2.707,2.707,0,0,1,204.264,270.38Zm-1.326-2.82h2.437a1.281,1.281,0,0,0-1.224-1.167A1.256,1.256,0,0,0,202.938,267.56Z"
         class="cls-5" />
      <path
         id="path318"
         d="M210.778,263.75l3.409,4.744-.018-4.744h1.055v6.537h-1l-3.5-4.875.019,4.875h-1.055V263.75Z"
         class="cls-5" />
      <path
         id="path320"
         d="M218.834,270.38a2.378,2.378,0,0,1-2.382-2.428,2.3,2.3,0,0,1,2.279-2.418,2.246,2.246,0,0,1,2.213,2.409v.261h-3.455a1.429,1.429,0,0,0,1.4,1.28,1.523,1.523,0,0,0,1.112-.439l.691.644A2.707,2.707,0,0,1,218.834,270.38Zm-1.327-2.82h2.438a1.281,1.281,0,0,0-1.224-1.167A1.257,1.257,0,0,0,217.507,267.56Z"
         class="cls-5" />
      <path
         id="path322"
         d="M222.6,266.449h-.943v-.841h.943V264.32l1.056-.224v1.512h1.307v.841h-1.307v2.372c0,.457.177.635.653.635a1.938,1.938,0,0,0,.635-.112v.887a3.317,3.317,0,0,1-.905.131c-.944,0-1.439-.449-1.439-1.307Z"
         class="cls-5" />
      <path
         id="path324"
         d="M226.713,270.287l-1.261-4.679h1.009l.821,3.306.962-3.306h.9l.962,3.316.812-3.316h.99l-1.261,4.679h-1.017l-.944-3.3-.943,3.3Z"
         class="cls-5" />
      <path
         id="path326"
         d="M234.918,265.534a2.424,2.424,0,1,1-2.353,2.418A2.335,2.335,0,0,1,234.918,265.534Zm1.307,2.428a1.323,1.323,0,1,0-2.615,0,1.32,1.32,0,1,0,2.615,0Z"
         class="cls-5" />
      <path
         id="path328"
         d="M238.368,265.608h1.055v1.018a1.387,1.387,0,0,1,1.289-1.1,1.273,1.273,0,0,1,.457.094v.924a1.5,1.5,0,0,0-.579-.112,1.284,1.284,0,0,0-1.167.775v3.082h-1.055Z"
         class="cls-5" />
      <path
         id="path330"
         d="M242.041,263.61l1.055-.178v4.175l1.942-2h1.2l-2.139,2.167,2.27,2.512H245.02L243.1,268.13v2.157h-1.055Z"
         class="cls-5" />
    </g>
    <g
       id="g366">
      <path
         id="path334"
         d="M123.3,234.347h2.924a2.028,2.028,0,1,1,0,4.044h-1.8v2.493H123.3Zm1.121.943v2.185h1.625a1.1,1.1,0,1,0,.009-2.185Z"
         class="cls-5" />
      <path
         id="path336"
         d="M129.52,236.205h1.055v1.018a1.387,1.387,0,0,1,1.288-1.1,1.274,1.274,0,0,1,.458.094v.924a1.5,1.5,0,0,0-.579-.112,1.284,1.284,0,0,0-1.167.776v3.081H129.52Z"
         class="cls-5" />
      <path
         id="path338"
         d="M135.359,240.977a2.378,2.378,0,0,1-2.381-2.427,2.3,2.3,0,0,1,2.278-2.419,2.245,2.245,0,0,1,2.213,2.409v.262h-3.455a1.43,1.43,0,0,0,1.4,1.279,1.519,1.519,0,0,0,1.111-.439l.691.644A2.7,2.7,0,0,1,135.359,240.977Zm-1.326-2.82h2.437a1.28,1.28,0,0,0-1.223-1.167A1.257,1.257,0,0,0,134.033,238.157Z"
         class="cls-5" />
      <path
         id="path340"
         d="M138.622,239.633a2.7,2.7,0,0,0,1.5.532c.56,0,.943-.252.943-.626,0-.289-.2-.448-.645-.532l-.831-.14c-.905-.168-1.354-.588-1.354-1.289,0-.877.719-1.447,1.812-1.447a3.287,3.287,0,0,1,1.839.56l-.494.691a2.56,2.56,0,0,0-1.411-.448c-.485,0-.8.205-.8.551,0,.3.168.429.663.513l.822.15c.934.178,1.382.607,1.382,1.307a1.714,1.714,0,0,1-1.905,1.522,3.144,3.144,0,0,1-2.017-.634Z"
         class="cls-5" />
      <path
         id="path342"
         d="M145.191,240.977a2.378,2.378,0,0,1-2.382-2.427,2.3,2.3,0,0,1,2.278-2.419,2.246,2.246,0,0,1,2.214,2.409v.262h-3.455a1.428,1.428,0,0,0,1.4,1.279,1.522,1.522,0,0,0,1.111-.439l.691.644A2.7,2.7,0,0,1,145.191,240.977Zm-1.327-2.82H146.3a1.281,1.281,0,0,0-1.224-1.167A1.258,1.258,0,0,0,143.864,238.157Z"
         class="cls-5" />
      <path
         id="path344"
         d="M148.379,236.205h1.055v.767a1.7,1.7,0,0,1,1.485-.841,1.574,1.574,0,0,1,1.615,1.672v3.081h-1.055V238.1a1.007,1.007,0,0,0-1.027-1.12,1.2,1.2,0,0,0-1.018.56v3.343h-1.055Z"
         class="cls-5" />
      <path
         id="path346"
         d="M154.4,237.046h-.943v-.841h.943v-1.288l1.055-.224v1.512h1.307v.841h-1.307v2.372c0,.458.177.635.654.635a1.942,1.942,0,0,0,.635-.112v.887a3.325,3.325,0,0,1-.906.131c-.943,0-1.438-.448-1.438-1.308Z"
         class="cls-5" />
      <path
         id="path348"
         d="M157.454,239.539c0-.84.681-1.372,1.783-1.372a2.893,2.893,0,0,1,1.261.289v-.513c0-.617-.355-.934-1.074-.934a3.235,3.235,0,0,0-1.363.364l-.374-.766a4.488,4.488,0,0,1,1.942-.476c1.214,0,1.915.616,1.915,1.7v3.054H160.5v-.476a1.952,1.952,0,0,1-1.391.551A1.475,1.475,0,0,1,157.454,239.539Zm1.942.682a1.673,1.673,0,0,0,1.1-.383v-.765a2.419,2.419,0,0,0-1.083-.225c-.6,0-.972.262-.972.673C158.443,239.95,158.817,240.221,159.4,240.221Z"
         class="cls-5" />
      <path
         id="path350"
         d="M163.406,237.046h-.943v-.841h.943v-1.288l1.056-.224v1.512h1.307v.841h-1.307v2.372c0,.458.177.635.653.635a1.938,1.938,0,0,0,.635-.112v.887a3.319,3.319,0,0,1-.906.131c-.943,0-1.438-.448-1.438-1.308Z"
         class="cls-5" />
      <path
         id="path352"
         d="M166.566,234.609a.658.658,0,0,1,1.316,0,.658.658,0,0,1-1.316,0Zm1.186,6.275H166.7v-4.679h1.056Z"
         class="cls-5" />
      <path
         id="path354"
         d="M171.19,236.131a2.424,2.424,0,1,1-2.353,2.419A2.336,2.336,0,0,1,171.19,236.131Zm1.307,2.428a1.323,1.323,0,1,0-2.615,0,1.32,1.32,0,1,0,2.615,0Z"
         class="cls-5" />
      <path
         id="path356"
         d="M174.64,236.205H175.7v.767a1.7,1.7,0,0,1,1.485-.841A1.575,1.575,0,0,1,178.8,237.8v3.081H177.74V238.1a1.007,1.007,0,0,0-1.027-1.12,1.2,1.2,0,0,0-1.018.56v3.343H174.64Z"
         class="cls-5" />
      <path
         id="path358"
         d="M181.761,234.347h5.492v.971h-2.176v5.566h-1.121v-5.566h-2.195Z"
         class="cls-5" />
      <path
         id="path360"
         d="M188.023,234.609a.659.659,0,0,1,1.317,0,.659.659,0,0,1-1.317,0Zm1.186,6.275h-1.055v-4.679h1.055Z"
         class="cls-5" />
      <path
         id="path362"
         d="M192.675,240.977a2.378,2.378,0,0,1-2.381-2.427,2.3,2.3,0,0,1,2.278-2.419,2.246,2.246,0,0,1,2.214,2.409v.262h-3.455a1.428,1.428,0,0,0,1.4,1.279,1.519,1.519,0,0,0,1.111-.439l.692.644A2.7,2.7,0,0,1,192.675,240.977Zm-1.326-2.82h2.438a1.281,1.281,0,0,0-1.224-1.167A1.258,1.258,0,0,0,191.349,238.157Z"
         class="cls-5" />
      <path
         id="path364"
         d="M195.864,236.205h1.055v1.018a1.387,1.387,0,0,1,1.289-1.1,1.273,1.273,0,0,1,.457.094v.924a1.5,1.5,0,0,0-.578-.112,1.284,1.284,0,0,0-1.168.776v3.081h-1.055Z"
         class="cls-5" />
    </g>
    <g
       id="g398">
      <path
         id="path368"
         d="M353.689,234.347h1.3l2.532,6.537h-1.2l-.663-1.83h-2.69l-.672,1.83H351.12Zm1.634,3.829-1.008-2.783-1.028,2.783Z"
         class="cls-5" />
      <path
         id="path370"
         d="M358.232,236.205h1.037v.673a1.762,1.762,0,0,1,1.457-.71,2.245,2.245,0,0,1,2.119,2.382,2.268,2.268,0,0,1-2.2,2.381,1.75,1.75,0,0,1-1.363-.607v2.54h-1.055Zm1.055,1.373v1.952a1.434,1.434,0,0,0,1.12.514,1.5,1.5,0,0,0,0-2.988A1.374,1.374,0,0,0,359.287,237.578Z"
         class="cls-5" />
      <path
         id="path372"
         d="M363.942,236.205h1.037v.673a1.763,1.763,0,0,1,1.457-.71,2.245,2.245,0,0,1,2.119,2.382,2.268,2.268,0,0,1-2.195,2.381,1.75,1.75,0,0,1-1.363-.607v2.54h-1.055ZM365,237.578v1.952a1.434,1.434,0,0,0,1.12.514,1.5,1.5,0,0,0,0-2.988A1.373,1.373,0,0,0,365,237.578Z"
         class="cls-5" />
      <path
         id="path374"
         d="M370.708,240.884h-1.056v-6.677l1.056-.177Z"
         class="cls-5" />
      <path
         id="path376"
         d="M371.876,234.609a.659.659,0,0,1,1.317,0,.659.659,0,0,1-1.317,0Zm1.187,6.275h-1.056v-4.679h1.056Z"
         class="cls-5" />
      <path
         id="path378"
         d="M377.706,239.53l.635.635a2.434,2.434,0,0,1-1.83.812,2.419,2.419,0,0,1,0-4.837,2.518,2.518,0,0,1,1.867.785l-.653.681a1.547,1.547,0,0,0-1.177-.55,1.5,1.5,0,0,0,.028,2.988A1.437,1.437,0,0,0,377.706,239.53Z"
         class="cls-5" />
      <path
         id="path380"
         d="M379.017,239.539c0-.84.681-1.372,1.784-1.372a2.9,2.9,0,0,1,1.261.289v-.513c0-.617-.356-.934-1.075-.934a3.235,3.235,0,0,0-1.363.364l-.374-.766a4.492,4.492,0,0,1,1.942-.476c1.215,0,1.916.616,1.916,1.7v3.054h-1.046v-.476a1.956,1.956,0,0,1-1.392.551A1.476,1.476,0,0,1,379.017,239.539Zm1.942.682a1.673,1.673,0,0,0,1.1-.383v-.765a2.423,2.423,0,0,0-1.084-.225c-.6,0-.971.262-.971.673C380.007,239.95,380.38,240.221,380.959,240.221Z"
         class="cls-5" />
      <path
         id="path382"
         d="M384.97,237.046h-.944v-.841h.944v-1.288l1.055-.224v1.512h1.308v.841h-1.308v2.372c0,.458.177.635.654.635a1.938,1.938,0,0,0,.635-.112v.887a3.319,3.319,0,0,1-.906.131c-.943,0-1.438-.448-1.438-1.308Z"
         class="cls-5" />
      <path
         id="path384"
         d="M388.128,234.609a.659.659,0,0,1,1.317,0,.659.659,0,0,1-1.317,0Zm1.187,6.275h-1.056v-4.679h1.056Z"
         class="cls-5" />
      <path
         id="path386"
         d="M392.753,236.131a2.424,2.424,0,1,1-2.353,2.419A2.337,2.337,0,0,1,392.753,236.131Zm1.308,2.428a1.323,1.323,0,1,0-2.616,0,1.321,1.321,0,1,0,2.616,0Z"
         class="cls-5" />
      <path
         id="path388"
         d="M396.2,236.205h1.056v.767a1.7,1.7,0,0,1,1.484-.841,1.575,1.575,0,0,1,1.616,1.672v3.081H399.3V238.1a1.008,1.008,0,0,0-1.028-1.12,1.2,1.2,0,0,0-1.017.56v3.343H396.2Z"
         class="cls-5" />
      <path
         id="path390"
         d="M403.325,234.347h5.492v.971h-2.176v5.566H405.52v-5.566h-2.195Z"
         class="cls-5" />
      <path
         id="path392"
         d="M409.587,234.609a.658.658,0,0,1,1.316,0,.658.658,0,0,1-1.316,0Zm1.186,6.275h-1.056v-4.679h1.056Z"
         class="cls-5" />
      <path
         id="path394"
         d="M414.239,240.977a2.377,2.377,0,0,1-2.381-2.427,2.3,2.3,0,0,1,2.279-2.419,2.246,2.246,0,0,1,2.213,2.409v.262H412.9a1.428,1.428,0,0,0,1.4,1.279,1.519,1.519,0,0,0,1.111-.439l.692.644A2.7,2.7,0,0,1,414.239,240.977Zm-1.326-2.82h2.438a1.281,1.281,0,0,0-1.224-1.167A1.257,1.257,0,0,0,412.913,238.157Z"
         class="cls-5" />
      <path
         id="path396"
         d="M417.427,236.205h1.056v1.018a1.386,1.386,0,0,1,1.289-1.1,1.277,1.277,0,0,1,.457.094v.924a1.5,1.5,0,0,0-.579-.112,1.284,1.284,0,0,0-1.167.776v3.081h-1.056Z"
         class="cls-5" />
    </g>
    <g
       id="g424">
      <path
         id="path400"
         d="M493.606,234.347H496a3.269,3.269,0,1,1,0,6.537h-2.39Zm1.121.971v4.595h1.3a2.308,2.308,0,0,0,0-4.595Z"
         class="cls-5" />
      <path
         id="path402"
         d="M500.176,239.539c0-.84.682-1.372,1.784-1.372a2.9,2.9,0,0,1,1.261.289v-.513c0-.617-.356-.934-1.074-.934a3.239,3.239,0,0,0-1.364.364l-.374-.766a4.5,4.5,0,0,1,1.943-.476c1.214,0,1.915.616,1.915,1.7v3.054h-1.046v-.476a1.956,1.956,0,0,1-1.392.551A1.476,1.476,0,0,1,500.176,239.539Zm1.942.682a1.673,1.673,0,0,0,1.1-.383v-.765a2.423,2.423,0,0,0-1.084-.225c-.6,0-.971.262-.971.673C501.166,239.95,501.539,240.221,502.118,240.221Z"
         class="cls-5" />
      <path
         id="path404"
         d="M506.128,237.046h-.943v-.841h.943v-1.288l1.056-.224v1.512h1.307v.841h-1.307v2.372c0,.458.176.635.653.635a1.938,1.938,0,0,0,.635-.112v.887a3.317,3.317,0,0,1-.9.131c-.944,0-1.439-.448-1.439-1.308Z"
         class="cls-5" />
      <path
         id="path406"
         d="M509.185,239.539c0-.84.681-1.372,1.784-1.372a2.9,2.9,0,0,1,1.261.289v-.513c0-.617-.356-.934-1.075-.934a3.235,3.235,0,0,0-1.363.364l-.374-.766a4.492,4.492,0,0,1,1.942-.476c1.215,0,1.915.616,1.915,1.7v3.054H512.23v-.476a1.956,1.956,0,0,1-1.392.551A1.476,1.476,0,0,1,509.185,239.539Zm1.942.682a1.673,1.673,0,0,0,1.1-.383v-.765a2.423,2.423,0,0,0-1.084-.225c-.6,0-.971.262-.971.673C510.175,239.95,510.548,240.221,511.127,240.221Z"
         class="cls-5" />
      <path
         id="path408"
         d="M516.978,240.931a1.741,1.741,0,0,1-1.382-.654v.607h-1.037v-6.677l1.055-.177v2.8a1.823,1.823,0,0,1,1.439-.663,2.394,2.394,0,0,1-.075,4.763Zm-1.364-3.353v1.952a1.434,1.434,0,0,0,1.12.514,1.5,1.5,0,0,0,0-2.988A1.375,1.375,0,0,0,515.614,237.578Z"
         class="cls-5" />
      <path
         id="path410"
         d="M520.035,239.539c0-.84.682-1.372,1.784-1.372a2.9,2.9,0,0,1,1.261.289v-.513c0-.617-.355-.934-1.074-.934a3.235,3.235,0,0,0-1.363.364l-.374-.766a4.492,4.492,0,0,1,1.942-.476c1.214,0,1.915.616,1.915,1.7v3.054H523.08v-.476a1.953,1.953,0,0,1-1.391.551A1.476,1.476,0,0,1,520.035,239.539Zm1.943.682a1.669,1.669,0,0,0,1.1-.383v-.765a2.423,2.423,0,0,0-1.084-.225c-.6,0-.971.262-.971.673C521.025,239.95,521.4,240.221,521.978,240.221Z"
         class="cls-5" />
      <path
         id="path412"
         d="M525.483,239.633a2.7,2.7,0,0,0,1.5.532c.561,0,.944-.252.944-.626,0-.289-.2-.448-.645-.532l-.831-.14c-.9-.168-1.353-.588-1.353-1.289,0-.877.718-1.447,1.811-1.447a3.292,3.292,0,0,1,1.84.56l-.5.691a2.557,2.557,0,0,0-1.41-.448c-.486,0-.8.205-.8.551,0,.3.168.429.663.513l.821.15c.934.178,1.382.607,1.382,1.307a1.713,1.713,0,0,1-1.9,1.522,3.145,3.145,0,0,1-2.018-.634Z"
         class="cls-5" />
      <path
         id="path414"
         d="M532.052,240.977a2.378,2.378,0,0,1-2.382-2.427,2.3,2.3,0,0,1,2.279-2.419,2.245,2.245,0,0,1,2.213,2.409v.262h-3.455a1.43,1.43,0,0,0,1.4,1.279,1.521,1.521,0,0,0,1.111-.439l.691.644A2.7,2.7,0,0,1,532.052,240.977Zm-1.326-2.82h2.437a1.28,1.28,0,0,0-1.223-1.167A1.257,1.257,0,0,0,530.726,238.157Z"
         class="cls-5" />
      <path
         id="path416"
         d="M536.923,234.347h5.491v.971h-2.176v5.566h-1.121v-5.566h-2.194Z"
         class="cls-5" />
      <path
         id="path418"
         d="M543.185,234.609a.658.658,0,0,1,1.316,0,.658.658,0,0,1-1.316,0Zm1.185,6.275h-1.055v-4.679h1.055Z"
         class="cls-5" />
      <path
         id="path420"
         d="M547.837,240.977a2.378,2.378,0,0,1-2.382-2.427,2.305,2.305,0,0,1,2.279-2.419,2.245,2.245,0,0,1,2.213,2.409v.262h-3.455a1.43,1.43,0,0,0,1.4,1.279,1.521,1.521,0,0,0,1.111-.439l.691.644A2.7,2.7,0,0,1,547.837,240.977Zm-1.326-2.82h2.437a1.28,1.28,0,0,0-1.223-1.167A1.257,1.257,0,0,0,546.511,238.157Z"
         class="cls-5" />
      <path
         id="path422"
         d="M551.025,236.205h1.055v1.018a1.387,1.387,0,0,1,1.289-1.1,1.268,1.268,0,0,1,.457.094v.924a1.5,1.5,0,0,0-.579-.112,1.285,1.285,0,0,0-1.167.776v3.081h-1.055Z"
         class="cls-5" />
    </g>
    <g
       id="g432">
      <path
         id="path426"
         d="M507.757,166.156v8.66c0,4.782,7.018,8.659,15.675,8.659s15.674-3.877,15.674-8.659v-8.66"
         class="cls-6" />
      <path
         id="path428"
         d="M507.757,157.5v8.66c0,4.782,7.018,8.66,15.675,8.66s15.674-3.878,15.674-8.66V157.5"
         class="cls-6" />
      <ellipse
         id="ellipse430"
         ry="8.66"
         rx="15.675"
         cy="157.496"
         cx="523.432"
         class="cls-6" />
    </g>
    <g
       id="g440">
      <rect
         id="rect434"
         height="13.518"
         width="17.634"
         y="129.757"
         x="388.431"
         class="cls-6" />
      <line
         id="line436"
         y2="131.786"
         x2="404.03"
         y1="131.786"
         x1="404.03"
         class="cls-7" />
      <line
         id="line438"
         y2="131.786"
         x2="401.616"
         y1="131.786"
         x1="401.616"
         class="cls-7" />
    </g>
    <g
       id="g448">
      <rect
         id="rect442"
         height="13.518"
         width="17.634"
         y="195.437"
         x="388.431"
         class="cls-6" />
      <line
         id="line444"
         y2="197.466"
         x2="404.03"
         y1="197.466"
         x1="404.03"
         class="cls-7" />
      <line
         id="line446"
         y2="197.466"
         x2="401.616"
         y1="197.466"
         x1="401.616"
         class="cls-7" />
    </g>
  </g>
</svg>
