<?xml version="1.0" encoding="UTF-8" standalone="no"?>
<svg
   xmlns:dc="http://purl.org/dc/elements/1.1/"
   xmlns:cc="http://creativecommons.org/ns#"
   xmlns:rdf="http://www.w3.org/1999/02/22-rdf-syntax-ns#"
   xmlns:svg="http://www.w3.org/2000/svg"
   xmlns="http://www.w3.org/2000/svg"
   xmlns:sodipodi="http://sodipodi.sourceforge.net/DTD/sodipodi-0.dtd"
   xmlns:inkscape="http://www.inkscape.org/namespaces/inkscape"
   id="Layer_1"
   data-name="Layer 1"
   width="61.803596cm"
   height="40.496876cm"
   viewBox="0 0 1751.8185 1148"
   version="1.1"
   sodipodi:docname="customize-horizon-cloud-init-flow-chart.svg"
   inkscape:version="1.0 (4035a4f, 2020-05-01)">
  <metadata
     id="metadata451">
    <rdf:RDF>
      <cc:Work
         rdf:about="">
        <dc:format>image/svg+xml</dc:format>
        <dc:type
           rdf:resource="http://purl.org/dc/dcmitype/StillImage" />
        <dc:title>customize-horizon-cloud-init-flow-chart</dc:title>
      </cc:Work>
    </rdf:RDF>
  </metadata>
  <sodipodi:namedview
     fit-margin-bottom="0"
     fit-margin-right="0"
     fit-margin-left="0"
     fit-margin-top="0"
     inkscape:document-rotation="0"
     pagecolor="#ffffff"
     bordercolor="#666666"
     borderopacity="1"
     objecttolerance="10"
     gridtolerance="10"
     guidetolerance="10"
     inkscape:pageopacity="0"
     inkscape:pageshadow="2"
     inkscape:window-width="1633"
     inkscape:window-height="1012"
     id="namedview449"
     showgrid="false"
     inkscape:zoom="0.3201882"
     inkscape:cx="1712.9339"
     inkscape:cy="935.15234"
     inkscape:window-x="0"
     inkscape:window-y="1200"
     inkscape:window-maximized="0"
     inkscape:current-layer="Layer_1" />
  <defs
     id="defs12">
    <style
       id="style10">.cls-1{fill:#f0f0f0;}.cls-2{fill:#0088ce;}.cls-3{fill:#4c4c4c;}.cls-4{fill:#fff;}.cls-5{opacity:0.3;}.cls-6{opacity:0.1;}.cls-7{fill:#dcdcdc;}</style>
  </defs>
  <title
     id="title14">customize-horizon-cloud-init-flow-chart</title>
  <rect
     x="-0.090782367"
     class="cls-1"
     y="0"
     width="1752"
     height="610"
     id="rect16" />
  <rect
     x="-0.090782367"
     class="cls-1"
     y="624"
     width="1752"
     height="524"
     id="rect18" />
  <path
     class="cls-3"
     d="m 54.509218,64 h -8.8 V 34.6 h 9.2 c 8.4,0 14.6,3.9 14.6,14.7 0,10.3 -7.5,14.7 -15,14.7 z m 0.2,-23.7 h -3.1 v 18 h 2.9 c 6.2,0 9,-3.6 9,-9 -0.1,-6 -2.6,-9 -8.8,-9 z"
     id="path22" />
  <path
     class="cls-3"
     d="m 86.309218,64 v -1.5 a 7.12,7.12 0 0 1 -5,1.9 c -4.1,0 -8.2,-2.5 -8.2,-7.9 0,-4.9 3.9,-7.3 8.9,-7.3 a 8.45,8.45 0 0 1 4.2,0.9 V 49 c 0,-1.6 -1.1,-2.8 -3.2,-2.8 a 10.73,10.73 0 0 0 -6,1.5 l -2.2,-4 a 14.69,14.69 0 0 1 8.3,-2.2 c 5.3,0 8.9,2.8 8.9,7.7 V 64 Z m 0,-9.2 a 7,7 0 0 0 -4,-0.9 c -2.2,0 -3.4,1 -3.4,2.8 0,1.6 0.9,2.9 3.4,2.9 a 4.74,4.74 0 0 0 4,-2 z"
     id="path24" />
  <path
     class="cls-3"
     d="m 106.00922,64.5 a 16.63,16.63 0 0 1 -9.200002,-2.6 l 1.9,-4.4 a 15.4,15.4 0 0 0 7.600002,2 c 2.3,0 2.9,-0.5 2.9,-1.7 0,-1 -0.8,-1.5 -3.2,-2.2 -5.3,-1.6 -8.700002,-2.9 -8.700002,-7.6 0,-4.7 3.700002,-6.6 8.800002,-6.6 a 17.12,17.12 0 0 1 8.1,2.1 l -1.8,4.6 a 14.18,14.18 0 0 0 -6.4,-1.8 c -2.4,0 -3,0.5 -3,1.4 0,0.9 0.7,1.3 4.6,2.6 3.9,1.3 7.4,2.7 7.4,7.1 0,5.3 -4,7.1 -9,7.1 z"
     id="path26" />
  <path
     class="cls-3"
     d="M 133.40922,64 V 52.1 c 0,-3.9 -1.3,-5.1 -3.7,-5.1 -2.4,0 -3.8,1.2 -3.8,5 v 12 h -5.8 V 36.3 l 5.8,-2.9 v 10 a 7.1,7.1 0 0 1 5.2,-1.9 c 5.6,0 8.1,3.9 8.1,10.1 V 64 Z"
     id="path28" />
  <path
     class="cls-3"
     d="m 155.10922,64.5 a 7.62,7.62 0 0 1 -4.7,-1.7 v 1.3 h -5.8 V 36.4 l 5.8,-2.9 v 10 a 6.74,6.74 0 0 1 4.7,-1.8 c 4.7,0 8.6,3.5 8.6,11.8 0,6.3 -3.1,11 -8.6,11 z m -1.1,-17.6 a 4.39,4.39 0 0 0 -3.6,1.8 V 57 a 4.65,4.65 0 0 0 3.9,1.9 c 2.2,0 3.4,-1.9 3.4,-5.6 0.1,-4.5 -1.4,-6.4 -3.7,-6.4 z"
     id="path30" />
  <path
     class="cls-3"
     d="m 177.10922,64.5 c -5.8,0 -10,-4.7 -10,-11.5 0,-6.8 4.2,-11.5 10,-11.5 5.8,0 10,4.7 10,11.5 0,6.8 -4.3,11.5 -10,11.5 z m 0,-17.4 c -2.8,0 -4.1,2.5 -4.1,5.9 0,3.4 1.3,5.9 4.1,5.9 2.8,0 4.1,-2.8 4.1,-5.9 0,-3.4 -1.4,-5.9 -4.1,-5.9 z"
     id="path32" />
  <path
     class="cls-3"
     d="m 203.50922,64 v -1.5 a 7.12,7.12 0 0 1 -5,1.9 c -4.1,0 -8.2,-2.5 -8.2,-7.9 0,-4.9 3.9,-7.3 8.9,-7.3 a 8.45,8.45 0 0 1 4.2,0.9 V 49 c 0,-1.6 -1.1,-2.8 -3.2,-2.8 a 10.73,10.73 0 0 0 -6,1.5 l -2.2,-4 a 14.69,14.69 0 0 1 8.3,-2.2 c 5.3,0 8.9,2.8 8.9,7.7 V 64 Z m 0,-9.2 a 7,7 0 0 0 -4,-0.9 c -2.2,0 -3.4,1 -3.4,2.8 0,1.6 0.9,2.9 3.4,2.9 a 4.74,4.74 0 0 0 4,-2 z"
     id="path34" />
  <path
     class="cls-3"
     d="m 227.60922,48.7 a 5.22,5.22 0 0 0 -3.4,-1.4 c -2.3,0 -3.7,1 -3.7,4.8 V 64 h -5.8 V 41.9 h 5.8 v 1.5 a 5.9,5.9 0 0 1 4.5,-1.9 5.77,5.77 0 0 1 4.1,1.6 z"
     id="path36" />
  <path
     class="cls-3"
     d="m 244.10922,64 v -1.4 a 6.74,6.74 0 0 1 -4.7,1.8 c -4.7,0 -8.6,-3.5 -8.6,-11.8 0,-6.6 3.1,-11.2 8.6,-11.2 a 7.62,7.62 0 0 1 4.7,1.7 v -6.9 l 5.8,-2.9 V 64 Z m 0,-15.2 a 4.65,4.65 0 0 0 -3.9,-1.9 c -2.2,0 -3.4,1.9 -3.4,5.6 0,4.5 1.5,6.4 3.8,6.4 a 4.39,4.39 0 0 0 3.6,-1.8 v -8.3 z"
     id="path38" />
  <rect
     class="cls-4"
     x="100.50922"
     y="212"
     width="390"
     height="166"
     id="rect92" />
  <g
     transform="translate(-0.09078237,-120)"
     class="cls-5"
     id="g96">
    <rect
       class="cls-2"
       x="1236.6"
       y="198"
       width="390"
       height="166"
       id="rect94" />
  </g>
  <g
     transform="translate(-0.09078237,-120)"
     class="cls-6"
     id="g100">
    <rect
       class="cls-2"
       x="668.59998"
       y="198"
       width="390"
       height="166"
       id="rect98" />
  </g>
  <g
     transform="translate(-0.09078237,-120)"
     class="cls-6"
     id="g104">
    <rect
       class="cls-2"
       x="668.59998"
       y="466"
       width="390"
       height="166"
       id="rect102" />
  </g>
  <rect
     class="cls-7"
     x="1236.5092"
     y="541"
     width="390"
     height="166"
     id="rect106" />
  <rect
     class="cls-4"
     x="100.50922"
     y="811"
     width="390"
     height="166"
     id="rect108" />
  <g
     transform="translate(-0.09078237,-120)"
     class="cls-5"
     id="g112">
    <rect
       class="cls-2"
       x="668.59998"
       y="931"
       width="390"
       height="166"
       id="rect110" />
  </g>
  <g
     transform="translate(-0.09078237,-120)"
     class="cls-6"
     id="g116">
    <rect
       class="cls-2"
       x="1236.6"
       y="931"
       width="390"
       height="166"
       id="rect114" />
  </g>
  <polygon
     transform="translate(-0.09078237,-120)"
     class="cls-3"
     points="490.6,414 579.1,414 579.1,279.5 654.2,279.5 654.2,281.5 581.1,281.5 581.1,416 490.6,416 "
     id="polygon118" />
  <polygon
     transform="translate(-0.09078237,-120)"
     class="cls-3"
     points="651.3,270.5 651.3,290.5 668.6,280.5 "
     id="polygon120" />
  <polygon
     transform="translate(-0.09078237,-120)"
     class="cls-3"
     points="579.1,416 490.6,416 490.6,414 581.1,414 581.1,548 654.2,548 654.2,550 579.1,550 "
     id="polygon122" />
  <polygon
     transform="translate(-0.09078237,-120)"
     class="cls-3"
     points="651.3,539 651.3,559 668.6,549 "
     id="polygon124" />
  <rect
     class="cls-3"
     x="1058.5092"
     y="159.5"
     width="163.60001"
     height="2"
     id="rect126" />
  <polygon
     transform="translate(-0.09078237,-120)"
     class="cls-3"
     points="1219.3,270.5 1219.3,290.5 1236.6,280.5 "
     id="polygon128" />
  <rect
     class="cls-3"
     x="1430.5092"
     y="244"
     width="2"
     height="282.60001"
     id="rect130" />
  <polygon
     transform="translate(-0.09078237,-120)"
     class="cls-3"
     points="1441.6,643.7 1421.6,643.7 1431.6,661 "
     id="polygon132" />
  <rect
     class="cls-3"
     x="1430.5092"
     y="707"
     width="2"
     height="89.599998"
     id="rect134" />
  <polygon
     transform="translate(-0.09078237,-120)"
     class="cls-3"
     points="1441.6,913.7 1421.6,913.7 1431.6,931 "
     id="polygon136" />
  <rect
     class="cls-3"
     x="1072.9092"
     y="893"
     width="163.60001"
     height="2"
     id="rect138" />
  <polygon
     transform="translate(-0.09078237,-120)"
     class="cls-3"
     points="1075.9,1024 1075.9,1004 1058.6,1014 "
     id="polygon140" />
  <rect
     class="cls-3"
     x="504.90921"
     y="893"
     width="163.60001"
     height="2"
     id="rect142" />
  <polygon
     transform="translate(-0.09078237,-120)"
     class="cls-3"
     points="507.9,1024 507.9,1004 490.6,1014 "
     id="polygon144" />
  <path
     class="cls-2"
     d="m 195.40922,309.2 c -6.5,0 -10.7,-5.4 -10.7,-13 0,-7.6 4.1,-13 10.7,-13 a 9.26,9.26 0 0 1 8.6,4.7 l -3.3,2.1 c -1.3,-2.1 -2.6,-3 -5.2,-3 -4.4,0 -6.8,3.6 -6.8,9.2 0,5.6 2.4,9.2 6.8,9.2 a 6,6 0 0 0 5.5,-3.1 l 3.1,2.1 a 9.74,9.74 0 0 1 -8.7,4.8 z"
     id="path146" />
  <path
     class="cls-2"
     d="m 215.60922,309.2 c -4.8,0 -8.3,-3.9 -8.3,-9.8 0,-6.2 3.7,-9.9 8.4,-9.9 4.7,0 8.4,3.9 8.4,9.8 0,6.2 -3.6,9.9 -8.5,9.9 z m 0,-16.2 c -2.8,0 -4.5,2.5 -4.5,6.2 0,4.1 1.9,6.4 4.7,6.4 2.8,0 4.6,-2.8 4.6,-6.3 0,-3.8 -1.8,-6.3 -4.8,-6.3 z"
     id="path148" />
  <path
     class="cls-2"
     d="m 240.20922,308.8 v -10.7 c 0,-3.8 -1.4,-5.2 -3.9,-5.2 -2.5,0 -3.9,1.8 -3.9,4.8 v 11.1 h -3.7 v -18.9 h 3.7 v 1.8 a 5.68,5.68 0 0 1 4.8,-2.2 c 4.4,0 6.7,2.9 6.7,8.5 v 10.8 z"
     id="path150" />
  <path
     class="cls-2"
     d="m 255.40922,285.9 c -1.2,0 -1.7,0.5 -1.7,1.8 v 2.2 h 3.5 v 3.5 h -3.5 v 15.4 h -3.7 v -15.4 h -2.5 v -3.5 h 2.4 v -2.5 c 0,-3.5 2.1,-4.8 4.8,-4.8 a 8.25,8.25 0 0 1 2.8,0.4 v 3.2 a 8.81,8.81 0 0 0 -2.1,-0.3 z"
     id="path152" />
  <path
     class="cls-2"
     d="m 263.60922,287.5 a 2.4,2.4 0 1 1 2.4,-2.4 2.43,2.43 0 0 1 -2.4,2.4 z m -1.9,21.3 v -18.9 h 3.7 v 18.9 z"
     id="path154" />
  <path
     class="cls-2"
     d="m 277.20922,315.7 -1.3,-2.8 c 5.3,-0.3 6.5,-1.7 6.5,-5.6 V 307 a 7,7 0 0 1 -4.9,2.2 c -4,0 -7.3,-3 -7.3,-10.2 0,-6.5 3.6,-9.5 7.5,-9.5 a 6.38,6.38 0 0 1 4.7,2.2 v -1.8 h 3.7 V 307 c 0,5.8 -2,8.5 -8.9,8.7 z m 5.3,-20.3 a 6.15,6.15 0 0 0 -4.4,-2.5 c -2.7,0 -4.1,2 -4.1,6 0,4.8 1.5,6.8 4.2,6.8 a 5.89,5.89 0 0 0 4.3,-2.4 z"
     id="path156" />
  <path
     class="cls-2"
     d="M 303.00922,308.8 V 307 a 5.68,5.68 0 0 1 -4.8,2.2 c -4.4,0 -6.7,-2.9 -6.7,-8.5 v -10.8 h 3.7 v 10.7 c 0,3.8 1.4,5.2 3.9,5.2 2.5,0 3.9,-1.8 3.9,-4.8 v -11.1 h 3.7 v 18.9 z"
     id="path158" />
  <path
     class="cls-2"
     d="m 322.40922,293.8 a 5.78,5.78 0 0 0 -2.8,-0.7 c -2.3,0 -3.7,1.7 -3.7,4.9 v 10.8 h -3.7 v -18.9 h 3.7 v 1.8 a 5.12,5.12 0 0 1 4.3,-2.2 5.58,5.58 0 0 1 3.2,0.8 z"
     id="path160" />
  <path
     class="cls-2"
     d="m 336.80922,308.8 v -1.9 a 7.4,7.4 0 0 1 -5.2,2.3 c -3.1,0 -6.6,-1.7 -6.6,-6.4 0,-4.2 3.2,-6.1 7.5,-6.1 a 11.4,11.4 0 0 1 4.2,0.7 V 296 c 0,-2.1 -1.3,-3.2 -3.6,-3.2 a 9.62,9.62 0 0 0 -4.9,1.2 l -1.4,-2.8 a 11.84,11.84 0 0 1 6.5,-1.7 c 4.2,0 7.1,2.1 7.1,6.3 v 13 z m 0,-8.1 a 9.37,9.37 0 0 0 -4.3,-0.8 c -2.4,0 -3.9,1.1 -3.9,2.8 0,1.9 1.2,3.1 3.6,3.1 a 6,6 0 0 0 4.6,-2.4 z"
     id="path162" />
  <path
     class="cls-2"
     d="m 354.80922,308.3 a 7.64,7.64 0 0 1 -3.6,0.9 c -2.6,0 -4.2,-1.6 -4.2,-5 v -10.9 h -2.7 v -3.4 h 2.7 v -5.4 l 3.6,-1.9 v 7.3 h 4.7 v 3.4 h -4.8 v 10.3 c 0,1.8 0.6,2.3 1.9,2.3 a 5.38,5.38 0 0 0 2.7,-0.8 z"
     id="path164" />
  <path
     class="cls-2"
     d="m 362.30922,287.5 a 2.4,2.4 0 1 1 2.4,-2.4 2.43,2.43 0 0 1 -2.4,2.4 z m -1.9,21.3 v -18.9 h 3.7 v 18.9 z"
     id="path166" />
  <path
     class="cls-2"
     d="m 377.20922,309.2 c -4.8,0 -8.3,-3.9 -8.3,-9.8 0,-6.2 3.7,-9.9 8.4,-9.9 4.7,0 8.4,3.9 8.4,9.8 0,6.2 -3.6,9.9 -8.5,9.9 z m 0,-16.2 c -2.8,0 -4.5,2.5 -4.5,6.2 0,4.1 1.9,6.4 4.7,6.4 2.8,0 4.6,-2.8 4.6,-6.3 0,-3.8 -1.9,-6.3 -4.8,-6.3 z"
     id="path168" />
  <path
     class="cls-2"
     d="m 401.80922,308.8 v -10.7 c 0,-3.8 -1.4,-5.2 -3.9,-5.2 -2.5,0 -3.9,1.8 -3.9,4.8 v 11.1 h -3.7 v -18.9 h 3.7 v 1.8 a 5.68,5.68 0 0 1 4.8,-2.2 c 4.4,0 6.7,2.9 6.7,8.5 v 10.8 z"
     id="path170" />
  <path
     class="cls-3"
     d="m 740.50922,171.2 c -6.2,0 -9.5,-4 -9.5,-11 v -14.6 h 3.8 v 14.5 c 0,4.8 2,7.3 5.8,7.3 4,0 5.8,-2.4 5.8,-7.1 v -14.8 h 3.8 v 14.7 c 0,7.1 -3.4,11 -9.7,11 z"
     id="path172" />
  <path
     class="cls-3"
     d="m 762.20922,171.2 a 12.68,12.68 0 0 1 -7.2,-2.4 l 1.7,-2.8 a 10.14,10.14 0 0 0 5.5,1.9 c 2.3,0 3.5,-0.8 3.5,-2.1 0,-1.3 -1.7,-2.1 -4.4,-3.2 -4.1,-1.6 -5.5,-3 -5.5,-5.9 0,-3.4 2.7,-5.1 6.4,-5.1 a 11.38,11.38 0 0 1 6.4,2.1 l -1.6,2.8 a 8,8 0 0 0 -4.9,-1.6 c -1.8,0 -2.6,0.7 -2.6,1.7 0,1 0.6,1.6 3.5,2.7 4.2,1.6 6.4,2.8 6.4,6.3 -0.1,4.2 -3.5,5.6 -7.2,5.6 z"
     id="path174" />
  <path
     class="cls-3"
     d="m 788.90922,162.7 h -12.5 c 0.4,3.6 2.4,5.2 4.8,5.2 a 6.88,6.88 0 0 0 4.1,-1.5 l 2.2,2.4 a 8.74,8.74 0 0 1 -6.5,2.5 c -4.4,0 -8.2,-3.6 -8.2,-9.8 0,-6.4 3.4,-9.9 8.3,-9.9 5.4,0 8,4.4 8,9.5 a 11.55,11.55 0 0 0 -0.2,1.6 z m -8.1,-7.8 c -2.5,0 -4,1.7 -4.3,4.8 h 8.8 c -0.2,-2.7 -1.4,-4.8 -4.5,-4.8 z"
     id="path176" />
  <path
     class="cls-3"
     d="m 803.90922,155.8 a 5.78,5.78 0 0 0 -2.8,-0.7 c -2.3,0 -3.7,1.7 -3.7,4.9 v 10.8 h -3.7 v -18.9 h 3.7 v 1.8 a 5.12,5.12 0 0 1 4.3,-2.2 5.58,5.58 0 0 1 3.2,0.8 z"
     id="path178" />
  <path
     class="cls-3"
     d="m 808.10922,159.5 v -3.7 h 9 v 3.7 z"
     id="path180" />
  <path
     class="cls-3"
     d="M 833.20922,170.8 V 169 a 7.17,7.17 0 0 1 -4.9,2.2 c -4.1,0 -7.3,-3 -7.3,-10.2 0,-6.5 3.5,-9.5 7.5,-9.5 a 6.79,6.79 0 0 1 4.8,2.2 v -7.2 l 3.7,-1.9 v 26.2 z m 0,-13.4 a 6.15,6.15 0 0 0 -4.4,-2.5 c -2.7,0 -4.1,2 -4.1,6 0,4.8 1.5,6.8 4.2,6.8 a 5.89,5.89 0 0 0 4.3,-2.4 z"
     id="path182" />
  <path
     class="cls-3"
     d="m 853.20922,170.8 v -1.9 a 7.4,7.4 0 0 1 -5.2,2.3 c -3.1,0 -6.6,-1.7 -6.6,-6.4 0,-4.2 3.2,-6.1 7.5,-6.1 a 11.4,11.4 0 0 1 4.2,0.7 V 158 c 0,-2.1 -1.3,-3.2 -3.6,-3.2 a 9.62,9.62 0 0 0 -4.9,1.2 l -1.4,-2.8 a 11.84,11.84 0 0 1 6.5,-1.7 c 4.2,0 7.1,2.1 7.1,6.3 v 13 z m 0,-8.1 a 9.37,9.37 0 0 0 -4.3,-0.8 c -2.4,0 -3.9,1.1 -3.9,2.8 0,1.9 1.2,3.1 3.6,3.1 a 6,6 0 0 0 4.6,-2.4 z"
     id="path184" />
  <path
     class="cls-3"
     d="m 871.20922,170.3 a 7.64,7.64 0 0 1 -3.6,0.9 c -2.6,0 -4.2,-1.6 -4.2,-5 v -10.9 h -2.7 v -3.4 h 2.7 v -5.4 l 3.6,-1.9 v 7.3 h 4.7 v 3.4 h -4.7 v 10.3 c 0,1.8 0.6,2.3 1.9,2.3 a 5.38,5.38 0 0 0 2.7,-0.8 z"
     id="path186" />
  <path
     class="cls-3"
     d="m 886.90922,170.8 v -1.9 a 7.4,7.4 0 0 1 -5.2,2.3 c -3.1,0 -6.6,-1.7 -6.6,-6.4 0,-4.2 3.2,-6.1 7.5,-6.1 a 11.4,11.4 0 0 1 4.2,0.7 V 158 c 0,-2.1 -1.3,-3.2 -3.6,-3.2 a 9.62,9.62 0 0 0 -4.9,1.2 l -1.4,-2.8 a 11.84,11.84 0 0 1 6.5,-1.7 c 4.2,0 7.1,2.1 7.1,6.3 v 13 z m 0,-8.1 a 9.37,9.37 0 0 0 -4.3,-0.8 c -2.4,0 -3.9,1.1 -3.9,2.8 0,1.9 1.2,3.1 3.6,3.1 a 6,6 0 0 0 4.6,-2.4 z"
     id="path188" />
  <path
     class="cls-3"
     d="m 911.70922,171.2 a 12.68,12.68 0 0 1 -7.2,-2.4 l 1.7,-2.8 a 10.14,10.14 0 0 0 5.5,1.9 c 2.3,0 3.5,-0.8 3.5,-2.1 0,-1.3 -1.7,-2.1 -4.4,-3.2 -4.1,-1.6 -5.5,-3 -5.5,-5.9 0,-3.4 2.7,-5.1 6.4,-5.1 a 11.38,11.38 0 0 1 6.4,2.1 l -1.6,2.8 a 8,8 0 0 0 -4.9,-1.6 c -1.8,0 -2.6,0.7 -2.6,1.7 0,1 0.6,1.6 3.5,2.7 4.2,1.6 6.4,2.8 6.4,6.3 -0.1,4.2 -3.5,5.6 -7.2,5.6 z"
     id="path190" />
  <path
     class="cls-3"
     d="m 935.10922,157.3 a 6.05,6.05 0 0 0 -4.6,-2.3 c -2.7,0 -4.4,2.4 -4.4,6.3 0,3.7 1.6,6.4 4.5,6.4 1.8,0 2.8,-0.8 4.3,-2.3 l 2.4,2.3 a 7.92,7.92 0 0 1 -6.8,3.5 c -4.6,0 -8.2,-3.9 -8.2,-9.8 0,-6.3 3.7,-9.9 8.3,-9.9 a 8.34,8.34 0 0 1 6.7,3.2 z"
     id="path192" />
  <path
     class="cls-3"
     d="m 952.30922,155.8 a 5.78,5.78 0 0 0 -2.8,-0.7 c -2.3,0 -3.7,1.7 -3.7,4.9 v 10.8 h -3.7 v -18.9 h 3.7 v 1.8 a 5.12,5.12 0 0 1 4.3,-2.2 5.58,5.58 0 0 1 3.2,0.8 z"
     id="path194" />
  <path
     class="cls-3"
     d="m 959.10922,149.5 a 2.4,2.4 0 1 1 2.4,-2.4 2.43,2.43 0 0 1 -2.4,2.4 z m -1.9,21.3 v -18.9 h 3.7 v 18.9 z"
     id="path196" />
  <path
     class="cls-3"
     d="m 975.00922,171.2 a 6.79,6.79 0 0 1 -4.8,-2.2 v 6.8 l -3.7,1.9 v -25.8 h 3.7 v 1.8 a 7.17,7.17 0 0 1 4.9,-2.2 c 4.1,0 7.3,3 7.3,10.2 0.1,6.4 -3.5,9.5 -7.4,9.5 z m -0.5,-16.3 a 5.89,5.89 0 0 0 -4.3,2.4 v 8 a 6.15,6.15 0 0 0 4.4,2.5 c 2.7,0 4.1,-2 4.1,-6 0.1,-4.8 -1.5,-6.9 -4.2,-6.9 z"
     id="path198" />
  <path
     class="cls-3"
     d="m 996.00922,170.3 a 7.64,7.64 0 0 1 -3.6,0.9 c -2.6,0 -4.2,-1.6 -4.2,-5 v -10.9 h -2.7 v -3.4 h 2.7 v -5.4 l 3.6,-1.9 v 7.3 h 4.7 v 3.4 h -4.7 v 10.3 c 0,1.8 0.6,2.3 1.9,2.3 a 5.38,5.38 0 0 0 2.7,-0.8 z"
     id="path200" />
  <path
     class="cls-3"
     d="m 1382.6092,120.2 h -6.6 v 9.4 h -3.7 v -25.2 h 10.5 c 4.6,0 8.1,2.7 8.1,7.9 0,5.2 -3.4,7.9 -8.3,7.9 z m 0.2,-12.2 h -6.8 v 8.7 h 6.8 c 2.9,0 4.3,-1.7 4.3,-4.4 a 3.94,3.94 0 0 0 -4.3,-4.3 z"
     id="path202" />
  <path
     class="cls-3"
     d="m 1404.9092,129.6 v -1.9 a 7.4,7.4 0 0 1 -5.2,2.3 c -3.1,0 -6.6,-1.7 -6.6,-6.4 0,-4.2 3.2,-6.1 7.5,-6.1 a 11.4,11.4 0 0 1 4.2,0.7 v -1.4 c 0,-2.1 -1.3,-3.2 -3.6,-3.2 a 9.62,9.62 0 0 0 -4.9,1.2 l -1.4,-2.8 a 11.84,11.84 0 0 1 6.5,-1.7 c 4.2,0 7.1,2.1 7.1,6.3 v 13 z m 0,-8 a 9.37,9.37 0 0 0 -4.3,-0.8 c -2.4,0 -3.9,1.1 -3.9,2.8 0,1.9 1.2,3.1 3.6,3.1 a 6,6 0 0 0 4.6,-2.4 z"
     id="path204" />
  <path
     class="cls-3"
     d="m 1424.1092,114.7 a 5.78,5.78 0 0 0 -2.8,-0.7 c -2.3,0 -3.7,1.7 -3.7,4.9 v 10.8 h -3.7 v -18.9 h 3.7 v 1.8 a 5.12,5.12 0 0 1 4.3,-2.2 5.58,5.58 0 0 1 3.2,0.8 z"
     id="path206" />
  <path
     class="cls-3"
     d="m 1434.3092,130 a 12.68,12.68 0 0 1 -7.2,-2.4 l 1.7,-2.8 a 10.14,10.14 0 0 0 5.5,1.9 c 2.3,0 3.5,-0.8 3.5,-2.1 0,-1.3 -1.7,-2.1 -4.4,-3.2 -4.1,-1.6 -5.5,-3 -5.5,-5.9 0,-3.4 2.7,-5.1 6.4,-5.1 a 11.38,11.38 0 0 1 6.4,2.1 l -1.6,2.8 a 8,8 0 0 0 -4.9,-1.6 c -1.8,0 -2.6,0.7 -2.6,1.7 0,1 0.6,1.6 3.5,2.7 4.2,1.6 6.4,2.8 6.4,6.3 -0.1,4.2 -3.5,5.6 -7.2,5.6 z"
     id="path208" />
  <path
     class="cls-3"
     d="m 1448.2092,108.3 a 2.4,2.4 0 1 1 2.4,-2.4 2.5,2.5 0 0 1 -2.4,2.4 z m -1.9,21.3 v -18.9 h 3.7 v 18.9 z"
     id="path210" />
  <path
     class="cls-3"
     d="m 1467.1092,129.6 v -10.7 c 0,-3.8 -1.4,-5.2 -3.9,-5.2 -2.5,0 -3.9,1.8 -3.9,4.8 v 11.1 h -3.7 v -18.9 h 3.7 v 1.8 a 5.68,5.68 0 0 1 4.8,-2.2 c 4.4,0 6.7,2.9 6.7,8.5 v 10.8 z"
     id="path212" />
  <path
     class="cls-3"
     d="m 1482.3092,136.6 -1.3,-2.8 c 5.3,-0.3 6.5,-1.7 6.5,-5.6 v -0.3 a 7,7 0 0 1 -4.9,2.2 c -4,0 -7.3,-3 -7.3,-10.2 0,-6.5 3.6,-9.5 7.5,-9.5 a 6.38,6.38 0 0 1 4.7,2.2 v -1.8 h 3.7 v 17.1 c 0,5.7 -2.1,8.5 -8.9,8.7 z m 5.3,-20.4 a 6.15,6.15 0 0 0 -4.4,-2.5 c -2.7,0 -4.1,2 -4.1,6 0,4.8 1.5,6.8 4.2,6.8 a 5.89,5.89 0 0 0 4.3,-2.4 z"
     id="path214" />
  <path
     class="cls-3"
     d="m 1328.6092,159.4 a 6.05,6.05 0 0 0 -4.6,-2.3 c -2.7,0 -4.4,2.4 -4.4,6.3 0,3.7 1.6,6.4 4.5,6.4 1.8,0 2.8,-0.8 4.3,-2.3 l 2.4,2.3 a 7.92,7.92 0 0 1 -6.8,3.5 c -4.6,0 -8.2,-3.9 -8.2,-9.8 0,-6.3 3.7,-9.9 8.3,-9.9 a 8.34,8.34 0 0 1 6.7,3.2 z"
     id="path216" />
  <path
     class="cls-3"
     d="M 1346.7092,172.8 V 171 a 5.68,5.68 0 0 1 -4.8,2.2 c -4.4,0 -6.7,-2.9 -6.7,-8.5 v -10.8 h 3.7 v 10.7 c 0,3.8 1.4,5.2 3.9,5.2 2.5,0 3.9,-1.8 3.9,-4.8 v -11.1 h 3.7 v 18.9 z"
     id="path218" />
  <path
     class="cls-3"
     d="m 1362.0092,173.2 a 12.68,12.68 0 0 1 -7.2,-2.4 l 1.7,-2.8 a 10.14,10.14 0 0 0 5.5,1.9 c 2.3,0 3.5,-0.8 3.5,-2.1 0,-1.3 -1.7,-2.1 -4.4,-3.2 -4.1,-1.6 -5.5,-3 -5.5,-5.9 0,-3.4 2.7,-5.1 6.4,-5.1 a 11.38,11.38 0 0 1 6.4,2.1 l -1.6,2.8 a 8,8 0 0 0 -4.9,-1.6 c -1.8,0 -2.6,0.7 -2.6,1.7 0,1 0.6,1.6 3.5,2.7 4.2,1.6 6.4,2.8 6.4,6.3 -0.1,4.2 -3.5,5.6 -7.2,5.6 z"
     id="path220" />
  <path
     class="cls-3"
     d="m 1382.5092,172.4 a 7.64,7.64 0 0 1 -3.6,0.9 c -2.6,0 -4.2,-1.6 -4.2,-5 v -10.9 h -2.7 V 154 h 2.7 v -5.4 l 3.6,-1.9 v 7.3 h 4.7 v 3.4 h -4.7 v 10.3 c 0,1.8 0.6,2.3 1.9,2.3 a 5.38,5.38 0 0 0 2.7,-0.8 z"
     id="path222" />
  <path
     class="cls-3"
     d="m 1394.7092,173.2 c -4.8,0 -8.3,-3.9 -8.3,-9.8 0,-6.2 3.7,-9.9 8.4,-9.9 4.7,0 8.4,3.9 8.4,9.8 0,6.3 -3.7,9.9 -8.5,9.9 z m 0,-16.1 c -2.8,0 -4.5,2.5 -4.5,6.2 0,4.1 1.9,6.4 4.7,6.4 2.8,0 4.6,-2.8 4.6,-6.3 0,-3.9 -1.9,-6.3 -4.8,-6.3 z"
     id="path224" />
  <path
     class="cls-3"
     d="m 1429.8092,172.8 v -10.7 c 0,-3.8 -1.2,-5.2 -3.6,-5.2 -2.4,0 -3.6,1.8 -3.6,4.8 v 11.1 h -3.7 v -10.7 c 0,-3.8 -1.2,-5.2 -3.6,-5.2 -2.4,0 -3.6,1.8 -3.6,4.8 v 11.1 h -3.7 v -18.9 h 3.7 v 1.8 a 5.24,5.24 0 0 1 4.5,-2.2 5.38,5.38 0 0 1 5.2,2.8 6.59,6.59 0 0 1 5.8,-2.8 c 4.4,0 6.5,2.9 6.5,8.5 v 10.8 z"
     id="path226" />
  <path
     class="cls-3"
     d="m 1440.8092,151.5 a 2.4,2.4 0 1 1 2.4,-2.4 2.43,2.43 0 0 1 -2.4,2.4 z m -1.8,21.3 v -18.9 h 3.7 v 18.9 z"
     id="path228" />
  <path
     class="cls-3"
     d="m 1447.7092,172.8 v -3 l 8.1,-9.9 c 0.8,-0.9 1.8,-2.2 2.3,-2.7 h -9.7 V 154 h 13.9 v 3 l -7.9,9.9 c -0.8,1 -1.8,2.2 -2.3,2.8 h 10.2 v 3.2 z"
     id="path230" />
  <path
     class="cls-3"
     d="M 1477.7092,172.8 V 171 a 7.4,7.4 0 0 1 -5.2,2.3 c -3.1,0 -6.6,-1.7 -6.6,-6.4 0,-4.2 3.2,-6.1 7.5,-6.1 a 11.4,11.4 0 0 1 4.2,0.7 V 160 c 0,-2.1 -1.3,-3.2 -3.6,-3.2 a 9.62,9.62 0 0 0 -4.9,1.2 l -1.4,-2.8 a 11.84,11.84 0 0 1 6.5,-1.7 c 4.2,0 7.1,2.1 7.1,6.3 v 13 z m 0,-8 a 9.37,9.37 0 0 0 -4.3,-0.8 c -2.4,0 -3.9,1.1 -3.9,2.8 0,1.9 1.2,3.1 3.6,3.1 a 6,6 0 0 0 4.6,-2.4 z"
     id="path232" />
  <path
     class="cls-3"
     d="m 1495.7092,172.4 a 7.64,7.64 0 0 1 -3.6,0.9 c -2.6,0 -4.2,-1.6 -4.2,-5 v -10.9 h -2.7 V 154 h 2.7 v -5.4 l 3.6,-1.9 v 7.3 h 4.7 v 3.4 h -4.7 v 10.3 c 0,1.8 0.6,2.3 1.9,2.3 a 5.38,5.38 0 0 0 2.7,-0.8 z"
     id="path234" />
  <path
     class="cls-3"
     d="m 1503.2092,151.5 a 2.4,2.4 0 1 1 2.4,-2.4 2.43,2.43 0 0 1 -2.4,2.4 z m -1.9,21.3 v -18.9 h 3.7 v 18.9 z"
     id="path236" />
  <path
     class="cls-3"
     d="m 1518.1092,173.2 c -4.8,0 -8.3,-3.9 -8.3,-9.8 0,-6.2 3.7,-9.9 8.4,-9.9 4.7,0 8.4,3.9 8.4,9.8 0,6.3 -3.6,9.9 -8.5,9.9 z m 0,-16.1 c -2.8,0 -4.5,2.5 -4.5,6.2 0,4.1 1.9,6.4 4.7,6.4 2.8,0 4.6,-2.8 4.6,-6.3 0,-3.9 -1.9,-6.3 -4.8,-6.3 z"
     id="path238" />
  <path
     class="cls-3"
     d="m 1542.7092,172.8 v -10.7 c 0,-3.8 -1.4,-5.2 -3.9,-5.2 -2.5,0 -3.9,1.8 -3.9,4.8 v 11.1 h -3.7 v -18.9 h 3.7 v 1.8 a 5.68,5.68 0 0 1 4.8,-2.2 c 4.4,0 6.7,2.9 6.7,8.5 v 10.8 z"
     id="path240" />
  <path
     class="cls-3"
     d="m 1339.7092,194.7 a 2.4,2.4 0 1 1 2.4,-2.4 2.43,2.43 0 0 1 -2.4,2.4 z m -1.9,21.3 v -18.9 h 3.7 V 216 Z"
     id="path242" />
  <path
     class="cls-3"
     d="m 1358.7092,216 v -10.7 c 0,-3.8 -1.4,-5.2 -3.9,-5.2 -2.5,0 -3.9,1.8 -3.9,4.8 V 216 h -3.7 v -18.9 h 3.7 v 1.8 a 5.68,5.68 0 0 1 4.8,-2.2 c 4.4,0 6.7,2.9 6.7,8.5 V 216 Z"
     id="path244" />
  <path
     class="cls-3"
     d="m 1373.8092,193.1 c -1.2,0 -1.7,0.5 -1.7,1.8 v 2.2 h 3.5 v 3.5 h -3.5 V 216 h -3.7 v -15.4 h -2.4 v -3.5 h 2.4 v -2.5 c 0,-3.5 2.1,-4.8 4.8,-4.8 a 8.25,8.25 0 0 1 2.8,0.4 v 3.2 a 9.58,9.58 0 0 0 -2.2,-0.3 z"
     id="path246" />
  <path
     class="cls-3"
     d="m 1386.8092,216.4 c -4.8,0 -8.3,-3.9 -8.3,-9.8 0,-6.2 3.7,-9.9 8.4,-9.9 4.7,0 8.4,3.9 8.4,9.8 0,6.3 -3.6,9.9 -8.5,9.9 z m 0,-16.1 c -2.8,0 -4.5,2.5 -4.5,6.2 0,4.1 1.9,6.4 4.7,6.4 2.8,0 4.6,-2.8 4.6,-6.3 0,-3.9 -1.8,-6.3 -4.8,-6.3 z"
     id="path248" />
  <path
     class="cls-3"
     d="m 1410.2092,201.1 a 5.78,5.78 0 0 0 -2.8,-0.7 c -2.3,0 -3.7,1.7 -3.7,4.9 V 216 h -3.7 v -18.9 h 3.7 v 1.8 a 5.12,5.12 0 0 1 4.3,-2.2 5.58,5.58 0 0 1 3.2,0.8 z"
     id="path250" />
  <path
     class="cls-3"
     d="m 1436.9092,216 v -10.7 c 0,-3.8 -1.2,-5.2 -3.6,-5.2 -2.4,0 -3.6,1.8 -3.6,4.8 V 216 h -3.7 v -10.7 c 0,-3.8 -1.2,-5.2 -3.6,-5.2 -2.4,0 -3.6,1.8 -3.6,4.8 V 216 h -3.7 v -18.9 h 3.7 v 1.8 a 5.24,5.24 0 0 1 4.5,-2.2 5.38,5.38 0 0 1 5.2,2.8 6.59,6.59 0 0 1 5.8,-2.8 c 4.4,0 6.5,2.9 6.5,8.5 V 216 Z"
     id="path252" />
  <path
     class="cls-3"
     d="m 1456.8092,216 v -1.9 a 7.4,7.4 0 0 1 -5.2,2.3 c -3.1,0 -6.6,-1.7 -6.6,-6.4 0,-4.2 3.2,-6.1 7.5,-6.1 a 11.4,11.4 0 0 1 4.2,0.7 v -1.4 c 0,-2.1 -1.3,-3.2 -3.6,-3.2 a 9.62,9.62 0 0 0 -4.9,1.2 l -1.4,-2.8 a 11.84,11.84 0 0 1 6.5,-1.7 c 4.2,0 7.1,2.1 7.1,6.3 v 13 z m 0,-8 a 9.37,9.37 0 0 0 -4.3,-0.8 c -2.4,0 -3.9,1.1 -3.9,2.8 0,1.9 1.2,3.1 3.6,3.1 a 6,6 0 0 0 4.6,-2.4 z"
     id="path254" />
  <path
     class="cls-3"
     d="m 1474.8092,215.6 a 7.64,7.64 0 0 1 -3.6,0.9 c -2.6,0 -4.2,-1.6 -4.2,-5 v -10.9 h -2.7 v -3.4 h 2.7 v -5.4 l 3.6,-1.9 v 7.3 h 4.7 v 3.4 h -4.7 v 10.3 c 0,1.8 0.6,2.3 1.9,2.3 a 5.38,5.38 0 0 0 2.7,-0.8 z"
     id="path256" />
  <path
     class="cls-3"
     d="m 1482.3092,194.7 a 2.4,2.4 0 1 1 2.4,-2.4 2.43,2.43 0 0 1 -2.4,2.4 z m -1.9,21.3 v -18.9 h 3.7 V 216 Z"
     id="path258" />
  <path
     class="cls-3"
     d="m 1497.2092,216.4 c -4.8,0 -8.3,-3.9 -8.3,-9.8 0,-6.2 3.7,-9.9 8.4,-9.9 4.7,0 8.4,3.9 8.4,9.8 0,6.3 -3.6,9.9 -8.5,9.9 z m 0,-16.1 c -2.8,0 -4.5,2.5 -4.5,6.2 0,4.1 1.9,6.4 4.7,6.4 2.8,0 4.6,-2.8 4.6,-6.3 0,-3.9 -1.8,-6.3 -4.8,-6.3 z"
     id="path260" />
  <path
     class="cls-3"
     d="m 1521.8092,216 v -10.7 c 0,-3.8 -1.4,-5.2 -3.9,-5.2 -2.5,0 -3.9,1.8 -3.9,4.8 V 216 h -3.7 v -18.9 h 3.7 v 1.8 a 5.68,5.68 0 0 1 4.8,-2.2 c 4.4,0 6.7,2.9 6.7,8.5 V 216 Z"
     id="path262" />
  <path
     class="cls-2"
     d="M 241.00922,884.2 V 859 h 16.2 v 3.7 h -12.5 v 6.2 h 7.2 v 3.7 h -7.2 v 8 h 13 v 3.7 h -16.7 z"
     id="path264" />
  <path
     class="cls-2"
     d="m 274.00922,884.2 v -10.7 c 0,-3.8 -1.4,-5.2 -3.9,-5.2 -2.5,0 -3.9,1.8 -3.9,4.8 v 11.1 h -3.7 v -18.9 h 3.7 v 1.8 a 5.68,5.68 0 0 1 4.8,-2.2 c 4.4,0 6.7,2.9 6.7,8.5 v 10.8 z"
     id="path266" />
  <path
     class="cls-2"
     d="m 294.50922,884.2 v -1.8 a 7.17,7.17 0 0 1 -4.9,2.2 c -4.1,0 -7.3,-3 -7.3,-10.2 0,-6.5 3.5,-9.5 7.5,-9.5 a 6.79,6.79 0 0 1 4.8,2.2 v -7.2 l 3.7,-1.9 v 26.2 z m 0,-13.4 a 6.15,6.15 0 0 0 -4.4,-2.5 c -2.7,0 -4.1,2 -4.1,6 0,4.8 1.5,6.8 4.2,6.8 a 5.89,5.89 0 0 0 4.3,-2.4 z"
     id="path268" />
  <path
     class="cls-2"
     d="m 320.70922,884.6 c -4.8,0 -8.3,-3.9 -8.3,-9.8 0,-6.2 3.7,-9.9 8.4,-9.9 4.7,0 8.4,3.9 8.4,9.8 0.1,6.3 -3.6,9.9 -8.5,9.9 z m 0,-16.1 c -2.8,0 -4.5,2.5 -4.5,6.2 0,4.1 1.9,6.4 4.7,6.4 2.8,0 4.6,-2.8 4.6,-6.3 0,-3.9 -1.8,-6.3 -4.8,-6.3 z"
     id="path270" />
  <path
     class="cls-2"
     d="m 340.00922,861.3 c -1.2,0 -1.7,0.5 -1.7,1.8 v 2.2 h 3.5 v 3.5 h -3.5 v 15.4 h -3.7 v -15.4 h -2.4 v -3.5 h 2.4 v -2.5 c 0,-3.5 2.1,-4.8 4.8,-4.8 a 8.25,8.25 0 0 1 2.8,0.4 v 3.2 a 10.33,10.33 0 0 0 -2.2,-0.3 z"
     id="path272" />
  <path
     class="cls-2"
     d="m 192.60922,914 a 6.05,6.05 0 0 0 -4.6,-2.3 c -2.7,0 -4.4,2.4 -4.4,6.3 0,3.7 1.6,6.4 4.5,6.4 1.8,0 2.8,-0.8 4.3,-2.3 l 2.4,2.3 a 7.92,7.92 0 0 1 -6.8,3.5 c -4.6,0 -8.2,-3.9 -8.2,-9.8 0,-6.3 3.7,-9.9 8.3,-9.9 a 8.34,8.34 0 0 1 6.7,3.2 z"
     id="path274" />
  <path
     class="cls-2"
     d="m 210.70922,927.4 v -1.8 a 5.68,5.68 0 0 1 -4.8,2.2 c -4.4,0 -6.7,-2.9 -6.7,-8.5 v -10.8 h 3.7 v 10.7 c 0,3.8 1.4,5.2 3.9,5.2 2.5,0 3.9,-1.8 3.9,-4.8 v -11.1 h 3.7 v 18.9 z"
     id="path276" />
  <path
     class="cls-2"
     d="m 226.00922,927.8 a 12.68,12.68 0 0 1 -7.2,-2.4 l 1.7,-2.8 a 10.14,10.14 0 0 0 5.5,1.9 c 2.3,0 3.5,-0.8 3.5,-2.1 0,-1.3 -1.7,-2.1 -4.4,-3.2 -4.1,-1.6 -5.5,-3 -5.5,-5.9 0,-3.4 2.7,-5.1 6.4,-5.1 a 11.38,11.38 0 0 1 6.4,2.1 l -1.6,2.8 a 8,8 0 0 0 -4.9,-1.6 c -1.8,0 -2.6,0.7 -2.6,1.7 0,1 0.6,1.6 3.5,2.7 4.2,1.6 6.4,2.8 6.4,6.3 -0.1,4.2 -3.5,5.6 -7.2,5.6 z"
     id="path278" />
  <path
     class="cls-2"
     d="m 246.50922,927 a 7.64,7.64 0 0 1 -3.6,0.9 c -2.6,0 -4.2,-1.6 -4.2,-5 V 912 h -2.7 v -3.4 h 2.7 v -5.4 l 3.6,-1.9 v 7.3 h 4.7 v 3.4 h -4.7 v 10.3 c 0,1.8 0.6,2.3 1.9,2.3 a 5.38,5.38 0 0 0 2.7,-0.8 z"
     id="path280" />
  <path
     class="cls-2"
     d="m 258.70922,927.8 c -4.8,0 -8.3,-3.9 -8.3,-9.8 0,-6.2 3.7,-9.9 8.4,-9.9 4.7,0 8.4,3.9 8.4,9.8 0,6.3 -3.7,9.9 -8.5,9.9 z m 0,-16.1 c -2.8,0 -4.5,2.5 -4.5,6.2 0,4.1 1.9,6.4 4.7,6.4 2.8,0 4.6,-2.8 4.6,-6.3 0,-3.9 -1.9,-6.3 -4.8,-6.3 z"
     id="path282" />
  <path
     class="cls-2"
     d="m 293.80922,927.4 v -10.7 c 0,-3.8 -1.2,-5.2 -3.6,-5.2 -2.4,0 -3.6,1.8 -3.6,4.8 v 11.1 h -3.7 v -10.7 c 0,-3.8 -1.2,-5.2 -3.6,-5.2 -2.4,0 -3.6,1.8 -3.6,4.8 v 11.1 h -3.7 v -18.9 h 3.7 v 1.8 a 5.24,5.24 0 0 1 4.5,-2.2 5.38,5.38 0 0 1 5.2,2.8 6.59,6.59 0 0 1 5.8,-2.8 c 4.4,0 6.5,2.9 6.5,8.5 v 10.8 z"
     id="path284" />
  <path
     class="cls-2"
     d="m 304.80922,906.1 a 2.4,2.4 0 1 1 2.4,-2.4 2.43,2.43 0 0 1 -2.4,2.4 z m -1.8,21.3 v -18.9 h 3.7 v 18.9 z"
     id="path286" />
  <path
     class="cls-2"
     d="m 311.70922,927.4 v -3 l 8.1,-9.9 c 0.8,-0.9 1.8,-2.2 2.3,-2.7 h -9.7 v -3.2 h 13.9 v 3 l -7.9,9.9 c -0.8,1 -1.8,2.2 -2.3,2.8 h 10.2 v 3.2 h -14.6 z"
     id="path288" />
  <path
     class="cls-2"
     d="m 341.70922,927.4 v -1.9 a 7.4,7.4 0 0 1 -5.2,2.3 c -3.1,0 -6.6,-1.7 -6.6,-6.4 0,-4.2 3.2,-6.1 7.5,-6.1 a 11.4,11.4 0 0 1 4.2,0.7 v -1.4 c 0,-2.1 -1.3,-3.2 -3.6,-3.2 a 9.62,9.62 0 0 0 -4.9,1.2 l -1.4,-2.8 a 11.84,11.84 0 0 1 6.5,-1.7 c 4.2,0 7.1,2.1 7.1,6.3 v 13 z m 0,-8 a 9.37,9.37 0 0 0 -4.3,-0.8 c -2.4,0 -3.9,1.1 -3.9,2.8 0,1.9 1.2,3.1 3.6,3.1 a 6,6 0 0 0 4.6,-2.4 z"
     id="path290" />
  <path
     class="cls-2"
     d="m 359.70922,927 a 7.64,7.64 0 0 1 -3.6,0.9 c -2.6,0 -4.2,-1.6 -4.2,-5 V 912 h -2.7 v -3.4 h 2.7 v -5.4 l 3.6,-1.9 v 7.3 h 4.7 v 3.4 h -4.7 v 10.3 c 0,1.8 0.6,2.3 1.9,2.3 a 5.38,5.38 0 0 0 2.7,-0.8 z"
     id="path292" />
  <path
     class="cls-2"
     d="m 367.20922,906.1 a 2.4,2.4 0 1 1 2.4,-2.4 2.43,2.43 0 0 1 -2.4,2.4 z m -1.9,21.3 v -18.9 h 3.7 v 18.9 z"
     id="path294" />
  <path
     class="cls-2"
     d="m 382.10922,927.8 c -4.8,0 -8.3,-3.9 -8.3,-9.8 0,-6.2 3.7,-9.9 8.4,-9.9 4.7,0 8.4,3.9 8.4,9.8 0,6.3 -3.6,9.9 -8.5,9.9 z m 0,-16.1 c -2.8,0 -4.5,2.5 -4.5,6.2 0,4.1 1.9,6.4 4.7,6.4 2.8,0 4.6,-2.8 4.6,-6.3 0,-3.9 -1.8,-6.3 -4.8,-6.3 z"
     id="path296" />
  <path
     class="cls-2"
     d="m 406.70922,927.4 v -10.7 c 0,-3.8 -1.4,-5.2 -3.9,-5.2 -2.5,0 -3.9,1.8 -3.9,4.8 v 11.1 h -3.7 v -18.9 h 3.7 v 1.8 a 5.68,5.68 0 0 1 4.8,-2.2 c 4.4,0 6.7,2.9 6.7,8.5 v 10.8 z"
     id="path298" />
  <path
     class="cls-3"
     d="m 1290.7092,635.8 v -25.2 h 3.8 v 25.2 z"
     id="path300" />
  <path
     class="cls-3"
     d="m 1312.2092,635.8 v -10.7 c 0,-3.8 -1.4,-5.2 -3.9,-5.2 -2.5,0 -3.9,1.8 -3.9,4.8 v 11.1 h -3.7 v -18.9 h 3.7 v 1.8 a 5.68,5.68 0 0 1 4.8,-2.2 c 4.4,0 6.7,2.9 6.7,8.5 v 10.8 z"
     id="path302" />
  <path
     class="cls-3"
     d="m 1327.3092,636.2 a 12.68,12.68 0 0 1 -7.2,-2.4 l 1.7,-2.8 a 10.14,10.14 0 0 0 5.5,1.9 c 2.3,0 3.5,-0.8 3.5,-2.1 0,-1.3 -1.7,-2.1 -4.4,-3.2 -4.1,-1.6 -5.5,-3 -5.5,-5.9 0,-3.4 2.7,-5.1 6.4,-5.1 a 11.38,11.38 0 0 1 6.4,2.1 l -1.6,2.8 a 8,8 0 0 0 -4.9,-1.6 c -1.8,0 -2.6,0.7 -2.6,1.7 0,1 0.6,1.6 3.5,2.7 4.2,1.6 6.4,2.8 6.4,6.3 -0.1,4.2 -3.5,5.6 -7.2,5.6 z"
     id="path304" />
  <path
     class="cls-3"
     d="m 1347.9092,635.4 a 7.64,7.64 0 0 1 -3.6,0.9 c -2.6,0 -4.2,-1.6 -4.2,-5 v -10.9 h -2.7 V 617 h 2.7 v -5.4 l 3.6,-1.9 v 7.3 h 4.7 v 3.4 h -4.7 v 10.3 c 0,1.8 0.6,2.3 1.9,2.3 a 5.38,5.38 0 0 0 2.7,-0.8 z"
     id="path306" />
  <path
     class="cls-3"
     d="M 1363.6092,635.8 V 634 a 7.4,7.4 0 0 1 -5.2,2.3 c -3.1,0 -6.6,-1.7 -6.6,-6.4 0,-4.2 3.2,-6.1 7.5,-6.1 a 11.4,11.4 0 0 1 4.2,0.7 V 623 c 0,-2.1 -1.3,-3.2 -3.6,-3.2 a 9.62,9.62 0 0 0 -4.9,1.2 l -1.4,-2.8 a 11.84,11.84 0 0 1 6.5,-1.7 c 4.2,0 7.1,2.1 7.1,6.3 v 13 z m 0,-8 a 9.37,9.37 0 0 0 -4.3,-0.8 c -2.4,0 -3.9,1.1 -3.9,2.8 0,1.9 1.2,3.1 3.6,3.1 a 6,6 0 0 0 4.6,-2.4 z"
     id="path308" />
  <path
     class="cls-3"
     d="m 1384.1092,635.8 v -10.7 c 0,-3.8 -1.4,-5.2 -3.9,-5.2 -2.5,0 -3.9,1.8 -3.9,4.8 v 11.1 h -3.7 v -18.9 h 3.7 v 1.8 a 5.68,5.68 0 0 1 4.8,-2.2 c 4.4,0 6.7,2.9 6.7,8.5 v 10.8 z"
     id="path310" />
  <path
     class="cls-3"
     d="m 1405.0092,622.4 a 6.05,6.05 0 0 0 -4.6,-2.3 c -2.7,0 -4.4,2.4 -4.4,6.3 0,3.7 1.6,6.4 4.5,6.4 1.8,0 2.8,-0.8 4.3,-2.3 l 2.4,2.3 a 7.92,7.92 0 0 1 -6.8,3.5 c -4.6,0 -8.2,-3.9 -8.2,-9.8 0,-6.3 3.7,-9.9 8.3,-9.9 a 8.34,8.34 0 0 1 6.7,3.2 z"
     id="path312" />
  <path
     class="cls-3"
     d="m 1426.5092,627.7 h -12.5 c 0.4,3.6 2.4,5.2 4.8,5.2 a 6.88,6.88 0 0 0 4.1,-1.5 l 2.2,2.4 a 8.74,8.74 0 0 1 -6.5,2.5 c -4.4,0 -8.2,-3.6 -8.2,-9.8 0,-6.4 3.4,-9.9 8.3,-9.9 5.4,0 8,4.4 8,9.5 a 11.55,11.55 0 0 0 -0.2,1.6 z m -8.1,-7.8 c -2.5,0 -4,1.7 -4.3,4.8 h 8.8 c -0.2,-2.7 -1.4,-4.8 -4.5,-4.8 z"
     id="path314" />
  <path
     class="cls-3"
     d="m 1452.8092,622.4 a 6.05,6.05 0 0 0 -4.6,-2.3 c -2.7,0 -4.4,2.4 -4.4,6.3 0,3.7 1.6,6.4 4.5,6.4 1.8,0 2.8,-0.8 4.3,-2.3 l 2.4,2.3 a 7.92,7.92 0 0 1 -6.8,3.5 c -4.6,0 -8.2,-3.9 -8.2,-9.8 0,-6.3 3.7,-9.9 8.3,-9.9 a 8.34,8.34 0 0 1 6.7,3.2 z"
     id="path316" />
  <path
     class="cls-3"
     d="m 1470.0092,620.9 a 5.78,5.78 0 0 0 -2.8,-0.7 c -2.3,0 -3.7,1.7 -3.7,4.9 v 10.8 h -3.7 V 617 h 3.7 v 1.8 a 5.12,5.12 0 0 1 4.3,-2.2 5.58,5.58 0 0 1 3.2,0.8 z"
     id="path318" />
  <path
     class="cls-3"
     d="m 1489.1092,627.7 h -12.5 c 0.4,3.6 2.4,5.2 4.8,5.2 a 6.88,6.88 0 0 0 4.1,-1.5 l 2.2,2.4 a 8.74,8.74 0 0 1 -6.5,2.5 c -4.4,0 -8.2,-3.6 -8.2,-9.8 0,-6.4 3.4,-9.9 8.3,-9.9 5.4,0 8,4.4 8,9.5 -0.1,0.6 -0.1,1.2 -0.2,1.6 z m -8.1,-7.8 c -2.5,0 -4,1.7 -4.3,4.8 h 8.8 c -0.2,-2.7 -1.4,-4.8 -4.5,-4.8 z"
     id="path320" />
  <path
     class="cls-3"
     d="M 1504.4092,635.8 V 634 a 7.4,7.4 0 0 1 -5.2,2.3 c -3.1,0 -6.6,-1.7 -6.6,-6.4 0,-4.2 3.2,-6.1 7.5,-6.1 a 11.4,11.4 0 0 1 4.2,0.7 V 623 c 0,-2.1 -1.3,-3.2 -3.6,-3.2 a 9.62,9.62 0 0 0 -4.9,1.2 l -1.4,-2.8 a 11.84,11.84 0 0 1 6.5,-1.7 c 4.2,0 7.1,2.1 7.1,6.3 v 13 z m 0,-8 a 9.37,9.37 0 0 0 -4.3,-0.8 c -2.4,0 -3.9,1.1 -3.9,2.8 0,1.9 1.2,3.1 3.6,3.1 a 6,6 0 0 0 4.6,-2.4 z"
     id="path322" />
  <path
     class="cls-3"
     d="m 1522.4092,635.4 a 7.64,7.64 0 0 1 -3.6,0.9 c -2.6,0 -4.2,-1.6 -4.2,-5 v -10.9 h -2.7 V 617 h 2.7 v -5.4 l 3.6,-1.9 v 7.3 h 4.7 v 3.4 h -4.7 v 10.3 c 0,1.8 0.6,2.3 1.9,2.3 a 5.38,5.38 0 0 0 2.7,-0.8 z"
     id="path324" />
  <path
     class="cls-3"
     d="m 1529.9092,614.5 a 2.4,2.4 0 1 1 2.4,-2.4 2.43,2.43 0 0 1 -2.4,2.4 z m -1.8,21.3 v -18.9 h 3.7 v 18.9 z"
     id="path326" />
  <path
     class="cls-3"
     d="m 1544.8092,636.2 c -4.8,0 -8.3,-3.9 -8.3,-9.8 0,-6.2 3.7,-9.9 8.4,-9.9 4.7,0 8.4,3.9 8.4,9.8 0.1,6.3 -3.6,9.9 -8.5,9.9 z m 0,-16.1 c -2.8,0 -4.5,2.5 -4.5,6.2 0,4.1 1.9,6.4 4.7,6.4 2.8,0 4.6,-2.8 4.6,-6.3 0,-3.9 -1.8,-6.3 -4.8,-6.3 z"
     id="path328" />
  <path
     class="cls-3"
     d="m 1569.4092,635.8 v -10.7 c 0,-3.8 -1.4,-5.2 -3.9,-5.2 -2.5,0 -3.9,1.8 -3.9,4.8 v 11.1 h -3.7 v -18.9 h 3.7 v 1.8 a 5.68,5.68 0 0 1 4.8,-2.2 c 4.4,0 6.7,2.9 6.7,8.5 v 10.8 z"
     id="path330" />
  <path
     class="cls-3"
     d="m 1284.5092,906.2 c -6.5,0 -10.7,-5.4 -10.7,-13 0,-7.6 4.1,-13 10.7,-13 a 9.26,9.26 0 0 1 8.6,4.7 l -3.3,2.1 c -1.3,-2.1 -2.6,-3 -5.2,-3 -4.4,0 -6.8,3.6 -6.8,9.2 0,5.6 2.4,9.2 6.8,9.2 a 6,6 0 0 0 5.5,-3.1 l 3.1,2.1 a 9.63,9.63 0 0 1 -8.7,4.8 z"
     id="path332" />
  <path
     class="cls-3"
     d="m 1298.3092,905.8 v -24.3 l 3.7,-1.9 v 26.2 z"
     id="path334" />
  <path
     class="cls-3"
     d="m 1315.1092,906.2 c -4.8,0 -8.3,-3.9 -8.3,-9.8 0,-6.2 3.7,-9.9 8.4,-9.9 4.7,0 8.4,3.9 8.4,9.8 0,6.2 -3.7,9.9 -8.5,9.9 z m -0.1,-16.2 c -2.8,0 -4.5,2.5 -4.5,6.2 0,4.1 1.9,6.4 4.7,6.4 2.8,0 4.6,-2.8 4.6,-6.3 0,-3.8 -1.8,-6.3 -4.8,-6.3 z"
     id="path336" />
  <path
     class="cls-3"
     d="M 1339.5092,905.8 V 904 a 5.68,5.68 0 0 1 -4.8,2.2 c -4.4,0 -6.7,-2.9 -6.7,-8.5 v -10.8 h 3.7 v 10.7 c 0,3.8 1.4,5.2 3.9,5.2 2.5,0 3.9,-1.8 3.9,-4.8 v -11.1 h 3.7 v 18.9 z"
     id="path338" />
  <path
     class="cls-3"
     d="M 1360.1092,905.8 V 904 a 7.17,7.17 0 0 1 -4.9,2.2 c -4.1,0 -7.3,-3 -7.3,-10.2 0,-6.5 3.5,-9.5 7.5,-9.5 a 6.79,6.79 0 0 1 4.8,2.2 v -7.2 l 3.7,-1.9 v 26.2 z m 0,-13.4 a 6.15,6.15 0 0 0 -4.4,-2.5 c -2.7,0 -4.1,2 -4.1,6 0,4.8 1.5,6.8 4.2,6.8 a 5.89,5.89 0 0 0 4.3,-2.4 z"
     id="path340" />
  <path
     class="cls-3"
     d="m 1368.4092,894.5 v -3.7 h 9 v 3.7 z"
     id="path342" />
  <path
     class="cls-3"
     d="m 1384.2092,884.5 a 2.4,2.4 0 1 1 2.4,-2.4 2.43,2.43 0 0 1 -2.4,2.4 z m -1.9,21.3 v -18.9 h 3.7 v 18.9 z"
     id="path344" />
  <path
     class="cls-3"
     d="m 1403.2092,905.8 v -10.7 c 0,-3.8 -1.4,-5.2 -3.9,-5.2 -2.5,0 -3.9,1.8 -3.9,4.8 v 11.1 h -3.7 v -18.9 h 3.7 v 1.8 a 5.68,5.68 0 0 1 4.8,-2.2 c 4.4,0 6.7,2.9 6.7,8.5 v 10.8 z"
     id="path346" />
  <path
     class="cls-3"
     d="m 1414.3092,884.5 a 2.4,2.4 0 1 1 2.4,-2.4 2.43,2.43 0 0 1 -2.4,2.4 z m -1.9,21.3 v -18.9 h 3.7 v 18.9 z"
     id="path348" />
  <path
     class="cls-3"
     d="m 1430.8092,905.3 a 7.64,7.64 0 0 1 -3.6,0.9 c -2.6,0 -4.2,-1.6 -4.2,-5 v -10.9 h -2.7 v -3.4 h 2.7 v -5.4 l 3.6,-1.9 v 7.3 h 4.7 v 3.4 h -4.7 v 10.3 c 0,1.8 0.6,2.3 1.9,2.3 a 5.38,5.38 0 0 0 2.7,-0.8 z"
     id="path350" />
  <path
     class="cls-3"
     d="m 1454.4092,906.2 a 6.79,6.79 0 0 1 -4.8,-2.2 v 6.8 l -3.7,1.9 v -25.8 h 3.7 v 1.8 a 7.17,7.17 0 0 1 4.9,-2.2 c 4.1,0 7.3,3 7.3,10.2 0.1,6.4 -3.5,9.5 -7.4,9.5 z m -0.5,-16.3 a 5.89,5.89 0 0 0 -4.3,2.4 v 8 a 6.15,6.15 0 0 0 4.4,2.5 c 2.7,0 4.1,-2 4.1,-6 0.1,-4.8 -1.5,-6.9 -4.2,-6.9 z"
     id="path352" />
  <path
     class="cls-3"
     d="m 1476.8092,890.8 a 5.78,5.78 0 0 0 -2.8,-0.7 c -2.3,0 -3.7,1.7 -3.7,4.9 v 10.8 h -3.7 v -18.9 h 3.7 v 1.8 a 5.12,5.12 0 0 1 4.3,-2.2 5.58,5.58 0 0 1 3.2,0.8 z"
     id="path354" />
  <path
     class="cls-3"
     d="m 1488.1092,906.2 c -4.8,0 -8.3,-3.9 -8.3,-9.8 0,-6.2 3.7,-9.9 8.4,-9.9 4.7,0 8.4,3.9 8.4,9.8 0,6.2 -3.7,9.9 -8.5,9.9 z m -0.1,-16.2 c -2.8,0 -4.5,2.5 -4.5,6.2 0,4.1 1.9,6.4 4.7,6.4 2.8,0 4.6,-2.8 4.6,-6.3 0.1,-3.8 -1.8,-6.3 -4.8,-6.3 z"
     id="path356" />
  <path
     class="cls-3"
     d="m 1513.1092,892.3 a 6.05,6.05 0 0 0 -4.6,-2.3 c -2.7,0 -4.4,2.4 -4.4,6.3 0,3.7 1.6,6.4 4.5,6.4 1.8,0 2.8,-0.8 4.3,-2.3 l 2.4,2.3 a 7.92,7.92 0 0 1 -6.8,3.5 c -4.6,0 -8.2,-3.9 -8.2,-9.8 0,-6.3 3.7,-9.9 8.3,-9.9 a 8.34,8.34 0 0 1 6.7,3.2 z"
     id="path358" />
  <path
     class="cls-3"
     d="m 1534.6092,897.7 h -12.5 c 0.4,3.6 2.4,5.2 4.8,5.2 a 6.88,6.88 0 0 0 4.1,-1.5 l 2.2,2.4 a 8.74,8.74 0 0 1 -6.5,2.5 c -4.4,0 -8.2,-3.6 -8.2,-9.8 0,-6.4 3.4,-9.9 8.3,-9.9 5.4,0 8,4.4 8,9.5 a 11.55,11.55 0 0 0 -0.2,1.6 z m -8.1,-7.8 c -2.5,0 -4,1.7 -4.3,4.8 h 8.8 c -0.2,-2.7 -1.5,-4.8 -4.5,-4.8 z"
     id="path360" />
  <path
     class="cls-3"
     d="m 1545.1092,906.2 a 12.68,12.68 0 0 1 -7.2,-2.4 l 1.7,-2.8 a 10.14,10.14 0 0 0 5.5,1.9 c 2.3,0 3.5,-0.8 3.5,-2.1 0,-1.3 -1.7,-2.1 -4.4,-3.2 -4.1,-1.6 -5.5,-3 -5.5,-5.9 0,-3.4 2.7,-5.1 6.4,-5.1 a 11.38,11.38 0 0 1 6.4,2.1 l -1.6,2.8 a 8,8 0 0 0 -4.9,-1.6 c -1.8,0 -2.6,0.7 -2.6,1.7 0,1 0.6,1.6 3.5,2.7 4.2,1.6 6.4,2.8 6.4,6.3 -0.1,4.2 -3.5,5.6 -7.2,5.6 z"
     id="path362" />
  <path
     class="cls-3"
     d="m 1562.7092,906.2 a 12.68,12.68 0 0 1 -7.2,-2.4 l 1.7,-2.8 a 10.14,10.14 0 0 0 5.5,1.9 c 2.3,0 3.5,-0.8 3.5,-2.1 0,-1.3 -1.7,-2.1 -4.4,-3.2 -4.1,-1.6 -5.5,-3 -5.5,-5.9 0,-3.4 2.7,-5.1 6.4,-5.1 a 11.38,11.38 0 0 1 6.4,2.1 l -1.6,2.8 a 8,8 0 0 0 -4.9,-1.6 c -1.8,0 -2.6,0.7 -2.6,1.7 0,1 0.6,1.6 3.5,2.7 4.2,1.6 6.4,2.8 6.4,6.3 -0.1,4.2 -3.5,5.6 -7.2,5.6 z"
     id="path364" />
  <path
     class="cls-3"
     d="m 46.109218,694 v -29.4 h 5.9 V 694 Z"
     id="path366" />
  <path
     class="cls-3"
     d="m 72.309218,694 v -11.9 c 0,-3.9 -1.3,-5.1 -3.7,-5.1 -2.4,0 -3.8,1.2 -3.8,5 v 12 h -5.8 v -22.1 h 5.8 v 1.5 a 7.54,7.54 0 0 1 5.2,-1.9 c 5.6,0 8.1,3.9 8.1,10.1 V 694 Z"
     id="path368" />
  <path
     class="cls-3"
     d="m 92.009218,694.5 a 16.63,16.63 0 0 1 -9.2,-2.6 l 1.9,-4.4 a 15.4,15.4 0 0 0 7.6,2 c 2.3,0 2.9,-0.5 2.9,-1.7 0,-1 -0.8,-1.5 -3.2,-2.2 -5.3,-1.6 -8.7,-2.9 -8.7,-7.6 0,-4.7 3.7,-6.6 8.8,-6.6 a 17.12,17.12 0 0 1 8.100002,2.1 l -1.800002,4.6 a 14.18,14.18 0 0 0 -6.4,-1.8 c -2.4,0 -3,0.5 -3,1.4 0,0.9 0.7,1.3 4.6,2.6 3.9,1.3 7.400002,2.7 7.400002,7.1 0,5.3 -4.100002,7.1 -9.000002,7.1 z"
     id="path370" />
  <path
     class="cls-3"
     d="m 118.00922,693.1 a 7.51,7.51 0 0 1 -4.5,1.3 c -3.6,0 -5.9,-2.8 -5.9,-6.6 v -10.4 h -3.7 v -5.5 h 3.7 v -5.7 l 5.8,-2.9 v 8.6 h 5.3 v 5.5 h -5.3 v 8.9 c 0,2.1 0.8,2.6 2.1,2.6 1.1,0 1.8,-0.5 3.3,-1.7 z"
     id="path372" />
  <path
     class="cls-3"
     d="m 135.70922,694 v -1.5 a 7.12,7.12 0 0 1 -5,1.9 c -4.1,0 -8.2,-2.5 -8.2,-7.9 0,-4.9 3.9,-7.3 8.9,-7.3 a 8.45,8.45 0 0 1 4.2,0.9 V 679 c 0,-1.6 -1.1,-2.8 -3.2,-2.8 a 10.73,10.73 0 0 0 -6,1.5 l -2.2,-4 a 14.69,14.69 0 0 1 8.3,-2.2 c 5.3,0 8.9,2.8 8.9,7.7 V 694 Z m 0,-9.2 a 7,7 0 0 0 -4,-0.9 c -2.2,0 -3.4,1 -3.4,2.8 0,1.6 0.9,2.9 3.4,2.9 a 4.74,4.74 0 0 0 4,-2 z"
     id="path374" />
  <path
     class="cls-3"
     d="m 160.30922,694 v -11.9 c 0,-3.9 -1.3,-5.1 -3.7,-5.1 -2.4,0 -3.8,1.2 -3.8,5 v 12 h -5.9 v -22.1 h 5.8 v 1.5 a 7.54,7.54 0 0 1 5.2,-1.9 c 5.6,0 8.1,3.9 8.1,10.1 V 694 Z"
     id="path376" />
  <path
     class="cls-3"
     d="m 180.70922,694.5 c -5.8,0 -10.3,-4.7 -10.3,-11.5 0,-6.8 4.5,-11.5 10.6,-11.5 a 9.84,9.84 0 0 1 8.7,4.9 l -3.8,3.9 c -1.3,-1.8 -2.7,-3.2 -5,-3.2 -2.8,0 -4.6,2.3 -4.6,5.9 0,3.6 1.8,5.9 4.6,5.9 2.3,0 3.7,-1 5.2,-2.8 l 3.7,3.5 c -2.2,2.8 -4.8,4.9 -9.1,4.9 z"
     id="path378" />
  <path
     class="cls-3"
     d="m 211.40922,684.8 h -13.2 a 4.26,4.26 0 0 0 4.5,4.2 5,5 0 0 0 3.8,-1.6 l 4.1,3.4 a 10.33,10.33 0 0 1 -7.9,3.6 c -6.3,0 -10.4,-4.5 -10.4,-11.5 0,-6.8 4.2,-11.5 9.8,-11.5 5.9,0 9.3,5.2 9.3,11.5 a 5.82,5.82 0 0 1 0,1.9 z m -9.5,-8.3 c -2.1,0 -3.4,1.7 -3.6,3.9 h 7.6 a 4,4 0 0 0 -4,-3.9 z"
     id="path380" />
  <path
     class="cls-3"
     d="m 715.07922,905.83 v -25.2 h 16.24 v 3.67 h -12.41 v 6.23 h 7.24 v 3.67 h -7.24 v 7.95 h 13 v 3.68 z"
     id="path382" />
  <path
     class="cls-3"
     d="m 747.22922,905.83 -1.8,-3.28 c -0.76,-1.37 -1.62,-3.1 -2,-3.82 -0.32,0.72 -1.33,2.56 -2,3.86 l -1.84,3.24 h -4.17 l 5.94,-9.8 -5.55,-9.1 h 4.29 l 1.47,2.66 c 0.76,1.37 1.66,3.06 2,3.78 0.4,-0.72 1.3,-2.52 2,-3.85 l 1.44,-2.59 h 4.25 l -5.58,9.1 6,9.8 z"
     id="path384" />
  <path
     class="cls-3"
     d="m 770.29922,897.69 h -12.49 c 0.4,3.64 2.45,5.18 4.75,5.18 a 6.6,6.6 0 0 0 4.11,-1.51 l 2.19,2.38 a 8.78,8.78 0 0 1 -6.51,2.48 c -4.43,0 -8.17,-3.56 -8.17,-9.82 0,-6.26 3.38,-9.87 8.28,-9.87 5.36,0 8,4.36 8,9.47 a 16,16 0 0 1 -0.16,1.69 z m -8.1,-7.81 c -2.48,0 -4,1.73 -4.31,4.75 h 8.78 c -0.18,-2.63 -1.41,-4.75 -4.47,-4.75 z"
     id="path386" />
  <path
     class="cls-3"
     d="m 786.90922,892.36 c -1.55,-1.58 -2.92,-2.3 -4.61,-2.3 -2.7,0 -4.43,2.41 -4.43,6.26 0,3.85 1.59,6.37 4.54,6.37 1.76,0 2.81,-0.79 4.28,-2.33 l 2.38,2.33 a 8,8 0 0 1 -6.77,3.53 c -4.61,0 -8.17,-3.89 -8.17,-9.79 0,-6.26 3.67,-9.9 8.28,-9.9 a 8.38,8.38 0 0 1 6.7,3.21 z"
     id="path388" />
  <path
     class="cls-3"
     d="M 804.97922,905.83 V 904 a 5.82,5.82 0 0 1 -4.76,2.19 c -4.39,0 -6.73,-2.88 -6.73,-8.46 V 886.9 h 3.71 v 10.69 c 0,3.81 1.44,5.18 3.89,5.18 2.45,0 3.89,-1.76 3.89,-4.82 V 886.9 h 3.7 v 18.9 z"
     id="path390" />
  <path
     class="cls-3"
     d="m 823.18922,905.36 a 7.57,7.57 0 0 1 -3.63,0.86 c -2.63,0 -4.25,-1.62 -4.25,-5 v -10.91 h -2.7 v -3.38 h 2.7 v -5.4 l 3.63,-1.94 v 7.34 h 4.68 v 3.38 h -4.71 v 10.26 c 0,1.76 0.58,2.27 2,2.27 a 5.86,5.86 0 0 0 2.73,-0.76 z"
     id="path392" />
  <path
     class="cls-3"
     d="m 843.16922,897.69 h -12.49 c 0.4,3.64 2.45,5.18 4.75,5.18 a 6.6,6.6 0 0 0 4.1,-1.51 l 2.2,2.38 a 8.79,8.79 0 0 1 -6.51,2.48 c -4.43,0 -8.18,-3.56 -8.18,-9.82 0,-6.26 3.39,-9.87 8.28,-9.87 5.37,0 8,4.36 8,9.47 a 16,16 0 0 1 -0.15,1.69 z m -8.1,-7.81 c -2.48,0 -4,1.73 -4.32,4.75 h 8.78 c -0.18,-2.63 -1.4,-4.75 -4.46,-4.75 z"
     id="path394" />
  <path
     class="cls-3"
     d="M 868.90922,905.83 V 904 a 5.82,5.82 0 0 1 -4.76,2.19 c -4.39,0 -6.73,-2.88 -6.73,-8.46 V 886.9 h 3.71 v 10.69 c 0,3.81 1.44,5.18 3.89,5.18 2.45,0 3.89,-1.77 3.89,-4.77 v -11.05 h 3.7 v 18.9 z"
     id="path396" />
  <path
     class="cls-3"
     d="m 884.24922,906.22 a 12.94,12.94 0 0 1 -7.24,-2.41 l 1.69,-2.81 a 9.91,9.91 0 0 0 5.51,1.87 c 2.34,0 3.46,-0.75 3.46,-2.08 0,-1.33 -1.66,-2.13 -4.4,-3.17 -4.06,-1.59 -5.54,-3 -5.54,-5.94 0,-3.38 2.66,-5.15 6.44,-5.15 a 11.28,11.28 0 0 1 6.41,2.09 l -1.62,2.84 a 8.22,8.22 0 0 0 -4.89,-1.62 c -1.8,0 -2.6,0.72 -2.6,1.73 0,1.01 0.65,1.62 3.5,2.74 4.21,1.62 6.37,2.77 6.37,6.33 0,4.18 -3.43,5.58 -7.09,5.58 z"
     id="path398" />
  <path
     class="cls-3"
     d="m 910.95922,897.69 h -12.49 c 0.39,3.64 2.44,5.18 4.75,5.18 a 6.6,6.6 0 0 0 4.1,-1.51 l 2.2,2.38 a 8.82,8.82 0 0 1 -6.52,2.48 c -4.43,0 -8.17,-3.56 -8.17,-9.82 0,-6.26 3.38,-9.87 8.28,-9.87 5.36,0 7.95,4.36 7.95,9.47 0,0.68 -0.07,1.3 -0.1,1.69 z m -8.1,-7.81 c -2.49,0 -4,1.73 -4.32,4.75 h 8.78 c -0.18,-2.63 -1.41,-4.75 -4.41,-4.75 z"
     id="path400" />
  <path
     class="cls-3"
     d="m 925.90922,890.85 a 5.55,5.55 0 0 0 -2.84,-0.68 c -2.34,0 -3.71,1.65 -3.71,4.86 v 10.8 h -3.71 v -18.9 h 3.71 v 1.8 a 5.24,5.24 0 0 1 4.32,-2.2 5.45,5.45 0 0 1 3.2,0.79 z"
     id="path402" />
  <path
     class="cls-3"
     d="m 930.13922,894.49 v -3.67 h 9 v 3.67 z"
     id="path404" />
  <path
     class="cls-3"
     d="M 955.22922,905.83 V 904 a 7.2,7.2 0 0 1 -4.93,2.19 c -4.07,0 -7.27,-3 -7.27,-10.15 0,-6.48 3.53,-9.54 7.45,-9.54 a 6.7,6.7 0 0 1 4.75,2.16 v -7.2 l 3.67,-1.9 v 26.24 z m 0,-13.39 a 6.06,6.06 0 0 0 -4.43,-2.49 c -2.66,0 -4.1,2 -4.1,6 0,4.75 1.51,6.84 4.24,6.84 a 5.82,5.82 0 0 0 4.29,-2.41 z"
     id="path406" />
  <path
     class="cls-3"
     d="M 975.20922,905.83 V 904 a 7.41,7.41 0 0 1 -5.18,2.27 c -3.06,0 -6.55,-1.73 -6.55,-6.37 0,-4.21 3.24,-6.12 7.52,-6.12 a 10.39,10.39 0 0 1 4.21,0.72 v -1.4 c 0,-2 -1.26,-3.21 -3.56,-3.21 a 9.48,9.48 0 0 0 -4.93,1.19 l -1.44,-2.81 a 11.75,11.75 0 0 1 6.48,-1.69 c 4.21,0 7.09,2.05 7.09,6.34 v 13 z m 0,-8.07 a 9.39,9.39 0 0 0 -4.32,-0.82 c -2.37,0 -3.89,1.08 -3.89,2.8 0,1.72 1.19,3.13 3.64,3.13 a 5.92,5.92 0 0 0 4.57,-2.41 z"
     id="path408" />
  <path
     class="cls-3"
     d="m 993.20922,905.36 a 7.57,7.57 0 0 1 -3.63,0.86 c -2.63,0 -4.25,-1.62 -4.25,-5 v -10.91 h -2.7 v -3.38 h 2.7 v -5.4 l 3.63,-1.94 v 7.34 h 4.68 v 3.38 h -4.68 v 10.26 c 0,1.76 0.58,2.27 2,2.27 a 5.86,5.86 0 0 0 2.73,-0.76 z"
     id="path410" />
  <path
     class="cls-3"
     d="M 1008.9792,905.83 V 904 a 7.41,7.41 0 0 1 -5.18,2.27 c -3.06,0 -6.54998,-1.73 -6.54998,-6.37 0,-4.21 3.23998,-6.12 7.51998,-6.12 a 10.35,10.35 0 0 1 4.21,0.72 v -1.4 c 0,-2 -1.26,-3.21 -3.56,-3.21 a 9.51,9.51 0 0 0 -4.93,1.19 l -1.43998,-2.81 a 11.75,11.75 0 0 1 6.47998,-1.69 c 4.21,0 7.09,2.05 7.09,6.34 v 13 z m 0,-8.07 a 9.36,9.36 0 0 0 -4.32,-0.82 c -2.37,0 -3.88,1.08 -3.88,2.8 0,1.72 1.18,3.13 3.63,3.13 a 5.92,5.92 0 0 0 4.57,-2.41 z"
     id="path412" />
  <path
     class="cls-3"
     d="m 713.23922,441.22 c -6.52,0 -10.66,-5.36 -10.66,-13 0,-7.64 4.14,-13 10.66,-13 4.1,0 6.84,1.66 8.57,4.72 l -3.35,2.06 c -1.3,-2.06 -2.63,-3 -5.22,-3 -4.39,0 -6.77,3.57 -6.77,9.22 0,5.65 2.38,9.21 6.77,9.21 a 6,6 0 0 0 5.54,-3.13 l 3.13,2.1 a 9.61,9.61 0 0 1 -8.67,4.82 z"
     id="path414" />
  <path
     class="cls-3"
     d="m 726.98922,440.83 v -24.3 l 3.71,-1.94 v 26.24 z"
     id="path416" />
  <path
     class="cls-3"
     d="m 743.76922,441.22 c -4.75,0 -8.32,-3.92 -8.32,-9.82 0,-6.2 3.67,-9.87 8.42,-9.87 4.75,0 8.43,3.85 8.43,9.76 0,6.26 -3.67,9.93 -8.53,9.93 z m 0,-16.16 c -2.81,0 -4.53,2.48 -4.53,6.23 0,4.14 1.9,6.4 4.71,6.4 2.81,0 4.64,-2.84 4.64,-6.29 -0.04,-3.86 -1.87,-6.34 -4.86,-6.34 z"
     id="path418" />
  <path
     class="cls-3"
     d="M 768.20922,440.83 V 439 a 5.81,5.81 0 0 1 -4.75,2.19 c -4.39,0 -6.73,-2.88 -6.73,-8.46 v -10.8 h 3.7 v 10.69 c 0,3.81 1.44,5.18 3.89,5.18 2.45,0 3.89,-1.8 3.89,-4.8 v -11.07 h 3.7 v 18.9 z"
     id="path420" />
  <path
     class="cls-3"
     d="M 788.76922,440.83 V 439 a 7.22,7.22 0 0 1 -4.94,2.19 c -4.06,0 -7.27,-3 -7.27,-10.15 0,-6.48 3.53,-9.54 7.45,-9.54 a 6.74,6.74 0 0 1 4.76,2.16 v -7.2 l 3.67,-1.9 v 26.24 z m 0,-13.39 a 6,6 0 0 0 -4.43,-2.49 c -2.66,0 -4.1,2 -4.1,6 0,4.75 1.51,6.84 4.25,6.84 a 5.81,5.81 0 0 0 4.28,-2.41 z"
     id="path422" />
  <path
     class="cls-3"
     d="m 819.50922,427.36 c -1.55,-1.58 -2.92,-2.3 -4.61,-2.3 -2.7,0 -4.43,2.41 -4.43,6.26 0,3.85 1.59,6.37 4.54,6.37 1.76,0 2.81,-0.79 4.28,-2.34 l 2.38,2.34 a 8,8 0 0 1 -6.77,3.53 c -4.61,0 -8.17,-3.89 -8.17,-9.79 0,-6.26 3.67,-9.9 8.28,-9.9 a 8.34,8.34 0 0 1 6.69,3.21 z"
     id="path424" />
  <path
     class="cls-3"
     d="m 833.21922,441.22 c -4.75,0 -8.31,-3.92 -8.31,-9.82 0,-6.2 3.67,-9.87 8.42,-9.87 4.75,0 8.42,3.85 8.42,9.76 0,6.26 -3.67,9.93 -8.53,9.93 z m 0,-16.16 c -2.81,0 -4.54,2.48 -4.54,6.23 0,4.14 1.91,6.4 4.72,6.4 2.81,0 4.64,-2.84 4.64,-6.29 -0.03,-3.86 -1.87,-6.34 -4.85,-6.34 z"
     id="path426" />
  <path
     class="cls-3"
     d="m 857.80922,440.83 v -10.69 c 0,-3.82 -1.44,-5.19 -3.89,-5.19 -2.45,0 -3.89,1.77 -3.89,4.83 v 11.05 h -3.7 v -18.9 h 3.7 v 1.8 a 5.8,5.8 0 0 1 4.76,-2.2 c 4.39,0 6.73,2.88 6.73,8.46 v 10.84 z"
     id="path428" />
  <path
     class="cls-3"
     d="m 872.99922,417.93 c -1.22,0 -1.72,0.47 -1.72,1.84 v 2.16 h 3.49 v 3.45 h -3.49 v 15.45 h -3.71 v -15.45 h -2.45 v -3.45 h 2.45 v -2.49 c 0,-3.45 2.12,-4.75 4.79,-4.75 a 11.51,11.51 0 0 1 2.8,0.36 v 3.24 a 7.52,7.52 0 0 0 -2.16,-0.36 z"
     id="path430" />
  <path
     class="cls-3"
     d="m 881.21922,419.48 a 2.4,2.4 0 1 1 2.37,-2.38 2.41,2.41 0 0 1 -2.37,2.38 z m -1.87,21.35 v -18.9 h 3.7 v 18.9 z"
     id="path432" />
  <path
     class="cls-3"
     d="m 894.82922,447.77 -1.26,-2.8 c 5.32,-0.26 6.47,-1.7 6.47,-5.62 V 439 a 7.08,7.08 0 0 1 -4.89,2.19 c -4,0 -7.27,-3 -7.27,-10.15 0,-6.48 3.56,-9.54 7.45,-9.54 a 6.53,6.53 0 0 1 4.71,2.16 v -1.76 h 3.71 V 439 c 0,5.79 -2.09,8.56 -8.92,8.77 z m 5.29,-20.33 a 6.06,6.06 0 0 0 -4.43,-2.49 c -2.66,0 -4.1,2 -4.1,6 0,4.75 1.51,6.84 4.24,6.84 a 5.82,5.82 0 0 0 4.29,-2.41 z"
     id="path434" />
  <path
     class="cls-3"
     d="m 925.05922,441.22 a 12.93,12.93 0 0 1 -7.23,-2.41 l 1.69,-2.81 a 9.88,9.88 0 0 0 5.51,1.87 c 2.34,0 3.45,-0.75 3.45,-2.08 0,-1.33 -1.65,-2.13 -4.39,-3.17 -4.06,-1.59 -5.54,-3 -5.54,-5.94 0,-3.38 2.66,-5.15 6.44,-5.15 a 11.28,11.28 0 0 1 6.41,2.09 l -1.62,2.84 a 8.25,8.25 0 0 0 -4.9,-1.62 c -1.8,0 -2.59,0.72 -2.59,1.73 0,1.01 0.65,1.62 3.5,2.74 4.21,1.62 6.37,2.77 6.37,6.33 0,4.18 -3.39,5.58 -7.1,5.58 z"
     id="path436" />
  <path
     class="cls-3"
     d="m 942.59922,447.48 h -3.92 l 2.73,-7 -7,-18.54 h 4.07 l 3.1,9.25 c 0.57,1.65 1.44,4.46 1.65,5.51 0.33,-1.12 1.12,-3.82 1.7,-5.44 l 3.2,-9.32 h 3.92 z"
     id="path438" />
  <path
     class="cls-3"
     d="m 967.50922,440.83 v -10.69 c 0,-3.82 -1.44,-5.19 -3.89,-5.19 -2.45,0 -3.88,1.77 -3.88,4.83 v 11.05 h -3.71 v -18.9 h 3.71 v 1.8 a 5.76,5.76 0 0 1 4.75,-2.2 c 4.39,0 6.73,2.88 6.73,8.46 v 10.84 z"
     id="path440" />
  <path
     class="cls-3"
     d="m 985.40922,440.36 a 7.58,7.58 0 0 1 -3.64,0.86 c -2.63,0 -4.25,-1.62 -4.25,-5 v -10.91 h -2.7 v -3.38 h 2.7 v -5.4 l 3.64,-1.94 v 7.34 h 4.68 v 3.38 h -4.68 v 10.26 c 0,1.76 0.58,2.27 1.94,2.27 a 5.86,5.86 0 0 0 2.74,-0.76 z"
     id="path442" />
  <path
     class="cls-3"
     d="M 1001.1792,440.83 V 439 a 7.43,7.43 0 0 1 -5.18998,2.27 c -3.05,0 -6.55,-1.73 -6.55,-6.37 0,-4.21 3.24,-6.12 7.53,-6.12 a 10.42,10.42 0 0 1 4.20998,0.72 v -1.4 c 0,-2 -1.25998,-3.21 -3.55998,-3.21 a 9.54,9.54 0 0 0 -4.94,1.19 l -1.44,-2.81 a 11.78,11.78 0 0 1 6.48,-1.69 c 4.20998,0 7.08998,2.05 7.08998,6.34 v 13 z m 0,-8.07 a 9.41,9.41 0 0 0 -4.31998,-0.83 c -2.38,0 -3.89,1.08 -3.89,2.81 0,1.73 1.19,3.13 3.64,3.13 a 5.94,5.94 0 0 0 4.56998,-2.41 z"
     id="path444" />
  <path
     class="cls-3"
     d="m 1020.6892,440.83 -1.8,-3.28 c -0.76,-1.37 -1.62,-3.1 -2,-3.82 -0.32,0.72 -1.33,2.56 -2,3.86 l -1.84,3.24 h -4.17 l 5.94,-9.8 -5.55,-9.1 h 4.29 l 1.47,2.66 c 0.76,1.37 1.66,3.06 2,3.78 0.4,-0.72 1.3,-2.52 2,-3.85 l 1.44,-2.59 h 4.25 l -5.58,9.1 6,9.8 z"
     id="path446" />
</svg>
