<?xml version="1.0" encoding="UTF-8" standalone="no"?>
<svg
   xmlns:dc="http://purl.org/dc/elements/1.1/"
   xmlns:cc="http://creativecommons.org/ns#"
   xmlns:rdf="http://www.w3.org/1999/02/22-rdf-syntax-ns#"
   xmlns:svg="http://www.w3.org/2000/svg"
   xmlns="http://www.w3.org/2000/svg"
   xmlns:sodipodi="http://sodipodi.sourceforge.net/DTD/sodipodi-0.dtd"
   xmlns:inkscape="http://www.inkscape.org/namespaces/inkscape"
   inkscape:version="1.0 (4035a4f, 2020-05-01)"
   sodipodi:docname="Orchestration flow chart.svg"
   version="1.1"
   viewBox="0 0 595.276 379.575"
   height="133.906mm"
   width="210mm"
   data-name="Layer 1"
   id="Layer_1">
  <metadata
     id="metadata361">
    <rdf:RDF>
      <cc:Work
         rdf:about="">
        <dc:format>image/svg+xml</dc:format>
        <dc:type
           rdf:resource="http://purl.org/dc/dcmitype/StillImage" />
        <dc:title></dc:title>
        <dc:subject>
          <rdf:Bag>
            <rdf:li>cloudapp</rdf:li>
            <rdf:li>stack-orchestration</rdf:li>
            <rdf:li>3tier-webapp</rdf:li>
          </rdf:Bag>
        </dc:subject>
      </cc:Work>
    </rdf:RDF>
  </metadata>
  <sodipodi:namedview
     inkscape:current-layer="Layer_1"
     inkscape:window-maximized="0"
     inkscape:window-y="23"
     inkscape:window-x="0"
     inkscape:cy="253.05072"
     inkscape:cx="396.85039"
     inkscape:zoom="0.63122024"
     showgrid="false"
     id="namedview359"
     inkscape:window-height="480"
     inkscape:window-width="987"
     inkscape:pageshadow="2"
     inkscape:pageopacity="0"
     guidetolerance="10"
     gridtolerance="10"
     objecttolerance="10"
     borderopacity="1"
     bordercolor="#666666"
     pagecolor="#ffffff" />
  <defs
     id="defs12">
    <style
       id="style10">
      .cls-1 {
        fill: #d9e8f7;
        stroke: #a1c2e7;
      }

      .cls-1, .cls-12, .cls-5 {
        stroke-miterlimit: 10;
      }

      .cls-11, .cls-2, .cls-6 {
        fill: #fff;
      }

      .cls-3 {
        fill: #06c;
      }

      .cls-4 {
        fill: #151515;
      }

      .cls-5 {
        fill: #dfeac0;
        stroke: #a6d3b6;
      }

      .cls-10, .cls-11, .cls-6, .cls-7, .cls-8, .cls-9 {
        stroke: #5b5b5b;
        stroke-linecap: round;
        stroke-linejoin: round;
      }

      .cls-10, .cls-6 {
        stroke-width: 1.5px;
      }

      .cls-10, .cls-12, .cls-7, .cls-8, .cls-9 {
        fill: none;
      }

      .cls-7, .cls-8, .cls-9 {
        stroke-width: 2px;
      }

      .cls-8 {
        stroke-dasharray: 0 4.838;
      }

      .cls-9 {
        stroke-dasharray: 0 4.835;
      }

      .cls-12 {
        stroke: #151515;
      }
    </style>
  </defs>
  <g
     id="g356">
    <rect
       id="rect14"
       height="94.309"
       width="117.59"
       y="266.795"
       x="459.791"
       class="cls-1" />
    <g
       id="g20">
      <rect
         id="rect16"
         height="93.299"
         width="116.581"
         y="143.138"
         x="165.698"
         class="cls-2" />
      <path
         id="path18"
         d="M281.774,143.643v92.29H166.2v-92.29H281.774m1.01-1.01H165.193v94.309H282.784V142.633Z"
         class="cls-3" />
    </g>
    <g
       id="g26">
      <rect
         id="rect22"
         height="93.299"
         width="116.581"
         y="143.138"
         x="18.399"
         class="cls-2" />
      <path
         id="path24"
         d="M134.475,143.643v92.29H18.9v-92.29H134.475m1.01-1.01H17.894v94.309H135.485V142.633Z"
         class="cls-3" />
    </g>
    <g
       id="g32">
      <rect
         id="rect28"
         height="93.299"
         width="116.58"
         y="143.138"
         x="312.997"
         class="cls-2" />
      <path
         id="path30"
         d="M429.073,143.643v92.29H313.5v-92.29H429.073m1.009-1.01H312.492v94.309h117.59V142.633Z"
         class="cls-3" />
    </g>
    <g
       id="g38">
      <rect
         id="rect34"
         height="92.309"
         width="115.59"
         y="143.633"
         x="460.791"
         class="cls-2" />
      <path
         id="path36"
         d="M575.381,144.633v90.309H461.791V144.633h113.59m2-2H459.791v94.309h117.59V142.633Z"
         class="cls-3" />
    </g>
    <g
       id="g66">
      <path
         id="path40"
         d="M35.006,224.611c-2.34,0-3.822-1.546-3.822-4.03v-5.2h1.56v5.2c0,1.6.9,2.627,2.275,2.627s2.262-1.028,2.262-2.627v-5.2h1.56v5.2A3.678,3.678,0,0,1,35.006,224.611Z"
         class="cls-4" />
      <path
         id="path42"
         d="M40.765,222.739a3.748,3.748,0,0,0,2.093.742c.78,0,1.313-.351,1.313-.872,0-.4-.273-.624-.9-.741l-1.157-.195c-1.261-.233-1.885-.818-1.885-1.793,0-1.223,1-2.016,2.522-2.016a4.583,4.583,0,0,1,2.561.78l-.689.963a3.552,3.552,0,0,0-1.963-.624c-.676,0-1.118.285-1.118.766,0,.416.234.6.923.715l1.144.208c1.3.248,1.924.846,1.924,1.82a2.386,2.386,0,0,1-2.652,2.119,4.375,4.375,0,0,1-2.808-.883Z"
         class="cls-4" />
      <path
         id="path44"
         d="M49.9,224.611a3.311,3.311,0,0,1-3.316-3.379,3.209,3.209,0,0,1,3.173-3.368,3.126,3.126,0,0,1,3.081,3.354v.365h-4.81a1.989,1.989,0,0,0,1.95,1.78,2.115,2.115,0,0,0,1.547-.61l.962.9A3.766,3.766,0,0,1,49.9,224.611Zm-1.846-3.925h3.393a1.783,1.783,0,0,0-1.7-1.626A1.75,1.75,0,0,0,48.058,220.686Z"
         class="cls-4" />
      <path
         id="path46"
         d="M54.337,217.968h1.469v1.417a1.931,1.931,0,0,1,1.794-1.534,1.722,1.722,0,0,1,.637.131v1.286a2.071,2.071,0,0,0-.806-.156,1.787,1.787,0,0,0-1.625,1.08v4.29H54.337Z"
         class="cls-4" />
      <path
         id="path48"
         d="M63.176,219.138H61.863v-1.17h1.313v-1.794l1.47-.312v2.106h1.82v1.17h-1.82v3.3c0,.636.247.883.91.883a2.721,2.721,0,0,0,.884-.155V224.4a4.584,4.584,0,0,1-1.261.183c-1.313,0-2-.624-2-1.82Z"
         class="cls-4" />
      <path
         id="path50"
         d="M70.769,224.611a3.31,3.31,0,0,1-3.316-3.379,3.208,3.208,0,0,1,3.173-3.368,3.126,3.126,0,0,1,3.081,3.354v.365H68.9a1.988,1.988,0,0,0,1.949,1.78,2.117,2.117,0,0,0,1.548-.61l.962.9A3.766,3.766,0,0,1,70.769,224.611Zm-1.847-3.925h3.394a1.784,1.784,0,0,0-1.7-1.626A1.75,1.75,0,0,0,68.922,220.686Z"
         class="cls-4" />
      <path
         id="path52"
         d="M75.2,217.968H76.67v1.04a2.224,2.224,0,0,1,1.937-1.144,2.048,2.048,0,0,1,1.911,1.261,2.4,2.4,0,0,1,2.158-1.261,2.158,2.158,0,0,1,2.133,2.367v4.251h-1.47v-3.939a1.318,1.318,0,0,0-1.313-1.5,1.552,1.552,0,0,0-1.313.768c.013.142.026.273.026.416v4.251H79.27v-3.939a1.318,1.318,0,0,0-1.313-1.5,1.514,1.514,0,0,0-1.287.741v4.694H75.2Z"
         class="cls-4" />
      <path
         id="path54"
         d="M86.589,217.968h1.443v.936a2.454,2.454,0,0,1,2.029-.988,3.125,3.125,0,0,1,2.95,3.316,3.157,3.157,0,0,1-3.054,3.315,2.434,2.434,0,0,1-1.9-.846v3.536H86.589Zm1.469,1.912V222.6a2,2,0,0,0,1.56.716,2.086,2.086,0,0,0,0-4.161A1.913,1.913,0,0,0,88.058,219.88Z"
         class="cls-4" />
      <path
         id="path56"
         d="M96,224.482H94.532v-9.3L96,214.939Z"
         class="cls-4" />
      <path
         id="path58"
         d="M97.483,222.609c0-1.169.949-1.911,2.483-1.911a4.012,4.012,0,0,1,1.755.4v-.716c0-.858-.494-1.3-1.5-1.3a4.5,4.5,0,0,0-1.9.506l-.52-1.066a6.253,6.253,0,0,1,2.7-.663c1.69,0,2.665.858,2.665,2.367v4.251h-1.456v-.664a2.716,2.716,0,0,1-1.937.768A2.054,2.054,0,0,1,97.483,222.609Zm2.7.95a2.323,2.323,0,0,0,1.534-.533V221.96a3.357,3.357,0,0,0-1.508-.312c-.832,0-1.352.363-1.352.936C98.861,223.182,99.381,223.559,100.187,223.559Z"
         class="cls-4" />
      <path
         id="path60"
         d="M105.764,219.138h-1.313v-1.17h1.313v-1.794l1.469-.312v2.106h1.82v1.17h-1.82v3.3c0,.636.247.883.91.883a2.721,2.721,0,0,0,.884-.155V224.4a4.584,4.584,0,0,1-1.261.183c-1.313,0-2-.624-2-1.82Z"
         class="cls-4" />
      <path
         id="path62"
         d="M113.356,224.611a3.31,3.31,0,0,1-3.315-3.379,3.208,3.208,0,0,1,3.172-3.368,3.126,3.126,0,0,1,3.081,3.354v.365h-4.81a1.989,1.989,0,0,0,1.95,1.78,2.115,2.115,0,0,0,1.547-.61l.962.9A3.766,3.766,0,0,1,113.356,224.611Zm-1.846-3.925H114.9a1.783,1.783,0,0,0-1.7-1.626A1.75,1.75,0,0,0,111.51,220.686Z"
         class="cls-4" />
      <path
         id="path64"
         d="M117.893,222.739a3.745,3.745,0,0,0,2.092.742c.781,0,1.313-.351,1.313-.872,0-.4-.273-.624-.9-.741l-1.156-.195c-1.262-.233-1.886-.818-1.886-1.793,0-1.223,1-2.016,2.522-2.016a4.584,4.584,0,0,1,2.562.78l-.689.963a3.552,3.552,0,0,0-1.963-.624c-.676,0-1.119.285-1.119.766,0,.416.235.6.924.715l1.144.208c1.3.248,1.924.846,1.924,1.82a2.386,2.386,0,0,1-2.652,2.119,4.373,4.373,0,0,1-2.808-.883Z"
         class="cls-4" />
    </g>
    <g
       id="g128">
      <path
         id="path68"
         d="M210.176,161.917h1.56v3.835h4.524v-3.835h1.56v9.1h-1.56v-3.9h-4.524v3.9h-1.56Z"
         class="cls-4" />
      <path
         id="path70"
         d="M222.773,171.147a3.311,3.311,0,0,1-3.315-3.38,3.208,3.208,0,0,1,3.172-3.367,3.126,3.126,0,0,1,3.081,3.354v.364H220.9a1.989,1.989,0,0,0,1.95,1.781,2.116,2.116,0,0,0,1.547-.611l.962.9A3.766,3.766,0,0,1,222.773,171.147Zm-1.846-3.926h3.393a1.783,1.783,0,0,0-1.7-1.625A1.75,1.75,0,0,0,220.927,167.221Z"
         class="cls-4" />
      <path
         id="path72"
         d="M226.881,169.145c0-1.17.949-1.911,2.483-1.911a4.025,4.025,0,0,1,1.755.4v-.715c0-.858-.494-1.3-1.5-1.3a4.506,4.506,0,0,0-1.9.507l-.52-1.066a6.253,6.253,0,0,1,2.7-.663c1.69,0,2.665.858,2.665,2.366v4.251h-1.456v-.663a2.719,2.719,0,0,1-1.937.767A2.054,2.054,0,0,1,226.881,169.145Zm2.7.949a2.323,2.323,0,0,0,1.534-.533V168.5a3.37,3.37,0,0,0-1.508-.312c-.832,0-1.352.364-1.352.936C228.259,169.717,228.779,170.094,229.585,170.094Z"
         class="cls-4" />
      <path
         id="path74"
         d="M235.162,165.674h-1.313V164.5h1.313V162.71l1.469-.312V164.5h1.82v1.17h-1.82v3.3c0,.637.247.884.91.884a2.7,2.7,0,0,0,.884-.156v1.235a4.621,4.621,0,0,1-1.261.182c-1.313,0-2-.624-2-1.82Z"
         class="cls-4" />
      <path
         id="path76"
         d="M186.6,186.223a4.694,4.694,0,1,1,4.6-4.693A4.606,4.606,0,0,1,186.6,186.223Zm.012-8a3.311,3.311,0,1,0,2.991,3.3A3.115,3.115,0,0,0,186.614,178.228Z"
         class="cls-4" />
      <path
         id="path78"
         d="M192.776,179.567h1.469v1.417a1.932,1.932,0,0,1,1.795-1.534,1.736,1.736,0,0,1,.636.13v1.287a2.068,2.068,0,0,0-.806-.156,1.789,1.789,0,0,0-1.625,1.079v4.29h-1.469Z"
         class="cls-4" />
      <path
         id="path80"
         d="M202.539,184.2l.884.884a3.384,3.384,0,0,1-2.548,1.131,3.368,3.368,0,0,1,0-6.734,3.514,3.514,0,0,1,2.6,1.092l-.91.949a2.156,2.156,0,0,0-1.639-.767,2.089,2.089,0,0,0,.039,4.16A2,2,0,0,0,202.539,184.2Z"
         class="cls-4" />
      <path
         id="path82"
         d="M204.684,176.785l1.469-.247v4.095a2.364,2.364,0,0,1,2.067-1.17,2.192,2.192,0,0,1,2.249,2.327v4.29H209v-3.874a1.4,1.4,0,0,0-1.43-1.56,1.67,1.67,0,0,0-1.417.78v4.654h-1.469Z"
         class="cls-4" />
      <path
         id="path84"
         d="M215.266,186.21a3.311,3.311,0,0,1-3.315-3.38,3.208,3.208,0,0,1,3.172-3.367,3.126,3.126,0,0,1,3.081,3.354v.364h-4.81a1.989,1.989,0,0,0,1.95,1.781,2.116,2.116,0,0,0,1.547-.611l.962.9A3.766,3.766,0,0,1,215.266,186.21Zm-1.846-3.926h3.393a1.783,1.783,0,0,0-1.7-1.625A1.75,1.75,0,0,0,213.42,182.284Z"
         class="cls-4" />
      <path
         id="path86"
         d="M219.8,184.338a3.754,3.754,0,0,0,2.093.741c.78,0,1.313-.351,1.313-.871,0-.4-.273-.624-.9-.741l-1.157-.2c-1.261-.234-1.885-.819-1.885-1.794,0-1.222,1-2.015,2.522-2.015a4.583,4.583,0,0,1,2.561.78l-.689.962a3.56,3.56,0,0,0-1.963-.624c-.676,0-1.118.286-1.118.767,0,.416.234.6.923.715l1.144.208c1.3.247,1.924.845,1.924,1.82a2.386,2.386,0,0,1-2.652,2.119,4.37,4.37,0,0,1-2.808-.884Z"
         class="cls-4" />
      <path
         id="path88"
         d="M226.732,180.737h-1.313v-1.17h1.313v-1.794l1.469-.312v2.106h1.82v1.17H228.2v3.3c0,.637.247.884.91.884a2.7,2.7,0,0,0,.884-.156V186a4.621,4.621,0,0,1-1.261.182c-1.313,0-2-.624-2-1.82Z"
         class="cls-4" />
      <path
         id="path90"
         d="M231.308,179.567h1.468v1.417a1.933,1.933,0,0,1,1.795-1.534,1.745,1.745,0,0,1,.637.13v1.287a2.073,2.073,0,0,0-.807-.156,1.79,1.79,0,0,0-1.625,1.079v4.29h-1.468Z"
         class="cls-4" />
      <path
         id="path92"
         d="M236.091,184.208c0-1.17.95-1.911,2.483-1.911a4.026,4.026,0,0,1,1.756.4v-.715c0-.858-.494-1.3-1.5-1.3a4.506,4.506,0,0,0-1.9.507l-.52-1.066a6.253,6.253,0,0,1,2.7-.663c1.69,0,2.665.858,2.665,2.366v4.251H240.33v-.663a2.721,2.721,0,0,1-1.937.767A2.054,2.054,0,0,1,236.091,184.208Zm2.7.949a2.325,2.325,0,0,0,1.534-.533v-1.066a3.375,3.375,0,0,0-1.509-.312c-.832,0-1.352.364-1.352.936C237.469,184.78,237.989,185.157,238.8,185.157Z"
         class="cls-4" />
      <path
         id="path94"
         d="M244.372,180.737h-1.313v-1.17h1.313v-1.794l1.469-.312v2.106h1.821v1.17h-1.821v3.3c0,.637.247.884.911.884a2.693,2.693,0,0,0,.883-.156V186a4.614,4.614,0,0,1-1.26.182c-1.313,0-2-.624-2-1.82Z"
         class="cls-4" />
      <path
         id="path96"
         d="M248.766,177.344a.917.917,0,0,1,1.833,0,.917.917,0,0,1-1.833,0Zm1.651,8.736h-1.469v-6.513h1.469Z"
         class="cls-4" />
      <path
         id="path98"
         d="M255.2,179.463a3.375,3.375,0,1,1-3.276,3.367A3.252,3.252,0,0,1,255.2,179.463Zm1.82,3.38a1.841,1.841,0,1,0-3.64,0,1.838,1.838,0,1,0,3.64,0Z"
         class="cls-4" />
      <path
         id="path100"
         d="M260,179.567h1.469v1.066a2.364,2.364,0,0,1,2.067-1.17,2.192,2.192,0,0,1,2.249,2.327v4.29h-1.469v-3.874a1.4,1.4,0,0,0-1.43-1.56,1.67,1.67,0,0,0-1.417.78v4.654H260Z"
         class="cls-4" />
      <path
         id="path102"
         d="M195.142,192.043h7.644V193.4h-3.029v7.748H198.2V193.4h-3.054Z"
         class="cls-4" />
      <path
         id="path104"
         d="M207.05,201.273a3.311,3.311,0,0,1-3.316-3.38,3.209,3.209,0,0,1,3.173-3.367,3.126,3.126,0,0,1,3.081,3.354v.364h-4.81a1.989,1.989,0,0,0,1.95,1.781,2.116,2.116,0,0,0,1.547-.611l.962.9A3.766,3.766,0,0,1,207.05,201.273Zm-1.846-3.926H208.6a1.783,1.783,0,0,0-1.7-1.625A1.75,1.75,0,0,0,205.2,197.347Z"
         class="cls-4" />
      <path
         id="path106"
         d="M211.483,194.63h1.468v1.04a2.224,2.224,0,0,1,1.938-1.144,2.045,2.045,0,0,1,1.91,1.261,2.4,2.4,0,0,1,2.159-1.261,2.158,2.158,0,0,1,2.132,2.366v4.251h-1.469V197.2a1.318,1.318,0,0,0-1.313-1.5,1.552,1.552,0,0,0-1.313.767c.012.143.026.273.026.416v4.251h-1.47V197.2a1.317,1.317,0,0,0-1.313-1.5,1.513,1.513,0,0,0-1.287.741v4.693h-1.468Z"
         class="cls-4" />
      <path
         id="path108"
         d="M222.87,194.63h1.443v.936a2.454,2.454,0,0,1,2.028-.988,3.126,3.126,0,0,1,2.951,3.315,3.157,3.157,0,0,1-3.055,3.315,2.435,2.435,0,0,1-1.9-.845V203.9H222.87Zm1.469,1.911v2.717a2,2,0,0,0,1.56.715,2.085,2.085,0,0,0,0-4.16A1.912,1.912,0,0,0,224.339,196.541Z"
         class="cls-4" />
      <path
         id="path110"
         d="M232.282,201.143h-1.468v-9.295l1.468-.247Z"
         class="cls-4" />
      <path
         id="path112"
         d="M233.764,199.271c0-1.17.949-1.911,2.483-1.911a4.029,4.029,0,0,1,1.756.4v-.715c0-.858-.495-1.3-1.5-1.3a4.51,4.51,0,0,0-1.9.507l-.52-1.066a6.257,6.257,0,0,1,2.705-.663c1.689,0,2.665.858,2.665,2.366v4.251H238v-.663a2.721,2.721,0,0,1-1.937.767A2.054,2.054,0,0,1,233.764,199.271Zm2.7.949a2.325,2.325,0,0,0,1.535-.533v-1.066a3.375,3.375,0,0,0-1.509-.312c-.832,0-1.352.364-1.352.936C235.142,199.843,235.662,200.22,236.468,200.22Z"
         class="cls-4" />
      <path
         id="path114"
         d="M242.045,195.8h-1.313v-1.17h1.313v-1.794l1.469-.312v2.106h1.821v1.17h-1.821v3.3c0,.637.247.884.91.884a2.694,2.694,0,0,0,.884-.156v1.235a4.615,4.615,0,0,1-1.261.182c-1.313,0-2-.624-2-1.82Z"
         class="cls-4" />
      <path
         id="path116"
         d="M249.637,201.273a3.311,3.311,0,0,1-3.315-3.38,3.208,3.208,0,0,1,3.172-3.367,3.126,3.126,0,0,1,3.081,3.354v.364h-4.81a1.989,1.989,0,0,0,1.95,1.781,2.116,2.116,0,0,0,1.547-.611l.962.9A3.766,3.766,0,0,1,249.637,201.273Zm-1.846-3.926h3.393a1.783,1.783,0,0,0-1.7-1.625A1.75,1.75,0,0,0,247.791,197.347Z"
         class="cls-4" />
      <path
         id="path118"
         d="M208.376,206.963l.78.936a6.345,6.345,0,0,0,0,10.244l-.78.949a7.418,7.418,0,0,1,0-12.129Z"
         class="cls-4" />
      <path
         id="path120"
         d="M210.741,207.106h1.56v3.835h4.525v-3.835h1.56v9.1h-1.56v-3.9H212.3v3.9h-1.56Z"
         class="cls-4" />
      <path
         id="path122"
         d="M224.691,216.349a4.694,4.694,0,1,1,4.6-4.693A4.606,4.606,0,0,1,224.691,216.349Zm.012-7.995a3.308,3.308,0,0,0,0,6.591,3.311,3.311,0,0,0,0-6.591Z"
         class="cls-4" />
      <path
         id="path124"
         d="M230.28,207.106h7.644v1.352H234.9v7.748h-1.561v-7.748H230.28Z"
         class="cls-4" />
      <path
         id="path126"
         d="M239.6,219.092l-.78-.936a6.345,6.345,0,0,0,0-10.244l.78-.949a7.418,7.418,0,0,1,0,12.129Z"
         class="cls-4" />
    </g>
    <g
       id="g144">
      <path
         id="path130"
         d="M345.538,184.511h1.56v3.835h4.524v-3.835h1.56v9.1h-1.56v-3.9H347.1v3.9h-1.56Z"
         class="cls-4" />
      <path
         id="path132"
         d="M358.135,193.741a3.311,3.311,0,0,1-3.315-3.38,3.208,3.208,0,0,1,3.172-3.367,3.126,3.126,0,0,1,3.081,3.354v.365h-4.81a1.989,1.989,0,0,0,1.95,1.78,2.11,2.11,0,0,0,1.547-.611l.963.9A3.769,3.769,0,0,1,358.135,193.741Zm-1.846-3.925h3.394a1.784,1.784,0,0,0-1.7-1.626A1.75,1.75,0,0,0,356.289,189.816Z"
         class="cls-4" />
      <path
         id="path134"
         d="M362.242,191.739c0-1.17.95-1.911,2.484-1.911a4.016,4.016,0,0,1,1.755.4v-.716c0-.858-.5-1.3-1.5-1.3a4.51,4.51,0,0,0-1.9.507l-.52-1.066a6.254,6.254,0,0,1,2.7-.663c1.69,0,2.665.858,2.665,2.366v4.251h-1.456v-.663a2.717,2.717,0,0,1-1.938.767A2.054,2.054,0,0,1,362.242,191.739Zm2.7.95a2.323,2.323,0,0,0,1.535-.534v-1.066a3.373,3.373,0,0,0-1.508-.312c-.832,0-1.353.364-1.353.936C363.62,192.312,364.141,192.689,364.946,192.689Z"
         class="cls-4" />
      <path
         id="path136"
         d="M370.524,188.268h-1.313V187.1h1.313V185.3l1.469-.312V187.1h1.82v1.17h-1.82v3.3c0,.637.246.884.909.884a2.7,2.7,0,0,0,.885-.156v1.235a4.584,4.584,0,0,1-1.262.182c-1.312,0-2-.624-2-1.819Z"
         class="cls-4" />
      <path
         id="path138"
         d="M380.768,184.511h1.806l3.524,9.1h-1.677l-.924-2.547h-3.744l-.936,2.547h-1.625Zm2.274,5.33-1.4-3.874-1.431,3.874Z"
         class="cls-4" />
      <path
         id="path140"
         d="M387.267,184.511h4.069a2.823,2.823,0,1,1,0,5.629h-2.509v3.471h-1.56Zm1.56,1.313v3.042h2.262a1.531,1.531,0,1,0,.013-3.042Z"
         class="cls-4" />
      <path
         id="path142"
         d="M396.016,184.511h1.56v9.1h-1.56Z"
         class="cls-4" />
    </g>
    <g
       id="g166">
      <path
         id="path146"
         d="M482.259,184.511h1.559v3.835h4.525v-3.835H489.9v9.1h-1.559v-3.9h-4.525v3.9h-1.559Z"
         class="cls-4" />
      <path
         id="path148"
         d="M494.856,193.741a3.311,3.311,0,0,1-3.315-3.38,3.207,3.207,0,0,1,3.172-3.367,3.126,3.126,0,0,1,3.081,3.354v.365h-4.811a1.991,1.991,0,0,0,1.951,1.78,2.112,2.112,0,0,0,1.547-.611l.962.9A3.766,3.766,0,0,1,494.856,193.741Zm-1.846-3.925H496.4a1.784,1.784,0,0,0-1.7-1.626A1.75,1.75,0,0,0,493.01,189.816Z"
         class="cls-4" />
      <path
         id="path150"
         d="M498.963,191.739c0-1.17.949-1.911,2.483-1.911a4.012,4.012,0,0,1,1.755.4v-.716c0-.858-.494-1.3-1.5-1.3a4.506,4.506,0,0,0-1.9.507l-.52-1.066a6.253,6.253,0,0,1,2.7-.663c1.691,0,2.665.858,2.665,2.366v4.251H503.2v-.663a2.715,2.715,0,0,1-1.937.767A2.054,2.054,0,0,1,498.963,191.739Zm2.7.95a2.318,2.318,0,0,0,1.534-.534v-1.066a3.37,3.37,0,0,0-1.508-.312c-.832,0-1.352.364-1.352.936C500.341,192.312,500.861,192.689,501.667,192.689Z"
         class="cls-4" />
      <path
         id="path152"
         d="M507.244,188.268h-1.312V187.1h1.312V185.3l1.47-.312V187.1h1.819v1.17h-1.819v3.3c0,.637.246.884.909.884a2.7,2.7,0,0,0,.885-.156v1.235a4.584,4.584,0,0,1-1.262.182c-1.312,0-2-.624-2-1.819Z"
         class="cls-4" />
      <path
         id="path154"
         d="M514.927,184.511h6.514v1.326h-4.954v2.535h3.458v1.3h-3.458v2.613h5v1.326h-6.565Z"
         class="cls-4" />
      <path
         id="path156"
         d="M523.078,187.1h1.469v1.066a2.364,2.364,0,0,1,2.067-1.17,2.191,2.191,0,0,1,2.249,2.327v4.29H527.4v-3.874a1.4,1.4,0,0,0-1.431-1.56,1.671,1.671,0,0,0-1.417.78v4.654h-1.469Z"
         class="cls-4" />
      <path
         id="path158"
         d="M530.345,190.348a3.143,3.143,0,0,1,3.042-3.3,2.451,2.451,0,0,1,1.911.884V187.1h1.456v6.735c0,1.676-1.093,2.6-3.068,2.6a5.662,5.662,0,0,1-2.614-.624l.521-1.093a4.436,4.436,0,0,0,2.027.56c1.093,0,1.664-.5,1.664-1.443v-1.1a2.529,2.529,0,0,1-1.988.923A3.122,3.122,0,0,1,530.345,190.348Zm3.392,2.08a1.948,1.948,0,0,0,1.547-.715v-2.729a2.016,2.016,0,0,0-1.547-.7,1.942,1.942,0,0,0-1.936,2.067A1.969,1.969,0,0,0,533.737,192.428Z"
         class="cls-4" />
      <path
         id="path160"
         d="M538.378,184.875a.917.917,0,0,1,1.834,0,.917.917,0,0,1-1.834,0Zm1.651,8.736h-1.468V187.1h1.468Z"
         class="cls-4" />
      <path
         id="path162"
         d="M541.837,187.1h1.469v1.066a2.364,2.364,0,0,1,2.067-1.17,2.192,2.192,0,0,1,2.249,2.327v4.29h-1.469v-3.874a1.4,1.4,0,0,0-1.43-1.56,1.67,1.67,0,0,0-1.417.78v4.654h-1.469Z"
         class="cls-4" />
      <path
         id="path164"
         d="M552.418,193.741a3.31,3.31,0,0,1-3.314-3.38,3.207,3.207,0,0,1,3.171-3.367,3.126,3.126,0,0,1,3.082,3.354v.365h-4.811a1.99,1.99,0,0,0,1.95,1.78,2.109,2.109,0,0,0,1.547-.611l.963.9A3.769,3.769,0,0,1,552.418,193.741Zm-1.846-3.925h3.394a1.784,1.784,0,0,0-1.7-1.626A1.751,1.751,0,0,0,550.572,189.816Z"
         class="cls-4" />
    </g>
    <g
       id="g218">
      <path
         id="path168"
         d="M490.454,313.084h3.328a4.55,4.55,0,1,1,0,9.1h-3.328Zm1.561,1.352v6.4h1.806a3.212,3.212,0,0,0,0-6.4Z"
         class="cls-4" />
      <path
         id="path170"
         d="M502.934,322.314a3.311,3.311,0,0,1-3.315-3.38,3.207,3.207,0,0,1,3.172-3.367,3.126,3.126,0,0,1,3.081,3.354v.364h-4.81a1.989,1.989,0,0,0,1.95,1.781,2.116,2.116,0,0,0,1.547-.611l.963.9A3.771,3.771,0,0,1,502.934,322.314Zm-1.846-3.926h3.394a1.784,1.784,0,0,0-1.7-1.625A1.75,1.75,0,0,0,501.088,318.388Z"
         class="cls-4" />
      <path
         id="path172"
         d="M507.367,315.671h1.444v.936a2.451,2.451,0,0,1,2.027-.988,3.126,3.126,0,0,1,2.951,3.315,3.157,3.157,0,0,1-3.055,3.315,2.435,2.435,0,0,1-1.9-.845v3.537h-1.469Zm1.469,1.911V320.3a2,2,0,0,0,1.561.715,2.085,2.085,0,0,0,0-4.16A1.914,1.914,0,0,0,508.836,317.582Z"
         class="cls-4" />
      <path
         id="path174"
         d="M516.779,322.184h-1.468v-9.3l1.468-.247Z"
         class="cls-4" />
      <path
         id="path176"
         d="M521.563,315.567a3.375,3.375,0,1,1-3.276,3.367A3.252,3.252,0,0,1,521.563,315.567Zm1.82,3.38a1.841,1.841,0,1,0-3.64,0,1.838,1.838,0,1,0,3.64,0Z"
         class="cls-4" />
      <path
         id="path178"
         d="M528.025,322.223l-2.458-6.552h1.638l1.652,4.836,1.82-4.836h1.6l-3.093,7.579a2.2,2.2,0,0,1-2.315,1.716,3.069,3.069,0,0,1-.741-.091v-1.261a5.367,5.367,0,0,0,.572.052,1.038,1.038,0,0,0,1.053-.754Z"
         class="cls-4" />
      <path
         id="path180"
         d="M536.357,322.314a3.311,3.311,0,0,1-3.315-3.38,3.208,3.208,0,0,1,3.172-3.367,3.126,3.126,0,0,1,3.081,3.354v.364h-4.811a1.991,1.991,0,0,0,1.951,1.781,2.116,2.116,0,0,0,1.547-.611l.962.9A3.766,3.766,0,0,1,536.357,322.314Zm-1.846-3.926H537.9a1.783,1.783,0,0,0-1.7-1.625A1.75,1.75,0,0,0,534.511,318.388Z"
         class="cls-4" />
      <path
         id="path182"
         d="M545.444,321.313a2.506,2.506,0,0,1-2,.936,3.332,3.332,0,0,1,.091-6.63,2.485,2.485,0,0,1,1.9.858v-3.588l1.469-.247v9.542h-1.456Zm-1.56-.3a1.949,1.949,0,0,0,1.547-.715v-2.743a2.02,2.02,0,0,0-1.547-.7,2.085,2.085,0,0,0,0,4.16Z"
         class="cls-4" />
      <path
         id="path184"
         d="M475.459,328.147h1.561v9.1h-1.561Z"
         class="cls-4" />
      <path
         id="path186"
         d="M478.956,330.734h1.469V331.8a2.364,2.364,0,0,1,2.067-1.17,2.192,2.192,0,0,1,2.249,2.327v4.29h-1.468v-3.874a1.4,1.4,0,0,0-1.431-1.56,1.67,1.67,0,0,0-1.417.78v4.654h-1.469Z"
         class="cls-4" />
      <path
         id="path188"
         d="M487.406,330.734v-1.157a2,2,0,0,1,2.249-2.184,3.543,3.543,0,0,1,.976.13v1.248a3.006,3.006,0,0,0-.78-.1c-.676,0-.976.3-.976.936v1.131h1.756v1.17h-1.756v5.343h-1.469V331.9H486v-1.17Z"
         class="cls-4" />
      <path
         id="path190"
         d="M491.865,330.734h1.469v1.417a1.933,1.933,0,0,1,1.794-1.534,1.751,1.751,0,0,1,.638.13v1.287a2.076,2.076,0,0,0-.807-.156,1.787,1.787,0,0,0-1.625,1.079v4.29h-1.469Z"
         class="cls-4" />
      <path
         id="path192"
         d="M496.649,335.375c0-1.17.949-1.911,2.483-1.911a4.028,4.028,0,0,1,1.755.4v-.715c0-.858-.494-1.3-1.5-1.3a4.51,4.51,0,0,0-1.9.507l-.519-1.066a6.25,6.25,0,0,1,2.7-.663c1.69,0,2.665.858,2.665,2.366v4.251h-1.456v-.663a2.72,2.72,0,0,1-1.938.767A2.053,2.053,0,0,1,496.649,335.375Zm2.7.949a2.325,2.325,0,0,0,1.534-.533v-1.066a3.373,3.373,0,0,0-1.508-.312c-.832,0-1.353.364-1.353.936C498.026,335.947,498.547,336.324,499.353,336.324Z"
         class="cls-4" />
      <path
         id="path194"
         d="M504.228,335.505a3.754,3.754,0,0,0,2.093.741c.78,0,1.313-.351,1.313-.871,0-.4-.273-.624-.9-.741l-1.157-.195c-1.261-.234-1.885-.819-1.885-1.794,0-1.222,1-2.015,2.522-2.015a4.583,4.583,0,0,1,2.561.78l-.689.962a3.56,3.56,0,0,0-1.963-.624c-.676,0-1.118.286-1.118.767,0,.416.234.6.923.715l1.144.208c1.3.247,1.924.845,1.924,1.82a2.386,2.386,0,0,1-2.652,2.119,4.37,4.37,0,0,1-2.808-.884Z"
         class="cls-4" />
      <path
         id="path196"
         d="M511.156,331.9h-1.312v-1.17h1.312V328.94l1.47-.312v2.106h1.819v1.17h-1.819v3.3c0,.637.246.884.909.884a2.7,2.7,0,0,0,.885-.156v1.235a4.622,4.622,0,0,1-1.262.182c-1.312,0-2-.624-2-1.82Z"
         class="cls-4" />
      <path
         id="path198"
         d="M515.733,330.734H517.2v1.417A1.933,1.933,0,0,1,519,330.617a1.751,1.751,0,0,1,.638.13v1.287a2.073,2.073,0,0,0-.807-.156,1.787,1.787,0,0,0-1.625,1.079v4.29h-1.468Z"
         class="cls-4" />
      <path
         id="path200"
         d="M522.272,334.608a1.4,1.4,0,0,0,1.43,1.56,1.643,1.643,0,0,0,1.43-.806v-4.628H526.6v6.513h-1.469v-1.079a2.381,2.381,0,0,1-2.08,1.183,2.185,2.185,0,0,1-2.249-2.327v-4.29h1.469Z"
         class="cls-4" />
      <path
         id="path202"
         d="M533.062,335.362l.883.884a3.385,3.385,0,0,1-2.547,1.131,3.368,3.368,0,0,1,0-6.734,3.508,3.508,0,0,1,2.6,1.092l-.91.949a2.153,2.153,0,0,0-1.638-.767,2.089,2.089,0,0,0,.039,4.16A2,2,0,0,0,533.062,335.362Z"
         class="cls-4" />
      <path
         id="path204"
         d="M536.012,331.9H534.7v-1.17h1.313V328.94l1.47-.312v2.106H539.3v1.17h-1.819v3.3c0,.637.246.884.909.884a2.694,2.694,0,0,0,.884-.156v1.235a4.615,4.615,0,0,1-1.261.182c-1.313,0-2-.624-2-1.82Z"
         class="cls-4" />
      <path
         id="path206"
         d="M542.018,334.608a1.4,1.4,0,0,0,1.43,1.56,1.643,1.643,0,0,0,1.43-.806v-4.628h1.469v6.513h-1.469v-1.079a2.381,2.381,0,0,1-2.08,1.183,2.185,2.185,0,0,1-2.249-2.327v-4.29h1.469Z"
         class="cls-4" />
      <path
         id="path208"
         d="M548.153,330.734h1.469v1.417a1.933,1.933,0,0,1,1.794-1.534,1.751,1.751,0,0,1,.638.13v1.287a2.076,2.076,0,0,0-.807-.156,1.787,1.787,0,0,0-1.625,1.079v4.29h-1.469Z"
         class="cls-4" />
      <path
         id="path210"
         d="M556.278,337.377a3.31,3.31,0,0,1-3.314-3.38,3.208,3.208,0,0,1,3.172-3.367,3.126,3.126,0,0,1,3.081,3.354v.364h-4.811a1.991,1.991,0,0,0,1.951,1.781,2.112,2.112,0,0,0,1.546-.611l.963.9A3.767,3.767,0,0,1,556.278,337.377Zm-1.845-3.926h3.393a1.783,1.783,0,0,0-1.7-1.625A1.75,1.75,0,0,0,554.433,333.451Z"
         class="cls-4" />
      <path
         id="path212"
         d="M505.235,343.21h1.677l2.8,7.527,2.821-7.527h1.613l-3.563,9.1h-1.806Z"
         class="cls-4" />
      <path
         id="path214"
         d="M516.753,345.173v7.137H515.31v-9.1h2.028L520,348.722l2.652-5.512h2.029v9.1h-1.47v-7.1l-3.224,6.448Z"
         class="cls-4" />
      <path
         id="path216"
         d="M526.8,350.568a3.759,3.759,0,0,0,2.094.741c.779,0,1.312-.351,1.312-.871,0-.4-.272-.624-.9-.741l-1.158-.195c-1.26-.234-1.884-.819-1.884-1.794,0-1.222,1-2.015,2.521-2.015a4.586,4.586,0,0,1,2.562.78l-.69.962a3.56,3.56,0,0,0-1.963-.624c-.675,0-1.118.286-1.118.767,0,.416.235.6.923.715l1.145.208c1.3.247,1.923.845,1.923,1.82a2.386,2.386,0,0,1-2.652,2.119,4.37,4.37,0,0,1-2.808-.884Z"
         class="cls-4" />
    </g>
    <rect
       id="rect220"
       height="94.309"
       width="117.59"
       y="18.472"
       x="459.791"
       class="cls-5" />
    <g
       id="g274">
      <g
         id="g264">
        <path
           id="path222"
           d="M481.2,90.2a4.694,4.694,0,1,1,4.6-4.693A4.606,4.606,0,0,1,481.2,90.2Zm.013-8a3.308,3.308,0,0,0,0,6.591,3.311,3.311,0,0,0,0-6.591Z"
           class="cls-4" />
        <path
           id="path224"
           d="M487.373,83.54h1.469v1.417a1.931,1.931,0,0,1,1.794-1.534,1.751,1.751,0,0,1,.638.13V84.84a2.08,2.08,0,0,0-.807-.156,1.787,1.787,0,0,0-1.625,1.079v4.29h-1.469Z"
           class="cls-4" />
        <path
           id="path226"
           d="M497.136,88.168l.884.884a3.386,3.386,0,0,1-2.548,1.131,3.368,3.368,0,0,1,0-6.734,3.508,3.508,0,0,1,2.6,1.092l-.91.949a2.151,2.151,0,0,0-1.637-.767,2.089,2.089,0,0,0,.039,4.16A2,2,0,0,0,497.136,88.168Z"
           class="cls-4" />
        <path
           id="path228"
           d="M499.28,80.758l1.469-.247v4.095a2.364,2.364,0,0,1,2.068-1.17,2.192,2.192,0,0,1,2.249,2.327v4.29H503.6V86.179a1.4,1.4,0,0,0-1.431-1.56,1.671,1.671,0,0,0-1.417.78v4.654H499.28Z"
           class="cls-4" />
        <path
           id="path230"
           d="M509.862,90.183a3.31,3.31,0,0,1-3.314-3.38,3.208,3.208,0,0,1,3.172-3.367A3.126,3.126,0,0,1,512.8,86.79v.364H507.99a1.991,1.991,0,0,0,1.951,1.781,2.112,2.112,0,0,0,1.546-.611l.963.9A3.767,3.767,0,0,1,509.862,90.183Zm-1.845-3.926h3.393a1.783,1.783,0,0,0-1.7-1.625A1.75,1.75,0,0,0,508.017,86.257Z"
           class="cls-4" />
        <path
           id="path232"
           d="M514.4,88.311a3.754,3.754,0,0,0,2.093.741c.78,0,1.313-.351,1.313-.871,0-.4-.273-.624-.9-.741l-1.157-.195c-1.261-.234-1.885-.819-1.885-1.794,0-1.222,1-2.015,2.522-2.015a4.583,4.583,0,0,1,2.561.78l-.689.962a3.56,3.56,0,0,0-1.963-.624c-.676,0-1.118.286-1.118.767,0,.416.234.6.923.715l1.144.208c1.3.247,1.924.845,1.924,1.82a2.386,2.386,0,0,1-2.652,2.119,4.37,4.37,0,0,1-2.808-.884Z"
           class="cls-4" />
        <path
           id="path234"
           d="M521.328,84.71h-1.312V83.54h1.312V81.746l1.47-.312V83.54h1.819v1.17H522.8v3.3c0,.638.246.884.909.884a2.677,2.677,0,0,0,.885-.156v1.235a4.622,4.622,0,0,1-1.262.182c-1.312,0-2-.624-2-1.82Z"
           class="cls-4" />
        <path
           id="path236"
           d="M525.9,83.54h1.469v1.417a1.933,1.933,0,0,1,1.794-1.534,1.751,1.751,0,0,1,.638.13V84.84a2.076,2.076,0,0,0-.807-.156,1.787,1.787,0,0,0-1.625,1.079v4.29H525.9Z"
           class="cls-4" />
        <path
           id="path238"
           d="M530.688,88.181c0-1.17.949-1.911,2.483-1.911a4.028,4.028,0,0,1,1.755.4v-.715c0-.858-.494-1.3-1.5-1.3a4.51,4.51,0,0,0-1.9.507l-.519-1.066a6.25,6.25,0,0,1,2.7-.663c1.69,0,2.665.858,2.665,2.366v4.251h-1.456V89.39a2.72,2.72,0,0,1-1.938.767A2.053,2.053,0,0,1,530.688,88.181Zm2.7.949a2.325,2.325,0,0,0,1.534-.533V87.531a3.373,3.373,0,0,0-1.508-.312c-.832,0-1.352.364-1.352.936C532.066,88.753,532.586,89.13,533.392,89.13Z"
           class="cls-4" />
        <path
           id="path240"
           d="M538.969,84.71h-1.313V83.54h1.313V81.746l1.47-.312V83.54h1.819v1.17h-1.819v3.3c0,.638.246.884.909.884a2.677,2.677,0,0,0,.885-.156v1.235a4.628,4.628,0,0,1-1.262.182c-1.313,0-2-.624-2-1.82Z"
           class="cls-4" />
        <path
           id="path242"
           d="M543.362,81.317a.917.917,0,0,1,1.834,0,.917.917,0,0,1-1.834,0Zm1.652,8.736h-1.469V83.54h1.469Z"
           class="cls-4" />
        <path
           id="path244"
           d="M549.8,83.436a3.375,3.375,0,1,1-3.275,3.367A3.252,3.252,0,0,1,549.8,83.436Zm1.82,3.38a1.841,1.841,0,1,0-3.639,0,1.837,1.837,0,1,0,3.639,0Z"
           class="cls-4" />
        <path
           id="path246"
           d="M554.6,83.54h1.469v1.066a2.364,2.364,0,0,1,2.067-1.17,2.192,2.192,0,0,1,2.249,2.327v4.29h-1.469V86.179a1.4,1.4,0,0,0-1.43-1.56,1.67,1.67,0,0,0-1.417.78v4.654H554.6Z"
           class="cls-4" />
        <path
           id="path248"
           d="M495.96,103.3a2.508,2.508,0,0,1-2,.936,3.332,3.332,0,0,1,.091-6.63,2.481,2.481,0,0,1,1.9.858V94.876l1.47-.247v9.543H495.96Zm-1.56-.3a1.944,1.944,0,0,0,1.546-.716V99.543a2.018,2.018,0,0,0-1.546-.7,2.086,2.086,0,0,0,0,4.161Z"
           class="cls-4" />
        <path
           id="path250"
           d="M498.91,102.3c0-1.169.949-1.911,2.484-1.911a4.028,4.028,0,0,1,1.755.4v-.715c0-.858-.5-1.3-1.5-1.3a4.51,4.51,0,0,0-1.9.507l-.52-1.066a6.254,6.254,0,0,1,2.7-.663c1.69,0,2.665.858,2.665,2.367v4.251h-1.456v-.664a2.718,2.718,0,0,1-1.938.768A2.055,2.055,0,0,1,498.91,102.3Zm2.7.95a2.328,2.328,0,0,0,1.535-.534V101.65a3.36,3.36,0,0,0-1.508-.312c-.832,0-1.353.363-1.353.936C500.288,102.871,500.809,103.249,501.614,103.249Z"
           class="cls-4" />
        <path
           id="path252"
           d="M507.192,98.828h-1.313v-1.17h1.313V95.864l1.469-.312v2.106h1.82v1.17h-1.82v3.3c0,.638.246.884.909.884a2.7,2.7,0,0,0,.885-.155v1.234a4.585,4.585,0,0,1-1.262.183c-1.312,0-2-.625-2-1.821Z"
           class="cls-4" />
        <path
           id="path254"
           d="M511.442,102.3c0-1.169.95-1.911,2.484-1.911a4.028,4.028,0,0,1,1.755.4v-.715c0-.858-.494-1.3-1.5-1.3a4.514,4.514,0,0,0-1.9.507l-.519-1.066a6.25,6.25,0,0,1,2.7-.663c1.689,0,2.665.858,2.665,2.367v4.251h-1.456v-.664a2.718,2.718,0,0,1-1.938.768A2.055,2.055,0,0,1,511.442,102.3Zm2.705.95a2.325,2.325,0,0,0,1.534-.534V101.65a3.36,3.36,0,0,0-1.508-.312c-.832,0-1.353.363-1.353.936C512.82,102.871,513.341,103.249,514.147,103.249Z"
           class="cls-4" />
        <path
           id="path256"
           d="M522.284,104.236a2.422,2.422,0,0,1-1.924-.91v.846h-1.443v-9.3l1.469-.247v3.9a2.535,2.535,0,0,1,2-.923,3.332,3.332,0,0,1-.1,6.63Zm-1.9-4.667v2.717a2,2,0,0,0,1.56.716,2.086,2.086,0,0,0,0-4.161A1.912,1.912,0,0,0,520.386,99.569Z"
           class="cls-4" />
        <path
           id="path258"
           d="M526.535,102.3c0-1.169.949-1.911,2.484-1.911a4.028,4.028,0,0,1,1.755.4v-.715c0-.858-.5-1.3-1.5-1.3a4.51,4.51,0,0,0-1.9.507l-.52-1.066a6.254,6.254,0,0,1,2.705-.663c1.69,0,2.665.858,2.665,2.367v4.251h-1.456v-.664a2.718,2.718,0,0,1-1.938.768A2.055,2.055,0,0,1,526.535,102.3Zm2.7.95a2.328,2.328,0,0,0,1.535-.534V101.65a3.36,3.36,0,0,0-1.508-.312c-.832,0-1.353.363-1.353.936C527.913,102.871,528.434,103.249,529.239,103.249Z"
           class="cls-4" />
        <path
           id="path260"
           d="M534.113,102.429a3.753,3.753,0,0,0,2.094.742c.779,0,1.313-.352,1.313-.872,0-.4-.273-.624-.9-.741l-1.157-.2c-1.261-.233-1.885-.818-1.885-1.794,0-1.222,1-2.015,2.522-2.015a4.583,4.583,0,0,1,2.561.78l-.689.963a3.553,3.553,0,0,0-1.963-.625c-.676,0-1.118.286-1.118.768,0,.416.234.6.923.714l1.144.208c1.3.247,1.924.845,1.924,1.82a2.386,2.386,0,0,1-2.652,2.119,4.373,4.373,0,0,1-2.808-.883Z"
           class="cls-4" />
        <path
           id="path262"
           d="M543.252,104.3a3.31,3.31,0,0,1-3.314-3.379,3.207,3.207,0,0,1,3.171-3.368,3.126,3.126,0,0,1,3.082,3.354v.365H541.38a1.99,1.99,0,0,0,1.95,1.78,2.109,2.109,0,0,0,1.547-.611l.963.9A3.764,3.764,0,0,1,543.252,104.3Zm-1.846-3.926H544.8a1.784,1.784,0,0,0-1.7-1.625A1.75,1.75,0,0,0,541.406,100.375Z"
           class="cls-4" />
      </g>
      <g
         id="g272">
        <path
           id="path266"
           d="M496.881,48.849V60.84c0,6.623,9.718,11.992,21.706,11.992s21.705-5.369,21.705-11.992V48.849"
           class="cls-6" />
        <path
           id="path268"
           d="M496.881,36.857V48.849c0,6.623,9.718,11.991,21.706,11.991s21.705-5.368,21.705-11.991V36.857"
           class="cls-6" />
        <ellipse
           id="ellipse270"
           ry="11.992"
           rx="21.706"
           cy="36.857"
           cx="518.587"
           class="cls-6" />
      </g>
    </g>
    <g
       id="g302">
      <g
         id="g292">
        <line
           id="line276"
           y2="301.782"
           x2="550.035"
           y1="301.782"
           x1="550.035"
           class="cls-7" />
        <line
           id="line278"
           y2="301.782"
           x2="489.556"
           y1="301.782"
           x1="545.196"
           class="cls-8" />
        <line
           id="line280"
           y2="301.782"
           x2="487.137"
           y1="301.782"
           x1="487.137"
           class="cls-7" />
        <line
           id="line282"
           y2="280.026"
           x2="487.137"
           y1="296.947"
           x1="487.137"
           class="cls-9" />
        <line
           id="line284"
           y2="277.609"
           x2="487.137"
           y1="277.609"
           x1="487.137"
           class="cls-7" />
        <line
           id="line286"
           y2="277.609"
           x2="547.616"
           y1="277.609"
           x1="491.976"
           class="cls-8" />
        <line
           id="line288"
           y2="277.609"
           x2="550.035"
           y1="277.609"
           x1="550.035"
           class="cls-7" />
        <line
           id="line290"
           y2="299.365"
           x2="550.035"
           y1="282.443"
           x1="550.035"
           class="cls-9" />
      </g>
      <g
         id="g300">
        <rect
           id="rect294"
           height="12.908"
           width="51.632"
           y="283.221"
           x="492.706"
           class="cls-6" />
        <line
           id="line296"
           y2="288.757"
           x2="538.819"
           y1="288.757"
           x1="538.819"
           class="cls-7" />
        <line
           id="line298"
           y2="290.597"
           x2="506.774"
           y1="290.597"
           x1="499.029"
           class="cls-10" />
      </g>
    </g>
    <g
       id="g316">
      <g
         id="g308">
        <path
           id="path304"
           d="M89.44,196.848a21.365,21.365,0,0,0-42.729,0Z"
           class="cls-6" />
        <ellipse
           id="ellipse306"
           ry="10.711"
           rx="10.726"
           cy="164.82"
           cx="68.076"
           class="cls-6" />
      </g>
      <rect
         id="rect310"
         height="18.35"
         width="18.35"
         y="185.166"
         x="89.44"
         class="cls-11" />
      <rect
         id="rect312"
         height="18.35"
         width="18.35"
         y="187.673"
         x="87.392"
         class="cls-11" />
      <rect
         id="rect314"
         height="18.35"
         width="18.35"
         y="189.755"
         x="85.341"
         class="cls-11" />
    </g>
    <g
       id="g322">
      <line
         id="line318"
         y2="189.788"
         x2="158.017"
         y1="189.788"
         x1="135.485"
         class="cls-12" />
      <polygon
         id="polygon320"
         points="156.558 194.773 165.193 189.788 156.558 184.802 156.558 194.773"
         class="cls-4" />
    </g>
    <g
       id="g328">
      <line
         id="line324"
         y2="189.788"
         x2="305.316"
         y1="189.788"
         x1="282.784"
         class="cls-12" />
      <polygon
         id="polygon326"
         points="303.857 194.773 312.492 189.788 303.857 184.802 303.857 194.773"
         class="cls-4" />
    </g>
    <g
       id="g334">
      <line
         id="line330"
         y2="189.788"
         x2="452.615"
         y1="189.788"
         x1="430.082"
         class="cls-12" />
      <polygon
         id="polygon332"
         points="451.156 194.773 459.791 189.788 451.156 184.802 451.156 194.773"
         class="cls-4" />
    </g>
    <g
       id="g348">
      <g
         id="g340">
        <line
           id="line336"
           y2="119.956"
           x2="496.3"
           y1="142.489"
           x1="496.3"
           class="cls-12" />
        <polygon
           id="polygon338"
           points="501.286 121.415 496.3 112.781 491.314 121.415 501.286 121.415"
           class="cls-4" />
      </g>
      <g
         id="g346">
        <line
           id="line342"
           y2="112.781"
           x2="540.873"
           y1="135.313"
           x1="540.873"
           class="cls-12" />
        <polygon
           id="polygon344"
           points="545.858 133.854 540.873 142.489 535.887 133.854 545.858 133.854"
           class="cls-4" />
      </g>
    </g>
    <g
       id="g354">
      <line
         id="line350"
         y2="236.859"
         x2="518.586"
         y1="259.392"
         x1="518.586"
         class="cls-12" />
      <polygon
         id="polygon352"
         points="523.572 257.933 518.587 266.567 513.6 257.933 523.572 257.933"
         class="cls-4" />
    </g>
  </g>
</svg>
