<?xml version="1.0" encoding="UTF-8" standalone="no"?>
<svg
   xmlns:dc="http://purl.org/dc/elements/1.1/"
   xmlns:cc="http://creativecommons.org/ns#"
   xmlns:rdf="http://www.w3.org/1999/02/22-rdf-syntax-ns#"
   xmlns:svg="http://www.w3.org/2000/svg"
   xmlns="http://www.w3.org/2000/svg"
   xmlns:sodipodi="http://sodipodi.sourceforge.net/DTD/sodipodi-0.dtd"
   xmlns:inkscape="http://www.inkscape.org/namespaces/inkscape"
   inkscape:version="1.0 (4035a4f, 2020-05-01)"
   sodipodi:docname="Entity Relationship Keystone_v1.svg"
   version="1.1"
   viewBox="0 0 595.276 525.005"
   height="185.21mm"
   width="210mm"
   data-name="Layer 1"
   id="Layer_1">
  <metadata
     id="metadata759">
    <rdf:RDF>
      <cc:Work
         rdf:about="">
        <dc:format>image/svg+xml</dc:format>
        <dc:type
           rdf:resource="http://purl.org/dc/dcmitype/StillImage" />
        <dc:title></dc:title>
        <dc:subject>
          <rdf:Bag>
            <rdf:li>Entity Relationship Keystone</rdf:li>
          </rdf:Bag>
        </dc:subject>
      </cc:Work>
    </rdf:RDF>
  </metadata>
  <sodipodi:namedview
     inkscape:current-layer="Layer_1"
     inkscape:window-maximized="0"
     inkscape:window-y="23"
     inkscape:window-x="0"
     inkscape:cy="350.00316"
     inkscape:cx="382.607"
     inkscape:zoom="1.0180159"
     showgrid="false"
     id="namedview757"
     inkscape:window-height="906"
     inkscape:window-width="1278"
     inkscape:pageshadow="2"
     inkscape:pageopacity="0"
     guidetolerance="10"
     gridtolerance="10"
     objecttolerance="10"
     borderopacity="1"
     bordercolor="#666666"
     pagecolor="#ffffff" />
  <defs
     id="defs12">
    <style
       id="style10">
      .cls-1 {
        fill: #fff;
      }

      .cls-2 {
        fill: #06c;
      }

      .cls-3 {
        fill: none;
        stroke: #000;
      }

      .cls-3, .cls-4 {
        stroke-miterlimit: 10;
      }

      .cls-4 {
        fill: #e8e8e8;
        stroke: #dcdcdc;
      }

      .cls-5 {
        fill: #151515;
      }
    </style>
  </defs>
  <g
     id="g44">
    <g
       id="g18">
      <rect
         id="rect14"
         height="107.936"
         width="364.588"
         y="393.67"
         x="203.361"
         class="cls-1" />
      <path
         id="path16"
         d="M567.444,394.175V501.1H203.865V394.175H567.444m1.01-1.009h-365.6V502.111h365.6V393.166Z"
         class="cls-2" />
    </g>
    <g
       id="g42">
      <path
         id="path20"
         d="M349.662,483.846h4.493a2.8,2.8,0,1,1,0,5.582h-2.637v3.38h-1.856Zm1.856,1.6v2.446h2.433a1.227,1.227,0,1,0,0-2.446Z"
         class="cls-2" />
      <path
         id="path22"
         d="M361.54,492.935a3.473,3.473,0,0,1-3.585-3.456,3.406,3.406,0,0,1,3.432-3.457,3.366,3.366,0,0,1,3.3,3.585v.461h-4.968a1.923,1.923,0,0,0,1.9,1.4,2.1,2.1,0,0,0,1.471-.537l1.153,1.049A4,4,0,0,1,361.54,492.935Zm-1.831-4.122h3.265a1.72,1.72,0,0,0-1.626-1.344A1.676,1.676,0,0,0,359.709,488.813Z"
         class="cls-2" />
      <path
         id="path24"
         d="M365.764,486.138h1.754v.73a2.12,2.12,0,0,1,1.779-.884,1.506,1.506,0,0,1,.73.154v1.536a2.225,2.225,0,0,0-.9-.179,1.765,1.765,0,0,0-1.613,1v4.315h-1.754Z"
         class="cls-2" />
      <path
         id="path26"
         d="M370.973,486.138h1.754v.5a2.592,2.592,0,0,1,1.741-.627,2.394,2.394,0,0,1,2.01,1,2.744,2.744,0,0,1,2.2-1,2.488,2.488,0,0,1,2.548,2.65v4.148h-1.754v-3.893a1.245,1.245,0,0,0-1.255-1.4,1.5,1.5,0,0,0-1.28.666,2.908,2.908,0,0,1,.038.474v4.148h-1.754v-3.893a1.245,1.245,0,0,0-1.255-1.4,1.489,1.489,0,0,0-1.241.6v4.686h-1.754Z"
         class="cls-2" />
      <path
         id="path28"
         d="M382.442,484.345a1,1,0,1,1,1,1A1,1,0,0,1,382.442,484.345Zm1.882,8.463H382.57v-6.67h1.754Z"
         class="cls-2" />
      <path
         id="path30"
         d="M386,490.849a3.883,3.883,0,0,0,2.164.755c.781,0,1.292-.281,1.292-.7,0-.346-.255-.538-.832-.627l-1.28-.193c-1.318-.2-2.022-.857-2.022-1.933,0-1.293,1.075-2.112,2.777-2.112a4.915,4.915,0,0,1,2.74.833L390,487.994a3.936,3.936,0,0,0-2.062-.64c-.64,0-1.05.256-1.05.653,0,.358.256.537.909.627l1.281.192c1.305.192,2.035.871,2.035,1.908,0,1.254-1.241,2.2-2.919,2.2a4.916,4.916,0,0,1-3.06-.921Z"
         class="cls-2" />
      <path
         id="path32"
         d="M392.286,490.849a3.88,3.88,0,0,0,2.163.755c.781,0,1.293-.281,1.293-.7,0-.346-.256-.538-.832-.627l-1.281-.193c-1.318-.2-2.022-.857-2.022-1.933,0-1.293,1.075-2.112,2.777-2.112a4.915,4.915,0,0,1,2.74.833l-.844,1.126a3.936,3.936,0,0,0-2.062-.64c-.639,0-1.05.256-1.05.653,0,.358.256.537.91.627l1.28.192c1.306.192,2.035.871,2.035,1.908,0,1.254-1.241,2.2-2.919,2.2a4.916,4.916,0,0,1-3.06-.921Z"
         class="cls-2" />
      <path
         id="path34"
         d="M398.135,484.345a1,1,0,1,1,1,1A1,1,0,0,1,398.135,484.345Zm1.882,8.463h-1.754v-6.67h1.754Z"
         class="cls-2" />
      <path
         id="path36"
         d="M404.638,486.01a3.464,3.464,0,1,1-3.559,3.469A3.476,3.476,0,0,1,404.638,486.01Zm1.843,3.469a1.846,1.846,0,1,0-1.843,1.933A1.868,1.868,0,0,0,406.481,489.479Z"
         class="cls-2" />
      <path
         id="path38"
         d="M409.271,486.138h1.754v.524a2.864,2.864,0,0,1,1.869-.652,2.53,2.53,0,0,1,2.637,2.65v4.148h-1.754v-3.893a1.3,1.3,0,0,0-1.382-1.4,1.6,1.6,0,0,0-1.37.666v4.622h-1.754Z"
         class="cls-2" />
      <path
         id="path40"
         d="M417.168,490.849a3.883,3.883,0,0,0,2.163.755c.782,0,1.293-.281,1.293-.7,0-.346-.255-.538-.832-.627l-1.28-.193c-1.318-.2-2.022-.857-2.022-1.933,0-1.293,1.075-2.112,2.777-2.112a4.915,4.915,0,0,1,2.74.833l-.844,1.126a3.936,3.936,0,0,0-2.062-.64c-.64,0-1.05.256-1.05.653,0,.358.256.537.909.627l1.281.192c1.305.192,2.035.871,2.035,1.908,0,1.254-1.241,2.2-2.919,2.2a4.916,4.916,0,0,1-3.06-.921Z"
         class="cls-2" />
    </g>
  </g>
  <g
     id="g50">
    <rect
       id="rect46"
       height="107.936"
       width="364.588"
       y="142.392"
       x="203.361"
       class="cls-1" />
    <path
       id="path48"
       d="M567.444,142.9V249.823H203.865V142.9H567.444m1.01-1.01h-365.6V250.833h365.6V141.887Z"
       class="cls-2" />
  </g>
  <g
     id="g84">
    <path
       id="path52"
       d="M337.618,233.029h4.493a2.8,2.8,0,1,1,0,5.582h-2.638v3.38h-1.855Zm1.855,1.6v2.446h2.433a1.227,1.227,0,1,0,0-2.446Z"
       class="cls-2" />
    <path
       id="path54"
       d="M346.219,235.321h1.754v.73a2.12,2.12,0,0,1,1.779-.884,1.506,1.506,0,0,1,.73.154v1.536a2.243,2.243,0,0,0-.9-.179,1.764,1.764,0,0,0-1.612,1v4.315h-1.754Z"
       class="cls-2" />
    <path
       id="path56"
       d="M354.68,235.193a3.464,3.464,0,1,1-3.558,3.469A3.476,3.476,0,0,1,354.68,235.193Zm1.844,3.469a1.846,1.846,0,1,0-1.844,1.933A1.869,1.869,0,0,0,356.524,238.662Z"
       class="cls-2" />
    <path
       id="path58"
       d="M357.982,244.628v-1.344a2.7,2.7,0,0,0,.576.051c.524,0,.755-.205.755-.679v-7.335h1.754v7.438a1.892,1.892,0,0,1-2.163,1.984A3.142,3.142,0,0,1,357.982,244.628Zm1.2-11.1a1,1,0,1,1,1,1A1,1,0,0,1,359.185,233.528Z"
       class="cls-2" />
    <path
       id="path60"
       d="M365.713,242.119a3.473,3.473,0,0,1-3.584-3.457,3.4,3.4,0,0,1,3.431-3.457,3.367,3.367,0,0,1,3.3,3.585v.461H363.9a1.922,1.922,0,0,0,1.9,1.395,2.1,2.1,0,0,0,1.472-.537l1.152,1.05A4,4,0,0,1,365.713,242.119ZM363.882,238h3.265a1.722,1.722,0,0,0-1.626-1.344A1.676,1.676,0,0,0,363.882,238Z"
       class="cls-2" />
    <path
       id="path62"
       d="M374.789,239.84l1.049,1.088a3.7,3.7,0,0,1-2.714,1.191,3.463,3.463,0,1,1,0-6.926,3.753,3.753,0,0,1,2.766,1.19l-1.075,1.14a2.166,2.166,0,0,0-1.652-.807,1.937,1.937,0,0,0,.039,3.866A2.07,2.07,0,0,0,374.789,239.84Z"
       class="cls-2" />
    <path
       id="path64"
       d="M377.656,236.793h-1.37v-1.472h1.37v-1.7l1.754-.4v2.1H381.3v1.472H379.41v2.957c0,.627.243.858.921.858a2.684,2.684,0,0,0,.935-.154v1.434a5.464,5.464,0,0,1-1.357.2c-1.486,0-2.253-.679-2.253-1.984Z"
       class="cls-2" />
    <path
       id="path66"
       d="M386.821,237.6v1.484h-4.815V237.6Z"
       class="cls-2" />
    <path
       id="path68"
       d="M388.048,235.321H389.8v.73a2.122,2.122,0,0,1,1.779-.884,1.506,1.506,0,0,1,.73.154v1.536a2.242,2.242,0,0,0-.9-.179,1.765,1.765,0,0,0-1.613,1v4.315h-1.754Z"
       class="cls-2" />
    <path
       id="path70"
       d="M396.51,235.193a3.464,3.464,0,1,1-3.559,3.469A3.476,3.476,0,0,1,396.51,235.193Zm1.843,3.469a1.846,1.846,0,1,0-1.843,1.933A1.868,1.868,0,0,0,398.353,238.662Z"
       class="cls-2" />
    <path
       id="path72"
       d="M402.9,241.991h-1.754v-8.962l1.754-.384Z"
       class="cls-2" />
    <path
       id="path74"
       d="M407.543,242.119a3.473,3.473,0,0,1-3.585-3.457,3.405,3.405,0,0,1,3.432-3.457,3.367,3.367,0,0,1,3.3,3.585v.461h-4.968a1.923,1.923,0,0,0,1.9,1.395,2.1,2.1,0,0,0,1.471-.537l1.153,1.05A4,4,0,0,1,407.543,242.119ZM405.712,238h3.265a1.721,1.721,0,0,0-1.626-1.344A1.676,1.676,0,0,0,405.712,238Z"
       class="cls-2" />
    <path
       id="path76"
       d="M414.455,233.029h4.493a2.8,2.8,0,1,1,0,5.582h-2.637v3.38h-1.856Zm1.856,1.6v2.446h2.433a1.227,1.227,0,1,0,0-2.446Z"
       class="cls-2" />
    <path
       id="path78"
       d="M422.736,240.058c0-1.268,1.024-2.023,2.74-2.023a5.369,5.369,0,0,1,1.625.256v-.474c0-.768-.474-1.165-1.408-1.165a5.153,5.153,0,0,0-2.035.551l-.64-1.293a6.948,6.948,0,0,1,2.97-.717c1.8,0,2.842.9,2.842,2.47v4.328H427.1v-.461a3.164,3.164,0,0,1-1.933.576A2.159,2.159,0,0,1,422.736,240.058Zm2.893.793a2.528,2.528,0,0,0,1.472-.422v-1a3.882,3.882,0,0,0-1.408-.243c-.806,0-1.279.32-1.279.832S424.887,240.851,425.629,240.851Z"
       class="cls-2" />
    <path
       id="path80"
       d="M430.033,233.528a1,1,0,1,1,1,1A1,1,0,0,1,430.033,233.528Zm1.881,8.463h-1.753v-6.67h1.753Z"
       class="cls-2" />
    <path
       id="path82"
       d="M433.284,235.321h1.754v.73a2.122,2.122,0,0,1,1.779-.884,1.5,1.5,0,0,1,.729.154v1.536a2.241,2.241,0,0,0-.895-.179,1.764,1.764,0,0,0-1.613,1v4.315h-1.754Z"
       class="cls-2" />
  </g>
  <g
     id="g102">
    <g
       id="g92">
      <line
         id="line86"
         y2="334.293"
         x2="222.212"
         y1="334.293"
         x1="136.505"
         class="cls-3" />
      <polygon
         id="polygon88"
         points="137.599 338.033 131.123 334.294 137.599 330.554 137.599 338.033" />
      <polygon
         id="polygon90"
         points="221.118 338.033 227.594 334.294 221.118 330.554 221.118 338.033" />
    </g>
    <g
       id="g100">
      <line
         id="line94"
         y2="334.293"
         x2="216.368"
         y1="334.293"
         x1="136.505"
         class="cls-3" />
      <polygon
         id="polygon96"
         points="137.599 338.033 131.123 334.294 137.599 330.554 137.599 338.033" />
      <polygon
         id="polygon98"
         points="215.274 338.033 221.75 334.294 215.274 330.554 215.274 338.033" />
    </g>
  </g>
  <g
     id="g120">
    <g
       id="g110">
      <polyline
         id="polyline104"
         points="340.484 337.914 466.333 337.914 466.333 232.879"
         class="cls-3" />
      <polygon
         id="polygon106"
         points="341.578 341.654 335.102 337.915 341.578 334.175 341.578 341.654" />
      <polygon
         id="polygon108"
         points="470.072 233.973 466.333 227.497 462.593 233.973 470.072 233.973" />
    </g>
    <g
       id="g118">
      <polyline
         id="polyline112"
         points="346.473 337.914 466.333 337.914 466.333 239.083"
         class="cls-3" />
      <polygon
         id="polygon114"
         points="347.567 341.654 341.091 337.915 347.567 334.175 347.567 341.654" />
      <polygon
         id="polygon116"
         points="470.072 240.177 466.333 233.701 462.593 240.177 470.072 240.177" />
    </g>
  </g>
  <g
     id="g138">
    <g
       id="g128">
      <line
         id="line122"
         y2="297.774"
         x2="281.348"
         y1="232.879"
         x1="281.348"
         class="cls-3" />
      <polygon
         id="polygon124"
         points="277.608 233.974 281.347 227.497 285.087 233.974 277.608 233.974" />
      <polygon
         id="polygon126"
         points="277.608 296.68 281.347 303.156 285.087 296.68 277.608 296.68" />
    </g>
    <g
       id="g136">
      <line
         id="line130"
         y2="291.774"
         x2="281.348"
         y1="232.879"
         x1="281.348"
         class="cls-3" />
      <polygon
         id="polygon132"
         points="277.608 233.974 281.347 227.497 285.087 233.974 277.608 233.974" />
      <polygon
         id="polygon134"
         points="277.608 290.68 281.347 297.156 285.087 290.68 277.608 290.68" />
    </g>
  </g>
  <g
     id="g146">
    <line
       id="line140"
       y2="196.36"
       x2="429.137"
       y1="196.36"
       x1="340.484"
       class="cls-3" />
    <polygon
       id="polygon142"
       points="341.578 200.099 335.102 196.36 341.578 192.621 341.578 200.099" />
    <polygon
       id="polygon144"
       points="428.042 200.099 434.518 196.36 428.042 192.621 428.042 200.099" />
  </g>
  <g
     id="g154">
    <line
       id="line148"
       y2="196.36"
       x2="423.014"
       y1="196.36"
       x1="346.473"
       class="cls-3" />
    <polygon
       id="polygon150"
       points="347.567 200.099 341.091 196.36 347.567 192.621 347.567 200.099" />
    <polygon
       id="polygon152"
       points="421.92 200.099 428.396 196.36 421.92 192.621 421.92 200.099" />
  </g>
  <g
     id="g174">
    <rect
       id="rect156"
       height="62.275"
       width="107.509"
       y="27.289"
       x="227.594"
       class="cls-4" />
    <g
       id="g172">
      <path
         id="path158"
         d="M256.31,53.012h3.278a4.481,4.481,0,1,1,0,8.962H256.31Zm1.537,1.332v6.3h1.779a3.163,3.163,0,0,0,0-6.3Z"
         class="cls-5" />
      <path
         id="path160"
         d="M268.563,55.457a3.323,3.323,0,1,1-3.226,3.316A3.2,3.2,0,0,1,268.563,55.457Zm1.792,3.329a1.813,1.813,0,1,0-3.584,0,1.81,1.81,0,1,0,3.584,0Z"
         class="cls-5" />
      <path
         id="path162"
         d="M273.288,55.559h1.447v1.025a2.187,2.187,0,0,1,1.908-1.127,2.015,2.015,0,0,1,1.881,1.242,2.368,2.368,0,0,1,2.125-1.242,2.125,2.125,0,0,1,2.1,2.33v4.187H281.3V58.1a1.3,1.3,0,0,0-1.293-1.473,1.529,1.529,0,0,0-1.293.755c.013.141.026.269.026.41v4.187H277.3V58.1A1.3,1.3,0,0,0,276,56.622a1.489,1.489,0,0,0-1.267.73v4.622h-1.447Z"
         class="cls-5" />
      <path
         id="path164"
         d="M284.184,60.13c0-1.152.935-1.882,2.445-1.882a3.959,3.959,0,0,1,1.728.4v-.7c0-.845-.486-1.28-1.472-1.28a4.435,4.435,0,0,0-1.869.5l-.512-1.05a6.158,6.158,0,0,1,2.663-.653c1.664,0,2.624.845,2.624,2.33v4.187h-1.434v-.653a2.675,2.675,0,0,1-1.907.755A2.023,2.023,0,0,1,284.184,60.13Zm2.663.934a2.283,2.283,0,0,0,1.51-.525V59.49a3.315,3.315,0,0,0-1.485-.307c-.819,0-1.331.358-1.331.921C285.541,60.693,286.053,61.064,286.847,61.064Z"
         class="cls-5" />
      <path
         id="path166"
         d="M291.366,53.371a.9.9,0,0,1,1.805,0,.9.9,0,0,1-1.805,0Zm1.626,8.6h-1.447V55.559h1.447Z"
         class="cls-5" />
      <path
         id="path168"
         d="M294.772,55.559h1.447v1.05a2.326,2.326,0,0,1,2.035-1.152,2.159,2.159,0,0,1,2.215,2.292v4.225h-1.447V58.159a1.381,1.381,0,0,0-1.408-1.537,1.642,1.642,0,0,0-1.395.769v4.583h-1.447Z"
         class="cls-5" />
      <path
         id="path170"
         d="M302.326,60.258a3.7,3.7,0,0,0,2.061.73c.768,0,1.293-.346,1.293-.858,0-.4-.268-.614-.883-.73l-1.139-.192c-1.242-.23-1.857-.806-1.857-1.766,0-1.2.986-1.985,2.484-1.985a4.52,4.52,0,0,1,2.522.768l-.679.948a3.5,3.5,0,0,0-1.933-.615c-.665,0-1.1.282-1.1.755,0,.41.231.589.909.7l1.127.206c1.28.243,1.894.832,1.894,1.792a2.349,2.349,0,0,1-2.611,2.086,4.307,4.307,0,0,1-2.766-.87Z"
         class="cls-5" />
    </g>
  </g>
  <g
     id="g192">
    <rect
       id="rect176"
       height="62.275"
       width="107.509"
       y="27.289"
       x="23.364"
       class="cls-4" />
    <g
       id="g190">
      <path
         id="path178"
         d="M60.21,62.114a4.622,4.622,0,0,1-.025-9.243,4.7,4.7,0,0,1,3.623,1.588l-1.076.985a3.2,3.2,0,0,0-2.547-1.2,3.266,3.266,0,0,0,.038,6.516,2.7,2.7,0,0,0,2.727-2.368H60.274V57.083H64.55v.5A4.334,4.334,0,0,1,60.21,62.114Z"
         class="cls-5" />
      <path
         id="path180"
         d="M66.1,55.559h1.447v1.4a1.9,1.9,0,0,1,1.766-1.511,1.714,1.714,0,0,1,.628.129V56.84a2.05,2.05,0,0,0-.794-.154,1.76,1.76,0,0,0-1.6,1.063v4.225H66.1Z"
         class="cls-5" />
      <path
         id="path182"
         d="M74.063,55.457a3.323,3.323,0,1,1-3.226,3.316A3.2,3.2,0,0,1,74.063,55.457Zm1.793,3.329a1.813,1.813,0,1,0-3.585,0,1.81,1.81,0,1,0,3.585,0Z"
         class="cls-5" />
      <path
         id="path184"
         d="M80.2,59.375a1.381,1.381,0,0,0,1.408,1.536,1.617,1.617,0,0,0,1.408-.794V55.559H84.46v6.415H83.013V60.911a2.345,2.345,0,0,1-2.048,1.165,2.151,2.151,0,0,1-2.215-2.291V55.559H80.2Z"
         class="cls-5" />
      <path
         id="path186"
         d="M86.24,55.559h1.421v.922a2.417,2.417,0,0,1,2-.972,3.28,3.28,0,0,1-.1,6.528,2.4,2.4,0,0,1-1.87-.832v3.482H86.24Zm1.446,1.883v2.675a1.968,1.968,0,0,0,1.537.7,2.053,2.053,0,0,0,0-4.1A1.883,1.883,0,0,0,87.686,57.442Z"
         class="cls-5" />
      <path
         id="path188"
         d="M94.165,60.258a3.7,3.7,0,0,0,2.061.73c.768,0,1.293-.346,1.293-.858,0-.4-.269-.614-.883-.73L95.5,59.208c-1.242-.23-1.857-.806-1.857-1.766,0-1.2.986-1.985,2.484-1.985a4.52,4.52,0,0,1,2.522.768l-.679.948a3.5,3.5,0,0,0-1.933-.615c-.665,0-1.1.282-1.1.755,0,.41.231.589.909.7l1.127.206c1.28.243,1.894.832,1.894,1.792A2.349,2.349,0,0,1,96.252,62.1a4.307,4.307,0,0,1-2.766-.87Z"
         class="cls-5" />
    </g>
  </g>
  <g
     id="g208">
    <rect
       id="rect194"
       height="62.275"
       width="107.509"
       y="303.156"
       x="23.364"
       class="cls-4" />
    <g
       id="g206">
      <path
         id="path196"
         d="M64.8,337.968c-2.3,0-3.764-1.524-3.764-3.969v-5.121h1.536V334c0,1.575.884,2.586,2.241,2.586s2.227-1.011,2.227-2.586v-5.121h1.536V334A3.622,3.622,0,0,1,64.8,337.968Z"
         class="cls-5" />
      <path
         id="path198"
         d="M70.467,336.124a3.7,3.7,0,0,0,2.061.73c.768,0,1.293-.346,1.293-.858,0-.4-.269-.614-.884-.729l-1.139-.192c-1.241-.231-1.856-.807-1.856-1.767,0-1.2.986-1.984,2.484-1.984a4.514,4.514,0,0,1,2.522.768l-.679.947a3.51,3.51,0,0,0-1.933-.615c-.666,0-1.1.282-1.1.756,0,.409.23.588.909.7l1.126.2c1.281.243,1.9.832,1.9,1.792a2.35,2.35,0,0,1-2.611,2.087,4.3,4.3,0,0,1-2.766-.871Z"
         class="cls-5" />
      <path
         id="path200"
         d="M79.467,337.968a3.261,3.261,0,0,1-3.264-3.329,3.158,3.158,0,0,1,3.124-3.315,3.078,3.078,0,0,1,3.034,3.3v.359H77.624a1.96,1.96,0,0,0,1.92,1.754,2.082,2.082,0,0,0,1.523-.6l.948.883A3.71,3.71,0,0,1,79.467,337.968ZM77.649,334.1h3.342a1.757,1.757,0,0,0-1.678-1.6A1.723,1.723,0,0,0,77.649,334.1Z"
         class="cls-5" />
      <path
         id="path202"
         d="M83.833,331.426H85.28v1.4a1.9,1.9,0,0,1,1.767-1.511,1.733,1.733,0,0,1,.627.129v1.267a2.046,2.046,0,0,0-.794-.153,1.759,1.759,0,0,0-1.6,1.062v4.225H83.833Z"
         class="cls-5" />
      <path
         id="path204"
         d="M88.968,336.124a3.7,3.7,0,0,0,2.061.73c.768,0,1.293-.346,1.293-.858,0-.4-.269-.614-.884-.729l-1.139-.192c-1.241-.231-1.856-.807-1.856-1.767,0-1.2.986-1.984,2.484-1.984a4.514,4.514,0,0,1,2.522.768l-.679.947a3.51,3.51,0,0,0-1.933-.615c-.666,0-1.1.282-1.1.756,0,.409.23.588.909.7l1.126.2c1.281.243,1.895.832,1.895,1.792a2.35,2.35,0,0,1-2.611,2.087,4.3,4.3,0,0,1-2.766-.871Z"
         class="cls-5" />
    </g>
  </g>
  <g
     id="g230">
    <rect
       id="rect210"
       height="62.275"
       width="107.509"
       y="165.223"
       x="227.594"
       class="cls-4" />
    <g
       id="g228">
      <path
         id="path212"
         d="M257.386,190.945h4.007a2.78,2.78,0,1,1,0,5.544h-2.471v3.418h-1.536Zm1.536,1.293v3h2.228a1.508,1.508,0,1,0,.013-3Z"
         class="cls-5" />
      <path
         id="path214"
         d="M265.9,193.493h1.447v1.4a1.9,1.9,0,0,1,1.766-1.511,1.739,1.739,0,0,1,.628.129v1.267a2.05,2.05,0,0,0-.794-.153,1.758,1.758,0,0,0-1.6,1.062v4.225H265.9Z"
         class="cls-5" />
      <path
         id="path216"
         d="M273.863,193.391a3.323,3.323,0,1,1-3.226,3.315A3.2,3.2,0,0,1,273.863,193.391Zm1.793,3.328a1.813,1.813,0,1,0-3.585,0,1.81,1.81,0,1,0,3.585,0Z"
         class="cls-5" />
      <path
         id="path218"
         d="M277.359,202.6V201.43a2.011,2.011,0,0,0,.512.051c.5,0,.717-.2.717-.691v-7.3h1.447v7.361a1.69,1.69,0,0,1-1.9,1.83A3.374,3.374,0,0,1,277.359,202.6Zm1.05-11.291a.9.9,0,0,1,1.805,0,.9.9,0,0,1-1.805,0Z"
         class="cls-5" />
      <path
         id="path220"
         d="M284.785,200.035a3.261,3.261,0,0,1-3.265-3.329,3.158,3.158,0,0,1,3.124-3.315,3.078,3.078,0,0,1,3.034,3.3v.359h-4.737a1.96,1.96,0,0,0,1.92,1.754,2.086,2.086,0,0,0,1.524-.6l.947.883A3.709,3.709,0,0,1,284.785,200.035Zm-1.818-3.867h3.341a1.755,1.755,0,0,0-1.677-1.6A1.723,1.723,0,0,0,282.967,196.168Z"
         class="cls-5" />
      <path
         id="path222"
         d="M293.734,198.05l.871.871a3.339,3.339,0,0,1-2.509,1.114,3.317,3.317,0,0,1,0-6.632,3.457,3.457,0,0,1,2.56,1.075l-.9.935a2.122,2.122,0,0,0-1.613-.755,2.057,2.057,0,0,0,.038,4.1A1.969,1.969,0,0,0,293.734,198.05Z"
         class="cls-5" />
      <path
         id="path224"
         d="M296.641,194.645h-1.293v-1.152h1.293v-1.767l1.447-.307v2.074h1.792v1.152h-1.792V197.9c0,.627.243.87.9.87a2.659,2.659,0,0,0,.87-.153v1.216a4.552,4.552,0,0,1-1.241.179c-1.294,0-1.972-.615-1.972-1.792Z"
         class="cls-5" />
      <path
         id="path226"
         d="M301.25,198.191a3.7,3.7,0,0,0,2.061.73c.768,0,1.293-.346,1.293-.858,0-.4-.269-.614-.883-.73l-1.14-.191c-1.241-.231-1.856-.807-1.856-1.767,0-1.2.986-1.984,2.484-1.984a4.512,4.512,0,0,1,2.522.768l-.679.947a3.5,3.5,0,0,0-1.933-.615c-.665,0-1.1.282-1.1.755,0,.41.23.589.909.7l1.127.205c1.28.243,1.894.832,1.894,1.792a2.35,2.35,0,0,1-2.611,2.087,4.308,4.308,0,0,1-2.766-.871Z"
         class="cls-5" />
    </g>
  </g>
  <g
     id="g248">
    <rect
       id="rect232"
       height="62.275"
       width="107.509"
       y="303.156"
       x="227.594"
       class="cls-4" />
    <g
       id="g246">
      <path
         id="path234"
         d="M259.825,328.878h7.528v1.332H264.37v7.63h-1.536v-7.63h-3.009Z"
         class="cls-5" />
      <path
         id="path236"
         d="M271.514,331.324a3.323,3.323,0,1,1-3.226,3.315A3.2,3.2,0,0,1,271.514,331.324Zm1.793,3.328a1.813,1.813,0,1,0-3.585,0,1.81,1.81,0,1,0,3.585,0Z"
         class="cls-5" />
      <path
         id="path238"
         d="M276.239,328.686l1.447-.243v5.722l2.663-2.739H282l-2.931,2.97,3.111,3.444h-1.857l-2.637-2.958v2.958h-1.447Z"
         class="cls-5" />
      <path
         id="path240"
         d="M286.136,337.968a3.261,3.261,0,0,1-3.265-3.329A3.158,3.158,0,0,1,286,331.324a3.078,3.078,0,0,1,3.034,3.3v.359h-4.737a1.96,1.96,0,0,0,1.92,1.754,2.086,2.086,0,0,0,1.524-.6l.948.883A3.713,3.713,0,0,1,286.136,337.968Zm-1.818-3.867h3.341a1.755,1.755,0,0,0-1.677-1.6A1.722,1.722,0,0,0,284.318,334.1Z"
         class="cls-5" />
      <path
         id="path242"
         d="M290.5,331.426h1.447v1.049a2.325,2.325,0,0,1,2.035-1.151,2.158,2.158,0,0,1,2.215,2.291v4.225h-1.447v-3.815a1.381,1.381,0,0,0-1.408-1.536,1.641,1.641,0,0,0-1.395.768v4.583H290.5Z"
         class="cls-5" />
      <path
         id="path244"
         d="M298.056,336.124a3.7,3.7,0,0,0,2.061.73c.768,0,1.293-.346,1.293-.858,0-.4-.268-.614-.883-.729l-1.139-.192c-1.242-.231-1.857-.807-1.857-1.767,0-1.2.986-1.984,2.484-1.984a4.512,4.512,0,0,1,2.522.768l-.679.947a3.508,3.508,0,0,0-1.933-.615c-.665,0-1.1.282-1.1.756,0,.409.231.588.909.7l1.127.2c1.28.243,1.894.832,1.894,1.792a2.35,2.35,0,0,1-2.611,2.087,4.3,4.3,0,0,1-2.766-.871Z"
         class="cls-5" />
    </g>
  </g>
  <g
     id="g264">
    <rect
       id="rect250"
       height="62.275"
       width="107.509"
       y="165.223"
       x="435.545"
       class="cls-4" />
    <g
       id="g262">
      <path
         id="path252"
         d="M473.9,190.945h3.981a2.731,2.731,0,0,1,3,2.714,2.547,2.547,0,0,1-1.766,2.458l1.882,3.79h-1.7l-1.729-3.585h-2.125v3.585H473.9Zm1.536,1.293v2.855h2.317a1.434,1.434,0,1,0,0-2.855Z"
         class="cls-5" />
      <path
         id="path254"
         d="M485.253,193.391a3.323,3.323,0,1,1-3.226,3.315A3.2,3.2,0,0,1,485.253,193.391Zm1.792,3.328a1.813,1.813,0,1,0-3.585,0,1.81,1.81,0,1,0,3.585,0Z"
         class="cls-5" />
      <path
         id="path256"
         d="M491.425,199.907h-1.446v-9.154l1.446-.243Z"
         class="cls-5" />
      <path
         id="path258"
         d="M496.175,200.035a3.26,3.26,0,0,1-3.264-3.329,3.158,3.158,0,0,1,3.124-3.315,3.078,3.078,0,0,1,3.034,3.3v.359h-4.738a1.96,1.96,0,0,0,1.921,1.754,2.086,2.086,0,0,0,1.524-.6l.947.883A3.71,3.71,0,0,1,496.175,200.035Zm-1.817-3.867H497.7a1.756,1.756,0,0,0-1.677-1.6A1.723,1.723,0,0,0,494.358,196.168Z"
         class="cls-5" />
      <path
         id="path260"
         d="M500.644,198.191a3.7,3.7,0,0,0,2.061.73c.768,0,1.292-.346,1.292-.858,0-.4-.268-.614-.882-.73l-1.14-.191c-1.242-.231-1.856-.807-1.856-1.767,0-1.2.985-1.984,2.483-1.984a4.512,4.512,0,0,1,2.522.768l-.678.947a3.505,3.505,0,0,0-1.934-.615c-.665,0-1.1.282-1.1.755,0,.41.23.589.909.7l1.126.205c1.28.243,1.895.832,1.895,1.792a2.35,2.35,0,0,1-2.612,2.087,4.307,4.307,0,0,1-2.765-.871Z"
         class="cls-5" />
    </g>
  </g>
  <g
     id="g282">
    <g
       id="g272">
      <line
         id="line266"
         y2="447.638"
         x2="429.137"
         y1="447.638"
         x1="340.484"
         class="cls-3" />
      <polygon
         id="polygon268"
         points="341.578 451.378 335.102 447.639 341.578 443.899 341.578 451.378" />
      <polygon
         id="polygon270"
         points="428.042 451.378 434.518 447.639 428.042 443.899 428.042 451.378" />
    </g>
    <g
       id="g280">
      <line
         id="line274"
         y2="447.638"
         x2="422.992"
         y1="447.638"
         x1="346.597"
         class="cls-3" />
      <polygon
         id="polygon276"
         points="347.691 451.378 341.215 447.639 347.691 443.899 347.691 451.378" />
      <polygon
         id="polygon278"
         points="421.898 451.378 428.374 447.639 421.898 443.899 421.898 451.378" />
    </g>
  </g>
  <g
     id="g310">
    <rect
       id="rect284"
       height="62.275"
       width="107.509"
       y="416.501"
       x="227.594"
       class="cls-4" />
    <g
       id="g308">
      <path
         id="path286"
         d="M246.548,451.326a4.623,4.623,0,1,1,4.532-4.622A4.536,4.536,0,0,1,246.548,451.326Zm.012-7.873a3.258,3.258,0,0,0,0,6.49,3.26,3.26,0,0,0,0-6.49Z"
         class="cls-5" />
      <path
         id="path288"
         d="M255.946,451.249a2.385,2.385,0,0,1-1.9-.9v.832H252.63v-9.153l1.447-.244v3.841a2.494,2.494,0,0,1,1.971-.909,3.077,3.077,0,0,1,2.906,3.264A3.109,3.109,0,0,1,255.946,451.249Zm-1.869-4.6v2.676a1.965,1.965,0,0,0,1.536.7,2.054,2.054,0,0,0,0-4.1A1.882,1.882,0,0,0,254.077,446.653Z"
         class="cls-5" />
      <path
         id="path290"
         d="M259.224,453.873v-1.165a2,2,0,0,0,.512.052c.5,0,.717-.2.717-.692v-7.3H261.9v7.361a1.69,1.69,0,0,1-1.894,1.831A3.316,3.316,0,0,1,259.224,453.873Zm1.049-11.291a.9.9,0,0,1,1.806,0,.9.9,0,0,1-1.806,0Z"
         class="cls-5" />
      <path
         id="path292"
         d="M266.649,451.313a3.261,3.261,0,0,1-3.264-3.329,3.158,3.158,0,0,1,3.124-3.315,3.077,3.077,0,0,1,3.033,3.3v.358h-4.736a1.96,1.96,0,0,0,1.92,1.754,2.082,2.082,0,0,0,1.523-.6l.948.884A3.713,3.713,0,0,1,266.649,451.313Zm-1.818-3.866h3.342a1.756,1.756,0,0,0-1.677-1.6A1.723,1.723,0,0,0,264.831,447.447Z"
         class="cls-5" />
      <path
         id="path294"
         d="M275.6,449.329l.87.87a3.332,3.332,0,0,1-2.509,1.114,3.316,3.316,0,0,1,0-6.631,3.452,3.452,0,0,1,2.56,1.075l-.9.934a2.119,2.119,0,0,0-1.613-.755,2.058,2.058,0,0,0,.039,4.1A1.974,1.974,0,0,0,275.6,449.329Z"
         class="cls-5" />
      <path
         id="path296"
         d="M278.505,445.923h-1.293v-1.152h1.293V443l1.447-.307v2.074h1.792v1.152h-1.792v3.252c0,.627.243.871.9.871a2.669,2.669,0,0,0,.871-.154v1.216a4.526,4.526,0,0,1-1.242.179c-1.293,0-1.972-.614-1.972-1.792Z"
         class="cls-5" />
      <path
         id="path298"
         d="M285.316,442.224h7.528v1.331h-2.983v7.63h-1.536v-7.63h-3.009Z"
         class="cls-5" />
      <path
         id="path300"
         d="M295.713,451.224l-2.42-6.453h1.614l1.625,4.763,1.793-4.763H299.9l-3.047,7.464a2.168,2.168,0,0,1-2.278,1.69,3.068,3.068,0,0,1-.73-.09v-1.242a5.064,5.064,0,0,0,.563.051,1.022,1.022,0,0,0,1.037-.742Z"
         class="cls-5" />
      <path
         id="path302"
         d="M300.949,444.771h1.422v.922a2.416,2.416,0,0,1,2-.973,3.076,3.076,0,0,1,2.905,3.264,3.109,3.109,0,0,1-3.008,3.265,2.4,2.4,0,0,1-1.869-.832V453.9h-1.447Zm1.447,1.882v2.676a1.966,1.966,0,0,0,1.536.7,2.054,2.054,0,0,0,0-4.1A1.882,1.882,0,0,0,302.4,446.653Z"
         class="cls-5" />
      <path
         id="path304"
         d="M311.743,451.313a3.261,3.261,0,0,1-3.265-3.329,3.159,3.159,0,0,1,3.124-3.315,3.078,3.078,0,0,1,3.034,3.3v.358H309.9a1.958,1.958,0,0,0,1.921,1.754,2.083,2.083,0,0,0,1.523-.6l.947.884A3.711,3.711,0,0,1,311.743,451.313Zm-1.819-3.866h3.342a1.754,1.754,0,0,0-1.677-1.6A1.723,1.723,0,0,0,309.924,447.447Z"
         class="cls-5" />
      <path
         id="path306"
         d="M316.211,449.47a3.7,3.7,0,0,0,2.061.729c.768,0,1.293-.346,1.293-.858,0-.4-.269-.614-.883-.729l-1.14-.192c-1.242-.231-1.856-.807-1.856-1.767,0-1.2.985-1.984,2.483-1.984a4.515,4.515,0,0,1,2.523.768l-.679.947a3.51,3.51,0,0,0-1.933-.615c-.666,0-1.1.282-1.1.756,0,.409.23.589.909.7l1.126.205c1.28.243,1.9.832,1.9,1.792a2.351,2.351,0,0,1-2.613,2.087,4.3,4.3,0,0,1-2.764-.871Z"
         class="cls-5" />
    </g>
  </g>
  <g
     id="g336">
    <rect
       id="rect312"
       height="62.275"
       width="107.509"
       y="416.501"
       x="435.545"
       class="cls-4" />
    <g
       id="g334">
      <path
         id="path314"
         d="M460.8,451.326a4.623,4.623,0,1,1,4.532-4.622A4.536,4.536,0,0,1,460.8,451.326Zm.014-7.873a3.258,3.258,0,0,0,0,6.49,3.26,3.26,0,0,0,0-6.49Z"
         class="cls-5" />
      <path
         id="path316"
         d="M466.887,444.771h1.421v.922a2.418,2.418,0,0,1,2-.973,3.077,3.077,0,0,1,2.906,3.264,3.109,3.109,0,0,1-3.008,3.265,2.4,2.4,0,0,1-1.87-.832V453.9h-1.446Zm1.446,1.882v2.676a1.968,1.968,0,0,0,1.537.7,2.054,2.054,0,0,0,0-4.1A1.883,1.883,0,0,0,468.333,446.653Z"
         class="cls-5" />
      <path
         id="path318"
         d="M477.679,451.313a3.261,3.261,0,0,1-3.265-3.329,3.159,3.159,0,0,1,3.125-3.315,3.079,3.079,0,0,1,3.034,3.3v.358h-4.738a1.96,1.96,0,0,0,1.921,1.754,2.086,2.086,0,0,0,1.524-.6l.947.884A3.713,3.713,0,0,1,477.679,451.313Zm-1.817-3.866H479.2a1.755,1.755,0,0,0-1.677-1.6A1.721,1.721,0,0,0,475.862,447.447Z"
         class="cls-5" />
      <path
         id="path320"
         d="M482.046,444.771h1.447v1.395a1.9,1.9,0,0,1,1.766-1.51,1.708,1.708,0,0,1,.627.128v1.267a2.038,2.038,0,0,0-.793-.153,1.759,1.759,0,0,0-1.6,1.062v4.225h-1.447Z"
         class="cls-5" />
      <path
         id="path322"
         d="M486.757,449.341c0-1.152.935-1.882,2.446-1.882a3.977,3.977,0,0,1,1.728.4v-.7c0-.844-.487-1.28-1.473-1.28a4.443,4.443,0,0,0-1.869.5l-.511-1.049a6.14,6.14,0,0,1,2.662-.653c1.665,0,2.625.845,2.625,2.329v4.187h-1.434v-.653a2.677,2.677,0,0,1-1.908.755A2.022,2.022,0,0,1,486.757,449.341Zm2.663.935a2.283,2.283,0,0,0,1.511-.525V448.7a3.316,3.316,0,0,0-1.485-.308c-.82,0-1.331.358-1.331.922C488.115,449.905,488.626,450.276,489.42,450.276Z"
         class="cls-5" />
      <path
         id="path324"
         d="M494.913,445.923H493.62v-1.152h1.293V443l1.447-.307v2.074h1.792v1.152H496.36v3.252c0,.627.243.871.895.871a2.66,2.66,0,0,0,.871-.154v1.216a4.515,4.515,0,0,1-1.242.179c-1.293,0-1.971-.614-1.971-1.792Z"
         class="cls-5" />
      <path
         id="path326"
         d="M499.241,442.582a.9.9,0,0,1,1.805,0,.9.9,0,0,1-1.805,0Zm1.626,8.6H499.42v-6.414h1.447Z"
         class="cls-5" />
      <path
         id="path328"
         d="M505.579,444.669a3.323,3.323,0,1,1-3.227,3.315A3.2,3.2,0,0,1,505.579,444.669ZM507.371,448a1.813,1.813,0,1,0-3.585,0,1.81,1.81,0,1,0,3.585,0Z"
         class="cls-5" />
      <path
         id="path330"
         d="M510.3,444.771h1.446v1.05a2.327,2.327,0,0,1,2.036-1.152A2.157,2.157,0,0,1,516,446.96v4.225h-1.446V447.37a1.381,1.381,0,0,0-1.408-1.536,1.644,1.644,0,0,0-1.4.768v4.583H510.3Z"
         class="cls-5" />
      <path
         id="path332"
         d="M517.857,449.47a3.693,3.693,0,0,0,2.06.729c.769,0,1.293-.346,1.293-.858,0-.4-.268-.614-.882-.729l-1.14-.192c-1.242-.231-1.857-.807-1.857-1.767,0-1.2.986-1.984,2.484-1.984a4.512,4.512,0,0,1,2.522.768l-.678.947a3.513,3.513,0,0,0-1.934-.615c-.665,0-1.1.282-1.1.756,0,.409.231.589.91.7l1.126.205c1.28.243,1.895.832,1.895,1.792a2.35,2.35,0,0,1-2.612,2.087,4.3,4.3,0,0,1-2.765-.871Z"
         class="cls-5" />
    </g>
  </g>
  <g
     id="g396">
    <g
       id="g354">
      <g
         id="g344">
        <line
           id="line338"
           y2="297.774"
           x2="77.118"
           y1="94.946"
           x1="77.118"
           class="cls-3" />
        <polygon
           id="polygon340"
           points="73.379 96.04 77.118 89.564 80.857 96.04 73.379 96.04" />
        <polygon
           id="polygon342"
           points="73.379 296.68 77.118 303.156 80.857 296.68 73.379 296.68" />
      </g>
      <g
         id="g352">
        <line
           id="line346"
           y2="291.774"
           x2="77.118"
           y1="100.946"
           x1="77.118"
           class="cls-3" />
        <polygon
           id="polygon348"
           points="73.379 102.04 77.118 95.564 80.857 102.04 73.379 102.04" />
        <polygon
           id="polygon350"
           points="73.379 290.68 77.118 297.156 80.857 290.68 73.379 290.68" />
      </g>
    </g>
    <g
       id="g394">
      <path
         id="path356"
         d="M14.9,192.206c-2.171,0-3.362-1.533-2.89-3.7L13,183.82h.9l-1.014,4.73c-.354,1.651.495,2.819,2.052,2.819,1.4,0,2.454-1.026,2.819-2.748l1.026-4.8h.9l-1.038,4.836C18.152,190.944,16.808,192.206,14.9,192.206Z"
         class="cls-5" />
      <path
         id="path358"
         d="M19.7,190.567a2.578,2.578,0,0,0,1.958.92c.873,0,1.522-.46,1.522-1.085,0-.437-.283-.684-.955-.838l-.968-.224c-1-.224-1.462-.7-1.462-1.486,0-1.073.861-1.781,2.158-1.781a3.467,3.467,0,0,1,2.371.932l-.519.566a2.913,2.913,0,0,0-1.9-.8c-.8,0-1.333.413-1.333,1.014,0,.437.259.672.944.826l.967.224c1.038.236,1.51.707,1.51,1.486a2.109,2.109,0,0,1-2.359,1.876,3.324,3.324,0,0,1-2.5-1.1Z"
         class="cls-5" />
      <path
         id="path360"
         d="M27.759,192.183a2.712,2.712,0,0,1-2.855-2.772,3.246,3.246,0,0,1,3.1-3.338,2.592,2.592,0,0,1,2.512,2.783,4.775,4.775,0,0,1-.023.531H25.753a2.005,2.005,0,0,0,2.041,2.041,2.816,2.816,0,0,0,1.592-.484l.448.6A3.479,3.479,0,0,1,27.759,192.183Zm-1.923-3.492h3.869a1.833,1.833,0,0,0-1.781-1.851A2.256,2.256,0,0,0,25.836,188.691Z"
         class="cls-5" />
      <path
         id="path362"
         d="M32.326,186.167h.838l-.154.744a2.153,2.153,0,0,1,1.7-.874,1.89,1.89,0,0,1,.625.106l-.165.8a1.663,1.663,0,0,0-.672-.13,2.015,2.015,0,0,0-1.711,1.132l-.872,4.129h-.85Z"
         class="cls-5" />
      <path
         id="path364"
         d="M42.083,192.206a3.82,3.82,0,0,1-3.869-3.9,4.611,4.611,0,0,1,4.506-4.6A3.976,3.976,0,0,1,46,185.259l-.7.59a3.214,3.214,0,0,0-2.642-1.31,3.645,3.645,0,0,0-3.551,3.74,2.987,2.987,0,0,0,3.032,3.09,3.308,3.308,0,0,0,3.208-2.808h-2.9l.129-.8h3.81l-.106.613A4.353,4.353,0,0,1,42.083,192.206Z"
         class="cls-5" />
      <path
         id="path366"
         d="M47.984,186.167h.838l-.154.744a2.153,2.153,0,0,1,1.7-.874,1.885,1.885,0,0,1,.625.106l-.165.8a1.656,1.656,0,0,0-.672-.13,2.016,2.016,0,0,0-1.711,1.132l-.872,4.129h-.85Z"
         class="cls-5" />
      <path
         id="path368"
         d="M54.249,186.049A2.716,2.716,0,0,1,57,188.868a3.294,3.294,0,0,1-3.172,3.327,2.71,2.71,0,0,1-2.749-2.82A3.294,3.294,0,0,1,54.249,186.049Zm1.911,2.866a1.976,1.976,0,0,0-1.946-2.087,2.435,2.435,0,0,0-2.3,2.5,1.969,1.969,0,0,0,1.946,2.087A2.436,2.436,0,0,0,56.16,188.915Z"
         class="cls-5" />
      <path
         id="path370"
         d="M58.9,189.623c-.235,1.085.3,1.805,1.309,1.805a2.145,2.145,0,0,0,1.7-.849l.944-4.412H63.7l-1.262,5.91h-.849l.129-.59a2.628,2.628,0,0,1-1.781.7,1.882,1.882,0,0,1-1.911-2.465l.755-3.551h.85Z"
         class="cls-5" />
      <path
         id="path372"
         d="M65.188,186.167h.85l-.095.425a2.918,2.918,0,0,1,1.628-.507,2.59,2.59,0,0,1,2.607,2.713,3.32,3.32,0,0,1-3.244,3.385,2.592,2.592,0,0,1-1.993-.861l-.673,3.173h-.849Zm.579,1.309-.638,2.973a2.007,2.007,0,0,0,1.782.955,2.473,2.473,0,0,0,2.429-2.536,1.909,1.909,0,0,0-1.946-2.017A2.4,2.4,0,0,0,65.767,187.476Z"
         class="cls-5" />
      <path
         id="path374"
         d="M25.952,203.135l.471.625a4.845,4.845,0,0,1-3.2,1.25,3.821,3.821,0,0,1-3.916-3.892,4.58,4.58,0,0,1,4.506-4.6,3.857,3.857,0,0,1,3.208,1.475l-.673.613a3.065,3.065,0,0,0-2.583-1.262,3.621,3.621,0,0,0-3.55,3.739,3,3,0,0,0,3.067,3.1A3.969,3.969,0,0,0,25.952,203.135Z"
         class="cls-5" />
      <path
         id="path376"
         d="M30.555,198.853a2.717,2.717,0,0,1,2.749,2.819A3.3,3.3,0,0,1,30.13,205a2.71,2.71,0,0,1-2.748-2.819A3.293,3.293,0,0,1,30.555,198.853Zm1.911,2.866a1.977,1.977,0,0,0-1.946-2.088,2.436,2.436,0,0,0-2.3,2.5,1.969,1.969,0,0,0,1.946,2.088A2.436,2.436,0,0,0,32.466,201.719Z"
         class="cls-5" />
      <path
         id="path378"
         d="M34.745,204.88H33.9l1.757-8.256.885-.2Z"
         class="cls-5" />
      <path
         id="path380"
         d="M37.081,204.88h-.849l1.758-8.256.884-.2Z"
         class="cls-5" />
      <path
         id="path382"
         d="M41.753,204.986a2.711,2.711,0,0,1-2.854-2.771,3.247,3.247,0,0,1,3.1-3.339,2.593,2.593,0,0,1,2.512,2.784,4.784,4.784,0,0,1-.023.531H39.748a2,2,0,0,0,2.041,2.04,2.816,2.816,0,0,0,1.592-.483l.448.6A3.479,3.479,0,0,1,41.753,204.986ZM39.83,201.5H43.7a1.835,1.835,0,0,0-1.782-1.852A2.257,2.257,0,0,0,39.83,201.5Z"
         class="cls-5" />
      <path
         id="path384"
         d="M49.812,203.583l.413.613a3.53,3.53,0,0,1-2.194.79,2.584,2.584,0,0,1-2.642-2.689,3.388,3.388,0,0,1,3.279-3.421A2.869,2.869,0,0,1,50.921,200l-.625.578a2.04,2.04,0,0,0-1.687-.908,2.534,2.534,0,0,0-2.371,2.595,1.9,1.9,0,0,0,1.9,1.958A2.805,2.805,0,0,0,49.812,203.583Z"
         class="cls-5" />
      <path
         id="path386"
         d="M52.787,199.714h-1.25l.165-.743H52.94l.319-1.5.908-.224-.366,1.722h1.722l-.165.743H53.636l-.767,3.574c-.141.684.095.943.873.943a2.32,2.32,0,0,0,.684-.117l-.153.766a3.431,3.431,0,0,1-.861.106c-1.109,0-1.628-.542-1.415-1.51Z"
         class="cls-5" />
      <path
         id="path388"
         d="M56.056,204.88h-.85l1.25-5.909h.85Zm.6-7.572a.671.671,0,0,1,.649-.649.509.509,0,0,1,.519.519.674.674,0,0,1-.649.661A.519.519,0,0,1,56.657,197.308Z"
         class="cls-5" />
      <path
         id="path390"
         d="M61.058,198.853a2.717,2.717,0,0,1,2.748,2.819A3.294,3.294,0,0,1,60.633,205a2.71,2.71,0,0,1-2.748-2.819A3.292,3.292,0,0,1,61.058,198.853Zm1.91,2.866a1.976,1.976,0,0,0-1.946-2.088,2.437,2.437,0,0,0-2.3,2.5,1.97,1.97,0,0,0,1.946,2.088A2.435,2.435,0,0,0,62.968,201.719Z"
         class="cls-5" />
      <path
         id="path392"
         d="M65.649,198.971H66.5l-.129.59a2.63,2.63,0,0,1,1.792-.7,1.87,1.87,0,0,1,1.9,2.453l-.754,3.562h-.85l.731-3.456c.236-1.085-.283-1.8-1.309-1.8a2.186,2.186,0,0,0-1.687.825l-.943,4.435H64.4Z"
         class="cls-5" />
    </g>
  </g>
  <g
     id="g450">
    <g
       id="g414">
      <g
         id="g404">
        <line
           id="line398"
           y2="159.841"
           x2="281.348"
           y1="94.946"
           x1="281.348"
           class="cls-3" />
        <polygon
           id="polygon400"
           points="277.608 96.04 281.347 89.564 285.087 96.04 277.608 96.04" />
        <polygon
           id="polygon402"
           points="277.608 158.747 281.347 165.223 285.087 158.747 277.608 158.747" />
      </g>
      <g
         id="g412">
        <line
           id="line406"
           y2="153.841"
           x2="281.348"
           y1="94.946"
           x1="281.348"
           class="cls-3" />
        <polygon
           id="polygon408"
           points="277.608 96.04 281.347 89.564 285.087 96.04 277.608 96.04" />
        <polygon
           id="polygon410"
           points="277.608 152.747 281.347 159.223 285.087 152.747 277.608 152.747" />
      </g>
    </g>
    <g
       id="g448">
      <path
         id="path416"
         d="M290.361,107.877h3.267a2.072,2.072,0,0,1,2.359,2.064,2.732,2.732,0,0,1-2.925,2.713h-2.831l-.743,3.479H288.6Zm.707.813-.672,3.173h2.654a1.88,1.88,0,0,0,2.052-1.851c0-.826-.6-1.322-1.6-1.322Z"
         class="cls-5" />
      <path
         id="path418"
         d="M297.181,110.224h.837l-.153.743a2.152,2.152,0,0,1,1.7-.873,1.89,1.89,0,0,1,.625.106l-.165.8a1.682,1.682,0,0,0-.673-.13,2.016,2.016,0,0,0-1.71,1.133l-.873,4.128h-.849Z"
         class="cls-5" />
      <path
         id="path420"
         d="M303.446,110.106a2.716,2.716,0,0,1,2.748,2.819,3.294,3.294,0,0,1-3.173,3.326,2.71,2.71,0,0,1-2.748-2.819A3.293,3.293,0,0,1,303.446,110.106Zm1.91,2.866a1.976,1.976,0,0,0-1.945-2.088,2.437,2.437,0,0,0-2.3,2.5,1.97,1.97,0,0,0,1.947,2.088A2.435,2.435,0,0,0,305.356,112.972Z"
         class="cls-5" />
      <path
         id="path422"
         d="M305.112,118.48l.153-.731a1.476,1.476,0,0,0,.5.071c.471,0,.707-.224.825-.767l1.451-6.829h.849l-1.474,6.936a1.628,1.628,0,0,1-1.687,1.415A2.149,2.149,0,0,1,305.112,118.48Zm3.126-9.919a.67.67,0,0,1,.648-.649.509.509,0,0,1,.52.519.674.674,0,0,1-.65.661A.519.519,0,0,1,308.238,108.561Z"
         class="cls-5" />
      <path
         id="path424"
         d="M312.308,116.239a2.711,2.711,0,0,1-2.854-2.771,3.246,3.246,0,0,1,3.1-3.339,2.593,2.593,0,0,1,2.512,2.784,4.586,4.586,0,0,1-.024.531H310.3a2,2,0,0,0,2.04,2.04,2.821,2.821,0,0,0,1.593-.483l.448.6A3.475,3.475,0,0,1,312.308,116.239Zm-1.923-3.491h3.869a1.834,1.834,0,0,0-1.781-1.852A2.256,2.256,0,0,0,310.385,112.748Z"
         class="cls-5" />
      <path
         id="path426"
         d="M320.367,114.836l.413.613a3.535,3.535,0,0,1-2.195.79,2.584,2.584,0,0,1-2.641-2.689,3.388,3.388,0,0,1,3.279-3.421,2.867,2.867,0,0,1,2.252,1.121l-.625.578a2.037,2.037,0,0,0-1.686-.908,2.534,2.534,0,0,0-2.372,2.595,1.905,1.905,0,0,0,1.9,1.958A2.816,2.816,0,0,0,320.367,114.836Z"
         class="cls-5" />
      <path
         id="path428"
         d="M323.341,110.967H322.09l.165-.743h1.24l.318-1.5.908-.224-.366,1.722h1.723l-.165.743H324.19l-.767,3.574c-.141.684.095.943.873.943a2.331,2.331,0,0,0,.685-.117l-.154.766a3.431,3.431,0,0,1-.861.106c-1.109,0-1.628-.542-1.416-1.51Z"
         class="cls-5" />
      <path
         id="path430"
         d="M292.955,129.067a3.816,3.816,0,0,1-3.88-3.905,4.585,4.585,0,0,1,4.482-4.611,3.815,3.815,0,0,1,3.88,3.9A4.585,4.585,0,0,1,292.955,129.067Zm.543-7.679a3.651,3.651,0,0,0-3.526,3.727,3.008,3.008,0,0,0,3.043,3.114,3.651,3.651,0,0,0,3.526-3.727A3.009,3.009,0,0,0,293.5,121.388Z"
         class="cls-5" />
      <path
         id="path432"
         d="M298.893,128.937l-.39-5.909h.814l.248,4.718,2.441-4.718h.767l.436,4.718,2.253-4.718h.838l-2.878,5.909h-.838l-.424-4.73-2.454,4.73Z"
         class="cls-5" />
      <path
         id="path434"
         d="M307.211,123.028h.849l-.129.59a2.631,2.631,0,0,1,1.792-.7,1.871,1.871,0,0,1,1.9,2.454l-.754,3.562h-.85l.731-3.456c.237-1.085-.283-1.8-1.309-1.8a2.187,2.187,0,0,0-1.687.826l-.943,4.435h-.849Z"
         class="cls-5" />
      <path
         id="path436"
         d="M315.505,129.043a2.711,2.711,0,0,1-2.854-2.772,3.246,3.246,0,0,1,3.1-3.338,2.592,2.592,0,0,1,2.512,2.784,4.767,4.767,0,0,1-.023.53H313.5a2,2,0,0,0,2.04,2.041,2.824,2.824,0,0,0,1.593-.483l.448.6A3.482,3.482,0,0,1,315.505,129.043Zm-1.923-3.491h3.87a1.835,1.835,0,0,0-1.782-1.852A2.256,2.256,0,0,0,313.582,125.552Z"
         class="cls-5" />
      <path
         id="path438"
         d="M320.073,123.028h.838l-.154.743a2.148,2.148,0,0,1,1.7-.873,1.859,1.859,0,0,1,.625.106l-.165.8a1.673,1.673,0,0,0-.672-.13,2.015,2.015,0,0,0-1.71,1.132l-.873,4.129h-.849Z"
         class="cls-5" />
      <path
         id="path440"
         d="M323.118,127.427a2.572,2.572,0,0,0,1.958.92c.872,0,1.521-.46,1.521-1.085,0-.436-.283-.684-.956-.837l-.967-.224c-1-.225-1.463-.7-1.463-1.487,0-1.073.862-1.781,2.16-1.781a3.466,3.466,0,0,1,2.37.932l-.519.566a2.913,2.913,0,0,0-1.9-.8c-.8,0-1.332.413-1.332,1.014,0,.437.258.673.943.826l.967.224c1.038.236,1.51.708,1.51,1.487a2.108,2.108,0,0,1-2.359,1.875,3.326,3.326,0,0,1-2.5-1.1Z"
         class="cls-5" />
      <path
         id="path442"
         d="M329.748,120.681l.885-.2-.66,3.138a2.581,2.581,0,0,1,1.781-.7,1.871,1.871,0,0,1,1.9,2.454l-.755,3.562h-.849l.731-3.456c.236-1.085-.283-1.8-1.309-1.8a2.185,2.185,0,0,0-1.686.826l-.945,4.435h-.848Z"
         class="cls-5" />
      <path
         id="path444"
         d="M335.2,128.937h-.849l1.25-5.909h.85Zm.6-7.572a.671.671,0,0,1,.65-.649.508.508,0,0,1,.518.519.672.672,0,0,1-.648.66A.519.519,0,0,1,335.8,121.365Z"
         class="cls-5" />
      <path
         id="path446"
         d="M337.938,123.028h.85l-.1.424a2.916,2.916,0,0,1,1.628-.507,2.589,2.589,0,0,1,2.606,2.713,3.319,3.319,0,0,1-3.243,3.385,2.594,2.594,0,0,1-1.994-.861l-.672,3.173h-.85Zm.578,1.309-.637,2.972a2.006,2.006,0,0,0,1.781.956,2.474,2.474,0,0,0,2.43-2.537,1.908,1.908,0,0,0-1.946-2.016A2.4,2.4,0,0,0,338.516,124.337Z"
         class="cls-5" />
    </g>
  </g>
  <g
     id="g512">
    <g
       id="g468">
      <g
         id="g458">
        <line
           id="line452"
           y2="386.694"
           x2="489.3"
           y1="232.879"
           x1="489.3"
           class="cls-3" />
        <polygon
           id="polygon454"
           points="485.56 233.974 489.299 227.497 493.039 233.974 485.56 233.974" />
        <polygon
           id="polygon456"
           points="485.56 385.6 489.299 392.076 493.039 385.6 485.56 385.6" />
      </g>
      <g
         id="g466">
        <line
           id="line460"
           y2="380.496"
           x2="489.3"
           y1="239.083"
           x1="489.3"
           class="cls-3" />
        <polygon
           id="polygon462"
           points="485.56 240.177 489.299 233.701 493.039 240.177 485.56 240.177" />
        <polygon
           id="polygon464"
           points="485.56 379.402 489.299 385.878 493.039 379.402 485.56 379.402" />
      </g>
    </g>
    <g
       id="g510">
      <path
         id="path470"
         d="M499.818,298.492h3.267a2.072,2.072,0,0,1,2.36,2.064,2.733,2.733,0,0,1-2.926,2.713h-2.831l-.742,3.479h-.885Zm.708.814-.672,3.172h2.653a1.881,1.881,0,0,0,2.053-1.851c0-.826-.6-1.321-1.605-1.321Z"
         class="cls-5" />
      <path
         id="path472"
         d="M508.585,306.854a2.71,2.71,0,0,1-2.854-2.771,3.245,3.245,0,0,1,3.1-3.338,2.592,2.592,0,0,1,2.512,2.783,4.784,4.784,0,0,1-.023.531H506.58a2,2,0,0,0,2.041,2.041,2.816,2.816,0,0,0,1.592-.484l.449.6A3.486,3.486,0,0,1,508.585,306.854Zm-1.922-3.491h3.869a1.835,1.835,0,0,0-1.782-1.851A2.255,2.255,0,0,0,506.663,303.363Z"
         class="cls-5" />
      <path
         id="path474"
         d="M513.152,300.839h.838l-.154.743a2.152,2.152,0,0,1,1.7-.873,1.894,1.894,0,0,1,.625.106l-.165.8a1.661,1.661,0,0,0-.673-.13,2.015,2.015,0,0,0-1.71,1.132l-.873,4.128h-.849Z"
         class="cls-5" />
      <path
         id="path476"
         d="M517.152,300.839H518l-.129.614a2.426,2.426,0,0,1,1.721-.72,1.69,1.69,0,0,1,1.687,1.12,2.767,2.767,0,0,1,2.135-1.12,1.765,1.765,0,0,1,1.734,2.371l-.767,3.644h-.849l.766-3.586c.2-.978-.27-1.674-1.167-1.674a2.243,2.243,0,0,0-1.734,1,2.847,2.847,0,0,1-.059.613l-.778,3.644h-.85l.744-3.5c.235-1.039-.237-1.758-1.157-1.758a2.13,2.13,0,0,0-1.615.849l-.933,4.411H515.9Z"
         class="cls-5" />
      <path
         id="path478"
         d="M526.686,306.748h-.849l1.25-5.909h.85Zm.6-7.572a.671.671,0,0,1,.649-.649.508.508,0,0,1,.518.519.673.673,0,0,1-.648.661A.519.519,0,0,1,527.288,299.176Z"
         class="cls-5" />
      <path
         id="path480"
         d="M528.469,305.239a2.577,2.577,0,0,0,1.958.92c.872,0,1.522-.46,1.522-1.085,0-.437-.284-.684-.956-.838l-.967-.224c-1-.224-1.463-.7-1.463-1.486,0-1.073.861-1.781,2.159-1.781a3.464,3.464,0,0,1,2.37.932l-.518.566a2.914,2.914,0,0,0-1.9-.8c-.8,0-1.332.412-1.332,1.014,0,.437.259.672.944.826l.966.224c1.038.236,1.51.707,1.51,1.486a2.109,2.109,0,0,1-2.358,1.876,3.322,3.322,0,0,1-2.5-1.1Z"
         class="cls-5" />
      <path
         id="path482"
         d="M533.637,305.239a2.577,2.577,0,0,0,1.958.92c.872,0,1.522-.46,1.522-1.085,0-.437-.284-.684-.956-.838l-.967-.224c-1-.224-1.463-.7-1.463-1.486,0-1.073.861-1.781,2.159-1.781a3.464,3.464,0,0,1,2.37.932l-.518.566a2.914,2.914,0,0,0-1.9-.8c-.8,0-1.332.412-1.332,1.014,0,.437.259.672.944.826l.966.224c1.038.236,1.51.707,1.51,1.486a2.109,2.109,0,0,1-2.358,1.876,3.322,3.322,0,0,1-2.5-1.1Z"
         class="cls-5" />
      <path
         id="path484"
         d="M539.359,306.748h-.849l1.25-5.909h.85Zm.6-7.572a.671.671,0,0,1,.65-.649.508.508,0,0,1,.518.519.673.673,0,0,1-.648.661A.52.52,0,0,1,539.96,299.176Z"
         class="cls-5" />
      <path
         id="path486"
         d="M544.362,300.721a2.717,2.717,0,0,1,2.748,2.819,3.293,3.293,0,0,1-3.173,3.327,2.711,2.711,0,0,1-2.748-2.82A3.294,3.294,0,0,1,544.362,300.721Zm1.911,2.866a1.977,1.977,0,0,0-1.946-2.088,2.437,2.437,0,0,0-2.3,2.5,1.969,1.969,0,0,0,1.945,2.088A2.436,2.436,0,0,0,546.273,303.587Z"
         class="cls-5" />
      <path
         id="path488"
         d="M548.953,300.839h.849l-.13.59a2.635,2.635,0,0,1,1.793-.7,1.87,1.87,0,0,1,1.9,2.453l-.755,3.562h-.849l.731-3.456c.236-1.085-.283-1.8-1.309-1.8a2.187,2.187,0,0,0-1.686.825l-.945,4.435H547.7Z"
         class="cls-5" />
      <path
         id="path490"
         d="M502.3,311.3h1.085l1.605,8.256h-.921l-.484-2.6h-3.8l-1.569,2.6h-.991Zm1.144,4.883-.755-4.022-2.43,4.022Z"
         class="cls-5" />
      <path
         id="path492"
         d="M506.073,318.042a2.573,2.573,0,0,0,1.958.92c.872,0,1.521-.46,1.521-1.085,0-.436-.283-.684-.956-.837l-.967-.224c-1-.224-1.463-.7-1.463-1.487,0-1.073.862-1.781,2.16-1.781a3.466,3.466,0,0,1,2.37.932l-.519.566a2.912,2.912,0,0,0-1.9-.8c-.8,0-1.332.412-1.332,1.014,0,.436.259.672.943.825l.967.224c1.038.236,1.51.708,1.51,1.487a2.108,2.108,0,0,1-2.359,1.875,3.322,3.322,0,0,1-2.5-1.1Z"
         class="cls-5" />
      <path
         id="path494"
         d="M511.242,318.042a2.572,2.572,0,0,0,1.958.92c.872,0,1.521-.46,1.521-1.085,0-.436-.283-.684-.956-.837l-.967-.224c-1-.224-1.463-.7-1.463-1.487,0-1.073.862-1.781,2.16-1.781a3.466,3.466,0,0,1,2.37.932l-.519.566a2.912,2.912,0,0,0-1.9-.8c-.8,0-1.332.412-1.332,1.014,0,.436.258.672.943.825l.967.224c1.038.236,1.51.708,1.51,1.487a2.108,2.108,0,0,1-2.359,1.875,3.322,3.322,0,0,1-2.5-1.1Z"
         class="cls-5" />
      <path
         id="path496"
         d="M516.963,319.552h-.848l1.25-5.909h.849Zm.6-7.572a.671.671,0,0,1,.649-.649.509.509,0,0,1,.519.519.674.674,0,0,1-.649.661A.519.519,0,0,1,517.565,311.98Z"
         class="cls-5" />
      <path
         id="path498"
         d="M518.792,316.933a3.31,3.31,0,0,1,3.245-3.373,2.587,2.587,0,0,1,1.981.838l.165-.755h.849l-1.309,6.3a2.385,2.385,0,0,1-2.5,2.088,4.282,4.282,0,0,1-2.513-.861l.449-.649a3.417,3.417,0,0,0,2.029.744,1.592,1.592,0,0,0,1.686-1.4l.154-.732a2.89,2.89,0,0,1-1.64.508A2.571,2.571,0,0,1,518.792,316.933Zm2.784,1.947a2.411,2.411,0,0,0,1.639-.649l.625-2.961a2.01,2.01,0,0,0-1.78-.943,2.474,2.474,0,0,0-2.43,2.536A1.9,1.9,0,0,0,521.576,318.88Z"
         class="cls-5" />
      <path
         id="path500"
         d="M526.544,313.643h.85l-.13.59a2.631,2.631,0,0,1,1.793-.7,1.87,1.87,0,0,1,1.9,2.453l-.754,3.562h-.849l.73-3.456c.237-1.085-.282-1.805-1.308-1.805a2.187,2.187,0,0,0-1.687.826l-.944,4.435h-.849Z"
         class="cls-5" />
      <path
         id="path502"
         d="M532.905,313.643h.849l-.13.613a2.428,2.428,0,0,1,1.722-.719,1.69,1.69,0,0,1,1.687,1.12,2.764,2.764,0,0,1,2.135-1.12,1.765,1.765,0,0,1,1.734,2.371l-.767,3.644h-.849l.766-3.586c.2-.978-.27-1.675-1.167-1.675a2.246,2.246,0,0,0-1.734,1,2.856,2.856,0,0,1-.059.614l-.778,3.644h-.85l.743-3.5c.237-1.038-.236-1.758-1.156-1.758a2.128,2.128,0,0,0-1.615.85l-.933,4.411h-.848Z"
         class="cls-5" />
      <path
         id="path504"
         d="M544.775,319.658a2.711,2.711,0,0,1-2.855-2.771,3.247,3.247,0,0,1,3.1-3.339,2.593,2.593,0,0,1,2.512,2.784,4.594,4.594,0,0,1-.024.531H542.77a2,2,0,0,0,2.04,2.04,2.829,2.829,0,0,0,1.593-.483l.448.6A3.478,3.478,0,0,1,544.775,319.658Zm-1.923-3.491h3.869a1.835,1.835,0,0,0-1.781-1.852A2.256,2.256,0,0,0,542.852,316.167Z"
         class="cls-5" />
      <path
         id="path506"
         d="M549.354,313.643h.85l-.13.59a2.629,2.629,0,0,1,1.793-.7,1.87,1.87,0,0,1,1.9,2.453l-.755,3.562h-.848l.731-3.456c.235-1.085-.283-1.805-1.31-1.805a2.185,2.185,0,0,0-1.686.826l-.944,4.435H548.1Z"
         class="cls-5" />
      <path
         id="path508"
         d="M556.256,314.386h-1.251l.165-.743h1.24l.318-1.5.908-.224-.366,1.722h1.723l-.165.743h-1.723l-.767,3.574c-.141.684.1.943.873.943a2.331,2.331,0,0,0,.685-.117l-.153.766a3.444,3.444,0,0,1-.862.106c-1.109,0-1.628-.542-1.416-1.51Z"
         class="cls-5" />
    </g>
  </g>
  <g
     id="g560">
    <g
       id="g530">
      <g
         id="g520">
        <polyline
           id="polyline514"
           points="222.212 78.821 172.515 78.821 172.515 313.728 136.505 313.728"
           class="cls-3" />
        <polygon
           id="polygon516"
           points="221.118 75.081 227.594 78.82 221.118 82.56 221.118 75.081" />
        <polygon
           id="polygon518"
           points="137.599 309.989 131.123 313.728 137.599 317.468 137.599 309.989" />
      </g>
      <g
         id="g528">
        <polyline
           id="polyline522"
           points="222.212 78.821 172.515 78.821 172.515 313.728 142.451 313.728"
           class="cls-3" />
        <polygon
           id="polygon524"
           points="221.118 75.081 227.594 78.82 221.118 82.56 221.118 75.081" />
        <polygon
           id="polygon526"
           points="143.545 309.989 137.069 313.728 143.545 317.468 143.545 309.989" />
      </g>
    </g>
    <g
       id="g558">
      <path
         id="path532"
         d="M183.109,95.18c-2.171,0-3.362-1.534-2.89-3.7l.991-4.683h.9l-1.014,4.73c-.354,1.651.495,2.819,2.052,2.819,1.4,0,2.454-1.026,2.819-2.748l1.026-4.8h.9l-1.038,4.836C186.364,93.917,185.019,95.18,183.109,95.18Z"
         class="cls-5" />
      <path
         id="path534"
         d="M187.912,93.54a2.575,2.575,0,0,0,1.958.92c.873,0,1.522-.46,1.522-1.085,0-.437-.283-.684-.956-.838l-.967-.224c-1-.224-1.462-.7-1.462-1.486,0-1.073.861-1.781,2.158-1.781a3.467,3.467,0,0,1,2.371.932l-.519.566a2.913,2.913,0,0,0-1.9-.8c-.8,0-1.333.413-1.333,1.014,0,.437.259.673.944.826l.967.224c1.038.236,1.509.708,1.509,1.486a2.107,2.107,0,0,1-2.358,1.876,3.324,3.324,0,0,1-2.5-1.1Z"
         class="cls-5" />
      <path
         id="path536"
         d="M195.971,95.156a2.712,2.712,0,0,1-2.855-2.772,3.246,3.246,0,0,1,3.1-3.338,2.592,2.592,0,0,1,2.512,2.783,4.775,4.775,0,0,1-.023.531h-4.742a2.005,2.005,0,0,0,2.041,2.041,2.816,2.816,0,0,0,1.592-.484l.448.6A3.479,3.479,0,0,1,195.971,95.156Zm-1.923-3.492h3.869a1.833,1.833,0,0,0-1.781-1.851A2.256,2.256,0,0,0,194.048,91.664Z"
         class="cls-5" />
      <path
         id="path538"
         d="M200.538,89.141h.837l-.153.743a2.152,2.152,0,0,1,1.7-.873,1.864,1.864,0,0,1,.625.106l-.165.8a1.665,1.665,0,0,0-.673-.13A2.015,2.015,0,0,0,201,90.921l-.873,4.129h-.849Z"
         class="cls-5" />
      <path
         id="path540"
         d="M183.97,107.983a3.816,3.816,0,0,1-3.881-3.9,4.586,4.586,0,0,1,4.482-4.612,3.816,3.816,0,0,1,3.881,3.9A4.585,4.585,0,0,1,183.97,107.983Zm.542-7.678a3.651,3.651,0,0,0-3.526,3.727,3.009,3.009,0,0,0,3.043,3.114,3.652,3.652,0,0,0,3.527-3.728A3.009,3.009,0,0,0,184.512,100.305Z"
         class="cls-5" />
      <path
         id="path542"
         d="M189.907,107.853l-.39-5.909h.814l.248,4.718,2.441-4.718h.767l.437,4.718,2.252-4.718h.838l-2.878,5.909H193.6l-.425-4.73-2.454,4.73Z"
         class="cls-5" />
      <path
         id="path544"
         d="M198.225,101.944h.849l-.129.59a2.635,2.635,0,0,1,1.792-.7,1.871,1.871,0,0,1,1.9,2.453l-.755,3.562h-.85l.732-3.456c.235-1.085-.284-1.8-1.309-1.8a2.188,2.188,0,0,0-1.687.825l-.944,4.435h-.849Z"
         class="cls-5" />
      <path
         id="path546"
         d="M206.52,107.959a2.711,2.711,0,0,1-2.855-2.771,3.246,3.246,0,0,1,3.1-3.338,2.593,2.593,0,0,1,2.512,2.783,4.586,4.586,0,0,1-.024.531h-4.741a2,2,0,0,0,2.04,2.04,2.816,2.816,0,0,0,1.592-.483l.449.6A3.481,3.481,0,0,1,206.52,107.959Zm-1.923-3.491h3.869a1.833,1.833,0,0,0-1.781-1.851A2.256,2.256,0,0,0,204.6,104.468Z"
         class="cls-5" />
      <path
         id="path548"
         d="M211.087,101.944h.837l-.153.743a2.153,2.153,0,0,1,1.7-.873,1.89,1.89,0,0,1,.625.106l-.165.8a1.665,1.665,0,0,0-.673-.13,2.015,2.015,0,0,0-1.71,1.132l-.873,4.128h-.849Z"
         class="cls-5" />
      <path
         id="path550"
         d="M214.131,106.344a2.581,2.581,0,0,0,1.958.92c.873,0,1.522-.46,1.522-1.085,0-.437-.283-.684-.955-.838l-.968-.224c-1-.224-1.462-.7-1.462-1.486,0-1.073.861-1.781,2.158-1.781a3.467,3.467,0,0,1,2.371.932l-.519.566a2.913,2.913,0,0,0-1.9-.8c-.8,0-1.333.412-1.333,1.014,0,.436.26.672.944.826l.967.224c1.038.236,1.51.707,1.51,1.486a2.108,2.108,0,0,1-2.359,1.876,3.325,3.325,0,0,1-2.5-1.1Z"
         class="cls-5" />
      <path
         id="path552"
         d="M220.763,99.6l.884-.2-.66,3.138a2.585,2.585,0,0,1,1.781-.7,1.871,1.871,0,0,1,1.9,2.453l-.755,3.562h-.85l.732-3.456c.236-1.085-.283-1.8-1.309-1.8a2.188,2.188,0,0,0-1.687.825l-.944,4.435h-.849Z"
         class="cls-5" />
      <path
         id="path554"
         d="M226.214,107.853h-.849l1.25-5.909h.849Zm.6-7.572a.67.67,0,0,1,.648-.649.509.509,0,0,1,.519.519.673.673,0,0,1-.648.661A.519.519,0,0,1,226.816,100.281Z"
         class="cls-5" />
      <path
         id="path556"
         d="M228.952,101.944h.849l-.095.425a2.911,2.911,0,0,1,1.628-.507,2.59,2.59,0,0,1,2.607,2.713,3.319,3.319,0,0,1-3.244,3.384,2.591,2.591,0,0,1-1.993-.86l-.672,3.172h-.849Zm.578,1.309-.637,2.972a2,2,0,0,0,1.781.956,2.473,2.473,0,0,0,2.429-2.536,1.909,1.909,0,0,0-1.946-2.017A2.4,2.4,0,0,0,229.53,103.253Z"
         class="cls-5" />
    </g>
  </g>
  <rect
     id="rect562"
     height="5.901"
     width="9.092"
     y="163.148"
     x="168.021"
     class="cls-1" />
  <rect
     id="rect564"
     height="5.901"
     width="9.092"
     y="223.692"
     x="168.021"
     class="cls-1" />
  <g
     id="g616">
    <g
       id="g596">
      <path
         id="path566"
         d="M111.519,145.352a3.82,3.82,0,0,1-3.869-3.9,4.611,4.611,0,0,1,4.506-4.6,3.976,3.976,0,0,1,3.279,1.557l-.7.59a3.214,3.214,0,0,0-2.642-1.31,3.645,3.645,0,0,0-3.551,3.74,2.987,2.987,0,0,0,3.032,3.09,3.308,3.308,0,0,0,3.208-2.808h-2.9l.129-.8h3.81l-.106.613A4.353,4.353,0,0,1,111.519,145.352Z"
         class="cls-5" />
      <path
         id="path568"
         d="M117.42,139.313h.837l-.153.744a2.151,2.151,0,0,1,1.7-.874,1.89,1.89,0,0,1,.625.106l-.165.8a1.665,1.665,0,0,0-.673-.13,2.015,2.015,0,0,0-1.71,1.132l-.873,4.129h-.849Z"
         class="cls-5" />
      <path
         id="path570"
         d="M123.685,139.2a2.717,2.717,0,0,1,2.749,2.819,3.3,3.3,0,0,1-3.174,3.327,2.71,2.71,0,0,1-2.748-2.82A3.294,3.294,0,0,1,123.685,139.2Zm1.911,2.866a1.976,1.976,0,0,0-1.946-2.087,2.435,2.435,0,0,0-2.3,2.5,1.969,1.969,0,0,0,1.946,2.087A2.436,2.436,0,0,0,125.6,142.061Z"
         class="cls-5" />
      <path
         id="path572"
         d="M128.335,142.769c-.236,1.085.295,1.805,1.309,1.805a2.147,2.147,0,0,0,1.7-.849l.943-4.412h.849l-1.262,5.91h-.849l.13-.59a2.63,2.63,0,0,1-1.781.7,1.882,1.882,0,0,1-1.911-2.465l.755-3.551h.849Z"
         class="cls-5" />
      <path
         id="path574"
         d="M134.624,139.313h.85l-.095.425a2.918,2.918,0,0,1,1.628-.507,2.59,2.59,0,0,1,2.607,2.713,3.32,3.32,0,0,1-3.244,3.385,2.592,2.592,0,0,1-1.993-.861l-.672,3.173h-.85Zm.579,1.309-.638,2.973a2.007,2.007,0,0,0,1.782.955,2.473,2.473,0,0,0,2.429-2.536A1.909,1.909,0,0,0,136.83,140,2.4,2.4,0,0,0,135.2,140.622Z"
         class="cls-5" />
      <path
         id="path576"
         d="M111.425,149.77h1.085l1.6,8.256h-.92l-.484-2.594h-3.8l-1.569,2.594h-.991Zm1.144,4.883-.755-4.022-2.43,4.022Z"
         class="cls-5" />
      <path
         id="path578"
         d="M115.2,156.517a2.577,2.577,0,0,0,1.958.919c.873,0,1.522-.46,1.522-1.085,0-.436-.284-.684-.956-.837l-.967-.224c-1-.224-1.463-.7-1.463-1.486,0-1.074.861-1.782,2.159-1.782a3.469,3.469,0,0,1,2.371.932l-.519.566a2.916,2.916,0,0,0-1.9-.8c-.8,0-1.333.412-1.333,1.014,0,.436.259.672.943.825l.967.225c1.038.235,1.51.707,1.51,1.486a2.108,2.108,0,0,1-2.359,1.875,3.32,3.32,0,0,1-2.5-1.1Z"
         class="cls-5" />
      <path
         id="path580"
         d="M120.37,156.517a2.577,2.577,0,0,0,1.958.919c.873,0,1.522-.46,1.522-1.085,0-.436-.283-.684-.956-.837l-.967-.224c-1-.224-1.462-.7-1.462-1.486,0-1.074.861-1.782,2.158-1.782a3.467,3.467,0,0,1,2.371.932l-.519.566a2.912,2.912,0,0,0-1.9-.8c-.8,0-1.333.412-1.333,1.014,0,.436.259.672.944.825l.967.225c1.038.235,1.51.707,1.51,1.486a2.108,2.108,0,0,1-2.359,1.875,3.321,3.321,0,0,1-2.5-1.1Z"
         class="cls-5" />
      <path
         id="path582"
         d="M126.093,158.026h-.849l1.25-5.909h.849Zm.6-7.572a.67.67,0,0,1,.648-.649.509.509,0,0,1,.519.519.673.673,0,0,1-.648.661A.519.519,0,0,1,126.7,150.454Z"
         class="cls-5" />
      <path
         id="path584"
         d="M127.922,155.408a3.309,3.309,0,0,1,3.244-3.373,2.584,2.584,0,0,1,1.981.837l.166-.755h.849l-1.31,6.3a2.383,2.383,0,0,1-2.5,2.088,4.276,4.276,0,0,1-2.512-.861l.448-.648a3.424,3.424,0,0,0,2.029.743,1.591,1.591,0,0,0,1.686-1.4l.154-.732a2.89,2.89,0,0,1-1.64.508A2.57,2.57,0,0,1,127.922,155.408Zm2.784,1.946a2.417,2.417,0,0,0,1.64-.649l.625-2.96a2.013,2.013,0,0,0-1.782-.944,2.473,2.473,0,0,0-2.429,2.536A1.9,1.9,0,0,0,130.706,157.354Z"
         class="cls-5" />
      <path
         id="path586"
         d="M135.674,152.117h.849l-.129.59a2.63,2.63,0,0,1,1.792-.7,1.871,1.871,0,0,1,1.9,2.453l-.755,3.562h-.85l.732-3.456c.236-1.085-.283-1.8-1.309-1.8a2.185,2.185,0,0,0-1.687.825l-.944,4.435h-.849Z"
         class="cls-5" />
      <path
         id="path588"
         d="M142.034,152.117h.849l-.129.613a2.428,2.428,0,0,1,1.722-.719,1.692,1.692,0,0,1,1.687,1.12,2.762,2.762,0,0,1,2.134-1.12,1.765,1.765,0,0,1,1.734,2.371l-.766,3.644h-.85l.767-3.585c.2-.979-.271-1.675-1.168-1.675a2.244,2.244,0,0,0-1.734,1,2.917,2.917,0,0,1-.058.614l-.779,3.644h-.849l.743-3.5c.236-1.038-.236-1.757-1.156-1.757a2.129,2.129,0,0,0-1.616.849l-.932,4.411h-.849Z"
         class="cls-5" />
      <path
         id="path590"
         d="M153.9,158.132a2.711,2.711,0,0,1-2.854-2.771,3.247,3.247,0,0,1,3.1-3.339,2.593,2.593,0,0,1,2.512,2.784,4.784,4.784,0,0,1-.023.531H151.9a2,2,0,0,0,2.04,2.04,2.816,2.816,0,0,0,1.593-.483l.448.6A3.481,3.481,0,0,1,153.9,158.132Zm-1.923-3.491h3.87a1.835,1.835,0,0,0-1.782-1.852A2.256,2.256,0,0,0,151.981,154.641Z"
         class="cls-5" />
      <path
         id="path592"
         d="M158.483,152.117h.849l-.129.59a2.633,2.633,0,0,1,1.793-.7,1.871,1.871,0,0,1,1.9,2.453l-.755,3.562h-.85l.732-3.456c.236-1.085-.283-1.8-1.309-1.8a2.185,2.185,0,0,0-1.687.825l-.944,4.435h-.849Z"
         class="cls-5" />
      <path
         id="path594"
         d="M165.386,152.86h-1.25l.165-.743h1.238l.319-1.5.908-.224-.366,1.722h1.722l-.165.743h-1.722l-.767,3.574c-.141.684.095.943.873.943a2.32,2.32,0,0,0,.684-.117l-.153.766a3.431,3.431,0,0,1-.861.106c-1.109,0-1.628-.542-1.415-1.51Z"
         class="cls-5" />
    </g>
    <g
       id="g614">
      <g
         id="g604">
        <polyline
           id="polyline598"
           points="197.567 166.077 97.874 166.077 97.874 94.946"
           class="cls-3" />
        <polygon
           id="polygon600"
           points="196.473 162.338 202.949 166.077 196.473 169.817 196.473 162.338" />
        <polygon
           id="polygon602"
           points="101.614 96.04 97.875 89.564 94.135 96.04 101.614 96.04" />
      </g>
      <g
         id="g612">
        <polyline
           id="polyline606"
           points="191.548 166.077 97.874 166.077 97.874 100.946"
           class="cls-3" />
        <polygon
           id="polygon608"
           points="190.454 162.338 196.93 166.077 190.454 169.817 190.454 162.338" />
        <polygon
           id="polygon610"
           points="101.614 102.04 97.875 95.564 94.135 102.04 101.614 102.04" />
      </g>
    </g>
  </g>
  <g
     id="g664">
    <g
       id="g646">
      <path
         id="path618"
         d="M110.682,242.68c-2.171,0-3.362-1.534-2.891-3.7l.992-4.682h.9l-1.015,4.729c-.354,1.652.5,2.82,2.053,2.82,1.4,0,2.453-1.027,2.819-2.749l1.026-4.8h.9l-1.038,4.836C113.937,241.418,112.592,242.68,110.682,242.68Z"
         class="cls-5" />
      <path
         id="path620"
         d="M115.485,241.04a2.576,2.576,0,0,0,1.958.92c.873,0,1.522-.46,1.522-1.085,0-.436-.283-.684-.955-.837l-.968-.224c-1-.224-1.462-.7-1.462-1.486,0-1.074.861-1.782,2.158-1.782a3.465,3.465,0,0,1,2.371.932l-.519.566a2.912,2.912,0,0,0-1.9-.8c-.8,0-1.333.412-1.333,1.014,0,.436.26.672.944.825l.967.225c1.038.235,1.51.707,1.51,1.486a2.108,2.108,0,0,1-2.359,1.875,3.324,3.324,0,0,1-2.5-1.1Z"
         class="cls-5" />
      <path
         id="path622"
         d="M123.543,242.656a2.711,2.711,0,0,1-2.854-2.771,3.247,3.247,0,0,1,3.1-3.339,2.593,2.593,0,0,1,2.512,2.784,4.784,4.784,0,0,1-.023.531h-4.742a2,2,0,0,0,2.041,2.04,2.816,2.816,0,0,0,1.592-.483l.448.6A3.473,3.473,0,0,1,123.543,242.656Zm-1.922-3.491h3.869a1.835,1.835,0,0,0-1.782-1.852A2.255,2.255,0,0,0,121.621,239.165Z"
         class="cls-5" />
      <path
         id="path624"
         d="M128.111,236.641h.837l-.153.743a2.15,2.15,0,0,1,1.7-.873,1.869,1.869,0,0,1,.625.106l-.165.8a1.682,1.682,0,0,0-.673-.13,2.016,2.016,0,0,0-1.71,1.133l-.873,4.128h-.849Z"
         class="cls-5" />
      <path
         id="path626"
         d="M111.425,247.1h1.085l1.6,8.256h-.92l-.484-2.6h-3.8l-1.569,2.6h-.991Zm1.144,4.882-.755-4.022-2.43,4.022Z"
         class="cls-5" />
      <path
         id="path628"
         d="M115.2,253.844a2.575,2.575,0,0,0,1.958.92c.873,0,1.522-.46,1.522-1.085,0-.436-.284-.684-.956-.837l-.967-.224c-1-.225-1.463-.7-1.463-1.487,0-1.073.861-1.781,2.159-1.781a3.469,3.469,0,0,1,2.371.932l-.519.566a2.917,2.917,0,0,0-1.9-.8c-.8,0-1.333.413-1.333,1.014,0,.437.259.673.943.826l.967.224c1.038.236,1.51.708,1.51,1.487a2.108,2.108,0,0,1-2.359,1.875,3.324,3.324,0,0,1-2.5-1.1Z"
         class="cls-5" />
      <path
         id="path630"
         d="M120.37,253.844a2.575,2.575,0,0,0,1.958.92c.873,0,1.522-.46,1.522-1.085,0-.436-.283-.684-.956-.837l-.967-.224c-1-.225-1.462-.7-1.462-1.487,0-1.073.861-1.781,2.158-1.781a3.467,3.467,0,0,1,2.371.932l-.519.566a2.913,2.913,0,0,0-1.9-.8c-.8,0-1.333.413-1.333,1.014,0,.437.259.673.944.826l.967.224c1.038.236,1.51.708,1.51,1.487a2.108,2.108,0,0,1-2.359,1.875,3.324,3.324,0,0,1-2.5-1.1Z"
         class="cls-5" />
      <path
         id="path632"
         d="M126.093,255.354h-.849l1.25-5.909h.849Zm.6-7.572a.67.67,0,0,1,.648-.649.509.509,0,0,1,.519.519.672.672,0,0,1-.648.66A.518.518,0,0,1,126.7,247.782Z"
         class="cls-5" />
      <path
         id="path634"
         d="M127.922,252.735a3.309,3.309,0,0,1,3.244-3.373,2.585,2.585,0,0,1,1.981.838l.166-.755h.849l-1.31,6.3a2.383,2.383,0,0,1-2.5,2.088,4.283,4.283,0,0,1-2.512-.861l.448-.649a3.424,3.424,0,0,0,2.029.743,1.591,1.591,0,0,0,1.686-1.4l.154-.732a2.889,2.889,0,0,1-1.64.507A2.57,2.57,0,0,1,127.922,252.735Zm2.784,1.947a2.417,2.417,0,0,0,1.64-.649l.625-2.961a2.014,2.014,0,0,0-1.782-.943,2.473,2.473,0,0,0-2.429,2.535A1.9,1.9,0,0,0,130.706,254.682Z"
         class="cls-5" />
      <path
         id="path636"
         d="M135.674,249.445h.849l-.129.59a2.631,2.631,0,0,1,1.792-.7,1.871,1.871,0,0,1,1.9,2.454l-.755,3.562h-.85l.732-3.456c.236-1.085-.283-1.805-1.309-1.805a2.186,2.186,0,0,0-1.687.826l-.944,4.435h-.849Z"
         class="cls-5" />
      <path
         id="path638"
         d="M142.034,249.445h.849l-.129.613a2.43,2.43,0,0,1,1.722-.72,1.693,1.693,0,0,1,1.687,1.121,2.763,2.763,0,0,1,2.134-1.121,1.765,1.765,0,0,1,1.734,2.371l-.766,3.645h-.85l.767-3.586c.2-.979-.271-1.675-1.168-1.675a2.246,2.246,0,0,0-1.734,1,2.9,2.9,0,0,1-.058.613l-.779,3.645h-.849l.743-3.5c.236-1.038-.236-1.758-1.156-1.758a2.13,2.13,0,0,0-1.616.85l-.932,4.411h-.849Z"
         class="cls-5" />
      <path
         id="path640"
         d="M153.9,255.46a2.711,2.711,0,0,1-2.854-2.772,3.246,3.246,0,0,1,3.1-3.338,2.592,2.592,0,0,1,2.512,2.784,4.767,4.767,0,0,1-.023.53H151.9a2,2,0,0,0,2.04,2.041,2.824,2.824,0,0,0,1.593-.483l.448.6A3.482,3.482,0,0,1,153.9,255.46Zm-1.923-3.491h3.87a1.834,1.834,0,0,0-1.782-1.852A2.256,2.256,0,0,0,151.981,251.969Z"
         class="cls-5" />
      <path
         id="path642"
         d="M158.483,249.445h.849l-.129.59a2.634,2.634,0,0,1,1.793-.7,1.871,1.871,0,0,1,1.9,2.454l-.755,3.562h-.85l.732-3.456c.236-1.085-.283-1.805-1.309-1.805a2.186,2.186,0,0,0-1.687.826l-.944,4.435h-.849Z"
         class="cls-5" />
      <path
         id="path644"
         d="M165.386,250.188h-1.25l.165-.743h1.238l.319-1.5.908-.224-.366,1.722h1.722l-.165.743h-1.722l-.767,3.574c-.141.684.095.943.873.943a2.293,2.293,0,0,0,.684-.118l-.153.767a3.431,3.431,0,0,1-.861.106c-1.109,0-1.628-.543-1.415-1.51Z"
         class="cls-5" />
    </g>
    <g
       id="g654">
      <polyline
         id="polyline648"
         points="197.567 226.643 97.874 226.643 97.874 297.774"
         class="cls-3" />
      <polygon
         id="polygon650"
         points="196.473 222.904 202.949 226.643 196.473 230.382 196.473 222.904" />
      <polygon
         id="polygon652"
         points="94.135 296.68 97.874 303.156 101.614 296.68 94.135 296.68" />
    </g>
    <g
       id="g662">
      <polyline
         id="polyline656"
         points="191.548 226.643 97.874 226.643 97.874 291.774"
         class="cls-3" />
      <polygon
         id="polygon658"
         points="190.454 222.904 196.93 226.643 190.454 230.382 190.454 222.904" />
      <polygon
         id="polygon660"
         points="94.135 290.68 97.874 297.156 101.614 290.68 94.135 290.68" />
    </g>
  </g>
  <g
     id="g686">
    <rect
       id="rect666"
       height="62.275"
       width="107.509"
       y="416.501"
       x="23.364"
       class="cls-4" />
    <g
       id="g684">
      <path
         id="path668"
         d="M52.83,448.74a4.485,4.485,0,0,0,3.008,1.306c1.191,0,2.01-.6,2.01-1.422,0-.729-.435-1.062-1.626-1.28l-1.651-.281c-1.549-.282-2.3-1.05-2.3-2.279,0-1.613,1.293-2.688,3.3-2.688a5.98,5.98,0,0,1,3.6,1.165l-.781,1.151a4.649,4.649,0,0,0-2.868-1.036c-1.075,0-1.779.537-1.779,1.267,0,.64.4.973,1.383,1.126l1.587.282c1.8.308,2.65,1.1,2.65,2.458,0,1.639-1.46,2.8-3.6,2.8A5.643,5.643,0,0,1,52,449.866Z"
         class="cls-5" />
      <path
         id="path670"
         d="M63.712,451.313a3.261,3.261,0,0,1-3.264-3.329,3.158,3.158,0,0,1,3.124-3.315,3.078,3.078,0,0,1,3.034,3.3v.358H61.869a1.959,1.959,0,0,0,1.92,1.754,2.082,2.082,0,0,0,1.523-.6l.948.884A3.713,3.713,0,0,1,63.712,451.313Zm-1.818-3.866h3.342a1.756,1.756,0,0,0-1.677-1.6A1.723,1.723,0,0,0,61.894,447.447Z"
         class="cls-5" />
      <path
         id="path672"
         d="M68.079,444.771h1.446v1.395a1.9,1.9,0,0,1,1.767-1.51,1.708,1.708,0,0,1,.627.128v1.267a2.046,2.046,0,0,0-.794-.153,1.76,1.76,0,0,0-1.6,1.062v4.225H68.079Z"
         class="cls-5" />
      <path
         id="path674"
         d="M72.355,444.771H73.93l1.779,4.685,1.78-4.685h1.523l-2.637,6.414h-1.4Z"
         class="cls-5" />
      <path
         id="path676"
         d="M79.871,442.582a.9.9,0,0,1,1.805,0,.9.9,0,0,1-1.805,0Zm1.626,8.6H80.05v-6.414H81.5Z"
         class="cls-5" />
      <path
         id="path678"
         d="M87.86,449.329l.87.87a3.335,3.335,0,0,1-2.509,1.114,3.316,3.316,0,0,1,0-6.631,3.452,3.452,0,0,1,2.56,1.075l-.9.934a2.119,2.119,0,0,0-1.613-.755,2.058,2.058,0,0,0,.038,4.1A1.974,1.974,0,0,0,87.86,449.329Z"
         class="cls-5" />
      <path
         id="path680"
         d="M92.942,451.313a3.261,3.261,0,0,1-3.264-3.329,3.158,3.158,0,0,1,3.124-3.315,3.077,3.077,0,0,1,3.033,3.3v.358H91.1a1.959,1.959,0,0,0,1.92,1.754,2.082,2.082,0,0,0,1.523-.6l.948.884A3.713,3.713,0,0,1,92.942,451.313Zm-1.818-3.866h3.342a1.756,1.756,0,0,0-1.677-1.6A1.723,1.723,0,0,0,91.124,447.447Z"
         class="cls-5" />
      <path
         id="path682"
         d="M97.411,449.47a3.693,3.693,0,0,0,2.061.729c.768,0,1.293-.346,1.293-.857,0-.4-.268-.615-.883-.73l-1.139-.192c-1.242-.231-1.857-.807-1.857-1.767,0-1.2.986-1.984,2.484-1.984a4.512,4.512,0,0,1,2.522.768l-.679.947a3.508,3.508,0,0,0-1.933-.615c-.665,0-1.1.282-1.1.756,0,.409.231.589.909.7l1.127.205c1.28.243,1.894.832,1.894,1.792a2.35,2.35,0,0,1-2.611,2.087,4.3,4.3,0,0,1-2.766-.871Z"
         class="cls-5" />
    </g>
  </g>
  <g
     id="g736">
    <g
       id="g716">
      <path
         id="path688"
         d="M166.105,39.174a3.821,3.821,0,0,1-3.869-3.9,4.61,4.61,0,0,1,4.506-4.6,3.973,3.973,0,0,1,3.279,1.557l-.7.589a3.216,3.216,0,0,0-2.642-1.309,3.644,3.644,0,0,0-3.551,3.739,2.987,2.987,0,0,0,3.032,3.091,3.308,3.308,0,0,0,3.208-2.808h-2.9l.129-.8h3.81l-.106.614A4.353,4.353,0,0,1,166.105,39.174Z"
         class="cls-5" />
      <path
         id="path690"
         d="M172.006,33.135h.837l-.153.743a2.153,2.153,0,0,1,1.7-.873,1.89,1.89,0,0,1,.625.106l-.165.8a1.682,1.682,0,0,0-.673-.129,2.015,2.015,0,0,0-1.71,1.132l-.873,4.128h-.849Z"
         class="cls-5" />
      <path
         id="path692"
         d="M178.271,33.017a2.716,2.716,0,0,1,2.748,2.819,3.293,3.293,0,0,1-3.173,3.326,2.71,2.71,0,0,1-2.748-2.819A3.293,3.293,0,0,1,178.271,33.017Zm1.911,2.866a1.977,1.977,0,0,0-1.946-2.088,2.437,2.437,0,0,0-2.3,2.5,1.97,1.97,0,0,0,1.947,2.088A2.436,2.436,0,0,0,180.182,35.883Z"
         class="cls-5" />
      <path
         id="path694"
         d="M182.921,36.591c-.236,1.085.3,1.8,1.309,1.8a2.147,2.147,0,0,0,1.7-.849l.943-4.411h.849l-1.262,5.909h-.849l.13-.59a2.63,2.63,0,0,1-1.781.7,1.882,1.882,0,0,1-1.911-2.465l.755-3.55h.849Z"
         class="cls-5" />
      <path
         id="path696"
         d="M189.21,33.135h.85l-.095.424a2.917,2.917,0,0,1,1.628-.506,2.59,2.59,0,0,1,2.607,2.713,3.319,3.319,0,0,1-3.244,3.384,2.588,2.588,0,0,1-1.993-.861l-.673,3.173h-.849Zm.579,1.309-.638,2.972a2.006,2.006,0,0,0,1.782.956,2.473,2.473,0,0,0,2.429-2.536,1.909,1.909,0,0,0-1.946-2.017A2.4,2.4,0,0,0,189.789,34.444Z"
         class="cls-5" />
      <path
         id="path698"
         d="M156.447,51.978a3.816,3.816,0,0,1-3.881-3.9,4.585,4.585,0,0,1,4.482-4.612,3.816,3.816,0,0,1,3.881,3.9A4.586,4.586,0,0,1,156.447,51.978Zm.542-7.679a3.651,3.651,0,0,0-3.526,3.727,3.009,3.009,0,0,0,3.043,3.115,3.652,3.652,0,0,0,3.527-3.728A3.009,3.009,0,0,0,156.989,44.3Z"
         class="cls-5" />
      <path
         id="path700"
         d="M162.384,51.848l-.39-5.909h.814l.248,4.718,2.441-4.718h.767l.437,4.718,2.253-4.718h.837l-2.878,5.909h-.837l-.425-4.73-2.454,4.73Z"
         class="cls-5" />
      <path
         id="path702"
         d="M170.7,45.939h.849l-.129.59a2.631,2.631,0,0,1,1.792-.7,1.872,1.872,0,0,1,1.9,2.454l-.755,3.562h-.85l.732-3.456c.235-1.085-.284-1.8-1.309-1.8a2.186,2.186,0,0,0-1.687.826l-.944,4.435h-.849Z"
         class="cls-5" />
      <path
         id="path704"
         d="M179,51.954a2.711,2.711,0,0,1-2.854-2.771,3.246,3.246,0,0,1,3.1-3.339,2.593,2.593,0,0,1,2.512,2.784,4.594,4.594,0,0,1-.024.531h-4.741a2,2,0,0,0,2.04,2.04,2.823,2.823,0,0,0,1.592-.483l.449.6A3.475,3.475,0,0,1,179,51.954Zm-1.923-3.491h3.869a1.834,1.834,0,0,0-1.781-1.852A2.256,2.256,0,0,0,177.074,48.463Z"
         class="cls-5" />
      <path
         id="path706"
         d="M183.564,45.939h.837l-.153.743a2.152,2.152,0,0,1,1.7-.873,1.869,1.869,0,0,1,.625.106l-.165.8a1.682,1.682,0,0,0-.673-.13,2.014,2.014,0,0,0-1.71,1.133l-.873,4.128H182.3Z"
         class="cls-5" />
      <path
         id="path708"
         d="M186.608,50.338a2.576,2.576,0,0,0,1.958.92c.873,0,1.522-.46,1.522-1.085,0-.436-.283-.684-.955-.837l-.968-.224c-1-.224-1.462-.7-1.462-1.487,0-1.073.861-1.781,2.158-1.781a3.465,3.465,0,0,1,2.371.932l-.519.566a2.913,2.913,0,0,0-1.9-.8c-.8,0-1.333.413-1.333,1.015,0,.436.26.672.944.825l.967.224c1.038.236,1.51.708,1.51,1.487a2.108,2.108,0,0,1-2.359,1.875,3.328,3.328,0,0,1-2.5-1.1Z"
         class="cls-5" />
      <path
         id="path710"
         d="M193.24,43.592l.884-.2-.66,3.138a2.583,2.583,0,0,1,1.781-.7,1.871,1.871,0,0,1,1.9,2.454l-.755,3.562h-.85l.732-3.456c.236-1.085-.283-1.8-1.309-1.8a2.186,2.186,0,0,0-1.687.826l-.944,4.435h-.849Z"
         class="cls-5" />
      <path
         id="path712"
         d="M198.691,51.848h-.849l1.25-5.909h.849Zm.6-7.572a.67.67,0,0,1,.648-.649.509.509,0,0,1,.519.519.673.673,0,0,1-.648.661A.519.519,0,0,1,199.293,44.276Z"
         class="cls-5" />
      <path
         id="path714"
         d="M201.429,45.939h.849l-.094.424a2.913,2.913,0,0,1,1.627-.507,2.59,2.59,0,0,1,2.607,2.713,3.319,3.319,0,0,1-3.244,3.385,2.592,2.592,0,0,1-1.993-.861l-.672,3.173h-.849Zm.578,1.309-.637,2.972a2.005,2.005,0,0,0,1.781.956,2.473,2.473,0,0,0,2.429-2.536,1.908,1.908,0,0,0-1.946-2.017A2.4,2.4,0,0,0,202.007,47.248Z"
         class="cls-5" />
    </g>
    <g
       id="g734">
      <g
         id="g724">
        <line
           id="line718"
           y2="58.427"
           x2="222.212"
           y1="58.427"
           x1="136.505"
           class="cls-3" />
        <polygon
           id="polygon720"
           points="137.599 62.166 131.123 58.427 137.599 54.688 137.599 62.166" />
        <polygon
           id="polygon722"
           points="221.118 62.166 227.594 58.427 221.118 54.688 221.118 62.166" />
      </g>
      <g
         id="g732">
        <line
           id="line726"
           y2="58.427"
           x2="222.212"
           y1="58.427"
           x1="142.521"
           class="cls-3" />
        <polygon
           id="polygon728"
           points="143.616 62.166 137.14 58.427 143.616 54.688 143.616 62.166" />
        <polygon
           id="polygon730"
           points="221.118 62.166 227.594 58.427 221.118 54.688 221.118 62.166" />
      </g>
    </g>
  </g>
  <g
     id="g754">
    <g
       id="g744">
      <line
         id="line738"
         y2="447.638"
         x2="216.368"
         y1="447.638"
         x1="136.505"
         class="cls-3" />
      <polygon
         id="polygon740"
         points="137.599 451.378 131.123 447.639 137.599 443.899 137.599 451.378" />
      <polygon
         id="polygon742"
         points="215.274 451.378 221.75 447.639 215.274 443.899 215.274 451.378" />
    </g>
    <g
       id="g752">
      <line
         id="line746"
         y2="447.638"
         x2="222.212"
         y1="447.638"
         x1="136.505"
         class="cls-3" />
      <polygon
         id="polygon748"
         points="137.599 451.378 131.123 447.639 137.599 443.899 137.599 451.378" />
      <polygon
         id="polygon750"
         points="221.118 451.378 227.594 447.639 221.118 443.899 221.118 451.378" />
    </g>
  </g>
</svg>
